<svg xmlns="http://www.w3.org/2000/svg" xmlns:xlink="http://www.w3.org/1999/xlink" viewBox="0 0 226.26 199.76"><defs><style>.cls-1{fill:#f7f6fb;}.cls-2{opacity:0.34;fill:url(#linear-gradient);}.cls-3{opacity:0.37;fill:url(#linear-gradient-2);}.cls-4{clip-path:url(#clip-path);}.cls-5{fill:#eceaf4;}.cls-6{fill:none;stroke:#6d65ac;stroke-linecap:round;stroke-miterlimit:10;stroke-width:2px;}</style><linearGradient id="linear-gradient" x1="30.25" y1="139.7" x2="188.15" y2="139.7" gradientUnits="userSpaceOnUse"><stop offset="0" stop-color="#a0a0e8"/><stop offset="0.23" stop-color="#8987d2"/><stop offset="0.53" stop-color="#706dba"/><stop offset="0.79" stop-color="#605dab"/><stop offset="1" stop-color="#5b57a6"/></linearGradient><linearGradient id="linear-gradient-2" x1="30.57" y1="141.52" x2="188.15" y2="141.52" xlink:href="#linear-gradient"/><clipPath id="clip-path"><rect id="_Rectangle_" data-name="&lt;Rectangle&gt;" class="cls-1" x="30.25" y="112.1" width="157.89" height="51.31" rx="5.23" ry="5.23"/></clipPath></defs><title>title</title><g id="Layer_2" data-name="Layer 2"><g id="Layer_1-2" data-name="Layer 1"><rect class="cls-2" x="30.25" y="112.1" width="157.89" height="55.21" rx="5.23" ry="5.23"/><rect class="cls-3" x="30.57" y="113.92" width="157.57" height="55.21" rx="5.23" ry="5.23"/><rect id="_Rectangle_2" data-name="&lt;Rectangle&gt;" class="cls-1" x="30.25" y="112.1" width="157.89" height="51.31" rx="5.23" ry="5.23"/><g class="cls-4"><path class="cls-5" d="M5.51,91.26c19.24,83.67,83.07,128.4,142.56,99.92,45.76-21.92,75.6-80.79,78.19-144.87C215.69,94.48,189.39,135.24,153,152.66,93.52,181.14,29.69,136.41,10.45,52.73,3.42,22.14,4,0,4,0A222.72,222.72,0,0,0,5.51,91.26Z"/></g><line class="cls-6" x1="34.63" y1="164.11" x2="174.4" y2="164.11"/></g></g></svg>