<?xml version="1.0" encoding="UTF-8"?>
<!DOCTYPE svg PUBLIC "-//W3C//DTD SVG 1.1//EN" "http://www.w3.org/Graphics/SVG/1.1/DTD/svg11.dtd">
<svg version="1.2" width="22.2mm" height="11.5mm" viewBox="0 0 2220 1150" preserveAspectRatio="xMidYMid" fill-rule="evenodd" stroke-width="28.222" stroke-linejoin="round" xmlns="http://www.w3.org/2000/svg" xmlns:ooo="http://xml.openoffice.org/svg/export" xmlns:xlink="http://www.w3.org/1999/xlink" xmlns:presentation="http://sun.com/xmlns/staroffice/presentation" xmlns:smil="http://www.w3.org/2001/SMIL20/" xmlns:anim="urn:oasis:names:tc:opendocument:xmlns:animation:1.0" xml:space="preserve">
 <defs class="ClipPathGroup">
  <clipPath id="presentation_clip_path" clipPathUnits="userSpaceOnUse">
   <rect x="0" y="0" width="2220" height="1150"/>
  </clipPath>
  <clipPath id="presentation_clip_path_shrink" clipPathUnits="userSpaceOnUse">
   <rect x="2" y="1" width="2216" height="1148"/>
  </clipPath>
 </defs>
 <defs class="TextShapeIndex">
  <g ooo:slide="id1" ooo:id-list="id3 id4 id5 id6 id7 id8 id9"/>
 </defs>
 <defs class="EmbeddedBulletChars">
  <g id="bullet-char-template-57356" transform="scale(0.00048828125,-0.00048828125)">
   <path d="M 580,1141 L 1163,571 580,0 -4,571 580,1141 Z"/>
  </g>
  <g id="bullet-char-template-57354" transform="scale(0.00048828125,-0.00048828125)">
   <path d="M 8,1128 L 1137,1128 1137,0 8,0 8,1128 Z"/>
  </g>
  <g id="bullet-char-template-10146" transform="scale(0.00048828125,-0.00048828125)">
   <path d="M 174,0 L 602,739 174,1481 1456,739 174,0 Z M 1358,739 L 309,1346 659,739 1358,739 Z"/>
  </g>
  <g id="bullet-char-template-10132" transform="scale(0.00048828125,-0.00048828125)">
   <path d="M 2015,739 L 1276,0 717,0 1260,543 174,543 174,936 1260,936 717,1481 1274,1481 2015,739 Z"/>
  </g>
  <g id="bullet-char-template-10007" transform="scale(0.00048828125,-0.00048828125)">
   <path d="M 0,-2 C -7,14 -16,27 -25,37 L 356,567 C 262,823 215,952 215,954 215,979 228,992 255,992 264,992 276,990 289,987 310,991 331,999 354,1012 L 381,999 492,748 772,1049 836,1024 860,1049 C 881,1039 901,1025 922,1006 886,937 835,863 770,784 769,783 710,716 594,584 L 774,223 C 774,196 753,168 711,139 L 727,119 C 717,90 699,76 672,76 641,76 570,178 457,381 L 164,-76 C 142,-110 111,-127 72,-127 30,-127 9,-110 8,-76 1,-67 -2,-52 -2,-32 -2,-23 -1,-13 0,-2 Z"/>
  </g>
  <g id="bullet-char-template-10004" transform="scale(0.00048828125,-0.00048828125)">
   <path d="M 285,-33 C 182,-33 111,30 74,156 52,228 41,333 41,471 41,549 55,616 82,672 116,743 169,778 240,778 293,778 328,747 346,684 L 369,508 C 377,444 397,411 428,410 L 1163,1116 C 1174,1127 1196,1133 1229,1133 1271,1133 1292,1118 1292,1087 L 1292,965 C 1292,929 1282,901 1262,881 L 442,47 C 390,-6 338,-33 285,-33 Z"/>
  </g>
  <g id="bullet-char-template-9679" transform="scale(0.00048828125,-0.00048828125)">
   <path d="M 813,0 C 632,0 489,54 383,161 276,268 223,411 223,592 223,773 276,916 383,1023 489,1130 632,1184 813,1184 992,1184 1136,1130 1245,1023 1353,916 1407,772 1407,592 1407,412 1353,268 1245,161 1136,54 992,0 813,0 Z"/>
  </g>
  <g id="bullet-char-template-8226" transform="scale(0.00048828125,-0.00048828125)">
   <path d="M 346,457 C 273,457 209,483 155,535 101,586 74,649 74,723 74,796 101,859 155,911 209,963 273,989 346,989 419,989 480,963 531,910 582,859 608,796 608,723 608,648 583,586 532,535 482,483 420,457 346,457 Z"/>
  </g>
  <g id="bullet-char-template-8211" transform="scale(0.00048828125,-0.00048828125)">
   <path d="M -4,459 L 1135,459 1135,606 -4,606 -4,459 Z"/>
  </g>
  <g id="bullet-char-template-61548" transform="scale(0.00048828125,-0.00048828125)">
   <path d="M 173,740 C 173,903 231,1043 346,1159 462,1274 601,1332 765,1332 928,1332 1067,1274 1183,1159 1299,1043 1357,903 1357,740 1357,577 1299,437 1183,322 1067,206 928,148 765,148 601,148 462,206 346,322 231,437 173,577 173,740 Z"/>
  </g>
 </defs>
 <defs class="TextEmbeddedBitmaps"/>
 <g>
  <g id="id2" class="Master_Slide">
   <g id="bg-id2" class="Background"/>
   <g id="bo-id2" class="BackgroundObjects"/>
  </g>
 </g>
 <g class="SlideGroup">
  <g>
   <g id="container-id1">
    <g id="id1" class="Slide" clip-path="url(#presentation_clip_path)">
     <g class="Page">
      <g class="com.sun.star.drawing.ClosedBezierShape">
       <g id="id3">
        <rect class="BoundingBox" stroke="none" fill="none" x="59" y="456" width="160" height="272"/>
        <path fill="rgb(109,101,172)" stroke="none" d="M 91,535 L 95,544 C 91,539 86,532 81,523 104,569 134,619 165,667 L 176,684 182,693 185,697 186,697 186,698 186,699 C 189,702 192,706 195,709 200,715 205,719 209,719 211,723 213,726 215,726 216,727 217,725 218,722 218,719 217,715 217,711 216,707 215,704 214,702 214,700 213,699 213,698 213,692 213,688 213,684 213,684 214,683 214,682 L 214,681 213,679 211,674 190,636 205,667 C 197,652 189,638 179,621 L 181,628 C 154,574 109,505 81,473 53,441 52,458 79,512 L 91,535 Z"/>
       </g>
      </g>
      <g class="com.sun.star.drawing.ClosedBezierShape">
       <g id="id4">
        <rect class="BoundingBox" stroke="none" fill="none" x="30" y="460" width="148" height="226"/>
        <path fill="rgb(109,101,172)" stroke="none" d="M 130,641 C 114,609 98,579 80,548 L 78,542 74,547 75,547 C 98,572 127,616 154,658 L 164,672 C 169,679 172,684 174,684 179,687 173,672 162,653 L 149,629 C 118,573 64,487 37,462 31,456 32,464 31,466 26,466 36,488 52,515 68,543 85,565 92,565 L 100,579 92,569 C 99,575 115,599 128,617 L 146,645 144,624 134,610 C 134,611 135,613 135,613 116,587 98,563 77,533 L 51,498 C 43,488 41,491 47,503 L 55,520 52,512 C 74,552 99,593 121,632 124,638 129,646 132,649 134,651 134,648 130,641 Z"/>
       </g>
      </g>
      <g class="com.sun.star.drawing.ClosedBezierShape">
       <g id="id5">
        <rect class="BoundingBox" stroke="none" fill="none" x="30" y="481" width="17" height="28"/>
        <path fill="rgb(109,101,172)" stroke="none" d="M 46,507 C 42,499 39,494 33,484 L 30,481 37,494 C 41,504 45,508 46,507 Z"/>
       </g>
      </g>
      <g class="com.sun.star.drawing.PolyPolygonShape">
       <g id="id6">
        <rect class="BoundingBox" stroke="none" fill="none" x="26" y="474" width="5" height="8"/>
        <path fill="rgb(109,101,172)" stroke="none" d="M 30,481 L 26,474 29,479 29,480 30,481 Z"/>
       </g>
      </g>
      <g class="com.sun.star.drawing.ClosedBezierShape">
       <g id="id7">
        <rect class="BoundingBox" stroke="none" fill="none" x="927" y="72" width="385" height="275"/>
        <path fill="rgb(109,101,172)" stroke="none" d="M 933,340 C 984,287 1041,236 1104,192 1165,146 1231,108 1302,77 1307,75 1311,73 1311,72 1311,71 1307,73 1303,75 1231,105 1165,145 1104,189 1040,233 984,284 933,337 929,341 927,345 927,345 927,346 930,344 933,340 Z"/>
       </g>
      </g>
      <g class="com.sun.star.drawing.ClosedBezierShape">
       <g id="id8">
        <rect class="BoundingBox" stroke="none" fill="none" x="1962" y="101" width="18" height="8"/>
        <path fill="rgb(109,101,172)" stroke="none" d="M 1964,102 C 1961,101 1961,101 1964,104 1968,104 1973,106 1976,107 1979,109 1979,107 1976,105 1973,104 1968,102 1964,102 Z"/>
       </g>
      </g>
      <g class="com.sun.star.drawing.ClosedBezierShape">
       <g id="id9">
        <rect class="BoundingBox" stroke="none" fill="none" x="0" y="-1" width="2224" height="1153"/>
        <path fill="rgb(109,101,172)" stroke="none" d="M 20,623 L 41,635 20,622 20,623 Z M 59,560 C 58,557 57,556 56,553 L 59,560 Z M 35,516 L 38,520 C 36,519 35,517 35,516 Z M 44,523 L 43,520 49,525 44,523 Z M 179,731 C 183,742 187,753 190,764 195,770 199,777 203,784 211,798 219,810 227,825 L 236,806 C 234,806 237,801 238,798 L 241,790 226,818 209,786 C 199,767 188,748 179,731 Z M 777,566 C 772,574 767,583 762,592 L 761,594 761,595 C 761,596 760,596 760,595 L 757,590 751,581 739,564 C 732,552 724,542 718,530 L 733,550 748,572 755,584 759,590 760,592 760,593 761,592 762,589 C 767,581 772,573 777,566 Z M 124,703 L 121,693 124,703 Z M 222,832 L 221,829 225,838 228,846 C 229,846 230,845 232,845 L 228,848 222,832 Z M 1923,133 C 1904,128 1886,124 1870,123 1867,122 1863,121 1861,120 1862,121 1858,121 1851,120 1783,108 1711,102 1640,107 1567,111 1496,125 1429,149 1428,149 1427,151 1424,152 1415,158 1397,165 1378,173 L 1364,177 C 1305,201 1250,231 1198,266 1188,274 1176,283 1163,293 1121,328 1083,366 1046,407 1049,405 1051,404 1051,404 1052,406 1044,416 1033,427 L 1018,443 C 1032,428 1049,412 1064,398 1066,396 1069,394 1071,392 1087,376 1105,359 1123,344 1203,275 1288,218 1381,177 1472,138 1570,116 1670,113 1673,112 1678,112 1681,113 1683,113 1683,114 1679,114 1616,118 1559,129 1502,147 1446,164 1390,188 1330,221 1259,259 1194,308 1134,364 1075,420 1020,483 971,551 959,566 949,581 938,596 L 930,607 923,618 916,629 C 906,645 896,659 887,675 877,691 868,707 860,725 L 833,779 780,887 774,882 772,879 C 771,878 771,877 770,875 L 759,860 737,831 694,772 608,651 586,621 577,608 571,600 547,568 535,551 C 532,546 526,539 527,541 L 525,539 C 522,537 521,536 519,535 519,539 518,541 518,543 L 518,544 514,551 507,569 477,637 412,782 291,1054 C 277,1088 262,1121 249,1150 211,1088 178,1029 154,985 129,939 114,908 112,895 110,886 116,888 126,899 135,909 151,927 168,952 L 147,918 116,865 C 102,840 89,817 78,797 73,787 68,778 64,769 62,767 62,766 61,764 L 60,760 C 59,758 58,755 57,753 L 48,729 C 38,696 16,646 10,618 L 16,621 13,615 C 4,595 0,581 0,574 L 5,574 C 12,576 21,583 34,596 35,595 38,595 42,598 38,583 38,575 49,582 45,574 48,574 54,583 56,586 59,590 61,594 60,589 59,587 57,581 L 50,569 28,530 C 20,515 17,504 17,504 13,484 13,484 18,485 18,486 19,487 20,488 L 11,469 C 9,464 8,462 8,462 9,461 9,461 8,458 9,457 9,457 9,457 15,464 15,464 16,464 18,464 19,466 19,466 L 29,480 36,501 40,504 41,510 41,506 46,517 41,505 C 54,527 54,527 59,536 65,545 70,553 71,554 71,553 71,553 71,553 L 98,600 C 99,603 100,605 101,607 102,609 105,613 108,618 L 115,630 117,633 117,632 124,643 126,645 158,687 164,698 167,703 168,705 C 168,706 169,707 169,707 169,707 168,705 168,704 L 166,701 C 165,698 168,701 167,698 138,646 105,589 73,533 67,523 63,514 63,512 63,510 69,517 75,526 94,552 113,580 132,609 141,624 152,639 162,654 L 176,676 188,698 C 200,716 210,736 223,764 L 224,762 C 229,753 235,742 240,731 L 239,731 244,724 245,723 C 243,724 241,726 240,727 L 237,729 C 232,740 227,749 222,755 214,739 208,725 203,712 200,706 198,701 197,697 L 196,693 196,692 195,691 194,689 191,683 177,656 C 172,648 169,641 171,642 172,642 178,649 183,658 L 200,684 202,688 202,689 203,690 204,692 C 206,694 208,697 210,700 213,705 216,712 220,722 224,717 229,712 237,706 238,703 239,701 241,698 242,697 243,696 243,695 L 245,693 246,692 246,691 247,691 247,690 246,691 C 246,692 246,692 245,692 L 244,692 242,694 C 243,693 244,692 244,691 L 250,682 C 253,675 256,671 260,663 L 254,667 C 274,626 293,583 313,542 322,520 332,499 342,479 L 363,433 387,385 394,370 C 416,313 441,252 472,183 L 440,250 C 454,218 468,186 482,153 494,171 506,188 519,206 565,272 613,343 654,405 L 668,428 C 673,435 679,444 680,447 685,455 690,464 694,471 703,487 710,500 715,512 L 724,524 729,531 740,545 751,560 756,567 759,570 760,571 760,570 761,569 C 766,559 771,550 776,542 778,537 781,533 784,528 L 788,522 790,518 795,511 C 828,463 864,416 902,372 908,365 914,359 916,359 918,359 914,363 908,371 870,416 835,463 802,512 L 796,520 795,522 794,523 793,525 789,533 C 786,538 782,543 779,548 773,559 767,570 762,582 L 761,584 C 760,584 760,586 760,585 L 757,581 752,574 757,582 760,587 C 760,588 761,586 761,586 L 762,584 C 772,567 783,549 795,532 L 810,511 C 817,501 825,491 832,482 847,462 862,442 878,423 887,412 896,401 906,389 915,379 925,368 935,358 985,305 1037,255 1096,211 1154,167 1218,127 1287,93 1348,64 1407,43 1468,27 1529,13 1593,2 1661,0 1756,-2 1846,12 1933,34 2019,56 2101,89 2181,130 2203,141 2221,153 2222,157 2223,160 2207,154 2186,143 2102,101 2014,67 1921,44 1830,21 1734,10 1637,15 1540,18 1444,40 1354,74 1263,110 1178,159 1100,218 1067,243 1035,269 1005,297 1006,297 1006,297 1007,297 1008,298 1006,302 1002,307 1035,276 1072,246 1110,218 1161,177 1217,141 1277,111 1338,80 1403,56 1474,42 1570,20 1661,20 1751,32 1864,41 1976,71 2080,115 2084,117 2088,119 2090,120 2091,121 2088,121 2084,119 2012,91 1935,67 1854,52 1866,56 1873,60 1872,62 1870,65 1860,64 1845,63 1863,67 1880,71 1898,75 1909,78 1917,81 1916,82 1916,83 1907,82 1897,79 1825,61 1752,49 1678,48 1589,48 1500,62 1416,89 1429,87 1438,86 1443,87 1456,83 1469,80 1482,77 1542,62 1604,53 1669,52 1732,52 1795,58 1857,71 1983,97 2102,147 2211,210 2216,213 2219,215 2219,216 2219,216 2215,215 2211,212 2145,174 2076,141 2004,114 L 2004,115 C 2007,116 2007,117 2004,116 2001,115 1995,113 1993,112 1989,110 1990,110 1993,110 1924,87 1855,70 1784,61 1713,52 1642,52 1571,62 1637,54 1702,55 1767,63 1832,71 1895,85 1958,105 1971,109 1985,113 1999,118 2002,119 2007,121 2008,122 2009,123 2006,123 2002,121 L 1991,118 C 2014,125 2030,135 2029,138 2027,140 2006,134 1983,125 1918,103 1853,87 1786,77 1779,76 1772,76 1764,75 1757,74 1750,74 1742,74 1846,85 1948,115 2042,156 2050,159 2057,163 2057,164 2056,165 2049,163 2041,159 1957,126 1868,102 1778,92 1688,80 1595,83 1506,102 1449,119 1394,141 1341,170 L 1362,160 C 1451,123 1539,101 1629,95 1719,87 1810,95 1903,119 1907,120 1911,122 1912,123 1912,123 1909,123 1904,122 1859,109 1814,102 1770,97 1726,94 1682,94 1636,97 1560,101 1489,117 1424,142 1491,120 1560,105 1630,100 1701,96 1771,100 1842,114 1848,115 1854,117 1858,119 1858,118 1859,118 1861,119 1879,122 1898,125 1918,130 1922,131 1926,132 1928,133 1931,135 1927,134 1923,133 Z"/>
       </g>
      </g>
     </g>
    </g>
   </g>
  </g>
 </g>
</svg>