<?xml version="1.0" encoding="UTF-8"?>
<!DOCTYPE svg PUBLIC "-//W3C//DTD SVG 1.1//EN" "http://www.w3.org/Graphics/SVG/1.1/DTD/svg11.dtd">
<svg version="1.2" width="32.5mm" height="11.9mm" viewBox="0 0 3250 1190" preserveAspectRatio="xMidYMid" fill-rule="evenodd" stroke-width="28.222" stroke-linejoin="round" xmlns="http://www.w3.org/2000/svg" xmlns:ooo="http://xml.openoffice.org/svg/export" xmlns:xlink="http://www.w3.org/1999/xlink" xmlns:presentation="http://sun.com/xmlns/staroffice/presentation" xmlns:smil="http://www.w3.org/2001/SMIL20/" xmlns:anim="urn:oasis:names:tc:opendocument:xmlns:animation:1.0" xml:space="preserve">
 <defs class="ClipPathGroup">
  <clipPath id="presentation_clip_path" clipPathUnits="userSpaceOnUse">
   <rect x="0" y="0" width="3250" height="1190"/>
  </clipPath>
  <clipPath id="presentation_clip_path_shrink" clipPathUnits="userSpaceOnUse">
   <rect x="3" y="1" width="3244" height="1188"/>
  </clipPath>
 </defs>
 <defs class="TextShapeIndex">
  <g ooo:slide="id1" ooo:id-list="id3 id4 id5 id6 id7 id8 id9 id10 id11 id12 id13 id14 id15 id16 id17 id18 id19 id20 id21 id22 id23 id24 id25 id26 id27 id28 id29 id30 id31"/>
 </defs>
 <defs class="EmbeddedBulletChars">
  <g id="bullet-char-template-57356" transform="scale(0.00048828125,-0.00048828125)">
   <path d="M 580,1141 L 1163,571 580,0 -4,571 580,1141 Z"/>
  </g>
  <g id="bullet-char-template-57354" transform="scale(0.00048828125,-0.00048828125)">
   <path d="M 8,1128 L 1137,1128 1137,0 8,0 8,1128 Z"/>
  </g>
  <g id="bullet-char-template-10146" transform="scale(0.00048828125,-0.00048828125)">
   <path d="M 174,0 L 602,739 174,1481 1456,739 174,0 Z M 1358,739 L 309,1346 659,739 1358,739 Z"/>
  </g>
  <g id="bullet-char-template-10132" transform="scale(0.00048828125,-0.00048828125)">
   <path d="M 2015,739 L 1276,0 717,0 1260,543 174,543 174,936 1260,936 717,1481 1274,1481 2015,739 Z"/>
  </g>
  <g id="bullet-char-template-10007" transform="scale(0.00048828125,-0.00048828125)">
   <path d="M 0,-2 C -7,14 -16,27 -25,37 L 356,567 C 262,823 215,952 215,954 215,979 228,992 255,992 264,992 276,990 289,987 310,991 331,999 354,1012 L 381,999 492,748 772,1049 836,1024 860,1049 C 881,1039 901,1025 922,1006 886,937 835,863 770,784 769,783 710,716 594,584 L 774,223 C 774,196 753,168 711,139 L 727,119 C 717,90 699,76 672,76 641,76 570,178 457,381 L 164,-76 C 142,-110 111,-127 72,-127 30,-127 9,-110 8,-76 1,-67 -2,-52 -2,-32 -2,-23 -1,-13 0,-2 Z"/>
  </g>
  <g id="bullet-char-template-10004" transform="scale(0.00048828125,-0.00048828125)">
   <path d="M 285,-33 C 182,-33 111,30 74,156 52,228 41,333 41,471 41,549 55,616 82,672 116,743 169,778 240,778 293,778 328,747 346,684 L 369,508 C 377,444 397,411 428,410 L 1163,1116 C 1174,1127 1196,1133 1229,1133 1271,1133 1292,1118 1292,1087 L 1292,965 C 1292,929 1282,901 1262,881 L 442,47 C 390,-6 338,-33 285,-33 Z"/>
  </g>
  <g id="bullet-char-template-9679" transform="scale(0.00048828125,-0.00048828125)">
   <path d="M 813,0 C 632,0 489,54 383,161 276,268 223,411 223,592 223,773 276,916 383,1023 489,1130 632,1184 813,1184 992,1184 1136,1130 1245,1023 1353,916 1407,772 1407,592 1407,412 1353,268 1245,161 1136,54 992,0 813,0 Z"/>
  </g>
  <g id="bullet-char-template-8226" transform="scale(0.00048828125,-0.00048828125)">
   <path d="M 346,457 C 273,457 209,483 155,535 101,586 74,649 74,723 74,796 101,859 155,911 209,963 273,989 346,989 419,989 480,963 531,910 582,859 608,796 608,723 608,648 583,586 532,535 482,483 420,457 346,457 Z"/>
  </g>
  <g id="bullet-char-template-8211" transform="scale(0.00048828125,-0.00048828125)">
   <path d="M -4,459 L 1135,459 1135,606 -4,606 -4,459 Z"/>
  </g>
  <g id="bullet-char-template-61548" transform="scale(0.00048828125,-0.00048828125)">
   <path d="M 173,740 C 173,903 231,1043 346,1159 462,1274 601,1332 765,1332 928,1332 1067,1274 1183,1159 1299,1043 1357,903 1357,740 1357,577 1299,437 1183,322 1067,206 928,148 765,148 601,148 462,206 346,322 231,437 173,577 173,740 Z"/>
  </g>
 </defs>
 <defs class="TextEmbeddedBitmaps"/>
 <g>
  <g id="id2" class="Master_Slide">
   <g id="bg-id2" class="Background"/>
   <g id="bo-id2" class="BackgroundObjects"/>
  </g>
 </g>
 <g class="SlideGroup">
  <g>
   <g id="container-id1">
    <g id="id1" class="Slide" clip-path="url(#presentation_clip_path)">
     <g class="Page">
      <g class="com.sun.star.drawing.ClosedBezierShape">
       <g id="id3">
        <rect class="BoundingBox" stroke="none" fill="none" x="59" y="457" width="161" height="271"/>
        <path fill="rgb(109,101,172)" stroke="none" d="M 91,536 L 95,545 C 91,540 86,532 81,523 104,570 134,620 165,667 L 176,684 182,693 185,698 186,698 186,699 186,700 C 189,703 192,706 195,709 200,715 205,719 209,720 211,724 213,727 215,727 216,728 217,726 218,723 218,719 217,715 217,711 216,707 215,704 214,703 214,701 213,700 213,699 213,692 213,688 213,684 213,684 214,683 214,682 L 214,681 213,679 211,675 190,636 205,668 C 197,652 189,638 179,622 L 181,628 C 154,574 109,505 81,473 53,441 52,459 79,513 L 91,536 Z"/>
       </g>
      </g>
      <g class="com.sun.star.drawing.ClosedBezierShape">
       <g id="id4">
        <rect class="BoundingBox" stroke="none" fill="none" x="30" y="460" width="147" height="226"/>
        <path fill="rgb(109,101,172)" stroke="none" d="M 130,641 C 114,610 98,579 81,548 L 79,542 74,547 76,547 C 98,572 127,616 154,658 L 164,672 C 169,679 172,684 174,684 179,687 173,672 162,653 L 149,629 C 118,573 64,487 37,462 31,456 32,464 31,466 26,466 36,488 52,515 68,543 86,565 92,565 L 100,579 92,569 C 99,575 115,599 128,617 L 146,645 144,624 134,611 C 134,611 135,613 135,613 116,587 98,563 78,533 L 51,498 C 43,488 41,491 47,503 L 55,520 52,512 C 74,552 99,593 121,632 124,638 129,646 132,649 134,651 134,648 130,641 Z"/>
       </g>
      </g>
      <g class="com.sun.star.drawing.ClosedBezierShape">
       <g id="id5">
        <rect class="BoundingBox" stroke="none" fill="none" x="29" y="480" width="19" height="28"/>
        <path fill="rgb(109,101,172)" stroke="none" d="M 46,507 C 42,499 39,493 33,484 L 30,481 37,493 C 41,504 45,508 46,507 Z"/>
       </g>
      </g>
      <g class="com.sun.star.drawing.PolyPolygonShape">
       <g id="id6">
        <rect class="BoundingBox" stroke="none" fill="none" x="26" y="474" width="6" height="9"/>
        <path fill="rgb(109,101,172)" stroke="none" d="M 30,481 L 26,474 29,479 29,480 30,481 Z"/>
       </g>
      </g>
      <g class="com.sun.star.drawing.ClosedBezierShape">
       <g id="id7">
        <rect class="BoundingBox" stroke="none" fill="none" x="926" y="71" width="387" height="276"/>
        <path fill="rgb(109,101,172)" stroke="none" d="M 933,340 C 984,287 1041,236 1103,192 1165,146 1231,108 1302,77 1307,75 1311,73 1311,72 1311,71 1307,73 1303,75 1231,105 1165,144 1103,189 1040,233 984,284 933,337 929,341 927,345 927,345 927,346 930,344 933,340 Z"/>
       </g>
      </g>
      <g class="com.sun.star.drawing.ClosedBezierShape">
       <g id="id8">
        <rect class="BoundingBox" stroke="none" fill="none" x="1961" y="100" width="19" height="9"/>
        <path fill="rgb(109,101,172)" stroke="none" d="M 1964,101 C 1961,100 1961,100 1964,103 1968,104 1973,106 1976,107 1979,109 1979,107 1976,105 1973,104 1968,101 1964,101 Z"/>
       </g>
      </g>
      <g class="com.sun.star.drawing.ClosedBezierShape">
       <g id="id9">
        <rect class="BoundingBox" stroke="none" fill="none" x="0" y="0" width="2224" height="1152"/>
        <path fill="rgb(109,101,172)" stroke="none" d="M 20,623 L 41,635 20,622 20,623 Z M 59,560 C 58,557 57,556 56,553 L 59,560 Z M 35,516 L 38,520 C 36,519 35,517 35,516 Z M 44,523 L 43,520 49,525 44,523 Z M 179,731 C 183,742 187,753 190,764 195,770 199,777 203,784 211,798 219,810 227,825 L 236,806 C 234,806 237,801 238,798 L 241,790 226,818 209,786 C 199,767 188,748 179,731 Z M 777,566 C 772,574 767,583 762,592 L 761,594 761,595 C 761,596 760,596 760,595 L 757,590 751,581 739,564 C 732,552 724,542 718,530 L 733,550 748,572 755,584 759,590 760,592 760,593 761,592 762,589 C 767,581 772,573 777,566 Z M 124,703 L 121,693 124,703 Z M 222,832 L 221,829 225,838 228,846 C 229,846 230,845 232,845 L 228,848 222,832 Z M 1923,133 C 1904,128 1886,124 1870,123 1867,122 1863,121 1861,120 1862,121 1858,121 1851,120 1783,108 1711,102 1640,107 1567,111 1496,125 1429,149 1428,149 1427,151 1424,152 1415,158 1397,165 1378,173 L 1364,177 C 1305,201 1250,231 1198,266 1188,274 1176,283 1163,293 1121,328 1083,366 1046,407 1049,405 1051,404 1051,404 1052,406 1044,416 1033,427 L 1018,443 C 1032,428 1049,412 1064,398 1066,396 1069,394 1071,392 1087,376 1105,359 1123,344 1203,275 1288,218 1381,177 1472,138 1570,116 1670,113 1673,112 1678,112 1681,113 1683,113 1683,114 1679,114 1616,118 1559,129 1502,147 1446,164 1390,188 1330,221 1259,259 1194,308 1134,364 1075,420 1020,483 971,551 959,566 949,581 938,596 L 930,607 923,618 916,629 C 906,645 896,659 887,675 877,691 868,707 860,725 L 833,779 780,887 774,882 772,879 C 771,878 771,877 770,875 L 759,860 737,831 694,772 608,651 586,621 577,608 571,600 547,568 535,551 C 532,546 526,539 527,541 L 525,539 C 522,537 521,536 519,535 519,539 518,541 518,543 L 518,543 518,544 514,551 507,569 477,637 412,782 291,1054 C 277,1088 262,1121 249,1150 211,1088 178,1029 154,985 129,939 114,908 112,895 110,886 116,888 126,899 135,909 151,927 168,952 L 147,918 116,865 C 102,840 89,817 78,797 73,787 68,778 64,769 62,767 62,766 61,764 L 60,760 C 59,758 58,755 57,753 L 48,729 C 38,696 16,646 10,618 L 16,621 13,615 C 4,595 0,581 0,574 L 5,574 C 12,576 21,583 34,596 35,595 38,595 42,598 38,583 38,575 49,582 45,574 48,574 54,583 56,586 59,590 61,594 60,589 59,587 57,581 L 50,569 28,530 C 20,515 17,504 17,504 13,484 13,484 18,485 18,486 19,487 20,488 L 11,469 C 9,464 8,462 8,462 9,461 9,461 8,458 9,457 9,457 9,457 15,464 15,464 16,464 18,464 19,466 19,466 L 29,480 36,501 40,504 41,510 41,506 46,517 41,505 C 54,527 54,527 59,536 65,545 70,553 71,554 71,553 71,553 71,553 L 98,600 C 99,603 100,605 101,607 102,609 105,613 108,618 L 115,630 117,633 117,632 124,643 126,645 158,687 164,698 167,703 168,705 C 168,706 169,707 169,707 169,707 168,705 168,704 L 166,701 C 165,698 168,701 167,698 138,646 105,589 73,533 67,523 63,514 63,512 63,510 69,517 75,526 94,552 113,580 132,609 141,624 152,639 162,654 L 176,676 188,698 C 200,716 210,736 223,764 L 224,762 C 229,753 235,742 240,731 L 239,731 244,724 245,723 C 243,724 241,726 240,727 L 237,729 C 232,740 227,749 222,755 214,739 208,725 203,712 200,706 198,701 197,697 L 196,693 196,692 195,691 194,689 191,683 177,656 C 172,648 169,641 171,642 172,642 178,649 183,658 L 200,684 202,688 202,689 203,690 204,692 C 206,694 208,697 210,700 213,705 216,712 220,722 224,717 229,712 237,706 238,703 239,701 241,698 242,697 243,696 243,695 L 245,693 246,692 246,691 247,691 247,690 246,691 C 246,692 246,692 245,692 L 244,692 242,694 C 243,693 244,692 244,691 L 250,682 C 253,675 256,671 260,663 L 254,667 C 274,626 293,583 313,542 322,520 332,499 342,479 L 363,433 387,385 394,370 C 416,313 441,252 472,183 L 440,250 C 454,218 468,186 482,153 494,171 506,188 519,206 565,272 613,343 654,405 L 668,428 C 673,435 679,444 680,447 685,455 690,464 694,471 703,487 710,500 715,512 L 724,524 729,531 740,545 751,560 756,567 759,570 760,571 760,570 761,569 C 766,559 771,550 776,542 778,537 781,533 784,528 L 788,522 790,518 795,511 C 828,463 864,416 902,372 908,365 914,359 916,359 918,359 914,363 908,371 870,416 835,463 802,512 L 796,520 795,522 794,523 793,525 789,533 C 786,538 782,543 779,548 773,559 767,570 762,582 L 761,584 C 760,584 760,586 760,585 L 757,581 752,574 757,582 760,587 C 760,588 761,586 761,586 L 762,584 C 772,567 783,549 795,532 L 810,511 C 817,501 825,491 832,482 847,462 862,442 878,423 887,412 896,401 906,389 915,379 925,368 935,358 985,305 1037,255 1096,211 1154,167 1218,127 1287,93 1348,64 1407,43 1468,27 1529,13 1593,2 1661,0 1756,-2 1846,12 1933,34 2019,56 2101,89 2181,130 2203,141 2221,153 2222,157 2223,160 2207,154 2186,143 2102,101 2014,67 1921,44 1830,21 1734,10 1637,15 1540,18 1444,40 1354,74 1263,110 1178,159 1100,218 1067,243 1035,269 1005,297 1006,297 1006,297 1007,297 1008,298 1006,302 1002,307 1035,276 1072,246 1110,218 1161,177 1217,141 1277,111 1338,80 1403,56 1474,42 1570,20 1661,20 1751,32 1864,41 1976,71 2080,115 2084,117 2088,119 2090,120 2091,121 2088,121 2084,119 2012,91 1935,67 1854,52 1866,56 1873,60 1872,62 1870,65 1860,64 1845,63 1863,67 1880,71 1898,75 1909,78 1917,81 1916,82 1916,83 1907,82 1897,79 1825,61 1752,49 1678,48 1589,48 1500,62 1416,89 1429,87 1438,86 1443,87 1456,83 1469,80 1482,77 1542,62 1604,53 1669,52 1732,52 1795,58 1857,71 1983,97 2102,147 2211,210 2216,213 2219,215 2219,216 2219,216 2215,215 2211,212 2145,174 2076,141 2004,114 L 2004,115 C 2007,116 2007,117 2004,116 2001,115 1995,113 1993,112 1989,110 1990,110 1993,110 1924,87 1855,70 1784,61 1713,52 1642,52 1571,62 1637,54 1702,55 1767,63 1832,71 1895,85 1958,105 1971,109 1985,113 1999,118 2002,119 2007,121 2008,122 2009,123 2006,123 2002,121 L 1991,118 C 2014,125 2030,135 2029,138 2027,140 2006,134 1983,125 1918,103 1853,87 1786,77 1779,76 1772,76 1764,75 1757,74 1750,74 1742,74 1846,85 1948,115 2042,156 2050,159 2057,163 2057,164 2056,165 2049,163 2041,159 1957,126 1868,102 1778,92 1688,80 1595,83 1506,102 1449,119 1394,141 1341,170 L 1362,160 C 1451,123 1539,101 1629,95 1719,87 1810,95 1903,119 1907,120 1911,122 1912,123 1912,123 1909,123 1904,122 1859,109 1814,102 1770,97 1726,94 1682,94 1636,97 1560,101 1489,117 1424,142 1491,120 1560,105 1630,100 1701,96 1771,100 1842,114 1848,115 1854,117 1858,119 1858,118 1859,118 1861,119 1879,122 1898,125 1918,130 1922,131 1926,132 1928,133 1931,135 1927,134 1923,133 Z"/>
       </g>
      </g>
      <g class="com.sun.star.drawing.PolyPolygonShape">
       <g id="id10">
        <rect class="BoundingBox" stroke="none" fill="none" x="1407" y="351" width="163" height="291"/>
        <path fill="rgb(109,101,172)" stroke="none" d="M 1465,545 L 1407,351 1455,351 1490,484 1525,351 1569,351 1510,545 1510,640 1465,640 1465,545 Z"/>
       </g>
      </g>
      <g class="com.sun.star.drawing.ClosedBezierShape">
       <g id="id11">
        <rect class="BoundingBox" stroke="none" fill="none" x="1575" y="348" width="142" height="298"/>
        <path fill="rgb(109,101,172)" stroke="none" d="M 1623,575 C 1623,595 1632,603 1646,603 1661,603 1670,595 1670,575 L 1670,418 C 1670,398 1661,390 1646,390 1632,390 1623,398 1623,418 L 1623,575 Z M 1576,421 C 1576,375 1601,349 1646,349 1691,349 1715,375 1715,421 L 1715,572 C 1715,618 1691,644 1646,644 1601,644 1576,618 1576,572 L 1576,421 Z"/>
       </g>
      </g>
      <g class="com.sun.star.drawing.ClosedBezierShape">
       <g id="id12">
        <rect class="BoundingBox" stroke="none" fill="none" x="1741" y="351" width="139" height="295"/>
        <path fill="rgb(109,101,172)" stroke="none" d="M 1787,351 L 1787,575 C 1787,595 1796,603 1810,603 1825,603 1836,595 1836,575 L 1836,351 1879,351 1879,572 C 1879,618 1856,644 1809,644 1765,644 1741,618 1741,572 L 1741,351 1787,351 Z"/>
       </g>
      </g>
      <g class="com.sun.star.drawing.PolyPolygonShape">
       <g id="id13">
        <rect class="BoundingBox" stroke="none" fill="none" x="1909" y="352" width="147" height="290"/>
        <path fill="rgb(109,101,172)" stroke="none" d="M 1950,431 L 1950,640 1909,640 1909,352 1966,352 2013,525 2013,352 2055,352 2055,640 2007,640 1950,431 Z"/>
       </g>
      </g>
      <g class="com.sun.star.drawing.ClosedBezierShape">
       <g id="id14">
        <rect class="BoundingBox" stroke="none" fill="none" x="2082" y="348" width="139" height="298"/>
        <path fill="rgb(109,101,172)" stroke="none" d="M 2156,480 L 2219,480 2219,572 C 2219,617 2196,644 2152,644 2107,644 2083,617 2083,572 L 2083,421 C 2083,375 2107,349 2152,349 2196,349 2219,375 2219,421 L 2219,449 2176,449 2176,418 C 2176,398 2167,390 2153,390 2138,390 2129,398 2129,418 L 2129,575 C 2129,595 2138,603 2153,603 2167,603 2176,595 2176,575 L 2176,521 2156,521 2156,480 Z"/>
       </g>
      </g>
      <g class="com.sun.star.drawing.PolyPolygonShape">
       <g id="id15">
        <rect class="BoundingBox" stroke="none" fill="none" x="1120" y="681" width="161" height="210"/>
        <path fill="rgb(109,101,172)" stroke="none" d="M 1202,778 L 1189,889 1145,889 1120,682 1153,682 1171,845 1186,682 1219,682 1235,846 1252,682 1280,682 1257,889 1214,889 1202,778 Z"/>
       </g>
      </g>
      <g class="com.sun.star.drawing.PolyPolygonShape">
       <g id="id16">
        <rect class="BoundingBox" stroke="none" fill="none" x="1296" y="681" width="92" height="210"/>
        <path fill="rgb(109,101,172)" stroke="none" d="M 1328,769 L 1375,769 1375,798 1328,798 1328,859 1387,859 1387,889 1296,889 1296,682 1387,682 1387,712 1328,712 1328,769 Z"/>
       </g>
      </g>
      <g class="com.sun.star.drawing.ClosedBezierShape">
       <g id="id17">
        <rect class="BoundingBox" stroke="none" fill="none" x="1405" y="681" width="103" height="210"/>
        <path fill="rgb(109,101,172)" stroke="none" d="M 1438,796 L 1438,859 1457,859 C 1469,859 1475,854 1475,839 L 1475,821 C 1475,801 1469,796 1453,796 L 1438,796 Z M 1438,712 L 1438,766 1451,766 C 1464,766 1472,761 1472,745 L 1472,733 C 1472,719 1467,712 1454,712 L 1438,712 Z M 1504,729 L 1504,737 C 1504,758 1498,772 1483,778 1501,785 1507,801 1507,823 L 1507,840 C 1507,873 1491,889 1457,889 L 1405,889 1405,682 1455,682 C 1490,682 1504,697 1504,729 Z"/>
       </g>
      </g>
      <g class="com.sun.star.drawing.PolyPolygonShape">
       <g id="id18">
        <rect class="BoundingBox" stroke="none" fill="none" x="1526" y="681" width="140" height="210"/>
        <path fill="rgb(109,101,172)" stroke="none" d="M 1596,828 L 1618,682 1665,682 1665,889 1633,889 1633,741 1610,889 1579,889 1555,743 1555,889 1526,889 1526,682 1572,682 1596,828 Z"/>
       </g>
      </g>
      <g class="com.sun.star.drawing.PolyPolygonShape">
       <g id="id19">
        <rect class="BoundingBox" stroke="none" fill="none" x="1678" y="681" width="117" height="210"/>
        <path fill="rgb(109,101,172)" stroke="none" d="M 1718,824 L 1750,824 1734,719 1718,824 Z M 1794,889 L 1760,889 1754,851 1714,851 1709,889 1679,889 1712,682 1760,682 1794,889 Z"/>
       </g>
      </g>
      <g class="com.sun.star.drawing.ClosedBezierShape">
       <g id="id20">
        <rect class="BoundingBox" stroke="none" fill="none" x="1803" y="679" width="100" height="214"/>
        <path fill="rgb(109,101,172)" stroke="none" d="M 1852,679 C 1884,679 1901,698 1901,731 L 1901,737 1870,737 1870,728 C 1870,714 1864,708 1853,708 1842,708 1836,714 1836,728 1836,772 1901,779 1901,838 1901,871 1884,891 1851,891 1819,891 1803,871 1803,838 L 1803,826 1834,826 1834,840 C 1834,856 1840,860 1851,860 1862,860 1868,856 1868,840 1868,798 1804,790 1804,731 1804,698 1820,679 1852,679 Z"/>
       </g>
      </g>
      <g class="com.sun.star.drawing.PolyPolygonShape">
       <g id="id21">
        <rect class="BoundingBox" stroke="none" fill="none" x="1909" y="681" width="104" height="210"/>
        <path fill="rgb(109,101,172)" stroke="none" d="M 1909,682 L 2011,682 2011,712 1977,712 1977,889 1944,889 1944,712 1909,712 1909,682 Z"/>
       </g>
      </g>
      <g class="com.sun.star.drawing.PolyPolygonShape">
       <g id="id22">
        <rect class="BoundingBox" stroke="none" fill="none" x="2024" y="681" width="92" height="210"/>
        <path fill="rgb(109,101,172)" stroke="none" d="M 2059,769 L 2103,769 2103,798 2059,798 2059,859 2115,859 2115,889 2024,889 2024,682 2115,682 2115,712 2059,712 2059,769 Z"/>
       </g>
      </g>
      <g class="com.sun.star.drawing.ClosedBezierShape">
       <g id="id23">
        <rect class="BoundingBox" stroke="none" fill="none" x="2133" y="681" width="104" height="210"/>
        <path fill="rgb(109,101,172)" stroke="none" d="M 2166,712 L 2166,775 2179,775 C 2193,775 2200,770 2200,753 L 2200,733 C 2200,719 2195,712 2183,712 L 2166,712 Z M 2203,889 C 2202,884 2200,881 2200,864 L 2200,830 C 2200,812 2194,804 2178,804 L 2166,804 2166,889 2133,889 2133,682 2184,682 C 2218,682 2233,697 2233,729 L 2233,745 C 2233,767 2226,781 2211,788 2228,795 2233,810 2233,831 L 2233,864 C 2233,875 2233,882 2236,889 L 2203,889 Z"/>
       </g>
      </g>
      <g class="com.sun.star.drawing.ClosedBezierShape">
       <g id="id24">
        <rect class="BoundingBox" stroke="none" fill="none" x="1749" y="931" width="100" height="214"/>
        <path fill="rgb(109,101,172)" stroke="none" d="M 1848,1064 L 1848,1093 C 1848,1125 1832,1144 1800,1144 1768,1144 1749,1125 1749,1093 L 1749,984 C 1749,951 1768,932 1800,932 1832,932 1848,951 1848,984 L 1848,1004 1818,1004 1818,982 C 1818,967 1811,962 1801,962 1790,962 1784,967 1784,982 L 1784,1094 C 1784,1109 1790,1115 1801,1115 1811,1115 1818,1109 1818,1094 L 1818,1064 1848,1064 Z"/>
       </g>
      </g>
      <g class="com.sun.star.drawing.PolyPolygonShape">
       <g id="id25">
        <rect class="BoundingBox" stroke="none" fill="none" x="1859" y="935" width="117" height="209"/>
        <path fill="rgb(109,101,172)" stroke="none" d="M 1899,1077 L 1931,1077 1915,972 1899,1077 Z M 1975,1142 L 1941,1142 1935,1105 1895,1105 1890,1142 1859,1142 1893,935 1940,935 1975,1142 Z"/>
       </g>
      </g>
      <g class="com.sun.star.drawing.PolyPolygonShape">
       <g id="id26">
        <rect class="BoundingBox" stroke="none" fill="none" x="1988" y="935" width="139" height="209"/>
        <path fill="rgb(109,101,172)" stroke="none" d="M 2057,1083 L 2080,935 2126,935 2126,1142 2095,1142 2095,993 2071,1142 2040,1142 2016,995 2016,1142 1988,1142 1988,935 2028,935 2057,1083 Z"/>
       </g>
      </g>
      <g class="com.sun.star.drawing.ClosedBezierShape">
       <g id="id27">
        <rect class="BoundingBox" stroke="none" fill="none" x="2148" y="935" width="101" height="209"/>
        <path fill="rgb(109,101,172)" stroke="none" d="M 2182,964 L 2182,1034 2198,1034 C 2208,1034 2214,1030 2214,1015 L 2214,984 C 2214,969 2208,964 2198,964 L 2182,964 Z M 2247,986 L 2247,1013 C 2247,1046 2231,1064 2198,1064 L 2182,1064 2182,1142 2149,1142 2149,935 2198,935 C 2231,935 2247,953 2247,986 Z"/>
       </g>
      </g>
      <g class="com.sun.star.drawing.PolyPolygonShape">
       <g id="id28">
        <rect class="BoundingBox" stroke="none" fill="none" x="3019" y="367" width="109" height="221"/>
        <path fill="rgb(109,101,172)" stroke="none" d="M 3019,367 L 3127,367 3127,398 3090,398 3090,586 3056,586 3056,398 3019,398 3019,367 Z"/>
       </g>
      </g>
      <g class="com.sun.star.drawing.PolyPolygonShape">
       <g id="id29">
        <rect class="BoundingBox" stroke="none" fill="none" x="3141" y="367" width="111" height="221"/>
        <path fill="rgb(109,101,172)" stroke="none" d="M 3176,586 L 3141,586 3141,367 3176,367 3176,461 3215,461 3215,367 3250,367 3250,586 3215,586 3215,492 3176,492 3176,586 Z"/>
       </g>
      </g>
      <g class="com.sun.star.drawing.ClosedBezierShape">
       <g id="id30">
        <rect class="BoundingBox" stroke="none" fill="none" x="2312" y="353" width="234" height="796"/>
        <path fill="rgb(109,101,172)" stroke="none" d="M 2416,544 L 2312,544 2312,454 C 2348,454 2348,451 2370,445 2392,439 2410,428 2423,415 2436,400 2448,380 2458,353 L 2544,353 2544,1148 2416,1148 2416,544 Z"/>
       </g>
      </g>
      <g class="com.sun.star.drawing.ClosedBezierShape">
       <g id="id31">
        <rect class="BoundingBox" stroke="none" fill="none" x="2596" y="348" width="389" height="802"/>
        <path fill="rgb(109,101,172)" stroke="none" d="M 2856,962 L 2856,824 C 2856,772 2834,746 2790,746 2747,746 2725,772 2725,824 L 2725,962 C 2725,1012 2747,1037 2790,1037 2834,1037 2856,1012 2856,962 Z M 2647,1097 C 2613,1063 2596,1015 2596,953 L 2596,551 C 2596,416 2661,349 2791,349 2853,349 2900,365 2933,399 2965,432 2981,481 2981,544 L 2981,559 2861,559 2861,536 C 2861,485 2839,459 2795,459 2771,459 2753,466 2742,481 2730,495 2725,519 2725,555 L 2725,703 2727,703 C 2749,659 2788,636 2842,636 2888,636 2923,651 2948,681 2972,712 2984,756 2984,813 L 2984,953 C 2984,1015 2967,1063 2934,1097 2900,1131 2852,1148 2790,1148 2728,1148 2680,1131 2647,1097 Z"/>
       </g>
      </g>
     </g>
    </g>
   </g>
  </g>
 </g>
</svg>