<svg xmlns="http://www.w3.org/2000/svg" viewBox="0 0 246.4 222.8"><defs><style>.cls-1{fill:#fff;}.cls-2{fill:#eceaf4;}.cls-3{fill:#706cab;}.cls-4,.cls-5{fill:none;stroke-linecap:round;stroke-miterlimit:10;}.cls-4{stroke:#eceaf4;stroke-width:9px;}.cls-5{stroke:#706cab;stroke-width:10.52px;}</style></defs><title>icon-confirm</title><g id="Layer_2" data-name="Layer 2"><g id="Layer_1-2" data-name="Layer 1"><path class="cls-1" d="M242.8,111.4c0-59.6-53.6-107.9-119.7-107.9S3.5,51.9,3.5,111.4,57.1,219.3,123.2,219.3A127.07,127.07,0,0,0,197.4,196h0l34.7,10.8-8.7-36.4A99.3,99.3,0,0,0,242.8,111.4Z"/><path class="cls-2" d="M241.76,111.45c0-59.6-53.6-107.9-119.7-107.9-50.8,0-94.2,28.6-111.6,68.9,21.7-27.6,57.4-45.7,97.8-45.7,66.1,0,119.7,48.3,119.7,107.9,0,21.8-5.7,35.8-5.7,35.8A99.18,99.18,0,0,0,241.76,111.45Z"/><path class="cls-3" d="M123.2,222.8C55.3,222.8,0,172.8,0,111.4S55.2,0,123.2,0,246.4,50,246.4,111.4a103.78,103.78,0,0,1-19.2,59.7l8.3,34.9a3.4,3.4,0,0,1-2.6,4.2,4.08,4.08,0,0,1-1.9-.1l-33-10.3C176.3,214.9,150.5,222.8,123.2,222.8Zm0-215.7C59.1,7.1,7,53.9,7,111.5S59.1,215.9,123.2,215.9c26.5,0,51.5-7.8,72.2-22.6a3.33,3.33,0,0,1,3.7-.2l28.2,8.8L220,171.4a3.79,3.79,0,0,1,.6-2.9,95.71,95.71,0,0,0,18.8-57C239.3,53.9,187.2,7.1,123.2,7.1Z"/><line class="cls-4" x1="171.2" y1="55.81" x2="63.02" y2="163.99"/><line class="cls-4" x1="63.02" y1="55.81" x2="171.2" y2="163.99"/><line class="cls-5" x1="180.2" y1="54.81" x2="72.02" y2="162.99"/><line class="cls-5" x1="72.02" y1="54.81" x2="180.2" y2="162.99"/></g></g></svg>