<svg xmlns="http://www.w3.org/2000/svg" xmlns:xlink="http://www.w3.org/1999/xlink" width="460" height="158" viewBox="0 0 12150 4170" preserveAspectRatio="xMidYMid" fill-rule="evenodd" stroke-width="28.222" stroke-linejoin="round"><style><![CDATA[.Q{stroke-linejoin:miter}.R{stroke-width:10}.S{stroke-width:7}.T{stroke:#a1852f}]]></style><defs><clipPath id="A"><path d="M0 0h12150v4170H0z"/></clipPath><path id="B" d="M4441 926c0-14-1-26-5-36-3-10-8-18-15-25-6-6-14-11-24-14-9-3-20-4-32-4h-31v160h31c12 0 23-2 32-5 10-3 18-8 24-14 7-6 12-15 15-25 4-10 5-22 5-37zm37 0c0 37-9 65-28 84-20 19-48 29-85 29h-67V814h67c37 0 65 10 85 29 19 19 28 47 28 83z"/><path id="C" d="M9096 2476v463h13v-463h-13z"/><path id="D" d="M9192 2476v463h14v-463h-14z"/></defs><g clip-path="url(#A)"><g fill="#043d5c"><path d="M0 1778c0-307 209-386 390-381l847 43v251H446c-139 0-139 77-139 148v384l814 27v251l-814 26v385c3 141 89 138 165 138h765v249c-95 13-820 45-820 45-176 8-417-32-417-368V1778zm1441-380.997h1401V1686h-553v1650.005h-307V1686h-541v-288.998zm2386 1656c278 0 390-286 390-682.002 0-534.997-149-692.997-390-692.997h-460v1375h460zm-768-1656h787c569 0 677 527 677 976.995 0 522-193 962.008-677 962.008h-787V1397.003zm2641 1189l-256-771-264 771h520zm-425-1189h340l648 1939.002h-336l-148-469h-687l-151 469h-341l675-1939.002zM2529 4006.005l-445-278.002h-172c-33 0-55 2.997-65 7.998-10 5.995-16 17.003-16 34.006v125c0 16.008 6 28 16 33 10 5.995 32 8.992 65 8.992h157v69.006h-157c-146 0-220-37.003-220-111v-125c0-75 74-113 220-113h243l360 228.997v-230.004c0-17.003-11-30.996-34-42.998s-51-17.998-84-17.998h-705v-70.996h705c42 0 81 5 118 15V3465h139v541.005h-125zM3983 3894c0 17.998-6 35-18 50-12 14.005-27 25.995-46 35-19 8.992-40 15.995-65 20.995-25 4.005-49 6.008-73 6.008h-110l-263-313.998-262 313.998h-112c-62 0-112-9.005-148-30-35-20-53-47.998-53-82.004v-369.994h139V3894c0 10 2 17.998 7 24.006 6 5 12 8.992 18 10.995 7 2.997 14 5 20 5 7 0 13 .995 17 .995h20l352-412.992 357 412.992h18c5 0 10-.995 17-.995s13-2.003 20-5c7-2.003 13-5.995 18-10.995 5-6.008 8-14.005 8-24.006v-369.994h139V3894zm1140-20c0 17.998-7 35.995-20 52.003-13 17.003-32 30-55 42.003s-50 22.003-83 28c-31 7.998-65 10-101 10h-445c-36 0-70-2.003-101-10-32-6.008-59-16.008-82-28s-41-27.003-55-42.998c-13-17.998-20-35-20-52.998v-101.992h139v103c0 17.998 12 32.003 35 45s51 18.993 84 18.993h445c35 0 63-5.995 85-18.993 23-12.003 34-26.008 34-43V3814l-822-85.996V3656c0-17.998 7-35 20-52.004 14-15.995 32-28.993 55-40.996s50-22.003 82-27.998c31-7.003 65-10.995 101-10.995h445c36 0 70 3.992 101 10.995 33 5.995 60 15.995 83 27.998s42 25 55 40.996c13 17.003 20 34.006 20 52.004v24.006h-140v-25c0-17.003-11-31.008-34-42.998-22-12.003-50-18-85-18h-445c-33 0-61 6.008-84 18s-35 25.995-35 42.998v18.992L5123 3761v113zm1140 0c0 17.998-6 35-20 52.003-13 15.995-31 30-55 42.003-23 12.003-50 22.003-81 28-32 7.998-65 10-101 10h-447c-36 0-70-2.003-101-10-31-6.008-58-16.008-82-28-23-12.003-41-25.995-55-42.003-13-17.003-20-34.006-20-52.003v-145.003h495v71h-356V3874c0 17.003 12 30.995 35 42.998 23 12.998 51 19.006 84 19.006h447c32 0 61-6.008 84-19.006 23-12.003 34-25.995 34-42.998v-218c0-17.003-11-30.996-34-42.998s-52-17.998-84-17.998h-447c-33 0-61 5.995-84 17.998s-35 25.995-35 42.998v35h-139v-35c0-17.998 7-35 20-50.996 14-15 32-30 55-42.003 24-12.003 51-22.003 82-27.998 31-7.003 65-10.995 101-10.995h447c36 0 69 3.992 101 10.995 31 5.995 58 15.995 81 27.998 24 12.003 42 27.003 55 42.003 14 15.995 20 32.998 20 50.996v218zm795 132.005h-38V1279.003h38v2727.002zm-6732-3192L361 931c4 10.995 6 22.003 9 34.006 2 12.003 4 25.995 6 40h1c0-7.003 0-14.005 1-21.008 1-5.995 1-12.003 2-17.998 1-7.003 2-12.998 3-19.006 1-7.003 2-12.998 4-20l25-113h37L396 1038h-36l-39-130c-3-9.005-6-19.006-8-29.006-2-10.995-4-20.995-5-32.003h-1c-1 10.995-3 20.995-5 32.003-2 10-5 20-8 29.006l-39 130.002h-36l-51-223.996h36l24 113c2 7.003 3 12.998 4 20L235 966c1 5.995 2 12.003 2 17.998 1 7.003 1 14.005 2 21.008l6-40L254 931l35-117.005h37zm296 0L657 931l9 34.006c2 12.003 4 25.995 6 40 1-7.003 1-14.005 2-21.008 0-5.995 1-12.003 2-17.998 1-7.003 2-12.998 3-19.006 1-7.003 2-12.998 5-20l24-113h36L693 1038h-38l-38-130c-3-9.005-6-19.006-8-29.006-2-10.995-4-20.995-5-32.003h-1c-1 10.995-3 20.995-5 32.003-2 10-5 20-8 29.006l-39 130.002h-36l-52-223.996h37l24 113c2 7.003 3 12.998 4 20L531 966c1 5.995 1 12.003 2 17.998 0 7.003 1 14.005 1 21.008h1l6-40c3-12.003 5-22.998 9-34.006l35-117.005h37zm296 0L953 931l9 34.006c3 12.003 5 25.995 7 40 1-7.003 1-14.005 2-21.008 0-5.995 1-12.003 2-17.998 0-7.003 1-12.998 3-19.006l3-20 25-113h36L988 1038h-37l-38-130c-3-9.005-6-19.006-8-29.006-2-10.995-4-20.995-5-32.003h-1c-2 10.995-3 20.995-6 32.003-2 10-4 20-7 29.006l-39 130.002h-36l-52-223.996h36l25 113c2 7.003 3 12.998 4 20L827 966c1 5.995 1 12.003 2 17.998 0 7.003 1 14.005 1 21.008h1l6-40c2-12.003 5-22.998 9-34.006l35-117.005h37zm147 205.004c0-7.003 2-12.003 6-17.003 4-3.992 10-5.995 18-5.995s14 2.003 18 5.995c4 5 7 10 7 17.003s-3 12.003-7 17.003c-4 4.005-10 5.995-18 5.995s-14-2.003-18-5.995c-4-5-6-10-6-17.003zm91-205.004h142v32.003h-107V908h100v30.995h-100v68h109v31.008h-144V814.007zM1417 1038h-36V845.998l-66 1.008v-33h169v33l-67-1.008v192.006zm237-112c0-14.005-2-25.995-5-35.996s-8-19.005-15-25c-6-6.008-14-11.008-24-14.005-9-2.997-20-3.992-33-3.992h-32V1007h32c13 0 24-2.003 33-5 10-2.997 18-7.998 24-13.992 7-7.003 12-15 15-25s5-22.998 5-37.003zm36 0c0 37.003-9 65-28 84.007-19 18.993-47 27.998-85 27.998h-68v-224h68c38 0 66 9.005 85 29.006 19 19.005 28 47.003 28 83zm126-20.996l-15-52.998h-1l-16 52.998-17 47.998h66l-17-47.998zm84 133h-37l-20-55h-87l-19 55h-37l81-224.01h38l81 224.01zm21-19.005c0-7.003 2-12.003 6-17.003 4-3.992 10-5.995 19-5.995 7 0 13 2.003 17 5.995 4 5 7 10 7 17.003s-3 12.003-7 17.003c-4 4.005-10 5.995-17 5.995-9 0-15-2.003-19-5.995-4-5-6-10-6-17.003zm182-5.995c22 0 39-7.003 50-22.003 11-15.995 17-37.003 17-64.006 0-27.998-6-48.993-17-64.988-11-15-28-22.998-50-22.998s-38 7.998-50 22.998c-12 15.995-17 37.003-17 64.988 0 27.003 5 47.998 17 64.006 12 15 28 22.003 50 22.003zm0-203c17 0 32 2.997 45 8.992 13 6.008 24 14.005 32 24.006 9 10.995 15 24.006 19 37.998 4 14.005 6 29.006 6 45.996 0 16.008-2 31.008-6 45-4 15-10 27.003-19 37.003-8 10-19 17.998-32 24.006-13 5.995-28 8.992-45 8.992s-32-2.997-45-8.992c-14-6.008-24-14.005-33-24.006-8-10-15-22.003-19-37.003-4-13.992-6-28.993-6-45 0-17.003 2-32.003 6-45.996s11-27.003 19-37.998c9-10 19-17.998 33-24.006 13-5.995 28-8.992 45-8.992zm263 73c0-10.995-4-20-11-25.995-7-7.003-17-10-31-10h-46V921h45c14 0 24-2.997 31-10 8-7.003 12-15.995 12-27.998zm36 0c0 15.995-4 28.993-13 40.996-9 11.008-22 19.005-36 24.006l53 90.002h-39l-50-85.002h-39v85.002h-36V814.007h82c13 0 23 2.003 33 5 10 4.005 18 9.005 25 16.008 7 5.995 12 12.998 15 22.003 4 7.998 5 17.003 5 25.995zm31 135.997c0-7.003 2-12.003 6-17.003 4-3.992 10-5.995 19-5.995 7 0 13 2.003 17 5.995 4 5 6 10 6 17.003s-2 12.003-6 17.003c-4 4.005-10 5.995-17 5.995-9 0-15-2.003-19-5.995-4-5-6-10-6-17.003zm169 19.005h-36V845.998l-65 1.008v-32.998h168v32.998l-67-1.008v192.006zm230-98h-100v98h-37V814.007h37V908h100v-94.007h35v223.996h-35v-98zm939 48.993c0-5.995 2-10.995 6-15.995 4-4.005 10-6.008 17-6.008 8 0 14 2.003 18 6.008 4 5 7 10 7 15.995 0 7.003-3 12.003-7 17.003-4 4.005-10 5.995-18 5.995-7 0-13-2.003-17-5.995-4-5-6-10-6-17.003zm0-118c0-5.995 2-10.995 6-15.995s10-7.003 17-7.003c8 0 14 2.003 18 7.003s7 10 7 15.995c0 6.008-3 12.003-7 16.008-4 5.995-10 7.998-18 7.998-7 0-13-2.003-17-7.998-4-4.005-6-10-6-16.008zm173-57.004h142v33.01h-107V908h100v32.003h-100v68h109V1039h-144V813.994zM4206 1039h-36V847.005h-67v-33.01h169v33.01h-66V1039z"/><use xlink:href="#B"/><path d="M4604 905l-15-53h-1l-16 53-17 48h66l-17-48zm84 134h-37l-19-55h-88l-19 55h-37l81-225h38l81 225zm187-.001h-35V847.005h-67v-33h168v33h-66V1039zm229-98.994h-101V1039h-36V813.994h36V908h101v-94.007h36V1039h-36v-98.994zm180-35l-15-52.998h-1l-15 52.998-17 47.998h65l-17-47.998zM5368 1039h-37l-19-55h-87l-19 55h-38l82-225.004h37L5368 1039zm66-.001h-37V813.994h37V1039zm49-225.004h36v193h103V1039h-139V813.994zm269 90.997l-15-52.998h-1l-15 52.998-17 47.998h65l-17-47.998zM5837 1039h-37l-19-55h-88l-19 55h-37l81-225.004h37L5837 1039zm166-225.004h37V1039h-38L5920 903c-5-7.003-9-15-13-22.998-4-9.005-7-16.008-9-22.998h-1l3 25.995c1 10 1 19.005 1 27.003V1039h-36V813.994h39L5985 951c4 7.003 8 15 12 24.006 4 7.998 7 15.995 9 22.998h1L6004 971c-1-10-1-17.998-1-27.003V813.994z"/><use xlink:href="#B" x="1791"/><path d="M3450 832v-49h-5c-10 0-20-1-30-1-9 0-17 1-26 3-20 5-32 18-34 39-1 12 0 25-1 38v9h-27v46c10 1 19 1 28 2v131c7 0 51 1 55-1V916h36c2-15 3-30 4-46h-40v-31c0-5 3-7 7-7h33zm144 84c0 117-99 207-209 204-108-2-203-91-201-208 2-111 94-205 212-202 104 4 197 90 198 206z"/></g><path d="M10373 2020c-3-3-7-5-11-8-15-10-61-27-76-32-11-4-17-14-22-25l-1-1c-3-6-18-33-30-33-6 0-25-1-39-3-7 0-12-1-15-1-8 0-20-5-27-12-6-6-7-9-7-9v-1l-7 1v1c1 5 7 44 25 51 8 2 15 3 22 4 10 1 20 2 29 9 14 12 16 22 13 27-1 2-5 7-9 11-7 8-15 16-19 22l-1-2s-8 3-21 0c-1-1-4-2-6-3 3-12 2-36-18-47-19-10-30-7-42 4v-2s-23 0-37-5c-20-7-32-22-37-46-6-27 18-35 19-35l-3-10c-1 0-29 9-42 35-2 3-3 6-4 10-5-7-14-24-14-66 0-56 35-166 43-191 19 7 82 31 126 45 64 20 135 45 156 56 0 6 0 11 1 18v1c0 1 34 112 43 153 13 57 13 77 11 84zm432 116c0-1 2-1 2-1l-1-7c-4 0-12 3-14 12v4c-1 5-1 5-14 5-9-1-14-5-20-9-6-3-12-7-21-9-11-1-21 0-30 3 3-9 7-22 7-37v-2c-1-21-1-28 16-42 20-17 27-38 20-54-3-5-6-10-8-15-7-10-13-21-12-30 3-13 7-21 7-21l-5-4c-2 2-9 9-15 17-13 6-18 18-15 34 2 13-5 16-26 20-13 2-24 12-31 18 0-3-1-7-2-10-4-17-8-33 3-48 5-7 11-13 17-19 13-13 26-26 26-53 0-39-14-49-27-58l-4-3c-10-8-22-16-23-26 0-5 2-7 4-9 3-3 6-6 4-13h-7s-2 8-9 11l-1 1c-5 2-13 8-13 18 0 8 2 15 6 24 2 6 5 13 6 21 4 16-19 33-41 43-26 12-52 42-52 77 0 33-4 94-16 128-11 29-46 48-53 51-4-2-9-4-14-4-8 0-27-10-39-16-3-1-6-3-9-4 1 0 1 0 2-1 3 0 44-7 59-54 15-46 2-232-13-300-15-66-27-79-59-102-7-5-13-11-20-16-25-22-57-48-125-73-73-26-157-53-177-59 14-13 25-24 26-25l7-8-11-1c-1 0-51-4-87-13-4-1-7-2-11-2 1-1 3-2 5-3 7-4 27-7 42-10 10-1 15-2 16-2l-2-10c-2 0-7 1-15 2-7 1-17 1-28 1s-20-1-28-4c4-3 8-7 12-10 13-13 18-36 19-42 1-7 0-12-1-14v-1c5-2 8-5 9-8 1-4 0-6-1-7l-1-2c1 0 3-1 4-2 13-7 15-16 16-23 1-2 1-4 1-6 2 1 4 1 7 0 13-3 10-25 9-30l-10 1c0 2 0 4-1 5s-4 2-13 1c-13-3-18 5-22 11-2 3-3 5-6 8-5 4-6 4-12 3-3 0-6-1-10-1-16 0-27 7-36 23s-4 38 1 44c1 2 0 8-12 19-2 1-3 2-4 3l-4-10c-1 1-2 1-3 1s-3 0-6-1c-2-2-5-3-8-4 3-2 5-3 5-3l-5-9s-4 1-12-2c-3 0-5-1-7-2l3-3c1-1 3-2 4-3 3 0 6-1 7-3l1-6-5-1c-2-1-4-1-5 0-4-1-11-2-16-4l32-11-23-10c-2-1-4-2-5-3 10-2 20-10 21-11l7-6-9-3c-4-1-6-3-7-5 2 1 3 1 5 1 1 0 1 1 2 1 13 0 26-11 28-12l7-7-9-2c-2-1-4-2-6-4 14-1 28-8 29-8l8-4-12-8c1 0 2 0 3-1 12-2 17-6 26-15l9-9c13-12 19-31 22-41 5 2 12 3 17 1 8-3 24-21 29-37 3-9 10-13 15-14l1-1h1c1 0 2 0 2-1 2-1 3-2 4-3l1-3-5-5-4 2c-1 0-2 0-3 1-6 1-14 3-21 3-8 0-16 1-20 2-3-5-5-13-4-19 2-9 3-11 3-11s0 1-1 1l-2-10h-8c-5-6-17-24-21-31-1-2-1-3-1-3l-1-10h-11c-1-2-3-7-4-12 0-5 2-6 3-7l-2-10-8 1-7-14c17-10 34-22 35-29 1-4 0-19 0-34l5-3-6-2-2-36c-1-7 5-9 6-9l20-4-19-6c-1-1-4-1-8-1-2-21-3-45-1-49 1-1 2-3 3-4 5-8 12-21 16-37 4-14 5-30 5-36 3-1 6-1 9-1h9c20-2 29-45 29-46 1-5 2-5 6-6 2 0 4-1 7-2s4-3 5-6c2-7-2-16-3-18l-10 4 2 5c-2 1-6 1-8 1l-3 1c-9 1-19 4-29 8 4-10 10-24 17-39 14-30 40-65 57-76 19-12 42-48 43-49l-8-7c0 1-27 27-46 33-19 7-51 29-81 71l-48 69-100 142c-23 28-57 62-58 63l-2 2 1 3c4 12 9 27 10 32-2 2-8 7-13 11l-13-5-3 3s-5 5-16 12c-9 5-31 16-43 22-1-4-3-8-3-9l-10 3c0 4-1 6-1 7-3 1-12 5-25 14-19 11-26 27-22 52 3 16 9 22 12 25v1c-3 5-10 13-14 18l-3-2-8 6s2 4 0 8c-3 5-6 10-18 20-6 5-7 10-7 14s2 8 4 11c-15 8-51 28-60 37-11 11-12 22-3 32 2 2 3 4 5 5 1 2 4 4 4 5-1 2-5 4-9 5l-4 2 1 4c1 8 5 15 9 20l-10 3 3 5c2 5 9 10 15 13-2 3-4 6-8 9-9 9-13 18-6 40 6 18 26 24 45 30 7 3 15 5 22 8 4 2 7 4 10 6 0 0 1 0 2 1 14 8 23 18 28 32 5 12 4 28 0 35-1 3-2 4-4 4-5 2-26 6-49 10l-59 10c-21 5-43 17-58 25-3 1-5 3-7 4-13 6-23-2-23-3l-8 6c0 1 4 9 15 24 5 6 12 12 21 16-2 7-8 21-15 36-11 24-33 95-42 146-9 44-38 133-47 151-12-9-52-42-87-71l-96-78c-23-17-66-32-99-35-22-2-39-1-52 4l-44-18c-1-5-1-11-3-17-1-4-2-8-2-11-2-8-3-14-10-21s-9-16-9-17l-11 1-1 16c-2-3-3-5-3-7 0-12-15-25-18-27l-9-8 1 16c-2-1-3-3-4-4-7-7-11-14-11-15l-10 3 2 30c-2-1-2-4-5-14-5-20-28-22-40-20l-11 2 9 7c7 7 12 24 16 40 4 15 8 31 15 42 13 20 26 36 51 54l19 13c30 18 59 22 84 25v1c4 0 8 1 12 1h9c23 4 52 39 79 72 3 4 6 8 9 11 31 38 140 140 177 163 5 4 10 7 15 11 29 20 62 44 103-12 39-53 92-216 106-260 7 12 18 30 20 38 3 9 37 93 83 161 14 22 30 43 45 61l-43 46c-2-2-4-4-5-7-2-2-4-5-6-7-22-26-46-35-67-26-27 11-41 51-40 78-14-5-22-13-29-21-6-5-11-10-17-13-15-6-21 2-26 8-1 1-1 2-2 3-4 4-7 4-13 3h-1c-4-1-6-2-6-7 0-4-2-6-4-8-1-1-3-2-5-3h-2c-4-1-7-2-9-2l-1 11c1 0 4 0 8 1h1v4c-1 2-1 4-1 7 0 7 1 14 6 19 3 4 8 5 15 5 18 0 18 6 19 9 1 9-2 21-2 21-7 1-14 1-20 2-7 0-18 3-32 5-36 7-92 18-115 10-33-11-35-15-44-31l-3-6c-8-16-16-33-37-32-5 1-10 2-14 5-4-13-17-51-37-75-21-26-54-39-88-35-26 3-40 10-56 18l-3 1c-16 8-28-6-28-6-1-1-2-5-4-8-4-12-8-21-14-24-9-6-17-7-35-7-14 0-17-6-17-6h-10c-2 9 0 28 17 35 21 7 22 17 22 21v7c0 11 0 29 9 45 13 23 28 26 47 23 9-1 37-4 48 4 2 2 3 4 3 7 2 12 2 29 3 40-6-3-13-6-24-6-9 0-18 3-26 6s-14 5-17 2c-3-2-5-4-7-6-6-7-13-16-32-13-10 1-15 3-19 5-4 1-5 2-10 0l-11-4 4 11c1 1 7 15 21 17 9 2 9 3 9 11 0 13 2 32 15 42 4 4 8 6 12 9 8 5 15 10 16 14v11c1 20 3 56 17 87 19 43 85 114 105 134l1-1h108c1 1 2 1 3 2l1-2 746 2 351 5-1-5c22-1 113-3 131-1 3 1 7 1 12 2 4 1 9 1 14 2 8 2 15 5 21 7 13 4 25 8 36 10 5 1 12 2 21 2 27 0 68-6 88-20 25-19 60-86 53-127-3-15-8-29-15-41 5-4 14-13 18-22 4-8 3-21 3-35-1-11-1-23 0-31 3-17 30-18 30-18l21-7c22-9 20-46 19-53-1-1-1-2 0-3z" fill="#263"/><g fill="none" class="Q R T"><path d="M10373 2020c-3-3-7-5-11-8-15-10-61-27-76-32-11-4-17-14-22-25l-1-1c-3-6-18-33-30-33-6 0-25-1-39-3-7 0-12-1-15-1-8 0-20-5-27-12-6-6-7-9-7-9v-1l-7 1v1c1 5 7 44 25 51 8 2 15 3 22 4 10 1 20 2 29 9 14 12 16 22 13 27-1 2-5 7-9 11-7 8-15 16-19 22l-1-2s-8 3-21 0c-1-1-4-2-6-3 3-12 2-36-18-47-19-10-30-7-42 4v-2s-23 0-37-5c-20-7-32-22-37-46-6-27 18-35 19-35l-3-10c-1 0-29 9-42 35-2 3-3 6-4 10-5-7-14-24-14-66 0-56 35-166 43-191 19 7 82 31 126 45 64 20 135 45 156 56 0 6 0 11 1 18v1c0 1 34 112 43 153 13 57 13 77 11 84z"/><path d="M10805 2136c0-1 2-1 2-1l-1-7c-4 0-12 3-14 12v4c-1 5-1 5-14 5-9-1-14-5-20-9-6-3-12-7-21-9-11-1-21 0-30 3 3-9 7-22 7-37v-2c-1-21-1-28 16-42 20-17 27-38 20-54-3-5-6-10-8-15-7-10-13-21-12-30 3-13 7-21 7-21l-5-4c-2 2-9 9-15 17-13 6-18 18-15 34 2 13-5 16-26 20-13 2-24 12-31 18 0-3-1-7-2-10-4-17-8-33 3-48 5-7 11-13 17-19 13-13 26-26 26-53 0-39-14-49-27-58l-4-3c-10-8-22-16-23-26 0-5 2-7 4-9 3-3 6-6 4-13h-7s-2 8-9 11l-1 1c-5 2-13 8-13 18 0 8 2 15 6 24 2 6 5 13 6 21 4 16-19 33-41 43-26 12-52 42-52 77 0 33-4 94-16 128-11 29-46 48-53 51-4-2-9-4-14-4-8 0-27-10-39-16-3-1-6-3-9-4 1 0 1 0 2-1 3 0 44-7 59-54 15-46 2-232-13-300-15-66-27-79-59-102-7-5-13-11-20-16-25-22-57-48-125-73-73-26-157-53-177-59 14-13 25-24 26-25l7-8-11-1c-1 0-51-4-87-13-4-1-7-2-11-2 1-1 3-2 5-3 7-4 27-7 42-10 10-1 15-2 16-2l-2-10c-2 0-7 1-15 2-7 1-17 1-28 1s-20-1-28-4c4-3 8-7 12-10 13-13 18-36 19-42 1-7 0-12-1-14v-1c5-2 8-5 9-8 1-4 0-6-1-7l-1-2c1 0 3-1 4-2 13-7 15-16 16-23 1-2 1-4 1-6 2 1 4 1 7 0 13-3 10-25 9-30l-10 1c0 2 0 4-1 5s-4 2-13 1c-13-3-18 5-22 11-2 3-3 5-6 8-5 4-6 4-12 3-3 0-6-1-10-1-16 0-27 7-36 23s-4 38 1 44c1 2 0 8-12 19-2 1-3 2-4 3l-4-10c-1 1-2 1-3 1s-3 0-6-1c-2-2-5-3-8-4 3-2 5-3 5-3l-5-9s-4 1-12-2c-3 0-5-1-7-2l3-3c1-1 3-2 4-3 3 0 6-1 7-3l1-6-5-1c-2-1-4-1-5 0-4-1-11-2-16-4l32-11-23-10c-2-1-4-2-5-3 10-2 20-10 21-11l7-6-9-3c-4-1-6-3-7-5 2 1 3 1 5 1 1 0 1 1 2 1 13 0 26-11 28-12l7-7-9-2c-2-1-4-2-6-4 14-1 28-8 29-8l8-4-12-8c1 0 2 0 3-1 12-2 17-6 26-15l9-9c13-12 19-31 22-41 5 2 12 3 17 1 8-3 24-21 29-37 3-9 10-13 15-14l1-1h1c1 0 2 0 2-1 2-1 3-2 4-3l1-3-5-5-4 2c-1 0-2 0-3 1-6 1-14 3-21 3-8 0-16 1-20 2-3-5-5-13-4-19 2-9 3-11 3-11s0 1-1 1l-2-10h-8c-5-6-17-24-21-31-1-2-1-3-1-3l-1-10h-11c-1-2-3-7-4-12 0-5 2-6 3-7l-2-10-8 1-7-14c17-10 34-22 35-29 1-4 0-19 0-34l5-3-6-2-2-36c-1-7 5-9 6-9l20-4-19-6c-1-1-4-1-8-1-2-21-3-45-1-49 1-1 2-3 3-4 5-8 12-21 16-37 4-14 5-30 5-36 3-1 6-1 9-1h9c20-2 29-45 29-46 1-5 2-5 6-6 2 0 4-1 7-2s4-3 5-6c2-7-2-16-3-18l-10 4 2 5c-2 1-6 1-8 1l-3 1c-9 1-19 4-29 8 4-10 10-24 17-39 14-30 40-65 57-76 19-12 42-48 43-49l-8-7c0 1-27 27-46 33-19 7-51 29-81 71l-48 69-100 142c-23 28-57 62-58 63l-2 2 1 3c4 12 9 27 10 32-2 2-8 7-13 11l-13-5-3 3s-5 5-16 12c-9 5-31 16-43 22-1-4-3-8-3-9l-10 3c0 4-1 6-1 7-3 1-12 5-25 14-19 11-26 27-22 52 3 16 9 22 12 25v1c-3 5-10 13-14 18l-3-2-8 6s2 4 0 8c-3 5-6 10-18 20-6 5-7 10-7 14s2 8 4 11c-15 8-51 28-60 37-11 11-12 22-3 32 2 2 3 4 5 5 1 2 4 4 4 5-1 2-5 4-9 5l-4 2 1 4c1 8 5 15 9 20l-10 3 3 5c2 5 9 10 15 13-2 3-4 6-8 9-9 9-13 18-6 40 6 18 26 24 45 30 7 3 15 5 22 8 4 2 7 4 10 6 0 0 1 0 2 1 14 8 23 18 28 32 5 12 4 28 0 35-1 3-2 4-4 4-5 2-26 6-49 10l-59 10c-21 5-43 17-58 25-3 1-5 3-7 4-13 6-23-2-23-3l-8 6c0 1 4 9 15 24 5 6 12 12 21 16-2 7-8 21-15 36-11 24-33 95-42 146-9 44-38 133-47 151-12-9-52-42-87-71l-96-78c-23-17-66-32-99-35-22-2-39-1-52 4l-44-18c-1-5-1-11-3-17-1-4-2-8-2-11-2-8-3-14-10-21s-9-16-9-17l-11 1-1 16c-2-3-3-5-3-7 0-12-15-25-18-27l-9-8 1 16c-2-1-3-3-4-4-7-7-11-14-11-15l-10 3 2 30c-2-1-2-4-5-14-5-20-28-22-40-20l-11 2 9 7c7 7 12 24 16 40 4 15 8 31 15 42 13 20 26 36 51 54l19 13c30 18 59 22 84 25v1c4 0 8 1 12 1h9c23 4 52 39 79 72 3 4 6 8 9 11 31 38 140 140 177 163 5 4 10 7 15 11 29 20 62 44 103-12 39-53 92-216 106-260 7 12 18 30 20 38 3 9 37 93 83 161 14 22 30 43 45 61l-43 46c-2-2-4-4-5-7-2-2-4-5-6-7-22-26-46-35-67-26-27 11-41 51-40 78-14-5-22-13-29-21-6-5-11-10-17-13-15-6-21 2-26 8-1 1-1 2-2 3-4 4-7 4-13 3h-1c-4-1-6-2-6-7 0-4-2-6-4-8-1-1-3-2-5-3h-2c-4-1-7-2-9-2l-1 11c1 0 4 0 8 1h1v4c-1 2-1 4-1 7 0 7 1 14 6 19 3 4 8 5 15 5 18 0 18 6 19 9 1 9-2 21-2 21-7 1-14 1-20 2-7 0-18 3-32 5-36 7-92 18-115 10-33-11-35-15-44-31l-3-6c-8-16-16-33-37-32-5 1-10 2-14 5-4-13-17-51-37-75-21-26-54-39-88-35-26 3-40 10-56 18l-3 1c-16 8-28-6-28-6-1-1-2-5-4-8-4-12-8-21-14-24-9-6-17-7-35-7-14 0-17-6-17-6h-10c-2 9 0 28 17 35 21 7 22 17 22 21v7c0 11 0 29 9 45 13 23 28 26 47 23 9-1 37-4 48 4 2 2 3 4 3 7 2 12 2 29 3 40-6-3-13-6-24-6-9 0-18 3-26 6s-14 5-17 2c-3-2-5-4-7-6-6-7-13-16-32-13-10 1-15 3-19 5-4 1-5 2-10 0l-11-4 4 11c1 1 7 15 21 17 9 2 9 3 9 11 0 13 2 32 15 42 4 4 8 6 12 9 8 5 15 10 16 14v11c1 20 3 56 17 87 19 43 85 114 105 134l1-1h108c1 1 2 1 3 2l1-2 746 2 351 5-1-5c22-1 113-3 131-1 3 1 7 1 12 2 4 1 9 1 14 2 8 2 15 5 21 7 13 4 25 8 36 10 5 1 12 2 21 2 27 0 68-6 88-20 25-19 60-86 53-127-3-15-8-29-15-41 5-4 14-13 18-22 4-8 3-21 3-35-1-11-1-23 0-31 3-17 30-18 30-18l21-7c22-9 20-46 19-53-1-1-1-2 0-3z"/></g><path d="M10286 2207h-55v-62h55v62z" fill="#fff"/><path d="M9863 453c-6 0-12 1-17 1h3c5 0 9 0 14-1zm-298-41.003c-3 0-6 2.997-9 5 4-2.003 9-2.003 15-3.992-2-1.008-3-1.008-6-1.008z" stroke="#ec1c24" fill="none" class="Q S"/><g fill="#196a36"><path d="M10040 353c-10-16-7-43-7-43-11 19-34 41-34 41l-1 1c14 1 29 2 43 4 0-1-1-2-1-3zm94 53.002c-9 .995-18 5-39 2.997-13-2.003-22-7.998-29-14.005-62-7.998-125-12.998-189-12.998-38-5.995-60-18.993-74-33.993-8-7.998-13-17.003-17-26.008-5-12-8-30.995-7-48.993 1-17.003 6-34.006 16-46.01 19-23.993 62-43.993 92-32 30 12.998 25 46.99 25 46.99s-14-25.995-41-27c-25-1.008-57 12.998-62 56.99v8c-1 28.993 13 52.998 33 66.99 13 10 29 15 45 15 21 0 46-2.997 68-12.998 20-8.992 37-23.993 50-47.998 4-7.003 7-15 10-24.006 14-46.99 4-100.997-30-148-41-55.996-120-93-120-93S9840 63 9811 83c-28 19.006-96 52.998-120 115.997-10 26.008-16 55-16 84.007 1 25 7 50.996 20 73.994 6 12.003 14 22.998 24 32.998 2 1.008 3 3 4 4.005 49 47.998 108 59.006 123 60.996h3c5 0 9 0 14-.995h9c78 0 154 7.003 229 19.005 30-16.008 70-34.006 111-51.01-25-5.995-51-12.003-78-15.995z"/><path d="M9999 351l-1 1c14 1 29 2 43 4 0-1-1-2-1-3-10-16-7-43-7-43-11 19-34 41-34 41z"/></g><path d="M10270 399l-59 22c-41 17-80 35-110 51-18 9-33 17-44 24l-20 11c-78 47-236 148-288 198-53 50-183 159-240 278-56 118-71 217-48 307 23 91 79 150 90 161 12 9 34 17 40 8 6-11 3-12-8-6-12 4-29-10-43-29s-97-120-69-272 120-256 139-284c20-28 221-228 388-314 37-19 72-36 105-51 16-8 31-15 46-22 48-22 87-38 111-48l27-11c-1 2-5 8-9 16-8 15-20 38-32 66l-12 28c-19 46-38 101-48 151-18 98-31 285-39 383-6 76-12 142-29 223-18 82-60 128-63 130-3 3-28 8-8 8s36-15 66-81 46-195 51-262c5-68 5-191 40-390 10-61 27-114 45-158 4-10 8-19 12-27 12-26 24-47 35-66 7-12 14-22 20-31 14-20 24-31 24-31-22 4-46 10-70 18z" fill="#b8972f"/><path d="M11265 1846c0 708-530 1293-1215 1380-10 35-26 60-43 77 745-68 1330-694 1330-1457 0-662-439-1221-1041-1403-11 18-23 40-35 66 579 168 1004 702 1004 1337zM9653 3219.995C8989 3114 8481 2539 8481 1846.003 8481 1184 8942 630.994 9560 489c66-15 133-25.995 201-30.995-8-4.005-46-25-76-65-8-10-15-21.008-21-33-3-5-5-10-7-15.995 0 0-2 7.998-6 17.998-4 12.003-11 27.998-21 39.006-7 7.003-14 12.003-22 12.998-31 4.005-26 0-37-.995-2-1.008-3-1.008-5-1.008-3 0-6 2.003-9 2.997-657 145.003-1149 730-1149 1431 0 737 546 1345.994 1254 1448.993-6-20.995-11-47-9-75zm26 113c-737-94.99-1306-725-1306-1486.992 0-717.003 502-1316.006 1174-1465 8 0 17 0 24 2.003 19 7 31 3.992 41-5 3-2.003 5-6.008 7-11.008 5-15 6-38.993 5-52.998-2-7.998-4-15.995-8-22.998-6-12.003-16-22.998-28-27.003 0 0-4 25-28 37.003-721 145.003-1263 780.996-1263 1545.003 0 840.003 657 1525.997 1486 1573-53-22.003-90-63-104-86.01zm447-3042.99c-25-14.005-23-31.008-23-31.008-9 0-22 9.005-31 22.998-5 7.998-9 18.01-10 29.006-1 17.998 2 35 7 47.003 4 10 10 15.995 16 17.998 14 2.003 28 3.992 36-7.003 1-.995 1-2.003 3-2.003 49 7.998 98 19.006 146 32.003 24-7.998 48-14.005 70-17.998 0 0-10 10.995-24 30.995 611 190.004 1057 759.006 1057 1434.006 0 803.994-635 1460.996-1430 1498-14 0-28 .995-42 .995-21-.995-46-5.995-66-20-8-5-15-10.995-21-17.003-24-22.003-31-46.99-33-73v-5c0-7.998 1-17.003 3-25 8-27.998 28-55 57-63 37-8.992 80 5 84 24.006 4 18.993-10 27.003-10 27.003-1-19.006-19-35-62-24.006-19 5-30 20-37 37.998-3 9.005-5 20-4 29.006 0 10.995 2 20 5 25.995 11 17.998 32 42.003 73 47.998 6 0 13 1.008 20 1.008 9 0 17-1.008 25-2.997 39-7.003 63-32.003 79-68.994 2-2.998 3-5.995 4-9.005 3-8.992 6-20 7-30.995 5-40-4-87.004-30-115.997-37-41.008-96-57.998-167-45-66 12.003-119 67.004-137 125.002-3 10-6 20-7 32-2 9.005-3 19.005-3 29.006 0 25 4 50.996 15 75 5 13.992 13 25.995 23 38.993 8 10 17 19.006 29 28.01 58 44.988 137 53 168 54.988 850-23.993 1532-719.988 1532-1574.99 0-785.002-573-1435-1322-1555.998z" fill="#196b36"/><path d="M9916 3421c-31-2-110-10-168-55-12-9-21-18-29-28-10-13-18-25-23-39-11-24-15-50-15-75 0-10 1-20 3-29 1-12 4-22 7-32 18-58 71-113 137-125 71-13 130 4 167 45 26 29 35 76 30 116-1 11-4 22-7 31-1 3-2 6-4 9-16 37-40 62-79 69-8 2-16 3-25 3-7 0-14-1-20-1-41-6-62-30-73-48-3-6-5-15-5-26-1-9 1-20 4-29 7-18 18-33 37-38 43-11 61 5 62 24 0 0 14-8 10-27s-47-33-84-24c-29 8-49 35-57 63-2 8-3 17-3 25v5c2 26 9 51 33 73 6 6 13 12 21 17 20 14 45 19 66 20 14 0 28-1 42-1 795-37 1430-694 1430-1498 0-675-445-1244-1057-1434-6 9-13 19-20 31 602 182 1041 741 1041 1403 0 763-585 1389-1330 1458 17-18 33-43 43-78 685-87 1215-672 1215-1380 0-635-425-1169-1004-1337-4 8-8 17-12 27 569 164 986 688 986 1310 0 689-513 1259-1178 1349 16-100-52-157-98-174-40-15-112-21-178 7s-112 95-125 159c-1 1-1 2-1 4-649-104-1145-667-1145-1345 0-655 462-1202 1076-1333 56-12 113-20 171-25 38-3 76-5 115-5 63 0 125 4 185 13 11-7 26-15 44-24-75-12-151-19-229-19h-9c-5 1-9 1-14 1h-3c-15-2-74-13-123-61-1-1-2-3-4-4-10-10-18-21-24-33-13-23-19-49-20-74 0-29 6-58 16-84 24-63 92-97 120-116 29-20 54-46 54-46s79 36 120 92c34 47 44 101 30 148-3 8-6 17-10 24-13 24-30 39-50 48-22 10-47 13-68 13-16 0-32-5-45-15-20-14-34-38-33-67v-8c5-44 37-58 62-57 27 1 40 27 40 27s6-34-24-47c-30-12-73 8-92 32-10 12-15 29-16 46-1 18 1 37 7 49 4 9 9 18 17 26 14 15 36 28 74 34 64 0 127 5 189 13 7 6 17 12 29 14 21 2 30-2 39-3 26 4 52 10 77 16 20-8 40-15 59-22-48-13-97-24-146-32-1 0-3 1-3 2-8 11-22 9-36 7-6-2-12-8-16-18-5-12-8-29-7-47 1-11 5-21 10-29 8-14 22-23 31-23 0 0-2 17 23 31 749 121 1322 771 1322 1556 0 855-682 1551-1532 1575zM8297 1846c0-764 542-1400 1262-1545 24-12 28-37 28-37 12 4 22 15 28 27 4 7 6 15 8 23 1 14 0 38-5 53-2 5-4 9-7 11-10 9-22 12-41 5-7-2-16-2-24-2-671 149-1173 748-1173 1465 0 762 569 1392 1305 1487 14 23 51 64 104 86-828-47-1485-733-1485-1573zM9650 362c4-10 6-18 6-18 2 6 4 11 7 16 6 12 13 23 21 33 30 40 68 61 76 65-68 5-135 16-201 31-618 142-1078 695-1078 1357 0 693 507 1268 1171 1374-2 28 3 54 9 75-708-103-1253-712-1253-1449 0-701 491-1286 1148-1430 3-2 6-4 9-4 2 0 3 0 5 1 11 1 6 6 37 1 8-1 15-6 22-13 10-11 17-27 21-39zm389-10c0 1 1 2 1 3-14-2-28-3-42-4l1-1s22-21 33-40c0 0-3 26 7 42zm104-87c-21-15-9-37-9-37-30-10-66 16-77 25l-2 2s-1-1-1-3c0-7-1-25-4-43-3-24-9-66-70-126-60-59-127-83-127-83-3 20-20 36-51 58s-87 45-123 109c-21 37-28 70-31 91-2 13-2 21-2 21s-5-9-17-19c-14-12-36-25-65-24 0 0 3 28-12 38-732 148-1283 795-1283 1572 0 885 718 1603 1603 1603 886 0 1604-718 1604-1603 0-794-576-1452-1333-1581z" fill="#c6ae2e"/><use xlink:href="#C" fill="#e6c31f"/><use xlink:href="#C" x="12" fill="#e5c21f"/><use xlink:href="#C" x="24" fill="#e4c21f"/><use xlink:href="#C" x="36" fill="#e4c11f"/><use xlink:href="#C" x="48" fill="#e3c120"/><use xlink:href="#C" x="60" fill="#e3c020"/><use xlink:href="#C" x="72" fill="#e2c020"/><g fill="#e1bf20"><use xlink:href="#C" x="84"/><use xlink:href="#D"/></g><use xlink:href="#C" x="108" fill="#e0be20"/><use xlink:href="#C" x="120" fill="#dfbe20"/><use xlink:href="#C" x="132" fill="#dfbd20"/><g fill="#debc21"><use xlink:href="#C" x="144"/><use xlink:href="#C" x="156"/></g><use xlink:href="#C" x="168" fill="#ddbb21"/><use xlink:href="#C" x="180" fill="#dcbb21"/><use xlink:href="#C" x="192" fill="#dcba21"/><use xlink:href="#C" x="204" fill="#dbba21"/><g fill="#dab921"><use xlink:href="#C" x="216"/><use xlink:href="#D" x="132"/></g><g fill="#d9b822"><use xlink:href="#C" x="240"/><path d="M9348 2476v463h12v-463h-12z"/></g><use xlink:href="#C" x="263" fill="#d8b722"/><use xlink:href="#C" x="275" fill="#d7b722"/><use xlink:href="#C" x="287" fill="#d7b622"/><use xlink:href="#C" x="299" fill="#d6b622"/><g fill="#d5b522"><use xlink:href="#C" x="311"/><use xlink:href="#C" x="323"/></g><g fill="#d4b423"><use xlink:href="#C" x="335"/><use xlink:href="#C" x="347"/></g><use xlink:href="#C" x="359" fill="#d3b323"/><use xlink:href="#D" x="275" fill="#d2b323"/><use xlink:href="#C" x="383" fill="#d2b223"/><use xlink:href="#C" x="395" fill="#d1b123"/><use xlink:href="#C" x="407" fill="#d0b123"/><use xlink:href="#C" x="419" fill="#d0b023"/><use xlink:href="#C" x="431" fill="#cfb024"/><use xlink:href="#C" x="443" fill="#cfaf24"/><use xlink:href="#C" x="455" fill="#ceaf24"/><g fill="#cdae24"><use xlink:href="#C" x="467"/><use xlink:href="#C" x="479"/></g><use xlink:href="#C" x="491" fill="#ccad24"/><use xlink:href="#D" x="407" fill="#cbad24"/><use xlink:href="#C" x="515" fill="#cbac24"/><use xlink:href="#C" x="527" fill="#caac25"/><use xlink:href="#C" x="539" fill="#caab25"/><use xlink:href="#C" x="551" fill="#c9ab25"/><g fill="#c8aa25"><use xlink:href="#C" x="563"/><use xlink:href="#C" x="575"/></g><use xlink:href="#C" x="587" fill="#c7a925"/><use xlink:href="#C" x="599" fill="#c6a925"/><use xlink:href="#C" x="611" fill="#c6a825"/><use xlink:href="#C" x="623" fill="#c5a826"/><use xlink:href="#D" x="539" fill="#c5a726"/><use xlink:href="#C" x="647" fill="#c4a626"/><use xlink:href="#C" x="659" fill="#c3a626"/><use xlink:href="#C" x="671" fill="#c3a526"/><use xlink:href="#C" x="683" fill="#c2a526"/><g fill="#c1a426"><use xlink:href="#C" x="695"/><use xlink:href="#C" x="707"/></g><g fill="#c0a327"><use xlink:href="#C" x="719"/><use xlink:href="#C" x="731"/></g><use xlink:href="#C" x="743" fill="#bfa227"/><use xlink:href="#C" x="755" fill="#bea227"/><use xlink:href="#D" x="671" fill="#bea127"/><use xlink:href="#C" x="779" fill="#bda127"/><g fill="#bca027"><path d="M9887 2476v463h12v-463h-12z"/><use xlink:href="#C" x="802"/></g><g fill="#bb9f28"><use xlink:href="#C" x="814"/><use xlink:href="#C" x="826"/></g><use xlink:href="#C" x="838" fill="#ba9e28"/><use xlink:href="#C" x="850" fill="#b99e28"/><use xlink:href="#C" x="862" fill="#b99d28"/><use xlink:href="#C" x="874" fill="#b89d28"/><use xlink:href="#C" x="886" fill="#b79c28"/><use xlink:href="#C" x="898" fill="#b79b28"/><use xlink:href="#D" x="814" fill="#b69b29"/><use xlink:href="#C" x="922" fill="#b69a29"/><use xlink:href="#C" x="934" fill="#b59a29"/><g fill="#b49929"><use xlink:href="#C" x="946"/><use xlink:href="#C" x="958"/></g><use xlink:href="#C" x="970" fill="#b39829"/><use xlink:href="#C" x="982" fill="#b29829"/><use xlink:href="#C" x="994" fill="#b29729"/><use xlink:href="#C" x="1006" fill="#b1972a"/><use xlink:href="#C" x="1018" fill="#b1962a"/><use xlink:href="#C" x="1030" fill="#b0962a"/><g fill="#af952a"><use xlink:href="#D" x="946"/><use xlink:href="#C" x="1054"/></g><use xlink:href="#C" x="1066" fill="#ae942a"/><use xlink:href="#C" x="1078" fill="#ad942a"/><use xlink:href="#C" x="1090" fill="#ad932a"/><use xlink:href="#C" x="1102" fill="#ac932b"/><use xlink:href="#C" x="1114" fill="#ac922b"/><use xlink:href="#C" x="1126" fill="#ab922b"/><use xlink:href="#C" x="1138" fill="#aa912b"/><use xlink:href="#C" x="1150" fill="#aa902b"/><use xlink:href="#C" x="1162" fill="#a9902b"/><g fill="#a88f2b"><use xlink:href="#D" x="1078"/><use xlink:href="#C" x="1186"/></g><g fill="#a78e2c"><use xlink:href="#C" x="1198"/><use xlink:href="#C" x="1210"/></g><use xlink:href="#C" x="1222" fill="#a68d2c"/><use xlink:href="#C" x="1234" fill="#a58d2c"/><use xlink:href="#C" x="1246" fill="#a58c2c"/><use xlink:href="#C" x="1258" fill="#a48c2c"/><g fill="#a38b2c"><use xlink:href="#C" x="1270"/><use xlink:href="#C" x="1282"/></g><g fill="#a28a2d"><use xlink:href="#C" x="1294"/><use xlink:href="#D" x="1210"/></g><use xlink:href="#C" x="1318" fill="#a1892d"/><path d="M10426 2476v463h12v-463h-12z" fill="#a0892d"/><use xlink:href="#C" x="1341" fill="#a0882d"/><use xlink:href="#C" x="1353" fill="#9f882d"/><g fill="#9e872d"><use xlink:href="#C" x="1365"/><use xlink:href="#C" x="1377"/></g><use xlink:href="#C" x="1389" fill="#9d862e"/><use xlink:href="#C" x="1401" fill="#9d852e"/><use xlink:href="#C" x="1413" fill="#9c852e"/><g fill="#9b842e"><use xlink:href="#C" x="1425"/><use xlink:href="#C" x="1437"/></g><use xlink:href="#D" x="1353" fill="#9a832e"/><use xlink:href="#C" x="1461" fill="#99832e"/><use xlink:href="#C" x="1473" fill="#99822e"/><use xlink:href="#C" x="1485" fill="#98822f"/><use xlink:href="#C" x="1497" fill="#98812f"/><use xlink:href="#C" x="1509" fill="#97812f"/><use xlink:href="#C" x="1521" fill="#96802f"/><path d="M10353 2249c0 6-5 10-10 10s-9-4-9-10c0-5 4-10 9-10s10 5 10 10zm58-23.002c0 5-4 10-10 10-5 0-9-5-9-10a8.96 8.954 0 0 1 9-8.992c6 0 10 3.992 10 8.992zm50-18.993c0 5-5 10.995-10 10.995s-9-5.995-9-10.995a8.96 8.954 0 0 1 9-9.005c5 0 10 4.005 10 9.005zm-25-44.006c0 5-5 9.005-10 9.005-6 0-10-4.005-10-9.005 0-5.995 4-10 10-10 5 0 10 4.005 10 10zm-74-20.995c0 5.995-4 10-11 10-5 0-9-4.005-9-10a8.96 8.954 0 0 1 9-9.005c7 0 11 4.005 11 9.005zm-38 60c0 5.995-5 10-11 10-5 0-9-4.005-9-10 0-6.008 4-10 9-10 6 0 11 3.992 11 10zm-26 65c0 5.995-4 10-9 10s-10-4.005-10-10c0-5 5-9.005 10-9.005a8.96 8.954 0 0 1 9 9.005zm83 27.003c0 5-4 10-9 10-6 0-10-5-10-10s4-10 10-10c5 0 9 5 9 10zm56-20.01c0 5-4 9.005-10 9.005s-10-4.005-10-9.005c0-5.995 4-10.995 10-10.995s10 5 10 10.995zm-901-50c0 5-4 7.998-8 7.998s-9-2.998-9-7.998 5-7.998 9-7.998 8 2.997 8 7.998zm-41-25c0 5-5 7.998-9 7.998s-9-2.998-9-7.998c0-3.992 5-7.998 9-7.998s9 4.005 9 7.998zm15 63c0 3.992-4 7.998-9 7.998-4 0-7-4.005-7-7.998 0-4.005 3-7.998 7-7.998 5 0 9 4.005 9 7.998zm40 30c0 3.992-3 8.992-7 8.992-6 0-9-5-9-8.992 0-4.005 3-7.998 9-7.998 4 0 7 4.005 7 7.998z" fill="#a1852f"/><g fill="none" class="Q R T"><path d="M10353 2130s31-3 42 2c10 5 41 22 52 22 12 0 19 9 19 9l25 13s-19 89-55 117c0 0-76 4-95 13-18 8-70 20-96 19-25-1-57 3-57 3s62-42 94-95c29-49 62-98 71-103z"/><path d="M10334 2152l84 143m-91-134.004l75 135.002m-33-166.992l84 145M10381 2130l79 133m-17-110l37 62.004m-24-59.006l28 47.003m-191 10.995l55 89.007m-61-79.007l52 82.004m-79-43.994l36 56.99m-41-47.998l33 50"/><path d="M10236 2325l238-94m-2-10.003l-254 103s-31 40-31 57.004m85-133l212-75.996m-10-5l-192 67m140-86.99l-113 42.998m10-16.008l93-33.993"/></g><path d="M10384 2184a8.96 8.96 0 0 1-9 9c-6 0-10-4-10-9 0-6 4-10 10-10 5 0 9 4 9 10z" fill="#a1852f"/><g fill="none" class="T Q"><g class="R"><path d="M10194 2326s-15 9-38 11l-50 6"/><path d="M9986 2359s28-36 47-46c20-10 41-5 55 9 15 14 27 30 27 30l86 35s33 9 46 16c14 8 34 29 34 29s44 4 53 14 13 25 13 25l-345-5s10-74-16-107z"/><path d="M9987 2359l-203-12"/><path d="M9943 2356s20 63 12 109m48 1.997l-860-3.992m12-1.008s-62-56.99-87-96.99-33-95.002-33-115.002-6-27.003-20-34.006-25-17.998-24-32.998c1-15.995 2-24.006-7-27.003-8-3.992-13-8.992-13-8.992s6 5 14 0c9-5 19 2.003 21 15 2 12 9 13.993 26 12.998 18-1.008 49-10 57 17.003 7 27 14 88.994 37 115.997 22 27.003 44 55.996 66 58m361-207.006l-73 4.005c-26 2.998-117 27.003-151 15-33-10.995-37-15.995-46-32.998-10-17.998-16-35.996-36-35-19 .995-30 27.003-45 27.003-15 .995-24 0-26-5-3-4.005-7-9.005-7-9.005s10 9.005 10 16.008-3 17.998 14 20.995c17 2.002 26 5.995 26 17.003 0 10.995-13 12.998-15 30.995-2 15.995-6 35 15 47.003"/><path d="M9271 2220s-37 8-64 52c-25 43-15 86-12 109 3 25 35 71 64 86m17-336.004s-5 73-1 117.005 43 85 55 87.004"/><path d="M9318 2404s-8-59 22-86 132-17 166-17c33 0 198 28 198 28m-406-166s-9 70-2 95.002c7 24.006 45 57.004 45 57.004m-67-74.008s-42 19.005-56 68c-16 50 0 90.002 20 112.005 21 20.995 38 30.996 49 30.996h155m-165-185.998s-26 22.998-31 64.006c-5 42.003 15 88.994 55 96.99 40 7.003 141-.995 141-.995"/><path d="M9291 2299s-15 14-18 41c-2 28 10 54 41 59 29 5 124 1 124 1"/><path d="M9308 2319s-10 10-9 25c1 13 9 27 34 27l97 3"/><path d="M9328 2334l89 11m-77-28.006l64 5m-16-22s60 55 49 160.998m-28-160.998s60 55 49 160.998"/></g><path d="M9542 2304s43 51 50 84c6 33 5 75 5 75m-100-164.004l-61 34.006 81 .995-67 34.006 88 2.003-77 40.996 90 .995-89 35 84 16.008m146-346.002s0 75.996 8 116.992c9 41.008 12 90 1 101-11 10.995-71 37.998-79 55.996-9 17.998-3 34.006-3 43.993 0 10-3 22.003-13 24.006m99-336.996s-6 45 0 83.994c6 37.998 18 108 13 123-5 14.005-39 37.003-60 47.003-21 10.995-30 25-31 35.996-2 11.008-5 45-18 47.998m5-2.988s24 6.008 26-7.003c2-12.998-3-22 11-24.988 13-3 51 5 83-10 33-15 52-58.01 55-95.002 2-36.01-11-134.008-5-169.008 7-35 23-35.996 23-35.996" class="S"/><path d="M9619 2135s34 72 76 70m-144-89.005s-2 53 1 90.002c4 37.003 32 84.007 45 103 14 19.006 34 70 34 70m18-60l17 37.003" class="R"/><g class="S"><path d="M9683 2423v38m83-74.005s16 17.003 20 40c4 21.008 0 37.003 0 37.003m-13-85.995s19 25.995 22 45c5 18.993 0 38.993 0 38.993m-277-161.993s-54-71.01-42-134.008"/><path d="M9507 2301s-54-75-42-135m23 79.998l63-78m-14-9.004l-53 73.012"/><path d="M9475 2173l78 34m-63-44.996l62 32.998m2 25.995l-47 61.01m52-46.01l-44 56.01"/><path d="M9585 2290l-99-57m91 40.996l-97-57m11 80.995s-60-15.995-79-15-59 .995-59 .995 57-7 63-10 37-17 44-22.998 13-10 13-10-20 4.005-44 2.997l40-12.998s-4-7.003-24-7.003c-19 0-105-10.995-116-15.995 0 0 44-2.003 60-9.005 17-7 66-28.993 66-28.993m10 37.014s-8 2.998-17 2c-9 0-20-3.992-26-5 0 0 11 0 19-3.992 9-4.005 22-6.008 22-6.008m18 62.004s-10 5-13 7.998c-3 4.005-12 7.003-18 9.005 0 0 12-2.003 18 .995 5 2.997 19 6.008 23 2.002"/></g><g class="R"><path d="M9191 2346s-34-12-62-63c-27-50-24-126-24-143 0-18 1-55-33-55s-53 14-70-10c-15-24-8-40-11-58-4-17-8-17-21-21-14-5-15-11-18-20 0 0 9 10 19 10 11 0 20-4 25 8s22 46 47 41c24-4 20-16 61-16s62 17 74 31c12 13 35 55 37 82m15-16.005s-14-50-37-78c-24-27.998-57-37-84-33.993-28 2.997-40 10.995-58 18.993-17 9.005-31-3.992-34-7.998-3-3.992-10-25.995-17-30.995-7-4.005-14-5-33-5-18 0-21-11.008-21-11.008s-4 23 13 29.006c18 7.003 25 15 26 25.995 1 10-2 31.008 9 51 10 18.993 22 22.998 41 20.995 19-2.998 55-5.995 58 15 2 20 2 52.003 2 52.003s-9-12.003-29-12.003-36 15-47 7.003c-10-7.998-12-22.003-34-19.006-22 4.005-19 9.005-32 5 0 0 6 12.998 17 15 11 .995 13 5 13 15 0 10.995 1 29.006 13 39.006 12 8.992 28 15.995 30 25.995 1 10 0 58 16 95.997 17 39.006 74 102.005 105 133m357-308s3-12.998 2-22.998c-1-10.995-12-13.993-26-13.993-14 .995-15-9.005-15-19.005 0-10.995 2-15-3-15.995-5-2.003-9-2.003-9-2.003s14 .995 14 7.003c1 7.998 3 12.003 11 12.998 7 .995 12 2.002 19-4.005 6-7.998 9-15.995 23-10.995 13 5.995 21 27.998 49 37.003 27 8.992 67 10.995 82 2.997 14-7.003 23-24.006 23-24.006"/><path d="M9594 2131s-1-23 8-45c10-23 31-21 44-11 13 9 24 31 38 41 13 10 54 13 76 9 23-4 58-37 66-61 6-24 7-76 7-76m-19 3.006s8 63-12 87c-19 24.006-46 34.006-77 32.998-30-.995-43-23.993-56-40-13-15-35-35-60-23.993-26 10.995-40 52.998-37 78.994m113-37l51-54.006m12 17.003l-49 48.993m219 253.002s16 37.003 18 64.006c3 27-4 45.996-4 45.996"/></g><g class="S"><path d="M9936 2425s-27 3-41 17-24 22-24 22m62-15.996s-15 .995-37 15m89 0s4-69.006-18-105.002m17 92l-15 2.003m13-27.996h-15m11-35.996l-14 5M9951 2376l13-2.003m-10 35l20-2.003m-17 31l18-2.002M9896 2351l-6-90.997c-3-40 3-85 14-97.004 10-10.995 30-12.998 45-5.995 16 7.003 17 42.998 15 55.996-3 12.998-29 25-43 25-15 0-32-7.998-32-7.998"/><path d="M9900 2182c3-10 19-12 30-10 11 1 19 13 18 30-2 16-18 16-31 16-15 0-22-15-17-36zm225-126.006s4 27.003-8 47.003-83 100.997-156 115.002m186-180.997s-4 50.996-22 83c-19 32.003-84 88-115 102.004-31 12.998-58 20.995-70 12.998"/><path d="M9951 2236s13 15 5 32c-7 17-20 34-15 54 0 0-38 0-48-21m86-65.997s-4 15 1 27.998c5 14.005 47 27.998 87 22.003 0 0-4-5-5-17.003-2-12.998 11-63-20-64.006m32-27s-5 20.995 25 25.995c29 5 75-5.995 75-5.995s-8-7.003-15-21.008c-6-15.995-12-65.996-35-53.993m14-39.006s11 15 36 15c26 0 38-3.992 38-3.992m44-45.002s-36 45-39 53.993c-2 9.005 0 27.998 15 36.008 0 0 8 5 8-1.008 0-7.003 2-32.998 2-32.998l33-25h11s21 27.003 41 37.998c20 12.003 47 12.003 64 11.008 18-1.008 23-35 19-58.01-3-23.993-34-45.996-50-55.996-15-10-61-27.003-75-32.003-13-3.992-19-15.995-25-27.998s-19-30-27-30c-9 0-46-3.992-54-3.992-9-1.008-22-5-30-15-8-8-8-11.008-8-11.008s6 42.998 24 50c17 6.008 36 0 51 12.998 16 13.01 18 25 14 32.003s-28 27.998-30 39.006c-2 10.995-5 35 7 35"/><path d="M10236 2024s-30 34-32 47 4 27 12 33"/></g><path d="M10200 2325s-29 33-26 50m72-51.003s-31 46.01-30 67.004" class="R"/><g class="S"><path d="M10302 2416s-18-5-34-15l-30-21 69 4c7 1-20-10-28-15-8-4-33-15-33-15h41c16 0 38 3 38 3s-22-11-30-14c-7-3-33-13-33-13s54-9 64-9l21 1-18-10"/><path d="M10362 2301s-30 42-40 59c-11 18-26 55-17 73m74-132.996c-1 20.995-36 55-48 83.994-12 30-5 57.004-5 57.004"/></g><g class="R"><path d="M10439 2289s69-4 95 18c27 21 37 59 32 71m-28-67l-166 9.005"/><path d="M10561 2345l-206 4m-14 19.998s228 20 252 2.003c23-19.006 11-24.006 11-24.006"/><path d="M10634 2327s12 26-8 54c-19 30-93 26-126 27s-173-7-173-7"/><path d="M10325 2433l190 7c63 1 119 1 142-52 24-52 13-75-1-82m18-32.004s35 42.998 28 81.01c-8 38.993-26 94.99-89 109.99-64 15-110 3-131 0-20-2-136 1.008-136 1.008"/><path d="M10470 2413s-6 44 23 52c30 8 53 17 73 21 21 5 81 0 105-17s58-84 52-121c-7-38-32-70-48-75"/></g><g class="S"><path d="M10672 2165s10 83-6 118c-17 36-43 64-69 66-26 3-34 0-34 0m-6-13.995s28 5.995 55-12.003c27-17.003 39-45.996 42-80.002l2-35-4-25.995"/><path d="M10493 2175s78 21 121 16c44-5 64-28 75-42 11-15 30-17 47-15s23 16 41 17c18 2 16-2 18-11 1-8 10-10 10-10s-7 2-5 9c2 8 3 43-17 50l-19 7s-30 1-33 21c-3 19 3 53-3 65-5 12-22 24-22 24"/><path d="M10699 2141s11-21 10-44c0-23-1-31 18-46 18-16 26-36 18-52-7-15-22-32-19-46s7-22 7-22-21 21-21 29 2 29-6 42c-9 13-59 29-62 55m-4-30s15-20.995 35-24.006c20-3.992 32-7 29-23.993s3-26.008 14-31.008"/><path d="M10571 2190s26-22 43-50c17-29 28-77 29-104 1-26-20-53-1-79 19-25 42-33 42-70s-13-46-25-55-28-18-28-31c-1-13 10-12 8-22 0 0-3 10-11 14-10 3-16 16-6 28 9 12 21 36 14 56-6 20-47 33-67 60s-20 56-21 67 0 73-11 102c-11 28-46 59-59 64"/><path d="M10461 2157s45-20 57-54c12-33 17-95 17-129s25-62 49-73c25-11 47-29 44-48-4-20-13-32-13-45 1-13 18-17 18-17m-124 387l-25 70.996c-8 17.003-26 39.006-26 39.006"/><path d="M10507 2187s17-1 33 8c15 8 27 23 48 26 22 3 47 2 47 2l-62-1c-9 1-37 6-49 3-12-2-25-12-25-12m-6 10s22 7.003 30 15.995c0 0-28 1.008-35-2.998m-3 16.01s29-3 56 12c27 13 36 21.008 51 22.003 15 1.008 22 1.008 22 1.008s-39-3-54-2.003c-16 .995-56-2.997-66-5-10-2.998-21-10-21-10"/><path d="M10477 2262s13 12 27 8c0 0-11-10-25-12m22-55.995s9 8.992 25 8.992c0 0-6-13.992-23-13.992"/></g><g class="R"><path d="M9805 1963s-20-49-32-68c-13-19-21-42-21-42m21-1.002l32 55.996c12 23 19 58 19 58m-21-66.007s32-7.003 35 14.005c2 20.995-17 25.995-17 25.995M9785 1927s-13 17.998-2 30c10 12.998 40 12.998 56 5.995l16-7.003s19 13.993 37 .995c18-12.003 26-29.006 22-42.003-4-13.992-17-10-17-10"/><path d="M9882 1924s-24 9-31-9c-6-18 16-24 16-24"/><path d="M9893 1956s-28-72-32-104m45 85.995s-25-67-28-95.997m12 40.996s34-2 39 32.003c7 34.006-4 40-20 55-16 12.998-39 42.998-39 42.998s-28-12-73-22.998c-45-10.995-44-67.004-19-83"/><path d="M9899 1977s22 56 67 71c44 15 87 7 109-13 23-22 40-49 58-51 17-3 17 24 17 24m16 7.994s8-30.995-15-42.998c-22-12-30-3.992-48 17.003-18 22.998-42 50.996-89 50s-84-22.003-101-70m136 80.995s-49 85.002-107 101c-58 15-111-15-143-47.003m261-59.006s1 28.01-24 55c-24 28.01-55 54.006-81 63"/><path d="M10048 2032s5-39-13-58c-19-19-31-38-19-62s40-33 40-33-31 10-24 42c7 33 27 45 41 50 15 6 39 6 39 6m12 12.003s38 30.995 53 35c15 3.992 24 0 24 0m-142-55s-4 27.998 4 55c8 25 24 46.99 43 42.998 19-4.005 58-46.01 58-46.01M9786 2095s-54-55.996-98-122.005c-44-65.996-78-148.995-82-160.998S9579 1764 9579 1764s-63 208.996-108 268.997c-44 61.01-75 22.998-112 0-36-22.998-144-123.995-175-160.998-31-37.998-64-80.996-92-85.002-29-3.992-65-3.992-103-27.003-38-22.998-54-42.003-69-64.988-14-24.006-16-70-32-85 0 0 28-4.005 34 17.003 5 20 5 17.003 16 20l-3-37.998s4 7.998 12 16.008c8 7.998 14 30.995 14 30.995l-2-35s17 14.005 17 22.998c0 10 12 19.005 12 19.005l2-27.003s3 10.995 11 19.005c8 7.998 7 12.998 11 30s1 32.998 5 45 26 5 38-1.008c12-7.003 28-10.995 61-7.998 33 2.003 75 17.003 96 32.998 22 15.995 182 150.003 188 153 5 2.003 41-108 51-158 9-50 31-122.005 42-145.003 10-22.998 17-42.003 17-42.003"/><path d="M9180 1736s-17 35-63 61m43-68.996s5 12.998-14 32c-18 19.005-39 28-76 25m-76-24.002s-4-9.005-2-35.995c2-28-4-62.004-4-62.004m-26-19.005l7 86c1 14.987 4 19.987 4 19.987m-31-33s0-3.992-3-30.995l-1-39.006m126 78.012l-48-20M9203 1749s-3 19.005-24 42.003c-20 23.993-40 27.003-40 27.003m80-61s-17 50-67 74.007m93-51.01s-38 55-75 75m19-10.995s10 2.003 7 14.005c-3 13.993-1 22.998-1 22.998"/><path d="M9206 1896s5-22 8-41c3-20-12-25-12-25m83-16.995l-76 85m87-75s-50 65.996-79 85m95-73s-39 62.004-83 85.002m101-70s-43 62.004-85 86m24-16.008s13 5 12 17.998c-1 12.003 1 29.006 1 29.006m1-59.006s18 11.008 20 35c1 23-2 40-2 40m388-148s-56 10-91-48.993c-36-58-36-79.007-46-95.997-9-18-27-27.003-27-27.003M9567 1789s-54-37.998-117-40.996m110 70s-34-25-65-35c-32-9.005-49-6.008-49-6.008m107 65s-29-20-59-30.995c-31-11.008-55-5-55-5m116 15c0 2.998-4 7.003-8 7.003s-7-4.005-7-7.003c0-4.005 3-7.003 7-7.003s8 2.997 8 7.003zm-23-7c0 2.997-3 5.995-8 5.995-4 0-7-2.998-7-5.995 0-5 3-7.998 7-7.998 5 0 8 2.997 8 7.998zm-25-15c0 5-3 7.998-7 7.998s-7-2.997-7-7.998c0-4.005 3-7.003 7-7.003s7 2.997 7 7.003z"/></g></g><g fill="#231f20"><path d="M10371 1884c-3 0-5 2-5 4s2 5 5 5c2 0 4-3 4-5s-2-4-4-4zm0 14c-6 0-10-4-10-10 0-5 4-9 10-9a8.96 8.96 0 0 1 9 9c0 6-4 10-9 10zm20-20.006c-2 0-5 2.003-5 4.005 0 2.998 3 4.005 5 4.005 3 0 4-1.008 4-4.005 0-2.003-1-4.005-4-4.005zm0 15c-6 0-10-5.995-10-10.995s4-10 10-10c5 0 10 5 10 10s-5 10.995-10 10.995zm-242-216c-2 0-4 2.003-4 5 0 2.003 2 4.005 4 4.005s4-2.003 4-4.005c0-2.997-2-5-4-5zm0 14.005a8.96 8.954 0 0 1-9-9.005c0-5.995 4-10.995 9-10.995 6 0 11 5 11 10.995 0 5-5 9.005-11 9.005zm13-30.995c-2 0-4 2.003-4 3.992s2 4.005 4 4.005c3 0 4-2.003 4-4.005s-1-3.992-4-3.992zm0 12.998c-5 0-10-4.005-10-9.005s5-10 10-10 10 5 10 10-5 9.005-10 9.005zm12-32.002c-3 0-5 2.003-5 4.005 0 2 2 3.992 5 3.992s5-2.003 5-3.992c0-2.003-2-4.005-5-4.005zm0 14.005c-6 0-10-5-10-10s4-10 10-10 10 5 10 10-4 10-10 10zm7-37.003c-2 0-4 2.003-4 5.995 0 2.003 2 4.005 4 4.005s4-2.003 4-4.005c0-3.992-2-5.995-4-5.995zm0 15c-5 0-10-4.005-10-9.005 0-7.003 5-10.995 10-10.995s9 3.992 9 10.995a8.96 8.954 0 0 1-9 9.005zm7-35.995c-2 0-4 2.003-4 3.992 0 2.997 2 5 4 5 3 0 5-2.003 5-5 0-2.003-2-3.992-5-3.992zm0 13.992c-5 0-9-4.005-9-10a8.96 8.954 0 0 1 9-8.992c6 0 11 3.992 11 8.992 0 5.995-5 10-11 10z"/><path d="M10191 1578c-4 0-6 2-6 4s2 5 6 5c2 0 4-3 4-5s-2-4-4-4zm0 15c-7 0-11-5-11-11 0-5 4-9 11-9a8.96 8.96 0 0 1 9 9c0 6-4 11-9 11zm223 284c-2 0-4 2.003-4 4.005s2 3.992 4 3.992 4-2.003 4-3.992c0-2.003-2-4.005-4-4.005zm0 12.998c-5 0-10-3.992-10-8.992s5-10 10-10 10 5 10 10-5 8.992-10 8.992zm19-10.997c-2 0-4 .995-4 3.992 0 2.003 2 4.005 4 4.005 3 0 5-2.003 5-4.005 0-2.997-2-3.992-5-3.992zm0 13.993c-5 0-9-5-9-10 0-5.995 4-9.987 9-9.987 6 0 11 3.992 11 9.987 0 5-5 10-11 10z"/><path d="M10451 1884c-2 0-4 2-4 4s2 5 4 5 4-3 4-5-2-4-4-4zm0 14c-5 0-9-4-9-10a8.96 8.96 0 0 1 9-9c5 0 10 4 10 9 0 6-5 10-10 10z"/></g><g fill="none" class="Q R T"><path d="M9479 1791c0 3-3 6-8 6-3 0-6-3-6-6 0-5 3-8 6-8 5 0 8 3 8 8zm-20-2.995c0 3.992-3 7-7 7s-7-2.997-7-7c0-5 3-8 7-8s7 3 7 8zm82 83.994s-54-40.996-111-38.993m-37 70.996s27 13.992 30 40c2 25.995-8 32.998-8 32.998m594-49.005s-22-8.992-22-74.99c0-65 47-198 47-198s78 30.995 131 46.99c53 16.008 150 49.006 162 61.01"/><path d="M10364 1709s-48 11-41 71c0 0 35 113 44 155s16 82 9 91m25 96.998s40-5 55-50.996c15-46.01 1-233.002-13-297.008-15-64.988-26-76.99-57-99.99-31-23.01-58-56.01-144-87.004-85-30.995-182-60.996-182-60.996"/><path d="M10057 1617s-16-5-28 37c-12 41-24 118-77 130m503 75.996s-8-15-41-17c-32-3-64 17-64 17m16-10s1-8.992-11-15c-13-5-17-12.998-17-12.998m-8-27.003s38 23 55 50m72 34.006s-24-10-55-9.005c-31 2.003-49 16.008-49 16.008m103 15.995s-19-10-49-10-48 12.998-48 12.998m100 27.003s-11-12.998-46-15.995c-33-2.003-48 5.995-48 5.995m95 90.997s-20-18.993-45-32.003c-26-14.005-40-1.008-40-1.008"/><path d="M10393 1975s-3-8-11-13c-7-4-13-7-13-7m-3-20.998s9 3.992 27 10.995c16 6.008 23 29.006 23 37.003m41 55.002s-19-25-38-32.998c-19-7.003-41-4.005-41-4.005m78 72.004s-16-37.003-36-51c-21-12.998-42-12.998-42-12.998m71 75.002s-12-35.995-28-47.998-44-20-44-20m-141-429s-12 94.007-49 120.997m18-131.992s-13 92-55 123m30-132.005s-3 75-52 120.997m13-133.01s-4 38.01-17 71.01c-13 35-40 47-40 47m-389-42.998s-34 30-35 90.996 55 101.992 99 110.002 61-10.995 61-10.995 28 9.005 69-10.995c40-20 52-64.006 46-107.005-7-42.003-35-69.006-35-69.006m26 4.005s30 45.996 26 100.997-16 68-44 87.004c-29 19.005-69 29.006-72 45 0 0-25-15-47-15-21 0-76 0-113-42.998-36-44.006-47-110.002-12-172.006"/><path d="M9737 1647s-16 31-11 91c6 59 19 88 19 88m6-162.003s-10 26.008-9 73c2 47.998 26 95.002 26 95.002m83-198.997s-10 37.003-11 90.996c-1 55 19 94.007 19 94.007m19-194.01s-16 32.998-18 90.002 16 98 16 98"/><path d="M9857 1596s-2 21 32 34c34 12 85 15 85 15s10-82-7-99"/><path d="M9857 1600s7 14 1 26c-7 12-78 75-78 75s-47-51-54-62c-7-12-8-33-4-38m-5-.001s-3 25.995-35 35c-33 7.998-69 15-69 15s-2-25-11-42.998c-7-17.998-9-42.998-1-52.998 9-10 16-14.005 16-14.005"/><path d="M9601 1556s-11 18-47 16c-36-1-59-11-69-25-11-14-15-22-15-22s13 11 29 3c16-9 40-23 64-28 25-5 98-17 109-20 10-3 14-29 7-46-7-18-19-31-43-42s-57-14-64-35c-7-22-3-28 5-35 7-7 11-16 11-16s-15-6-18-13l11-4s-10-11-12-22c0 0 11-5 12-9 2-4-4-8-10-15s-8-14 3-25c10-10 64-40 64-40s-14-11-2-22c12-10 16-15 19-21 4-6 0-13 0-13l7 7s14-17 19-24c4-7-7-4-12-30-4-25 4-37 20-47 15-9 25-14 25-14s3-1 3-11c0 0 6 10 1 16 0 0 40-19 52-27 13-8 18-13 18-13l13 4s16-13 17-16c1-2-10-34-10-34s35-35 58-63c24-28 121-173 148-211 27-37 59-62 80-69 20-7 47-34 47-34s-23 36-41 48c-20 13-47 50-60 78s-22 54-22 54"/><path d="M9943 822s18-42 50-69 55-32 65-33c11-1 17-1 16-7l-2-6s8 13 0 17c-7 3-12 0-15 12-2 11-12 40-25 41s-21-2-40 11c-20 14-34 35-34 35m52-44.006s0 19.005-5 38c-5 20-15 32.998-20 40.996-4 7.998 2 55.996 2 55.996m-48 39.006s12-20 32-31.008c20-10.995 27-7.998 27-7.998s-12 2.003-10 15c1 12.998 4 66.01 3 73-1 7.003-37 29.006-37 29.006l11 20.995 12-.995s-8 2.003-7 12.003c1 8.992 6 17 6 17l14-.995s-7 .995-2 10.995c4 9.005 22 34.006 22 34.006h11s-3 .995-5 12.998c-3 12.003 6 27.003 6 27.003s10-2.003 23-2.003 30-7.003 26-5.995c-3 2.003-17 3.992-22 20-5 15-20 32-26 33.993s-19-3.992-19-3.992-5 28.993-21 43.993c-17 15-19 21.008-33 24.006-15 2.003-35-11.008-35-11.008s15 12.003 24 18.01l11 5.995s-20 9.005-34 7.003c-14-2.998-10-11.008-17-14.005l-7-3.992"/><path d="M9912 1292s7 14 15 16c0 0-14 12-27 11-11-2-20-13-20-13l-9-4"/><path d="M9891 1315s-4 13 10 18c0 0-10 9-21 9-9 0-20-3-20-3l-14-3m30 6.002s0 7.998 11 12.998l11 5s-11 2.998-22 7.003c-11 5-17 .995-17 .995l-20-2.003m13 25l7-7s7-12.003 18-9.005c10 4.005 26 5 22 4.005-4-1.008-10 7-19 12-8 5-17 5-17 5l-6 5m23-10s5 2.997 16 7.003c10 4.005 16 1.008 16 1.008s-15 10-26 12.003l-10 1.008"/><path d="M9894 1408s14 2 22 6c7 5 13 2 13 2s-25 10-34 10-12-7-12-7m19 8.003s22 7.998 36-5 16-21.008 13-26.008c-4-3.992-8-23.993 0-40 8-15 19-20 31-20 11 0 16 6.008 26-2.997 9-10 9-20 23-17.998 14 2.997 20 0 20-10 0 0 4 20.995-6 22.998-9 2.998-6-7.003-9 2.998-4 9.005-1 18.01-15 27.003-15 7.998-23 10-23 10s7 7.003 18 2.003c0 0 2 2.997-6 7.998-8 2.997 0 5-2 17.998-3 13-9 30-18 39.006-10 10-23 17.998-23 17.998"/><path d="M9922 1427s10 3 28 13 33 19 60 19c26 0 44-4 44-4s-48 6-59 12c-13 6-12 13-12 13"/><path d="M9801 1342s-2 42 20 73c23 31 69 53 104 58 34 5 40 0 77 10 36 9 88 13 88 13s-45 49-80 58c-35 8-59-19-59-19m18-57.996s-2 32.998-64 73c-63 40.996-104 47.998-189 28.993-86-17.998-112-83.994-112-83.994m380-16.01s-4 29.006-54 71.01c-51 43.993-68 56.99-142 58.993-75 2.003-173-42.998-199-111.992"/><path d="M9818 1556c0 19-16 35-36 35-19 0-36-16-36-35 0-21 17-37 36-37 20 0 36 16 36 37z"/><path d="M9799 1555c0 10-8 17-18 17-9 0-16-7-16-17 0-9 7-17 16-17 10 0 18 8 18 17zm108-84.004V1490s23 3.992 32 .995c11-3.992 9-15 9-15m-57-10s-6 9.005-4 22.003c3 14.005 6 25 6 25s41 5.995 61-7.003"/><path d="M9894 1512s-21 31-77 36m-154-27.003c25 24.006 84 35 84 35M9651 1488s12 4.005 7 9.005c-5 5.995-6 12-6 12s-25 1.008-25-17"/><path d="M9673 1479s8 12 3 23c-5 10-5 23-28 20-24-4-29 0-37-13"/><path d="M9677 1498s27 24 88 25 116-27 126-53m-12-10.994s-26 47-103 47c-76 0-100-28.993-100-28.993m8-20s48 15 105-19.005m-110-3.992s61 7.003 93-26.008m-127-10s48 10 102-17.003c54-27.998 74-61.99 87-98.994 13-35.995 20-75 42-92.004 21-15.995 48-13.993 70-15 23-.995 31 1.008 31 1.008s-8 2.997-12 17.998c-3 13.993-19 22.003-19 22.003s22 .995 25-13.01c4-13.992 11-27 25-32s26-7.998 26-7.998"/><path d="M9843 1262s3-9 18-13c16-3 14 7 13 14s-6 17-6 17 1-9-9-11c-11-2-26 9-26 9m35 1.003s1 2.998-8 17.003c-10 12.998-25 29.988-34 15"/><path d="M9854 1228s16-12 32-9c17 3 20 25 12 43-7 18-34 43-42 57-7 14-9 17-27 21-17 4-23-5-23-5"/><path d="M9840 1336s-6 23 3 46c8 23 27 38 48 44"/><path d="M9884 1419s-7 28-26 29m37-23s-3 25.995-23 29.006m42-24.005s0 24.006-17 33.993m24-198.996l-23-7.998s21-4.005 23-10.995c3-7.998-1-11.008-1-11.008s-10-5.995-21 0m-244-48.993s5-2.003 13-11.008c8-7.998 25-17.998 40-12 17 5 39 29.988 55 15.995m-11 20s-33 3.992-49 3.992c-15 0-34-5-42-2.997 0 0 8-5 16-12.998 8-8.992 19-12.003 34-5.995 17 7.003 25 15.995 41 17.998zm-174 50s13 10 22-2.997c9-14.005 14-19.006 24-17.003s11 22.998-4 27.998c-16 5-35 2.003-42-7.998zm0 13.992s15 2.998 26 9.005c12 5.995 33 12.998 44 7.998 0 0-18 7.003-37 7.998-20 1.008-30 2.003-30 2.003s22 6.008 34 11.008c11 5 17 2.003 23 0s10-4.005 10-4.005-9 12.003-21 12.998c-12 1.008-39-2.997-39-2.997m31-38.996s16 1.008 26-7c11-8 16-18 28-9.005 12 7.998 15 25 23 17.003 8-7.003 7-16.008 14-10 8 5.995 12-1.008 12-1.008M9662 1129s6 7.998 7 15.995c0 0 1-12.003 34-22.003 34-11.008 61 7.003 72 15.995 11 10 17 17.003 24 10 7-7.998 0-10.995 7-7.998l7 2.997m129 29.02s-39-37.998-86-55.996m-34-13s-52-24.006-127-25m1-55s1 12.003-6 29.006-21 22.998-21 22.998m16-47.004s5 19.006-17 35.996m27-20.995s12 5 17-5.995c6-10 7-19.005 7-19.005m-18 26.99s5 0 7 5 3 12.998 3 12.998-13 12.003-22 14.005c-8 2.003-8-10-8-10l1 30s19-6.008 66-1.008c46 5 142 50 170 76m-62-82.003c-7 5.995-14 5.995-17 0-3-6.008 0-15 8-14.005 9 1.008 17 7.003 9 14.005z"/><path d="M9848 1078s-13-6-7-12 29-17 29-17 5 22 1 26-14 6-14 6m4 5.997c6-2.003 11 0 14 6.008 3 5.995 6 15 6 15s-7 .995-18-1.008c-12-2.003-14-8.992-14-8.992"/><path d="M9853 1102s4 7-2 14c-6 8-22 11-22 11s-7-6-7-17c0-10 17-15 17-15m-12 1.997c-8-2.003-10-2.998-11-12.998-1-9.005 0-12.998 0-12.998s15-2.997 23-1.008m2-7s-68-17.003-130-25m7-14.005s80 12.003 141 27.998m12 6.008s68 23.993 135 65M9869 1074s78 30.995 129 65.996"/><path d="M10015 1125s-18 8-30 24c-13 18-4 30-4 30m34-37.997s-6 2.997-12 10.995c-6 7.003-7 20-7 20M9847 1129s-10 20.995-7 40.995c4 17.998 20 32.998 20 42.003m-32-85.996s-9 35-5 50c3 15 29 33.993 24 65m-1-196.008s-3-4.987 12-10.995c16-5 21-5.995 21-5.995s12 32 6 33.993m19 9.005s7 2.003 3-12.003-25-50-25-50l-43 16.008c-19 5.995-23 15.995-23 15.995m-48-12.003s2-17.998-7-28.993m52 38.993s-1-5.995-9-27.003c-9-22.003-16-32.998-16-32.998"/><path d="M9803 1012s7-9 18-14c12-7 16-6 16-6s7 25 2 34m64 25s6-7.003 17-10c12-2.997 18-.995 18-.995s1 15.995-4 22c-5 6.008-7 16.008-7 16.008"/><path d="M9933 1063s5 2 17-2c12-5 21-7 21-7m-2 14.004s-20 5.995-22 20m14 8.993s0-15.995 15-17.003m-3 23.01s1-11.008 15-13.01"/><path d="M9921 1042l-8-20-22 5m-73-30.005l-5-13.993-19 5.995m49 16.01l13-4.005 9 15m54 17.003l22-7.003 13 32.998"/><path d="M9954 1032l-148-49m12-16.005s111 37.003 149 56m-143-106s4 5 3 15c-1 11.008-11 21.008-11 21.008m19-45s5 10.995 6 20.995c1 9.005-22 36.008-22 36.008m87 4c-5 2.003-7-10-1-15 7-3.992 16 11.008 1 15zm-2-15c-5-5-10-7.998-3-13.992 7-7.003 20-11.008 20-11.008s4 20 1 24.006c-3 3.992-9 2.997-9 2.997"/><path d="M9901 955c-1-4 3-9-4-10-6-1-20 5-20 5s4 10 9 14c4 3 13-2 13-2m1 4c-7-.995-14-2.003-14 2.997 0 6.008 3 22.003 3 22.003s14-2.997 18-7.998 0-15 0-15m2 .995s1 10 7 9.005c6-1.008 16-2.997 16-2.997s-10-19.005-16-15M9990 986s-16 14.005-12 29.006"/><path d="M9973 979s-21-16-51-27m-25-6s-28-12.998-57-17.998m70 5s-57-21.008-79-25m27 7.003s7-12.003-6-29.006m25 34.005s3-24.006-11-50M9903 926s0-2.997 10-9.005c9-5.995 14-8.992 14-8.992l-2 27.003L9988 966s-7 2.997-16 15.995c-9 15-11 26.008-11 38.01"/><path d="M9890 922s4-9 20-18l24-14s4 37 1 50m28 13.997s5-20 25-25"/><path d="M9966 925l-5-19-27 3m41 11.004s-1-16.008-2-20c-1-4.005-5-11.008-5-11.008s-22 5-34 13m-20 0s-5-12.003-5-20c0-7.003-6-10-6-10s-23 8.992-28 20m45 2.997l-3-19.006c-2-12.003-7-18.993-7-18.993s-17 8.992-25 13.992c-9 5-16 11.008-16 11.008"/><path d="M9960 891l-44-15m67 9.998l-70-25m-34-10.995l31 7.998s7-9.005 12-27.003c5-18.993-4-33.993-4-33.993m-26 70l-17-7.003"/><path d="M9928 863l11-4 2 13m10 1.996l-6-28.993-28 20m-21-10s8-4.005 10-12.003c3-9.005-1-22.003-1-22.003m63 59.006s4-11.008 17-17.003m-28 12.998s2-10 12-18.993c10-10 25-19.006 25-19.006m-33 25.995c0-3.992 6-15.995 6-25 0-8.992-3-25.995-3-25.995l-28 14.005c-12 7.003-18 17.998-18 17.998"/><path d="M9966 839s4-9 14-12c11-2 25-10 25-10m-69 10.005s8-24.006-4-45"/></g><g fill="#fff100"><path d="M10284 1927c2 4 3 7 4 10l5-6v-4h-9zm0 44h-2a10.85 10.85 0 0 1-8-8c-3-12-10-33-18-37-4-3-6-8-5-12 1-5 6-8 11-8h39c5 0 9 4 10 9l4 16c1 3 0 6-2 9l-20 27c-2 2-5 4-9 4z"/><path d="M10306 1916h-70c-6 0-11-5-11-11v-11c0-7 5-11 10-11l71-2c3 0 6 1 8 3s3 5 3 8v13c0 6-4 11-11 11z"/><path d="M10247 1873h48c3-5 5-9 7-11v-20h-66v19c1 2 4 5 5 6 2 1 3 2 3 3 2 1 3 2 3 3zm54 21h-63c-5 0-9-4-10-9v-2l-1-1c-5-5-12-12-12-20v-26c0-3 1-7 4-9l6-4c1-1 4-2 6-2h77c3 0 5 1 7 3l5 5c2 2 3 5 3 7v29c0 3-1 6-4 8-1 2-6 10-9 16-2 3-5 5-9 5z"/><path d="M10315 1832h-92c-6 0-11-4-11-10v-15c0-6 5-10 11-10h92c6 0 11 4 11 10v15c0 6-5 10-11 10z"/><path d="M10276 1804zm3 8h-13c-5 0-9-3-10-8-1-2-1-10 6-17l4-4c2-2 5-3 8-3s6 1 7 3c3 2 8 8 9 18 1 2 0 5-2 8-2 2-5 3-9 3z"/><path d="M10272 1265c-2 7-3 15-5 24-9 51-5 123 0 198v4l5-226zm-34 526h13l11-30 2-80c-4 41-9 74-15 82-4 5-8 17-11 28zm22 21h-35c-4 0-7-2-9-4-2-3-2-6-2-9 1-3 7-34 18-48 7-14 21-161 15-243l-2-20c-5-76-9-149 0-203 12-57 29-99 29-101 2-4 7-7 12-6s9 6 9 11l-12 574c0 1 0 2-1 3l-12 38c-2 5-6 8-10 8z"/><path d="M10305 1255l-8 240c2-7 3-13 4-20 7-53 14-111 14-144 0-19-4-48-10-76zm-10 536h5c-3-7-6-17-8-28 0-4-1-12-2-22v19l5 31zm20 21h-29c-5 0-10-4-11-9l-6-40v-2l17-589c0-5 4-9 9-10 6 0 11 3 12 8s29 111 29 161c0 34-7 91-14 147-4 26-7 52-9 72-7 63-3 187 1 209 3 22 11 38 11 38 1 3 1 7-1 10s-5 5-9 5z"/></g><path d="M10301 1917l4 16-21 27s-7-34-23-43h40zm6-25v12.998h-71v-12.003l71-.995zm1-60.002h-77l-6 4.005v25.995c0 5 9 12.003 11 15 2 2.003 2 7.003 2 7.003h63s8-15.995 12-19.006v-28.993l-5-4.005zm7-10h-92v-15h92v15zm-35-20h-14s0-2.997 4-7.998l5-4.005s4 6.008 5 12.003zm-20-.995h-35s6-31.008 16-44.006c9-13.992 22-166.993 17-248.997s-12-163.995-1-221c10-57.004 27-99.007 27-99.007l-12 574.003-12 39.006zm26 0l-7-40 17-587.995s30 108.994 30 157.987c0 50-17 156-25 218-6 63-2 189 3 212.006 3 22.998 11 40 11 40h-29zm5 283.998v62.004h-56s6-5 6-14.005c1-7.998 2-28.993 2-28.993l33-25h11l4 5.995zm0 72.003h-58l-8 5.995v22.003l5 7.003h61l7-6.008v-20l-7-8.992zm-8 48.993h-52s11 15 15 19.006c4 3.992 11 10 11 10l6-1.008 20-27.998z" fill="#94792d"/><path d="M9339 1642l6 122s-115-29-179-41c0 0-22-23-47-28-26-6-46 8-46 8l-33 1c-5 0-7-7-8-13s-2-34-12-49-32-27-32-27l-8 4-20-13c-6-3-11-2-11-2l-2 5s-8-5-16-9l-9-4-2 9s-9-11-27-12-29 6-29 6 21 32 25 67l-92-15s-3-80-15-109c0 0 352 52 557 100zm37 102.994l-7 6.008-8-17.998-1-30 16 42zm34-32l-15 .995-5-63.993 20 63zm-27 10s-15-84.007-14-125.997c0 0-72-17.003-236-47.004-165-30-304-42.003-304-42.003v27.003l335 55c124 23.993 180 38.993 180 38.993l39 94.007zm31-50l-31-90.997s-123-27.003-277-54.006c-154-25.995-229-27.003-229-27.003v-20.995s348 32.003 527 80l10 113z" fill="#e2c321"/><g fill="#125c30"><path d="M7786 2271c3 2 4 2 5 3 6 25 13 51 20 77l-68 49c-22 15-44 31-65 47v3l165 26 18 77s-2 1-3 2c-1-1-2-1-2-1-7-17-19-21-37-17l-146 36c-4 1-9 2-12 4-8 4-13 11-13 20 0 3 0 6-1 9-7 0-6-6-7-9l-18-70c-1-5-3-11-4-16 0-2 1-4 2-6 2 1 3 1 3 2 7 19 22 20 37 16l142-35c3 0 5-1 10-3-4-1-6-2-7-3l-191-29c-2-1-4-1-5-1-2-1-6-3-6-4 0-3 2-6 4-8 25-19 51-37 76-56 27-19 54-39 81-59 2-2 4-3 7-7-6 1-9 2-12 3-48 11-95 24-142 35-8 2-17 5-22 13-3 6-4 13-5 20-1 0-4-1-4-2-5-18-10-36-14-55 0-2 1-3 2-7 2 3 3 3 3 5 6 14 16 20 36 16l79-21 67-16c2-1 4-1 6-2 18-5 21-9 21-28-1-2 0-4 0-8zm3747 622.994c8 1.008 14-5 14-12-1-7.003-6-13-13-13s-13 6.008-13 13c0 7 5 12 12 12zm-143-170c0-6.008-5-12.003-12-12.003-8-1.008-14 3.992-14 12.003 0 5.995 5 12 12 12.998 6 0 13-6.008 14-12.998zm81 .995c17-4.005 31 2.997 45 12.003l94 58.993c3 1.008 6 3 8 5 4 2.003 4 5 2 8-5 8.992-10 17.998-17 27.998-4-2.998-8-4.005-11-6.008-12-7.998-24-15-37-22.998-12-7.003-25-7.003-37-.995-21 8.992-27 35-14 52 7-2.997 14-7.998 21-10.995 19-7.998 50 7.998 44 40-4 22.998-30 37.003-51 27.998-45-17.998-60-63-51-95.997 5-20 17-35 36-44.006-6-7-17-15-24-15.995-9 0-17 2.003-21 12.003-3 5-7 10-10 15-13 20.995-10 43.993 6 62.004 1 0 2 .995 4 3.992-5 7.003-10 15.995-15 24.006-3 3.992-6 3.992-10 .995-3-2.998-6-5.995-9-10-18-23.993-23-62.004-6-90.002 6-10.995 13-22.003 20-33.993-3-4.005-6-7.003-9-11.008-4 2.997-6 6.008-9 9.005-9 8.992-19 15.995-32 20-21 5.995-39-4.005-45-22.998-6-21.008 5-42.998 25-50 12-4.005 22-2.002 32 5 3 2.002 5 3.992 8 5.995 9-20 2-37.998-26-63 5-10 10-19.006 16-29.006 11 4.005 18 11.008 24 19.006 13 15.995 20 34.006 20 55 1 5 2 10 6 14.005 8 8.992 15 18.993 23 28.993zm-719 927.017c0-5-5-11.008-11-11.008-5 0-10 4.005-10 9.005-1 5.995 4 12.003 10 12.003 5 0 11-5 11-10zm-96 69.988c6 1.008 12-5 13-10.995 0-7.003-6-14.005-13-14.005s-13 6.008-13 13c0 7 6 12 13 12zm0-126.992c0-7.003-5-12.998-12-12.998-7-1.008-13 5.995-13 12.998-1 7.003 6 12.998 13 12.003 7 0 12-5 12-12.003zm65 78.994c-1-2-2-3.992-4-5.995-5-7.998-6-17.003-2-27.998l-43 20c-5-12.003-10-21.008-14-31.008-7 1.008-13 2.003-19 1.008-28-1.008-42-26.008-30-49.006 9-17.998 32-25.995 50-20 9 2.998 15 9.005 19 17.998 4 7.003 7 15 11 23.01 1 2 2 5 4 7 6-3.992 5-8.992 3-12.998-6-15-12-28.993-19-42.998-19-2.002-36 2.003-55 5l-48 12.003 1 .995c-11-22.003-15-43.993 0-65.996 11-15 26-22.003 43-25 10-.995 19-2.002 28-2.002 10-.995 18-5 23-15 4-7.998 9-15.995 14-25.995 8 7.003 13 15.995 17 23.993 1 1.008 0 2.003 0 4.005-6 25.995-24 40.996-52 42.998-10 0-21 1.008-32 2.998-11 2.002-15 9.005-14 22.003l15-2.998c25-4.005 48-5.995 72-5.995 9 0 15 2.998 19 12 4 11.008 8 21.008 14 31.01 11 20.995 12 40.996-1 63 6-2.003 10-2.998 14-4.005 13-3.992 23 1.008 29 12.998 3 6.008 6 13 8 20 7 24.006 0 42.998-17 60-4 4.005-8 4.005-13 1.008-8-5-17-9.005-28-15-1 12.998-3 23.993-4 35.995-10-.995-14-10-23-14.005-1 2.003-3 4.005-5 6.008-8 10.995-22 15.995-35 12.003-15-4.005-24-13.01-27-28.01-2-13.992 1-27 16-33.993 6-5 13-7.003 20-7.998 9-2.003 17 0 23 7.998 3 3.992 7 7.003 11 12.003 2-11.008 3-21.008 5-31.008 4 1.008 7 2.002 10 4.005 5 2.003 10 4.005 15 7.003 7 7.003 15 10.995 24 15 1-4.005 2-6.008 3-7.998-10-3-18-5-26-8zm-1887 69.007c-1-24.006-8-40-26-50-20-12.998-22-12.998-33 7.003l-67 115.002c-6 10.995-12 22.003-17 32.998-5 7.998-4 10.995 4 15.995 30 17.003 47 17.003 74-2.998 3-2.997 6-5 9-7.998 23-25 40-52.003 51-84.007 3-10 4-20 5-25.995zM8608 3824h11c15 4.005 24 0 32-12.003 4-7.003 7-12.998 11-18.992l64-110.997c1-2.997 3-6.008 5-10 3-10 3-19.006-5-28.01-3-2.003-4-3.992-5-7.998 2 0 5 0 7 1.008l92 51.99c11 7.003 22 15 30 25 29 31.01 32 67.004 16 105.997-7 18.993-19 33.993-34 47.998-35 32.003-86 32.998-120 15.995-33-17.003-65-35.995-98-54.006-1 0-2-2.997-6-5.995z"/><path d="M9512 3642c0-6-7-13-14-13-6 0-12 7-12 13s5 12 12 13c7 0 14-6 14-13zm119-13c12 1 22 3 33 4v13l-20 124c-4 22-17 36-39 42-2 1-4 2-7 2-2 0-5 0-8-1l-15-112c-1 0-2-1-2-1-2 4-4 7-6 11-16 27-30 55-45 82-5 10-7 11-17 7-3-2-7-3-10-5-11-7-16-16-14-30 4-22 7-45 11-68 1-6 2-13 3-20-4-1-7-3-10-4-10-5-18-13-21-24-6-23 14-44 39-42 18 3 37 19 33 44-3 18-5 36-8 54-1 4-1 8 0 12 2-3 4-6 6-10l40-77c5-11 11-12 19-3 4 4 7 10 8 15l9 73c1 5 2 9 5 13l16-99zm1026 234.005c3 7 6 12 11 20.995 3-22.003 13-35.995 31-44.006 17-7 34-10.995 50 6.008 2-6.008 4-10 5-15 4-22.003 41-39.006 66-27.998 11 3.992 17 12.998 21 22.998 11 22.998 22 47.003 32 70 8 17.003 8 17.003 26 20-1 2.998-1 5-2 5-21 10-42 18.992-65 28.993 1-3.992 1-5.995 2-7.998 6-5 6-12.003 3-18.992-13-28-25-55-39-82.004-7-15-22-17.003-34-6.008-8 7.003-11 19.006-6 29.006l35 77.004c4 10 11 12.003 23 12.003-1 2.997-2 5-3 5l-61 27c-1 0-2 0-4-.995v-2.998c9-7.003 8-15 4-22.998l-36-78.012c-7-15-15-18.993-28-12.998-13 6.008-19 20-13 32.998 9 22.003 19 43 28 64.006 2 2.998 4 7.003 5 10 4 10 10 17.998 24 15-1 2.998-2 5-3 5.995l-61 27.003c-1 0-2-.995-3-.995 0-1.008-1-2.002 0-3 8-7 8-15 3-25-14-28.993-28-58-41-88.994-4-9.005-9-14.005-19-12.003-2 0-3 0-6-.995 1-2.003 2-5 4-5 16-7.998 33-15 51-22.998zm-545-141c0-7-4-12.998-11-12.998-7-.995-14 5-14 12.003s6 12.998 13 12.998c6 0 12-5.995 12-12.003zm80 82.004c-13 2.003-24 2.998-36 5-6-12.998-5-25-7-37.003l-12-97c-2-14.005-10-21.008-25-19.005-8 0-16 1.008-24 2.997-19 3-34 22.003-33 42.003 0 7.998 2 15.995 4 24.006 1-4.005 2-8 4-12.003 5-17.003 17-24.006 33-26.008 15-2 28 3 37 15 10 15 6 34.006-9 45-9 6.008-17 8-26 8-3 .995-7 0-10 0-5 18.993-9 35.996-13 53.993-1 7.998-5 11.008-12 11.008l-24 2.998c-8 .995-9 0-10-7.998l-10-79.007-3-27.003c-5-37 29-75 61-80.996 12-2.003 24-2.998 36-4.005 12-2 12-.995 15-12 4-16.008 4-17.003 21-19.006 7-.995 13-.995 21-2.002-2 9.005-3 16.008-5 22.998-2 6.008-4 13-7 21.008 20 15 18 38.993 21 60 5 32 9 63.993 12 95.997 1 4.005 1 7.998 1 12.998zm290-170.003c6 0 11-5 11-10.995-1-7.003-6-12.003-12-10.995-6 .995-11 5.995-10 12.003 0 6.008 6 10 11 10zm-97-35.995c0 7.998 6 14.005 13 14.005 6 0 12-6.008 13-12.003 0-9.005-6-14.006-13-14.006s-12 4.005-13 12.003zm88 100.002l43-15c9-2.997 14-10.995 12-20 0-5-2-9.005-4-12.998-12 2.998-22 5.995-33 7.998-12 2.003-22-4.005-36-10 6 17.998 12 32.998 18 50zm102-128c1 5.995 1 12.003 1 17.998 1 15-2 27.003-11 37.998-5 6.008-4 11.008-2 17.003 4 10 7 20 5 30.995-5 19.006-15 32.998-33 40-20 7.998-41 15-62 21.008-18 5-31-2.998-37-20-8-24.006-16-49.006-25-73-1-2.997-2-6.008-3-10-5 0-10 .995-14 0-18-2.003-30-13-32-28-1-15.995 10-32.998 26-37.998 19-7.003 42 2.002 48 22.998 2 11.008 6 20 9 30 21-32.998 34-37.003 62-17.998-6-25-15-45.996-21-68.993 12-5 23-9.005 36-11.008 8 23 16 45 23 68 1 0 2 0 2-.995 1-2.998 1-5.995 2-10 8-4.005 16-9.005 27-7.003l-1-.995zm-1889-218.998c0-6.008-7-13-13-12.003-7 0-12 5.995-12 12.998s6 14.005 13 12.998c7 0 12-7.003 12-13.993zm-123 8.992c3-5 6-7.998 8-12.003 19-25 39-48.993 56-73.994 27-37.003 81-37.003 110-17.003 10 7.003 19 14.005 28 22.003 19 15 30 48.993 8 75.996l-73 95.997c-2 3-4 5-7 8-12-5-20-14.005-31-22.003 2-4.005 5-7.998 7-11.008l71-93.994c2-2.998 5-5 7-9.005 4-8.992 3-17-5-23.993-6-4.005-13-9.005-18-14.005-17-13.993-48-8.992-59 5-18 21.008-35 42.998-53 66 9 2 15 3.992 24 7.998-1-6.008-1-7.998-1-10-3-20 9-36 31-37.998 23-2.003 41 15 42 37 0 15-6 24.006-17 32.003-11 7.003-23 11.008-37 12.003-36 4.005-65-10-91-37.003zm3121-883c0-7.003-6-12.003-12-12.003-7-.995-14 6.008-13 12.998 0 5.995 6 12.003 12 12.003 7 0 14-5.995 13-12.998zm47 110.002c-5-2.003-9-2.998-13-4.005l-92-34.988c-40-14.006-58-63-46-95.997 4-10.995 8-22.998 13-33.993 13-31.008 39-42.998 70-31.008l112 40.996c4 2.002 8 2.997 13 5-3 12.003-9 22.998-14 35.995-5-2.002-9-2.002-14-4.005l-107-39.988c-2-1.008-5-2.003-8-2.998-12-2.997-21 1.008-26 12.998-2 7.003-5 14.005-7 21.008-7 17.998 0 38.993 17 48.993 8 5 18 7.998 27 10l-6-5.995c-13-10-17-25-12-40.995 5-17.003 16-26.008 33-27.998 18-2.998 34 12.003 35 32.003 0 7.003-3 14.005-5 21.008-1 3.992-3 7-4 10l40 35.996c9 7.003 9 7.003 5 17.998-3 10-7 19.006-11 30zm-3499 122.005c0-6.008-6-12.003-12-12.003-7 0-13 5.995-13 12.998s7 12.998 14 12.998c6-.995 12-7.003 11-13.992zm-125 110.002c-7-11.008-13-21.008-19-31.008l101-60.996c-1-4.005-2-7.998-2-11.008-4-18.993 7-37.998 24-40.996 16-2.998 34 7.003 41 22.998 7 17.998 2 36-14 46-13 7.998-27 15.995-41 23.993l-12 7.998h10l90-10c7-.995 11 1.008 14 7.003 6 14.005 9 27.998 6 42.003-2 14.005-8 25-20 32.003-38 23.993-75 45.996-113 68-1 .995-3 2.003-7 2.998-6-10-12-20.995-19-32.003 4-2.998 8-5.995 12-7.998 32-19.006 64-40 96-58.993 6-2.998 12-7.003 12-17.003L8107 2819zm917 655c0-7.998-5-12.998-13-12.998-7 0-13 6.008-13 14.005 1 7.003 7 12.998 13 12.998 7 0 13-5.995 13-13.992zm58 203c-11-5-21-10-33-16.008 2-5 3-8.992 5-12.998l48-103.994c3-6.008 5-12.003-1-19.005-5 4.005-10 7.998-14 12.003l-99 85.002c-6 5-12 5.995-19 2.003s-14-7.003-23-10.995l50-108.994c-1-1.008-5-2.002-6-4.005-5-5.995-10-12.998-13-20-3-12.003-1-22.998 8-30.995 11-10 25-11.008 38-7.003 19 5.995 33 32.003 22 50.996l-21 45c-1 2.998-2 6.008-2 10 12-10 25-20 37-30.995 12-10 24-21.008 36-31.008 8-7.003 9-7.003 19-2.003 18 12.003 32 27.998 32 50.996 0 5.995-1 12.998-4 17.998-18 40-38 79.007-56 119.008-1 .995-2 2.002-4 5zm2703-1327c-10-3-19-5-29-7.003 8 12.998 16 15 29 7.003zM11649 2316c0 9.005 5 14.006 12 14.006s13-5 13-14.006c0-5.995-6-12.003-12-12.003-8-.995-13 5-13 12.003zm80 20c-10-2.998-22-5.995-34-9.005-4 6.008-7 11.008-11 15-19 20-47 13-55-12.998-7-22.998 7-45.996 29-50 6-.995 12 0 18 2.003l60 15c2 0 3 .995 4 .995l38-44.988c-21-5-42-11.008-63-16.008l-65-15.995c3-12.998 6-25 10-37.998l182 45.996c-2 10.995-4 20.995-7 30-2 2.997-6 5.995-9 7.998-19 9.005-35 22.003-47 40 5 2.002 9 2.997 14 4.005 12 2.998 20 13.992 21 25 2 23.993-17 45.996-42 47-14 1.008-25-5-31-17-5-8-8-17.003-12-29.006zM9204 3680.004c0-7.998-6-14.006-13-14.006s-13 6.008-13 14.006c0 5.995 5 12.003 12 12.998 7 0 13-6.008 14-12.998zm83 68.993c-13-5-25-7.998-37-12.998l12-35 6-20c4-15.995-3-33.993-16-42.998-12-7.998-30-7.003-42 2.003-2 2.002-4 3.992-5 5.995 3 2.003 5 4.005 8 6.008 14 12.003 18 30.995 9 45.996-8 13.993-27 20-43 15-20-7.003-29-30.996-25-47.004 10-37.003 36-60.996 73-65.996 20-2.003 38 3.992 53 17.998 3 2.003 5 5 9 10 4-10 7-17.998 8-25 2-10-5-19.005-16-22.998-6-2.003-13-4.005-19-6.008-20-7.003-42 0-54 17.003-2 2.002-4 4.005-6 7.003-11-2.998-21-7.003-32-10 2-12.998 10-22.003 18-27.998 24-19.005 51-27.003 81-17.003 9 4.005 20 5.995 29 10 29 10.995 42 37.998 32 68-12 39.006-26 79.007-39 118-1 2.998-2 5-4 10zM9914 3949v65.996c-1 0-2 0-3 1.008-1-2.003-3-2.998-4-5-1-2.998-1-5-2-7.998-7-27.998-25-42.998-54-43.993h-32c-8 0-10 2.003-12 10-1 2.997-1 5.995-1 10-1 22.003-1 45-1 68 0 .995 1 2.998 1 4.005 23 5.995 41-2.998 49-24.006 2-5 3-10 5-15 1-2.002 3-4.005 4-5.995 2 0 2 0 2 .995h1c1 32.998 1 65.996 1 98.994 0 2.003-1 4.005-1 7.003-3-2.002-5-2.998-6-3.992-2-6.008-4-12.998-7-20-4-14.005-14-22.003-29-22.998-6-1.008-12-1.008-19-2.003 0 3.992-1 7.003-1 10v67c1 17.003 4 21.008 21 22.003 11 0 22 0 33-.995 20-2.997 36-15 48-32.998 5-6.008 9-12.998 13-19.005 2-3.992 4-5.995 10-2.998-5 20-9 42.003-14 65-63-1.008-126 .995-189-2.003l-3-2.997c3-1.008 5-2.003 6-2.003 13-2.998 21-10.995 22-24.005 1-8.993 1-15.995 1-23.993V3985c0-3.992-1-7.998-2-12.998-2-7.998-7-12.998-15-15.995l-12-4.005c4-2.003 5-2.998 7-2.998h183zm1396-765.996c1-7.003-6-14.005-12-14.005-7 0-13 5.995-13 12.003 0 7.998 5 13.993 13 13.993 6 0 12-5.995 12-12.003zm-21-113l-15-15c-9-7.003-22-6.008-30 2.998-5 3.992-9 10-14 15-16 17.998-18 38.993-5 60.996 1 .995 1 2.998 2 5l-21 24.006c-8-2.998-10-7.998-13-12.998-15-28.993-12-70.996 11-95.002 7-7.003 13-14.005 20-21.008 18-20 53-27.003 78-2.998l90 83c7 7.003 7 7.998 1 15-6 7.998-13 14.005-20 22.003l-37-35c-7-5.995-13-10.995-22-12.003-31-5.995-52 19.006-41 50.996 3-.995 6-2.998 9-3.992 23-11.008 46 0 51 25 3 17.998-12 37.998-31 40.996-12 2.003-23 0-33-8.992-28-22.998-39-50.996-31-87.004 6-24.006 22-40 45-47.998l6-2.998zM9761 3746c6 0 12-5 12-12.003s-6-12.998-13-12.998c-7 .995-12 5.995-12 12.998 0 7.998 5 12.998 13 12.003zm-4 25.995V3796c11 .995 22 .995 33 2.003h13c12 0 19-6.008 19-17.998l3-61c0-7.998 0-15.995 1-23.993 0-16.008-7-24.006-21-24.006-5 0-9 0-13-.995-19-2.998-35 2.997-48 17.003-3 4.005-7 5-12 5-9-.995-18-.995-30-2.003 4-7.003 5-12.003 8-15 18-22.998 41-35 70-36.008 12 0 23 1.008 35 2.002 28 1.008 55 26.008 50 60-2 15.995-1 32.998-2 49.006 0 12-1 22.998-2 35-2 22-23 42.998-48 42.998-22 .995-44 0-67-1.008-18-.995-29-15-27-32.003 1-20 1-41.008 2-62.004 0-17.003 15-30 30-32.998 18-2.997 36 5.995 43 20.995 7 12.998 4 29.006-9 37.998-8 5-17 7.998-28 12.998zM11441 3347c-17 0-28 17.003-20 34.006 14 29.988 39 50.996 68 64.988 10 5 19 2.002 26-5.995 9-10.995 8-29.006-4-38.993-17-16.008-34-31.008-50-47.003-6-5-13-7.003-20-7.003zm140 34.006l-35 50.996c-4-4.005-9-7.998-15-12.998-1 3.992-1 7.003-1 10 0 30.995-22 52.003-54 50-12 0-25-4.005-35-10-27-17.003-46-39.006-53-70-3-17.003 1-34.006 14-47.003 7-7.003 16-10.995 26-10.995 4-1.008 8-1.008 15-2.003-6-6.008-10-9.005-14-12.998l-31-27.998c-6-5.995-13-10-22-3.992-1 0-4-1.008-7-2.002l40-42.998 50 45 90 80 4 3.992c6 6.008 11 7.003 19 2.998 2-2.998 5-5 9 0zM9060 3904c0-12.998-3-20-10-22.998-8-5-16-2.003-23 2.997-5 5-10 10.995-12 17.003-5 12.003-9 25-12 37.998-2 10.995 2 19.005 10 22.998 10 4.005 20 2.997 26-5 12-15.995 18-35.995 21-52.998zm-49 175.998c3 0 5 0 7-.995 9-2.002 18-10 18-17.003 0-9.005-8-12.998-14-15-19-9.005-39-15.995-58-24.006-8-2.997-18 0-23 6.008-5 5-4 12.998 1 20.995 2 2.998 4 6.008 7 7.998 19 12.998 40 20 62 22.003zm-64-68c-3-5.995-6-10-8-14.006-5-10.995-3-20 6-27.003 7-6.008 16-9.005 25-10 5-1.008 10-2.003 17-2.998-3-5-6-9.005-9-12.998-12-15-15-30.995-8-47.998 8-17.998 21-27.998 40-30 23-2.998 44 2.997 63 17.003 9 5.995 18 10.995 29 15 6 2.002 12 5 20 7.998l-6 15c-8-2.998-15-5-24-7.998 1 4.005 1 7.003 2 10 6 34.006-22 58-51 53-13-.995-26-5.995-38-10-7-2.003-13-2.998-19 0-9 4.005-11 12.998-4 19.006 3 2.997 6 3.992 9 5.995 14 5.995 28 10.995 41 17.003 8 5 16 10 24 17.003 9 7.998 11 20 6 32.003-9 24.006-25 33-49 32.003-28-2.003-54-12.003-78-27.003-6-2.997-11-7.998-15-12.998-13-15.995-6-33.993 16-37.998h11zm2036-619.004c7 0 13-7.003 12-13.992 0-6.008-6-12.003-13-11.008-7 0-13 6.008-12 12.003 0 7.003 6 12.998 13 12.998zm52 61c-11-16.008-22-30-33-45-6 2.003-11 2.998-16 3.992-27 5-46-17.003-37-42.998 6-13.992 16-22.998 31-25s27 2.003 36 15c7 11.008 15 21.008 23 32.003 1 2.003 4 4.005 6 7.003 4-7.003 3-12.998-1-17.003-16-22.998-32-47.004-49-69.007-8-10.995-18-10.995-29-3.992-5 3.992-10 7.998-16 12.003-18 10.995-25 27.998-24 47.998v12.003l-28 8.992c-7-10.995-6-20.995-4-32.003 2-25 13-45 34-60l22-15.995c26-17.003 62-10 77 12.998 14 22.003 31 42.998 46 66 17 23.993 12 55.996-11 73.994-8 5.995-17 12.003-27 19.006zm-3019-1229c-5 5.995-8 12.003-13 15.995-5 5-11 9.005-17 11.008-29 7.998-58 15-87 22-3 1.008-5 1.008-9 1.008l-9-36.008c4-.995 7-2 10-2.998 25-7.003 51-12.998 76-20 17-3.992 20-7.003 22-25 9-3.992 19-2.998 28 0 30 7.003 51 25 60 54.006 3 10.995 5 22.003 9 32.998 9 27.003-11 58-40 65-18 3.992-36 10-55 13.992l-66 17.003c-3 1.008-5 1.008-10 1.008-3-11.008-6-22.003-9-36.008 4-.995 6-2.003 9-2.998l115-29.006c3-.995 7-2 10-2.998 11-3.992 16-12.998 14-23.993-2-9.005-4-17.998-8-27.003-4-15-17-22.998-30-27.998zM8856 3450c-1-7.003-6-12.998-13-12.998-6 0-13 7.003-12 13.992 0 7.003 6 12.003 13 12.003 7-.995 12-5.995 12-12.998zm-61 78l29-47.998c-2-2.997-4-5-6-7.998-3-6.008-7-12.003-9-17.998-2-11.008 0-22.003 10-30 11-10 24-10 38-6.008 17 7.003 32 32.998 18 55-9 12.998-17 27.003-25 40.996 4 3.992 8 .995 10-1.008 4-2.997 7-7.003 10-10.995l37-60.996c2-3.992 4-8.992 5-13.992 1-7.998-2-15-9-19.006-6-2.997-12-7.003-18-10.995-18-12.003-37-10.995-56-2.003l-8 4.005c-6-7.003-13-15-21-25 3-2.002 5-2.997 8-4.005 28-17.003 58-20 87-2.998l24 15c29 15.995 35 55 19 77.004-15 22.003-29 43.993-41 67.004-14 25-46 31.008-67 22.003-12-5-22-12.998-35-20zm1967-60c4 2.003 8 2.998 12 4.005 8 3.992 15 8.992 20 17.003 15 27.003 30 53 46 78.994 1 2.003 1 4.005 2 7.998l-32 17.998c-3-2.997-5-5.995-7-8.992-13-22.998-26-45-38-68-6-12.003-15-17.998-29-15-1 0-2-1.008-3-1.008-10-18.993-9-38.993-2-58 7-17.998 18-32.003 35-40.996 9-5 17-10 26-15 27-15 57-7.003 73 18.993l57 98.012c3 5.995 7 12.003 11 18.993l-33 19.006c-3-4.005-5-7.998-7-11.008-21-33.993-40-68-60-102.004-10-16.008-19-19.006-35-10-7 3.992-13 7.003-19 10.995-13 9.005-19 22.003-17 37.998zm820-454.996c19 12.003 38 25 59 38.993-4 5-8 2.998-11 2.998-13-2.003-24-4.005-36-4.005-20 0-35 9.005-47 25-17 24.006 3 52.004 25 53.993 10 0 19-2.003 27-7.003 9-5 17-11.008 27-16.008 16-10.995 34-20 53-22.003 41-4.005 70 25 75 62.004 1 7.003-1 14.005-3 21.008-6 18.993-16 35.996-31 48.993-8 6.008-15 12.998-23 20-5 3.992-7 7.998-2 14.005 1 .995 1 2.997 1 3.992 0 1.008-1 2.003-2 2.998-19-10-59-37.998-65-45 4-5 8-2.003 12 0 15 5 29 7.003 45 5 25-2.998 41-16.008 51-40 8-19.006-13-50-38-44.006-9 2.003-18 5-26 9.005-13 5.995-24 12.998-36 20-16 7.998-32 12.003-49 10.995-26-2.002-45-15-56-37.003-11-23.993-8-47.003 8-67.004 5-7.003 12-12.998 19-19.005 5-5 11-9.005 16-12.998 8-7.003 8-7.003 4-17.003-2-2.997-2-5.995 3-7.998zM7724 2798c-2 0-4-.995-4-2.003-9-20-18-40.996-29-60.996 1-.995 2-.995 3-2.003 1 1.008 5 1.008 6 2.997 5 5 11 5 18 2.998l99-42.003c7-2.997 11-7.998 10-15 0-2.003 1-2.997 2-7.003 2 2.998 5 4.005 6 7.003 6 15 13 30 20 45.996-6 2.997-11 6.008-19 9.005 4 2.003 6 2.003 8 2.998 26 5.995 43 32.003 36 58-3 15-13 22.998-25 27.998-20 9.005-41 17.998-62 26.008-6 2.998-13 5.995-19 7.998-8 3.992-15 7.998-12 18.993 0 0-2 1.008-2 2.003-1 0-1 0-3 1.008-10-21.008-19-42.003-29-67.004 4 2.002 7 2.002 8 2.997 6 7.003 12 6.008 20 2.998 27-10.995 55-23.993 82-35.996 18-7.998 20-25 4-37.003-8-5.995-17-7.003-27-2.998l-69 29.006c-18 7.998-18 7.998-22 23.993zm2648 1311.006c-23 8.993-63 17.003-71 15 0-1.008 1-2.003 1-2.998 10-5 10-12.998 7-22.003-6-27.003-13-55-20-83-1-4.005-2-7.003-3-11.008-1-10-6-17.998-19-18.992 0 0-1-1.008-2-2.998 8-5.995 20-5.995 29-7.998 9-2.998 18-5 28-7.003 2 7.003 4 12.003 7 19.006l4-7.998c10-27.003 50-32.998 69-20.995 11 5.995 16 15.995 19 27.003l15 60.996c1 7.998 3 15 5 22.998s6 15 16 15c1 0 1 .995 2 .995 0 0 0 1.008 1 2.998-11 6.008-23 6.008-35 10-11 2.998-23 5-34 7.998-1-.995-1-2.002-1-2.997 1-.995 1-2.998 3-3.993 7-5 8-11.008 6-19.005l-22-85.996c-3-14.006-11-19.006-23-17.003-15 4.005-24 15.995-21 29.006 5 23.993 11 45.996 16 68l3 12.003c2 10 5 18.993 18 19.987 1 0 1 1.008 2 2.998zM11383 3586c-18 17.003-36 32.998-55 50-1-3.992-2-5.995-1-7.003 5-7.998 2-13.992-3-20l-72-75.996c-6-5.995-12-8.992-21-5-1 0-2-.995-4-.995 3-7.003 22-26.008 42-40 4 3.992 9 7.998 14 12.998 0-7.003-1-14.005 0-20 4-19.005 18-32.003 36-37.998 17-7.003 32-2.003 44 10.995l53 58c4 2.997 7 7.003 10 10 5 4.005 10 6.008 17 2.998 1 0 3 0 6 .995-16 17.003-33 32.003-50 47.003-1 .995-3 0-5 .995 0-2.998 0-4.005 1-5.995 4-7.003 2-12.998-3-17.998-7-7.998-14-15.995-21-22.998l-36-38.993c-1-1.008-2-2.002-4-2.997-11-11.008-20-12.003-31-2.998-11 10-12 25-3 35l49 50.996c3 2.997 6 5.995 8 8.992 7 7.998 14 12.998 24 7.998 1-.995 2 1.008 5 2.002zM7993 2509c7 0 13-7.003 13-14.006 0-5.995-6-12.003-12-12.003-7 0-13 5-14 10.995 0 7.003 6 15 13 15zm83-105.002c1 9.005 2 15 3 22.003 1 23.993 1 47.998-2 72.004-1 5.995-3 8.992-8 10.995-21 7.003-41 15-62 22.003-16 5-33-1.008-42-16.008-11-17.998-8-32.998 4-45.996 12-14.005 38-12.003 51 5 2 2.998 4 7.003 6 10 1 0 2 .995 3 0 24-7.003 19-4.005 20-25.995 0-22.998-3-45.996-7-68-1-5-1-10-1-14.005 38-19.006 81 2.998 87 44.006 2 10.995 2 22.998 2 33.993-1 10 3 17.003 11 22.003 9 5 17 10.995 27 17.003-7 7.003-15 12.998-24 17.003-2 1.008-6 0-8-.995-21-10.995-36-25-37-50-1-10-1-20.995-2-30.996-1-12.998-6-19.005-21-24.006zm197 617c8 .995 14-5 14-12.003s-6-13.993-12-13.993c-7 0-14 7.003-14 13.993 0 6.008 6 12.003 12 12.003zm169-65.996c-6 7.998-11 15-17 20.995-2 2.002-6 2.002-8 2.002-22-2.002-40-10-49-30.995-5-11.008-9-22.003-13-34.006-4-10.995-12-15.995-23-17.003-1 0-2 1.008-4 2.002 1 2.998 2 5.995 4 7.998 12 25 19 51 24 78 1 6.008 0 10-6 15L8298 3038c-14 8.992-28 8.992-42 0-12-7.998-19-22.998-16-37.998 5-26.008 33-35 55-19.006 3 2.003 6 4.005 9 7.003 6-4.005 12-7.998 18-12.998-6-34.006-22-64.006-38-95.997 12-10 26-15.995 41-17.003 25-2.003 49 12.998 59 37.998 3 8.992 7 17.003 9 25.995 2 12.003 9 19.006 21 21.008 7 2.003 14 2.998 20 5 2 .995 4 2.002 8 2.997zm3100-354c0 7.003 5 12.003 12 12.003s13-5.995 13-12.998-7-12.998-14-12.003c-7 0-12 6.008-11 12.998zm167 32.998c-5 10-9 20-14 30-9 15.995-23 25-40 27.003-35 5.995-69 10-104 15-6 .995-11 2.003-20 2.998 3-7.003 5-12.998 7-17.998 11-22.003 12-22.003 37-25 27-4.005 52-7.003 78-12.003 1 0 2-1.008 5-2.003l-74-35.996c-2 2.998-5 7.003-8 8.992-9 7.998-19 12.003-31 10-8-.995-14-5-18-10.995-8-12.003-9-26.008-3-40 7-14.005 19-20 33-20.995 5-1.008 10 .995 14 2.997l131 63c2 .995 4 2.997 7 5zm-1379 1107.992c0-7.003-5-12.003-13-12.003-7 0-13 5.995-12 12.998 0 7.003 6 12.998 12 12.998 7 0 13-5.995 13-14.005zm7-175.003c6 10 10 17.003 13 23.993 1 2.002 0 7.003-1 9.005-13 20-28 32.998-53 32.003-12 0-25-1.008-37-2.003-11 0-17 5.995-21 17.998 3 0 6 .995 9 0 27 0 54 4.005 80 10 7 2.003 12 5 13 12.998 4 20.995 10 42.003 14 62.004 7 30-26 50-47 42.003-13-4.005-23-12.003-25-26.008-2-12.998 3-23.993 13-32.003 5-3.992 10-5.995 16-8.992v-2.002c-5-22.998 0-20.995-26-22.998-22-2.002-44-.995-66-2.002h-13c-12-23.993-3-57.004 20-72.004 12-7.998 26-10.995 40-10 9 0 17 1.008 26 2.003 10 2.002 18 0 24-8.992 5-5 9-10 13-16.008 2-2.003 4-3.992 8-8.992zm-1737-366.997c7 0 13-5 13-12.003s-5-12.998-12-12.998c-8 0-13 5-13 12.998 0 7.003 5 12.003 12 12.003zM8575 3213l-7-16.008c-3-12.998-3-25 6-33.993 10-10 22-11.008 34-7.998 30 7.998 36 44.006 18 62.004-32 32.998-64 68-96 103-2 2.003-4 2.998-7 6.008-17-15-36-29.006-39-52.998 0-3.992-1-7.998-1-10.995l20-123s0-.995 2-2.998c2 2.003 5 2.998 7 5 8 7.003 15 15 23 22.003-2 10-3 20-4 30L8520 3259c0 2.997-1 5.995 1 10.995 19-18.992 37-38.993 54-57.004zm2633 415c-12 12.998-18 25.995-15 42.003 1 8.992 6 15.995 14 22.003 7 5 16 5 23-.995 8-7.998 11-22.003 5-28.993-8-11.008-17-22.003-27-34.006zm-7-9.005c-7-8.992-14-17.003-21-25.995-6-7.003-15-10-24-5.995-10 3.992-20 10-22 20.995-1 2.997 1 5.995 3 7.998s7 2.997 10 4.005c9 3.992 14 10.995 13 17.998-1 9.005-10 17.998-20 19.005-13 .995-24-9.005-26-22.003-1-11.008 2-21.008 8-30 15-22.003 37-36 62-42.003 17-4.005 31 .995 42 15 16 22.003 33 42.998 50 64.006 2 2.998 5 5.995 8 5.995 2 .995 5-2.003 8-2.998 1-1.008 2-2.998 4-5 5 7.003 4 12.998-4 25-10 17.998-17 20-44 13.993l-6 15c-5 16.008-14 27.003-26 35-13 7.998-26 9.005-38 1.008-13-9.005-17-22.003-16-37.003 2-12.003 6-24.006 13-34.006 9-12.998 17-25.995 26-40zm-1781 436.003c-26-2.997-46 11.008-51 32.003-2 12.998 3 22.998 13 25 13 2.002 27-5 30-15 3-14.006 5-27.998 8-42.004zm3-10.995l6-37.003c1-9.005-4-15.995-13-19.005-8-2.998-16-5.995-26-2.998-7 2.003-9 5-7 12.003 1 2.998 2 7.003 3 10 3 7.003 1 12.003-4 15.995-7 7.003-16 7.003-24 2.998-7-2.003-11-7.998-12-16.008 0-12.003 5-20 14-25.995 11-7.003 23-9.005 35-9.005 20 1.008 39 5 55 15 17 11.008 24 25 20 45l-16 78c-2 14.005-2 14.005 12 15 1 0 2 0 2 1.008-2 7.002-7 10.995-21 12.998-9 .995-19 2.998-26-2.998-6-6.008-10-14.005-15-21.008-5 2.003-12 4.005-18 6.008-14 5.995-29 5.995-44 .995-21-7.003-29-28.993-16-50 5-8.992 13-15 23-17.998 14-4.005 27-7.003 41-10l31-2.997zm-1102-450c0 18 15 30 29 25 6-2.997 12-5.995 18-10 22-20 40-40.996 57-63.993l6-12.003c4-10 2-17.998-5-25-9-8.992-19-10.995-29-2.998-30 20.995-55 47.998-73 80.996-2 2.998-2 6.008-3 7.998zm61-110.997c40 0 75 34.006 74 73 0 7.998-2 15-5 22.003-12 32.003-34 52.004-67 59.006-47 10-97-31.008-84-85.002 9-35 31-59.006 67-68 2-1.008 4-1.008 6-1.008 3-.995 6 0 9 0zM10577 4027c0-2.998 0-5.995-1-9.005-6-30-15-58.993-29-85-2-4.005-4-7.003-7-10-7-7.998-16-9.005-26-5-9 2.998-15 10-14 20 0 5.995 0 12.998 2 18.992 7 22.998 14 47.004 23 70 2 7.003 7 12.998 12 19.005 7 8.992 17 10 28 5 10-5 13-14.006 12-24.006zm-36 37.998c-18 0-33-5-46-17.003-26-22.998-37-52.003-30-87 1-7.998 5-15 9-22.003 29-44.006 94-44.006 124 0 13 19.005 19 40.996 16 65-6 40-44 63-73 60.996zm1268-1019.993c10 .995 17-4.005 21-13 5-7.998 3-15.995-2-23.993-3-2.998-6-6.008-10-9.005-24-17.998-51-32.998-79-43.993-3-1.008-7-2.002-10-2.997-11-3-20 2-26 12-5 9.005-4 18 3 26.008 4 3.992 7 7 11 10 22 15.995 46 30 73 40 6 2 12 3.992 19 5zm-37 30c-27-2.002-50-12.003-68-33-21-22.998-23-53-8-80 16-29.006 43-43 74-38 23 3 41 13 57 29.006 21 20.995 26 52.003 15 78.994-12 27.003-39 44.006-70 43zm-3366 607l7-2.002c10 5.995 16-1.008 21-7.998l42-53c9-10.995 17-22.003 26-32.998-4-3.992-8-7.998-13-12.003 2-2.998 5-5.995 8-10 5 2.998 9 6.008 14 9.005 4-4.005 8-7.998 11-12.998 16-25 45-30 71-17.998 11 5.995 23 12.998 29 23.993 8 12.998 6 29.006-4 39.006-9 7.998-19 7.003-27-1.008-7-8.992-7-17.998 1-25.995 3-2.003 7-4.005 11-5.995 5-2.998 5-6.008 1-11.008-8-7.998-18-8.992-27 0-10 12.003-20 25-31 39.006 8 5.995 15 10.995 22 17.003l-8 10.995c-7-5-15-10-22-15.995-3 3.992-6 7.003-8 10l-59 75c-9 12.998-9 14.006-3 27.998-2 0-4 .995-5 0-19-12.998-37-26.008-57-42.998zM10151 4034h-1l6 43.993c2 11.008 4 22.003 8 32.003 2 7.002 5 15 9 20.995 11 14.005 33 10 40-5.995 2-5 3-10.995 3-17.003-2-18.992-4-37.003-8-55.996-2-14.006-6-27.003-11-40-4-10-14-15-24-14.006-12 2.003-20 9.005-21 21.008-1 5-1 10-1 15zm32-42.998c34-2.998 66 20 74 62.004 2 15 3 30-2 45-9 27.998-29 45-58 50.996-27 5-51-5-68-27.003-18-21.008-23-45.995-19-73 4-31.008 30-55.996 69-58h4zm-1789-825.997c7 0 13-5.995 13-12.998s-6-12.003-13-12.003c-7-.995-13 5-13 12.003s6 12.998 13 12.998zm26-37.998c18-15.995 36-30.995 53-47.998 9-7.998 8-15 1-23.993-14-21.008-34-26.008-58-20-1 0-3 0-5 .995-7-7.998-9-17.998-13-27.003 7-7.998 16-7.998 25-7.998 28-2.998 51 5.995 68 27.998 8 9.005 17 17.998 20 31.008 4 20 1 38.993-15 53L8421 3179c-13 12.003-30 12.003-46 2.002-14-10-20-27.998-15-44.006 7-18.993 29-27.003 49-17.003 3 2.003 7 3.992 11 7.003zM11932 2594l-35-9.005c-10-2.003-17 1.008-22 9.005-4 7.998-3 15 5 22.998 10 10 23 15.995 37 20 5-14.006 10-27.003 15-42.998zm24-29.006c-8 25-18 50-27 77.004 7 .995 12 2.998 19 4.005 9 .995 17 .995 26 0 22-2.003 32-17.998 30-34.006-1-7.998-3-17.003-5-25.995-1-2.998-2-6.008 4-7.003 16 15.995 24 35.995 19 60-6 25-22 43.993-48 48.993-37 7.003-69-2.997-94-28.993-15-15-21-34.006-17-55 5-29.006 31-50 63-47.998 10 0 21 2.997 30 8.992zm-1019 1159l44-23.993c-1 5-1 7.003-2 7.998-5 5.995-5 12.003-4 18.993l29 160.998c2 10.995 3 22.998 1 33.993-3 17.998-16 31.008-32 34.006-17 2.002-31-10-29-27.003 1-7.998 8-14.005 16-15.995 9-1.008 14 .995 19 7.998 2 2.003 3 5 4 7.003 11-2.003 14-5 15-14.005 1-10.995 0-22.003-4-32.003-2-3.992-5-7.998-8-10l-110-88c-6-5-12-7.998-20-5-1 0-3-2.002-4-2.997 4-5 59-37.998 66-40 1-.995 3 0 6 .995-4 4.005-6 6.008-9 7.998-4 3.992-5 8.992-1 12.998 2 2.998 4 5 6 7.998 17 15 35 29.006 53 42.998 1 1.008 3 2.003 6 2.997l-8-45.996c-2-9.005-3-17.998-6-27.003-3-13.993-7-15-21-12.003-2 1.008-4 1.008-6 1.008-1-2.003-1-2.998-1-4.005zM8164 3380.99c13-5 27-10 40-16.008 9-2.998 18-5.995 26-10 15-5.995 16-10 9-22.998-1-.995-1-2.998-1-4.005 1-.995 4-.995 4-.995l32 35c-5 0-7 .995-8 0-8-5-15-2.003-23 .995l-154 58c-8 2.997-16 6.008-25 7.003-13 2.003-26 0-37-8.992-3-2.998-7-7.003-9-11.008-9-17.998 3-37.003 22-35.995 8 0 14 5 17 12.003s1 12.003-5 18.993c-2 2.003-4 4.005-7 6.008 3 8 8 12.003 16 10.995 13 0 24-4.005 36-10.995 3-2.003 5-6.008 7-9.005L8170 3279c5-7.998 5-15.995 1-25 10 2.998 47 42.003 56 58-3 4.005-5 .995-8-.995-9-7.003-14-7.003-20 2.998-13 20.995-25 42.998-38 65 1 .995 2 .995 3 2.003zm3967-966c6-7.003 4-12.998-1-19.005-8-9.005-18-15.995-30-20-3-.995-7-.995-11 0l-138 20.995c-7 1.008-15 2.998-19 11.008-1 .995-3 .995-5 2.998-2-10 2-17.998 3-27.003 1-7.998 3-17.003 6-25.995 2-7.998 1-17.003 6-24.006h3c0 2.003 1 4.005 1 6.008 0 10.995 3 13.993 14 13.993 8 0 15-.995 23-2.003 18-2.998 36-5.995 57-7.998-4-2.998-5-5-8-7.003l-55-32.003c-2-1.008-4-2.998-6-2.998-10-5-14-2.997-19 7.003-1 2.003-2 2.998-4 6.008-1-2.003-3-2.998-3-2.998l9-43.993c1-.995 3-.995 4-2.002 1 2.002 2 4.005 2 6.008 0 8.992 7 12.998 14 17.998 40 22.998 80 47.998 119 72.004 10 6.008 21 11.008 30 17.998 7 5.995 14 12.003 20 18.993 8 12.003 9 25 4 39.006-8 17.003-28 20-40 5.995-6-5-7-12.998-4-20s9-10.995 16-10c4 0 8 1.008 12 1.008zm-2608 1518c8-2.002 40 .995 58 5.995-1 9.005-1 17.998-3 27.003l-21 153v6.01c-1 10-4 22.003 11 27.998-13 4.005-25 0-37-.995-12-1.008-25-4.005-39-6.008 3-2.003 4-5 5-5 10-2.002 12-7.998 13-15.995l13-85.996 11-80c2-10 1-17.998-9-22.998-1 0-1-2.003-2-2.998zM9246 3957c-5-2.002-9-2.997-13-5-1-5 2-7.998 6-10.995l58-37.003c3-2.003 6-5 11-2.003-5 17.003-9 34.006-14 52.004 10 2.002 18 5 29 7.998-1 4.005-1 7.998-3 14.005-11-2.998-20-4.005-29-7.998-1 4.005-2 7.003-3 10l-25 90.996c-1 2.998-2 5-2 7.998-1 10.995 5 15 15 10.995 6-2.003 12-5.995 19-10 1 2.003 2 5 1 6.008-17 17.998-33 25.995-60 15-17-7.003-22-19.006-18-37.003l26-93c1-4.005 1-7.003 2-12.003zm2679-1492.004l69 20 35 9.005c6 .995 13 4.005 18-2.002 5-7.003 0-13.993-3-18.993-2-2.998-4-5-5-7.998-1-2.003-1-3.992-1-5.995 15 5.995 27 27.003 25 40.996 0 6.008-2 11.008-4 17.003-6 17.998-19 25-40 20l-99-25.995c-2-1.008-4-1.008-7-2.003-2 5-3 9.005-5 15-4-2.003-8-4.005-10-7.003-14-20-28-40.995-41-60.996-1-1.008-2-2.998-2-4.005 0-.995 1-2.003 1-3.992 18 2.003 35 10 53 12.998l9-27.998c5 .995 9 2.003 14 3.992-2 9.005-5 17.998-7 27.998zM9631 3583c-9-17.003-20-27.998-38-29.006-17-2.002-32 4.005-37 12.998l75 15.995zm36 37.003c-4-1.008-8-1.008-12-2.003-43-15-87-25-132-27.998-4-1.008-7-2.003-10-2.003 2-37.003 42-62.004 93-60 2-7.998 8-8.992 15-7.003h6c11 1.008 12 2.003 10 12.998 0 5-2 10.995 5 13.992 1-8.992 2-15.995 3-22.998 10-2.003 20-.995 31 2.003-3 32.003-5 62.004-9 93zm-1613-529.997c5 7.998 10 15.995 16 23.993-4 2.997-8 5-12 7.998-6-7.998-11-15-17-23.993-4 2.002-7 3.992-10 5.995l-76 50c-4 2.002-8 4.005-11 7.998-6 6.008-5 12.003 3 15 7 2.998 15 4.005 23 6.008-1 .995-1 3.992-2 3.992-26 9.005-58-12.998-60-40-1-10.995 4-18.993 13-25 29-17.003 56-35 84-53 3-2.002 6-5 10-7.998-2-4.005-4-7.998-7-15 4-.995 8-2.998 12-2.003l73 10c1 1.008 3 1.008 4 2.003 1 0 1 .995 2 4.005-15 8.992-30 18.993-45 30zm3860-273.003c35 50.996-6 103-47 105.997-33 2.003-60-7.003-81-32.003-24-27.998-23-70.996 1-98 11-12.998 25-17.003 41-12.998 10 2.998 15 10.995 13 20-2 10.995-9 17.998-20 15.995-6-.995-12-2.998-17-5.995-7-2.002-13-2.997-18 2.998-6 6.008-8 12.998-4 20 2 5 5 10 9 12.998 24 22.003 52 34.006 86 32.003 17-.995 29-10.995 35-27.003 3-8.992 2-17.998-1-25.995-2-4.005-1-4.005 3-7.998zm-1825 1310.993c0 2.002 1 5 0 6.008-29 48-85 42.003-110 15.995-32-34.006-32-88.994 1-120.002 20-18.992 45-22.998 71-18.992 18 3.992 29 17.998 30 33.993 0 7.998-5 14.006-13 17.003-11 2.003-19 0-23-9.005-2-5-4-12.003-4-17.998-1-7.998-3-12.998-11-15-9-2.998-17 0-21 7.998-4 7.003-8 17.003-9 25-3 22.003-1 42.998 9 62.004 2 5 4 10 7 14.005 17 23.993 52 20 65 3.992 1-2.002 3-3.992 5-5.995 1 0 2 0 3 .995zm-1969-948.002c-7 6.008-13 10-21 17.003h10c8 1.008 15 1.008 23 2.998 10 2.003 17 10 21 21.008 6 15-5 32.003-21 32.998-11 0-21-12.003-20-24.006 1-.995 1-2.997 2-5 3-12.998-4-22.003-16-20-7 1.008-15 2.998-20 7.003l-62 45.996c-8 5.995-8 7.998-6 22.998-2-1.008-5-1.008-6-2.003l-40-50.996V3224c2 0 4-.995 4 0 9 5.995 16 4.005 22-.995l84-62.004c8-6.008 11-12.998 6-25 5 2.003 7 2.003 8 3.992 11 12.998 21 26.008 32 40zM7817 3006c16-7.998 30-17.003 45-25 5 2.998 3 6.008 1 7.998-5 7.998-11 15-15 22.998-6 13-5 27.003 6 39.006 3 4.005 8 7.003 12 9.005 11 5 22 .995 27-11.008 2-5.995 2-12.998 2-20 1-15-5-30 0-45 1-3.992 2-8.992 4-13.993 8-19.005 26-29.006 47-25 16 2.997 29 10.995 36 25.995 5 7.998 8 16.008 10 24.006 2 8.992 5 15 17 15.995-15 10.995-29 17.998-44 25.995 1-5 0-7.003 2-10 1-2.997 4-5.995 6-7.998 10-12.003 9-23.993 4-37.003-4-12.003-14-18-23-16.008-10 2.003-18 12.003-18 24.006s2 23.993 3 35.996c2 11.008 0 20.995-6 30-13 22.998-42 32.998-63 22.998-18-8.98-28-24.988-34-44.988v-3.992c-2-11.008-5-19.006-19-20V3006zm1567 717.998c-7 0-13 5-13 12.003-1 7.003 5 14.005 12 14.005s14-6.008 14-12.998c0-7.003-6-12.998-13-12.998zm-1-145.003c14 2.998 25 6.008 38 9.005-8 37.998-19 75-28 113.994 5 2.003 9 4.005 13 7.003 15 10 20 27.998 14 42.003-8 17.998-30 25.995-49 19.005-19-7.003-29-24.006-25-42.003 10-42.998 21-85.002 32-128 1-6.008 3-12.998 5-21.008zm1841-313.003c0-7.003-4-12.003-11-12.998-7 0-14 5.995-14 12.998s7 12.998 13 12.998c7 0 12-6.008 12-12.998zm-142-90.997l28-25c27 30 53 58 78 88.012 8-2.997 16-7.003 23-7.998 25-3.992 44 15 37 44.006-4 15-17 23.993-32 27.998-14 2.998-26-2.002-35-12.998L11088 3184c-2-2.998-3-5.995-6-9.005zM9962 3794c0-7.998-6-13.993-13-13.993-6 .995-12 5.995-12 12.998-1 7.003 5 12.998 13 12.998 7 0 12-5 12-12.003zm-13-37.003c5 2.003 10 2.003 14 4.005 13 5 23 14.005 25 27.998 1 14.005-6 25-17 32.998-13 7.998-27 7.998-41 1.008-13-6.008-20-17.998-20-32.003l-6-132.005V3641c14-.995 26-2.002 39-2.002l6 118zM11153 3332c7 0 13-7.003 13-14.006-1-5.995-7-10.995-13-10.995-7 0-13 5.995-13 12.003 0 7.003 7 12.998 13 12.998zm-23-40c5-2.998 8-5 12-5.995 13-5 26-4.005 37 5.995 11 9.005 12 22.003 8 35-7 25.995-42 40.996-63 17.003l-100-110.997c0-1.008-1-2.003-2-4.005 9-9.005 18-17.003 28-25.995l80 88.994zm207-333.004c-6 0-12 6.008-12 12.003-1 7.003 6 14.006 13 12.998 6 0 12-5 12-12.003s-6-12.998-13-12.998zm35-3.992c12-30 3-50.996-17-70 7-9.005 14-17.003 21-27.003 5 5 10 9.005 13 12.998 32 37.003 25 98-14 127.005-10 7.003-21 12.003-34 12.998-22 .995-38-12.003-41-32.998-2-19.005 13-37.998 33-42.003 13-2.003 24 1.008 33 11.008 2 2.003 3 3.992 6 7.998zM8074 2602c0-7.003-5-12.998-13-12.998-7 0-12 5-12 12.003-1 7.003 4 12.998 11 12.998 7 .995 14-5 14-12.003zm-13 39.006c17 20 30 23.993 68 17.003 5 9.005 9 20 14 30-4 2.003-8 5-12 6.008-50 15-115-22.003-111-89.007 1-17.003 9-30.996 25-38.993 20-9.005 46 5.995 50 28.993 4 22.003-7 40.996-27 44.006-2 0-4 .995-7 2.003zM9131 3410c-7 0-13 7.003-12 14.005 0 7.998 7 12.998 14 12.003 6 0 13-7.003 13-12.998-1-7.003-8-12.998-15-12.998zm28 42.998c30 2.997 48-10 60-35.996 11 3.992 21 7.998 31 12.998-3 14.005-11 22.998-20 32.003-34 32.003-90 30.995-122-2.003-7-7.998-11-17.003-14-27.003-5-13.992 3-33.993 15-40 15-8.992 36-7.003 49 6.008 12 12.003 15 27.998 7 43.993-1 2.998-3 5-6 10zm-1008-886c1-5.995-4-12.003-11-12.998-8 0-14 5-14 12.998 0 5.995 5 12.003 12 12.998 6 0 13-5.995 13-12.998zm-12 40c8 10.995 18 17.998 31 19.006 12 .995 24 0 37-1.008 4 7.998 9 17.003 13 26.008-4 7.003-11 7.003-16 7.998-52 12.003-110-27.998-106-89.007 1-5.995 3-12.998 5-18.993 8-17.003 23-26.008 39-22.003 17 2.998 32 20 32 37.003 1 20-8 32.998-27 37.998-2 .995-5 2.003-8 2.997zm3264 403.005c-6 0-12 5-12 12.003-1 7.998 5 14.005 12 14.005s13-5.995 13-12.003c0-7.003-6-13.993-13-13.993zm37-5c10-27.003 3-47.998-19-67.004 8-9.005 14-17.003 21-25.995 3 2.002 6 2.997 8 5 41 37.003 32 110.002-16 135.997-7 5-17 7.998-25 8.992-18 2.998-35-7.998-40-22.998-6-17.003 2-37.998 18-47.003 16-9.987 32-7.003 46 6.008 2 2.003 3 3.992 7 7.003zm-2697 196c11 7.998 21 15.995 30 25 10 7.998 19 17.003 29 25.995 5-35-26-60.996-59-50.996zM8816 3302c-19-17.998-37-37.003-56-53.993-21-17.998-43-34.006-64-50 2-2.002 2-5 4-6.008 32-27.998 85-25 113 7.003 9 10 14 20.995 16 35 3 22.003-1 42.998-9 63.993l-4 4.005zm77 5.995l64 44.006c-2-35.995-35-57.004-64-44.006zm83 94.007c-21-17.998-42-35-64-50-21-15-44-27.998-68-42.003 3-3.992 6-7.003 8-8.992 30-29.006 77-30 109-2.003 9 7.003 14 15.995 18 27.003 8 18.993 7 53-3 75.996zm1807-60.996c-14-7.998-27-10-41-4.005-16 7.998-28 25-29 39.006l70-35zm52 7.003c-24 10-49 19.005-72 32.003-24 11.008-47 25-70 39.006-1-2.003-3-2.998-3-4.005-17-50.996 15-95.997 57-105.997 11-2.002 23-1.008 34 2.003 20 5.995 36 17.003 51 30.995 1 .995 1 2.003 2 2.998 0 0 0 1.008 1 2.998zm-3025-372c-9-5.995-25-35-37-63.993 2 0 5 0 6 .995 7 5.995 14 4.005 21 0l75-37.003c5-2.003 9-3.992 13-5.995 10-5 19-11.008 17-25 6 2.998 6 2.998 16 23.993 5 7.998 9 17.003 14 26.008-5 2.002-8 3.992-12 5.995l-96 47.998c-2 1.008-4 2.003-5 2.998-10 3.992-16 10-12 23.993zm-124-271c-3-2.003-5-2.003-5-2.997-8-20.995-16-40.996-23-62.004v-3.992h3c7 7.998 17 7.998 26 3.992 31-10 62-20.995 93-32.003 9-2.997 17-5.995 16-17.998 0-.995 2-2.002 5-3.992l19 53.993c-4 2.003-7 2.998-10 5l-103 35c-12 4.005-22 7.998-21 25zm4148-12.003l115 47.003c9 4.005 17 5 24-2.998 1-1.008 2-1.008 6-1.008-8 22.003-17 42.003-26 62.004 0 2.002-2 2.002-5 5 1-15.995-9-20-20-23.993l-78-31.008c-21-7.998-21-7.998-37-.995-1-7.003 9-37.003 21-54.006zM9139 3914c11-2.003 43 5.995 61 15l-3 9.005L9163 4042c-4 12.003-5 22.003 8 29.006-4 2-5 2.998-7 2.998l-62-20c-1 0-2-1.008-3-2.002 0-2.003 1-2.998 1-2.998 11 0 16-7.998 19-17.998l30-90.002c3-10 7-20-10-27.003zm-242-103c19 7.998 37 17.003 55 25-2 5-4 7.998-5 12.003l-47 95.002c-5 10.995-9 19.988 1 29.988 0 0 0 1.008-1 2.003-8-.995-56-22.003-65-28.993 1-1.008 2-2.998 4-2.998 9 2.003 14-4.005 17-11.008l44-92.004c4-7.998 5-17.003-3-22.998V3811zm764-356c11 .995 21 2.003 32 2.003-1 22.003-3 40.996-5 63-11 2.998-21-.995-33-.995 0-22.003 3-42.003 6-64.007zm-1714-602.996c0-14.005 12-24.006 25-24.006 12 0 24 11.008 24 24.006s-11 25-24 23.993c-14 0-25-10-25-23.993zm3829-134.008c-13-.995-25-10.995-24-25 0-12.998 12-23.993 25-22.998 13 0 24 12.003 24 26.008-1 12.003-12 22.003-25 22.003zm-2798 1061c0 12.998-10 25-24 25-13 0-25-12.003-25-25 0-12.003 11-22.998 24-22.998 14-.995 25 10 25 22.998zM7862 2579c13 0 24 12.003 24 25 1 12.998-10 25-23 25-14 0-25-12.003-25-25s10-22.998 24-25zm1309 1294.003c0-14.006 11-24.006 24-24.006 14 0 24 10 25 24.006 1 12.998-11 23.993-24 23.993-14 0-25-10.995-25-23.993z"/></g></g></svg>