<?xml version="1.0" encoding="UTF-8"?>
<!DOCTYPE svg PUBLIC "-//W3C//DTD SVG 1.1//EN" "http://www.w3.org/Graphics/SVG/1.1/DTD/svg11.dtd">
<svg version="1.2" width="78.2mm" height="19.6mm" viewBox="0 0 7820 1960" preserveAspectRatio="xMidYMid" fill-rule="evenodd" stroke-width="28.222" stroke-linejoin="round" xmlns="http://www.w3.org/2000/svg" xmlns:ooo="http://xml.openoffice.org/svg/export" xmlns:xlink="http://www.w3.org/1999/xlink" xmlns:presentation="http://sun.com/xmlns/staroffice/presentation" xmlns:smil="http://www.w3.org/2001/SMIL20/" xmlns:anim="urn:oasis:names:tc:opendocument:xmlns:animation:1.0" xml:space="preserve">
 <defs class="ClipPathGroup">
  <clipPath id="presentation_clip_path" clipPathUnits="userSpaceOnUse">
   <rect x="0" y="0" width="7820" height="1960"/>
  </clipPath>
  <clipPath id="presentation_clip_path_shrink" clipPathUnits="userSpaceOnUse">
   <rect x="7" y="1" width="7805" height="1957"/>
  </clipPath>
 </defs>
 <defs class="TextShapeIndex">
  <g ooo:slide="id1" ooo:id-list="id3 id4 id5 id6 id7 id8"/>
 </defs>
 <defs class="EmbeddedBulletChars">
  <g id="bullet-char-template-57356" transform="scale(0.00048828125,-0.00048828125)">
   <path d="M 580,1141 L 1163,571 580,0 -4,571 580,1141 Z"/>
  </g>
  <g id="bullet-char-template-57354" transform="scale(0.00048828125,-0.00048828125)">
   <path d="M 8,1128 L 1137,1128 1137,0 8,0 8,1128 Z"/>
  </g>
  <g id="bullet-char-template-10146" transform="scale(0.00048828125,-0.00048828125)">
   <path d="M 174,0 L 602,739 174,1481 1456,739 174,0 Z M 1358,739 L 309,1346 659,739 1358,739 Z"/>
  </g>
  <g id="bullet-char-template-10132" transform="scale(0.00048828125,-0.00048828125)">
   <path d="M 2015,739 L 1276,0 717,0 1260,543 174,543 174,936 1260,936 717,1481 1274,1481 2015,739 Z"/>
  </g>
  <g id="bullet-char-template-10007" transform="scale(0.00048828125,-0.00048828125)">
   <path d="M 0,-2 C -7,14 -16,27 -25,37 L 356,567 C 262,823 215,952 215,954 215,979 228,992 255,992 264,992 276,990 289,987 310,991 331,999 354,1012 L 381,999 492,748 772,1049 836,1024 860,1049 C 881,1039 901,1025 922,1006 886,937 835,863 770,784 769,783 710,716 594,584 L 774,223 C 774,196 753,168 711,139 L 727,119 C 717,90 699,76 672,76 641,76 570,178 457,381 L 164,-76 C 142,-110 111,-127 72,-127 30,-127 9,-110 8,-76 1,-67 -2,-52 -2,-32 -2,-23 -1,-13 0,-2 Z"/>
  </g>
  <g id="bullet-char-template-10004" transform="scale(0.00048828125,-0.00048828125)">
   <path d="M 285,-33 C 182,-33 111,30 74,156 52,228 41,333 41,471 41,549 55,616 82,672 116,743 169,778 240,778 293,778 328,747 346,684 L 369,508 C 377,444 397,411 428,410 L 1163,1116 C 1174,1127 1196,1133 1229,1133 1271,1133 1292,1118 1292,1087 L 1292,965 C 1292,929 1282,901 1262,881 L 442,47 C 390,-6 338,-33 285,-33 Z"/>
  </g>
  <g id="bullet-char-template-9679" transform="scale(0.00048828125,-0.00048828125)">
   <path d="M 813,0 C 632,0 489,54 383,161 276,268 223,411 223,592 223,773 276,916 383,1023 489,1130 632,1184 813,1184 992,1184 1136,1130 1245,1023 1353,916 1407,772 1407,592 1407,412 1353,268 1245,161 1136,54 992,0 813,0 Z"/>
  </g>
  <g id="bullet-char-template-8226" transform="scale(0.00048828125,-0.00048828125)">
   <path d="M 346,457 C 273,457 209,483 155,535 101,586 74,649 74,723 74,796 101,859 155,911 209,963 273,989 346,989 419,989 480,963 531,910 582,859 608,796 608,723 608,648 583,586 532,535 482,483 420,457 346,457 Z"/>
  </g>
  <g id="bullet-char-template-8211" transform="scale(0.00048828125,-0.00048828125)">
   <path d="M -4,459 L 1135,459 1135,606 -4,606 -4,459 Z"/>
  </g>
  <g id="bullet-char-template-61548" transform="scale(0.00048828125,-0.00048828125)">
   <path d="M 173,740 C 173,903 231,1043 346,1159 462,1274 601,1332 765,1332 928,1332 1067,1274 1183,1159 1299,1043 1357,903 1357,740 1357,577 1299,437 1183,322 1067,206 928,148 765,148 601,148 462,206 346,322 231,437 173,577 173,740 Z"/>
  </g>
 </defs>
 <defs class="TextEmbeddedBitmaps"/>
 <g>
  <g id="id2" class="Master_Slide">
   <g id="bg-id2" class="Background"/>
   <g id="bo-id2" class="BackgroundObjects"/>
  </g>
 </g>
 <g class="SlideGroup">
  <g>
   <g id="container-id1">
    <g id="id1" class="Slide" clip-path="url(#presentation_clip_path)">
     <g class="Page">
      <g class="com.sun.star.drawing.ClosedBezierShape">
       <g id="id3">
        <rect class="BoundingBox" stroke="none" fill="none" x="0" y="15" width="1902" height="1934"/>
        <path fill="rgb(88,89,91)" stroke="none" d="M 570,1086 C 570,1169 591,1238 631,1292 672,1346 724,1373 786,1373 879,1373 962,1321 1037,1217 1111,1113 1149,996 1149,866 1149,778 1128,708 1085,655 1043,601 987,575 917,575 827,575 747,627 676,731 606,836 570,954 570,1086 Z M 905,429 C 1033,429 1134,491 1207,614 L 1242,457 1423,457 1262,1204 C 1253,1247 1248,1275 1248,1288 1248,1307 1255,1323 1268,1336 1281,1349 1298,1356 1317,1356 1361,1356 1416,1328 1484,1272 1552,1216 1605,1146 1645,1061 1684,976 1703,889 1703,797 1703,616 1635,465 1499,343 1362,222 1192,161 987,161 746,161 546,243 388,408 229,572 150,780 150,1031 150,1275 226,1465 378,1599 531,1734 745,1802 1019,1802 1181,1802 1322,1774 1443,1719 1488,1698 1535,1670 1584,1637 1633,1604 1678,1558 1720,1501 L 1901,1501 C 1861,1581 1795,1659 1702,1733 1609,1807 1508,1861 1398,1896 1288,1930 1160,1948 1015,1948 701,1948 453,1868 271,1708 90,1548 0,1328 0,1050 0,857 45,678 134,511 223,343 341,219 489,138 635,56 805,15 997,15 1246,15 1451,89 1613,238 1775,387 1856,575 1856,803 1856,922 1827,1037 1769,1149 1712,1261 1636,1351 1542,1419 1448,1487 1350,1521 1250,1521 1183,1521 1135,1509 1106,1484 1078,1460 1061,1416 1055,1354 1010,1406 962,1447 908,1476 855,1504 802,1519 749,1519 645,1519 559,1476 490,1390 420,1304 385,1197 385,1070 385,965 411,862 460,762 509,662 575,582 656,520 736,459 820,429 905,429 Z"/>
       </g>
      </g>
      <g class="com.sun.star.drawing.ClosedBezierShape">
       <g id="id4">
        <rect class="BoundingBox" stroke="none" fill="none" x="1928" y="400" width="1043" height="1310"/>
        <path fill="rgb(17,15,13)" stroke="none" d="M 2279,787 L 1947,728 C 1975,622 2028,541 2107,484 2185,428 2296,400 2439,400 2604,400 2722,431 2796,492 2869,554 2906,631 2906,724 2906,779 2891,828 2861,873 2831,917 2786,956 2726,989 2775,1001 2812,1015 2838,1031 2880,1057 2912,1091 2935,1134 2959,1176 2970,1226 2970,1285 2970,1360 2951,1430 2913,1498 2874,1565 2819,1617 2747,1654 2675,1690 2580,1709 2462,1709 2348,1709 2257,1695 2191,1668 2125,1641 2071,1602 2027,1550 1984,1498 1951,1432 1929,1353 L 2279,1306 C 2293,1377 2314,1427 2343,1454 2372,1481 2409,1495 2454,1495 2501,1495 2540,1478 2571,1443 2602,1409 2618,1363 2618,1304 2618,1245 2603,1200 2573,1168 2543,1136 2502,1119 2450,1119 2423,1119 2385,1126 2337,1140 L 2355,889 C 2374,892 2390,893 2400,893 2446,893 2484,879 2515,849 2546,820 2561,785 2561,745 2561,706 2550,676 2527,653 2504,630 2472,618 2432,618 2391,618 2357,631 2332,656 2306,681 2288,725 2279,787 Z"/>
       </g>
      </g>
      <g class="com.sun.star.drawing.ClosedBezierShape">
       <g id="id5">
        <rect class="BoundingBox" stroke="none" fill="none" x="3112" y="400" width="1032" height="1310"/>
        <path fill="rgb(17,15,13)" stroke="none" d="M 3460,1050 C 3460,1211 3474,1321 3502,1381 3531,1439 3572,1469 3626,1469 3661,1469 3692,1456 3718,1431 3744,1406 3763,1367 3776,1312 3788,1258 3794,1173 3794,1059 3794,891 3780,778 3752,720 3723,663 3681,634 3624,634 3566,634 3524,663 3498,722 3473,781 3460,890 3460,1050 Z M 3113,1049 C 3113,808 3156,640 3242,544 3328,448 3460,400 3636,400 3721,400 3790,410 3845,431 3899,452 3944,480 3978,513 4012,547 4039,582 4059,619 4080,657 4096,700 4108,749 4131,844 4143,942 4143,1044 4143,1274 4104,1443 4026,1549 3949,1656 3816,1709 3627,1709 3521,1709 3435,1692 3370,1658 3304,1624 3251,1574 3209,1509 3178,1462 3155,1398 3138,1316 3121,1236 3113,1146 3113,1049 Z"/>
       </g>
      </g>
      <g class="com.sun.star.drawing.PolyPolygonShape">
       <g id="id6">
        <rect class="BoundingBox" stroke="none" fill="none" x="4697" y="0" width="1580" height="1688"/>
        <path fill="rgb(17,15,13)" stroke="none" d="M 4697,0 L 6276,0 6276,417 5746,417 5746,1687 5227,1687 5227,417 4697,417 4697,0 Z"/>
       </g>
      </g>
      <g class="com.sun.star.drawing.PolyPolygonShape">
       <g id="id7">
        <rect class="BoundingBox" stroke="none" fill="none" x="6205" y="0" width="1610" height="1688"/>
        <path fill="rgb(17,15,13)" stroke="none" d="M 6205,0 L 6725,0 6725,591 7292,591 7292,0 7814,0 7814,1687 7292,1687 7292,1005 6725,1005 6725,1687 6205,1687 6205,0 Z"/>
       </g>
      </g>
      <g class="com.sun.star.drawing.ClosedBezierShape">
       <g id="id8">
        <rect class="BoundingBox" stroke="none" fill="none" x="4185" y="712" width="1018" height="1001"/>
        <path fill="rgb(238,41,34)" stroke="none" d="M 4689,712 C 4830,712 4951,760 5052,858 5152,957 5202,1076 5202,1219 5202,1358 5153,1475 5054,1570 4954,1664 4833,1712 4689,1712 4547,1712 4427,1664 4330,1570 4233,1475 4185,1358 4185,1219 4185,1076 4233,957 4330,858 4427,760 4547,712 4689,712 Z"/>
       </g>
      </g>
     </g>
    </g>
   </g>
  </g>
 </g>
</svg>