 <svg xmlns="http://www.w3.org/2000/svg" xmlns:xlink="http://www.w3.org/1999/xlink" viewBox="0 0 90.6 90.6"> <defs> <style>@font-face{font-family: "supermarketregular"; src: url("../fonts/Supermarket/supermarket-webfont.eot"); src: url("../fonts/Supermarket/supermarket-webfont.eot?#iefix") format("embedded-opentype"), url("../fonts/Supermarket/supermarket-webfont.woff2") format("woff2"), url("../fonts/Supermarket/supermarket-webfont.woff") format("woff"), url("../fonts/Supermarket/supermarket-webfont.ttf") format("truetype"), url("../fonts/Supermarket/supermarket-webfont.svg#supermarketregular") format("svg"); font-weight: normal; font-style: normal;}@-webkit-keyframes rotate360{0%{-webkit-transform: rotate(0deg);}100%{-webkit-transform: rotate(360deg);}}@-webkit-keyframes rotate360reverse{0%{-webkit-transform: rotate(0deg);}100%{-webkit-transform: rotate(-360deg);}}.cls-1{fill: url(#radial-gradient);}.cls-2{opacity: 0.2; fill: url(#radial-gradient-2);}.cls-3{fill: url(#linear-gradient);}.cls-4{fill: url(#linear-gradient-2);}.cls-5{fill: url(#linear-gradient-3); animation: 3s rotate360 infinite linear; transform-origin: 50% 50%; display: inline-block;}.cls-6{fill: url(#linear-gradient-4); animation: 3s rotate360 infinite linear; transform-origin: 50% 50%; display: inline-block;}.cls-7{fill: url(#linear-gradient-5); animation: 3s rotate360 infinite linear; transform-origin: 50% 50%; display: inline-block;}.cls-8{fill: url(#linear-gradient-6); animation: 3s rotate360 infinite linear; transform-origin: 50% 50%; display: inline-block;}.cls-9{fill: #57559c; animation: 15s rotate360 infinite linear; transform-origin: 50% 50%; display: inline-block;}.cls-10{fill: url(#linear-gradient-7); animation: 2.5s rotate360reverse infinite linear; transform-origin: 50% 50%; display: inline-block;}.cls-11{fill: url(#linear-gradient-8); animation: 2.5s rotate360reverse infinite linear; transform-origin: 50% 50%; display: inline-block;}.cls-12{fill: url(#linear-gradient-9); animation: 2.5s rotate360reverse infinite linear; transform-origin: 50% 50%; display: inline-block;}.cls-13{fill: url(#linear-gradient-10); animation: 2.5s rotate360reverse infinite linear; transform-origin: 50% 50%; display: inline-block;}.cls-14{fill: url(#linear-gradient-11); animation: 2.5s rotate360reverse infinite linear; transform-origin: 50% 50%; display: inline-block;}.cls-15{fill: url(#linear-gradient-12); animation: 2.5s rotate360reverse infinite linear; transform-origin: 50% 50%; display: inline-block;}.cls-16{fill: url(#linear-gradient-13); animation: 2.5s rotate360reverse infinite linear; transform-origin: 50% 50%; display: inline-block;}.cls-17{fill: url(#linear-gradient-14); animation: 2.5s rotate360reverse infinite linear; transform-origin: 50% 50%; display: inline-block;}.cls-18, .cls-19, .cls-20{isolation: isolate;}.cls-19{font-size: 22.25px;}.cls-19, .cls-20{fill: #fff; font-family: "supermarketregular", sans-serif;}.cls-20{font-size: 14.42px;}</style> <radialGradient id="radial-gradient" cx="45.5" cy="45.21" r="39.87" gradientUnits="userSpaceOnUse"> <stop offset="0" stop-color="#57559c"/> <stop offset="0.35" stop-color="#5c5aa2" stop-opacity="0.97"/> <stop offset="0.51" stop-color="#6564ad" stop-opacity="0.93"/> <stop offset="0.58" stop-color="#6564ad" stop-opacity="0.9"/> <stop offset="0.66" stop-color="#6564ad" stop-opacity="0.82"/> <stop offset="0.74" stop-color="#6663ac" stop-opacity="0.67"/> <stop offset="0.83" stop-color="#6663ac" stop-opacity="0.48"/> <stop offset="0.93" stop-color="#6762ab" stop-opacity="0.23"/> <stop offset="1" stop-color="#6861ab" stop-opacity="0"/> </radialGradient> <radialGradient id="radial-gradient-2" cx="45.22" cy="227.16" r="32.69" gradientTransform="matrix(1, 0, 0, -1, 0, 272.37)" gradientUnits="userSpaceOnUse"> <stop offset="0" stop-color="#57559c"/> <stop offset="0.01" stop-color="#58569d"/> <stop offset="0.67" stop-color="#857bb7"/> <stop offset="1" stop-color="#9689c1"/> </radialGradient> <linearGradient id="linear-gradient" x1="12.61" y1="41.47" x2="70.28" y2="41.47" gradientUnits="userSpaceOnUse"> <stop offset="0" stop-color="#57559c"/> <stop offset="1" stop-color="#e9e7f2" stop-opacity="0"/> </linearGradient> <linearGradient id="linear-gradient-2" x1="15.17" y1="53.35" x2="77.99" y2="53.35" gradientUnits="userSpaceOnUse"> <stop offset="0" stop-color="#e9e7f2" stop-opacity="0"/> <stop offset="1" stop-color="#57559c"/> </linearGradient> <linearGradient id="linear-gradient-3" x1="57.32" y1="28.91" x2="93.51" y2="28.91" gradientUnits="userSpaceOnUse"> <stop offset="0" stop-color="#57559c"/> <stop offset="0.17" stop-color="#5b599e" stop-opacity="0.98"/> <stop offset="0.33" stop-color="#6563a5" stop-opacity="0.9"/> <stop offset="0.48" stop-color="#7876af" stop-opacity="0.78"/> <stop offset="0.64" stop-color="#918fbe" stop-opacity="0.6"/> <stop offset="0.8" stop-color="#b2b0d2" stop-opacity="0.38"/> <stop offset="0.95" stop-color="#dad8e9" stop-opacity="0.1"/> <stop offset="1" stop-color="#e9e7f2" stop-opacity="0"/> </linearGradient> <linearGradient id="linear-gradient-4" x1="37.63" y1="76.41" x2="87.05" y2="76.41" gradientUnits="userSpaceOnUse"> <stop offset="0" stop-color="#57559c"/> <stop offset="0.14" stop-color="#5c5a9f" stop-opacity="0.97"/> <stop offset="0.3" stop-color="#6a68a7" stop-opacity="0.87"/> <stop offset="0.48" stop-color="#807eb4" stop-opacity="0.72"/> <stop offset="0.67" stop-color="#a09ec7" stop-opacity="0.5"/> <stop offset="0.86" stop-color="#c9c7df" stop-opacity="0.22"/> <stop offset="1" stop-color="#e9e7f2" stop-opacity="0"/> </linearGradient> <linearGradient id="linear-gradient-5" x1="0" y1="62" x2="28.36" y2="62" xlink:href="#linear-gradient"/> <linearGradient id="linear-gradient-6" x1="3.55" y1="14.18" x2="57.09" y2="14.18" xlink:href="#linear-gradient"/> <linearGradient id="linear-gradient-7" x1="60.01" y1="13.31" x2="74.43" y2="13.31" xlink:href="#linear-gradient"/> <linearGradient id="linear-gradient-8" x1="23.02" y1="8.92" x2="46.12" y2="8.92" xlink:href="#linear-gradient"/> <linearGradient id="linear-gradient-9" x1="8.17" y1="28.05" x2="11.35" y2="28.05" xlink:href="#linear-gradient"/> <linearGradient id="linear-gradient-10" x1="5.01" y1="218.66" x2="15.07" y2="218.66" gradientTransform="matrix(1, 0, 0, -1, 0, 272.37)" xlink:href="#linear-gradient"/> <linearGradient id="linear-gradient-11" x1="22.11" y1="81.36" x2="45.93" y2="81.36" xlink:href="#linear-gradient"/> <linearGradient id="linear-gradient-12" x1="52.14" y1="83.68" x2="57.26" y2="83.68" xlink:href="#linear-gradient"/> <linearGradient id="linear-gradient-13" x1="62.86" y1="75.62" x2="76.23" y2="75.62" xlink:href="#linear-gradient"/> <linearGradient id="linear-gradient-14" x1="81.01" y1="45.61" x2="85.6" y2="45.61" xlink:href="#linear-gradient"/> </defs> <title>Asset 1</title> <g id="Layer_2" data-name="Layer 2"> <g id="Layer_1-2" data-name="Layer 1"> <path class="cls-1" d="M29.93,81.92A39.88,39.88,0,1,1,82.21,60.78,39.91,39.91,0,0,1,29.93,81.92Z"/> <path class="cls-2" d="M32.45,75.31A32.69,32.69,0,1,1,75.32,58,32.72,32.72,0,0,1,32.45,75.31Z"/> <path class="cls-3" d="M19.16,36.49A32.73,32.73,0,0,1,62,19.16a32.23,32.23,0,0,1,8.25,5.06,32.69,32.69,0,1,0-46,46.11A32.72,32.72,0,0,1,19.16,36.49Z"/> <path class="cls-4" d="M73.46,28.71A32.67,32.67,0,0,1,15.17,57.92,32.68,32.68,0,1,0,73.46,28.71Z"/> <path class="cls-5" d="M89.26,54.27h-.1a.53.53,0,0,1-.42-.63h0A44.59,44.59,0,0,0,85.2,26.28,43.84,43.84,0,0,0,66,6.2c-1.1-.58-2.25-1.13-3.4-1.62a.54.54,0,0,1,.42-1h0c1.19.5,2.36,1.06,3.48,1.66A45.38,45.38,0,0,1,89.79,53.83.54.54,0,0,1,89.26,54.27Z"/> <path class="cls-6" d="M45.26,90.6A45.54,45.54,0,0,1,38.08,90a.55.55,0,0,1-.45-.62.54.54,0,0,1,.62-.44A44.34,44.34,0,0,0,86,62.56a.53.53,0,0,1,.7-.29A.55.55,0,0,1,87,63h0c-.63,1.47-1.34,2.92-2.11,4.32A45.43,45.43,0,0,1,45.26,90.6Z"/> <path class="cls-7" d="M27.82,87a.52.52,0,0,1-.21,0A45.34,45.34,0,0,1,.69,37.41a.54.54,0,1,1,1.06.18A44.25,44.25,0,0,0,28,86a.54.54,0,0,1-.21,1Z"/> <path class="cls-8" d="M4.1,28.35a.46.46,0,0,1-.21,0,.52.52,0,0,1-.29-.7h0A45.36,45.36,0,0,1,56.68,1.45a.54.54,0,0,1,.39.65.55.55,0,0,1-.66.39A44.28,44.28,0,0,0,4.59,28,.52.52,0,0,1,4.1,28.35Z"/> <path class="cls-9" d="M45.35,9.49h-.72a.36.36,0,0,0-.33.38.36.36,0,0,0,.33.33h.71a.36.36,0,0,0,.35-.36.36.36,0,0,0-.35-.36Zm-2.48.09h-.21l-.28,0h-.05l-.2,0a.36.36,0,0,0-.32.39.36.36,0,0,0,.36.32h0l.7-.05a.36.36,0,0,0,.32-.4.37.37,0,0,0-.35-.32Zm-2.46.26h-.06l-.46.06h-.1l-.14,0a.35.35,0,0,0-.29.41.36.36,0,0,0,.34.3h.06l.69-.11a.36.36,0,0,0,0-.71ZM38,10.27h-.13l-.51.11h0l-.11,0a.37.37,0,0,0-.27.44.35.35,0,0,0,.35.27h.08L38,11a.36.36,0,0,0-.07-.71Zm-2.41.59-.1,0-.68.19a.37.37,0,0,0-.23.46.35.35,0,0,0,.33.24H35l.67-.2a.36.36,0,0,0-.1-.7Zm-2.36.78a.25.25,0,0,0-.12,0l-.67.25a.36.36,0,0,0,.26.67l.66-.25a.36.36,0,0,0-.13-.69Zm-2.3.93a.32.32,0,0,0-.14,0l-.58.26h0l-.06,0a.35.35,0,0,0-.16.48.34.34,0,0,0,.31.2.41.41,0,0,0,.16,0l.63-.29a.35.35,0,0,0,.18-.48.34.34,0,0,0-.32-.21Zm-2.22,1.08a.47.47,0,0,0-.17,0l-.63.35a.35.35,0,0,0-.14.48.35.35,0,0,0,.49.14l.62-.33a.37.37,0,0,0,.14-.49.36.36,0,0,0-.31-.19Zm-2.15,1.24a.46.46,0,0,0-.2,0l-.32.2h0l-.25.16a.36.36,0,0,0,.39.6l.6-.38a.36.36,0,0,0,.11-.5.35.35,0,0,0-.31-.16Zm-2.06,1.39a.31.31,0,0,0-.21.07h0l-.54.39a.37.37,0,0,0-.07.51.37.37,0,0,0,.28.13.34.34,0,0,0,.22-.07l.56-.42a.36.36,0,0,0,.09-.5.35.35,0,0,0-.3-.14Zm-2,1.52a.35.35,0,0,0-.23.09l-.54.46a.35.35,0,0,0,.05.51.36.36,0,0,0,.41,0l.54-.46a.36.36,0,0,0,0-.51.36.36,0,0,0-.27-.12Zm-1.84,1.66a.39.39,0,0,0-.25.1l-.33.32h0l-.13.13a.35.35,0,0,0-.06.5.35.35,0,0,0,.28.14.36.36,0,0,0,.26-.11l.5-.49a.36.36,0,0,0,0-.51.34.34,0,0,0-.25-.11Zm-1.72,1.78a.38.38,0,0,0-.27.12l-.47.54a.35.35,0,0,0,0,.5.36.36,0,0,0,.51,0c.15-.18.3-.36.46-.53a.36.36,0,0,0,0-.5h0A.39.39,0,0,0,18.94,21.24Zm-1.59,1.9a.35.35,0,0,0-.28.14l-.11.14h0v0h0l0,0h0v0h0v0h0v0h0v0h0l-.19.25a.37.37,0,0,0,.07.5h0a.32.32,0,0,0,.21.08.38.38,0,0,0,.29-.15l.42-.56a.35.35,0,0,0-.06-.5h0a.34.34,0,0,0-.22-.07Zm-1.45,2a.37.37,0,0,0-.3.16h0v0h0v0h0v0h0l-.22.34h0a.35.35,0,0,0,.1.49.36.36,0,0,0,.2.06.34.34,0,0,0,.3-.17l.4-.59a.36.36,0,0,0-.3-.56Zm-1.33,2.11a.35.35,0,0,0-.31.18l-.06.11h0v0h0l-.26.46h0a.36.36,0,0,0,.14.49.33.33,0,0,0,.17,0,.38.38,0,0,0,.32-.18l.34-.62a.35.35,0,0,0-.13-.48.31.31,0,0,0-.18-.05Zm-1.15,2.2a.35.35,0,0,0-.32.19l-.16.34h0v0h0v0h0v0h0v0h0l-.06.12a.38.38,0,0,0,.17.48h0a.36.36,0,0,0,.47-.17l.3-.63a.36.36,0,0,0-.16-.48.32.32,0,0,0-.16,0Zm-1,2.26a.37.37,0,0,0-.34.23,1.19,1.19,0,0,1-.08.2h0v0h0v0h0v0h0v0h0v0h0v.06h0v0h0v0h0a1.12,1.12,0,0,1-.05.13.35.35,0,0,0,.19.47.36.36,0,0,0,.47-.18v0c.09-.22.17-.44.26-.65a.37.37,0,0,0-.2-.47.3.3,0,0,0-.13,0Zm-.84,2.34a.37.37,0,0,0-.34.24c-.07.23-.15.46-.21.69a.36.36,0,0,0,.22.45h.11a.36.36,0,0,0,.34-.25l.21-.67a.36.36,0,0,0-.23-.45.23.23,0,0,0-.11,0Zm-.68,2.37a.37.37,0,0,0-.35.28h0v0h0c0,.14-.07.28-.1.42v0h0c0,.06,0,.12,0,.2a.35.35,0,0,0,.29.41.36.36,0,0,0,.41-.26c.05-.23.1-.45.16-.68a.35.35,0,0,0-.26-.43l-.09,0Zm-.51,2.43a.36.36,0,0,0-.35.3L10,39.5h0v.06h0l-.07.32a.36.36,0,0,0,.3.4h.06a.36.36,0,0,0,.35-.3c0-.23.07-.47.11-.69a.34.34,0,0,0-.29-.4h-.06ZM10,41.32a.36.36,0,0,0-.35.32v.09l-.07.52h0v.09a.36.36,0,0,0,.33.38h0a.35.35,0,0,0,.35-.33c0-.23,0-.47.07-.7a.36.36,0,0,0-.32-.39ZM9.88,43.8a.35.35,0,0,0-.36.34v.07h0v0h0c0,.2,0,.41,0,.62a.35.35,0,0,0,.35.36h0a.35.35,0,0,0,.35-.35c0-.23,0-.47,0-.7a.36.36,0,0,0-.35-.37Zm0,2.48h0a.36.36,0,0,0-.35.37c0,.14,0,.28,0,.42h0v0h0v0h0a1,1,0,0,0,0,.24.35.35,0,0,0,.35.34h0a.36.36,0,0,0,.33-.38h0l0-.7a.36.36,0,0,0-.36-.34Zm.18,2.47h0a.36.36,0,0,0-.31.4h0a1.1,1.1,0,0,0,0,.18h0l.06.51a.35.35,0,0,0,.35.33h0a.34.34,0,0,0,.3-.39c0-.24-.05-.47-.08-.7a.36.36,0,0,0-.36-.32Zm.36,2.46h-.06a.35.35,0,0,0-.29.41h0l.06.3v0h0c0,.08,0,.15,0,.23h0v0h0a.43.43,0,0,0,0,.11.36.36,0,0,0,.35.29h.07a.35.35,0,0,0,.28-.42h0c0-.23-.09-.46-.13-.69a.36.36,0,0,0-.35-.3ZM11,53.63h-.09a.36.36,0,0,0-.26.43h0l.06.24v0h0l.06.22h0v0l0,.17a.35.35,0,0,0,.34.26l.1,0a.35.35,0,0,0,.25-.44l-.18-.67a.35.35,0,0,0-.35-.27Zm.7,2.38h-.12a.36.36,0,0,0-.22.45h0l0,.15v0h0l.18.5a.35.35,0,0,0,.46.21.36.36,0,0,0,.21-.45c-.08-.21-.15-.44-.23-.66a.36.36,0,0,0-.34-.23Zm.85,2.32a.37.37,0,0,0-.35.37.59.59,0,0,0,0,.13s0,0,0,.05h0l.12.27h0v0h0c0,.09.07.18.11.27a.36.36,0,0,0,.33.21.32.32,0,0,0,.14,0,.36.36,0,0,0,.19-.47h0c-.09-.21-.19-.43-.27-.64a.37.37,0,0,0-.34-.23Zm1,2.27a.37.37,0,0,0-.15,0,.36.36,0,0,0-.17.48l0,.08h0c.07.14.15.29.22.44h0l.06.1a.34.34,0,0,0,.31.2.33.33,0,0,0,.17,0,.36.36,0,0,0,.15-.48c-.11-.2-.21-.42-.31-.63a.36.36,0,0,0-.33-.19Zm1.17,2.17a.34.34,0,0,0-.17,0,.37.37,0,0,0-.14.49h0a.47.47,0,0,0,0,.1h0l.22.37h0l.08.12a.35.35,0,0,0,.49.09.36.36,0,0,0,.12-.46q-.19-.3-.36-.6a.4.4,0,0,0-.31-.18ZM16,64.88a.36.36,0,0,0-.2.06.35.35,0,0,0-.1.49l0,.08h0l.32.45h0l0,0a.36.36,0,0,0,.29.15.31.31,0,0,0,.2-.07.35.35,0,0,0,.08-.5c-.13-.19-.27-.38-.39-.57a.37.37,0,0,0-.3-.16Zm1.46,2a.36.36,0,0,0-.36.36.37.37,0,0,0,.08.22l.07.09h0l0,0h0v0h0v0h0l0,0h0v0h0v0h0l.1.12a.37.37,0,0,0,.28.13A.35.35,0,0,0,18,68a.35.35,0,0,0,.05-.51l-.44-.54a.35.35,0,0,0-.28-.14Zm1.6,1.89a.37.37,0,0,0-.24.1.36.36,0,0,0,0,.5h0l.12.13h0v0h0l.29.31h0a.36.36,0,0,0,.55-.46l0,0-.48-.52a.35.35,0,0,0-.26-.11Zm1.73,1.78a.36.36,0,0,0-.35.36.33.33,0,0,0,.11.26l0,0h0v0h0l.32.32h0l0,0h0l.05,0a.35.35,0,0,0,.5,0,.37.37,0,0,0,0-.51l0,0L21,70.64a.37.37,0,0,0-.25-.1Zm1.86,1.65a.36.36,0,0,0-.23.64l.14.11h0v0h0v0h.12l0,0h0l0,0h0l.09.07a.35.35,0,0,0,.5,0,.36.36,0,0,0,0-.51l0,0-.54-.44a.35.35,0,0,0-.23-.09Zm1.95,1.54a.34.34,0,0,0-.29.15.36.36,0,0,0,.08.5l.44.31h0l.1.06a.34.34,0,0,0,.49-.08h0a.35.35,0,0,0-.09-.49h0l-.57-.39a.33.33,0,0,0-.21-.07Zm2.06,1.38a.36.36,0,0,0-.19.67l.62.37a.35.35,0,0,0,.18,0,.36.36,0,0,0,.35-.36.34.34,0,0,0-.17-.31l-.6-.36A.33.33,0,0,0,26.69,75.12Zm2.16,1.23a.36.36,0,0,0-.17.68l.16.08h0l.41.2a.3.3,0,0,0,.16,0,.35.35,0,0,0,.36-.35.36.36,0,0,0-.2-.32L29,76.36a.35.35,0,0,0-.17,0Zm2.23,1.07a.36.36,0,0,0-.35.36.36.36,0,0,0,.21.33l0,0h0l.31.13h0l0,0h0l.11,0h0l0,0,.14,0a.36.36,0,0,0,.13-.69l-.28-.11-.36-.16a.4.4,0,0,0-.15,0Zm2.31.92a.35.35,0,0,0-.36.35.35.35,0,0,0,.24.34l.54.2h0l.11,0,.12,0a.37.37,0,0,0,.35-.37.35.35,0,0,0-.24-.33l-.66-.23-.12,0Zm2.37.74a.36.36,0,0,0-.36.35.34.34,0,0,0,.26.35l.05,0h0l.63.17h.09a.36.36,0,0,0,.09-.71l-.68-.18h-.09Zm2.41.6a.36.36,0,0,0-.35.36.36.36,0,0,0,.28.35l.39.07h.09l.23.05h.06a.37.37,0,0,0,.37-.35.35.35,0,0,0-.31-.36l-.69-.14h-.07Zm2.45.39a.37.37,0,0,0-.36.37.36.36,0,0,0,.31.35l.2,0h.06l.45.06h0a.36.36,0,0,0,0-.72l-.7-.08Zm2.47.24a.36.36,0,0,0-.35.37.37.37,0,0,0,.32.35l.32,0h.41a.36.36,0,0,0,.34-.38.35.35,0,0,0-.32-.34l-.7,0Zm3.18,0h0l-.7,0a.36.36,0,0,0,0,.72h0c.22,0,.43,0,.65,0h.07a.36.36,0,1,0,0-.71h0Zm2.48-.15h0l-.7.06a.36.36,0,0,0-.32.39A.35.35,0,0,0,48,81h0l.35,0h0l.34,0a.37.37,0,0,0,.32-.4.36.36,0,0,0-.36-.32Zm2.46-.33h-.06l-.69.11a.36.36,0,0,0,0,.71h.05l.12,0h0l.41-.06h0l.12,0a.37.37,0,0,0,.29-.42.35.35,0,0,0-.35-.29Zm2.43-.51h-.09l-.68.16a.36.36,0,0,0,.08.71h.39l.39-.1A.35.35,0,0,0,54,79.7a.35.35,0,0,0-.34-.27ZM56,78.7l-.11,0-.67.2a.36.36,0,0,0,.2.68c.23-.06.46-.13.68-.21a.35.35,0,0,0,.23-.45.34.34,0,0,0-.33-.25Zm2.34-.82a.3.3,0,0,0-.13,0l-.66.25a.37.37,0,0,0-.2.47.36.36,0,0,0,.33.23.27.27,0,0,0,.12,0l.18-.06h.08l0,0h.06l.27-.1a.37.37,0,0,0,.2-.47.36.36,0,0,0-.34-.22Zm2.28-1a.29.29,0,0,0-.16,0l-.64.3a.35.35,0,0,0-.17.47.35.35,0,0,0,.32.21.4.4,0,0,0,.15,0l.62-.29h0a.36.36,0,0,0-.16-.68Zm2.19-1.15a.33.33,0,0,0-.17,0c-.2.12-.41.23-.62.34a.36.36,0,0,0,.17.68.34.34,0,0,0,.17,0L63,76.4a.35.35,0,0,0,.13-.48.33.33,0,0,0-.31-.18ZM65,74.44a.36.36,0,0,0-.2.06l-.6.38a.37.37,0,0,0-.11.49.36.36,0,0,0,.5.11h0l.58-.37h0a.36.36,0,0,0,.09-.5.34.34,0,0,0-.29-.16ZM67,73a.34.34,0,0,0-.21.08l-.56.42a.36.36,0,0,0-.08.5.41.41,0,0,0,.29.15.38.38,0,0,0,.21-.07l.47-.36h.07l0,0a.36.36,0,0,0,.06-.5A.35.35,0,0,0,67,73Zm1.92-1.58a.34.34,0,0,0-.24.09l-.53.46a.36.36,0,0,0,0,.51.4.4,0,0,0,.27.12.36.36,0,0,0,.23-.08l.26-.22h0l.23-.2a.37.37,0,0,0,0-.51.4.4,0,0,0-.27-.12Zm1.79-1.71a.37.37,0,0,0-.25.1l-.5.5a.36.36,0,0,0,0,.51.34.34,0,0,0,.25.11.36.36,0,0,0,.25-.11l.07-.07h.06l0,0h0l.16-.16h0l0,0h0l0,0h0l.07-.07a.36.36,0,0,0,0-.51.36.36,0,0,0-.25-.1Zm1.67-1.84a.37.37,0,0,0-.27.13c-.15.18-.3.36-.46.53a.36.36,0,1,0,.54.48l.15-.18h0v0h0l0,0h0l.09-.11a.36.36,0,0,0,0-.51.33.33,0,0,0-.23-.09Zm1.54-1.94a.37.37,0,0,0-.29.14l-.42.56a.37.37,0,0,0,.07.51.35.35,0,0,0,.5-.07h0l.22-.29h0l0,0h0v0h0l.11-.16a.35.35,0,0,0-.07-.5h0a.33.33,0,0,0-.21-.07Zm1.39-2.05A.35.35,0,0,0,75,64c-.13.2-.26.4-.38.6a.35.35,0,0,0,.09.49.36.36,0,0,0,.5-.1h0l.39-.59a.36.36,0,0,0-.11-.49h0a.38.38,0,0,0-.19,0Zm1.25-2.15a.35.35,0,0,0-.32.19l-.34.62A.37.37,0,0,0,76,63a.38.38,0,0,0,.46-.13l.27-.49h0v0h0v0h0v0h0v0h0v0h0v0h0a.36.36,0,0,0-.15-.49.33.33,0,0,0-.17,0Zm1.09-2.22a.34.34,0,0,0-.32.21l-.3.63a.36.36,0,0,0,.17.48.42.42,0,0,0,.15,0,.37.37,0,0,0,.33-.2h0L78,60a.37.37,0,0,0-.18-.48.4.4,0,0,0-.15,0Zm.95-2.3a.35.35,0,0,0-.33.23l-.26.66a.36.36,0,0,0,.2.46.31.31,0,0,0,.13,0,.37.37,0,0,0,.34-.23h0v0h0l.12-.34h0v0h0v0h0l.07-.19a.35.35,0,0,0-.21-.45h0a.28.28,0,0,0-.13,0Zm.78-2.36a.38.38,0,0,0-.35.26l-.19.67a.35.35,0,0,0,.23.45l.11,0a.37.37,0,0,0,.34-.26s0-.09,0-.14h0c.06-.18.11-.36.17-.54a.36.36,0,0,0-.25-.44l-.1,0Zm.61-2.4a.35.35,0,0,0-.35.28c0,.23-.11.46-.16.68a.35.35,0,0,0,.27.43h.08a.35.35,0,0,0,.35-.27l0-.1h0l.06-.26h0v-.05h0l0-.22a.37.37,0,0,0-.27-.43h-.08ZM80.4,50a.38.38,0,0,0-.36.31c0,.23-.07.47-.11.7a.37.37,0,0,0,.3.41h.06a.36.36,0,0,0,.35-.3c0-.24.08-.48.11-.71a.36.36,0,0,0-.3-.4h0Zm.26-2.46a.35.35,0,0,0-.35.33l-.06.7a.36.36,0,0,0,.32.4h0a.36.36,0,0,0,.35-.33c0-.17,0-.33.05-.51h0v0h0a.76.76,0,0,1,0-.15.36.36,0,0,0-.34-.38h0Zm.09-2.48a.36.36,0,0,0-.35.36c0,.23,0,.47,0,.7a.34.34,0,0,0,.35.36h0a.36.36,0,0,0,.36-.35v-.06h0V46h0v0h0v0h0v-.06h0v-.13h0v0h0v-.06h0v0h0v0h0v0h0v-.11a.36.36,0,0,0-.36-.36h0Zm-.08-2.48h0a.37.37,0,0,0-.34.38c0,.23,0,.47,0,.7a.35.35,0,0,0,.35.34h0a.34.34,0,0,0,.34-.37h0c0-.24,0-.48,0-.71a.36.36,0,0,0-.36-.34Zm-.25-2.47h0a.36.36,0,0,0-.31.4l.09.69a.37.37,0,0,0,.36.32h0a.36.36,0,0,0,.32-.4,1.13,1.13,0,0,0,0-.18h0v0h0v0h0v-.14h0v0h0v0h0v-.06h0v0h0v-.05h0v-.06a.35.35,0,0,0-.35-.31ZM80,37.66h-.08a.35.35,0,0,0-.27.42c0,.23.09.46.14.69a.35.35,0,0,0,.35.29h.06a.36.36,0,0,0,.29-.42c0-.18-.07-.36-.11-.55h0V38h0l0-.09a.35.35,0,0,0-.35-.28Zm-.6-2.41H79.3a.37.37,0,0,0-.25.45l.19.67a.36.36,0,0,0,.44.25.37.37,0,0,0,.25-.43h0v0h0v-.06h0v0h0v0h0v0h0l-.13-.47a.38.38,0,0,0-.35-.26Zm-.76-2.36-.12,0a.36.36,0,0,0-.22.46h0l.24.66a.35.35,0,0,0,.34.24H79a.37.37,0,0,0,.23-.46c-.06-.16-.12-.32-.17-.48v0h0L79,33.14a.35.35,0,0,0-.34-.24Zm-.92-2.3a.4.4,0,0,0-.15,0,.36.36,0,0,0-.18.47l.28.64A.35.35,0,0,0,78,32l.13,0a.36.36,0,0,0,.2-.47h0l0-.08h0v0h0c-.07-.18-.15-.36-.23-.54h0a.37.37,0,0,0-.33-.22Zm-1.09-2.24a.35.35,0,0,0-.35.37.32.32,0,0,0,0,.16c.11.2.21.42.32.62a.36.36,0,0,0,.32.2.32.32,0,0,0,.16,0,.35.35,0,0,0,.16-.48L77,28.59h0v0a.37.37,0,0,0-.31-.2Zm-1.24-2.14a.36.36,0,0,0-.3.55h0l.36.59a.35.35,0,0,0,.49.14.36.36,0,0,0,.14-.49h0c-.09-.16-.19-.31-.28-.46h0l-.08-.13a.36.36,0,0,0-.3-.17ZM74,24.15a.36.36,0,0,0-.36.36.39.39,0,0,0,.06.21l.41.57a.37.37,0,0,0,.3.16.44.44,0,0,0,.19-.07.35.35,0,0,0,.09-.5h0l0-.08h0l0,0h0l-.14-.2h0l-.12-.18a.37.37,0,0,0-.29-.14Zm-1.53-2a.36.36,0,0,0-.36.35.34.34,0,0,0,.09.24l.44.55a.35.35,0,0,0,.5.05h0a.36.36,0,0,0,0-.5h0l0,0h0v0h0l0,0h0v0h0l0,0h0v0h0l-.08-.1h0l0,0h0v0h0v0h0l0-.06a.33.33,0,0,0-.28-.12Zm-1.65-1.85a.36.36,0,0,0-.36.36.39.39,0,0,0,.1.25l.48.51a.36.36,0,0,0,.26.11.34.34,0,0,0,.25-.09.36.36,0,0,0,0-.5h0l-.17-.18h0l0,0h0l-.23-.24a.34.34,0,0,0-.25-.11ZM69,18.62a.36.36,0,0,0-.36.35.39.39,0,0,0,.11.27l.52.47a.33.33,0,0,0,.25.1.38.38,0,0,0,.26-.11.36.36,0,0,0,0-.51h-.06l0,0h0l0,0h0v0h0v0h0l-.24-.21a.34.34,0,0,0-.24-.09ZM67.14,17a.36.36,0,0,0-.36.36.35.35,0,0,0,.14.28l.54.44a.4.4,0,0,0,.23.08.36.36,0,0,0,.36-.36.37.37,0,0,0-.13-.28l0,0h0l0,0H67.7v0h0l0,0h0l0-.05h0l-.09-.06h0l0,0h0a.35.35,0,0,0-.22-.08Zm-2-1.46a.36.36,0,0,0-.36.36.39.39,0,0,0,.16.3l.58.39a.37.37,0,0,0,.2.07.36.36,0,0,0,.36-.36.35.35,0,0,0-.15-.29h-.08l0,0h0l0,0h0l-.24-.17h0l-.1-.07a.36.36,0,0,0-.2-.06ZM63,14.25a.37.37,0,0,0-.37.35.34.34,0,0,0,.19.31l.6.36a.32.32,0,0,0,.19.05A.36.36,0,0,0,64,15a.34.34,0,0,0-.17-.3l-.31-.2h-.08l-.19-.11a.41.41,0,0,0-.18,0Zm-2.2-1.17a.36.36,0,0,0-.35.36.36.36,0,0,0,.2.32c.21.11.42.2.62.32a.53.53,0,0,0,.17,0,.36.36,0,0,0,.36-.36.36.36,0,0,0-.2-.32h0L61,13.13a.42.42,0,0,0-.16,0Zm-2.26-1a.35.35,0,0,0-.13.68L59,13l.08,0,.15,0a.36.36,0,0,0,.35-.36.34.34,0,0,0-.21-.32l0,0h-.05L59,12.24h-.08l-.2-.08a.28.28,0,0,0-.13,0Zm-2.33-.85a.36.36,0,0,0-.36.35.35.35,0,0,0,.25.34l.66.23.12,0a.36.36,0,0,0,.36-.36.37.37,0,0,0-.24-.34l-.68-.23Zm-2.38-.69a.35.35,0,0,0-.35.27.37.37,0,0,0,.26.44l.68.17.09,0a.37.37,0,0,0,.36-.37.36.36,0,0,0-.26-.34l-.7-.18h-.08ZM51.44,10a.34.34,0,0,0-.35.36.35.35,0,0,0,.29.35l.69.13h.07a.37.37,0,0,0,.35-.37.35.35,0,0,0-.28-.34L51.5,10ZM49,9.67a.36.36,0,0,0,0,.72l.69.08h0a.36.36,0,0,0,0-.72L49,9.67ZM46.49,9.5a.36.36,0,0,0-.36.36.34.34,0,0,0,.35.36l.7,0h0a.36.36,0,0,0,0-.71h-.71Z"/> <path class="cls-10" d="M73.71,18.47a.7.7,0,0,1-.51-.22A38.9,38.9,0,0,0,60.47,9.53.71.71,0,1,1,61,8.2l0,0a40.35,40.35,0,0,1,7.15,3.92,39.92,39.92,0,0,1,6,5.11.73.73,0,0,1,0,1,.72.72,0,0,1-.5.2Z"/> <path class="cls-11" d="M23.74,12.84a.72.72,0,0,1-.39-1.32c1.08-.7,2.21-1.35,3.34-1.94A37.17,37.17,0,0,1,30.2,8c1.19-.48,2.43-.92,3.65-1.28a37,37,0,0,1,3.77-.92A40.51,40.51,0,0,1,45.37,5a.72.72,0,1,1,.07,1.43H45.3c-1.23,0-2.48.06-3.71.18s-2.48.3-3.71.54-2.44.54-3.63.89-2.37.77-3.51,1.23-2.29,1-3.39,1.56-2.18,1.21-3.23,1.88A.64.64,0,0,1,23.74,12.84Z"/> <path class="cls-12" d="M8.88,30.57a.71.71,0,0,1-.28-.06.71.71,0,0,1-.38-.93A40.94,40.94,0,0,1,10,25.87a.72.72,0,0,1,1-.24.73.73,0,0,1,.27.93,38.15,38.15,0,0,0-1.74,3.58A.71.71,0,0,1,8.88,30.57Z"/> <path class="cls-13" d="M14.36,70.67a.71.71,0,0,1-.56-.27c-.81-1-1.57-2.07-2.27-3.15A40.88,40.88,0,0,1,8,60.39C7.48,59.2,7.05,58,6.69,56.74S6,54.25,5.76,53s-.43-2.56-.56-3.84S5,46.53,5,45.23s.07-2.63.2-3.93.34-2.64.6-3.94a.71.71,0,1,1,1.41.23.09.09,0,0,1,0,0c-.25,1.26-.44,2.53-.57,3.8a37.2,37.2,0,0,0-.2,3.8c0,1.26.06,2.51.18,3.76s.3,2.49.54,3.71.54,2.43.89,3.62.77,2.38,1.23,3.52,1,2.29,1.56,3.39,1.21,2.19,1.88,3.22,1.41,2.07,2.18,3.05a.7.7,0,0,1-.11,1,.75.75,0,0,1-.45.16Z"/> <path class="cls-14" d="M45.24,85.58h0a36.94,36.94,0,0,1-3.93-.2c-1.32-.13-2.64-.33-3.94-.59a40.1,40.1,0,0,1-7.79-2.42,38.45,38.45,0,0,1-3.71-1.8,37.11,37.11,0,0,1-3.45-2.12.72.72,0,0,1,.82-1.19,34,34,0,0,0,3.32,2,38.58,38.58,0,0,0,7.31,3.1A37.87,37.87,0,0,0,41.45,84a37.35,37.35,0,0,0,3.8.2.72.72,0,0,1,0,1.43Z"/> <path class="cls-15" d="M52.85,84.85a.72.72,0,0,1-.13-1.42c1.21-.24,2.43-.54,3.62-.89a.71.71,0,0,1,.89.48.71.71,0,0,1-.48.89c-1.23.37-2.5.68-3.76.93Z"/> <path class="cls-16" d="M63.58,81.1a.71.71,0,0,1-.33-1.35c1.1-.58,2.18-1.21,3.22-1.88s2.07-1.41,3-2.19,1.93-1.62,2.83-2.49a37.71,37.71,0,0,0,2.59-2.77.72.72,0,1,1,1.14.87l0,0a38.65,38.65,0,0,1-2.7,2.88,37.54,37.54,0,0,1-2.93,2.58c-1,.8-2.08,1.56-3.16,2.27A38.2,38.2,0,0,1,63.91,81,.66.66,0,0,1,63.58,81.1Z"/> <path class="cls-17" d="M81.72,61.46a.67.67,0,0,1-.28-.06.72.72,0,0,1-.38-.94c.52-1.22,1-2.48,1.37-3.73a36.72,36.72,0,0,0,1-3.78,38.35,38.35,0,0,0,.58-3.8c.12-1.27.19-2.53.19-3.8s-.06-2.52-.17-3.76-.31-2.49-.55-3.71-.53-2.43-.89-3.63a36.67,36.67,0,0,0-1.23-3.52.72.72,0,0,1,1.33-.53h0c.48,1.19.91,2.42,1.28,3.65s.67,2.5.92,3.76.44,2.56.56,3.84.19,2.61.19,3.91-.07,2.63-.2,3.93-.33,2.65-.59,3.94-.6,2.64-1,3.92A40.89,40.89,0,0,1,82.39,61,.74.74,0,0,1,81.72,61.46Z"/> <g class="cls-18"> <text class="cls-19" transform="translate(34.45 43.6)">ฟรี</text> <text class="cls-20" transform="translate(22.62 57.82)">ตลอดค่าย</text> </g> </g> </g> </svg>