<svg xmlns="http://www.w3.org/2000/svg" xmlns:xlink="http://www.w3.org/1999/xlink" viewBox="0 0 431.17 413.46"><defs><style>.cls-1{opacity:0.74;}.cls-2{fill:url(#linear-gradient);}.cls-3{opacity:0.7;isolation:isolate;}.cls-4{fill:#ece9f3;}.cls-5{fill:#ebe9f5;}.cls-6{fill:#a29fce;}.cls-7{fill:#e3e0f0;}.cls-8{fill:#f4f4f5;}.cls-9{fill:#fff;}.cls-10{fill:#726bb0;}.cls-11,.cls-12{fill:none;stroke:#726bb0;stroke-miterlimit:10;}.cls-11{stroke-width:2.76px;}.cls-12{stroke-width:2.07px;}.cls-13{fill:#f8c878;}</style><linearGradient id="linear-gradient" x1="30.84" y1="206.8" x2="431.52" y2="206.8" gradientTransform="translate(213.58 -102.99) rotate(45)" gradientUnits="userSpaceOnUse"><stop offset="0" stop-color="#a2a0cf"/><stop offset="1" stop-color="#ece9f3"/></linearGradient></defs><title>iconLocation</title><g id="Layer_2" data-name="Layer 2"><g id="Layer_1-2" data-name="Layer 1"><g class="cls-1"><rect class="cls-2" x="60.41" y="36.28" width="340.84" height="340.84" rx="97.89" ry="97.89" transform="translate(-78.55 223.76) rotate(-45)"/><g class="cls-3"><path class="cls-4" d="M190.5,371.43,66.09,247a82.7,82.7,0,0,1,0-116.6l-18,18a82.68,82.68,0,0,0,0,116.6L172.53,389.41a82.68,82.68,0,0,0,116.6,0l18-18A82.68,82.68,0,0,1,190.5,371.43Z"/></g></g><path class="cls-5" d="M317.4,272.25h45.12a13.4,13.4,0,0,1,11.72,6.7l38.92,69.64a12.66,12.66,0,0,1-11.72,18.62H60.85a12.66,12.66,0,0,1-11.71-18.62L88.06,279a13.4,13.4,0,0,1,11.71-6.7Z"/><path class="cls-6" d="M401.44,367.21H136.19s126.61-12.66,158.27-95h68.05A13.32,13.32,0,0,1,374.22,279l38.94,69.64a12.67,12.67,0,0,1-11.72,18.61Z"/><path class="cls-7" d="M376.12,367.21H136.19s126.61-12.66,158.27-95h42.73A13.32,13.32,0,0,1,348.9,279l38.93,69.64a12.66,12.66,0,0,1-11.71,18.61Z"/><path class="cls-6" d="M351.43,126.83c0,16.59-7.53,37.61-18.8,59.76a562.88,562.88,0,0,1-41.34,66.6c-15.07,21.21-30.07,40.33-41.34,54.13-3.42,4.24-6.52,7.91-9.12,11.08a12.62,12.62,0,0,1-19.18.19l-.19-.19c-2.59-3.17-5.7-6.84-9.11-11.08C201.08,293.52,186,274.4,171,253.19a552.77,552.77,0,0,1-41.34-66.6c-11.27-22.15-18.81-43.17-18.81-59.76a120.28,120.28,0,0,1,73.44-111,118.69,118.69,0,0,1,37.35-9.12c3.1-.25,6.33-.38,9.5-.38A120.28,120.28,0,0,1,351.43,126.83Z"/><path class="cls-7" d="M332.44,126.83c0,16.59-7.53,37.61-18.8,59.76a562.88,562.88,0,0,1-41.34,66.6c-15.07,21.21-30.07,40.33-41.34,54.13-3.42,4.24-6.52,7.91-9.12,11.08l-.19.19-.19-.19c-2.59-3.17-5.7-6.84-9.11-11.08C201.08,293.52,186,274.4,171,253.19a552.77,552.77,0,0,1-41.34-66.6c-11.27-22.15-18.81-43.17-18.81-59.76a120.28,120.28,0,0,1,73.44-111,118.69,118.69,0,0,1,37.35-9.12A118.69,118.69,0,0,1,259,15.86,120.21,120.21,0,0,1,332.44,126.83Z"/><path class="cls-5" d="M288.12,120.31a57.05,57.05,0,0,1-57,57,59.28,59.28,0,0,1-9.5-.76,57,57,0,0,1,0-112.43,58.15,58.15,0,0,1,9.5-.76A57,57,0,0,1,288.12,120.31Z"/><path class="cls-8" d="M269.13,120.31a57.17,57.17,0,0,1-47.48,56.22,57,57,0,0,1,0-112.43A57.16,57.16,0,0,1,269.13,120.31Z"/><path class="cls-8" d="M60.85,367.21h19a12.66,12.66,0,0,1-11.71-18.62L107.05,279a13.4,13.4,0,0,1,11.72-6.7h-19a13.38,13.38,0,0,0-11.7,6.7L49.15,348.59a12.66,12.66,0,0,0,11.7,18.62Z"/><path class="cls-8" d="M171,253.19c4.66,6.6,9.33,13,13.92,19.06h19q-6.85-9.15-13.93-19.06a554,554,0,0,1-41.34-66.6c-11.27-22.15-18.8-43.17-18.8-59.76a120.26,120.26,0,0,1,73.43-111,118.91,118.91,0,0,1,36.77-9c-3-.22-5.9-.45-8.91-.45-3.17,0-6.4.13-9.5.38a118.69,118.69,0,0,0-37.35,9.12,120.21,120.21,0,0,0-73.44,111c0,16.59,7.54,37.61,18.81,59.76A552.77,552.77,0,0,0,171,253.19Z"/><path class="cls-9" d="M99.77,278.58a7.32,7.32,0,0,0-5,1.94,6,6,0,0,0-.84,1c-.14.18-.23.37-.35.54L93,283.17l-2.54,4.49-10,18L60.33,341.54l-5.69,10.13-11-6.17,5.7-10.13,20-35.9,10-18L81.93,277l.63-1.12a16.49,16.49,0,0,1,1-1.63,19.49,19.49,0,0,1,2.53-2.91,20,20,0,0,1,13.65-5.44v12.66Z"/><path class="cls-10" d="M79.52,294.24a6.33,6.33,0,0,0,8.61-2.44l3.09-5.52,1.55-2.77.77-1.38a6.41,6.41,0,0,1,.45-.7,7.17,7.17,0,0,1,5.78-2.85h45.12a6.33,6.33,0,1,0,0-12.66H99.77a19.82,19.82,0,0,0-16,8.08A22.44,22.44,0,0,0,82.47,276l-.73,1.36-1.54,2.77-3.08,5.53a6.33,6.33,0,0,0,2.4,8.63Z"/><path class="cls-10" d="M65.28,314.73a6.39,6.39,0,0,0,1.86,1.61,6.62,6.62,0,0,0,4.82.59,6.4,6.4,0,0,0,4.38-7.84L75.89,308a5.08,5.08,0,0,0-.72-1.06,4.24,4.24,0,0,0-.81-.88,9.26,9.26,0,0,0-1-.73,6.63,6.63,0,0,0-4.82-.59,6.25,6.25,0,0,0-3.22,10Z"/><path class="cls-10" d="M165.84,256.86c15.64,22.05,31.26,41.78,41.61,54.49,1.51,1.85,2.92,3.56,4.29,5.21H180.5a6.33,6.33,0,1,0,0,12.66H281.79a6.33,6.33,0,0,0,0-12.66H250.56c1.37-1.65,2.78-3.37,4.29-5.21,10.35-12.66,26-32.44,41.61-54.49a558,558,0,0,0,41.82-67.4c12.92-25.39,19.48-46.46,19.48-62.65a126.51,126.51,0,0,0-37.08-89.65,6.33,6.33,0,1,0-8.95,9,113.93,113.93,0,0,1,33.37,80.7c0,14.17-6.09,33.32-18.1,56.9a544.28,544.28,0,0,1-40.87,65.84c-15.44,21.77-30.87,41.27-41.09,53.81-3.4,4.16-6.46,7.85-9.07,11a6.4,6.4,0,0,1-9.64,0c-2.61-3.11-5.67-6.8-9.07-11-10.22-12.53-25.65-32-41.09-53.81a544.28,544.28,0,0,1-40.87-65.84c-12-23.58-18.1-42.73-18.1-56.9A114,114,0,0,1,275.53,21.65,6.33,6.33,0,0,0,280.47,10,126.69,126.69,0,0,0,104.53,126.81c0,16.18,6.56,37.26,19.49,62.68A556.89,556.89,0,0,0,165.84,256.86Z"/><path class="cls-10" d="M231.15,69.67a6.33,6.33,0,0,0,0-12.66,63.3,63.3,0,1,0,44.76,18.54,6.33,6.33,0,1,0-9,9,50.65,50.65,0,1,1-35.81-14.83Z"/><path class="cls-10" d="M60.85,373.54H401.44a19.51,19.51,0,0,0,17.05-9.61,18.37,18.37,0,0,0,.19-18.43l-38.93-69.64a19.68,19.68,0,0,0-17.23-9.94H317.4a6.33,6.33,0,0,0,0,12.66h45.12a7,7,0,0,1,6.19,3.45l38.92,69.64a5.69,5.69,0,0,1-.06,5.85,7,7,0,0,1-6.13,3.36H60.85a7,7,0,0,1-6.12-3.36,5.69,5.69,0,0,1-.06-5.84l5.7-10.13L63.45,336a6.34,6.34,0,1,0-11.08-6.16l-3.09,5.52-5.67,10.13a18.37,18.37,0,0,0,.2,18.43A19.48,19.48,0,0,0,60.85,373.54Z"/><circle class="cls-11" cx="344.1" cy="250.26" r="7.12"/><circle class="cls-11" cx="35.87" cy="379.96" r="7.12"/><circle class="cls-12" cx="6.07" cy="369.9" r="5.04"/><polygon class="cls-13" points="354.94 237.01 368.93 234.63 371.3 220.65 373.68 234.63 387.66 237.01 373.68 239.38 371.3 253.37 368.93 239.38 354.94 237.01"/><polygon class="cls-13" points="6.07 347.38 20.06 345.01 22.43 331.01 24.81 345.01 38.8 347.38 24.81 349.75 22.43 363.75 20.06 349.75 6.07 347.38"/><circle class="cls-12" cx="384.29" cy="260.88" r="5.04"/></g></g></svg>