<?xml version="1.0" encoding="utf-8"?>
<!-- Generator: Adobe Illustrator 22.0.0, SVG Export Plug-In . SVG Version: 6.00 Build 0)  -->
<svg version="1.1" id="Layer_1" xmlns="http://www.w3.org/2000/svg" xmlns:xlink="http://www.w3.org/1999/xlink" x="0px" y="0px"
	 viewBox="0 0 620.4 99.7" style="enable-background:new 0 0 620.4 99.7;" xml:space="preserve">
<style type="text/css">
	.st0{fill:#F37B47;}
	.st1{fill:#7AD0E2;}
</style>
<g>
	<g>
		<path class="st0" d="M12,90.1V13.6h6.9v32.1c2.9-3.5,6.1-6.2,9.7-8c3.6-1.8,7.5-2.6,11.8-2.6c7.6,0,14.1,2.8,19.4,8.3
			c5.4,5.5,8,12.2,8,20c0,7.7-2.7,14.4-8.1,19.8c-5.4,5.5-11.9,8.2-19.5,8.2c-4.4,0-8.3-0.9-11.9-2.8c-3.5-1.9-6.7-4.7-9.4-8.4v9.9
			H12z M39.6,84.8c3.8,0,7.4-0.9,10.6-2.8c3.2-1.9,5.8-4.5,7.7-8c1.9-3.4,2.9-7,2.9-10.8c0-3.8-1-7.4-2.9-10.9
			c-1.9-3.4-4.5-6.1-7.8-8c-3.3-1.9-6.7-2.9-10.4-2.9c-3.8,0-7.3,1-10.7,2.9c-3.4,1.9-6,4.5-7.8,7.8c-1.8,3.3-2.7,6.9-2.7,11
			c0,6.2,2,11.4,6.1,15.6C28.6,82.7,33.6,84.8,39.6,84.8z"/>
		<path class="st0" d="M74.3,36.5h7v7.8c2.1-3.1,4.3-5.4,6.6-6.9c2.3-1.5,4.8-2.3,7.3-2.3c1.9,0,3.9,0.6,6.1,1.8l-3.6,5.8
			c-1.4-0.6-2.7-0.9-3.6-0.9c-2.3,0-4.5,0.9-6.7,2.8c-2.1,1.9-3.8,4.8-4.9,8.8c-0.9,3.1-1.3,9.2-1.3,18.5v18.1h-7V36.5z"/>
		<path class="st0" d="M106.3,14.4c1.6,0,2.9,0.6,4,1.7c1.1,1.1,1.7,2.5,1.7,4c0,1.5-0.6,2.9-1.7,4c-1.1,1.1-2.4,1.7-4,1.7
			c-1.5,0-2.9-0.6-4-1.7c-1.1-1.1-1.7-2.4-1.7-4c0-1.6,0.6-2.9,1.7-4C103.4,15,104.7,14.4,106.3,14.4z M102.8,36.5h6.9v53.6h-6.9
			V36.5z"/>
		<path class="st0" d="M119.6,13.6h6.9v76.4h-6.9V13.6z"/>
		<path class="st0" d="M136.4,13.6h6.9v76.4h-6.9V13.6z"/>
		<path class="st0" d="M156.6,14.4c1.6,0,2.9,0.6,4,1.7c1.1,1.1,1.7,2.5,1.7,4c0,1.5-0.6,2.9-1.7,4c-1.1,1.1-2.5,1.7-4,1.7
			c-1.5,0-2.9-0.6-4-1.7c-1.1-1.1-1.7-2.4-1.7-4c0-1.6,0.6-2.9,1.7-4C153.7,15,155,14.4,156.6,14.4z M153.1,36.5h6.9v53.6h-6.9V36.5
			z"/>
		<path class="st0" d="M224.3,36.5v53.6h-6.8v-9.2c-2.9,3.5-6.1,6.2-9.7,7.9c-3.6,1.8-7.5,2.7-11.8,2.7c-7.6,0-14.1-2.7-19.4-8.2
			c-5.4-5.5-8-12.2-8-20.1c0-7.7,2.7-14.3,8.1-19.8c5.4-5.5,11.9-8.2,19.6-8.2c4.4,0,8.4,0.9,11.9,2.8c3.6,1.9,6.7,4.7,9.4,8.4v-9.8
			H224.3z M196.8,41.7c-3.8,0-7.4,0.9-10.6,2.8c-3.3,1.9-5.8,4.5-7.8,7.9c-1.9,3.4-2.9,7-2.9,10.8c0,3.8,1,7.4,2.9,10.8
			c1.9,3.4,4.5,6.1,7.8,8c3.3,1.9,6.8,2.9,10.5,2.9c3.8,0,7.3-1,10.7-2.9c3.4-1.9,6-4.5,7.8-7.7c1.8-3.2,2.7-6.9,2.7-11
			c0-6.2-2-11.4-6.1-15.6C207.8,43.8,202.8,41.7,196.8,41.7z"/>
		<path class="st0" d="M236.4,36.5h6.9v9.6c2.8-3.7,5.8-6.4,9.2-8.3c3.4-1.8,7-2.7,10.9-2.7c4,0,7.6,1,10.7,3.1
			c3.1,2,5.4,4.8,6.9,8.2c1.5,3.4,2.2,8.8,2.2,16.1v27.6h-6.9V64.5c0-6.2-0.2-10.3-0.8-12.4c-0.8-3.6-2.3-6.2-4.6-8
			c-2.3-1.8-5.2-2.7-8.9-2.7c-4.2,0-7.9,1.4-11.2,4.1c-3.3,2.8-5.5,6.2-6.5,10.3c-0.7,2.7-1,7.5-1,14.6v19.7h-6.9V36.5z"/>
		<path class="st0" d="M300.5,13.3h6.9v23.1h10.9v6h-10.9v47.6h-6.9V42.4h-9.4v-6h9.4V13.3z"/>
	</g>
	<g>
		<path class="st0" d="M333,80l1.8,1.9c-1.2,1-2.3,1.9-3.4,2.7c0.7,0.7,1.7,1.6,2.9,2.8c0.9,0.9,1.7,1.8,2.4,2.6H333l-3.6-3.7
			c-2.3,1.8-4.1,3-5.5,3.6c-1.4,0.5-2.9,0.8-4.5,0.8c-2.1,0-3.8-0.6-5-1.8c-1.3-1.2-1.9-2.7-1.9-4.5c0-1.3,0.4-2.7,1.3-4.1
			c0.9-1.4,2.6-3.1,5.2-5.1c-1.5-1.8-2.4-3.1-2.9-4c-0.4-0.8-0.6-1.7-0.6-2.4c0-1.3,0.5-2.5,1.6-3.3c1.2-1,2.7-1.5,4.5-1.5
			c1.1,0,2.2,0.2,3.1,0.7c0.9,0.5,1.7,1.1,2.1,1.8c0.5,0.8,0.7,1.6,0.7,2.4c0,0.9-0.3,1.9-1,2.9c-0.6,1-1.9,2.3-3.8,3.9L327,80
			l2.7,2.7C331.1,81.7,332.2,80.8,333,80z M320.9,77.3c-2.3,1.7-3.8,3.1-4.5,4.1c-0.7,1-1.1,2-1.1,2.8c0,1,0.4,1.9,1.3,2.7
			c0.9,0.8,1.9,1.2,3.2,1.2c1,0,1.9-0.2,2.8-0.6c1.4-0.6,3.1-1.7,5-3.2l-4.3-4.4C322.6,79.2,321.8,78.3,320.9,77.3z M321.2,73.7
			c1.3-1,2.3-2,3-3c0.5-0.7,0.7-1.3,0.7-1.9c0-0.6-0.3-1.2-0.9-1.6c-0.6-0.5-1.4-0.7-2.4-0.7c-1,0-1.7,0.2-2.3,0.7
			c-0.6,0.5-0.9,1-0.9,1.7c0,0.5,0.1,0.9,0.4,1.4C319.3,71.3,320.1,72.5,321.2,73.7z"/>
	</g>
	<g>
		<path class="st1" d="M344.2,36.5h6.9v9.3c2.4-3.4,4.9-5.9,7.4-7.5c3.5-2.1,7.2-3.2,11-3.2c2.6,0,5.1,0.5,7.4,1.5
			c2.3,1,4.2,2.4,5.7,4.1c1.5,1.7,2.8,4.1,3.8,7.3c2.3-4.2,5.2-7.4,8.6-9.6c3.4-2.2,7.2-3.3,11.1-3.3c3.7,0,7,0.9,9.8,2.8
			c2.8,1.9,4.9,4.5,6.3,7.8c1.4,3.4,2.1,8.4,2.1,15.1v29.3h-7V60.8c0-5.8-0.4-9.7-1.2-11.9c-0.8-2.1-2.2-3.9-4.2-5.2
			c-2-1.3-4.3-2-7.1-2c-3.3,0-6.4,1-9.2,3c-2.8,2-4.8,4.6-6.1,7.9c-1.3,3.3-1.9,8.8-1.9,16.5v21h-6.9V62.6c0-6.5-0.4-10.9-1.2-13.2
			c-0.8-2.3-2.2-4.2-4.2-5.6c-2-1.4-4.4-2.1-7.1-2.1c-3.2,0-6.2,1-8.9,2.9c-2.8,1.9-4.8,4.5-6.2,7.8c-1.3,3.3-2,8.2-2,14.9v22.7
			h-6.9V36.5z"/>
		<path class="st1" d="M437.9,14.4c1.6,0,2.9,0.6,4,1.7c1.1,1.1,1.7,2.5,1.7,4c0,1.5-0.6,2.9-1.7,4c-1.1,1.1-2.4,1.7-4,1.7
			c-1.5,0-2.9-0.6-4-1.7c-1.1-1.1-1.7-2.4-1.7-4c0-1.6,0.6-2.9,1.7-4C435,15,436.3,14.4,437.9,14.4z M434.5,36.5h6.9v53.6h-6.9V36.5
			z"/>
		<path class="st1" d="M451.2,13.6h6.9v76.4h-6.9V13.6z"/>
		<path class="st1" d="M468,13.6h6.9v76.4H468V13.6z"/>
		<path class="st1" d="M488.2,14.4c1.6,0,2.9,0.6,4,1.7c1.1,1.1,1.7,2.5,1.7,4c0,1.5-0.6,2.9-1.7,4c-1.1,1.1-2.5,1.7-4,1.7
			c-1.5,0-2.9-0.6-4-1.7c-1.1-1.1-1.7-2.4-1.7-4c0-1.6,0.6-2.9,1.7-4C485.3,15,486.6,14.4,488.2,14.4z M484.8,36.5h6.9v53.6h-6.9
			V36.5z"/>
		<path class="st1" d="M527.9,35.1c8.3,0,15.1,3,20.5,9c4.9,5.5,7.4,11.9,7.4,19.4c0,7.5-2.6,14-7.8,19.6
			c-5.2,5.6-11.9,8.4-20.1,8.4c-8.2,0-14.9-2.8-20.2-8.4c-5.2-5.6-7.8-12.1-7.8-19.6c0-7.4,2.5-13.9,7.4-19.3
			C512.8,38.1,519.6,35.1,527.9,35.1z M527.9,41.8c-5.7,0-10.7,2.1-14.8,6.4c-4.1,4.2-6.2,9.4-6.2,15.4c0,3.9,0.9,7.5,2.8,10.8
			c1.9,3.3,4.4,5.9,7.6,7.8c3.2,1.8,6.7,2.7,10.5,2.7c3.8,0,7.3-0.9,10.5-2.7c3.2-1.8,5.7-4.4,7.6-7.8c1.9-3.4,2.8-7,2.8-10.8
			c0-6-2.1-11.1-6.2-15.4C538.5,44,533.6,41.8,527.9,41.8z"/>
		<path class="st1" d="M565.2,36.5h6.9v9.6c2.8-3.7,5.8-6.4,9.2-8.3c3.3-1.8,7-2.7,10.9-2.7c4,0,7.6,1,10.7,3.1
			c3.1,2,5.4,4.8,6.9,8.2c1.5,3.4,2.2,8.8,2.2,16.1v27.6H605V64.5c0-6.2-0.3-10.3-0.8-12.4c-0.8-3.6-2.3-6.2-4.6-8
			c-2.3-1.8-5.2-2.7-8.9-2.7c-4.2,0-7.9,1.4-11.2,4.1c-3.3,2.8-5.5,6.2-6.5,10.3c-0.7,2.7-1,7.5-1,14.6v19.7h-6.9V36.5z"/>
	</g>
</g>
</svg>
