<svg xmlns="http://www.w3.org/2000/svg" viewBox="0 0 1024 768" style="enable-background:new 0 0 1024 768;"><style><![CDATA[.A{fill:#1C4CA0;stroke:#fff;stroke-width:4}.E{fill:#1C4CA0;stroke:#fff}]]></style><path class="A" d="M140.2 566.4c-28.8-25.3-36.4-58-36.4-86.6 0-20 6.2-54.6 34.3-80.4 21.2-19.4 49-31 92.8-31a300 300 0 0 1 42.6 2.9c11.2 1.5 20.5 4 29.4 5 3.2.3 4.4 1.8 4.4 3.5 0 2.3-1 5.9-1.5 16l-1 31.7c-.3 4.4-1 6.8-3.5 6.8-2.4 0-3-2.4-3-6.5-.3-9-4-19.4-11.5-27-9.7-10.3-32.6-18.2-59.6-18.2-25.5 0-42.3 6.5-55.2 18.2-21.4 19.6-27 47.6-27 76 0 69.9 53 104.5 92.5 104.5 26 0 42-3 53.7-16.5 5-5.6 8.8-14 10-19.4.9-4.7 1.5-6 3.8-6 2 0 2.6 2 2.6 4.4 0 3.5-3.5 29-6.5 39-1.5 5-2.6 6.5-7.6 8.5-11.7 4.7-34 6.8-53 6.8-40.2 0-74-8.8-100.6-32zM350 456.9l-.6-64.4c-.6-10.3-3-15.2-13-17.3a63 63 0 0 0-11.8-.9c-3.4 0-5.2-.6-5.2-2.7s2-2.7 6.7-2.7H414c38 0 51.7 12.8 56.5 17.3a53 53 0 0 1 15.2 36.2c0 43-31.6 73.5-74.7 73.5-1.5 0-5 0-6.4-.3s-3.7-.6-3.7-2.7c0-2.4 2.2-3.4 8.5-3.4 17 0 40.7-19 40.7-50 0-10-1-30.4-18-45.6a45 45 0 0 0-30.4-11.8c-4.5 0-9 .3-11.8 1.2-1.5.6-2.4 2.4-2.4 5.8v121.5c0 28 0 52 1.6 65 .9 8.5 2.7 15.2 11.8 16.4l15.5 1.2c3.3 0 4.9.9 4.9 2.4 0 2-2.4 3-5.8 3-20 0-39.2-1-47-1l-38.3.9c-4 0-6-1-6-3 0-1.5 1.2-2.4 4.8-2.4a51 51 0 0 0 11-1.2c6-1.2 7.6-8 8.8-16.7l1.5-64.7v-53.6zm197.3 81.7c-1.2 0-1.6.5-2 1.8L533 573.2c-2.3 5.7-3.4 11.2-3.4 14 0 4 2 7 9.2 7h3.4c2.8 0 3.4.5 3.4 1.8 0 1.8-1.4 2.3-4 2.3-7.3 0-17.2-.7-24.3-.7l-27 .7c-3 0-4.4-.5-4.4-2.3 0-1.4.9-1.8 2.7-1.8 2 0 5.3-.2 7-.4 10.5-1.4 14.9-9.2 19.5-20.6l57.5-144c2.8-6.6 4-9.2 6.4-9.2 2 0 3.4 2 5.7 7.3l56.8 140.9c8.7 20.6 15.4 23.8 20.2 25 3.5.7 6.9.9 9.6.9 1.8 0 3 .2 3 1.8 0 1.8-2 2.3-10.6 2.3-8.2 0-25 0-43.3-.5-4-.2-7-.2-7-1.8 0-1.4.9-1.8 3.2-2 1.6-.5 3.2-2.5 2-5.3L600.7 540c-.5-1-1.2-1.6-2.3-1.6h-51zm46.8-11.4c1.2 0 1.4-.7 1.2-1.4l-20.6-56.6c-.2-1-.4-2-1-2s-1 1-1.4 2l-21 56.4c-.2.9 0 1.6.9 1.6h42zm133.7 2c0 30 0 46.3 4.9 50.5 4 3.5 10 5.2 28.5 5.2 12.5 0 21.6-.2 27.5-6.6 2.8-3 5.7-9.6 6-14 .2-2 .7-3.5 2.6-3.5 1.6 0 1.9 1.2 1.9 4 0 2.6-1.6 20.2-3.5 27-1.4 5.2-2.6 6.4-14.8 6.4-17 0-29-.5-39.7-.7l-42-.5-16.2.5c-3 0-4.7-.7-4.7-2.3 0-1.2 1-2 3.8-2a44 44 0 0 0 8.5-.9c4.7-1 5.9-6 6.8-13l1.2-50-.5-91.2c-.5-8-2.3-11.8-10-13.4-2-.5-4.7-.7-7.8-.7-2.6 0-4-.5-4-2s1.6-2 5.2-2h64.2c3.3 0 4.9.5 4.9 2 0 1.7-1.4 2-4.2 2l-9.2.7c-6.3 1.2-8.2 5.2-8.7 13.4l-.5 91zm120.9 0c0 30 0 46.3 4.9 50.5 4 3.5 10 5.2 28.5 5.2 12.5 0 21.6-.2 27.5-6.6 2.8-3 5.6-9.6 6-14 .3-2 .7-3.5 2.6-3.5 1.6 0 1.9 1.2 1.9 4 0 2.6-1.6 20.2-3.5 27-1.4 5.2-2.6 6.4-14.8 6.4-17 0-29.2-.5-39.7-.7l-42-.5-16.2.5c-3 0-4.7-.7-4.7-2.3 0-1.2 1-2 3.8-2a44 44 0 0 0 8.5-.9c4.7-1 5.9-6 6.8-13l1.2-50-.5-91.2c-.5-8-2.3-11.8-10-13.4a33 33 0 0 0-7.7-.7c-2.6 0-4-.5-4-2s1.6-2 5.2-2h64.2c3.3 0 4.9.5 4.9 2 0 1.7-1.4 2-4.2 2l-9 .7c-6.3 1.2-8.3 5.2-8.7 13.4l-.5 91z"/><g stroke-width="4" stroke="#fff"><path d="M533 326l12.2-70.8s6.6-85 84.9-73.3c64.7 9.5 89 9.7 111.7-17.6 0 0 15.9 116.8-89 116H616s-32-3.4-54.8 10.7c-11.5 7.3-20 18.6-28.2 34.9z" fill="#01a7df"/><path d="M511.2 367.3l11.5-73c2-12.8 2.7-24.8-1-37.5-9-31.6-39-40.6-68-43.8-27-3-53.5-5-79.4-14.3-6.8-2.5-13.4-5.3-19.8-8.7-14.4-7.7-28.6-19.4-34-35.4-1.3-4-5-15.8-2.6-19.7 0 0-57.4 98.9-2 157.2 57.2 60 179-11.5 195.2 75.3z" fill="#ec1c24"/><path d="M531.5 243.3l9-49.2c2.9-17.4 4.2-33-3.2-46.7-12.4-23-49.8-39.4-62.2-55-9.5-12-4.6-25.7-4.6-25.7s-34.2 36.4-29.3 80.3c4.9 43.7 48.4 45.6 69.7 63 18.9 15.6 20.6 33.2 20.6 33.2z" fill="#38b14a"/></g><path class="E" d="M140.2 566.4c-28.8-25.3-36.4-58-36.4-86.6 0-20 6.2-54.6 34.3-80.4 21.2-19.4 49-31 92.8-31a300 300 0 0 1 42.6 2.9c11.2 1.5 20.5 4 29.4 5 3.2.3 4.4 1.8 4.4 3.5 0 2.3-1 5.9-1.5 16l-1 31.7c-.3 4.4-1 6.8-3.5 6.8-2.4 0-3-2.4-3-6.5-.3-9-4-19.4-11.5-27-9.7-10.3-32.6-18.2-59.6-18.2-25.5 0-42.3 6.5-55.2 18.2-21.4 19.6-27 47.6-27 76 0 69.9 53 104.5 92.5 104.5 26 0 42-3 53.7-16.5 5-5.6 8.8-14 10-19.4.9-4.7 1.5-6 3.8-6 2 0 2.6 2 2.6 4.4 0 3.5-3.5 29-6.5 39-1.5 5-2.6 6.5-7.6 8.5-11.7 4.7-34 6.8-53 6.8-40.2 0-74-8.8-100.6-32zM350 456.9l-.6-64.4c-.6-10.3-3-15.2-13-17.3a63 63 0 0 0-11.8-.9c-3.4 0-5.2-.6-5.2-2.7s2-2.7 6.7-2.7H414c38 0 51.7 12.8 56.5 17.3a53 53 0 0 1 15.2 36.2c0 43-31.6 73.5-74.7 73.5-1.5 0-5 0-6.4-.3s-3.7-.6-3.7-2.7c0-2.4 2.2-3.4 8.5-3.4 17 0 40.7-19 40.7-50 0-10-1-30.4-18-45.6a45 45 0 0 0-30.4-11.8c-4.5 0-9 .3-11.8 1.2-1.5.6-2.4 2.4-2.4 5.8v121.5c0 28 0 52 1.6 65 .9 8.5 2.7 15.2 11.8 16.4l15.5 1.2c3.4 0 4.9.9 4.9 2.4 0 2-2.5 3-5.8 3-20 0-39.2-1-47-1l-38.3.9c-4 0-6-1-6-3 0-1.5 1.2-2.4 4.8-2.4a51 51 0 0 0 11-1.2c6-1.2 7.6-8 8.8-16.7l1.5-64.7v-53.6zm197.3 81.7c-1.2 0-1.6.5-2 1.8L533 573.2c-2.3 5.7-3.4 11.2-3.4 14 0 4 2 7 9.2 7h3.4c2.8 0 3.4.5 3.4 1.8 0 1.8-1.4 2.3-4 2.3-7.3 0-17.2-.7-24.3-.7l-27 .7c-3 0-4.4-.5-4.4-2.3 0-1.4.9-1.8 2.7-1.8 2 0 5.3-.2 7-.4 10.5-1.4 14.9-9.2 19.5-20.6l57.5-144c2.8-6.6 4-9.2 6.4-9.2 2 0 3.4 2 5.7 7.3l56.8 140.9c8.7 20.6 15.4 23.8 20.2 25 3.5.7 6.9.9 9.6.9 1.8 0 3 .2 3 1.8 0 1.8-2 2.3-10.6 2.3-8.2 0-25 0-43.3-.5-4-.2-7-.2-7-1.8 0-1.4.9-1.8 3.2-2 1.6-.5 3.2-2.5 2-5.3L600.7 540c-.5-1-1.2-1.6-2.3-1.6h-51zm46.8-11.4c1.2 0 1.4-.7 1.2-1.4l-20.6-56.6c-.2-1-.4-2-1-2s-1 1-1.4 2l-21 56.4c-.2.9 0 1.6.9 1.6h42zm133.7 2c0 30 0 46.3 4.9 50.5 4 3.5 10 5.2 28.5 5.2 12.5 0 21.6-.2 27.5-6.6 2.8-3 5.7-9.6 6-14 .2-2 .7-3.5 2.6-3.5 1.6 0 1.9 1.2 1.9 4 0 2.6-1.6 20.2-3.5 27-1.4 5.2-2.6 6.4-14.8 6.4-17 0-29-.5-39.7-.7l-42-.5-16.2.5c-3 0-4.7-.7-4.7-2.3 0-1.2 1-2 3.8-2a44 44 0 0 0 8.5-.9c4.7-1 5.9-6 6.8-13l1.2-50-.5-91.2c-.5-8-2.3-11.8-10-13.4-2-.5-4.7-.7-7.8-.7-2.6 0-4-.5-4-2s1.6-2 5.2-2h64.2c3.3 0 4.9.5 4.9 2 0 1.7-1.4 2-4.2 2l-9.2.7c-6.3 1.2-8.2 5.2-8.7 13.4l-.5 91zm120.9 0c0 30 0 46.3 4.9 50.5 4 3.5 10 5.2 28.5 5.2 12.5 0 21.6-.2 27.5-6.6 2.8-3 5.6-9.6 6-14 .3-2 .7-3.5 2.6-3.5 1.6 0 1.9 1.2 1.9 4 0 2.6-1.6 20.2-3.5 27-1.4 5.2-2.6 6.4-14.8 6.4-17 0-29.2-.5-39.7-.7l-42-.5-16.2.5c-3 0-4.7-.7-4.7-2.3 0-1.2 1-2 3.8-2a44 44 0 0 0 8.5-.9c4.7-1 5.9-6 6.8-13l1.2-50-.5-91.2c-.5-8-2.3-11.8-10-13.4a33 33 0 0 0-7.7-.7c-2.6 0-4-.5-4-2s1.6-2 5.2-2h64.2c3.3 0 4.9.5 4.9 2 0 1.7-1.4 2-4.2 2l-9 .7c-6.3 1.2-8.3 5.2-8.7 13.4l-.5 91z"/><g stroke="#fff"><path d="M533 326l12.2-70.8s6.6-85 84.9-73.3c64.7 9.5 89 9.7 111.7-17.6 0 0 15.9 116.8-89 116H616s-32-3.4-54.8 10.7c-11.5 7.3-20 18.6-28.2 34.9z" fill="#01a7df"/><path d="M511.2 367.3l11.5-73c2-12.8 2.7-24.8-1-37.5-9-31.6-39-40.6-68-43.8-27-3-53.5-5-79.4-14.3-6.8-2.5-13.4-5.3-19.8-8.7-14.4-7.7-28.6-19.4-34-35.4-1.3-4-5-15.8-2.6-19.7 0 0-57.4 98.9-2 157.2 57.2 60 179-11.5 195.2 75.3z" fill="#ec1c24"/><path d="M531.5 243.3l9-49.2c2.9-17.4 4.2-33-3.2-46.7-12.4-23-49.8-39.4-62.2-55-9.5-12-4.6-25.7-4.6-25.7s-34.2 36.4-29.3 80.3c4.9 43.7 48.4 45.6 69.7 63 18.9 15.6 20.6 33.2 20.6 33.2z" fill="#38b14a"/></g></svg>