<?xml version="1.0" encoding="utf-8"?>
<!-- Generator: Adobe Illustrator 22.0.0, SVG Export Plug-In . SVG Version: 6.00 Build 0)  -->
<svg version="1.1" id="Layer_1" xmlns="http://www.w3.org/2000/svg" xmlns:xlink="http://www.w3.org/1999/xlink" x="0px" y="0px"
	 viewBox="0 0 283 71" style="enable-background:new 0 0 283 71;" xml:space="preserve">
<style type="text/css">
	.st0{fill:#F47C20;}
</style>
<g>
	<g>
		<path class="st0" d="M13,2.1h24.9c23.5,0,36.4,12.4,34.3,35c-2.1,22.9-18,35-42.6,35H2L13,2.1z M30.6,57.4
			c11.8,0,20.2-7.9,21.8-19.4l0.3-2.1c1.7-11.8-4.4-19.1-15.5-19.1h-7.3l-6.4,40.6H30.6z M76.3,44.1c2.7-17,13.5-25.2,30.7-25.2
			c15.2,0,23.3,8.1,21.1,22l-1.5,9.4H93.4c-0.9,5.8,1.3,9.1,10.8,9.1h21l-2,12.7h-22.5C82.9,72.1,73.5,61.5,76.3,44.1z M113,40.2
			c1.1-6.7-0.9-10.3-7.2-10.3c-5.8,0-9.7,3.3-10.8,10.3H113z M137.4,20.1h18.7l-3.3,20.6h1.9l20-20.6h18.2l-0.6,3.7l-22.3,22
			l15.4,21.6l-0.7,4.7h-18.2L153,51.7h-1.9l-3.2,20.4h-18.7L137.4,20.1z M187.2,39h22.5l-2.2,13.8H185L187.2,39z M222.1,2.1H247
			c23.5,0,36.4,12.4,34.3,35c-2.1,22.9-18,35-42.6,35h-27.6L222.1,2.1z M239.7,57.4c11.8,0,20.2-7.9,21.8-19.4l0.3-2.1
			c1.7-11.8-4.4-19.1-15.5-19.1H239l-6.4,40.6H239.7z"/>
	</g>
</g>
</svg>
