<svg xmlns="http://www.w3.org/2000/svg" viewBox="0 0 740.8 372.7"><style><![CDATA[.B{fill:#005A9D}]]></style><path d="M164.5 58.4c-12.4 6.5-44.1 25.7-85.3 70.8-38.8 42.7-71.6 98.2-77.7 108.9v24.1c6-13.2 37.8-80.5 79.3-128.4 43.5-50.4 72.2-69.2 83.7-75.4zM76.2 88.7c43.2-33.4 99.2-57.6 99.2-57.6s-48.8 17.1-93.9 45.1c-18.2 11.3-42.9 27.1-80.1 61.9v17.3c5.9-6 36.1-36.8 74.8-66.7zM61.8 73.2c47.4-29.2 99.7-47 99.7-47s-25.8 4.2-65.8 20.5C32 72.7 5.3 95.7 1.5 99.2v20.7c2.8-3.4 18.7-21.1 60.3-46.7zm186.1-9.9s-55 37.5-53.8 135.7c.5 46.2 12.2 84.2 14.1 90.1h36.6c-2.7-5.1-17.1-33.2-25-68.2-24.9-110.7 28.1-157.6 28.1-157.6zM250.7 1H1.5v74.8c8-5.3 48.5-30.7 108.4-47.6 41-11.6 98.6-22.5 140.8-27.2zm-71 39.9s-29.2 9.1-79.6 44.3c-54.2 37.9-92 86.1-98.6 94.9v29.1c3.8-7.6 18.7-34.9 58.1-80 50.5-57.8 120.1-88.3 120.1-88.3zm13.6 13.7s-33.5 13.9-86.4 70.5C49.5 186.5 10 279.5 6.1 289.1h28.3c2-10.6 18.7-90.4 70.7-153.8 48.1-58.7 88.2-80.7 88.2-80.7zM224 70.1s-61 49.7-64.8 146.3c-1.6 40.8 7.6 68.9 8.9 72.7h26c-1.6-3.8-8-20.8-12.5-52.2C165.7 125.8 224 70.1 224 70.1zm6.9 115.6c9.4 61.5 28.5 97.7 31.7 103.4h27.5V42.3c-4.7 3.2-73.2 52.3-59.2 143.4zM215.3 65.2s-58.4 42.1-79.2 130.8c-11.6 49.5-5.1 87.2-4 93.2h22.7c-1.1-3-7.5-21.4-8.5-58.3-2.8-101.6 69-165.7 69-165.7zm-21.6 5.7s-32.6 25-64.8 85.3c-32.2 60.2-33.7 125-33.7 133H116c-.6-6.2-4-46.1 5-84.5 20.8-88.7 72.7-133.8 72.7-133.8zm-11.7.7s-30.3 15.9-78.1 88.7c-33.2 50.6-49.8 119-52 128.8h26.6c-.2-6.1-.9-45.3 14.8-87.9C126.2 111.8 182 71.6 182 71.6z" fill="#00acdc"/><path class="B" d="M462.9.9c-8 0-14.5 6.5-14.5 14.5v260.3a13.87 13.87 0 0 0 13.9 13.9c7.9 0 14.8-6.5 14.8-13.9V157.5h41.5c8 0 14.5-6.5 14.5-14.5s-6.5-14.5-14.5-14.5h-41.5V29.9h41.5c8 0 14.5-6.5 14.5-14.5S526.6.9 518.6.9h-55.7zm-7.6 274.8V15.4c0-4.2 3.4-7.5 7.5-7.5h55.7c4.2 0 7.5 3.4 7.5 7.5 0 4.2-3.4 7.5-7.5 7.5h-48.4v112.6h48.4c4.2 0 7.5 3.4 7.5 7.5 0 4.2-3.4 7.5-7.5 7.5h-48.4v125.1c0 3.6-3.7 7-7.8 7-3.9.1-7-3-7-6.9zM560.9.9c-8 0-14.5 6.5-14.5 14.5v259.1c0 8 6.5 14.5 14.5 14.5h55.7c8 0 14.5-6.5 14.5-14.5s-6.4-14.2-14.5-14.2h-41.2V157.5h41.2c8 0 14.5-6.5 14.5-14.5 0-8.2-6.6-15.1-14.5-15.1h-41.2V29.8h41.2c8 0 14.5-6.5 14.5-14.5S624.6.8 616.6.8h-55.7zm-7.5 273.7V15.4c0-4.2 3.4-7.5 7.5-7.5h55.7c4.2 0 7.5 3.4 7.5 7.5 0 4.2-3.4 7.5-7.5 7.5h-48.2v112h48.2c4 0 7.5 3.8 7.5 8.1 0 4.2-3.4 7.5-7.5 7.5h-48.2v116.7h48.2c4.2 0 7.5 3.2 7.5 7.2 0 4.2-3.4 7.5-7.5 7.5h-55.7c-4.2.2-7.5-3.2-7.5-7.3zM655.5.9c-8 0-14.5 6.5-14.5 14.5v259.1c0 8 6.5 14.5 14.5 14.5h70.8c8 0 14.2-6.5 14.2-14.5v-75.8c0-7.7-6.5-13.9-14.2-13.9a13.87 13.87 0 0 0-13.9 13.9v60.7H670V28.1h42.4v47a13.87 13.87 0 1 0 27.8 0V14.8A13.87 13.87 0 0 0 726.3.9h-70.8zm-7.6 273.7V15.4c0-4.2 3.4-7.5 7.5-7.5h70.8c3.8 0 7 3.1 7 7v60.3c0 3.8-3.1 7-7 7-3.8 0-7-3.1-7-7v-54H663v245.2h56.3v-67.7c0-3.8 3.1-7 7-7 3.8 0 7.2 3.1 7.2 7v75.8c0 4.1-3 7.5-7.2 7.5h-70.8a7.43 7.43 0 0 1-7.6-7.4zM406.4 9.1l-.2.3-35.6 127.2L333.7 8.2l-.3-.5c-3.2-4.6-7.1-6.8-12.1-6.8a13.87 13.87 0 0 0-13.9 13.9v260.9a13.87 13.87 0 1 0 27.8 0V130.4L371.1 245l34-113.6v144.4c0 7.7 6.6 13.9 14.3 13.9a13.87 13.87 0 0 0 13.9-13.9v-261A13.87 13.87 0 0 0 419.4.9c-5.8 0-10.2 2.8-13 8.2zm12.9-1.2c3.8 0 7 3.1 7 7v260.9c0 3.8-3.1 7-7 7-3.8 0-7.4-3.1-7.4-7V81.6l-41 139.4-42.4-138v192.7c0 3.8-3.3 7-7.2 7-3.8 0-7-3.1-7-7V14.8c0-3.8 3.1-7 7-7 1.9 0 3.9.5 6.1 3.4.3 1.2 43.3 150.9 43.3 150.9l42-150.1c2-3.6 4.5-4.1 6.6-4.1zM1.5 307.2c3.1-.6 7.2-1 12.3-1 6.4 0 11 1.5 14 4.1 2.7 2.4 4.4 6 4.4 10.4 0 4.5-1.3 8-3.9 10.6-3.4 3.6-8.9 5.5-15.2 5.5-1.9 0-3.7-.1-5.2-.4v19.9H1.5v-49.1zm6.4 23.9c1.4.4 3.2.5 5.3.5 7.8 0 12.5-3.8 12.5-10.6 0-6.6-4.7-9.8-11.7-9.8-2.8 0-4.9.3-6.1.5v19.4zm61.5 15.5c0 3.7.1 6.9.3 9.7h-5.8l-.4-5.8h-.1c-1.6 2.9-5.5 6.6-11.8 6.6-5.6 0-12.3-3.2-12.3-15.7v-20.9h6.5v19.7c0 6.8 2.1 11.5 8 11.5 4.4 0 7.4-3 8.6-6 .4-.9.6-2.1.6-3.3v-21.9h6.5v26.1zm10.8-42.7h6.5v22.4h.1c2.3-4 6.4-6.5 12.2-6.5 8.9 0 15.1 7.4 15.1 18.2 0 12.8-8.1 19.2-16.1 19.2-5.2 0-9.2-2-12-6.7h-.1l-.4 5.9h-5.6c.2-2.4.3-6.1.3-9.2v-43.3zm6.5 38.1c0 .8.1 1.6.2 2.4 1.3 4.5 5.1 7.6 9.8 7.6 6.9 0 10.9-5.5 10.9-13.7 0-7.2-3.7-13.4-10.6-13.4-4.4 0-8.6 3.1-9.8 8-.2.8-.4 1.7-.4 2.7v6.4zm35.5-38.1h6.5v52.4h-6.5v-52.4zm20.4 10.1c-2.4 0-4.1-1.9-4.1-4.2s1.7-4.1 4.2-4.1 4.1 1.8 4.1 4.1c.1 2.3-1.6 4.2-4.2 4.2zm-3.1 42.3v-35.7h6.5v35.7h-6.5zm42.7-1.2c-1.7.8-5.5 2.1-10.3 2.1-10.8 0-17.8-7.3-17.8-18.3s7.5-19.1 19.2-19.1c3.8 0 7.2 1 9 1.9l-1.5 5c-1.5-.8-4-1.7-7.5-1.7-8.2 0-12.6 6.1-12.6 13.6 0 8.3 5.3 13.4 12.4 13.4 3.7 0 6.1-.9 8-1.7l1.1 4.8zm58.2-.3c-2.3 1.2-7.1 2.4-13.1 2.4-14 0-24.5-8.9-24.5-25.3 0-15.7 10.6-26.1 26-26.1 6.1 0 10.1 1.3 11.8 2.2l-1.6 5.2c-2.4-1.2-5.8-2.1-10-2.1-11.7 0-19.4 7.5-19.4 20.5 0 12.3 7 20 19.1 20 4 0 8-.8 10.6-2.1l1.1 5.3zm21.5 2.3c-9.6 0-17.1-7.1-17.1-18.4 0-12 7.9-19 17.7-19 10.3 0 17.2 7.5 17.2 18.3 0 13.4-9.2 19.1-17.8 19.1zm.2-4.8c6.2 0 10.9-5.8 10.9-14 0-6.1-3-13.7-10.7-13.7-7.6 0-10.9 7.1-10.9 13.9 0 7.9 4.4 13.8 10.7 13.8zm25.8-22c0-3.8-.1-6.7-.3-9.7h5.7l.3 5.8h.2c2-3.4 5.3-6.6 11.3-6.6 4.8 0 8.5 3 10 7.2h.1c1.1-2.1 2.6-3.5 4.1-4.7 2.1-1.6 4.4-2.5 7.8-2.5 4.8 0 11.8 3.1 11.8 15.5v21h-6.4v-20.2c0-6.9-2.6-11-7.8-11-3.8 0-6.6 2.7-7.8 5.8-.3 1-.5 2.1-.5 3.2v22.2H310v-21.4c0-5.8-2.5-9.8-7.5-9.8-4 0-7 3.2-8 6.5-.4 1-.5 2.1-.5 3.2v21.6h-6.4v-26.1zm61.6 2c0-4.6-.1-8.3-.3-11.7h5.8l.4 6.1h.1c2.6-4.4 6.9-6.9 12.6-6.9 8.7 0 15.2 7.3 15.2 18.2 0 12.8-7.9 19.2-16.3 19.2-4.8 0-8.9-2.1-11-5.6V371h-6.5v-38.7zm6.5 9.5a12.41 12.41 0 0 0 .3 2.7c1.1 4.5 5.1 7.6 9.7 7.6 6.9 0 10.9-5.6 10.9-13.8 0-7.2-3.7-13.3-10.6-13.3-4.4 0-8.6 3.1-9.9 8-.1.9-.4 1.8-.4 2.7v6.1zm60.7 6c0 3.1.1 6.1.5 8.6h-5.8l-.6-4.5h-.2c-1.9 2.8-5.8 5.3-10.9 5.3-7.2 0-10.9-5.1-10.9-10.3 0-8.6 7.7-13.4 21.5-13.3v-.7c0-3-.8-8.3-8.1-8.3-3.4 0-6.9 1-9.4 2.7l-1.5-4.4c3-1.8 7.3-3.1 11.8-3.1 11 0 13.7 7.5 13.7 14.6v13.4zm-6.3-9.7c-7.1-.2-15.1 1.1-15.1 8 0 4.3 2.8 6.2 6.1 6.2 4.7 0 7.8-3 8.8-6 .2-.7.3-1.4.3-2.1v-6.1zm16.7-7.8c0-3.8-.1-6.7-.3-9.7h5.8l.4 5.8h.1c1.8-3.3 5.9-6.7 11.8-6.7 4.9 0 12.6 3 12.6 15.2v21.3H451v-20.6c0-5.8-2.1-10.6-8.3-10.6-4.2 0-7.5 3-8.7 6.6-.3.8-.4 2-.4 3v21.6h-6.5v-25.9zm42.4-9.7l7.8 21.1a102.79 102.79 0 0 1 2.4 7.3h.1c.7-2.1 1.4-4.9 2.3-7.5l7.1-21h6.9l-9.8 25.5c-4.7 12.3-7.8 18.5-12.3 22.5-3.2 2.7-6.3 3.8-8 4.1l-1.6-5.5c1.6-.4 3.8-1.5 5.7-3.2 1.8-1.4 3.9-3.9 5.5-7.2.3-.7.5-1.1.5-1.6 0-.4-.1-.9-.5-1.6l-13.1-33h7zm48.3-14h6.5V351h21.3v5.4h-27.8v-49.8zm37.8 7.4c-2.4 0-4.1-1.9-4.1-4.2s1.7-4.1 4.2-4.1 4.1 1.8 4.1 4.1c.1 2.3-1.6 4.2-4.2 4.2zm-3.1 42.3v-35.7h6.5v35.7h-6.5zm17.3-26c0-3.8-.1-6.7-.3-9.7h5.7l.3 5.8h.2c2-3.4 5.3-6.6 11.3-6.6 4.8 0 8.5 3 10 7.2h.1c1.1-2.1 2.6-3.5 4.1-4.7 2.1-1.6 4.4-2.5 7.8-2.5 4.8 0 11.8 3.1 11.8 15.5v21h-6.4v-20.2c0-6.9-2.6-11-7.8-11-3.8 0-6.6 2.7-7.8 5.8-.3 1-.5 2.1-.5 3.2v22.2h-6.4v-21.4c0-5.8-2.5-9.8-7.5-9.8-4 0-7 3.2-8 6.5-.4 1-.5 2.1-.5 3.2v21.6h-6.3v-26.1zm64.6-16.3c-2.4 0-4.1-1.9-4.1-4.2s1.7-4.1 4.2-4.1 4.1 1.8 4.1 4.1c.1 2.3-1.5 4.2-4.2 4.2zm-3.1 42.3v-35.7h6.5v35.7h-6.5zm25.2-44.3v8.6h9.3v4.9h-9.3v19.3c0 4.4 1.3 6.9 4.9 6.9 1.8 0 2.8-.2 3.8-.5l.3 5c-1.3.4-3.2.9-5.8.9-3 0-5.5-1-7-2.7-1.8-2-2.5-5.2-2.5-9.4v-19.5h-5.5v-4.9h5.5V314l6.3-2zm19.8 27.6c.1 8.8 5.7 12.4 12.2 12.4 4.7 0 7.5-.8 9.9-1.8l1.2 4.6c-2.3 1-6.3 2.3-12 2.3-10.9 0-17.6-7.3-17.6-18 0-10.9 6.4-19.3 16.8-19.3 11.7 0 14.7 10.3 14.7 16.8a22.79 22.79 0 0 1-.2 3.1l-25-.1zm19-4.7c.1-4.1-1.7-10.6-8.9-10.6-6.6 0-9.5 6.1-10 10.6h18.9zm45.2-31v43.2c0 3.2.1 6.8.3 9.2H735l-.3-6.2h-.1c-2 4-6.3 7-12.1 7-8.6 0-15.4-7.3-15.4-18.2-.1-12 7.4-19.2 16-19.2 5.5 0 9.2 2.6 10.8 5.4h.1v-21.3h6.5zm-6.5 31.2a13.33 13.33 0 0 0-.3-2.8c-1-4.1-4.5-7.5-9.4-7.5-6.7 0-10.7 5.9-10.7 13.7 0 7.3 3.6 13.3 10.6 13.3 4.4 0 8.3-3 9.5-7.8a12.65 12.65 0 0 0 .3-2.8v-6.1z"/></svg>