<?xml version="1.0" encoding="utf-8"?>
<!-- Generator: Adobe Illustrator 21.0.0, SVG Export Plug-In . SVG Version: 6.00 Build 0)  -->
<svg version="1.1" id="Layer_1" xmlns="http://www.w3.org/2000/svg" xmlns:xlink="http://www.w3.org/1999/xlink" x="0px" y="0px"
	 viewBox="0 0 1190.6 841.9" style="enable-background:new 0 0 1190.6 841.9;" xml:space="preserve">
<style type="text/css">
	.st0{fill:#FBDB6D;}
</style>
<g>
	<polygon points="146.9,366.9 104.5,428.4 62.1,366.9 54.1,366.9 54.1,473.8 62.1,473.8 62.1,378.9 104.5,442.6 146.9,378.9 
		146.9,473.8 154.9,473.8 154.9,366.9 	"/>
	<polygon points="638.6,367.2 638.6,463.1 565.6,367.2 557.6,367.2 557.6,473.7 565.6,473.7 565.6,377.7 638.6,473.7 646.6,473.7 
		646.6,367.2 	"/>
	<path d="M720.1,476.1c-0.1,0-0.2,0-0.3,0c-21.1-0.1-36.2-11.6-41.2-17.7l6.2-5.1c3.4,4.1,16.3,14.7,35.1,14.8c0.1,0,0.2,0,0.2,0
		c16.8,0,28.2-9.1,28.5-22.6c0.2-10-11.5-17.7-34.9-23c-20.5-4.6-30.5-13.9-30.6-28.5c-0.1-6.9,2.8-13.6,8.1-18.9
		c6.8-6.8,16.8-10.5,28.1-10.4c21.3,0.2,34.5,14.5,35.1,15.1l-5.9,5.4c-0.1-0.1-11.6-12.3-29.3-12.5c-9.2-0.1-17.1,2.8-22.4,8
		c-3.7,3.7-5.8,8.4-5.7,13.1c0,6.6,2.6,15.8,24.4,20.7c10.3,2.3,41.5,9.3,41.1,30.9C756.3,463.6,741.3,476.1,720.1,476.1z"/>
	<polygon points="868.3,367.2 868.3,415.3 800.8,415.3 800.8,367.2 792.8,367.2 792.8,415.3 792.8,424.9 792.8,473.7 800.8,473.7 
		800.8,424.9 868.3,424.9 868.3,473.7 876.3,473.7 876.3,424.9 876.3,415.3 876.3,367.2 	"/>
	<path d="M965.9,364.9c-29.9,0-54.1,24.9-54.1,55.6s24.2,55.6,54.1,55.6s54.1-24.9,54.1-55.6S995.8,364.9,965.9,364.9z M965.9,468.2
		c-25.4,0-46.1-21.4-46.1-47.6c0-26.2,20.7-47.6,46.1-47.6s46.1,21.4,46.1,47.6C1012,446.8,991.3,468.2,965.9,468.2z"/>
	<polygon points="1136.5,365.9 1099.6,365.9 1091.6,365.9 1054.7,365.9 1054.7,375.4 1091.6,375.4 1091.6,473.7 1099.6,473.7 
		1099.6,375.4 1136.5,375.4 	"/>
	<path class="st0" d="M439.4,339.4c-15,0-29,4-41.1,11.1c-21.5-28.6-55.6-47.1-94.2-47.1c-65,0-117.6,52.7-117.6,117.6
		s52.7,117.6,117.6,117.6c38.5,0,72.7-18.5,94.2-47.1c12.1,7,26.1,11.1,41.1,11.1c45.1,0,81.6-36.5,81.6-81.6
		S484.5,339.4,439.4,339.4z M304.2,524.3c-57,0-103.3-46.4-103.3-103.3s46.4-103.3,103.3-103.3c33.6,0,63.6,16.2,82.5,41.1
		c-17.6,15-28.8,37.3-28.8,62.2c0,24.9,11.2,47.2,28.8,62.2C367.8,508.1,337.8,524.3,304.2,524.3z M372.2,420.9
		c0-19.9,8.7-37.8,22.4-50.1c8.3,14.8,13,31.9,13,50.1s-4.7,35.2-13,50.1C380.8,458.7,372.2,440.8,372.2,420.9z M439.4,488.2
		c-12.1,0-23.4-3.2-33.2-8.8c9.9-17.2,15.6-37.2,15.6-58.5s-5.7-41.3-15.6-58.5c9.8-5.6,21.1-8.8,33.2-8.8
		c37.1,0,67.3,30.2,67.3,67.3S476.6,488.2,439.4,488.2z"/>
	<rect x="411.5" y="524.2" class="st0" width="55" height="14.3"/>
</g>
</svg>
