<svg xmlns="http://www.w3.org/2000/svg" viewBox="0 0 841.9 595.3" style="enable-background:new 0 0 841.9 595.3;"><style><![CDATA[.A{fill:#652F8F}.B{fill:#8331A7}]]></style><path class="A" d="M279.3 133.7c-1 0-2-.4-2.8-1.2-3.8-3.7-7.6-5.5-11.2-5.3-5.5.3-9.4 4.9-9.4 4.9-1.4 1.7-4 2-5.7.6s-2-4-.6-5.7c.2-.3 6-7.4 15.2-8 6-.4 11.9 2.2 17.4 7.5 1.6 1.6 1.6 4 .1 5.7-1 1-2 1.4-3 1.4"/><path class="A" d="M155 267.6c-2 0-4-.6-6-2A120 120 0 0 1 99.7 169c0-66 53.6-119.4 119.4-119.4 61.2 0 111.8 46.3 118.7 105.6l16.7-.1A120 120 0 0 1 473.2 49.5c65.9 0 119.4 53.6 119.4 119.4a120 120 0 0 1-49.3 96.7c-4.5 3.3-11 2.3-14.2-2.2s-2.3-11 2.2-14.2c25.6-18.6 40.9-48.6 40.9-80.3 0-54.7-44.5-99.2-99.2-99.2-50 0-91.7 37.4-98.3 85.8l33.8 1c67 2.9 71.6 7.4 75 11 3 3 6.4 9.2 4.3 20.3-3.6 18.9-21 45-41.2 53.6-8.5 3.6-17.3 5.4-26 5.4-25 0-49-14.3-60-38.2l-.3.1c-3.8-10.8-6-22-6.6-33.4-2.6 0-5.2-.1-7.7-.1l-7.8.1c-.6 11.4-2.8 22.6-6.6 33.4l-.3-.1c-7 15.4-19.7 27.2-35.4 33.5a66 66 0 0 1-50.7-.6c-21.7-9.3-37.7-37.5-41-54.2-1.7-8.7-.3-15.3 4-19.7 3.5-3.6 7.6-7.6 74.8-10.7l34-1.3c-6.5-48.4-48-86-98.3-86-54.7 0-99.2 44.5-99.2 99.2 0 31.7 15.3 61.7 40.9 80.3 4.5 3.3 5.5 9.6 2.2 14.2-1.7 2.6-4.8 4-8 4m69-85.2c1 9.6 14 34 29.3 40.5 11.3 4.9 23.8 5 35.2.5a46 46 0 0 0 25.2-24.6h.1c2.3-7.4 3.8-15 4.3-23l-94 6.5m154.6 16.4a46 46 0 0 0 60.3 24.1c15.9-6.8 29-31.6 29.6-40.6-11.7-3-52-5.5-94.4-6.5.6 7.8 2 15.5 4.5 23zm61-65c-1.2 0-2.3-.5-3-1.5-.1-.1-4-4.6-9.4-5-3.7-.2-7.4 1.6-11.2 5.3a4 4 0 1 1-5.6-5.8c5.5-5.4 11.4-8 17.4-7.5 9 .5 14.9 7.6 15.2 7.9a4 4 0 0 1-.6 5.7c-1 .5-1.8.8-2.7.8M7.2 289.7l.3-23.8 68.8-.8c12.7 0 25.8 0 41.6 4.8 22.9 7.4 38 30.6 38 54.7 0 22.4-14.5 43-33.4 52.7a109 109 0 0 1-39.7 8.8c-3.7 0-11.3 0-13.3-.3l-.3 39.4 25.8.8-.3 23.5c-14.2 0-33.7-.3-51-.3l-36.3.3A599 599 0 0 1 8 426l13.3-.8c.8 0 1-.6 1-1V290.3l-15.2-.6zM69.6 359c0 2.8 5 2.8 9.9 2.8 7 0 14.2-2.6 19.3-7.4 6-6 9.4-16.2 9.4-28.6 0-21-12.7-38-29-38l-9 .8-.6 70.4zm169 80.8c-17 8.5-30.6 12.5-41.4 12.5-14.7 0-36.5-15-36.5-33 0-15.6 18.7-42.8 63.7-42.8H238c.8-14-4.5-22.4-17.3-22.4-9.4 0-24.4 8.2-35.7 15.9-5-6-10.2-13.3-14.7-20 20.4-16.7 41.4-28 68.6-28a44 44 0 0 1 43.3 42.5l-.6 57.8c0 1.7 0 2.3 1.4 2l15-.6v23.2c-4.5 1.7-24.7 5.7-47.3 5.7-2.8-2.6-6.5-7-10.8-12.5h-1.3zM218.9 425c7.4 0 14.7-3.7 19-6.2.6-.6.6-1.4.6-1.7v-19.5c-1.7-.3-4-.3-6-.3-18.7 0-26.6 7.9-26.6 17-.2 6.5 7.2 10.7 12.9 10.7m90-71.7l.3-23.2 57.5-8.2c.6 0 .6.3.6.9 1.4 5.9 2.6 11.6 4 17.6l1.4.3c27.5-16.7 33.7-19 46.7-19 12.2 0 23.8 11 29.5 20.4 5.4 8.8 6.5 17.6 6.5 25.2l-1 57.8 14.2.8-.3 23.2-72 .3.3-23.2 11.3-1c.6 0 1-.6 1-1 .3-11.6 0-27.5 0-38.3 0-13.3 0-20-2.3-24.4-2.8-5.4-6.5-6.2-10.8-6.2a44 44 0 0 0-22.7 9.9l-.8 59.8 12.2.8-.3 23.2-72.8.3.3-23.2 13.9-1c.9 0 1-.6 1-1V354l-18-.6zm199 90.4c-9-8-10-14.5-10-22.4l.6-70H479c0-8 .3-16.2.9-24l18.4-1.4c.8 0 2-.8 2-2.3l2-23.5c14.4-7 41.4-15.3 42.2-15.3.6 0 .9.3.9 1l-1 39.7 43.6-.3-1 26.6c-12 0-29.5-.3-42.5-.3l-.3 58a13 13 0 0 0 13 12.8 129 129 0 0 0 30.9-4.2l3.4 23.8c-19.8 7.6-40.5 10.2-61.5 10.2-7.4 0-14.8-2-22-8.5m93-90c0-8 .3-16.7.6-24.4l63.5-7.6c.6 0 .6.3.6.8l-1 102.6 15.6.8V449l-77.6.3.3-23.2 15-1c.8 0 1-.6 1-1v-70l-18.2-.5zm63.4-74c0 15.3-12.2 25.5-26.3 25.5-12.2 0-24.6-10.5-24.6-25 0-12 10.5-23.5 26-23.5 16.3-.1 24.8 11.3 24.8 22.9m87.9 58.3c28.6-15.3 31.7-16.4 43.6-16.4 23.5 0 43.3 26.6 43 56 0 12.7-3.4 26-8.8 38a71 71 0 0 1-21.5 27.5 59 59 0 0 1-30.3 9.1 64 64 0 0 1-24.9-4l-2 .6c.3 14.2.3 28.6.3 43l23 .8-.3 23.2-83 .6.3-23.2 13.6-1c.9 0 1-.6 1-1.4l.3-136.8-18-.3c0-7.6.3-15.8.6-23.2 13.3-1.7 56-9 57.5-9 .6 0 .6.3.6.6l3 15.9h1.6zm33.7 23.8c-2.3-3.4-5.7-7.4-11-7.4-5.7 0-14 2.8-22 7.9l-.6 54.4c0 5.7 11.3 9.9 17.3 9.9 5 0 10.8-2 14.4-7.4 4-6 6.5-16 6.5-31.2.1-12.8-1.6-22-4.4-26.2"/><path class="B" d="M15.9 473h7.6v35.2h17v6.4H15.9V473zm39.9 28.6c.2 5.4 4.4 7.8 9.2 7.8a24 24 0 0 0 8.3-1.3l1 5.2c-2.6 1-6.2 1.9-10.5 1.9-9.7 0-15.5-6-15.5-15 0-8.3 5-16 14.7-16 9.7 0 12.9 8 12.9 14.6l-.2 3.2h-20zm13.2-5.3c.1-2.8-1.2-7.3-6.2-7.3-4.7 0-6.7 4.2-7 7.3H69zm41.7 11c0 2.7.1 5.4.5 7.2h-6.8l-.5-3.3h-.2c-1.8 2.3-5 4-9 4-6 0-9.4-4.4-9.4-9 0-7.5 6.7-11.4 17.8-11.3v-.5c0-2-.8-5.2-6-5.2a16 16 0 0 0-8.1 2.2l-1.5-5a21 21 0 0 1 10.8-2.7c9.6 0 12.4 6 12.4 12.7v10.7zm-7.3-7.5c-5.4-.1-10.5 1-10.5 5.6 0 3 1.9 4.3 4.3 4.3 3 0 5.2-2 6-4 .2-.6.2-1 .2-1.7v-4zm20.5-5.7l-.2-9.7h6.5l.5 5.7c1.5-4.2 5-6.4 8.2-6.4.7 0 1.2.1 1.8.2v7c-.7-.1-1.4-.2-2.3-.2-3.6 0-6 2.3-6.8 5.7l-.2 2.3v15.6h-7.6V494zm27.2-.7l-.2-9h6.6l.4 4.5h.2c1.4-2.3 4.6-5.2 9.6-5.2 5.2 0 10.6 3.4 10.6 12.9v17.8h-7.6v-17c0-4.3-1.6-7.6-5.7-7.6-3 0-5 2-6 4.4-.3.6-.4 1.5-.4 2.4v17.7H151v-21zm36.9 28.5a95 95 0 0 0 4.1-16.3l7.9-.6c-1.8 5.8-4.5 12.4-7 16.4l-5 .5zm59.4-15.7a21 21 0 0 0 10 2.7c4.8 0 7.5-2.3 7.5-5.7 0-3-2-5-7.3-7-7-2.5-11.3-6-11.3-12 0-6.8 5.7-12 14.7-12 4.5 0 7.8 1 9.9 2l-1.8 6c-1.5-.8-4.4-2-8.3-2-4.8 0-6.8 2.5-6.8 5 0 3.2 2.4 4.7 7.9 6.8 7.2 2.7 10.7 6.3 10.7 12.3 0 6.7-5 12.5-15.7 12.5-4.4 0-9-1.2-11.3-2.6l1.8-6.3zm36.8-35.5h7.6l.1 17.8c.9-1.4 2.2-2.6 3.8-3.4 1.5-1 3.3-1.4 5.2-1.4 5 0 10.5 3.4 10.5 13v17.7h-7.6v-17c0-4.3-1.6-7.6-5.8-7.6-3 0-5 2-6 4.2-.2.7-.3 1.5-.3 2.3v18h-7.6v-43.7zm63.8 36.6c0 2.7.1 5.4.5 7.2h-6.8l-.8-3.3c-1.8 2.3-5 4-9 4-6 0-9.4-4.4-9.4-9 0-7.5 6.7-11.4 17.8-11.3v-.5c0-2-.8-5.2-6-5.2a16 16 0 0 0-8.1 2.2l-1.5-5a21 21 0 0 1 10.8-2.7c9.6 0 12.4 6 12.4 12.7v10.7zm-7.4-7.5c-5.4-.1-10.5 1-10.5 5.6 0 3 1.9 4.3 4.3 4.3 3 0 5.2-2 6-4 .2-.6.2-1 .2-1.7v-4zM361 494l-.3-9.7h6.5l.5 5.7c1.5-4.2 5-6.4 8.3-6.4.7 0 1.2.1 1.8.2v7c-.7-.1-1.3-.2-2.3-.2-3.6 0-6 2.3-6.8 5.7l-.2 2.3v15.6H361V494zm32 7.5c.2 5.4 4.4 7.8 9.2 7.8a24 24 0 0 0 8.3-1.3l1 5.2c-2.6 1-6.2 1.9-10.5 1.9-9.7 0-15.5-6-15.5-15 0-8.3 5-16 14.7-16s12.9 8 12.9 14.6c0 1.4-.1 2.5-.3 3.2h-20zm13.2-5.3c.1-2.8-1.2-7.3-6.2-7.3-4.7 0-6.6 4.2-7 7.3h13.2zm75.6 18.2c-1-1-1.6-1.7-2.7-2.8-2.5 2.2-5.7 3.4-9.6 3.4-7.5 0-11.2-4.7-11.2-9.6 0-4.5 2.7-7.8 6.5-9.8v-.2a11 11 0 0 1-2.7-6.8c0-4.2 3.2-8.7 9.5-8.7 4.8 0 8.5 3 8.5 7.6 0 3.5-2 6.4-7 8.9v.1a612 612 0 0 1 6.8 7.8c1.5-2.2 2.5-5.4 3-9h5.5c-1 5.2-2.5 9.6-5.3 12.8l5.8 6.4h-7.2zm-5.6-6.4c-2-2-5.3-5.7-8.5-9.4-1.6 1-3.4 2.9-3.4 5.7 0 3.3 2.5 6 6.3 6a8 8 0 0 0 5.6-2.3zm-8.4-20c0 2 1 3.7 2.5 5.4 2.9-1.8 4.5-3.4 4.5-5.7 0-1.8-1-3.8-3.4-3.8s-3.6 1.9-3.6 4zm66-15h24v6.2h-16.4v11.5h15.3v6.2h-15.3v17.7H534V473zm61.2 32.5c0 3.6.1 6.5.2 9h-6.6l-.6-4.5c-1.3 2-4.2 5.2-9.7 5.2-5.4 0-10.4-3.3-10.4-13v-17.6h7.6v16.3c0 5 1.6 8.2 5.6 8.2 3 0 5-2 5.8-4 .3-.6.4-1.5.4-2.3v-18h7.6v20.9zm13.5-12l-.2-9h6.6l.4 4.5h.2c1.4-2.3 4.6-5.2 9.6-5.2 5.2 0 10.7 3.4 10.7 12.9v17.8h-7.6v-17c0-4.3-1.6-7.6-5.7-7.6-3 0-5 2-6 4.4a8 8 0 0 0-.4 2.4v17.7h-7.6v-21z"/></svg>