<?xml version="1.0" encoding="utf-8"?>
<!-- Generator: Adobe Illustrator 21.0.0, SVG Export Plug-In . SVG Version: 6.00 Build 0)  -->
<svg version="1.1" id="Layer_1" xmlns="http://www.w3.org/2000/svg" xmlns:xlink="http://www.w3.org/1999/xlink" x="0px" y="0px"
	 viewBox="0 0 1190.6 841.9" style="enable-background:new 0 0 1190.6 841.9;" xml:space="preserve">
<style type="text/css">
	.st0{fill:#652F8E;}
	.st1{fill:none;}
	.st2{fill:#38355C;}
</style>
<g>
	<g>
		<g>
			<path class="st0" d="M64.6,361.5c0-9.8,0-21,0.4-30.5c26-0.7,57.8-1,87.8-1c16.4,0,33,0,53.3,6.1c29.2,9.4,48.4,39,48.4,69.8
				c0,28.5-18.5,54.9-42.7,67.1c-16.6,8.4-41.9,11.3-50.6,11.3c-4.7,0-14.4,0-17-0.4l-0.4,50.3l32.9,1.1c0,9.4,0,20.2-0.4,30
				c-18.1,0-43-0.4-65.1-0.4c-15.6,0-32.2,0.4-46.3,0.4c0-9.8,0.4-20.6,0.7-30l17-1.1c1.1,0,1.4-0.6,1.4-1.5V362.2L64.6,361.5z
				 M144.1,450c0,3.6,6.5,3.6,12.6,3.6c9,0,18.1-3.2,24.6-9.4c7.6-7.6,11.9-20.6,11.9-36.4c0-26.8-16.3-48.5-36.9-48.5
				c-5.4,0-10.2,0.4-11.6,1.1L144.1,450z"/>
			<path class="st0" d="M360,553c-21.8,11-39.1,15.9-52.8,15.9c-18.8,0-46.7-19.2-46.7-42.3c0-19.8,23.9-54.5,81.4-54.5h17.4
				c1-17.8-5.8-28.6-22.1-28.6c-11.9,0-31.2,10.4-45.4,20.2c-6.6-7.6-13.1-17-18.9-25.7c26-21.3,52.7-35.8,87.5-35.8
				c27.8,0,55.2,23.5,55.2,54.3c0,23.8-0.3,58.1-0.6,73.7c0,2.2,0,2.9,1.8,2.5l19.1-0.7c0,9.4,0.4,20.2,0,29.6
				c-5.8,2.3-31.4,7.2-60.3,7.2c-3.7-3.3-8.4-9-13.8-15.9H360z M334.6,534.2c9.4,0,18.8-4.7,24.2-8c0.8-0.6,0.8-1.9,0.8-2.1v-25
				c-2.2-0.4-5.2-0.4-7.6-0.4c-23.9,0-34,10.2-34,21.7C318,528.8,327.4,534.2,334.6,534.2"/>
			<path class="st0" d="M449.6,442.8c0-9.8,0.4-20.6,0.4-29.7c18-1,71.2-10.4,73.4-10.4c0.7,0,0.7,0.4,0.7,1
				c1.8,7.6,3.2,14.9,5.1,22.5l1.7,0.4c35.1-21.3,43.1-24.3,59.7-24.3c15.5,0,30.3,14.1,37.6,26.1c6.9,11.2,8.4,22.5,8.4,32.2
				c0,20.5-0.8,50.6-1.5,73.7l18.1,1.1c0,9.4,0,20.2-0.5,29.6h-46.6c-15.5,0-32.5,0.4-45.2,0.4c0-9.4,0.4-20.3,0.4-29.6l14.5-1.2
				c0.8,0,1.4-0.7,1.4-1.4c0.3-14.9,0-35.1,0-48.8c0-17,0-25.7-2.9-31.1c-3.6-6.9-8.3-7.9-13.7-7.9c-8,0-20.3,5.7-29,12.7
				c-0.3,21.3-1.2,55.6-1.2,76.2l15.7,1.1c0,9.7,0,20.2-0.4,29.6h-45.3c-14.7,0-33.6,0.4-47.7,0.4c0-9.4,0.4-20.3,0.4-29.6l17.6-1.2
				c1.1,0,1.5-0.7,1.5-1.4v-89.7L449.6,442.8z"/>
			<path class="st0" d="M703.7,558.1c-11.6-10.1-12.6-18.3-12.6-28.5c0-20.2,0.3-37.6,0.3-41.9c0-7.6,0.4-44.1,0.4-47.4h-25.4
				c0-10.1,0.4-20.5,1.2-30.7c7.2-0.4,16.2-1.5,23.5-1.8c1,0,2.5-1.1,2.5-3c0.8-9.7,1.8-21.3,2.6-30c18.4-9.1,52.7-19.5,53.9-19.5
				c0.7,0,1.1,0.3,1.1,1.4c-0.3,7.9-0.7,40.9-1.1,50.6c18.4,0,38.7-0.3,55.6-0.3c0,10.5-0.3,23.1-1.4,34c-15.2,0-37.7-0.3-54.2-0.3
				v30c-0.4,14.8-0.4,27.8-0.4,44.1c0,10.2,8.6,16.3,16.6,16.3c14.4,0,28.2-2.5,39.4-5.4c1.8,9.7,3.3,20.8,4.4,30.3
				c-25.4,9.7-51.8,13-78.4,13C722.2,568.9,712.8,566.4,703.7,558.1"/>
			<path class="st0" d="M822.2,443.2c0-10.2,0.5-21.3,0.8-31.1c19.5-1.4,78.1-9.8,81-9.8c0.8,0,0.8,0.4,0.8,1.1
				c-0.4,39.5-1.2,94.7-1.2,130.9l20,1.1V565h-49.9c-15.6,0-34.7,0.4-49.2,0.4c0-9.4,0-20.3,0.3-29.6l19.2-1.2
				c1.1,0,1.5-0.7,1.5-1.4V444L822.2,443.2z M903.3,348.7c0,19.6-15.5,32.6-33.7,32.6c-15.5,0-31.4-13.4-31.4-31.9
				c0-15.1,13.3-29.9,33.2-29.9C892.4,319.6,903.3,334,903.3,348.7"/>
			<path class="st0" d="M1015.3,423.2c36.5-19.5,40.5-21,55.7-21c30,0,55.3,34,55,71.6c0,16.2-4.3,33.2-11.2,48.4
				c-4.7,10.9-13.4,24.2-27.4,35c-7.3,5.5-24.2,11.6-38.7,11.6c-13.8,0-23.9-1.8-31.8-5l-2.5,0.6c0.4,18.1,0.4,36.5,0.4,55l29.2,1
				c0,9.7,0,20.2-0.4,29.6c-17.4,0-39.1,0-58.2,0.3c-14.5,0-33.3,0-47.7,0.4c0-9.4,0-19.9,0.3-29.6l17.4-1.5c1,0,1.4-0.6,1.4-1.7
				l0.4-174.6l-22.8-0.4c0-9.9,0.4-20.3,0.7-29.7c16.9-2.2,71.6-11.6,73.3-11.6c0.8,0,0.8,0.3,0.8,0.7c1.4,6.9,2.5,13.4,4,20.2
				L1015.3,423.2z M1058.4,453.6c-3-4.3-7.3-9.4-14.1-9.4c-7.3,0-17.8,3.6-28.3,10.1c-0.4,20.3-0.7,49.2-0.7,69.5
				c0,7.2,14.5,12.6,22.1,12.6c6.5,0,13.7-2.5,18.4-9.4c5.1-7.6,8.3-20.6,8.3-39.7C1064.1,470.6,1062,459.1,1058.4,453.6"/>
			<g>
				<path class="st0" d="M107.6,607.3h18.3l9.9,54.7H118l-0.9-7.3H99.2L96,662H78.5L107.6,607.3z M104.7,643.3H116l-2.2-19.6
					L104.7,643.3z"/>
				<path class="st0" d="M170.3,607.3h16.9l14.2,29.8L203,625l3.1-17.7h17.1l-9.6,54.7h-16.8l-14.3-29.8l-1.4,12.4l-3.1,17.4h-17.2
					L170.3,607.3z"/>
				<path class="st0" d="M252.4,607.3h16.9l14.2,29.8l1.5-12.1l3.1-17.7h17.1l-9.6,54.7h-16.8l-14.3-29.8l-1.4,12.4L260,662h-17.2
					L252.4,607.3z"/>
				<path class="st0" d="M335.3,607.3h17.9l-9.6,54.7h-17.9L335.3,607.3z"/>
				<path class="st0" d="M379.5,607.3h18.1l3.1,36.4l16.5-36.4h18.1L406.6,662h-18.1L379.5,607.3z"/>
				<path class="st0" d="M461.6,607.3h44.6l-2.4,12.8h-26.6l-1.4,7.9h22.6l-2.4,12.7h-22.5l-1.4,8.6h27.7l-2.2,12.8H452L461.6,607.3
					z"/>
				<path class="st0" d="M534.3,607.3h26.5c7.9,0,13.4,1,16.4,3c3.1,2,4.6,4.9,4.6,8.8c0,4.2-1,7.8-3,11c-2,3.2-5,5.2-8.8,6.2
					c2.9,1.2,4.8,2.3,5.7,3.3c1.1,1,1.6,3,1.6,5.8c0,1.3-0.2,3.1-0.5,5.4L576,655l-0.6,3.7c0.1,1.1,0.7,1.7,1.5,1.7l-0.3,1.6h-18.1
					l-0.1-2c0-1.4,0.2-3.3,0.5-5.5l0.6-6.2c0-2.5-0.8-4-2.3-4.6c-1.6-0.6-4.4-0.9-8.6-0.9H546l-3.4,19.1h-17.9L534.3,607.3z
					 M550,620l-2,10.8h7.6c5.5,0,8.4-1.8,8.9-5.3c0.1-1,0-1.9-0.4-2.8c-0.4-0.8-1.2-1.5-2.2-2c-1.1-0.5-2.2-0.8-3.3-0.8H550z"/>
				<path class="st0" d="M638.6,623.2c0-3.1-2.2-4.6-6.7-4.6c-3.5,0-5.5,1-5.9,2.9c-0.2,1.2,0.3,2.2,1.2,3c1.1,0.8,2.6,1.4,4.6,2.1
					l5.8,1.4c5.1,1.2,9,2.9,11.8,5c2.7,2.2,4.1,5,4.1,8.5l-0.2,3.3c-1.2,6.6-4.5,11.3-10,14.3c-5.4,3-11.7,4.4-18.8,4.4
					c-6.7,0-12-1.7-16-5.1c-3.4-3-5.2-6.8-5.2-11.5l0.1-1.9h17.2c0,2.1,0.8,3.6,2.3,4.5c1.6,0.9,3.3,1.3,5.1,1.3
					c4.3,0,6.9-1.2,7.7-3.7v-1c0-1.1-0.6-1.9-1.8-2.5c-1.2-0.6-3.8-1.5-7.8-2.7c-5.8-1.4-10.2-3.1-13.3-5.1c-3.1-2-4.6-5.2-4.6-9.4
					l0.2-2.1l0.2-1.8c0.6-3.1,2-5.9,4.3-8.5c2.3-2.6,5.3-4.6,9.2-6c3.8-1.4,8.2-2.2,13.1-2.2c6,0,11,1.4,15,4.1
					c3.6,2.5,5.4,6.9,5.4,13.1H638.6z"/>
				<path class="st0" d="M701.9,607.3h18.3l9.9,54.7h-17.8l-0.9-7.3h-17.9l-3.3,7.3h-17.5L701.9,607.3z M698.9,643.3h11.3l-2.2-19.6
					L698.9,643.3z"/>
				<path class="st0" d="M764,607.3h26.5c7.9,0,13.4,1,16.4,3c3.1,2,4.6,4.9,4.6,8.8c0,4.2-1,7.8-3,11c-2,3.2-4.9,5.2-8.8,6.2
					c2.9,1.2,4.8,2.3,5.7,3.3c1.1,1,1.6,3,1.6,5.8c0,1.3-0.1,3.1-0.4,5.4l-0.8,4.2l-0.6,3.7c0.1,1.1,0.7,1.7,1.5,1.7l-0.3,1.6h-18.1
					l-0.1-2c0-1.4,0.1-3.3,0.5-5.5l0.6-6.2c0-2.5-0.8-4-2.4-4.6c-1.6-0.6-4.4-0.9-8.6-0.9h-2.7l-3.4,19.1h-17.9L764,607.3z
					 M779.7,620l-2,10.8h7.6c5.5,0,8.4-1.8,8.9-5.3c0.1-1,0-1.9-0.4-2.8c-0.4-0.8-1.2-1.5-2.2-2c-1.1-0.5-2.1-0.8-3.3-0.8H779.7z"/>
				<path class="st0" d="M837.5,607.3h20.2l6.1,18.5l12.7-18.5h19.7l-26.3,34.5l-3.6,20.2h-18l3.4-19.9L837.5,607.3z"/>
			</g>
		</g>
	</g>
	<path class="st1" d="M305.5,339.3h-3.8c-7.5,1-11.6,5.1-12.3,12.3c0,2.2,1.1,4.6,3.3,7.3c2,2,4.7,3.2,8,3.5l4.3,0.5
		c4.5,0,9.4-1.8,14.8-5.5c1.7-1.3,5.4-4.4,11.3-9.3l-11.3-5.3C314.2,340.4,309.5,339.3,305.5,339.3z"/>
	<path class="st1" d="M522.9,257c-4.5-0.3-9,1.6-13.1,5.6c-1.2,1.2-1.2,3.1-0.1,4.3c1.2,1.2,3.1,1.2,4.3,0c2.9-2.8,5.6-4.1,8.4-3.9
		c4.1,0.2,7.1,3.7,7.1,3.7c0.6,0.7,1.4,1.1,2.4,1.1c0.6,0,1.3-0.2,1.9-0.7c1.3-1.1,1.5-3,0.5-4.3C534.1,262.7,529.6,257.3,522.9,257
		z"/>
	<path class="st1" d="M557.1,204.6c-45.9,0-83.8,34.6-89.1,79.1c-0.3,2.9-0.4,5.9-0.4,8.9c0,11.6,2,22.6,5.7,32.8
		c8.6,17.3,26.2,27.5,44.5,27.5c6.5,0,13.1-1.3,19.5-4c15.1-6.5,28.2-26.1,30.9-40.4c1.6-8.3-0.9-12.8-3.3-15.2
		c-2.7-2.6-6-6-56.4-8.2c-9-0.4-17.9-0.7-25.4-0.8c4.9-36.4,36.1-64.5,73.9-64.5c41.1,0,74.5,33.5,74.5,74.6
		c0,23.7-11.5,46.3-30.8,60.3c-3.3,2.5-4.1,7.2-1.7,10.6c2.5,3.4,7.3,4.2,10.7,1.7c23.2-16.8,37-44,37-72.6
		C646.8,244.8,606.5,204.6,557.1,204.6z M553.6,304.4c-0.4,6.8-10.3,25.4-22.2,30.5c-17.5,7.5-37.9-0.6-45.3-18.1l0,0.1
		c-1.8-5.6-2.8-11.4-3.3-17.3C514.4,300.3,544.8,302.1,553.6,304.4z"/>
	<path class="st1" d="M375.1,343c-0.3,0.2-0.5,0.3-0.5,0.3c0.4,0.4,0.8,0.7,1.2,1.1c6.1,5.1,19,9.8,38.2,10.1
		c8.7,0.2,14.4-0.1,25.7-6.5h0.3c4.2-4.2,5.6-9.9,2.6-16.8c-7.4-17.3-60.4,8.3-67.2,11.7c-0.1,0.1-0.3,0.2-0.5,0.4
		C374.8,343.3,374.9,343.2,375.1,343z"/>
	<path class="st0" d="M486,316.8L486,316.8c7.5,17.5,27.9,25.6,45.4,18.1c12-5.1,21.8-23.7,22.2-30.5c-8.8-2.3-39.2-4.1-70.9-4.9
		C483.1,305.4,484.2,311.2,486,316.8z"/>
	<path class="st0" d="M690,191.4h-21.2l-3,16.8l-8.2,0l-2,12.5l7.5,0l-3.3,19.1c-19.5-36.6-58-61.5-102.3-61.5
		c-64,0-115.9,51.9-115.9,115.9c0,1.8,0.1,3.6,0.1,5.3c8.5,8.9,15.8,17.6,7.7,14.1c-15.1-6.5-48.8,8.8-74.2,29.2
		c6.8-3.4,59.8-29,67.2-11.7c3,7,1.6,12.6-2.6,16.8h-0.3c-11.2,6.4-17,6.6-25.7,6.5c-19.2-0.3-32.1-5-38.2-10.1
		c-0.4-0.4-0.8-0.7-1.2-1.1c0,0,0.2-0.1,0.5-0.3c2.3-2.3,20.9-20.9,35.6-38.3c0,0-0.1,0-0.1,0c11.4-14,20.3-27.3,26.5-39.8
		c6.5-13,9.8-25.4,9.8-37.3c0-9-2.3-17.1-6.9-24.3c-4.6-7.2-10.7-11.9-18.4-14.3c-5.8-2.5-13.2-3.7-22-3.5
		c-15.4,0.2-29.7,4.3-43,12.5c-13.9,8.3-24.4,20.9-31.8,37.5l-1,2.3c0.3,3.3,2.3,6.6,6,9.8c3.7,3.2,7.2,4.7,10.5,4.5
		c2.8-0.2,5-1,6.5-2.5c10.8-13.3,20.4-22.8,28.8-28.3c3-2.5,6.3-4.4,9.8-5.6c3.5-1.2,6.9-1.8,10.3-1.6c12,0.3,18,6.2,18,17.5
		c-0.2,0.5-0.3,2-0.5,4.4c-0.2,2.4-0.3,4-0.5,4.9c-5.8,18.7-21.6,43.1-47.3,73.1c-9.5,11-15.3,16.5-17.3,16.5
		c-2.2-1.2-5.3-2.8-9.5-4.8c-4.2-2-7.2-3.5-9.2-4.5c-7.3-2.7-15.3-4-23.8-4h-1.8c-9.7,0-18,3.5-25,10.4c-7,6.9-10.4,15.2-10.3,24.9
		c0.2,8.2,2.7,15.1,7.5,20.8c4.8,5.7,11.3,8.5,19.3,8.5h6.5c11.2,0,21.4-2.6,30.8-7.8c4.3-2.3,9.8-5.8,16.5-10.3
		c9.8,5.5,19.7,9.8,29.6,12.9c6.1,2.3,13.2,4.3,21.7,5.8c29.3,5.2,52.3-6,62.5-21.5c21,29.8,55.6,49.2,94.8,49.2
		c64,0,115.9-51.9,115.9-115.9c0-11-1.6-21.6-4.4-31.7c1.9,0.2,4,0.3,6.4,0.3l7.2-0.4h5l2.6-15.3c-1.3,0-2.6,0-3.9-0.1
		c-1.3,0-2.5-0.2-3.6-0.5c-1.3-0.5-2-1.5-2-3.2l0.4-2.6l3.6-20.1l10.3,0l2.2-12.5l-10.3,0L690,191.4z M319.7,357.3
		c-5.3,3.7-10.3,5.5-14.8,5.5l-4.3-0.5c-3.3-0.3-6-1.5-8-3.5c-2.2-2.7-3.3-5.1-3.3-7.3c0.7-7.2,4.8-11.3,12.3-12.3h3.8
		c4,0,8.8,1.2,14.3,3.5L331,348C325.2,352.9,321.4,356,319.7,357.3z M609.7,367c-3.4,2.5-8.2,1.8-10.7-1.7
		c-2.4-3.4-1.6-8.2,1.7-10.6c19.3-14,30.8-36.6,30.8-60.3c0-41.1-33.4-74.6-74.5-74.6c-37.7,0-68.9,28.1-73.9,64.5
		c7.5,0.2,16.4,0.5,25.4,0.8c50.3,2.2,53.7,5.6,56.4,8.2c2.3,2.4,4.9,6.9,3.3,15.2c-2.7,14.2-15.8,33.8-30.9,40.4
		c-6.4,2.7-13.1,4-19.5,4c-18.4,0-35.9-10.2-44.5-27.5c-3.7-10.2-5.7-21.2-5.7-32.8c0-3,0.1-6,0.4-8.9c5.3-44.5,43.2-79.1,89.1-79.1
		c49.4,0,89.7,40.2,89.7,89.8C646.8,323,632.9,350.2,609.7,367z M533.8,267.2c-0.6,0.4-1.3,0.7-1.9,0.7c-0.9,0-1.8-0.4-2.4-1.1
		c0,0-3-3.5-7.1-3.7c-2.8-0.2-5.5,1.1-8.4,3.9c-1.2,1.2-3.1,1.1-4.3,0c-1.1-1.2-1.1-3.1,0.1-4.3c4.2-4,8.6-5.9,13.1-5.6
		c6.8,0.3,11.2,5.7,11.4,5.9C535.3,264.2,535.1,266.1,533.8,267.2z"/>
	<path class="st0" d="M745.3,206.8c-6.8,0-12.9,2.8-18.2,8.3l4.9-27h-21.4l-13.3,74.4h21.6l4.8-28c1.3-7.2,4.7-10.7,10.2-10.7
		c4.1,0,6.1,2.2,6.1,6.6l-0.2,3.9l-5.1,28.2h21.6l5.7-33c0.4-2.5,0.6-4.6,0.6-6.3C762.7,212.2,756.9,206.8,745.3,206.8z"/>
	<path class="st2" d="M374.8,343.3c0.2-0.1,0.3-0.2,0.5-0.4c-0.1,0-0.1,0.1-0.2,0.1C374.9,343.2,374.8,343.3,374.8,343.3z"/>
</g>
</svg>
