<?xml version="1.0" encoding="utf-8"?>
<!-- Generator: Adobe Illustrator 22.0.0, SVG Export Plug-In . SVG Version: 6.00 Build 0)  -->
<svg version="1.1" id="Layer_1" xmlns="http://www.w3.org/2000/svg" xmlns:xlink="http://www.w3.org/1999/xlink" x="0px" y="0px"
	 viewBox="0 0 841.9 595.3" style="enable-background:new 0 0 841.9 595.3;" xml:space="preserve">
<style type="text/css">
	.st0{fill:#652F8F;}
	.st1{fill:#8331A7;}
</style>
<g>
	<path class="st0" d="M279.3,133.7c-1,0-2-0.4-2.8-1.2c-3.8-3.7-7.6-5.5-11.2-5.3c-5.5,0.3-9.4,4.9-9.4,4.9c-1.4,1.7-4,2-5.7,0.6
		c-1.7-1.4-2-4-0.6-5.7c0.2-0.3,6.1-7.4,15.2-7.9c6-0.4,11.9,2.2,17.4,7.5c1.6,1.6,1.6,4.1,0.1,5.7
		C281.4,133.3,280.4,133.7,279.3,133.7"/>
	<path class="st0" d="M155,267.6c-2.1,0-4.1-0.6-6-1.9c-30.9-22.4-49.3-58.6-49.3-96.7c0-65.9,53.6-119.4,119.4-119.4
		c61.2,0,111.8,46.3,118.7,105.6c5.1-0.1,8.1-0.2,8.2-0.2h0.1h0.1c0.1,0,3.2,0,8.3,0.1C361.5,95.8,412,49.5,473.2,49.5
		c65.9,0,119.4,53.6,119.4,119.4c0,38.1-18.4,74.3-49.3,96.7c-4.5,3.3-10.9,2.3-14.2-2.2c-3.3-4.5-2.3-10.9,2.2-14.2
		c25.6-18.6,40.9-48.6,40.9-80.3c0-54.7-44.5-99.2-99.2-99.2c-50.1,0-91.7,37.4-98.3,85.8c10.1,0.2,21.9,0.6,33.8,1.1
		c67.1,2.9,71.6,7.4,75.1,11c3.1,3.1,6.4,9.2,4.3,20.3c-3.6,18.9-21.1,45-41.2,53.6c-8.5,3.6-17.3,5.4-26,5.4
		c-25,0-49-14.3-60.1-38.2l-0.3,0.1c-3.8-10.8-6-22-6.6-33.4c-2.6,0-5.2-0.1-7.7-0.1c-2.6,0-5.2,0.1-7.8,0.1
		c-0.6,11.4-2.8,22.6-6.6,33.4l-0.3-0.1c-7.1,15.4-19.7,27.2-35.4,33.5c-16.4,6.6-34.4,6.3-50.7-0.6c-21.7-9.3-37.7-37.5-40.9-54.2
		c-1.7-8.7-0.3-15.3,4.1-19.7c3.5-3.6,7.6-7.6,74.8-10.7c12-0.6,23.9-1,34.1-1.3c-6.5-48.4-48.1-85.9-98.3-85.9
		c-54.7,0-99.2,44.5-99.2,99.2c0,31.7,15.3,61.7,40.9,80.3c4.5,3.3,5.5,9.6,2.2,14.2C161.2,266.1,158.1,267.6,155,267.6
		 M224.1,182.4c1.1,9.6,14.1,34,29.3,40.5c11.3,4.9,23.8,5,35.2,0.5c11.4-4.6,20.3-13.3,25.2-24.6l0.1,0c2.3-7.4,3.8-15.1,4.3-22.9
		C276.4,177.1,236.4,179.5,224.1,182.4 M378.7,198.8c10,23.3,37.1,34.1,60.3,24.1c15.9-6.8,29-31.6,29.6-40.6
		c-11.7-3.1-52.1-5.5-94.4-6.5C374.8,183.6,376.3,191.3,378.7,198.8L378.7,198.8z"/>
	<path class="st0" d="M439.7,133.7c-1.2,0-2.3-0.5-3.1-1.5c-0.1-0.1-4-4.6-9.4-4.9c-3.7-0.2-7.4,1.6-11.2,5.3
		c-1.6,1.6-4.2,1.5-5.7-0.1c-1.6-1.6-1.5-4.2,0.1-5.7c5.5-5.4,11.4-7.9,17.4-7.5c9.1,0.5,14.9,7.6,15.2,7.9c1.4,1.7,1.2,4.3-0.6,5.7
		C441.5,133.4,440.6,133.7,439.7,133.7"/>
	<path class="st0" d="M7.2,289.7c0-7.7,0-16.4,0.3-23.8c20.4-0.6,45.3-0.8,68.8-0.8c12.7,0,25.8,0,41.6,4.8
		c22.9,7.4,38,30.6,38,54.7c0,22.4-14.5,43.1-33.4,52.7c-13,6.5-32.9,8.8-39.7,8.8c-3.7,0-11.3,0-13.3-0.3l-0.3,39.4l25.8,0.8
		c0,7.4,0,15.9-0.3,23.5c-14.2,0-33.7-0.3-51-0.3c-12.2,0-25.2,0.3-36.3,0.3c0-7.6,0.3-16.2,0.6-23.5l13.3-0.8
		c0.8,0,1.1-0.6,1.1-1.1V290.3L7.2,289.7z M69.6,359.1c0,2.8,5.1,2.8,9.9,2.8c7.1,0,14.2-2.6,19.3-7.4c6-6,9.4-16.2,9.4-28.6
		c0-21-12.7-38-28.9-38c-4.3,0-7.9,0.3-9.1,0.8L69.6,359.1z"/>
	<path class="st0" d="M238.7,439.9c-17,8.5-30.6,12.5-41.4,12.5c-14.7,0-36.5-15-36.5-33.1c0-15.6,18.7-42.8,63.7-42.8h13.6
		c0.8-13.9-4.5-22.4-17.3-22.4c-9.4,0-24.4,8.2-35.7,15.9c-5.1-5.9-10.2-13.3-14.7-20.1c20.4-16.7,41.4-28,68.6-28
		c21.8,0,43.3,18.4,43.3,42.5c0,18.7-0.3,45.6-0.6,57.8c0,1.7,0,2.3,1.4,2l15-0.6c0,7.4,0.3,15.9,0,23.2c-4.5,1.7-24.7,5.7-47.3,5.7
		c-2.8-2.6-6.5-7.1-10.8-12.5H238.7z M218.9,425.1c7.4,0,14.7-3.7,19-6.2c0.6-0.6,0.6-1.4,0.6-1.7v-19.5c-1.7-0.3-4-0.3-5.9-0.3
		c-18.7,0-26.6,7.9-26.6,17C205.8,420.9,213.2,425.1,218.9,425.1"/>
	<path class="st0" d="M309,353.4c0-7.6,0.3-16.1,0.3-23.2c14.2-0.9,55.8-8.2,57.5-8.2c0.6,0,0.6,0.3,0.6,0.9
		c1.4,5.9,2.6,11.6,4,17.6l1.4,0.3c27.5-16.7,33.7-19,46.7-19c12.2,0,23.8,11,29.5,20.4c5.4,8.8,6.5,17.6,6.5,25.2
		c0,16.2-0.6,39.7-1.1,57.8l14.2,0.8c0,7.4,0,15.9-0.3,23.2h-36.5c-12.2,0-25.5,0.3-35.4,0.3c0-7.4,0.3-15.9,0.3-23.2l11.3-0.9
		c0.6,0,1.1-0.6,1.1-1.1c0.3-11.6,0-27.5,0-38.3c0-13.3,0-20.1-2.3-24.4c-2.8-5.4-6.5-6.2-10.8-6.2c-6.2,0-15.9,4.5-22.7,9.9
		c-0.3,16.7-0.8,43.6-0.8,59.8l12.2,0.8c0,7.6,0,15.9-0.3,23.2h-35.4c-11.6,0-26.3,0.3-37.4,0.3c0-7.4,0.3-15.9,0.3-23.2l13.9-0.9
		c0.9,0,1.1-0.6,1.1-1.1V354L309,353.4z"/>
	<path class="st0" d="M508.1,443.8c-9.1-7.9-9.9-14.5-9.9-22.4c0-15.9,0.3-29.5,0.3-32.9c0-6,0.3-34.6,0.3-37.1H479
		c0-7.9,0.3-16.2,0.9-24.1c5.7-0.3,12.7-1.1,18.4-1.4c0.8,0,2-0.8,2-2.3c0.6-7.6,1.4-16.7,2-23.5c14.4-7.1,41.4-15.3,42.2-15.3
		c0.6,0,0.9,0.3,0.9,1.1c-0.3,6.2-0.6,32-0.9,39.7c14.4,0,30.3-0.3,43.6-0.3c0,8.2-0.3,18.1-1.1,26.6c-11.9,0-29.5-0.3-42.5-0.3
		v23.5c-0.3,11.6-0.3,21.8-0.3,34.6c0,7.9,6.8,12.8,13,12.8c11.3,0,22.1-2,30.9-4.2c1.4,7.6,2.6,16.4,3.4,23.8
		c-19.8,7.6-40.5,10.2-61.5,10.2C522.6,452.3,515.2,450.3,508.1,443.8"/>
	<path class="st0" d="M601.1,353.7c0-7.9,0.3-16.7,0.6-24.4c15.3-1.1,61.2-7.6,63.5-7.6c0.6,0,0.6,0.3,0.6,0.8
		c-0.3,30.9-0.9,74.2-0.9,102.6l15.6,0.8v23.2h-39.1c-12.2,0-27.2,0.3-38.5,0.3c0-7.4,0-15.9,0.3-23.2l15-0.9c0.8,0,1.1-0.6,1.1-1.1
		v-70L601.1,353.7z M664.5,279.8c0,15.3-12.2,25.5-26.3,25.5c-12.2,0-24.6-10.5-24.6-24.9c0-11.9,10.5-23.5,26.1-23.5
		C656,256.8,664.5,268.2,664.5,279.8"/>
	<path class="st0" d="M752.4,338.1c28.6-15.3,31.7-16.4,43.6-16.4c23.5,0,43.3,26.6,43.1,56.1c0,12.7-3.4,26-8.8,38
		c-3.7,8.5-10.5,19-21.5,27.5c-5.7,4.3-19,9.1-30.3,9.1c-10.8,0-18.7-1.4-24.9-4l-2,0.6c0.3,14.2,0.3,28.6,0.3,43.1l23,0.8
		c0,7.7,0,15.9-0.3,23.2c-13.6,0-30.6,0-45.6,0.3c-11.3,0-26.1,0-37.4,0.3c0-7.4,0-15.6,0.3-23.2l13.6-1.1c0.9,0,1.1-0.6,1.1-1.4
		l0.3-136.8l-17.9-0.3c0-7.6,0.3-15.8,0.6-23.2c13.3-1.7,56.1-9.1,57.5-9.1c0.6,0,0.6,0.3,0.6,0.6c1.1,5.4,2,10.5,3.1,15.9
		L752.4,338.1z M786.1,361.9c-2.3-3.4-5.7-7.4-11.1-7.4c-5.7,0-13.9,2.8-22.1,7.9c-0.3,15.9-0.6,38.5-0.6,54.4
		c0,5.7,11.3,9.9,17.3,9.9c5.1,0,10.8-2,14.4-7.4c4-5.9,6.5-16.1,6.5-31.2C790.6,375.3,788.9,366.2,786.1,361.9"/>
	<g>
		<path class="st1" d="M15.9,473h7.6v35.2h17.1v6.4H15.9V473z"/>
		<path class="st1" d="M55.8,501.6c0.2,5.4,4.4,7.8,9.2,7.8c3.5,0,6-0.5,8.3-1.3l1.1,5.2c-2.6,1.1-6.2,1.9-10.5,1.9
			c-9.7,0-15.5-6-15.5-15.1c0-8.3,5.1-16.1,14.7-16.1c9.7,0,12.9,8,12.9,14.6c0,1.4-0.1,2.5-0.2,3.2H55.8z M69,496.3
			c0.1-2.8-1.2-7.3-6.2-7.3c-4.7,0-6.7,4.2-7,7.3H69z"/>
		<path class="st1" d="M110.7,507.3c0,2.7,0.1,5.4,0.5,7.2h-6.8l-0.5-3.3h-0.2c-1.8,2.3-4.9,4-8.9,4c-6,0-9.4-4.4-9.4-8.9
			c0-7.5,6.7-11.4,17.8-11.3v-0.5c0-2-0.8-5.2-6.1-5.2c-3,0-6,0.9-8.1,2.2l-1.5-4.9c2.2-1.4,6.1-2.7,10.8-2.7
			c9.6,0,12.4,6.1,12.4,12.7V507.3z M103.4,499.8c-5.4-0.1-10.5,1.1-10.5,5.6c0,3,1.9,4.3,4.3,4.3c3.1,0,5.2-2,6-4.1
			c0.2-0.6,0.2-1.1,0.2-1.7V499.8z"/>
		<path class="st1" d="M123.9,494.1c0-4.1-0.1-7-0.2-9.7h6.5l0.3,5.7h0.2c1.5-4.2,5-6.4,8.2-6.4c0.7,0,1.2,0.1,1.8,0.2v7.1
			c-0.7-0.1-1.4-0.2-2.3-0.2c-3.6,0-6.1,2.3-6.8,5.7c-0.1,0.7-0.2,1.5-0.2,2.3v15.6h-7.6V494.1z"/>
		<path class="st1" d="M151.1,493.4c0-3.4-0.1-6.3-0.2-8.9h6.6l0.4,4.5h0.2c1.4-2.3,4.6-5.2,9.6-5.2c5.2,0,10.6,3.4,10.6,12.9v17.8
			h-7.6v-16.9c0-4.3-1.6-7.6-5.7-7.6c-3,0-5.1,2.1-5.9,4.4c-0.3,0.6-0.4,1.5-0.4,2.4v17.7h-7.6V493.4z"/>
		<path class="st1" d="M188,521.9c1.7-4.7,3.3-11.1,4.1-16.3l7.9-0.6c-1.8,5.8-4.5,12.4-6.9,16.4L188,521.9z"/>
		<path class="st1" d="M247.4,506.2c2.4,1.4,6.2,2.7,10,2.7c4.8,0,7.5-2.3,7.5-5.7c0-3.1-2.1-5-7.3-6.9c-6.9-2.5-11.3-6.1-11.3-12.1
			c0-6.8,5.7-11.9,14.7-11.9c4.5,0,7.8,1,9.9,2.1l-1.8,6.1c-1.5-0.8-4.4-2-8.3-2c-4.8,0-6.8,2.5-6.8,5c0,3.2,2.4,4.7,7.9,6.8
			c7.2,2.7,10.7,6.3,10.7,12.3c0,6.7-5,12.5-15.7,12.5c-4.4,0-9-1.2-11.3-2.6L247.4,506.2z"/>
		<path class="st1" d="M284.2,470.7h7.6v17.8h0.1c0.9-1.4,2.2-2.6,3.8-3.4c1.5-0.9,3.3-1.4,5.2-1.4c5.1,0,10.5,3.4,10.5,13v17.7
			h-7.6v-16.9c0-4.3-1.6-7.6-5.8-7.6c-3,0-5.1,2-5.9,4.2c-0.2,0.7-0.3,1.5-0.3,2.3v18h-7.6V470.7z"/>
		<path class="st1" d="M348,507.3c0,2.7,0.1,5.4,0.5,7.2h-6.8l-0.6-3.3h-0.2c-1.8,2.3-4.9,4-8.9,4c-6,0-9.4-4.4-9.4-8.9
			c0-7.5,6.7-11.4,17.8-11.3v-0.5c0-2-0.8-5.2-6.1-5.2c-3,0-6,0.9-8.1,2.2l-1.5-4.9c2.2-1.4,6.1-2.7,10.8-2.7
			c9.6,0,12.4,6.1,12.4,12.7V507.3z M340.6,499.8c-5.4-0.1-10.5,1.1-10.5,5.6c0,3,1.9,4.3,4.3,4.3c3.1,0,5.2-2,6-4.1
			c0.2-0.6,0.2-1.1,0.2-1.7V499.8z"/>
		<path class="st1" d="M361.1,494.1c0-4.1-0.1-7-0.3-9.7h6.5l0.3,5.7h0.2c1.5-4.2,5-6.4,8.3-6.4c0.7,0,1.2,0.1,1.8,0.2v7.1
			c-0.7-0.1-1.3-0.2-2.3-0.2c-3.6,0-6.1,2.3-6.8,5.7c-0.1,0.7-0.2,1.5-0.2,2.3v15.6h-7.6V494.1z"/>
		<path class="st1" d="M393.1,501.6c0.2,5.4,4.4,7.8,9.2,7.8c3.5,0,6-0.5,8.3-1.3l1.1,5.2c-2.6,1.1-6.2,1.9-10.5,1.9
			c-9.7,0-15.5-6-15.5-15.1c0-8.3,5-16.1,14.7-16.1c9.7,0,12.9,8,12.9,14.6c0,1.4-0.1,2.5-0.3,3.2H393.1z M406.3,496.3
			c0.1-2.8-1.2-7.3-6.2-7.3c-4.7,0-6.6,4.2-7,7.3H406.3z"/>
	</g>
	<g>
		<path class="st1" d="M481.9,514.5c-0.9-0.9-1.6-1.7-2.7-2.8c-2.5,2.2-5.7,3.4-9.6,3.4c-7.5,0-11.2-4.7-11.2-9.6
			c0-4.5,2.7-7.8,6.5-9.8v-0.2c-1.6-1.9-2.7-4.4-2.7-6.8c0-4.2,3.2-8.7,9.5-8.7c4.8,0,8.5,3,8.5,7.6c0,3.5-2.1,6.4-7,8.9l0,0.1
			c2.4,2.7,5,5.7,6.8,7.8c1.5-2.2,2.5-5.4,3.1-9h5.5c-0.9,5.2-2.5,9.6-5.3,12.8c1.9,2.1,3.7,4.2,5.8,6.4H481.9z M476.3,508.1
			c-2.1-2.1-5.3-5.7-8.5-9.4c-1.6,1.1-3.4,2.9-3.4,5.7c0,3.3,2.5,6,6.3,6C473,510.4,475,509.4,476.3,508.1z M467.9,488
			c0,2.1,1,3.7,2.5,5.4c2.9-1.8,4.5-3.4,4.5-5.7c0-1.8-1.1-3.8-3.4-3.8C469.2,483.9,467.9,485.8,467.9,488z"/>
	</g>
	<g>
		<path class="st1" d="M534,473h24v6.2h-16.4v11.5h15.3v6.2h-15.3v17.7H534V473z"/>
		<path class="st1" d="M595.2,505.5c0,3.6,0.1,6.5,0.2,9h-6.6l-0.4-4.5h-0.2c-1.3,2.1-4.2,5.2-9.7,5.2c-5.4,0-10.4-3.3-10.4-13
			v-17.6h7.6v16.3c0,5,1.6,8.2,5.6,8.2c3.1,0,5.1-2.1,5.8-4.1c0.3-0.6,0.4-1.5,0.4-2.3v-18.1h7.6V505.5z"/>
		<path class="st1" d="M608.7,493.4c0-3.4-0.1-6.3-0.2-8.9h6.6l0.4,4.5h0.2c1.4-2.3,4.6-5.2,9.6-5.2c5.2,0,10.7,3.4,10.7,12.9v17.8
			h-7.6v-16.9c0-4.3-1.6-7.6-5.7-7.6c-3,0-5.1,2.1-5.9,4.4c-0.2,0.6-0.4,1.5-0.4,2.4v17.7h-7.6V493.4z"/>
	</g>
</g>
</svg>
