<svg xmlns="http://www.w3.org/2000/svg" viewBox="0 0 1190.6 841.9" style="enable-background:new 0 0 1190.6 841.9;"><style><![CDATA[.C{fill:#12100B}.D{fill:#A4A1A1}]]></style><path d="M51.8 508l77.8 44.6 41.7-23 10.2 3.8 1-21 53.2-30.7v-56l74.7-61.8L181.2 289 51.8 364.3z" fill="#fff"/><path d="M182.6 287l-1-.6L50 362.4V509l80.2 46.3 42-24.3 9.2 5.3 131.5-76v-98L182.6 287zm-1 4.2l125.2 72.3-125.2 72.3-125.2-72.3 125.2-72.3zm49.3 143.2V479l-38.5-22.3 38.5-22.2zm-51.4 95.9L128 500.7v48.6l-74-42.6V367.3l125.2 72.3v17.3L128 427.3v56.6l51.4 29.7v16.8zm-45-47.7l40.6-23.5 6.5 3.8 6.5-3.8 40.6 23.5-47.2 27.2-47-27.2z" fill="#54aafa"/><path class="C" d="M357.8 461.4V356.9l39.3.4c5 .7 9.8 2.5 13.9 5.3s7.4 6.5 9.8 11.2 3.6 9.6 3.6 15a36 36 0 0 1-3.1 14.9c-2 4.6-5.2 8.6-9.4 11.9-3.2 2.6-7.4 4.3-12.6 5.2-3.5.6-8.2.9-14 .9H377v39.7h-19.3zm22.9-58.4l2.7.1c.9 0 1.9.1 2.8.1l5-.2c1.5-.1 3-.5 4.5-1 2.8-1 5-2.5 6.8-5 1.7-2.3 2.6-5 2.6-8 0-3-1-5.8-2.8-8-1.8-2.2-4.3-3.7-7.3-4.4-1.2-.3-3-.5-5-.6l-13-.2v27h3.8zm128 5.9l-15.3 26.8 15.8 17.2-11.7 10-12-12.7c-3 4-6 7.2-9.5 9.5-4 2.6-8.4 3.9-13 3.9-8 0-15-2.6-20.6-8-6-5.5-9-12.2-9-20.2 0-6 1.5-11 4.5-15.4 2.7-3.8 6.7-7.2 12.2-10.2-2.4-2.5-4.2-5-5.4-7.4-1.4-2.8-2-5.7-2-8.8 0-6.5 2.2-12 6.5-16.4 4.3-4.4 9.7-6.6 16.2-6.6 6.2 0 11.6 2 16 6.3s6.7 9.4 6.7 15.6c0 4.9-1.2 9.2-3.7 12.9-2.4 3.7-6 6.7-10.4 9l8.3 9 8.7-14.8h17.6zm-48.5 13.7c-3.2 1.4-5.7 3-7.5 5-2.2 2.4-3.3 5.3-3.3 8.6 0 3.5 1.2 6.3 3.5 8.4a12 12 0 0 0 8.7 3.2c2.8 0 5.3-1 7.5-3 1.8-1.6 3.5-3.8 4.9-6.7l-13.8-15.7zm12.8-29c0-2.2-.7-4-2-5.3s-3.3-2-5.7-2c-2 0-4 .7-5.2 2a7 7 0 0 0-2 5.2c0 1.8.7 3.7 2 5.6l4 4.6c3-1.6 5-3 6-3.8 1.8-1.7 2.8-3.8 2.8-6.3zm58-17.7h-19V357h58v18.8h-19.6v85.7H531v-85.7z"/><path class="D" d="M369.5 509c-1.2-2-2.8-3.3-5-4.4a14 14 0 0 0-6.6-1.6c-3.7 0-7 1.4-9.7 4.2s-4 6-4 9.6c0 3.9 1.4 7.2 4.2 10s6 4.2 9.9 4.2c2.2 0 4.4-.6 6.4-1.7s3.7-2.6 5-4.4h3.7c-1.4 2.7-3.5 5-6.3 6.7s-5.7 2.6-9 2.6c-5 0-9-1.7-12.4-5s-5-7.5-5-12.3c0-4.7 1.7-8.7 5-12 3.4-3.4 7.4-5 12-5 3.5 0 6.7.9 9.6 2.8 1.2.8 2.2 1.7 3.3 2.8 1.2 1.3 2 2.5 2.4 3.6h-3.7zm63.9 12c0 3.5-1.2 6.6-3.7 9.2s-5.5 3.9-9 3.9c-3.5 0-6.5-1.3-9-3.8-2.6-2.5-3.8-5.5-3.8-9 0-3.6 1.2-6.6 3.7-9.2 2.5-2.5 5.5-3.8 9-3.8 3.4 0 6.4 1.2 8.9 3.8 2.6 2.6 3.9 5.5 3.9 8.9zm-22.3.4c0 2.6.9 4.9 2.8 6.7 1.9 1.9 4 2.8 6.7 2.8 2.7 0 5-1 6.8-3s2.7-4.3 2.7-7c0-1.3-.2-2.6-.7-3.7s-1.2-2-2.2-3c-1.8-1.8-4-2.7-6.5-2.7a9 9 0 0 0-6.8 2.8c-2 1.9-2.8 4.2-2.8 7zm57.6-12.5h3v3.2c.6-1.3 1.5-2.2 2.6-2.8 1.2-.6 2.4-1 3.9-1 1.6 0 3 .3 4.4.9s2.5 1.6 3.5 2.8l.6.9.5-1c.8-1.2 2-2 3.4-2.8s2.9-1 4.4-1c2.6 0 5 1.2 7.6 3.7.9.9 1.5 2 1.8 3.3.3 1 .4 2.4.4 4v14h-3.2v-13.7c0-1.5-.1-2.5-.3-3.3-.2-.7-.5-1.4-1-2-1.4-2-3.2-3-5.6-3-1 0-2 .2-3 .7s-1.7 1.2-2.4 2c-.4.6-.7 1.2-.8 2s-.2 1.7-.2 2.7v14.4H485l-.2-16.8c-.1-.7-.5-1.4-1-2.2-.6-1-1.4-1.6-2.4-2s-2-.8-3-.8-2 .2-3 .6c-1 .4-1.7 1-2.3 1.9-.5.7-.8 1.5-1 2.4-.1.9-.2 1.8-.2 2.9v14h-3.3V509zm75.7 0v4.2c.9-1.5 2.2-2.7 4-3.5 1.8-.8 3.7-1.2 5.7-1.2 1.8 0 3.5.4 5.2 1 1.6.8 3.2 2 4.8 3.6.8.7 1.5 1.8 2 3.3s.9 3 .9 4.8c0 3.7-1.3 6.7-4 9s-5.7 3.7-9.4 3.7c-2 0-3.7-.4-5.4-1.3-1.8-1-3-2.2-4-4V542h-3.2v-33h3zm19.5 12.3c0-2.6-1-5-2.8-6.8s-4.2-2.8-6.8-2.8c-2.8 0-5 .9-7 2.7s-3 4-3 6.7c0 1.4.2 2.6.6 3.8.4 1 1 2 2 3 .9.9 2 1.7 3.2 2.2s2.5.8 3.8.8c2.7 0 5-1 7-2.8 1.9-1.8 2.9-4 2.9-7zm63.5 12.3h-3.2V529c-1 1.7-2.2 2.9-4 3.8s-3.6 1.4-5.6 1.4a12 12 0 0 1-5.5-1.3c-2-1-3.7-2.2-5.2-4-.6-.6-1-1.6-1.5-3-.6-1.6-1-3.3-1-5a13 13 0 0 1 .9-4.6c.5-1.4 1-2.3 1.6-2.8 1.7-2 3.5-3.3 5.4-4 1.6-.7 3.4-1 5.2-1a12 12 0 0 1 5.7 1.3c1.7.9 3 2.2 3.9 3.9V509h3.2v24.6zm-22.6-12.2c0 2.7 1 4.9 2.9 6.8 2 1.9 4.3 2.8 6.9 2.8s4.8-1 6.7-2.8 2.8-4 2.8-6.7c0-2.7-1-5-2.7-7a9 9 0 0 0-6.8-2.8c-2.7 0-5 .9-7 2.8-2 1.8-3 4-3 6.8zm58.9-12.4h3v3.5c.9-1.3 2-2.3 3.2-3 1.3-.7 2.7-1 4.3-1s3.3.3 4.8 1 2.8 1.7 3.9 3c.9 1 1.5 2.4 1.8 3.7a17 17 0 0 1 .4 4.3v12.9H682l-.2-16a7 7 0 0 0-1.2-2.8c-1.6-2-3.7-3-6.3-3-1.2 0-2.3.2-3.4.8-1 .5-2 1.2-2.6 2.2-.5.6-.8 1.3-1 2s-.3 2-.3 3.8v12.9h-3.3V509zm78.7 0l-14.2 33h-3.4l3.9-9.4-9.5-23.8h3.5l7.9 19.5 8.3-19.5h3.5zm63.8-8.6h3.3v30.2h13.8v3h-17v-33.2zm50.8 0h3.3v5.7H857v-5.7zm0 8.6h3.3v24.5H857V509zm39.5 0h3v3.2c.6-1.3 1.5-2.2 2.6-2.8 1.2-.6 2.4-1 3.9-1 1.6 0 3 .3 4.4.9s2.5 1.6 3.5 2.8l.6.9.5-1c.8-1.2 2-2 3.4-2.8s2.9-1 4.4-1c2.6 0 5 1.2 7.6 3.7.9.9 1.5 2 1.8 3.3.3 1 .4 2.4.4 4v14h-3.3v-13.7c0-1.5-.1-2.5-.3-3.3-.2-.7-.5-1.4-1-2-1.4-2-3.2-3-5.6-3-1 0-2 .2-3 .7s-1.8 1.2-2.4 2c-.4.6-.7 1.2-.8 2s-.2 1.7-.2 2.7v14.4h-3l-.2-16.8c-.1-.7-.5-1.4-1-2.2-.6-1-1.4-1.6-2.4-2s-2-.8-3-.8-2 .2-3 .6-1.7 1-2.3 1.9c-.5.7-.8 1.5-1 2.4s-.2 1.8-.2 2.9v14h-3.3V509zm72.6-8.6h3.3v5.7H969v-5.7zm0 8.6h3.3v24.5H969V509zm42.4 3h-5v-3h5v-8.6h3.3v8.6h5.7v3h-5.7v21.5h-3.3V512zm45.3 10.5c0 2.3 1 4.3 2.9 6s4 2.5 6.3 2.5c1.8 0 3.6-.5 5.2-1.5s2.8-2.3 3.6-4h3.4c-.8 2.5-2.4 4.5-4.7 6s-4.7 2.4-7.3 2.4c-3.5 0-6.6-1.3-9-3.8s-3.7-5.5-3.7-9 1.2-6.6 3.7-9 5.5-3.7 9-3.7c1.9 0 3.7.4 5.4 1.2s3.2 2 4.4 3.5c1 1.3 1.8 2.8 2.3 4.3.4 1.3.6 3 .6 4.9h-22zm18.9-3c-.4-2.2-1.5-4-3.3-5.5-1.8-1.5-3.8-2.2-6-2.2s-4.4.7-6.2 2.2a9 9 0 0 0-3.3 5.6h18.9zm60.8 14h-3.2V529c-2.4 3.4-5.7 5-10 5a12 12 0 0 1-5.2-1.2c-1.7-.8-3.4-2-5-4-.6-.6-1.3-1.6-1.8-3-.6-1.5-.8-3-.8-4.8 0-3.6 1.3-6.6 3.9-9 2.6-2.4 5.7-3.7 9.3-3.7a13 13 0 0 1 5.5 1.2c1.7.8 3 2 4 3.6v-13h3.3v33.3zm-13-22c-2.6 0-5 .9-6.7 2.8-2 1.8-2.8 4-2.8 6.7 0 2.7.9 5 2.8 6.9s4.2 2.9 6.9 2.9 5-1 6.9-3 2.8-4.2 2.8-7-1-5-3-6.8c-2-1.8-4.3-2.7-7-2.7z"/><path class="C" d="M631.9 349.8h10.9v48h56.5v-48h11v109h-11v-51.2h-56.5v51.2h-11v-109zm181 68a42 42 0 0 1-12.3 30.2c-8.2 8.5-18 12.7-29.8 12.7a41 41 0 0 1-29.8-12.3 40 40 0 0 1-12.5-29.5c0-11.7 4-21.8 12.3-30 8.2-8.4 18.2-12.6 29.9-12.6 11.2 0 21 4 29.4 12.4a39 39 0 0 1 12.8 29.2zm-73.3 1.2a30 30 0 0 0 9.2 22.2c6 6 13.5 9.2 22.2 9.2 9 0 16.5-3.2 22.3-9.4 5.9-6.3 8.8-14 8.8-23a30 30 0 0 0-2.4-12.1c-1.6-3.7-4-7-7.2-10-6-6-13.2-8.8-21.5-8.8-9 0-16.3 3-22.3 9.3-6 6-9 13.7-9 22.7zm93.9 16c0 4.2 1.4 7.8 4.2 10.8a14 14 0 0 0 10.4 4.4c3.9 0 7.3-1.3 10-3.8s4-5.7 4-9.6c0-4.5-1.6-8-4.8-10.7-2.3-2-6-3.6-11-5-3.4-1-6-2-7.7-2.6-2.7-1.2-5-2.6-7-4.4s-3.5-4-4.6-6.8-1.7-5.6-1.7-8.6c0-6.6 2.3-12 6.8-16.2a23 23 0 0 1 16.5-6.4 22 22 0 0 1 15.8 6.5 21 21 0 0 1 6.6 15.5h-11c0-3.6-1-6.4-3.5-8.4-2.3-2-5.3-3-9-3-3.2 0-6 1-8 3.2s-3.2 4.8-3.2 7.9c0 3.9 1.5 7 4.5 9.2 1.7 1.3 4.9 2.7 9.6 4.3a45 45 0 0 1 15.9 7.8c4.5 3.9 6.7 9.2 6.7 15.9 0 7.6-2.4 13.8-7.3 18.6-5 4.7-11.2 7-19 7-6.8 0-12.5-2.5-17.3-7.6-4.7-5-7-11-7-18h10.9zm63-47.2h-16.8v-9.8h16.8v-28.4h10.9v28.4h18.8v9.8h-18.8v70.9h-11v-71zm41.9-38.2h10.7v18.6h-10.7v-18.6zm0 28.4h10.7v80.7h-10.7v-80.7zm30.4 0h10.3v11.6c3-4.4 6.6-7.7 10.7-10a29 29 0 0 1 14.3-3.4 37 37 0 0 1 15.7 3.4c5 2.3 9.3 5.6 12.9 10a31 31 0 0 1 6.1 12.3 61 61 0 0 1 1.3 14.3v42.5h-11l-.8-52.6a26 26 0 0 0-3.9-9.2c-5-7-12-10.3-21-10.3-4 0-7.7.8-11.2 2.5s-6.4 4-8.5 7.3c-1.6 2-2.8 4.4-3.4 7-.7 2.7-1 6.9-1 12.6v42.5H969v-80.5zm171.6 69.4a55 55 0 0 1-2.2 18.9c-1.5 3.6-4 7.2-7.4 10.8-3.8 4.2-8.5 7.4-14.3 9.7-5.7 2.3-11.6 3.5-17.4 3.5a41 41 0 0 1-24.8-8.1c-7.6-5.6-12.5-12.8-14.7-21.5h10.5a40 40 0 0 0 12.4 14.1c4.9 3.3 10.7 5 17.5 5 5.3 0 10.4-1.2 15.2-3.6a26 26 0 0 0 11.2-10.3c1.6-3 2.7-6 3-9.2a70 70 0 0 0 .4-9.4v-4.5c-2.5 5.8-6.8 10.2-13 13.4-5.6 2.9-12 4.4-18.8 4.4-5.2 0-10.4-1-15.4-3a45 45 0 0 1-13.6-8.7 42 42 0 0 1-9.5-13.8 43 43 0 0 1-3.1-16.6c0-5 .9-10.2 2.7-15.4 1.5-4.4 3.2-7.5 4.9-9.4a47 47 0 0 1 16.4-13.7c5-2.5 10.8-3.7 17-3.7a41 41 0 0 1 18.8 4.5c5.9 3 10.4 7.3 13.4 12.9v-15.6h10.5v69.4zm-73-30c0 9.2 2.9 16.9 8.6 23.2s13.2 9.4 22.3 9.4c4.4 0 8.4-.8 12-2.2 3.7-1.5 7-3.8 9.9-6.8a34 34 0 0 0 6.9-10.7 31 31 0 0 0 2.5-12c0-9-3-16.5-9.3-22.6s-14-9-23-9a28 28 0 0 0-21.3 9.1c-6 6.2-8.8 13.4-8.8 21.7z"/></svg>