<svg xmlns="http://www.w3.org/2000/svg" width="296" height="75" viewBox="0 0 7820 1960" preserveAspectRatio="xMidYMid" fill-rule="evenodd" stroke-width="28.222" stroke-linejoin="round"><defs><clipPath id="A"><path d="M0 0h7820v1960H0z"/></clipPath></defs><g clip-path="url(#A)"><path d="M570 1086c0 83 21 152 61 206 41 54 93 81 155 81 93 0 176-52 251-156 74-104 112-221 112-351 0-88-21-158-64-211-42-54-98-80-168-80-90 0-170 52-241 156-70 105-106 223-106 355zm335-657c128 0 229 62 302 185l35-157h181l-161 747c-9 43-14 71-14 84 0 19 7 35 20 48s30 20 49 20c44 0 99-28 167-84s121-126 161-211c39-85 58-172 58-264 0-181-68-332-204-454-137-121-307-182-512-182-241 0-441 82-599 247-159 164-238 372-238 623 0 244 76 434 228 568 153 135 367 203 641 203 162 0 303-28 424-83 45-21 92-49 141-82s94-79 136-136h181c-40 80-106 158-199 232s-194 128-304 163c-110 34-238 52-383 52-314 0-562-80-744-240C90 1548 0 1328 0 1050c0-193 45-372 134-539 89-168 207-292 355-373C635 56 805 15 997 15c249 0 454 74 616 223s243 337 243 565c0 119-29 234-87 346-57 112-133 202-227 270s-192 102-292 102c-67 0-115-12-144-37-28-24-45-68-51-130-45 52-93 93-147 122-53 28-106 43-159 43-104 0-190-43-259-129-70-86-105-193-105-320 0-105 26-208 75-308s115-180 196-242c80-61 164-91 249-91z" fill="#58595b"/><g fill="#110f0d"><path d="M2279 787l-332-59c28-106 81-187 160-244 78-56 189-84 332-84 165 0 283 31 357 92 73 62 110 139 110 232 0 55-15 104-45 149-30 44-75 83-135 116 49 12 86 26 112 42 42 26 74 60 97 103 24 42 35 92 35 151 0 75-19 145-57 213-39 67-94 119-166 156-72 36-167 55-285 55-114 0-205-14-271-41s-120-66-164-118c-43-52-76-118-98-197l350-47c14 71 35 121 64 148s66 41 111 41c47 0 86-17 117-52 31-34 47-80 47-139s-15-104-45-136-71-49-123-49c-27 0-65 7-113 21l18-251c19 3 35 4 45 4 46 0 84-14 115-44 31-29 46-64 46-104 0-39-11-69-34-92s-55-35-95-35c-41 0-75 13-100 38-26 25-44 69-53 131zm1181 263c0 161.005 14 271.002 42 331 29 57.996 70 87.996 124 87.996 35 0 66-12.997 92-37.997s45-64.004 58-119.003c12-54 18-139.002 18-252.992 0-168.007-14-281.002-42-339-29-57-71-86.006-128-86.006-58 0-100 29.005-126 87.996-25 59.004-38 168.007-38 328.004zm-347-.995c0-241.003 43-409 129-505.003S3460 400 3636 400c85 0 154 10 209 31.007 54 20.994 99 49 133 81.988C4012 547 4039 582 4059 619c21 37.997 37 81.006 49 129.997 23 94.998 35 193.007 35 295.007 0 229.995-39 398.997-117 505-77 107-210 160-399 160-106 0-192-17.002-257-51.007-66-33.992-119-84-161-149.002-31-47-54-110.993-71-192.994-17-79.998-25-169.997-25-266.997zM4697-.006h1579V417h-530v1270h-519V417h-530V-.006z"/><path d="M6205 0h520v591h567V0h522v1687h-522v-682h-567v682h-520V0z"/></g><path d="M4689 712c141 0 262 48 363 146 100 99 150 218 150 361 0 139-49 256-148 351-100 94-221 142-365 142-142 0-262-48-359-142-97-95-145-212-145-351 0-143 48-262 145-361 97-98 217-146 359-146z" fill="#ee2922"/></g></svg>