<svg xmlns="http://www.w3.org/2000/svg" xmlns:xlink="http://www.w3.org/1999/xlink" viewBox="0 0 3140.27 889.2"><defs><style>.cls-1{fill:url(#linear-gradient);}.cls-2{fill:url(#radial-gradient);}.cls-3{fill:none;stroke:#0373b1;stroke-miterlimit:3;stroke-width:1.42px;}.cls-4{fill:url(#linear-gradient-2);}.cls-5{fill:#1d65ab;}.cls-6{fill:#1f65aa;}</style><linearGradient id="linear-gradient" x1="144.89" y1="236.79" x2="945.59" y2="528.23" gradientUnits="userSpaceOnUse"><stop offset="0" stop-color="#0675b6"/><stop offset="0.49" stop-color="#0e70b2"/><stop offset="1" stop-color="#1b67ac"/></linearGradient><radialGradient id="radial-gradient" cx="534.4" cy="415.7" r="431.33" gradientTransform="translate(-2.91 -3.44) scale(1 1.01)" gradientUnits="userSpaceOnUse"><stop offset="0" stop-color="#fff"/><stop offset="0.23" stop-color="#f7fafc"/><stop offset="0.58" stop-color="#e2edf3"/><stop offset="1" stop-color="#c0d7e4"/></radialGradient><linearGradient id="linear-gradient-2" x1="614.48" y1="831.1" x2="1123.58" y2="1016.4" gradientTransform="translate(-315.03 -532.97)" xlink:href="#linear-gradient"/></defs><title>TWA-Hori</title><g id="Layer_2" data-name="Layer 2"><g id="Layer_1-2" data-name="Layer 1"><polygon class="cls-1" points="1034.39 156.48 792.97 833.74 41.17 562.27 13.24 598.49 814.21 889.2 1070.73 164.16 1034.39 156.48"/><polygon class="cls-2" points="446.54 31.84 54.63 537.93 774.16 798.09 1004.6 149.24 446.54 31.84"/><polygon class="cls-3" points="432.44 0.78 1.16 551.07 792.97 833.99 1046.58 128.44 432.44 0.78"/><path class="cls-4" d="M533.41,467.83q-.5-4.4,5.38-13.67a294.24,294.24,0,0,1-54.52,9.17q-27.58,2-49.74-2.62-24.36-5.08-40.84-17.61t-17.35-31.57q-.87-19,15.26-38.22,19.88-23.63,62.15-42.66a287.46,287.46,0,0,1,85.46-24q43.17-5,74.44,1.56,23.85,5,39.82,16.26t20,28.36l27.81-20.92,49,10.23L627.55,433.53q-25.57,19.13-27.9,21.33-3.52,4.19-.42,8.37t11.09,5.86q14.57,3,45.86-1.09a261.64,261.64,0,0,0,76.47-21.53q35.11-16.18,53-37.45,20.89-24.83,15.58-51.29t-40.89-49.09Q724.75,286,668.56,274.28a462.09,462.09,0,0,0-130.87-8.2Q471,271.26,416.24,295.52t-83.94,59q-30.59,36.37-23.5,68.74t51.79,56.43q44.69,24.07,111.85,38.09,71.82,15,131.37,12t99.46-16.72l49.56,10.34q-27,12.62-74.58,21.66t-102.3,8.66q-54.76-.38-120.78-14.16-60.82-12.69-105.08-31.86T283.93,464q-21.9-24.52-21.66-50.43.54-32.82,27.84-65.27,30.42-36.16,85.35-63.2,67.2-33.19,146.64-41.7t167.08,9.78q67.91,14.17,109.34,40.53t47.57,62.68q5,31.21-20.36,61.33-36.19,43-120.21,64.73Q630.39,502,571.15,489.65q-18.92-3.95-28-9.45t-9.75-12.36Zm-92.73-82q-17.21,20.45-9,35.51t31.19,19.85q15.3,3.19,36.38,1.83a218.9,218.9,0,0,0,44.82-8,196.71,196.71,0,0,0,46.26-19.82q22.51-13.16,35.69-28.07,16.84-20.52,7.86-35.64t-35.47-20.65a128.39,128.39,0,0,0-37-2q-19.52,1.63-43,9.36a206.66,206.66,0,0,0-45.21,21.28Q451.47,373,440.68,385.88Z"/><path class="cls-5" d="M533.41,467.83q-.5-4.4,5.38-13.67a294.24,294.24,0,0,1-54.52,9.17q-27.58,2-49.74-2.62-24.36-5.08-40.84-17.61t-17.35-31.57q-.87-19,15.26-38.22,19.88-23.63,62.15-42.66a287.46,287.46,0,0,1,85.46-24q43.17-5,74.44,1.56,23.85,5,39.82,16.26t20,28.36l27.81-20.92,49,10.23L627.55,433.53q-25.57,19.13-27.9,21.33-3.52,4.19-.42,8.37t11.09,5.86q14.57,3,45.86-1.09a261.64,261.64,0,0,0,76.47-21.53q35.11-16.18,53-37.45,20.89-24.83,15.58-51.29t-40.89-49.09Q724.75,286,668.56,274.28a462.09,462.09,0,0,0-130.87-8.2Q471,271.26,416.24,295.52t-83.94,59q-30.59,36.37-23.5,68.74t51.79,56.43q44.69,24.07,111.85,38.09,71.82,15,131.37,12t99.46-16.72l49.56,10.34q-27,12.62-74.58,21.66t-102.3,8.66q-54.76-.38-120.78-14.16-60.82-12.69-105.08-31.86T283.93,464q-21.9-24.52-21.66-50.43.54-32.82,27.84-65.27,30.42-36.16,85.35-63.2,67.2-33.19,146.64-41.7t167.08,9.78q67.91,14.17,109.34,40.53t47.57,62.68q5,31.21-20.36,61.33-36.19,43-120.21,64.73Q630.39,502,571.15,489.65q-18.92-3.95-28-9.45t-9.75-12.36Zm-92.73-82q-17.21,20.45-9,35.51t31.19,19.85q15.3,3.19,36.38,1.83a218.9,218.9,0,0,0,44.82-8,196.71,196.71,0,0,0,46.26-19.82q22.51-13.16,35.69-28.07,16.84-20.52,7.86-35.64t-35.47-20.65a128.39,128.39,0,0,0-37-2q-19.52,1.63-43,9.36a206.66,206.66,0,0,0-45.21,21.28Q451.47,373,440.68,385.88Z"/><path class="cls-6" d="M1276.28,575.68V424.26h-44.34V393.36h118.87v30.91h-44.34V575.68Z"/><path class="cls-6" d="M1370.38,575.68V393.36h30.2v71.7h59.2v-71.7H1490V575.68h-30.19V496h-59.2v79.72Z"/><path class="cls-6" d="M1655.79,575.68h-32.74l-13-41.27h-59.78l-12.36,41.27h-32.1l58-182.32h32.28Zm-55.35-72.17-20.71-67.63-20.24,67.63Z"/><path class="cls-6" d="M1670.91,575.68V393.36h30.19V575.68Z"/><path class="cls-6" d="M1809.18,575.68l-35.79-182.32h31l22.45,125.34,27.12-125.34h35.88l26.39,127.47L1939,393.36h30.35l-35.82,182.32h-32.25l-29.92-136.41-29.51,136.41Z"/><path class="cls-6" d="M1985.13,575.68V393.36H2096v30.91h-80.67v40.33h75v30.66h-75v49.53h83.5v30.89Z"/><path class="cls-6" d="M2124.18,393.36H2184q24.49,0,34.45,4.48t16.79,15.79a51.21,51.21,0,0,1,1,49.39q-5.87,10.62-15.24,15.72a40.51,40.51,0,0,1,20.89,16.18q7.54,11.44,7.54,27.88,0,19.91-9.58,33.66t-22.63,17q-9.08,2.27-42.16,2.24h-50.87Zm30.19,30.43v42h19.83q17.85,0,22.06-.62a18.83,18.83,0,0,0,12-6.51q4.34-5.25,4.34-14.3,0-8-3.53-13.06a14.8,14.8,0,0,0-8.56-6.26q-5-1.23-28.81-1.24Zm0,72.41v48.59h28q18.4,0,23.63-1.92a17.63,17.63,0,0,0,8.76-7.56q3.56-5.64,3.55-14.31,0-8.92-3.79-14.7a19.47,19.47,0,0,0-10.08-7.93q-6.28-2.16-25.68-2.17Z"/><path class="cls-6" d="M2274.68,575.68V393.36h45.1L2347,518l26.79-124.6h45.49V575.68H2391.2V431.93l-29.81,143.75h-29l-29.69-143.75V575.68Z"/><path class="cls-6" d="M2583.82,575.68h-32.74l-13-41.27h-59.78l-12.35,41.27h-32.1l58-182.32h32.28Zm-55.35-72.17-20.71-67.63-20.25,67.63Z"/><path class="cls-6" d="M2653.27,578.75q-55,0-61.17-62.51l29.49-3.54q5,34.92,32.51,34.91,13.63,0,21.46-7.15a23,23,0,0,0,7.82-17.69,19.47,19.47,0,0,0-2.72-10.55,20.07,20.07,0,0,0-8.29-7.14q-5.57-2.8-27.08-9.36-19.28-5.83-28.23-12.66a48,48,0,0,1-14.25-17.94,55.07,55.07,0,0,1-5.28-23.91,53.18,53.18,0,0,1,6.79-26.82,44.28,44.28,0,0,1,18.76-18q12-6.09,29.53-6.09,26.42,0,41.26,14.3t15.69,40.9l-30.18,1.65q-2-14.71-8.64-20.57t-18.9-5.85q-12.26,0-18.9,5.07t-6.63,12.63a15.73,15.73,0,0,0,6,12.51q6,5.06,27.54,11.17,22.75,6.61,32.88,13.89a47.13,47.13,0,0,1,15.47,18.77q5.34,11.49,5.34,27.9,0,23.74-14.61,39.91t-45.69,16.16Z"/><path class="cls-6" d="M2772.66,575.68V424.26h-44.34V393.36h118.87v30.91h-44.34V575.68Z"/><path class="cls-6" d="M2866.77,575.68V393.36h110.86v30.91H2897v40.33h75v30.66h-75v49.53h83.49v30.89Z"/><path class="cls-6" d="M3006.07,575.68V393.36h63.51q24.35,0,34.8,4.91t17.15,17q6.7,12.12,6.71,29,0,21.37-10.24,34.42t-29.11,16.4a75.65,75.65,0,0,1,16,15.27q6.34,8.29,17.25,29.68l18.1,35.57H3104L3082.41,536q-11.67-21.52-15.89-26.95a23.51,23.51,0,0,0-8.93-7.48q-4.71-2.07-15.13-2.07h-6.21v76.18Zm30.18-105.18h22.31q20.45,0,26-1.81a16.63,16.63,0,0,0,9-7.27q3.47-5.48,3.48-14.54,0-8.7-3.48-14a17.78,17.78,0,0,0-9.41-7.28q-4.23-1.36-24.42-1.36h-23.55Z"/><path class="cls-6" d="M1239,798l57.47-182.31h21.23L1378.87,798h-22.63l-17.34-55.19h-63L1259.77,798Zm42.62-74.76h51.12l-15.58-50.54q-7.22-23.26-10.59-37.83a268.6,268.6,0,0,1-8.24,34.85Z"/><path class="cls-6" d="M1437.89,738.83l18.87-1.64q1.48,15.11,6.75,23.54a38,38,0,0,0,15.05,13.56,46.86,46.86,0,0,0,22.05,5.12q17.59,0,27.32-8.61t9.72-22.37a27.27,27.27,0,0,0-3.54-14.07,26.71,26.71,0,0,0-10.68-9.85q-7.14-3.82-30.86-10.89-21.11-6.3-30.08-12.64a43.8,43.8,0,0,1-14-16.08,47.77,47.77,0,0,1-5-22q0-22.12,14.29-36.15t38.53-14q16.65,0,29.13,6.59a46.84,46.84,0,0,1,19.38,18.91q6.9,12.32,7.4,29l-18.87,1.65q-1.49-17.77-10.63-26.34t-25.68-8.57q-16.78,0-25.61,7.51a24.33,24.33,0,0,0-8.83,19.44q0,11.06,6.46,17.14t29.05,12.3q22.1,6.09,31,10.58,13.65,7,20.6,18.32t6.95,27.15a56.46,56.46,0,0,1-7.34,28.5,49.26,49.26,0,0,1-19.93,19.58q-12.62,6.71-30.37,6.71-27.7,0-44.16-16.8T1437.89,738.83Z"/><path class="cls-6" d="M1627.11,738.83l18.87-1.64q1.49,15.11,6.75,23.54a38,38,0,0,0,15.05,13.56,46.86,46.86,0,0,0,22,5.12q17.6,0,27.33-8.61t9.72-22.37a27.2,27.2,0,0,0-3.54-14.07,26.68,26.68,0,0,0-10.68-9.85q-7.15-3.82-30.86-10.89-21.11-6.3-30.08-12.64a43.71,43.71,0,0,1-14-16.08,47.7,47.7,0,0,1-5-22q0-22.12,14.28-36.15t38.53-14q16.65,0,29.14,6.59a46.89,46.89,0,0,1,19.38,18.91q6.89,12.32,7.39,29l-18.87,1.65Q1721.13,651,1712,642.45t-25.68-8.57q-16.79,0-25.62,7.51a24.35,24.35,0,0,0-8.83,19.44q0,11.06,6.46,17.14t29.06,12.3q22.1,6.09,31,10.58,13.66,7,20.6,18.32t6.94,27.15a56.51,56.51,0,0,1-7.33,28.5,49.32,49.32,0,0,1-19.94,19.58q-12.61,6.71-30.37,6.71-27.7,0-44.16-16.8T1627.11,738.83Z"/><path class="cls-6" d="M1835.77,772.28q-18.28-26.07-18.27-63,0-46.6,20.51-71.61t51.08-25a62.27,62.27,0,0,1,36,11.19q16.27,11.17,25.78,32.48t9.51,50.75q0,40.51-18.39,66-20.26,28.07-53.07,28.08-33.06,0-53.19-28.83Zm2.25-62.67q0,33.62,14.81,52.18t36,18.55q21.69,0,36.38-18.74t14.69-55.09q0-23.48-7.56-42a51.56,51.56,0,0,0-17.55-22.65,42.67,42.67,0,0,0-25.59-8.5q-22.32,0-36.76,18.61T1838,709.61Z"/><path class="cls-6" d="M2141.76,734.11l19.81,6.13q-6.6,30.7-23.09,45.77t-40.14,15.09q-20.79,0-35.54-10.14t-24.15-32.49q-9.39-22.39-9.4-52.85,0-30.08,9.4-50.9t25.46-31.45A63.46,63.46,0,0,1,2100,612.65q21.65,0,37.21,13.43t21.8,39.41l-19.34,5.66q-10-37.75-40-37.74-14.93,0-25.89,7.63t-17.49,23.78q-6.53,16.13-6.53,40.82,0,37.36,13.2,56t35.1,18.67A38.69,38.69,0,0,0,2126,768.88Q2137.78,757.42,2141.76,734.11Z"/><path class="cls-6" d="M2239.82,798V615.71h19.81V798Z"/><path class="cls-6" d="M2327.77,798l57.48-182.31h21.22L2467.64,798H2445l-17.35-55.19h-63L2348.53,798Zm42.62-74.76h51.13l-15.58-50.54q-7.21-23.26-10.58-37.83a268.14,268.14,0,0,1-8.24,34.85Z"/><path class="cls-6" d="M2556.42,798V637.18h-49.29V615.71h118.63v21.47h-49.54V798Z"/><path class="cls-6" d="M2699.27,798V615.71h19.82V798Z"/><path class="cls-6" d="M2816.36,772.28q-18.29-26.07-18.28-63,0-46.6,20.51-71.61t51.08-25a62.26,62.26,0,0,1,36,11.19Q2922,635,2931.5,656.32t9.5,50.75q0,40.51-18.39,66-20.27,28.07-53.07,28.08-33.07,0-53.19-28.83Zm2.25-62.67q0,33.62,14.81,52.18t36,18.55q21.69,0,36.38-18.74t14.69-55.09q0-23.48-7.56-42a51.62,51.62,0,0,0-17.53-22.65,42.7,42.7,0,0,0-25.6-8.5q-22.32,0-36.76,18.61T2818.6,709.61Z"/><path class="cls-6" d="M3015.5,798V615.71h20.35l78.48,143.59V615.71h18.87V798H3113l-78.35-143.36V798Z"/><path class="cls-6" d="M1367.14,152.42a39,39,0,0,1-11.26,10.31,51.07,51.07,0,0,1-14.95,5.19,31.06,31.06,0,0,1,10.35,23.67V287h-17.49l-33.37-71a17.23,17.23,0,0,0-6.46-6.76,12,12,0,0,0-7.31-2.06,17.27,17.27,0,0,0-2.83.18c-8.2,1.26-12.27,6.13-12.27,14.63v24.46a12,12,0,0,1,2.6-.68,53.76,53.76,0,0,1,5.42-.59,22.24,22.24,0,0,1,15.68,6,20,20,0,0,1,6.49,15.3,21.29,21.29,0,0,1-1.59,8.34,23.51,23.51,0,0,1-5.19,7.47c-4,4.27-9.35,6.43-16.16,6.43q-11.23,0-17.8-6.49a24.3,24.3,0,0,1-6.43-17.14V220.26c0-6.78,2.24-12.23,6.81-16.51a27.28,27.28,0,0,1,13.94-8.22c1.56-.3,3.8-.62,6.72-.92s4.74-.55,5.42-.67a45,45,0,0,1,9,.82,25.46,25.46,0,0,1,7.73,2.82c4.42,2,7.82,5.69,10.15,11L1334.3,252V194.65c0-7.26-3.24-13.51-9.67-18.8s-14.21-7.93-23.41-7.93q-28,0-37.06,22h-17.6q4.77-16.33,19.93-26a68.4,68.4,0,0,1,16.45-6.81,73.59,73.59,0,0,1,19.28-2.39c2.65,0,5.24.13,7.73.33a49.21,49.21,0,0,1,8.07,1.44c1.54.31,3.1.68,4.66,1,1.76.53,3.6,1.09,5.49,1.6a9.54,9.54,0,0,0,2.83.35,16.06,16.06,0,0,0,9.47-3.54,38,38,0,0,0,10.46-13.21Zm-77.65,113.85q0-3.35-3.18-6.36a8.78,8.78,0,0,0-6.81-2.78,11.08,11.08,0,0,0-7.17,2.78c-1.44,1.35-2.32,3.48-2.65,6.36a10.84,10.84,0,0,0,.56,3.78,8,8,0,0,0,2.09,2.95,11.54,11.54,0,0,0,3.16,1.63,20,20,0,0,0,4,.84,12.54,12.54,0,0,0,3.8-.5,10,10,0,0,0,3-2A8.9,8.9,0,0,0,1289.48,266.28Z"/><path class="cls-6" d="M1497.69,269.06q0,17.82-15.68,17.84h-5.84q-4-11.59-16.33-23.33a68,68,0,0,0-13.35-10.25,63.28,63.28,0,0,0-14.36-6.1V267a20.4,20.4,0,0,1-5.72,14.83c-3.77,4-9.14,6-16,6a26,26,0,0,1-18.1-7.16,27.64,27.64,0,0,1-7.37-19.55c0-7.41,3.12-13.92,9.32-19.52a33,33,0,0,1,10.17-6.27,31.89,31.89,0,0,1,11.65-2.16v-35a9.72,9.72,0,0,1-2.69.73c-1,.15-2.86.36-5.57.57a23.91,23.91,0,0,1-16.31-6.16,21.29,21.29,0,0,1-4.8-6.61,19.7,19.7,0,0,1-1.77-8.51,21.83,21.83,0,0,1,6.49-15.57,22.26,22.26,0,0,1,16.54-6.69q11,0,17.43,6.78c4.48,4.12,6.72,9.68,6.72,16.71v54.61a42.13,42.13,0,0,1,12.11,3.05,100.09,100.09,0,0,1,36.47,27.72V157.34h17ZM1417,178.33a8.81,8.81,0,0,0-2.83-6.4,9.19,9.19,0,0,0-6.75-2.86,9.82,9.82,0,0,0-7,3c-1.54,1.32-2.42,3.41-2.78,6.3a9.62,9.62,0,0,0,.59,3.63,8.16,8.16,0,0,0,2.19,3,12.09,12.09,0,0,0,3,1.6,23.61,23.61,0,0,0,4,.85,9.6,9.6,0,0,0,6.75-2.65A8.44,8.44,0,0,0,1417,178.33Zm-.94,86.83V247.22a16.74,16.74,0,0,0-11.26,4,13,13,0,0,0-4.3,9.68,15.2,15.2,0,0,0,2.23,8.57,8.75,8.75,0,0,0,6.9,3.8C1414,273.23,1416.08,270.56,1416.08,265.16Z"/><path class="cls-6" d="M1609.39,286.89h-17V194.61c0-7.81-2.38-14.26-7.11-19.41-5-4.95-11.56-7.38-19.72-7.38-7.29,0-13.36,1.89-18.13,5.62s-8.61,9.23-11.35,16.36h-17.71A47.52,47.52,0,0,1,1535,164.33q12.34-9.77,30.92-9.75c12.68,0,23.11,3.26,31.25,9.89s12.18,15.55,12.18,26.81Z"/><path class="cls-6" d="M1744.48,286.89h-17v-84.3a35.32,35.32,0,0,0-8.46-23.76q-9.64-11-26.86-11-16.41,0-26.86,9.82t-10.46,23c0,2.92.09,5.91.32,9a80.06,80.06,0,0,0,1.3,9.42l4,20.61v15.57c-.24,1.58-.38,2.74-.47,3.47l2.65-19.49a199.87,199.87,0,0,1,4.8-19.74A110.24,110.24,0,0,1,1674,203q6.95-14.73,22.38-14.74a22.83,22.83,0,0,1,15.8,6.25,20.29,20.29,0,0,1,6.86,15.62,20.78,20.78,0,0,1-6.45,15.35,22.36,22.36,0,0,1-16.27,6.31,23.8,23.8,0,0,1-14.92-5.09q-3.18,8.21-8.49,28.42c-1.42,5.6-2.78,11-4,16.2s-2.39,10.38-3.48,15.55h-18.11V266.52c0-8.82-2.06-22.61-6.13-41.51-.88-4.76-1.65-9.4-2.33-14a78.89,78.89,0,0,1-1-10.67q0-18.42,14.59-31.85,16.1-13.91,40.63-13.9,23.17,0,37.3,12.93T1744.48,199Zm-38.21-76.74a8.76,8.76,0,0,0-3-6.48,8.47,8.47,0,0,0-6.84-3,9.8,9.8,0,0,0-7.16,3c-1.33,1.26-2.27,3.44-2.83,6.48a9.34,9.34,0,0,0,2.83,6.79,9.17,9.17,0,0,0,3.83,1.82c1.56.36,2.68.59,3.33.71a12.7,12.7,0,0,0,3.75-.47,9.34,9.34,0,0,0,3.09-2.06A9.85,9.85,0,0,0,1706.28,210.15Z"/><path class="cls-6" d="M1884.43,269.06q0,17.82-15.68,17.84h-5.84q-4-11.59-16.36-23.33a67.86,67.86,0,0,0-13.35-10.25,62.48,62.48,0,0,0-14.33-6.1V267a20.64,20.64,0,0,1-5.72,14.83c-3.83,4-9.13,6-16,6a26.09,26.09,0,0,1-18.13-7.16c-4.9-5.28-7.31-11.77-7.31-19.55,0-7.41,3.06-13.92,9.32-19.52a32.81,32.81,0,0,1,10.14-6.27,31.89,31.89,0,0,1,11.67-2.16v-35a10.57,10.57,0,0,1-2.71.73c-1,.15-2.86.36-5.54.57a24,24,0,0,1-16.33-6.16,21.58,21.58,0,0,1-4.8-6.61,19.61,19.61,0,0,1-1.75-8.51,21.61,21.61,0,0,1,6.49-15.57,22.1,22.1,0,0,1,16.51-6.69q11,0,17.43,6.78c4.48,4.12,6.75,9.68,6.75,16.71v54.61A42.23,42.23,0,0,1,1831,237a99.83,99.83,0,0,1,36.5,27.72V157.34h17Zm-80.66-90.72a8.84,8.84,0,0,0-2.86-6.4,9.23,9.23,0,0,0-6.75-2.86,9.81,9.81,0,0,0-7,3c-1.5,1.32-2.45,3.41-2.75,6.3A11,11,0,0,0,1785,182a9,9,0,0,0,2.21,3,12.13,12.13,0,0,0,3,1.6,23.42,23.42,0,0,0,4,.85,9.65,9.65,0,0,0,6.75-2.65A8.47,8.47,0,0,0,1803.77,178.33Zm-.94,86.83V247.22a16.68,16.68,0,0,0-11.26,4,12.93,12.93,0,0,0-4.3,9.68,14.91,14.91,0,0,0,2.21,8.57,8.81,8.81,0,0,0,6.87,3.8C1800.65,273.23,1802.83,270.56,1802.83,265.16Z"/><path class="cls-6" d="M2018.76,266.82q0,10.77-4.45,15.5c-2.66,3.08-6.75,4.58-12.27,4.58h-5.81l-27.53-60.17-27.36,60.17h-22.59V179.4c0-7,2.16-12.62,6.43-17s10.32-6.59,18.17-6.59a21.56,21.56,0,0,1,16.27,6.78,20.8,20.8,0,0,1,.29,30.46,22,22,0,0,1-16,6.31,43.33,43.33,0,0,1-4.93-.19,9,9,0,0,1-3.27-1.11v65.18l27.15-57.44,12.06-.05,26.83,57.55v-106h17Zm-65.09-88.49a8.29,8.29,0,0,0-2.95-6.3,8.54,8.54,0,0,0-6.72-3,9.88,9.88,0,0,0-7,3c-1.42,1.32-2.3,3.41-2.66,6.3a10.9,10.9,0,0,0,.59,3.72,7.39,7.39,0,0,0,2.07,2.86,8.42,8.42,0,0,0,3.77,1.83c1.53.36,2.6.59,3.25.71a11.68,11.68,0,0,0,3.71-.47,9.44,9.44,0,0,0,3-2A8.88,8.88,0,0,0,1953.66,178.33Z"/><path class="cls-6" d="M2018.69,343.32c0,8.19-1.95,14.42-5.89,18.51s-10.32,6.19-19.28,6.19h-41V356.5c4.54,0,7.76-.65,9.64-1.92,1.56-1.5,2.33-4.27,2.33-8.22v-7l-6.84,1.33a21.48,21.48,0,0,1-15.39-5.81,20.81,20.81,0,0,1,0-29.39c4.07-3.89,9.2-5.81,15.39-5.81,6.9,0,12.56,2.1,17,6.23q6.86,5.71,6.84,15.59v34.53h6.1c6,0,10-1.06,11.88-3.12a19.25,19.25,0,0,0,1.66-4.55,32.11,32.11,0,0,0,.65-6.88V301l17-.16Zm-51.89-23.11a8.18,8.18,0,0,0-2.42-6.1,11.08,11.08,0,0,0-6.78-2.86,8.68,8.68,0,0,0-6.28,2.35,10.75,10.75,0,0,0-2.92,6.61,8.58,8.58,0,0,0,2.65,6.36,10.9,10.9,0,0,0,6.54,2.6,8.58,8.58,0,0,0,6.25-2.35A10.61,10.61,0,0,0,1966.81,320.21Z"/><path class="cls-6" d="M2043.7,90.06q-2,20.39-18.51,31.9a61.35,61.35,0,0,1-15.95,7.35,67.84,67.84,0,0,1-19.25,2.62,74.26,74.26,0,0,1-16.75-1.87,25.94,25.94,0,0,0,7.54-6,23,23,0,0,0,4.43-8.37l-3.51.41a17.93,17.93,0,0,1-17.25-11,17.74,17.74,0,0,1,3.89-19.6,22.47,22.47,0,0,1,6.1-3.78,18.34,18.34,0,0,1,7.25-1.45,20.43,20.43,0,0,1,14.66,5.58,18.19,18.19,0,0,1,5.84,13.68,41.63,41.63,0,0,1-1.12,10.44,46.5,46.5,0,0,1-1.89,5.89,30.68,30.68,0,0,1-2.66,4.58,27.82,27.82,0,0,0,12.15-2.66,38.79,38.79,0,0,0,10.89-7.66q9.06-8.72,9-20.06Zm-53.77,8.09q0-8.06-8.43-8.06t-8.55,8.06c0,5.17,2.86,7.75,8.55,7.75S1989.92,103.32,1989.92,98.15Z"/><path class="cls-6" d="M2153.6,286.89h-17v-84.3c0-9.75-2.83-17.8-8.44-24.08-6.16-7.16-14.85-10.69-26.06-10.69-10.5,0-19.17,2.94-26.12,8.86s-10.73,11.53-11.38,16.91l-.65,12a93.34,93.34,0,0,0,1,12.58c.65,4.71,1.8,10.46,3.42,17.27q4.55,20.12,4.56,26.74,1.16-2,2.45-4.09a51.56,51.56,0,0,1,3.27-4.6,38.66,38.66,0,0,1,2.77-3.81c1.42-1.79,3.06-3.71,4.9-5.86l11.14-12.63a23.58,23.58,0,0,1-12.62-7.45,21.86,21.86,0,0,1-4.83-13.6c0-5.6,2.15-10.73,6.48-15.33a23.78,23.78,0,0,1,16.45-6.51,22.76,22.76,0,0,1,16,6.51,19.78,19.78,0,0,1,6.84,15.37c0,4.43-.83,7.95-2.47,10.59a35.7,35.7,0,0,1-3.07,4.92c-1.3,1.67-2.54,3.2-3.74,4.57l-19.58,23.58c-4.34,5.63-8.64,11.56-12.95,17.84a109.48,109.48,0,0,0-9.14,15.24h-18.39V268.08a112.67,112.67,0,0,0-1-14.27q-1-7.62-3.54-19.24c-1.71-7.77-3-14.28-3.75-19.62a103.57,103.57,0,0,1-1.15-14.62c0-12.81,5-23.59,14.92-32.46s23.38-13.3,40.27-13.3c15.27,0,27.65,4.23,37.15,12.81s14.27,19.1,14.27,31.64ZM2113,210.15a8.66,8.66,0,0,0-3.07-6.48,9.06,9.06,0,0,0-7-3,10.17,10.17,0,0,0-7.34,3c-1.59,1.38-2.53,3.51-2.89,6.48a9.88,9.88,0,0,0,.59,3.62,9.19,9.19,0,0,0,2.3,3.17,10.63,10.63,0,0,0,3.15,1.64,18,18,0,0,0,4.19.88,10.48,10.48,0,0,0,7-2.53A9.72,9.72,0,0,0,2113,210.15Z"/><path class="cls-6" d="M2153.9,343.32c0,8.19-1.95,14.42-5.89,18.51s-10.32,6.19-19.28,6.19h-41V356.5c4.54,0,7.76-.65,9.64-1.92,1.57-1.5,2.33-4.27,2.33-8.22v-7l-6.84,1.33a21.47,21.47,0,0,1-15.39-5.81,20.81,20.81,0,0,1,0-29.39c4.07-3.89,9.2-5.81,15.39-5.81,6.9,0,12.56,2.1,17,6.23q6.85,5.71,6.83,15.59v34.53h6.1c6,0,10-1.06,11.88-3.12a18.13,18.13,0,0,0,1.65-4.55,30.23,30.23,0,0,0,.65-6.88V301l17-.16ZM2102,320.21a8.08,8.08,0,0,0-2.42-6.1,11.08,11.08,0,0,0-6.78-2.86,8.57,8.57,0,0,0-6.25,2.35,10.63,10.63,0,0,0-3,6.61,8.5,8.5,0,0,0,2.69,6.36,10.76,10.76,0,0,0,6.51,2.6,8.69,8.69,0,0,0,6.28-2.35A10.58,10.58,0,0,0,2102,320.21Z"/><path class="cls-6" d="M2240.7,266.34a21.49,21.49,0,0,1-1.59,8.41,23.25,23.25,0,0,1-5.19,7.4,21.91,21.91,0,0,1-16.27,6.49c-7.55,0-13.56-2.19-18.1-6.52A24,24,0,0,1,2193,265V157.54h17v88.81c1.32-.53,4.06-1,8.16-1.27a23.09,23.09,0,0,1,15.74,6A19.52,19.52,0,0,1,2240.7,266.34ZM2228,266.2a8.59,8.59,0,0,0-2.92-6.37,9.65,9.65,0,0,0-6.9-2.8,10.13,10.13,0,0,0-7.15,2.8c-1.54,1.35-2.49,3.47-2.83,6.37a9.25,9.25,0,0,0,.59,3.64,8.38,8.38,0,0,0,2.25,3.08,13.17,13.17,0,0,0,3.06,1.58,18.81,18.81,0,0,0,4.1.89,10,10,0,0,0,6.9-2.65A8.45,8.45,0,0,0,2228,266.2Zm77.36.14a21.48,21.48,0,0,1-1.58,8.41,23.48,23.48,0,0,1-5.19,7.4,21.94,21.94,0,0,1-16.27,6.49c-7.56,0-13.56-2.19-18.1-6.52a24.55,24.55,0,0,1-4.75-7.63,25.43,25.43,0,0,1-1.74-9.44V157.54h17v88.81c1.33-.53,4.08-1,8.17-1.27a23.08,23.08,0,0,1,15.74,6A19.5,19.5,0,0,1,2305.32,266.34Zm-12.73-.14a8.5,8.5,0,0,0-3-6.37,8.64,8.64,0,0,0-6.81-2.8,9.65,9.65,0,0,0-10,9.17,9.5,9.5,0,0,0,.59,3.64,8.65,8.65,0,0,0,2.25,3.08,13,13,0,0,0,3.07,1.58,18.65,18.65,0,0,0,4.09.89,10,10,0,0,0,6.9-2.65A8.46,8.46,0,0,0,2292.59,266.2Z"/><path class="cls-6" d="M2427.47,286.89H2410l-33.38-71a18.3,18.3,0,0,0-6.46-6.79,12.5,12.5,0,0,0-7.31-2,19.68,19.68,0,0,0-2.83.15c-8.2,1.3-12.29,6.12-12.29,14.62v24.5a12.12,12.12,0,0,1,2.62-.74c1-.14,2.8-.32,5.43-.53a22.3,22.3,0,0,1,15.65,6,19.87,19.87,0,0,1,6.49,15.27,21.55,21.55,0,0,1-1.56,8.41,24,24,0,0,1-5.19,7.4c-4,4.3-9.38,6.49-16.16,6.49-7.48,0-13.45-2.19-17.8-6.54a24.12,24.12,0,0,1-6.46-17.11V220.17c0-6.82,2.27-12.29,6.81-16.5a27.19,27.19,0,0,1,14-8.23c1.53-.32,3.77-.62,6.72-1s4.75-.52,5.42-.62a47,47,0,0,1,9,.8,24.85,24.85,0,0,1,7.73,2.86q6.68,3,10.14,10.93l19.89,43.46V194.5c0-7.19-3.2-13.47-9.63-18.75s-14.21-7.93-23.41-7.93q-28,0-37.09,22h-17.59c3.21-10.91,9.87-19.57,20-26a68,68,0,0,1,16.44-6.8,72,72,0,0,1,19.29-2.38q21,0,35,10t14.07,26.74Zm-61.8-20.69a8.57,8.57,0,0,0-3.15-6.37,8.71,8.71,0,0,0-6.84-2.8,10.85,10.85,0,0,0-7.14,2.8c-1.47,1.35-2.35,3.47-2.68,6.37a10.7,10.7,0,0,0,.59,3.75,8.09,8.09,0,0,0,2.09,3,13.12,13.12,0,0,0,3.13,1.58,20.89,20.89,0,0,0,4,.89,10.76,10.76,0,0,0,3.83-.57,8.66,8.66,0,0,0,3-1.91A9,9,0,0,0,2365.67,266.2Z"/><path class="cls-6" d="M2514.29,266.34a21.51,21.51,0,0,1-1.58,8.41,23.59,23.59,0,0,1-5.25,7.4c-4.2,4.3-9.61,6.49-16.27,6.49-7.49,0-13.53-2.19-18.07-6.52a23.94,23.94,0,0,1-6.46-17.07V157.54h17v88.81c1.3-.53,4-1,8.13-1.27a23,23,0,0,1,15.75,6A19.55,19.55,0,0,1,2514.29,266.34Zm-12.73-.14a8.63,8.63,0,0,0-2.94-6.37,9.66,9.66,0,0,0-6.91-2.8,10,10,0,0,0-7.12,2.8c-1.6,1.35-2.55,3.47-2.84,6.37a10.32,10.32,0,0,0,.55,3.64,8.62,8.62,0,0,0,2.29,3.08,12.3,12.3,0,0,0,3.06,1.58,18.86,18.86,0,0,0,4.06.89,10,10,0,0,0,6.91-2.65A8.48,8.48,0,0,0,2501.55,266.2Z"/><path class="cls-6" d="M2625.67,265q0,10.49-6.42,17.07t-18.17,6.58a23.26,23.26,0,0,1-16.6-6.49,22.5,22.5,0,0,1-6.45-15.81,19.79,19.79,0,0,1,6.66-15,22.27,22.27,0,0,1,15.8-6.23,48.55,48.55,0,0,1,4.93.15,10,10,0,0,1,3.26,1.12v-51.7c0-7.61-3-14-9.08-19.11s-13.44-7.72-22.16-7.72a45.34,45.34,0,0,0-22.12,5.71A32.56,32.56,0,0,0,2542,189.8h-17.74q5.6-17,20.05-26a68.53,68.53,0,0,1,15.8-6.8,64.29,64.29,0,0,1,18.24-2.38c13.38,0,24.61,3.32,33.7,10s13.62,15.62,13.62,26.71Zm-15.1,1.22c0-2.31-1.06-4.4-3.18-6.37a8.69,8.69,0,0,0-6.84-2.8,10.9,10.9,0,0,0-7.13,2.8c-1.48,1.35-2.35,3.47-2.66,6.37a10.84,10.84,0,0,0,.56,3.75,8.15,8.15,0,0,0,2.09,3,13.33,13.33,0,0,0,3.16,1.58,19.8,19.8,0,0,0,4,.89,10.73,10.73,0,0,0,3.84-.57,8.58,8.58,0,0,0,3-1.91A9,9,0,0,0,2610.58,266.2Z"/><path class="cls-6" d="M2627.44,71.76c0,7.67-3.71,14-11.15,19a44,44,0,0,1-25.23,7.49h-11.95c-1.56,0-3.09,0-4.66.09a35.22,35.22,0,0,0-5.15.66c-2.9,0-6.2,1.64-10,5-3.36,2.57-5,6.29-5,11.21a13.52,13.52,0,0,0,4.36,10.08,8.9,8.9,0,0,0,6.14,2.89l12.31-16.66c.55.53,1.13,1.13,1.72,1.8a7,7,0,0,1,1.23,1.76l6.83,6.27a19.24,19.24,0,0,1,6.11-10.86,19.68,19.68,0,0,1,25.8.65,17.74,17.74,0,0,1,3.89,5.48,16.87,16.87,0,0,1-4.22,19.35,20,20,0,0,1-6.63,3.68,23.17,23.17,0,0,1-7.93,1.33,34,34,0,0,1-7.28-.83,31.84,31.84,0,0,1-7-2.59,36.16,36.16,0,0,1-11.92-9l-7.48,11.09h-9.61a22,22,0,0,1-15.59-6.42c-4.54-4.3-6.82-10.12-6.82-17.36,0-7,2.83-13.22,8.52-18.82,5.21-4.92,10.88-7.72,16.89-8.31a74.73,74.73,0,0,1,9.85-1.13h17.54c5.58,0,10.24-1.13,14-3.47,3.56-2.77,5.35-6.86,5.35-12.32Zm-14.62,51.41c0-4.68-2.41-7.05-7.31-7.05s-7.3,2.37-7.3,7.05,2.44,7.08,7.3,7.08S2612.82,127.89,2612.82,123.17Z"/><path class="cls-6" d="M2768.49,256.38q0,15.33-7.13,23.4-7,7.11-24.95,7.11h-76.94V274.51c6.52,0,11-1,13.44-2.94s3.63-6,3.63-11.92V198.09a10.1,10.1,0,0,1-2.65.73c-1,.15-2.8.36-5.45.57a23.41,23.41,0,0,1-16.11-6.16,21.23,21.23,0,0,1-4.75-6.61,20.27,20.27,0,0,1-1.73-8.51,21.65,21.65,0,0,1,6.54-15.57,22.58,22.58,0,0,1,16.69-6.69q11.15,0,17.63,6.78c4.51,4.12,6.78,9.68,6.78,16.71v94.32H2727c10.35,0,17-1.11,19.83-3.44,3.13-2.77,4.66-8.47,4.66-17.2V157.34h17Zm-90.1-78a8.69,8.69,0,0,0-2.92-6.4,9.51,9.51,0,0,0-6.89-2.86,10.19,10.19,0,0,0-7.18,3c-1.52,1.32-2.47,3.41-2.82,6.3a9.34,9.34,0,0,0,.59,3.63,8.4,8.4,0,0,0,2.23,3,12.73,12.73,0,0,0,3.07,1.6,25,25,0,0,0,4.11.85,9.94,9.94,0,0,0,6.89-2.65A8.32,8.32,0,0,0,2678.39,178.33Z"/><path class="cls-6" d="M2864.95,266.34a21.55,21.55,0,0,1-1.59,8.41,23.38,23.38,0,0,1-5.19,7.4c-3.95,4.3-9.35,6.49-16.16,6.49q-11.22,0-18-6.52a24.24,24.24,0,0,1-4.71-7.6,26.68,26.68,0,0,1-1.54-9.49V93.43l-22.61,21.81a174.52,174.52,0,0,0-10.47-20.39q-13.12-21.46-28.24-29.16l14.59-9.32q10.83,6.32,21.08,21c1,1.35,2.12,3.1,3.33,5.13s2.71,4.63,4.48,7.81l22.44-21.69a10.36,10.36,0,0,1,8.72,4.78,17.94,17.94,0,0,1,2.57,5.73,25.13,25.13,0,0,1,.92,6.89V246.35a12.25,12.25,0,0,1,2.65-.74c1-.14,2.8-.32,5.42-.53a22.47,22.47,0,0,1,15.75,6A19.82,19.82,0,0,1,2864.95,266.34Zm-12.25-.14c0-2.31-1.07-4.4-3.2-6.37a8.64,8.64,0,0,0-6.8-2.8,10.13,10.13,0,0,0-7.18,2.8c-1.44,1.35-2.33,3.47-2.65,6.37a10.14,10.14,0,0,0,.59,3.75,7.1,7.1,0,0,0,2.06,2.88,8.91,8.91,0,0,0,3.83,1.86c1.53.38,2.65.59,3.34.71a12.24,12.24,0,0,0,3.73-.49,10.25,10.25,0,0,0,6.27-8.71Z"/><path class="cls-6" d="M2996.83,286.89h-17V188.62q0-18.71-12.62-18.69c-2.65,0-4.63,2.3-6,6.87l-36.85,110.09h-18.61v-88.8a9.35,9.35,0,0,1-2.65.73c-1,.15-2.8.36-5.46.57a23.38,23.38,0,0,1-16.08-6.16,21.3,21.3,0,0,1-4.73-6.61,19.83,19.83,0,0,1-1.74-8.51,21.66,21.66,0,0,1,6.55-15.57,22.56,22.56,0,0,1,16.69-6.69q11.13,0,17.6,6.78,6.81,6.19,6.81,16.76v44.38c0,2.19-.15,5.15-.47,8.82s-.81,7.85-1.42,12.5c0,1.86-.12,4-.36,6.43s-.59,5.16-1.05,8.07c.65-2.92,1.15-5.19,1.48-6.78a22.29,22.29,0,0,1,1.14-4,138.44,138.44,0,0,1,4.76-16.36l20.27-62.12c3-9.67,10.06-14.54,21.32-14.54,8.79,0,15.69,2.39,20.63,7.14a21.87,21.87,0,0,1,5.78,9,41.08,41.08,0,0,1,2,13.58Zm-89.16-108.56a8.67,8.67,0,0,0-2.91-6.4,9.54,9.54,0,0,0-6.91-2.86,10.12,10.12,0,0,0-7.16,3c-1.56,1.32-2.51,3.41-2.83,6.3a10.06,10.06,0,0,0,.59,3.63,8.44,8.44,0,0,0,2.24,3,12.89,12.89,0,0,0,3.07,1.6,24.48,24.48,0,0,0,4.09.85,10,10,0,0,0,6.91-2.65A8.31,8.31,0,0,0,2907.67,178.33Z"/><path class="cls-6" d="M3125.64,256.38c0,10.44-2.37,18.12-7.08,23.11s-13,7.4-24.94,7.4h-61.39V241.15q0-9.85,4.78-15.85c1.58-1.7,4.56-3.83,8.9-6.49a27.24,27.24,0,0,1-12.08-6.45,17.36,17.36,0,0,1-4.9-12.65V179.33c0-7.13,2.12-12.84,6.37-17.09s10.31-6.4,18.18-6.4a21.91,21.91,0,0,1,16.28,6.78,20,20,0,0,1,6.82,15.48c0,5.78-2.3,10.82-6.84,15.13a23.05,23.05,0,0,1-7,4.66,21.86,21.86,0,0,1-8.64,1.51c-4,0-6.73-.44-8.17-1.3,0,3.64,1.89,7,5.72,9.91,4.15,2.8,9.85,4.21,17,4.21h10.26v13.24h-10.64c-12.7,0-19.07,5.51-19.07,16.66v31.54h35c10.3,0,16.87-1.11,19.75-3.44,3.1-2.77,4.66-8.47,4.66-17.2V157.34h17Zm-61.8-78a8.67,8.67,0,0,0-2.92-6.4,9.53,9.53,0,0,0-6.93-2.86,10.18,10.18,0,0,0-7.14,3c-1.56,1.32-2.5,3.41-2.82,6.3a9.38,9.38,0,0,0,.59,3.63,8,8,0,0,0,2.23,3,12.53,12.53,0,0,0,3.07,1.6,24.75,24.75,0,0,0,4.07.85,10,10,0,0,0,6.93-2.65A8.31,8.31,0,0,0,3063.84,178.33Z"/></g></g></svg>