<svg xmlns="http://www.w3.org/2000/svg" width="79" height="103" viewBox="0 0 2080 2720" preserveAspectRatio="xMidYMid" fill-rule="evenodd" stroke-width="28.222" stroke-linejoin="round"><defs><clipPath id="A"><path d="M0 0h2080v2720H0z"/></clipPath></defs><g clip-path="url(#A)"><path d="M2094 2708H0V0h2094v2708z" fill="transparent"/><path d="M1695 1694H396V399h1299v1295zm-896 326l10-60s-48-20-114-20c-65 0-147 20-147 112.003 0 82.002 95 95.995 116 102.002 22 5 89 17.998 89 52.998 0 35.995-50 47.002-80 47.002-67-2.002-119-31.008-119-31.008l-9 62.998S595 2315 672 2315s151-32.997 151-107.997c0-69.005-43-95-110-111.008-78-17.998-93-28.992-93-50.995s22-42.003 79-42.003c48 0 100 17.003 100 17.003zm356-2.997l9-60s-44-19.005-102-19.005S872 1950 872 2129.005c0 177 133 185.995 186 185.995 52 0 106-22.003 106-22.003l-8-57.997s-39 17.003-91 17.003c-50 0-115-9.005-115-124.005 0-117.997 64-125 116-125 41 0 89 14.005 89 14.005zm252 232.003h-102l-1-100h106c26 0 61 5 61 47.998 0 45.995-29 52.002-64 52.002zm-103-242.997h96c32 0 58 10 58 45 0 31.008-18 46.008-58 46.008s-96-1.008-96-1.008v-90zM1473 2118c0 1.008 0-2.997 0-2.997s54-7.003 54-79.005c0-73.992-69-90-130-90h-164v362.997h171c81 0 141-27.997 141-104.005 0-72.003-61-84.005-72-87.003z" fill="#442583"/><path d="M1549 1421l-138-541-366-331-366 331-138 541 261 123h207v-185s-383 203-283-250c33-151 209-352 310-408 3-2 6-3 9-5 100 48 286 258 320 413 100 453-284 250-284 250v185h207l261-123z" fill="#f9a70d"/></g></svg>