<svg xmlns="http://www.w3.org/2000/svg" width="1890" height="1890" viewBox="0 0 1417.3 1417.3"><defs><clipPath id="A"><path d="M184 215h1059v734H184z"/></clipPath><clipPath id="B"><path d="M1206 215.58L964.68 892.84l-751.8-271.48-27.93 36.22 800.97 290.7 256.52-725.04z"/></clipPath><linearGradient id="C" x1="174.54" x2="1343.83" gradientUnits="userSpaceOnUse" y1="244.18" y2="669.77"><stop stop-color="#0674b6" offset="0"/><stop stop-color="#0674b6" offset=".13"/><stop stop-color="#0674b6" offset=".16"/><stop stop-color="#0674b6" offset=".19"/><stop stop-color="#0873b5" offset=".22"/><stop stop-color="#0473b5" offset=".25"/><stop stop-color="#0772b5" offset=".28"/><stop stop-color="#0772b5" offset=".3"/><stop stop-color="#0972b4" offset=".31"/><stop stop-color="#0972b4" offset=".33"/><stop stop-color="#0c71b4" offset=".34"/><stop stop-color="#0e71b4" offset=".36"/><stop stop-color="#0871b4" offset=".38"/><stop stop-color="#0a70b3" offset=".39"/><stop stop-color="#0a70b3" offset=".41"/><stop stop-color="#0d70b3" offset=".42"/><stop stop-color="#0e6fb3" offset=".44"/><stop stop-color="#0e6fb3" offset=".45"/><stop stop-color="#106fb2" offset=".47"/><stop stop-color="#126eb2" offset=".48"/><stop stop-color="#0f6eb2" offset=".5"/><stop stop-color="#0f6eb2" offset=".52"/><stop stop-color="#106db2" offset=".53"/><stop stop-color="#126db1" offset=".55"/><stop stop-color="#136cb1" offset=".56"/><stop stop-color="#136cb1" offset=".58"/><stop stop-color="#116cb1" offset=".59"/><stop stop-color="#136bb0" offset=".61"/><stop stop-color="#146bb0" offset=".63"/><stop stop-color="#156bb0" offset=".64"/><stop stop-color="#156bb0" offset=".66"/><stop stop-color="#176aaf" offset=".67"/><stop stop-color="#156aaf" offset=".69"/><stop stop-color="#1669af" offset=".7"/><stop stop-color="#1769ae" offset=".72"/><stop stop-color="#1868ae" offset=".73"/><stop stop-color="#1968ae" offset=".75"/><stop stop-color="#1767ad" offset=".77"/><stop stop-color="#1767ad" offset=".78"/><stop stop-color="#1967ad" offset=".8"/><stop stop-color="#1a66ad" offset=".81"/><stop stop-color="#1a66ad" offset=".88"/><stop stop-color="#1a66ad" offset="1"/></linearGradient><clipPath id="D"><path d="M226 90h951v768H226z"/></clipPath><clipPath id="E"><path d="M618.25 90.94l-392 506.09 719.53 260.16 230.44-648.84z"/></clipPath><radialGradient id="F" cx="0" cy="0" r="431.98" gradientTransform="matrix(.99501 0 0 1.005 701.33 474.06)" gradientUnits="userSpaceOnUse"><stop stop-color="#fff" offset="0"/><stop stop-color="#fdfeff" offset=".03"/><stop stop-color="#fdfeff" offset=".06"/><stop stop-color="#fbfcfc" offset=".09"/><stop stop-color="#fafbfc" offset=".11"/><stop stop-color="#f8fbfc" offset=".14"/><stop stop-color="#f7f9fb" offset=".16"/><stop stop-color="#f6f9fb" offset=".19"/><stop stop-color="#f6f8fa" offset=".2"/><stop stop-color="#f5f8fa" offset=".21"/><stop stop-color="#f5f8fa" offset=".22"/><stop stop-color="#f4f8fa" offset=".23"/><stop stop-color="#f4f6f9" offset=".25"/><stop stop-color="#f3f6f9" offset=".26"/><stop stop-color="#f2f6f8" offset=".28"/><stop stop-color="#f1f5f8" offset=".3"/><stop stop-color="#f1f4f7" offset=".3"/><stop stop-color="#f0f4f7" offset=".31"/><stop stop-color="#f0f4f7" offset=".32"/><stop stop-color="#f0f4f7" offset=".33"/><stop stop-color="#eff3f7" offset=".34"/><stop stop-color="#eff3f7" offset=".34"/><stop stop-color="#edf3f7" offset=".35"/><stop stop-color="#eef3f6" offset=".36"/><stop stop-color="#eef2f5" offset=".37"/><stop stop-color="#ecf2f5" offset=".38"/><stop stop-color="#ebf1f5" offset=".38"/><stop stop-color="#ebf1f5" offset=".4"/><stop stop-color="#eaf0f5" offset=".41"/><stop stop-color="#eaf0f4" offset=".43"/><stop stop-color="#e9eff4" offset=".45"/><stop stop-color="#e8eff3" offset=".46"/><stop stop-color="#e7eef3" offset=".48"/><stop stop-color="#e6edf2" offset=".49"/><stop stop-color="#e5edf2" offset=".51"/><stop stop-color="#e3ecf1" offset=".52"/><stop stop-color="#e2ebf1" offset=".53"/><stop stop-color="#e2ebf1" offset=".54"/><stop stop-color="#e1ebf0" offset=".55"/><stop stop-color="#e0eaf0" offset=".57"/><stop stop-color="#dfe9f0" offset=".58"/><stop stop-color="#dfe9f0" offset=".59"/><stop stop-color="#dee9f0" offset=".6"/><stop stop-color="#dde8ee" offset=".61"/><stop stop-color="#dce7ee" offset=".63"/><stop stop-color="#dbe7ee" offset=".64"/><stop stop-color="#dbe7ee" offset=".64"/><stop stop-color="#dae7ee" offset=".65"/><stop stop-color="#dae6ee" offset=".66"/><stop stop-color="#d9e6ee" offset=".67"/><stop stop-color="#d9e6ed" offset=".68"/><stop stop-color="#d8e5ed" offset=".68"/><stop stop-color="#d7e5ed" offset=".69"/><stop stop-color="#d7e5ed" offset=".7"/><stop stop-color="#d6e4ec" offset=".71"/><stop stop-color="#d6e4ec" offset=".71"/><stop stop-color="#d5e3ec" offset=".72"/><stop stop-color="#d6e3ec" offset=".73"/><stop stop-color="#d4e3ec" offset=".74"/><stop stop-color="#d3e2eb" offset=".75"/><stop stop-color="#d3e2eb" offset=".75"/><stop stop-color="#d2e2eb" offset=".77"/><stop stop-color="#d2e1ea" offset=".78"/><stop stop-color="#d1e0ea" offset=".79"/><stop stop-color="#d0e0ea" offset=".8"/><stop stop-color="#cfdfea" offset=".81"/><stop stop-color="#cedfea" offset=".82"/><stop stop-color="#cedee8" offset=".83"/><stop stop-color="#cddee8" offset=".84"/><stop stop-color="#cddee8" offset=".85"/><stop stop-color="#ccdee8" offset=".86"/><stop stop-color="#cbdde8" offset=".86"/><stop stop-color="#cbdde8" offset=".87"/><stop stop-color="#cadce7" offset=".88"/><stop stop-color="#c9dce7" offset=".89"/><stop stop-color="#c8dce7" offset=".9"/><stop stop-color="#c7dae6" offset=".91"/><stop stop-color="#c6dae6" offset=".92"/><stop stop-color="#c6dae6" offset=".93"/><stop stop-color="#c5dae6" offset=".94"/><stop stop-color="#c4d9e5" offset=".95"/><stop stop-color="#c4d9e5" offset=".96"/><stop stop-color="#c3d8e5" offset=".96"/><stop stop-color="#c2d8e5" offset=".97"/><stop stop-color="#c1d7e4" offset=".98"/><stop stop-color="#c1d7e4" offset=".99"/><stop stop-color="#c0d7e4" offset="1"/></radialGradient><clipPath id="G"><path d="M433 299h586v314H433z"/></clipPath><clipPath id="H"><path d="M693.8 302.5c-52.96 5.68-101.84 19.58-146.64 41.7-36.62 18.03-65.07 39.09-85.35 63.2-18.2 21.64-27.5 43.39-27.84 65.27-.15 17.27 7.07 34.09 21.66 50.43 14.59 16.34 36.64 30.9 66.15 43.69 29.5 12.77 64.53 23.4 105.08 31.86 44.02 9.18 84.27 13.9 120.78 14.16s70.6-2.64 102.3-8.66c31.69-6.04 56.56-13.25 74.58-21.66l-49.55-10.35c-26.6 9.16-59.76 14.73-99.47 16.72-39.7 1.98-83.5-2.02-131.37-12-44.77-9.34-82.05-22.05-111.85-38.1s-47.05-34.86-51.8-56.43 3.1-44.5 23.5-68.73c19.47-23.16 47.45-42.82 83.94-59s76.96-25.98 121.44-29.44 88-.72 130.88 8.2c37.46 7.82 68.05 19.27 91.78 34.36s37.35 31.46 40.89 49.09-1.66 34.73-15.58 51.29c-11.93 14.17-29.6 26.66-53 37.44-23.4 10.79-49 17.97-76.46 21.53-20.86 2.76-36.15 3.12-45.86 1.09-5.32-1.1-9.02-3.06-11.1-5.86a6.1 6.1 0 0 1 .42-8.37c1.55-1.46 10.85-8.57 27.89-21.33l122.7-91.4-49-10.22-27.8 20.9c-2.67-11.38-9.33-20.84-19.98-28.35s-23.92-12.94-39.82-16.26c-20.84-4.35-45.66-4.87-74.44-1.56s-57.28 11.3-85.46 24-49 26.9-62.15 42.66c-10.75 12.79-15.84 25.53-15.26 38.23.57 12.69 6.36 23.22 17.35 31.56 10.99 8.36 24.6 14.22 40.84 17.6 14.77 3.08 31.35 3.96 49.74 2.62 18.38-1.33 36.56-4.4 54.52-9.17-3.92 6.18-5.7 10.74-5.37 13.68.45 4.57 3.7 8.69 9.75 12.36 6.04 3.67 15.38 6.82 27.99 9.45 39.5 8.24 84.28 5.84 134.37-7.2 56-14.46 96.08-36.05 120.2-64.73 16.89-20.08 23.67-40.52 20.36-61.34-4-24.22-19.95-45.12-47.57-62.68-27.62-17.57-64.07-31.08-109.34-40.52-39.88-8.32-78.48-12.48-115.8-12.48a481.3 481.3 0 0 0-51.28 2.7m-59.2 197.84c-15.3-3.2-25.7-9.8-31.18-19.85-5.5-10.04-2.5-21.87 8.98-35.5 7.2-8.56 18.02-17.36 32.48-26.4a206.7 206.7 0 0 1 45.21-21.29c15.68-5.14 30.03-8.27 43.05-9.36 13-1.08 25.35-.4 37 2.02 17.67 3.69 29.49 10.57 35.47 20.65s3.36 21.96-7.86 35.64c-8.8 9.94-20.68 19.3-35.7 28.07s-30.43 15.38-46.26 19.82-30.77 7.12-44.82 8.02a187.1 187.1 0 0 1-12.11.41c-9.03 0-17.12-.75-24.27-2.23"/></clipPath><linearGradient id="I" x1="419.75" x2="1039.01" gradientUnits="userSpaceOnUse" y1="338.51" y2="563.9"><stop stop-color="#0674b6" offset="0"/><stop stop-color="#0674b6" offset=".13"/><stop stop-color="#0674b6" offset=".16"/><stop stop-color="#0873b5" offset=".19"/><stop stop-color="#0273b5" offset=".22"/><stop stop-color="#0473b5" offset=".25"/><stop stop-color="#0772b5" offset=".28"/><stop stop-color="#0972b4" offset=".31"/><stop stop-color="#0c71b4" offset=".34"/><stop stop-color="#0e71b4" offset=".38"/><stop stop-color="#0871b4" offset=".39"/><stop stop-color="#0a70b3" offset=".41"/><stop stop-color="#0a70b3" offset=".42"/><stop stop-color="#0d70b3" offset=".44"/><stop stop-color="#0d70b3" offset=".45"/><stop stop-color="#0e6fb3" offset=".47"/><stop stop-color="#106fb2" offset=".48"/><stop stop-color="#106fb2" offset=".5"/><stop stop-color="#126eb2" offset=".52"/><stop stop-color="#0d6eb2" offset=".53"/><stop stop-color="#0f6eb2" offset=".55"/><stop stop-color="#116db1" offset=".56"/><stop stop-color="#106db2" offset=".58"/><stop stop-color="#126db1" offset=".59"/><stop stop-color="#126db1" offset=".61"/><stop stop-color="#136cb1" offset=".63"/><stop stop-color="#156cb1" offset=".64"/><stop stop-color="#116cb1" offset=".66"/><stop stop-color="#136bb0" offset=".67"/><stop stop-color="#146bb0" offset=".69"/><stop stop-color="#146bb0" offset=".7"/><stop stop-color="#156bb0" offset=".72"/><stop stop-color="#176aaf" offset=".73"/><stop stop-color="#186aaf" offset=".75"/><stop stop-color="#156aaf" offset=".77"/><stop stop-color="#1669af" offset=".78"/><stop stop-color="#1769ae" offset=".8"/><stop stop-color="#1769ae" offset=".81"/><stop stop-color="#1868ae" offset=".83"/><stop stop-color="#1968ae" offset=".84"/><stop stop-color="#1767ad" offset=".86"/><stop stop-color="#1967ad" offset=".88"/><stop stop-color="#1967ad" offset=".89"/><stop stop-color="#1a66ad" offset=".91"/><stop stop-color="#1a66ad" offset=".94"/><stop stop-color="#1a66ad" offset="1"/></linearGradient></defs><g clip-path="url(#A)"><g clip-path="url(#B)"><path d="M308.66-124.3l-359.2 986.88 1169.3 425.58 359.19-986.88z" fill="url(#C)"/></g></g><g clip-path="url(#D)"><g clip-path="url(#E)"><path d="M226.35 90.94v766.25h949.97V90.94z" fill="url(#F)"/></g></g><path d="M604.15 59.88L172.88 610.17l791.8 282.92 253.6-705.56z" fill="none" stroke="#0372b1" stroke-miterlimit="3" stroke-width="1.42"/><g clip-path="url(#G)"><g clip-path="url(#H)"><path d="m502.53 111.05-169.38 465.38 619.27 225.39 169.39-465.38z" fill="url(#I)"/></g></g><path d="M612.39 444.97c-11.47 13.64-14.47 25.47-8.98 35.5 5.48 10.04 15.88 16.66 31.18 19.85 10.2 2.13 22.33 2.74 36.38 1.82 14.05-.9 28.98-3.6 44.82-8.02s31.25-11.05 46.26-19.82 26.9-18.14 35.69-28.07c11.22-13.68 13.84-25.55 7.86-35.64-5.98-10.08-17.8-16.96-35.47-20.65-11.66-2.43-24-3-37-2.02-13.02 1.09-27.37 4.2-43.05 9.36a206.6 206.6 0 0 0-45.21 21.28c-14.46 9.04-25.28 17.84-32.48 26.4m92.73 81.96c-.33-2.94 1.46-7.5 5.38-13.68a294.2 294.2 0 0 1-54.52 9.17c-18.4 1.34-34.97.46-49.74-2.62-16.24-3.4-29.86-9.25-40.84-17.6-11-8.34-16.78-18.87-17.35-31.56-.58-12.7 4.5-25.44 15.26-38.23 13.25-15.75 33.97-29.97 62.15-42.66 28.18-12.7 56.68-20.7 85.46-24s53.59-2.8 74.44 1.56c15.9 3.32 29.17 8.74 39.82 16.26s17.3 16.97 19.98 28.36l27.8-20.92 49 10.23-150.6 112.72a6.1 6.1 0 0 0-.42 8.38c2.07 2.8 5.76 4.75 11.09 5.86 9.7 2.03 25 1.66 45.86-1.1 27.57-3.56 53.06-10.74 76.47-21.53 23.4-10.8 41.08-23.27 53-37.45 13.93-16.56 19.12-33.65 15.58-51.3s-17.16-34-40.9-49.1-54.32-26.54-91.78-34.36c-42.77-8.93-86.4-11.66-130.88-8.2-44.48 3.45-84.95 13.27-121.44 29.44S523.48 390.45 504 413.6c-20.4 24.25-28.23 47.16-23.5 68.73s21.99 40.39 51.79 56.43 67.07 28.75 111.85 38.09c47.88 9.99 91.67 13.99 131.37 12 39.7-2 72.86-7.57 99.46-16.72l49.56 10.34c-18.02 8.4-42.9 15.63-74.58 21.66-31.7 6.02-65.8 8.9-102.3 8.66-36.5-.25-76.76-4.98-120.78-14.16-40.55-8.46-75.57-19.1-105.08-31.86-29.5-12.8-51.56-27.34-66.15-43.7-14.6-16.35-21.8-33.16-21.66-50.43.36-21.88 9.64-43.63 27.84-65.27 20.28-24.1 48.73-45.18 85.35-63.2 44.8-22.12 93.67-36.03 146.63-41.7s108.65-2.4 167.08 9.78c45.27 9.45 81.72 22.96 109.34 40.53 27.62 17.56 43.47 38.46 47.57 62.68 3.3 20.8-3.47 41.25-20.36 61.33-24.13 28.68-64.2 50.26-120.2 64.73-50.1 13.03-94.87 15.43-134.37 7.19-12.6-2.63-21.95-5.8-28-9.45-6.05-3.67-9.3-7.8-9.75-12.36" fill="#1b64ab"/><path d="M261.27 1256.4v-74.3H239.5v-15.16h58.32v15.16h-21.76v74.29zm46.17 0v-89.45h14.82v35.18h29.04v-35.18h14.8v89.45h-14.8v-39.1h-29.04v39.1zm112.88-35.4l-10.16-33.18-9.93 33.18zm27.16 35.4H431.4l-6.4-20.25h-29.33l-6.06 20.25h-15.75l28.47-89.45h15.84zm7.4-89.5h14.8v89.45h-14.8zm67.84 89.5l-17.56-89.45h15.19l11 61.5 13.3-61.5h17.6l12.95 62.54 11.2-62.54h14.89l-17.58 89.45h-15.82l-14.68-66.93-14.48 66.93zm86.33 0v-89.45h54.39v15.16h-39.57v19.78h36.8v15.05h-36.8v24.3h40.97v15.16zm83.03-39v23.84h13.73c6.02 0 9.88-.3 11.59-.94 1.7-.63 3.14-1.87 4.3-3.7 1.16-1.84 1.74-4.18 1.74-7.02 0-2.92-.62-5.32-1.86-7.2-1.24-1.88-2.9-3.18-4.94-3.9-2.05-.7-6.25-1.06-12.6-1.06zm0-35.53v20.6h9.73c5.84 0 9.45-.1 10.83-.3 2.52-.4 4.48-1.47 5.9-3.2 1.42-1.72 2.13-4.06 2.13-7.02 0-2.63-.58-4.77-1.73-6.4-1.16-1.64-2.55-2.66-4.2-3.07s-6.36-.6-14.14-.6zm-14.8-14.93h29.36c8 0 13.65.73 16.9 2.2s6 4.04 8.24 7.75c2.24 3.7 3.36 7.88 3.36 12.56a23.7 23.7 0 0 1-2.88 11.68c-1.92 3.47-4.4 6.05-7.48 7.72 4.36 1.55 7.78 4.19 10.25 7.94s3.7 8.3 3.7 13.68c0 6.5-1.57 12.02-4.7 16.52s-6.83 7.27-11 8.33c-2.97.74-9.86 1-20.68 1h-24.96zm73.84 89.46v-89.45h22.13l13.34 61.13 13.15-61.13h22.32v89.45h-13.77v-70.53l-14.63 70.53h-14.2l-14.57-70.53v70.53zm124.52-35.4l-10.16-33.18-9.93 33.18zm27.16 35.4h-16.06l-6.4-20.25H851l-6.06 20.25H829.2l28.47-89.45h15.84zm34.07 1.49c-17.98 0-27.98-10.22-30-30.67l14.47-1.73c1.62 11.42 6.93 17.13 15.95 17.13 4.46 0 7.97-1.16 10.53-3.5 2.55-2.34 3.84-5.22 3.84-8.68 0-2.03-.45-3.75-1.34-5.18s-2.25-2.6-4.07-3.5-6.25-2.44-13.3-4.6c-6.3-1.9-10.93-3.98-13.85-6.2a23.6 23.6 0 0 1-6.99-8.8 27 27 0 0 1-2.59-11.73c0-4.88 1.1-9.27 3.33-13.16 2.22-4 5.29-6.84 9.2-8.84s8.74-3 14.49-3c8.64 0 15.39 2.34 20.24 7.02s7.42 11.36 7.7 20.06l-14.8.8c-.66-4.8-2.07-8.17-4.24-10.1-2.17-1.9-5.26-2.87-9.27-2.87-4 0-7 .83-9.27 2.49s-3.25 3.73-3.25 6.2a7.7 7.7 0 0 0 2.96 6.14c1.98 1.66 6.48 3.49 13.5 5.48 7.45 2.16 12.82 4.43 16.13 6.82a23.1 23.1 0 0 1 7.59 9.21c1.74 3.76 2.62 8.32 2.62 13.69 0 7.77-2.4 14.3-7.16 19.58-4.78 5.29-12.25 7.93-22.42 7.93m58.58-1.5v-74.3h-21.76v-15.16H1032v15.16h-21.75v74.29zm46.15 0v-89.45h54.39v15.16h-39.58v19.78h36.8v15.05h-36.8v24.3h40.97v15.16zm83.2-51.6h10.94c6.69 0 10.94-.3 12.77-.9 1.82-.6 3.3-1.78 4.43-3.56 1.14-1.8 1.7-4.17 1.7-7.14 0-2.85-.57-5.14-1.7-6.86a8.7 8.7 0 0 0-4.62-3.57c-1.38-.45-5.37-.67-11.98-.67h-11.55zm-14.8 51.6v-89.45h31.16c7.96 0 13.66.8 17.07 2.4s6.22 4.39 8.4 8.36 3.29 8.7 3.29 14.24c0 6.99-1.68 12.62-5.03 16.89s-8.1 6.95-14.28 8.05c3.17 2.29 5.79 4.79 7.86 7.49s4.9 7.56 8.46 14.56l8.88 17.45h-17.78l-10.6-19.47c-3.82-7.04-6.42-11.44-7.8-13.22s-2.84-3-4.38-3.67-4-1-7.42-1h-3.04v37.37zm-846 72.39h25.09l-7.64-24.8c-2.36-7.6-4-13.8-5.2-18.56a131.4 131.4 0 0 1-4.04 17.1zm-20.9 36.68l28.2-89.45h10.4l30 89.45h-11.1l-8.5-27.08h-30.9l-7.92 27.08zm97.59-29.08l9.26-.8c.48 4.95 1.59 8.8 3.3 11.55 1.72 2.77 4.18 4.98 7.39 6.66a23 23 0 0 0 10.82 2.51c5.75 0 10.22-1.4 13.4-4.23 3.18-2.82 4.77-6.48 4.77-10.98 0-2.64-.58-4.93-1.74-7s-3-3.57-5.24-4.83c-2.34-1.25-7.38-3.03-15.14-5.34-6.9-2.06-11.82-4.12-14.76-6.2a21.5 21.5 0 0 1-6.85-7.89c-1.63-3.18-2.45-6.8-2.45-10.82 0-7.23 2.34-13.15 7-17.74s10.97-6.9 18.9-6.9c5.45 0 10.2 1.08 14.29 3.23s7.25 5.25 9.5 9.28 3.46 8.77 3.63 14.22l-9.26.8c-.5-5.8-2.23-10.12-5.22-12.92s-7.2-4.2-12.6-4.2c-5.5 0-9.68 1.23-12.57 3.68-2.9 2.46-4.33 5.64-4.33 9.54 0 3.62 1.05 6.42 3.17 8.4 2.1 1.99 6.86 4 14.25 6.04 7.23 1.99 12.3 3.72 15.23 5.19 4.47 2.28 7.84 5.27 10.1 8.99 2.27 3.7 3.4 8.16 3.4 13.32a27.7 27.7 0 0 1-3.6 13.98c-2.4 4.2-5.66 7.4-9.78 9.6s-9.1 3.29-15 3.29c-9.06 0-16.28-2.75-21.67-8.25-5.38-5.48-8.18-12.93-8.38-22.3m92.83 0l9.25-.8c.49 4.95 1.59 8.8 3.3 11.55 1.72 2.77 4.19 4.98 7.39 6.66s6.8 2.5 10.82 2.5c5.76 0 10.22-1.4 13.4-4.23a14 14 0 0 0 4.77-10.98c0-2.64-.58-4.93-1.74-7s-3-3.57-5.24-4.83c-2.34-1.25-7.38-3.03-15.14-5.34-6.9-2.06-11.83-4.12-14.76-6.2a21.4 21.4 0 0 1-6.85-7.89c-1.63-3.18-2.45-6.8-2.45-10.82 0-7.23 2.33-13.15 7-17.74s10.98-6.9 18.9-6.9c5.45 0 10.2 1.08 14.3 3.23a23 23 0 0 1 9.51 9.28c2.26 4.03 3.47 8.77 3.63 14.22l-9.26.8c-.5-5.8-2.23-10.12-5.2-12.92s-7.2-4.2-12.6-4.2c-5.5 0-9.68 1.23-12.57 3.68-2.9 2.46-4.33 5.64-4.33 9.54 0 3.62 1.05 6.42 3.17 8.4s6.86 4 14.26 6.04c7.23 1.99 12.3 3.72 15.23 5.19 4.46 2.28 7.84 5.27 10.1 8.99 2.27 3.7 3.4 8.16 3.4 13.32 0 5.12-1.2 9.78-3.6 13.98a24.2 24.2 0 0 1-9.79 9.61c-4.12 2.2-9.1 3.29-15 3.29-9.06 0-16.28-2.75-21.67-8.25-5.38-5.48-8.18-12.93-8.37-22.3m103.48-14.3c0 11 2.42 19.53 7.27 25.6s10.73 9 17.67 9c7.09 0 13.04-3.07 17.85-9.2s7.2-15.14 7.2-27.03c0-7.68-1.24-14.54-3.7-20.6a25.3 25.3 0 0 0-8.61-11.11c-3.83-2.78-8.02-4.17-12.55-4.17-7.3 0-13.3 3.04-18.03 9.13s-7.08 15.5-7.08 28.26m-1.1 30.75c-5.98-8.53-8.96-18.83-8.96-31 0-15.24 3.35-26.95 10.06-35.14s15.06-12.3 25.06-12.3c6.46 0 12.35 1.83 17.68 5.49s9.54 8.97 12.65 15.94 4.66 15.27 4.66 24.9c0 13.25-3 24.03-9.02 32.36-6.62 9.18-15.3 13.78-26.04 13.78-10.8 0-19.5-4.72-26-14.15M685.9 1334l9.72 3c-2.16 10.04-5.93 17.52-11.33 22.46-5.4 4.94-11.96 7.4-19.7 7.4-6.8 0-12.6-1.66-17.44-4.97s-8.77-8.63-11.85-15.94c-3.07-7.32-4.6-15.96-4.6-25.93 0-9.84 1.54-18.16 4.6-24.97s7.24-11.95 12.5-15.43 11.1-5.22 17.59-5.22c7.08 0 13.17 2.2 18.26 6.59s8.66 10.84 10.69 19.34l-9.5 2.78c-3.26-12.35-9.8-18.52-19.6-18.52-4.88 0-9.12 1.25-12.7 3.74-3.6 2.5-6.44 6.39-8.58 11.67s-3.2 11.95-3.2 20.02c0 12.22 2.16 21.39 6.47 27.5 4.32 6.1 10.05 9.16 17.22 9.16 5.29 0 9.86-1.87 13.7-5.62 3.85-3.75 6.42-9.44 7.72-17.06m48.1-58h9.72v89.45h-9.72zm64.06 52.8h25.08l-7.64-24.8c-2.36-7.6-4.1-13.8-5.2-18.56-.96 5.74-2.3 11.44-4.04 17zm-20.9 36.68l28.2-89.45h10.4l30 89.45h-11.1l-8.5-27.08h-30.9l-7.9 27.08zm112.19.02v-78.92h-24.2v-10.53h58.2v10.53h-24.3v78.92zm70.08-89.5h9.72v89.45h-9.72zm58.56 46c0 11 2.42 19.53 7.27 25.6s10.73 9 17.67 9c7.09 0 13.04-3.07 17.84-9.2 4.8-6.13 7.2-15.14 7.2-27.03 0-7.68-1.24-14.54-3.7-20.6-1.9-4.62-4.77-8.33-8.6-11.1s-8.02-4.17-12.56-4.17c-7.3 0-13.3 3.04-18.03 9.13s-7.08 15.5-7.08 28.26m-1.1 30.75c-5.98-8.53-8.96-18.83-8.96-31 0-15.24 3.35-26.95 10.06-35.14 6.7-8.2 15.06-12.3 25.06-12.3 6.46 0 12.35 1.83 17.68 5.49s9.54 8.97 12.65 15.94 4.66 15.27 4.66 24.9c0 13.25-3 24.03-9.02 32.36-6.63 9.18-15.3 13.78-26.04 13.78-10.8 0-19.52-4.72-26-14.15m97.7 12.65v-89.45h9.98l38.5 70.45v-70.45h9.26v89.45h-9.93l-38.44-70.34v70.34zm-846.85-261c0-1-.52-2.14-1.56-3.12a4.3 4.3 0 0 0-3.34-1.36c-1.26 0-2.43.46-3.52 1.36a4.9 4.9 0 0 0-1.3 3.12c0 .73.09 1.35.27 1.85a4 4 0 0 0 1.03 1.45 5.8 5.8 0 0 0 1.55.8c.53.18 1.2.32 1.96.4a6.1 6.1 0 0 0 1.86-.25c.5-.2.98-.5 1.48-.97 1.04-.97 1.56-2.04 1.56-3.3m38-55.86a19.2 19.2 0 0 1-5.53 5.06 24.9 24.9 0 0 1-7.33 2.55c3.38 3.14 5.08 7.02 5.08 11.6v46.8h-8.58l-16.37-34.84c-.65-1.3-1.7-2.4-3.17-3.32-.93-.68-2.12-1-3.6-1-.6 0-1.05.03-1.4.09-4.02.62-6.02 3-6.02 7.18v12c.38-.15.8-.26 1.27-.34.49-.1 1.37-.2 2.66-.3a10.9 10.9 0 0 1 7.7 2.95c2.1 1.95 3.18 4.46 3.18 7.5a10.4 10.4 0 0 1-.78 4.09c-.5 1.24-1.36 2.46-2.55 3.66-1.94 2.09-4.6 3.15-7.93 3.15-3.67 0-6.58-1.06-8.73-3.18a11.9 11.9 0 0 1-3.16-8.41v-22c0-3.32 1-6 3.34-8a13.4 13.4 0 0 1 6.84-4.03c.77-.14 1.87-.3 3.3-.45l2.66-.33a22.2 22.2 0 0 1 4.44.4c1.33.26 2.59.7 3.79 1.39 2.17 1 3.83 2.79 4.98 5.38l9.76 21.3v-28.13c0-3.56-1.6-6.62-4.74-9.22-3.16-2.6-6.97-3.9-11.48-3.9-9.14 0-15.2 3.59-18.18 10.78h-8.64c1.56-5.34 4.83-9.6 9.78-12.77a33.6 33.6 0 0 1 8.07-3.34 36.2 36.2 0 0 1 9.46-1.17 47.5 47.5 0 0 1 3.79.16c1.23.1 2.54.35 3.96.7.75.15 1.52.33 2.29.48l2.69.79c.32.1.78.17 1.39.17 1.52 0 3.07-.57 4.64-1.73 2.13-1.68 3.83-3.85 5.14-6.48zm24 55.26v-8.8a8.2 8.2 0 0 0-5.52 1.95c-1.4 1.35-2.1 2.93-2.1 4.75 0 1.72.38 3.12 1 4.2a4.3 4.3 0 0 0 3.39 1.86c2.1 0 3.15-1.3 3.15-3.96m.46-42.6c0-1.17-.46-2.2-1.4-3.14a4.5 4.5 0 0 0-3.31-1.41 4.8 4.8 0 0 0-3.43 1.45c-.75.64-1.2 1.67-1.36 3.09 0 .7.09 1.29.29 1.78.18.5.54.97 1.07 1.49.48.34.96.6 1.47.78s1.16.3 1.95.42a4.7 4.7 0 0 0 3.31-1.3c.93-.85 1.39-1.9 1.39-3.17m39.57 44.5c0 5.83-2.56 8.75-7.7 8.75h-2.87c-1.3-3.8-3.98-7.6-8-11.44a33.4 33.4 0 0 0-6.55-5.03c-2.3-1.32-4.64-2.32-7.05-3v9.7a10 10 0 0 1-2.81 7.28c-1.85 1.94-4.48 2.92-7.84 2.92-3.36 0-6.34-1.17-8.88-3.5-2.4-2.6-3.62-5.77-3.62-9.6 0-3.64 1.53-6.83 4.57-9.58a16.2 16.2 0 0 1 4.99-3.08c1.8-.7 3.7-1.06 5.7-1.06v-17.18a4.7 4.7 0 0 1-1.32.36 41.5 41.5 0 0 1-2.73.28c-3.02 0-5.7-1-8-3.02a10.4 10.4 0 0 1-2.36-3.25c-.58-1.22-.87-2.62-.87-4.18a10.7 10.7 0 0 1 3.18-7.64 10.9 10.9 0 0 1 8.11-3.28c3.6 0 6.45 1.1 8.55 3.33 2.2 2.02 3.3 4.75 3.3 8.2v26.79a20.7 20.7 0 0 1 5.94 1.5c2 .86 4.33 2.06 6.67 3.6 4.6 2.79 8.33 6.12 11.23 9.99V1051h8.33zm54.8 8.79h-8.33v-45.28c0-3.84-1.17-7-3.5-9.52-2.44-2.43-5.67-3.62-9.67-3.62-3.58 0-6.56.93-9 2.76-2.37 1.85-4.22 4.53-5.57 8.03h-8.7a23.3 23.3 0 0 1 8.17-12.5c4.04-3.2 9-4.8 15.17-4.8 6.22 0 11.34 1.6 15.33 4.86 3.98 3.22 5.98 7.63 5.98 13.15zm47.53-37.7a4.3 4.3 0 0 0-1.46-3.18c-.82-.98-1.94-1.46-3.36-1.46a4.8 4.8 0 0 0-3.52 1.46c-.65.62-1.1 1.69-1.4 3.18a4.6 4.6 0 0 0 1.39 3.33c.49.4 1.12.7 1.88.89a40.6 40.6 0 0 0 1.63.35c.75 0 1.38-.08 1.84-.23.46-.17.96-.5 1.52-1 .97-1.05 1.46-2.14 1.46-3.33m18.75 37.65h-8.33v-41.36c0-4.52-1.38-8.4-4.16-11.66-3.15-3.6-7.54-5.4-13.18-5.4-5.37 0-9.76 1.6-13.18 4.82-3.43 3.2-5.13 6.98-5.13 11.3a58.5 58.5 0 0 0 .16 4.4c.1 1.47.32 3.03.64 4.63l1.98 10.1v7.64l-.23 1.7 1.3-9.56a99.1 99.1 0 0 1 2.36-9.69c.87-2.87 1.93-5.54 3.17-8.1 2.27-4.82 5.93-7.23 10.98-7.23a11.2 11.2 0 0 1 7.75 3.07c2.25 2.06 3.37 4.6 3.37 7.66a10.2 10.2 0 0 1-3.17 7.53c-2.12 2.07-4.78 3-7.98 3-2.72 0-5.15-.83-7.32-2.5-1.04 2.68-2.43 7.33-4.16 13.95l-1.94 7.95-1.7 7.63h-8.88v-10c0-4.32-1-11.1-3-20.36l-1.14-6.87c-.33-2.26-.5-4-.5-5.23 0-6.02 2.39-11.23 7.16-15.63 5.27-4.55 11.9-6.82 19.93-6.82 7.58 0 13.68 2.1 18.3 6.34 4.6 4.26 6.9 9.4 6.9 15.47zM519.6 1104v-8.8c-2.17 0-4.02.65-5.52 1.95-1.42 1.35-2.1 2.93-2.1 4.75 0 1.72.34 3.12 1.08 4.2.74 1.09 1.87 1.72 3.37 1.86 2.1 0 3.18-1.3 3.18-3.96m.46-42.6c0-1.17-.48-2.2-1.4-3.14-.94-.94-2.04-1.4-3.32-1.4a4.8 4.8 0 0 0-3.43 1.45c-.73.64-1.2 1.67-1.34 3.09 0 .7.09 1.29.26 1.78a4.5 4.5 0 0 0 1.09 1.49 5.9 5.9 0 0 0 1.48.78 11.5 11.5 0 0 0 1.95.42c1.28 0 2.38-.44 3.32-1.3.92-.85 1.4-1.9 1.4-3.17m39.57 44.5c0 5.83-2.57 8.75-7.7 8.75h-2.86c-1.3-3.8-4-7.6-8.03-11.44a33.3 33.3 0 0 0-6.55-5.03c-2.3-1.32-4.63-2.32-7.03-3v9.7c0 2.92-.96 5.34-2.8 7.28-1.88 1.94-4.48 2.92-7.85 2.92a12.8 12.8 0 0 1-8.9-3.51c-2.4-2.6-3.6-5.77-3.6-9.6 0-3.64 1.5-6.83 4.57-9.58 1.52-1.36 3.18-2.4 4.98-3.08a15.7 15.7 0 0 1 5.73-1.06v-17.18a5.1 5.1 0 0 1-1.33.36c-.5.07-1.4.18-2.72.28-3.04 0-5.7-1-8.02-3.02a10.6 10.6 0 0 1-2.36-3.25 9.6 9.6 0 0 1-.86-4.18 10.6 10.6 0 0 1 3.18-7.64c2.1-2.17 4.82-3.28 8-3.28 3.6 0 6.45 1.1 8.55 3.33 2.2 2.02 3.3 4.75 3.3 8.2v26.79a20.8 20.8 0 0 1 5.93 1.5c2.09.86 4.32 2.06 6.68 3.6a39.6 39.6 0 0 1 11.23 9.99V1051h8.33zm33.97-44.5c0-1.17-.48-2.2-1.45-3.1a4.2 4.2 0 0 0-3.3-1.45c-1.27 0-2.43.48-3.44 1.45-.7.64-1.13 1.67-1.3 3.09 0 .69.1 1.3.29 1.82a3.6 3.6 0 0 0 1.02 1.4c.48.42 1 .73 1.85.9s1.27.29 1.59.35c.75 0 1.36-.07 1.82-.23a4.6 4.6 0 0 0 1.48-.97c.97-.93 1.45-2 1.45-3.27m31.94 43.42c0 3.52-.72 6.05-2.18 7.6-1.3 1.5-3.3 2.25-6.02 2.25h-2.85l-13.5-29.52-13.43 29.52H576.5v-52.74c0-3.4 1.05-6.2 3.15-8.33 2.08-2.15 5.06-3.23 8.9-3.23 3.2 0 5.87 1.1 7.98 3.33a9.8 9.8 0 0 1 3.33 7.59c0 2.84-1.05 5.3-3.18 7.35a10.8 10.8 0 0 1-7.84 3.1c-1.16 0-1.95-.03-2.42-.1-.46-.04-1-.23-1.6-.55v31.98l13.32-28.18 5.9-.03 13.16 28.23v-52h8.33zm-25.5 26.18a4 4 0 0 0-1.19-2.99c-.8-.8-1.9-1.25-3.33-1.4-1.26 0-2.3.38-3.08 1.15-.8.79-1.26 1.85-1.43 3.24a4.2 4.2 0 0 0 1.3 3.12c.72.68 1.79 1.13 3.2 1.27 1.26 0 2.29-.4 3.07-1.16.8-.78 1.28-1.85 1.45-3.24m25.46 11.34c0 4.02-.96 7.07-2.9 9.08-1.9 2.03-5.07 3.04-9.46 3.04h-20.14v-5.66c2.23 0 3.8-.32 4.73-.94.77-.74 1.14-2 1.14-4.03v-3.4l-3.36.65c-3.04 0-5.55-.96-7.55-2.85a9.5 9.5 0 0 1-2.98-7.21c0-2.9.98-5.3 2.98-7.2 2-1.9 4.52-2.86 7.55-2.86 3.39 0 6.16 1.03 8.33 3.06 2.24 1.86 3.36 4.4 3.36 7.64v16.94h3c2.96 0 4.9-.52 5.83-1.53a9.4 9.4 0 0 0 .81-2.23 15.8 15.8 0 0 0 .32-3.38v-19.87l8.33-.08zM611.4 1022c0-2.64-1.38-3.95-4.14-3.95-2.8 0-4.2 1.3-4.2 3.95 0 2.54 1.4 3.8 4.2 3.8 2.76 0 4.14-1.27 4.14-3.8m26.38-3.97c-.65 6.67-3.67 11.88-9.08 15.65-2.32 1.52-4.92 2.72-7.82 3.6-2.88.85-6.04 1.29-9.45 1.29-2.75 0-5.5-.3-8.22-.9 1.53-.84 2.76-1.82 3.7-2.93.95-1.12 1.68-2.5 2.17-4.1l-1.72.2a9.5 9.5 0 0 1-6.55-2.56c-.8-.83-1.45-1.78-1.9-2.85a8.4 8.4 0 0 1-.7-3.39c0-2.44.87-4.5 2.6-6.23.88-.77 1.88-1.4 3-1.86a9 9 0 0 1 3.56-.71 10 10 0 0 1 7.19 2.74 8.9 8.9 0 0 1 2.87 6.71c0 2.05-.2 3.75-.55 5.13a23.2 23.2 0 0 1-.93 2.89c-.23.55-.67 1.29-1.3 2.25 2.16 0 4.14-.44 5.96-1.3 1.86-.84 3.62-2 5.34-3.76 2.96-2.85 4.44-6.14 4.44-9.84zm34.03 58.87c0-1.2-.5-2.25-1.5-3.18-1-.98-2.04-1.46-3.43-1.46a5 5 0 0 0-3.6 1.46c-.78.68-1.24 1.72-1.42 3.18 0 .66.09 1.25.29 1.77.2.5.58 1.03 1.13 1.55.49.37 1 .63 1.55.8.54.2 1.2.34 2.05.43 1.34 0 2.47-.43 3.43-1.24 1-1.05 1.5-2.14 1.5-3.33m19.9 37.65h-8.33v-41.36c0-4.8-1.4-8.73-4.14-11.8-3.02-3.52-7.3-5.25-12.78-5.25-5.15 0-9.4 1.44-12.82 4.35-3.4 2.9-5.27 5.66-5.6 8.3l-.32 5.87c0 1.8.16 3.84.48 6.17.32 2.3.88 5.13 1.68 8.48 1.49 6.58 2.24 10.95 2.24 13.12a63.3 63.3 0 0 1 1.2-2.01c.42-.68.97-1.45 1.6-2.26.43-.66.88-1.3 1.36-1.87.7-.87 1.5-1.82 2.4-2.87l5.46-6.2c-2.3-.46-4.35-1.7-6.2-3.66-1.6-2.07-2.37-4.3-2.37-6.67 0-2.75 1.06-5.26 3.18-7.52 2.34-2.13 5.03-3.2 8.07-3.2 2.95 0 5.55 1.07 7.84 3.2 1 .96 1.93 2 2.49 3.32a9.9 9.9 0 0 1 .87 4.22c0 2.17-.4 3.9-1.2 5.2-.4.78-1 1.59-1.5 2.4-.64.82-1.25 1.57-1.84 2.24l-9.6 11.57a200.5 200.5 0 0 0-6.35 8.75c-2.1 3.08-3.6 5.57-4.48 7.48h-9.02v-9.23c0-2.18-.17-4.5-.5-7-.32-2.5-1-5.64-1.73-9.45-.84-3.8-1.46-7-1.84-9.62a50.7 50.7 0 0 1-.56-7.17c0-6.3 2.43-11.58 7.32-15.93 4.89-4.36 11.47-6.52 19.76-6.52 7.49 0 13.57 2.08 18.23 6.29 4.66 4.19 7 9.37 7 15.52zM666.4 1131c0-1.23-.4-2.23-1.2-3-.8-.8-1.9-1.25-3.33-1.4-1.26 0-2.3.38-3.07 1.15a5.2 5.2 0 0 0-1.45 3.24c0 1.23.43 2.27 1.32 3.12.7.68 1.78 1.13 3.2 1.27 1.26 0 2.29-.4 3.08-1.16.8-.78 1.27-1.85 1.43-3.24m25.46 11.34c0 4.02-.96 7.07-2.9 9.08-1.9 2.03-5.06 3.04-9.46 3.04h-20.14v-5.66c2.23 0 3.8-.32 4.73-.94.77-.74 1.15-2 1.15-4.03v-3.4l-3.36.65c-3.04 0-5.55-.96-7.55-2.85-1.98-1.9-2.98-4.3-2.98-7.2s1-5.3 2.98-7.2c2-1.9 4.52-2.86 7.55-2.86 3.39 0 6.16 1.03 8.34 3.06a9.4 9.4 0 0 1 3.35 7.64v16.94h3c2.96 0 4.9-.52 5.83-1.53a8.8 8.8 0 0 0 .81-2.23 14.8 14.8 0 0 0 .32-3.38v-19.87l8.33-.08zm68.04-37.84c0-1.18-.5-2.2-1.48-3.12-.8-.9-1.93-1.38-3.34-1.38-1.36 0-2.54.46-3.5 1.38-.76.7-1.22 1.75-1.4 3.12 0 .72.09 1.3.29 1.79.19.5.55.99 1.1 1.5a6.3 6.3 0 0 0 1.5.78 9.1 9.1 0 0 0 2.01.44 4.9 4.9 0 0 0 3.39-1.3c.95-.87 1.43-1.93 1.43-3.2m6.25.07c0 1.52-.26 2.88-.78 4.13-.5 1.23-1.36 2.44-2.55 3.63-2.1 2.1-4.75 3.18-7.98 3.18-3.7 0-6.65-1.07-8.88-3.2-1-1.07-1.77-2.33-2.33-3.75a12.4 12.4 0 0 1-.86-4.63v-52.74h8.33v43.57c.65-.26 2-.48 4-.62a11.3 11.3 0 0 1 7.72 2.94c2.2 1.97 3.3 4.46 3.3 7.49m-37.95-.07a4.2 4.2 0 0 0-1.43-3.12c-.95-.9-2.08-1.38-3.38-1.38-1.36 0-2.53.46-3.5 1.38-.76.66-1.22 1.7-1.4 3.12a4.5 4.5 0 0 0 .29 1.79 4.1 4.1 0 0 0 1.1 1.51 6.6 6.6 0 0 0 1.5.78 9.2 9.2 0 0 0 2.01.44 4.9 4.9 0 0 0 3.38-1.3c.96-.87 1.43-1.93 1.43-3.2m6.25.07c0 1.52-.26 2.88-.78 4.13-.5 1.23-1.36 2.44-2.55 3.63-2.1 2.1-4.74 3.18-7.98 3.18-3.7 0-6.66-1.07-8.88-3.2-2.12-2.25-3.18-5.06-3.18-8.37v-52.74h8.34v43.57c.65-.26 1.99-.48 4-.62a11.3 11.3 0 0 1 7.72 2.94c2.2 1.97 3.3 4.46 3.3 7.49m61.32-.07c0-1.14-.5-2.16-1.55-3.12-.8-.9-1.94-1.38-3.36-1.38-1.25 0-2.43.46-3.5 1.38-.72.66-1.15 1.7-1.32 3.12a5.2 5.2 0 0 0 .29 1.84c.19.5.54.99 1.02 1.46.49.33 1 .6 1.54.78.55.2 1.2.33 1.97.44.76 0 1.38-.1 1.88-.28a4.3 4.3 0 0 0 1.48-.93c1.04-.98 1.55-2.07 1.55-3.3m30.32 10.15h-8.56l-16.37-34.85c-.66-1.27-1.73-2.37-3.17-3.33-.92-.65-2.12-.98-3.6-.98a10.1 10.1 0 0 0-1.39.07c-4.02.64-6.03 3-6.03 7.17v12.02c.38-.16.79-.27 1.29-.36.49-.07 1.37-.16 2.66-.26 3 0 5.55.98 7.68 2.94 2.13 1.97 3.18 4.46 3.18 7.49a10.6 10.6 0 0 1-.77 4.13c-.53 1.23-1.36 2.44-2.55 3.63-1.94 2.1-4.6 3.18-7.93 3.18-3.67 0-6.6-1.07-8.73-3.2-2.1-2.26-3.17-5.06-3.17-8.4v-21.98c0-3.34 1.12-6.03 3.34-8 2.03-2.13 4.29-3.47 6.86-4.04a41.1 41.1 0 0 1 3.3-.48l2.66-.3c1.63 0 3 .13 4.43.39 1.34.26 2.6.72 3.79 1.4 2.19.98 3.85 2.77 4.98 5.36l9.76 21.32v-28.16c0-3.53-1.57-6.6-4.73-9.2-3.16-2.6-6.97-3.9-11.5-3.9-9.14 0-15.2 3.6-18.2 10.79h-8.63a22.3 22.3 0 0 1 9.79-12.77 33.5 33.5 0 0 1 8.07-3.34c2.88-.8 6.04-1.17 9.46-1.17 6.86 0 12.57 1.62 17.16 4.88 4.6 3.26 6.9 7.64 6.9 13.12zm36.34-10.15c0-1.18-.5-2.2-1.45-3.12-.95-.9-2.1-1.38-3.4-1.38a4.9 4.9 0 0 0-3.5 1.38c-.8.66-1.25 1.7-1.4 3.12a5 5 0 0 0 .27 1.79c.19.5.56.99 1.12 1.5a6.1 6.1 0 0 0 1.5.78 9.2 9.2 0 0 0 1.99.44 4.9 4.9 0 0 0 3.39-1.3c.96-.87 1.45-1.93 1.45-3.2m6.25.07c0 1.52-.26 2.88-.78 4.13a11.5 11.5 0 0 1-2.57 3.63c-2.06 2.1-4.7 3.18-7.98 3.18-3.68 0-6.64-1.07-8.87-3.2-2.12-2.25-3.17-5.06-3.17-8.37v-52.74h8.34v43.57c.64-.26 1.98-.48 3.99-.62 2.95 0 5.53.98 7.73 2.94a9.6 9.6 0 0 1 3.32 7.49m47.24-.07a4.2 4.2 0 0 0-1.56-3.12c-.8-.9-1.94-1.38-3.35-1.38-1.25 0-2.4.46-3.5 1.38-.73.66-1.16 1.7-1.3 3.12 0 .72.09 1.32.28 1.84s.54.99 1.03 1.46a6.6 6.6 0 0 0 1.55.78 9.7 9.7 0 0 0 1.95.44c.77 0 1.39-.1 1.88-.28.49-.17.98-.48 1.47-.93 1.04-.98 1.56-2.07 1.56-3.3m7.4-.6c0 3.43-1.05 6.23-3.15 8.38-2.1 2.15-5.07 3.23-8.9 3.23a11.4 11.4 0 0 1-8.14-3.18 11 11 0 0 1-3.16-7.75 9.7 9.7 0 0 1 3.27-7.38 10.9 10.9 0 0 1 7.75-3.05 23.3 23.3 0 0 1 2.42.07c.46.04 1 .25 1.6.55v-25.37c0-3.73-1.5-6.84-4.46-9.38-2.96-2.52-6.6-3.8-10.87-3.8-3.82 0-7.44.93-10.85 2.8a16 16 0 0 0-6.54 7.98h-8.7c1.83-5.57 5.12-9.82 9.84-12.77 2.46-1.44 5.04-2.55 7.75-3.34 2.7-.8 5.7-1.17 8.95-1.17 6.57 0 12.08 1.63 16.53 4.93 4.46 3.28 6.68 7.66 6.68 13zm-6.3-69.6c0-2.3-1.18-3.46-3.6-3.46-2.4 0-3.6 1.16-3.6 3.46 0 2.3 1.2 3.47 3.59 3.47 2.4 0 3.59-1.16 3.59-3.47m7.18-25.23c0 3.76-1.82 6.85-5.47 9.3-3.6 2.45-7.75 3.68-12.38 3.68h-5.86c-.77 0-1.52.02-2.3.05a17.2 17.2 0 0 0-2.53.32c-1.42 0-3.04.8-4.9 2.44-1.65 1.26-2.46 3.09-2.46 5.5a6.6 6.6 0 0 0 2.14 4.95c.98.95 1.98 1.42 3 1.42l6.04-8.18c.27.26.55.55.84.88a3.4 3.4 0 0 1 .61.86l3.36 3.07c.32-1.95 1.32-3.72 3-5.32 1.68-1.48 3.75-2.2 6.17-2.2 2.55 0 4.7.83 6.48 2.53a8.7 8.7 0 0 1 1.91 2.69c.46 1.05.7 2.14.7 3.33a8.1 8.1 0 0 1-2.77 6.16 9.8 9.8 0 0 1-3.25 1.8 11.4 11.4 0 0 1-3.89.65 16.6 16.6 0 0 1-3.57-.41c-1.2-.3-2.33-.7-3.4-1.27a17.8 17.8 0 0 1-5.85-4.4l-3.67 5.44h-4.72c-2.88 0-5.42-1.04-7.65-3.15s-3.34-4.96-3.34-8.52c0-3.42 1.39-6.5 4.18-9.23 2.55-2.4 5.34-3.8 8.29-4.08 2.35-.37 3.97-.55 4.84-.55h8.6c2.74 0 5.03-.55 6.89-1.7 1.75-1.36 2.62-3.37 2.62-6.05zm25 52.33c0-1.17-.48-2.2-1.43-3.14-.95-.94-2.1-1.4-3.38-1.4a5 5 0 0 0-3.52 1.45c-.75.64-1.2 1.67-1.38 3.09 0 .69.08 1.29.29 1.78.19.49.55.97 1.09 1.49.49.34.99.6 1.5.79.52.17 1.19.3 2.02.42a4.9 4.9 0 0 0 3.38-1.3 4.1 4.1 0 0 0 1.43-3.17m44.2 38.3c0 5.02-1.17 8.85-3.5 11.48-2.3 2.33-6.36 3.49-12.24 3.49H939.9v-6.08c3.2 0 5.4-.5 6.59-1.45 1.19-1 1.78-2.94 1.78-5.85V1071a5 5 0 0 1-1.3.36 43.6 43.6 0 0 1-2.68.28 11.5 11.5 0 0 1-7.9-3.02c-.98-.93-1.76-2-2.33-3.25-.56-1.22-.85-2.62-.85-4.18 0-2.9 1.07-5.44 3.2-7.64 2.14-2.17 4.89-3.28 8.19-3.28 3.64 0 6.52 1.1 8.65 3.33 2.2 2.02 3.32 4.75 3.32 8.2v46.28h16.45c5.07 0 8.32-.55 9.73-1.7 1.53-1.36 2.29-4.15 2.29-8.44V1051h8.33zm41.3 4.8c0-1.14-.53-2.16-1.57-3.12-.8-.9-1.93-1.38-3.33-1.38a5 5 0 0 0-3.52 1.38c-.7.66-1.14 1.7-1.3 3.12 0 .72.09 1.32.29 1.84a3.5 3.5 0 0 0 1.01 1.41c.5.44 1.12.72 1.88.9a22 22 0 0 0 1.64.35c.76 0 1.37-.1 1.83-.24.47-.16.96-.48 1.5-.98 1.04-.98 1.57-2.07 1.57-3.3m6 .07c0 1.52-.26 2.88-.78 4.13-.5 1.23-1.36 2.44-2.55 3.63-1.94 2.1-4.6 3.18-7.93 3.18-3.67 0-6.6-1.07-8.82-3.2a11.9 11.9 0 0 1-2.31-3.73c-.5-1.33-.76-2.9-.76-4.66v-84.2l-11.1 10.7c-1.96-4.34-3.66-7.66-5.14-10-4.3-7.02-8.9-11.78-13.86-14.3l7.16-4.57c3.54 2.07 6.98 5.5 10.34 10.29a30.5 30.5 0 0 1 1.63 2.52l2.2 3.83 11-10.64c1.72 0 3.15.78 4.28 2.34.55.78.95 1.7 1.26 2.8.3 1.05.45 2.2.45 3.38v78.69a5.8 5.8 0 0 1 1.3-.36 51.1 51.1 0 0 1 2.66-.26 11 11 0 0 1 7.73 2.94 9.7 9.7 0 0 1 3.21 7.49m20.99-43.17c0-1.17-.47-2.2-1.43-3.14-.96-.94-2.1-1.4-3.4-1.4-1.32 0-2.5.48-3.52 1.45-.77.64-1.23 1.67-1.4 3.09 0 .69.1 1.29.29 1.78.18.49.55.97 1 1.49.49.34 1 .6 1.5.79.52.17 1.19.3 2 .42a4.9 4.9 0 0 0 3.39-1.3c.96-.86 1.43-1.9 1.43-3.17m43.75 53.27h-8.33v-48.2c0-6.12-2.07-9.17-6.2-9.17-1.3 0-2.27 1.13-2.93 3.37l-18.08 54.02h-9.13V1071a4.6 4.6 0 0 1-1.3.36 43.6 43.6 0 0 1-2.68.28c-3 0-5.6-1-7.9-3.02-.98-.93-1.75-2-2.32-3.25-.57-1.22-.86-2.62-.86-4.18 0-2.9 1.07-5.44 3.2-7.64 2.16-2.17 4.88-3.28 8.19-3.28 3.64 0 6.53 1.1 8.64 3.33 2.23 2.02 3.34 4.76 3.34 8.22v21.78a52.3 52.3 0 0 1-.23 4.33 153.8 153.8 0 0 1-.7 6.13 32.4 32.4 0 0 1-.18 3.16 59 59 0 0 1-.52 3.96l.73-3.32c.16-.77.35-1.42.56-1.94.86-3.55 1.64-6.22 2.34-8.03l9.95-30.48c1.46-4.75 4.94-7.13 10.46-7.13 4.3 0 7.7 1.17 10.13 3.5a10.7 10.7 0 0 1 2.83 4.41c.64 1.8.97 4.03.97 6.66zm32.85-53.27c0-1.17-.48-2.2-1.43-3.14a4.7 4.7 0 0 0-3.4-1.41 5 5 0 0 0-3.5 1.45c-.76.64-1.22 1.67-1.38 3.09 0 .69.08 1.29.29 1.78a4 4 0 0 0 1.09 1.49c.5.34.98.6 1.5.79.52.17 1.18.3 1.99.42a4.9 4.9 0 0 0 3.4-1.3 4.1 4.1 0 0 0 1.43-3.17m30.32 38.3c0 5.12-1.16 8.89-3.47 11.34-2.3 2.4-6.4 3.63-12.24 3.63h-30.12v-22.44c0-3.22.79-5.8 2.35-7.78.78-.84 2.24-1.88 4.37-3.18-2.37-.62-4.34-1.67-5.93-3.16a8.5 8.5 0 0 1-2.41-6.21v-10c0-3.5 1.04-6.3 3.13-8.38 2-2.1 5.06-3.14 8.92-3.14 3.16 0 5.82 1.1 7.99 3.33a9.8 9.8 0 0 1 3.34 7.59c0 2.84-1.13 5.3-3.36 7.42-1 1.02-2.23 1.79-3.44 2.29a10.7 10.7 0 0 1-4.23.74c-1.97 0-3.3-.22-4-.64 0 1.79.93 3.4 2.8 4.86 2.04 1.37 4.83 2.06 8.36 2.06h5.04v6.5h-5.22c-6.23 0-9.36 2.7-9.36 8.17v15.48h17.18c5.05 0 8.28-.55 9.69-1.7 1.52-1.36 2.29-4.15 2.29-8.44V1051h8.34z" fill="#1e64aa"/></svg>