<?xml version="1.0" encoding="utf-8"?>
<!-- Generator: Adobe Illustrator 21.0.0, SVG Export Plug-In . SVG Version: 6.00 Build 0)  -->
<svg version="1.1" id="Layer_2" xmlns="http://www.w3.org/2000/svg" xmlns:xlink="http://www.w3.org/1999/xlink" x="0px" y="0px"
	 viewBox="0 0 2000 2596" style="enable-background:new 0 0 2000 2596;" xml:space="preserve">
<style type="text/css">
	.st0{fill:#0071BC;}
	.st1{fill:#F26721;}
	.st2{fill:#1F56A4;}
</style>
<path class="st0" d="M409,1784L409,1784c-71.5,0-130-58.5-130-130V824c0-71.5,58.5-130,130-130l0,0c71.5,0,130,58.5,130,130v830
	C539,1725.5,480.5,1784,409,1784z"/>
<path class="st0" d="M409,594L409,594c-71.5,0-130-58.5-130-130l0,0c0-71.5,58.5-130,130-130l0,0c71.5,0,130,58.5,130,130l0,0
	C539,535.5,480.5,594,409,594z"/>
<path class="st0" d="M1518,694h-415l0,0H688c-71.5,0-130,58.5-130,130l0,0c0,71.5,58.5,130,130,130h285v700c0,71.5,58.5,130,130,130
	l0,0c71.5,0,130-58.5,130-130V954h285c71.5,0,130-58.5,130-130l0,0C1648,752.5,1589.5,694,1518,694z"/>
<circle class="st0" cx="161" cy="226" r="60.6"/>
<circle class="st0" cx="101.4" cy="647" r="68"/>
<circle class="st0" cx="663" cy="388" r="62"/>
<rect x="249.6" y="216" transform="matrix(0.7071 -0.7071 0.7071 0.7071 -155.8348 283.7543)" class="st0" width="30" height="228"/>
<rect x="127.6" y="545" transform="matrix(0.8357 -0.5492 0.5492 0.8357 -267.8723 224.6978)" class="st0" width="228" height="30"/>
<rect x="444" y="408.5" transform="matrix(0.9328 -0.3604 0.3604 0.9328 -115.1203 229.5611)" class="st0" width="228" height="30"/>
<path class="st1" d="M765,586c56.5-34.5,145.5-81.8,262-114c28.8-8,536.6-142.3,724,108c41.2,55.1,53.2,110.4,58,134
	c75.1,366.9-449.2,750.5-496,784c70.6-36.9,177-99.7,290-198c120.8-105.1,294.6-256.4,346-496c16.3-75.9,47.4-220.9-34-334
	c-72.1-100.2-194.5-122.7-272.1-135.7C1268.8,271.2,902.2,493.8,765,586z"/>
<path class="st2" d="M861.8,2107.8c-5.8,0-10.5-4.7-10.5-10.5v-139c0-5.8,4.7-10.5,10.5-10.5s10.5,4.7,10.5,10.5v139
	C872.3,2103.1,867.6,2107.8,861.8,2107.8z"/>
<path class="st2" d="M1082,1947.8h-97.2c-4.1,0-7.3,4.7-7.3,10.5s3.3,10.5,7.3,10.5h39.1v128.5c0,5.8,4.7,10.5,10.5,10.5
	s10.5-4.7,10.5-10.5v-128.5h37.1c4.1,0,7.3-4.7,7.3-10.5S1086.1,1947.8,1082,1947.8z"/>
<path class="st2" d="M1283.2,2086.8h-66.8v-128.5c0-5.8-4.7-10.5-10.5-10.5s-10.5,4.7-10.5,10.5v139c0,0,0,0,0,0
	c0,5.8,2.8,10.5,6.2,10.5h4.3c0,0,0,0,0,0s0,0,0,0h77.3c3.4,0,6.2-4.7,6.2-10.5S1286.6,2086.8,1283.2,2086.8z"/>
<path class="st2" d="M442.9,2096.6l-47.6-81.4l38.6-53.6c3-4.2,1.6-10.3-3.1-13.7c-4.7-3.4-10.9-2.8-13.9,1.4l-54.5,75.6v-66.6
	c0-5.8-4.7-10.5-10.5-10.5s-10.5,4.7-10.5,10.5v139c0,5.8,4.7,10.5,10.5,10.5s10.5-4.7,10.5-10.5v-36.5l19.5-27l42.9,73.4
	c2.1,3.6,7.9,4.1,12.9,1.2C442.7,2105.5,445,2100.2,442.9,2096.6z"/>
<path class="st2" d="M727.4,1953.5L727.4,1953.5c0,0-5.7-8.1-17.5-7.3c-11.8,0.7-15.9,5-19.3,14l-47.6,123l-47.6-123
	c-3.5-9-7.5-13.3-19.3-14c-11.8-0.7-17.5,7.3-17.5,7.3l0,0c-2.1,1.9-3.5,4.7-3.5,7.8v139c0,5.8,4.7,10.5,10.5,10.5
	s10.5-4.7,10.5-10.5v-131.9l49.9,129c0.2,0.5,0.4,1,0.7,1.5l0,0c0,0,4,11.8,16.1,11.1s14.8-6.4,17.2-12.6l49.9-129v131.9
	c0,5.8,4.7,10.5,10.5,10.5s10.5-4.7,10.5-10.5v-139C730.8,1958.2,729.5,1955.4,727.4,1953.5z"/>
</svg>
