<?xml version="1.0" encoding="UTF-8"?>
<svg width="1417.3pt" height="1417.3pt" version="1.2" viewBox="0 0 1417.3 1417.3" xmlns="http://www.w3.org/2000/svg" xmlns:cc="http://creativecommons.org/ns#" xmlns:dc="http://purl.org/dc/elements/1.1/" xmlns:rdf="http://www.w3.org/1999/02/22-rdf-syntax-ns#">
<metadata>
<rdf:RDF>
<cc:Work rdf:about="">
<dc:format>image/svg+xml</dc:format>
<dc:type rdf:resource="http://purl.org/dc/dcmitype/StillImage"/>
<dc:title/>
</cc:Work>
</rdf:RDF>
</metadata>
<defs>
<clipPath id="i">
<path d="m184 215h1059v734h-1059z"/>
</clipPath>
<clipPath id="h">
<path d="m1206.1 215.58-241.42 677.26-751.8-271.48-27.934 36.223 800.97 290.71 256.52-725.04z"/>
</clipPath>
<linearGradient id="c" x1="-.17742" x2="1.2829" gradientTransform="matrix(800.71 291.43 -291.43 800.71 316.6 295.89)" gradientUnits="userSpaceOnUse">
<stop stop-color="#0674b6" offset="0"/>
<stop stop-color="#0674b6" offset=".125"/>
<stop stop-color="#0674b6" offset=".15625"/>
<stop stop-color="#0674b6" offset=".1875"/>
<stop stop-color="#0873b5" offset=".21875"/>
<stop stop-color="#0473b5" offset=".25"/>
<stop stop-color="#0772b5" offset=".28125"/>
<stop stop-color="#0772b5" offset=".29688"/>
<stop stop-color="#0972b4" offset=".3125"/>
<stop stop-color="#0972b4" offset=".32812"/>
<stop stop-color="#0c71b4" offset=".34375"/>
<stop stop-color="#0e71b4" offset=".35938"/>
<stop stop-color="#0871b4" offset=".375"/>
<stop stop-color="#0a70b3" offset=".39062"/>
<stop stop-color="#0a70b3" offset=".40625"/>
<stop stop-color="#0d70b3" offset=".42188"/>
<stop stop-color="#0e6fb3" offset=".4375"/>
<stop stop-color="#0e6fb3" offset=".45312"/>
<stop stop-color="#106fb2" offset=".46875"/>
<stop stop-color="#126eb2" offset=".48438"/>
<stop stop-color="#0f6eb2" offset=".5"/>
<stop stop-color="#0f6eb2" offset=".51562"/>
<stop stop-color="#106db2" offset=".53125"/>
<stop stop-color="#126db1" offset=".54688"/>
<stop stop-color="#136cb1" offset=".5625"/>
<stop stop-color="#136cb1" offset=".57812"/>
<stop stop-color="#116cb1" offset=".59375"/>
<stop stop-color="#136bb0" offset=".60938"/>
<stop stop-color="#146bb0" offset=".625"/>
<stop stop-color="#156bb0" offset=".64062"/>
<stop stop-color="#156bb0" offset=".65625"/>
<stop stop-color="#176aaf" offset=".67188"/>
<stop stop-color="#156aaf" offset=".6875"/>
<stop stop-color="#1669af" offset=".70312"/>
<stop stop-color="#1769ae" offset=".71875"/>
<stop stop-color="#1868ae" offset=".73438"/>
<stop stop-color="#1968ae" offset=".75"/>
<stop stop-color="#1767ad" offset=".76562"/>
<stop stop-color="#1767ad" offset=".78125"/>
<stop stop-color="#1967ad" offset=".79688"/>
<stop stop-color="#1a66ad" offset=".8125"/>
<stop stop-color="#1a66ad" offset=".875"/>
<stop stop-color="#1a66ad" offset="1"/>
</linearGradient>
<clipPath id="g">
<path d="m226 90h951v768h-951z"/>
</clipPath>
<clipPath id="f">
<path d="m618.25 90.938-391.9 506.09 719.53 260.16 230.44-648.84z"/>
</clipPath>
<radialGradient id="a" cx="0" cy="0" r="431.98" gradientTransform="matrix(.99501 0 0 1.005 701.33 474.06)" gradientUnits="userSpaceOnUse">
<stop stop-color="#fff" offset="0"/>
<stop stop-color="#fdfeff" offset=".03125"/>
<stop stop-color="#fdfeff" offset=".058594"/>
<stop stop-color="#fbfcfc" offset=".085938"/>
<stop stop-color="#fafbfc" offset=".11328"/>
<stop stop-color="#f8fbfc" offset=".14062"/>
<stop stop-color="#f7f9fb" offset=".16406"/>
<stop stop-color="#f6f9fb" offset=".1875"/>
<stop stop-color="#f6f8fa" offset=".19922"/>
<stop stop-color="#f5f8fa" offset=".21094"/>
<stop stop-color="#f5f8fa" offset=".22266"/>
<stop stop-color="#f4f8fa" offset=".23438"/>
<stop stop-color="#f4f6f9" offset=".24609"/>
<stop stop-color="#f3f6f9" offset=".25781"/>
<stop stop-color="#f2f6f8" offset=".27734"/>
<stop stop-color="#f1f5f8" offset=".29688"/>
<stop stop-color="#f1f4f7" offset=".30469"/>
<stop stop-color="#f0f4f7" offset=".3125"/>
<stop stop-color="#f0f4f7" offset=".32031"/>
<stop stop-color="#f0f4f7" offset=".32812"/>
<stop stop-color="#eff3f7" offset=".33594"/>
<stop stop-color="#eff3f7" offset=".34375"/>
<stop stop-color="#edf3f7" offset=".35156"/>
<stop stop-color="#eef3f6" offset=".35938"/>
<stop stop-color="#eef2f5" offset=".36719"/>
<stop stop-color="#ecf2f5" offset=".375"/>
<stop stop-color="#ebf1f5" offset=".38281"/>
<stop stop-color="#ebf1f5" offset=".39844"/>
<stop stop-color="#eaf0f5" offset=".41406"/>
<stop stop-color="#eaf0f4" offset=".42969"/>
<stop stop-color="#e9eff4" offset=".44531"/>
<stop stop-color="#e8eff3" offset=".46094"/>
<stop stop-color="#e7eef3" offset=".47656"/>
<stop stop-color="#e6edf2" offset=".49219"/>
<stop stop-color="#e5edf2" offset=".50781"/>
<stop stop-color="#e3ecf1" offset=".51953"/>
<stop stop-color="#e2ebf1" offset=".53125"/>
<stop stop-color="#e2ebf1" offset=".54297"/>
<stop stop-color="#e1ebf0" offset=".55469"/>
<stop stop-color="#e0eaf0" offset=".56641"/>
<stop stop-color="#dfe9f0" offset=".57812"/>
<stop stop-color="#dfe9f0" offset=".58984"/>
<stop stop-color="#dee9f0" offset=".60156"/>
<stop stop-color="#dde8ee" offset=".61328"/>
<stop stop-color="#dce7ee" offset=".625"/>
<stop stop-color="#dbe7ee" offset=".63672"/>
<stop stop-color="#dbe7ee" offset=".64453"/>
<stop stop-color="#dae7ee" offset=".65234"/>
<stop stop-color="#dae6ee" offset=".66016"/>
<stop stop-color="#d9e6ee" offset=".66797"/>
<stop stop-color="#d9e6ed" offset=".67578"/>
<stop stop-color="#d8e5ed" offset=".68359"/>
<stop stop-color="#d7e5ed" offset=".69141"/>
<stop stop-color="#d7e5ed" offset=".69922"/>
<stop stop-color="#d6e4ec" offset=".70703"/>
<stop stop-color="#d6e4ec" offset=".71484"/>
<stop stop-color="#d5e3ec" offset=".72266"/>
<stop stop-color="#d6e3ec" offset=".73047"/>
<stop stop-color="#d4e3ec" offset=".73828"/>
<stop stop-color="#d3e2eb" offset=".74609"/>
<stop stop-color="#d3e2eb" offset=".75391"/>
<stop stop-color="#d2e2eb" offset=".76562"/>
<stop stop-color="#d2e1ea" offset=".77734"/>
<stop stop-color="#d1e0ea" offset=".78906"/>
<stop stop-color="#d0e0ea" offset=".80078"/>
<stop stop-color="#cfdfea" offset=".8125"/>
<stop stop-color="#cedfea" offset=".82422"/>
<stop stop-color="#cedee8" offset=".83203"/>
<stop stop-color="#cddee8" offset=".83984"/>
<stop stop-color="#cddee8" offset=".84766"/>
<stop stop-color="#ccdee8" offset=".85547"/>
<stop stop-color="#cbdde8" offset=".86328"/>
<stop stop-color="#cbdde8" offset=".87109"/>
<stop stop-color="#cadce7" offset=".87891"/>
<stop stop-color="#c9dce7" offset=".89062"/>
<stop stop-color="#c8dce7" offset=".90234"/>
<stop stop-color="#c7dae6" offset=".91406"/>
<stop stop-color="#c6dae6" offset=".92188"/>
<stop stop-color="#c6dae6" offset=".92969"/>
<stop stop-color="#c5dae6" offset=".9375"/>
<stop stop-color="#c4d9e5" offset=".94531"/>
<stop stop-color="#c4d9e5" offset=".95703"/>
<stop stop-color="#c3d8e5" offset=".96484"/>
<stop stop-color="#c2d8e5" offset=".97266"/>
<stop stop-color="#c1d7e4" offset=".98438"/>
<stop stop-color="#c1d7e4" offset=".99219"/>
<stop stop-color="#c0d7e4" offset="1"/>
</radialGradient>
<clipPath id="e">
<path d="m433 299h586v314h-586z"/>
</clipPath>
<clipPath id="d">
<path d="m693.81 302.5c-52.961 5.6758-101.84 19.578-146.64 41.703-36.621 18.027-65.07 39.094-85.348 63.203-18.203 21.641-27.488 43.395-27.844 65.273-0.15234 17.273 7.0664 34.086 21.664 50.434 14.59 16.344 36.645 30.902 66.152 43.691 29.508 12.773 64.535 23.398 105.08 31.859 44.016 9.1836 84.273 13.906 120.78 14.16 36.508 0.25 70.609-2.6367 102.3-8.6602 31.691-6.0352 56.555-13.254 74.582-21.664l-49.555-10.348c-26.609 9.1562-59.762 14.73-99.465 16.723-39.695 1.9844-83.488-2.0156-131.37-12.008-44.773-9.3438-82.055-22.047-111.85-38.09-29.793-16.047-47.051-34.863-51.789-56.434-4.7344-21.57 3.1055-44.488 23.5-68.734 19.473-23.156 47.453-42.82 83.941-58.992 36.484-16.176 76.957-25.984 121.44-29.441 44.484-3.457 88.102-0.72266 130.88 8.2031 37.465 7.8164 68.055 19.27 91.785 34.359 23.73 15.09 37.352 31.457 40.891 49.09 3.5352 17.637-1.6562 34.73-15.582 51.289-11.926 14.172-29.594 26.656-53.004 37.445-23.402 10.789-48.898 17.969-76.465 21.531-20.863 2.7578-36.152 3.1211-45.863 1.0938-5.3242-1.1133-9.0195-3.0625-11.086-5.8594-2.0664-2.793-1.9297-5.582 0.41797-8.375 1.5469-1.4609 10.852-8.5742 27.895-21.328l122.71-91.391-48.996-10.223-27.812 20.914c-2.668-11.383-9.332-20.836-19.984-28.355-10.656-7.5195-23.918-12.941-39.824-16.262-20.844-4.3477-45.656-4.8711-74.438-1.5625-28.785 3.3125-57.281 11.312-85.465 24.004-28.188 12.691-48.902 26.914-62.152 42.664-10.754 12.789-15.844 25.527-15.262 38.227 0.57031 12.695 6.3594 23.223 17.348 31.562 10.988 8.3555 24.602 14.223 40.844 17.609 14.773 3.082 31.352 3.9609 49.742 2.6172 18.383-1.332 36.562-4.3906 54.523-9.1719-3.918 6.1836-5.707 10.738-5.375 13.676 0.44922 4.5664 3.6992 8.6875 9.75 12.359 6.043 3.668 15.379 6.8203 27.992 9.4531 39.496 8.2422 84.281 5.8438 134.37-7.1914 56.012-14.465 96.082-36.047 120.21-64.73 16.891-20.078 23.672-40.523 20.359-61.336-4.0977-24.219-19.953-45.117-47.57-62.684-27.625-17.566-64.066-31.078-109.34-40.523-39.879-8.3242-78.477-12.484-115.8-12.48-17.367 0-34.461 0.89844-51.277 2.6992m-59.211 197.84c-15.305-3.1953-25.703-9.8125-31.184-19.852-5.4883-10.039-2.4922-21.875 8.9766-35.512 7.1992-8.5586 18.023-17.359 32.484-26.398 14.445-9.0352 29.523-16.133 45.207-21.285 15.68-5.1445 30.031-8.2656 43.051-9.3555 13.012-1.082 25.352-0.41406 37.012 2.0195 17.672 3.6875 29.492 10.57 35.469 20.652 5.9727 10.086 3.3594 21.961-7.8633 35.637-8.7852 9.9375-20.684 19.297-35.691 28.074-15.008 8.7734-30.43 15.383-46.262 19.82-15.832 4.4375-30.77 7.1172-44.816 8.0234-4.2109 0.27344-8.2461 0.41016-12.113 0.41016-9.0312 0-17.121-0.74609-24.27-2.2344"/>
</clipPath>
<linearGradient id="b" x1="-.10101" x2="1.1154" gradientTransform="matrix(509.09 185.29 -185.29 509.09 471.17 357.23)" gradientUnits="userSpaceOnUse">
<stop stop-color="#0674b6" offset="0"/>
<stop stop-color="#0674b6" offset=".125"/>
<stop stop-color="#0674b6" offset=".15625"/>
<stop stop-color="#0873b5" offset=".1875"/>
<stop stop-color="#0273b5" offset=".21875"/>
<stop stop-color="#0473b5" offset=".25"/>
<stop stop-color="#0772b5" offset=".28125"/>
<stop stop-color="#0972b4" offset=".3125"/>
<stop stop-color="#0c71b4" offset=".34375"/>
<stop stop-color="#0e71b4" offset=".375"/>
<stop stop-color="#0871b4" offset=".39062"/>
<stop stop-color="#0a70b3" offset=".40625"/>
<stop stop-color="#0a70b3" offset=".42188"/>
<stop stop-color="#0d70b3" offset=".4375"/>
<stop stop-color="#0d70b3" offset=".45312"/>
<stop stop-color="#0e6fb3" offset=".46875"/>
<stop stop-color="#106fb2" offset=".48438"/>
<stop stop-color="#106fb2" offset=".5"/>
<stop stop-color="#126eb2" offset=".51562"/>
<stop stop-color="#0d6eb2" offset=".53125"/>
<stop stop-color="#0f6eb2" offset=".54688"/>
<stop stop-color="#116db1" offset=".5625"/>
<stop stop-color="#106db2" offset=".57812"/>
<stop stop-color="#126db1" offset=".59375"/>
<stop stop-color="#126db1" offset=".60938"/>
<stop stop-color="#136cb1" offset=".625"/>
<stop stop-color="#156cb1" offset=".64062"/>
<stop stop-color="#116cb1" offset=".65625"/>
<stop stop-color="#136bb0" offset=".67188"/>
<stop stop-color="#146bb0" offset=".6875"/>
<stop stop-color="#146bb0" offset=".70312"/>
<stop stop-color="#156bb0" offset=".71875"/>
<stop stop-color="#176aaf" offset=".73438"/>
<stop stop-color="#186aaf" offset=".75"/>
<stop stop-color="#156aaf" offset=".76562"/>
<stop stop-color="#1669af" offset=".78125"/>
<stop stop-color="#1769ae" offset=".79688"/>
<stop stop-color="#1769ae" offset=".8125"/>
<stop stop-color="#1868ae" offset=".82812"/>
<stop stop-color="#1968ae" offset=".84375"/>
<stop stop-color="#1767ad" offset=".85938"/>
<stop stop-color="#1967ad" offset=".875"/>
<stop stop-color="#1967ad" offset=".89062"/>
<stop stop-color="#1a66ad" offset=".90625"/>
<stop stop-color="#1a66ad" offset=".9375"/>
<stop stop-color="#1a66ad" offset="1"/>
</linearGradient>
</defs>
<g clip-path="url(#i)">
<g clip-path="url(#h)">
<path d="m308.66-124.29-359.19 986.88 1169.3 425.58 359.19-986.88z" fill="url(#c)"/>
</g>
</g>
<g clip-path="url(#g)">
<g clip-path="url(#f)">
<path d="m226.35 90.938v766.25h949.97v-766.25z" fill="url(#a)"/>
</g>
</g>
<path transform="matrix(1 0 0 -1 604.15 59.881)" d="m4.4375e-4 -0.0019125-431.27-550.29 791.81-282.92 253.6 705.56z" fill="none" stroke="#0372b1" stroke-miterlimit="3" stroke-width="1.417"/>
<g clip-path="url(#e)">
<g clip-path="url(#d)">
<path d="m502.53 111.05-169.38 465.38 619.27 225.39 169.39-465.38z" fill="url(#b)"/>
</g>
</g>
<path d="m612.39 444.97c-11.469 13.637-14.465 25.473-8.9766 35.512 5.4766 10.039 15.879 16.656 31.184 19.852 10.203 2.125 22.332 2.7383 36.383 1.8242 14.047-0.90625 28.984-3.5859 44.816-8.0234 15.832-4.4375 31.254-11.047 46.262-19.82 15.008-8.7773 26.906-18.137 35.691-28.074 11.223-13.676 13.836-25.551 7.8633-35.637-5.9766-10.078-17.801-16.965-35.469-20.652-11.664-2.4336-24-3.1016-37.012-2.0195-13.02 1.0898-27.367 4.2109-43.051 9.3594-15.688 5.1523-30.762 12.246-45.207 21.281-14.461 9.0391-25.285 17.84-32.484 26.398m92.727 81.961c-0.33203-2.9375 1.457-7.4922 5.375-13.676-17.961 4.7812-36.141 7.8398-54.523 9.1719-18.391 1.3438-34.973 0.46484-49.742-2.6172-16.242-3.3867-29.855-9.2539-40.844-17.609-10.988-8.3398-16.777-18.867-17.348-31.562-0.58203-12.699 4.5078-25.438 15.262-38.227 13.25-15.75 33.965-29.969 62.152-42.664 28.184-12.688 56.68-20.691 85.465-24.004 28.781-3.3086 53.594-2.7891 74.438 1.5625 15.906 3.3164 29.168 8.7422 39.824 16.262 10.652 7.5195 17.312 16.973 19.984 28.355l27.812-20.918 49 10.227-122.71 91.391c-17.047 12.754-26.352 19.867-27.898 21.328-2.3477 2.793-2.4844 5.582-0.41797 8.375 2.0664 2.7969 5.7617 4.75 11.086 5.8594 9.7109 2.0273 25 1.6641 45.863-1.0938 27.566-3.5625 53.062-10.742 76.465-21.531 23.41-10.789 41.078-23.273 53.004-37.445 13.926-16.559 19.117-33.652 15.582-51.289-3.5391-17.633-17.16-34-40.891-49.09-23.73-15.09-54.32-26.539-91.785-34.359-42.773-8.9258-86.391-11.66-130.88-8.2031-44.477 3.4531-84.953 13.266-121.44 29.441-36.488 16.172-64.469 35.836-83.941 58.992-20.395 24.246-28.234 47.164-23.5 68.734 4.7383 21.57 21.992 40.387 51.789 56.434 29.793 16.047 67.074 28.746 111.85 38.09 47.879 9.9922 91.672 13.992 131.37 12.008 39.703-1.9961 72.855-7.5664 99.461-16.719l49.559 10.344c-18.023 8.4102-42.891 15.629-74.582 21.664-31.688 6.0234-65.789 8.9141-102.3 8.6602-36.504-0.25391-76.762-4.9766-120.78-14.16-40.547-8.4609-75.574-19.086-105.08-31.863-29.508-12.785-51.562-27.344-66.152-43.688-14.598-16.348-21.812-33.16-21.664-50.434 0.35547-21.879 9.6406-43.633 27.844-65.273 20.277-24.109 48.727-45.176 85.352-63.203 44.797-22.125 93.672-36.027 146.63-41.703 52.957-5.6719 108.65-2.4141 167.08 9.7812 45.273 9.4492 81.715 22.957 109.34 40.527 27.621 17.562 43.473 38.461 47.574 62.684 3.3086 20.805-3.4727 41.254-20.363 61.332-24.129 28.684-64.199 50.262-120.21 64.73-50.086 13.035-94.871 15.434-134.37 7.1914-12.613-2.6328-21.949-5.7852-27.992-9.4531-6.0508-3.6719-9.3008-7.793-9.75-12.359" fill="#1b64ab"/>
<path d="m261.27 1256.4v-74.285h-21.758v-15.164h58.324v15.164h-21.758v74.285z" fill="#1e64aa"/>
<path d="m307.44 1256.4v-89.449h14.816v35.18h29.043v-35.18h14.812v89.449h-14.812v-39.109h-29.043v39.109z" fill="#1e64aa"/>
<path d="m420.32 1221-10.16-33.18-9.9336 33.18zm27.156 35.406h-16.062l-6.3945-20.246h-29.328l-6.0625 20.246h-15.75l28.465-89.449h15.84z" fill="#1e64aa"/>
<path d="m454.89 1166.9h14.812v89.449h-14.812z" fill="#1e64aa"/>
<path d="m522.73 1256.4-17.562-89.449h15.195l11.012 61.496 13.309-61.496h17.605l12.945 62.539 11.207-62.539h14.891l-17.578 89.449h-15.824l-14.68-66.93-14.477 66.93z" fill="#1e64aa"/>
<path d="m609.06 1256.4v-89.449h54.387v15.164h-39.574v19.781h36.801v15.047h-36.801v24.301h40.965v15.156z" fill="#1e64aa"/>
<path d="m692.09 1217.4v23.836h13.73c6.0195 0 9.8828-0.3125 11.594-0.94141 1.7031-0.62891 3.1406-1.8672 4.2969-3.7109 1.1641-1.8438 1.7422-4.1836 1.7422-7.0195 0-2.9219-0.62109-5.3242-1.8594-7.2148-1.2422-1.8789-2.8867-3.1758-4.9414-3.8906-2.0547-0.70312-6.2539-1.0586-12.602-1.0586zm0-35.527v20.602h9.7305c5.8398 0 9.4531-0.10156 10.828-0.30469 2.5156-0.41016 4.4766-1.4688 5.8984-3.1953 1.418-1.7188 2.1289-4.0586 2.1289-7.0156 0-2.6328-0.57812-4.7656-1.7305-6.4102-1.1602-1.6406-2.5547-2.6641-4.1992-3.0703-1.6406-0.40234-6.3555-0.60547-14.137-0.60547zm-14.812-14.93h29.363c8.0117 0 13.648 0.73047 16.902 2.1953 3.2578 1.4688 6.0039 4.043 8.2383 7.7461 2.2422 3.6992 3.3594 7.8828 3.3594 12.559 0 4.3125-0.96094 8.1992-2.8828 11.676-1.9219 3.4727-4.4102 6.0469-7.4766 7.7148 4.3633 1.5469 7.7773 4.1914 10.246 7.9375 2.4648 3.7422 3.7031 8.3047 3.7031 13.676 0 6.5117-1.5703 12.02-4.7031 16.516-3.1328 4.5-6.832 7.2734-11.105 8.332-2.9688 0.73828-9.8633 1.0977-20.684 1.0977h-24.961z" fill="#1e64aa"/>
<path d="m751.12 1256.4v-89.449h22.129l13.344 61.133 13.145-61.133h22.32v89.449h-13.77v-70.527l-14.625 70.527h-14.203l-14.566-70.527v70.527z" fill="#1e64aa"/>
<path d="m875.64 1221-10.164-33.18-9.9336 33.18zm27.156 35.406h-16.062l-6.3984-20.246h-29.328l-6.0625 20.246h-15.746l28.465-89.449h15.836z" fill="#1e64aa"/>
<path d="m936.87 1257.9c-17.977 0-27.98-10.219-30.012-30.668l14.469-1.7344c1.6211 11.418 6.9336 17.129 15.949 17.129 4.4609 0 7.9727-1.1641 10.531-3.5078 2.5547-2.3359 3.8359-5.2227 3.8359-8.6797 0-2.0273-0.44531-3.7539-1.3359-5.1758s-2.2461-2.5898-4.0664-3.5039c-1.8242-0.91797-6.25-2.4414-13.285-4.5938-6.3086-1.9062-10.926-3.9766-13.855-6.2109-2.9258-2.2305-5.2578-5.168-6.9883-8.8008-1.7266-3.6406-2.5898-7.5469-2.5898-11.73 0-4.875 1.1094-9.2656 3.3281-13.16 2.2227-3.9023 5.2891-6.8438 9.207-8.8359 3.9141-1.9922 8.7422-2.9883 14.488-2.9883 8.6406 0 15.387 2.3359 20.238 7.0156 4.8516 4.6758 7.418 11.359 7.7031 20.062l-14.809 0.8125c-0.65625-4.8125-2.0703-8.168-4.2422-10.09-2.168-1.9141-5.2578-2.8711-9.2734-2.8711-4.0078 0-7.0977 0.82812-9.2695 2.4883-2.1719 1.6641-3.2539 3.7266-3.2539 6.1953 0 2.4336 0.98438 4.4805 2.9609 6.1406 1.9766 1.6562 6.4805 3.4883 13.512 5.4805 7.4453 2.1641 12.82 4.4336 16.133 6.8164 3.3125 2.375 5.8398 5.4453 7.5898 9.2109 1.7422 3.7578 2.6172 8.3203 2.6172 13.688 0 7.7695-2.3867 14.297-7.1641 19.582-4.7773 5.293-12.254 7.9297-22.418 7.9297" fill="#1e64aa"/>
<path d="m995.45 1256.4v-74.285h-21.758v-15.164h58.32v15.164h-21.75v74.285z" fill="#1e64aa"/>
<path d="m1041.6 1256.4v-89.449h54.391v15.164h-39.578v19.781h36.797v15.047h-36.797v24.301h40.965v15.156z" fill="#1e64aa"/>
<path d="m1124.8 1204.8h10.945c6.6914 0 10.941-0.29297 12.773-0.88672 1.8242-0.58594 3.2969-1.7773 4.4336-3.5625 1.1367-1.793 1.707-4.168 1.707-7.1367 0-2.8477-0.57031-5.1367-1.707-6.8594-1.1367-1.7305-2.6758-2.918-4.6172-3.5703-1.3828-0.44531-5.375-0.66797-11.98-0.66797h-11.555zm-14.809 51.605v-89.449h31.16c7.9648 0 13.66 0.80469 17.074 2.4102 3.4102 1.6055 6.2188 4.3906 8.4141 8.3555 2.1914 3.9648 3.293 8.7109 3.293 14.242 0 6.9922-1.6797 12.621-5.0273 16.891-3.3477 4.2656-8.1094 6.9531-14.281 8.0469 3.168 2.2852 5.793 4.7852 7.8633 7.4922 2.0742 2.7109 4.8984 7.5625 8.4648 14.562l8.8789 17.449h-17.781l-10.605-19.469c-3.8164-7.0391-6.418-11.445-7.7969-13.223s-2.8398-3-4.3828-3.6719c-1.5391-0.67578-4.0117-1.0117-7.4219-1.0117h-3.043v37.375z" fill="#1e64aa"/>
<path d="m263.89 1328.8h25.086l-7.6445-24.797c-2.3633-7.6094-4.0977-13.801-5.1953-18.562-0.95312 5.7422-2.3008 11.441-4.0391 17.098zm-20.906 36.68 28.195-89.449h10.414l30.012 89.449h-11.105l-8.5078-27.078h-30.906l-7.918 27.078z" fill="#1e64aa"/>
<path d="m340.57 1336.4 9.2578-0.80859c0.48438 4.9453 1.5898 8.7969 3.3125 11.551 1.7227 2.7656 4.1836 4.9805 7.3867 6.6562 3.1992 1.6719 6.8047 2.5117 10.816 2.5117 5.7539 0 10.223-1.4102 13.402-4.2266 3.1836-2.8242 4.7734-6.4805 4.7734-10.977 0-2.6367-0.58203-4.9336-1.7383-6.9023-1.1562-1.9648-2.9023-3.5742-5.2383-4.832-2.3359-1.25-7.3828-3.0312-15.141-5.3438-6.9062-2.0625-11.824-4.1211-14.762-6.1992-2.9336-2.0664-5.2148-4.7031-6.8477-7.8945-1.6289-3.1836-2.4453-6.7969-2.4453-10.816 0-7.2344 2.3359-13.148 7.0117-17.738 4.6719-4.5898 10.973-6.8906 18.902-6.8906 5.4453 0 10.207 1.0781 14.293 3.2344 4.0859 2.1562 7.2539 5.25 9.5117 9.2812 2.2539 4.0273 3.4648 8.7656 3.6289 14.219l-9.2578 0.8125c-0.48828-5.8125-2.2266-10.121-5.2188-12.922-2.9883-2.8047-7.1875-4.207-12.598-4.207-5.4922 0-9.6836 1.2305-12.566 3.6836-2.8906 2.4609-4.332 5.6367-4.332 9.5352 0 3.6172 1.0547 6.418 3.1719 8.4102 2.1094 1.9922 6.8633 4 14.254 6.0352 7.2266 1.9883 12.309 3.7188 15.23 5.1875 4.4688 2.2773 7.8359 5.2695 10.109 8.9922 2.2656 3.7148 3.4062 8.1602 3.4062 13.316 0 5.125-1.1992 9.7812-3.5977 13.984-2.3984 4.2148-5.6562 7.4102-9.7812 9.6094-4.125 2.1953-9.0898 3.293-14.898 3.293-9.0625 0-16.285-2.75-21.668-8.2461-5.3828-5.4844-8.1797-12.926-8.3789-22.309" fill="#1e64aa"/>
<path d="m433.4 1336.4 9.2539-0.80859c0.48828 4.9453 1.5938 8.7969 3.3125 11.551 1.7227 2.7656 4.1875 4.9805 7.3867 6.6562 3.1992 1.6719 6.8086 2.5117 10.816 2.5117 5.7578 0 10.223-1.4102 13.41-4.2266 3.1758-2.8242 4.7695-6.4805 4.7695-10.977 0-2.6367-0.58203-4.9336-1.7383-6.9023-1.1602-1.9648-2.9023-3.5742-5.2383-4.832-2.3398-1.25-7.3828-3.0312-15.141-5.3438-6.9062-2.0625-11.828-4.1211-14.762-6.1992-2.9375-2.0664-5.2188-4.7031-6.8477-7.8945-1.6328-3.1836-2.4453-6.7969-2.4453-10.816 0-7.2344 2.332-13.148 7.0078-17.738s10.977-6.8906 18.902-6.8906c5.4453 0 10.211 1.0781 14.297 3.2344 4.082 2.1562 7.25 5.25 9.5078 9.2812 2.2578 4.0273 3.4688 8.7656 3.6289 14.219l-9.2578 0.8125c-0.48828-5.8125-2.2266-10.121-5.2148-12.922-2.9922-2.8047-7.1914-4.207-12.598-4.207-5.4922 0-9.6836 1.2305-12.57 3.6836-2.8867 2.4609-4.332 5.6367-4.332 9.5352 0 3.6172 1.0547 6.418 3.1719 8.4102 2.1133 1.9922 6.8633 4 14.258 6.0352 7.2266 1.9883 12.305 3.7188 15.23 5.1875 4.4648 2.2773 7.8359 5.2695 10.105 8.9922 2.2734 3.7148 3.4062 8.1602 3.4062 13.316 0 5.125-1.1992 9.7812-3.5938 13.984-2.4023 4.2148-5.6602 7.4102-9.7852 9.6094-4.1211 2.1953-9.0898 3.293-14.898 3.293-9.0625 0-16.281-2.75-21.668-8.2461-5.3789-5.4844-8.1758-12.926-8.375-22.309" fill="#1e64aa"/>
<path d="m536.88 1322.1c0 10.996 2.4219 19.531 7.2656 25.602 4.8438 6.0703 10.734 9.1016 17.668 9.1016 7.0938 0 13.043-3.0664 17.848-9.1953 4.8047-6.1289 7.207-15.137 7.207-27.027 0-7.6797-1.2383-14.539-3.7109-20.586-1.9023-4.625-4.7734-8.332-8.6055-11.113-3.832-2.7773-8.0195-4.168-12.555-4.168-7.3008 0-13.312 3.043-18.035 9.1289-4.7227 6.0898-7.082 15.508-7.082 28.258m-1.1055 30.746c-5.9766-8.5273-8.9648-18.828-8.9648-30.898 0-15.242 3.3516-26.949 10.062-35.137 6.707-8.1914 15.059-12.285 25.062-12.285 6.4609 0 12.355 1.832 17.684 5.4883 5.3242 3.6562 9.543 8.9727 12.652 15.938 3.1094 6.9648 4.6641 15.27 4.6641 24.898 0 13.25-3.0078 24.035-9.0234 32.363-6.625 9.1797-15.305 13.777-26.039 13.777-10.812 0-19.512-4.7188-26.098-14.145" fill="#1e64aa"/>
<path d="m685.91 1334.1 9.7227 3.0078c-2.1602 10.043-5.9336 17.52-11.332 22.457-5.3906 4.9375-11.957 7.4023-19.691 7.4023-6.8008 0-12.613-1.6562-17.438-4.9727-4.8242-3.3125-8.7734-8.6289-11.848-15.941-3.0703-7.3242-4.6094-15.961-4.6094-25.93 0-9.8359 1.5391-18.156 4.6094-24.969 3.0742-6.8125 7.2422-11.953 12.496-15.43 5.25-3.4805 11.113-5.2188 17.59-5.2188 7.082 0 13.168 2.1953 18.258 6.5859 5.0898 4.3945 8.6562 10.836 10.695 19.336l-9.4922 2.7812c-3.2578-12.348-9.793-18.516-19.602-18.516-4.8828 0-9.1211 1.2461-12.703 3.7383-3.5859 2.5-6.4414 6.3906-8.5781 11.668-2.1367 5.2734-3.207 11.953-3.207 20.023 0 12.223 2.1602 21.387 6.4727 27.5 4.3164 6.1055 10.055 9.1602 17.223 9.1602 5.293 0 9.8633-1.875 13.711-5.6211 3.8477-3.7539 6.4219-9.4375 7.7227-17.062" fill="#1e64aa"/>
<path d="m734.02 1276h9.7227v89.449h-9.7227z" fill="#1e64aa"/>
<path d="m798.08 1328.8h25.082l-7.6445-24.797c-2.3594-7.6094-4.0938-13.801-5.1914-18.562-0.95703 5.7422-2.3047 11.441-4.043 17.098zm-20.914 36.68 28.199-89.449h10.414l30.012 89.449h-11.105l-8.5117-27.078h-30.906l-7.9141 27.078z" fill="#1e64aa"/>
<path d="m889.36 1365.5v-78.918h-24.188v-10.531h58.207v10.531h-24.301v78.918z" fill="#1e64aa"/>
<path d="m959.44 1276h9.7227v89.449h-9.7227z" fill="#1e64aa"/>
<path d="m1018 1322.1c0 10.996 2.4219 19.531 7.2656 25.602 4.8438 6.0703 10.73 9.1016 17.668 9.1016 7.0938 0 13.043-3.0664 17.844-9.1953 4.8086-6.1289 7.2109-15.137 7.2109-27.027 0-7.6797-1.2383-14.539-3.7109-20.586-1.9062-4.625-4.7734-8.332-8.6016-11.113-3.832-2.7773-8.0234-4.168-12.562-4.168-7.3008 0-13.309 3.043-18.031 9.1289-4.7266 6.0898-7.082 15.508-7.082 28.258m-1.1055 30.746c-5.9805-8.5273-8.9648-18.828-8.9648-30.898 0-15.242 3.3477-26.949 10.062-35.137 6.707-8.1914 15.059-12.285 25.062-12.285 6.4609 0 12.355 1.832 17.684 5.4883 5.3242 3.6562 9.543 8.9727 12.652 15.938 3.1094 6.9648 4.6641 15.27 4.6641 24.898 0 13.25-3.0078 24.035-9.0234 32.363-6.6289 9.1797-15.305 13.777-26.039 13.777-10.812 0-19.516-4.7188-26.098-14.145" fill="#1e64aa"/>
<path d="m1114.6 1365.5v-89.449h9.9844l38.504 70.453v-70.453h9.2578v89.449h-9.9258l-38.441-70.34v70.34z" fill="#1e64aa"/>
<path d="m267.75 1104.6c0-1.0977-0.51953-2.1367-1.5586-3.1211-0.8125-0.89844-1.9414-1.3633-3.3438-1.3633-1.2578 0-2.4297 0.46484-3.5156 1.3633-0.70703 0.66406-1.1406 1.707-1.3008 3.1211 0 0.73047 0.085938 1.3516 0.27344 1.8516 0.19141 0.50391 0.53906 0.98438 1.0273 1.4492 0.49609 0.35938 1.0117 0.61719 1.5508 0.80078 0.53125 0.18359 1.1992 0.31641 1.9648 0.41406 0.75 0 1.375-0.085938 1.8633-0.24609 0.49609-0.20312 0.98438-0.51172 1.4805-0.96875 1.0391-0.97266 1.5586-2.0391 1.5586-3.3008m38.102-55.859c-1.3008 1.8516-3.1406 3.543-5.5273 5.0586-2.2812 1.2227-4.7266 2.0703-7.332 2.5469 3.3828 3.1445 5.0781 7.0195 5.0781 11.613v46.812h-8.5781l-16.375-34.84c-0.64844-1.2969-1.707-2.3945-3.168-3.3164-0.92578-0.68359-2.125-1.0117-3.5859-1.0117-0.60938 0-1.0547 0.027344-1.3867 0.085938-4.0234 0.61719-6.0195 3.0078-6.0195 7.1758v12.004c0.375-0.14844 0.79688-0.26172 1.2734-0.33594 0.49219-0.10156 1.3711-0.1875 2.6602-0.28906 3.0117 0 5.5703 0.98438 7.6953 2.9531 2.1133 1.9531 3.1836 4.457 3.1836 7.5078 0 1.4883-0.25781 2.8477-0.78125 4.0898-0.50781 1.2422-1.3633 2.4609-2.5469 3.6641-1.9375 2.0938-4.5859 3.1523-7.9258 3.1523-3.6719 0-6.582-1.0586-8.7344-3.1836-2.1133-2.2852-3.1562-5.0898-3.1562-8.4062v-22c0-3.3242 1.1016-6.0039 3.3438-8.1016 2.0078-2.1094 4.293-3.4688 6.8398-4.0352 0.76562-0.14453 1.8672-0.30078 3.2969-0.44531 1.4453-0.17188 2.3281-0.27344 2.6602-0.32812 1.6211 0 3.1133 0.125 4.4414 0.39844 1.332 0.26172 2.5898 0.71094 3.793 1.3867 2.168 1 3.832 2.793 4.9766 5.3828l9.7617 21.309v-28.133c0-3.5625-1.5898-6.625-4.7422-9.2188-3.1562-2.6016-6.9727-3.8906-11.484-3.8906-9.1445 0-15.191 3.5859-18.184 10.777h-8.6367c1.5625-5.3359 4.832-9.5859 9.7773-12.773 2.5039-1.4453 5.1953-2.5625 8.0742-3.3398 2.875-0.77734 6.0312-1.1719 9.457-1.1719 1.3008 0 2.5742 0.0625 3.793 0.16016 1.2266 0.097657 2.543 0.34766 3.9609 0.70703 0.75391 0.14844 1.5195 0.33203 2.2852 0.47656 0.86719 0.26172 1.7656 0.53516 2.6914 0.78516 0.32031 0.10156 0.78125 0.16797 1.3867 0.16797 1.5195 0 3.0664-0.57422 4.6445-1.7305 2.125-1.6797 3.832-3.8477 5.1367-6.4805z" fill="#1e64aa"/>
<path d="m329.86 1104v-8.8047c-2.168 0-4.0039 0.64844-5.5234 1.9492-1.4062 1.3477-2.1133 2.9336-2.1133 4.7461 0 1.7227 0.375 3.125 1.0977 4.207 0.72656 1.0938 1.8555 1.7188 3.3867 1.8633 2.1133 0 3.1523-1.3125 3.1523-3.9609m0.46484-42.602c0-1.168-0.46484-2.2109-1.3906-3.1367-0.92578-0.9375-2.0391-1.4062-3.3125-1.4062-1.2734 0-2.4141 0.48047-3.4258 1.4531-0.75391 0.64453-1.1875 1.6719-1.3633 3.0898 0 0.69531 0.089843 1.2891 0.28906 1.7812 0.17578 0.49609 0.53906 0.96875 1.0742 1.4883 0.47656 0.33984 0.96484 0.60547 1.4727 0.78125 0.50781 0.17578 1.1602 0.30078 1.9531 0.42188 1.2734 0 2.3867-0.4375 3.3125-1.3047 0.92578-0.85156 1.3906-1.9102 1.3906-3.168m39.574 44.512c0 5.8281-2.5586 8.7539-7.6914 8.7539h-2.8672c-1.3008-3.793-3.9766-7.6016-8.0117-11.445-2.0859-2.0273-4.2539-3.7031-6.5508-5.0312-2.3047-1.3203-4.6445-2.3164-7.0469-2.9922v9.6992c0 2.9219-0.92578 5.3438-2.8086 7.2812-1.8477 1.9375-4.4844 2.918-7.8359 2.918-3.3594 0-6.3398-1.168-8.8828-3.5117-2.4023-2.5898-3.6172-5.7734-3.6172-9.5898 0-3.6367 1.5312-6.832 4.5703-9.5781 1.5312-1.3555 3.1836-2.3906 4.9883-3.0781 1.7969-0.69531 3.707-1.0586 5.7148-1.0586v-17.184c-0.375 0.17188-0.82422 0.28906-1.3164 0.35547-0.50391 0.074218-1.4023 0.17969-2.7305 0.28125-3.0234 0-5.7031-0.99609-8.0039-3.0234-0.99609-0.92578-1.7773-2.0117-2.3555-3.2461-0.57812-1.2227-0.86719-2.6211-0.86719-4.1758 0-2.8945 1.0703-5.4375 3.1836-7.6406 2.1367-2.168 4.8281-3.2812 8.1133-3.2812 3.6016 0 6.4492 1.1133 8.5469 3.3281 2.1992 2.0234 3.3008 4.7461 3.3008 8.1992v26.793c1.8477 0.16016 3.8477 0.65234 5.9414 1.5 2.1016 0.85547 4.3281 2.0586 6.6719 3.6094 4.6016 2.7852 8.3281 6.1172 11.227 9.9883v-52.684h8.3281z" fill="#1e64aa"/>
<path d="m424.71 1114.7h-8.332v-45.277c0-3.8359-1.168-7-3.4883-9.5234-2.4414-2.4297-5.668-3.6211-9.6719-3.6211-3.5781 0-6.5586 0.92578-8.8984 2.7578-2.375 1.8516-4.2227 4.5273-5.5703 8.0273h-8.6914c1.4023-5.1445 4.1367-9.3047 8.1719-12.496 4.0352-3.1953 9.0977-4.7852 15.172-4.7852 6.2227 0 11.34 1.6016 15.332 4.8555 3.9805 3.2227 5.9766 7.6289 5.9766 13.148z" fill="#1e64aa"/>
<path d="m472.24 1077c0-1.2031-0.49219-2.2461-1.4609-3.1836-0.82422-0.97656-1.9375-1.4648-3.3555-1.4648-1.3594 0-2.5312 0.48828-3.5156 1.4648-0.64844 0.61719-1.1133 1.6914-1.3906 3.1836 0 1.2812 0.46484 2.3867 1.3906 3.3281 0.49219 0.41406 1.1172 0.70312 1.8828 0.89062 0.76562 0.17578 1.3125 0.28906 1.6328 0.34766 0.75391 0 1.375-0.082031 1.8398-0.23047 0.46094-0.16797 0.96484-0.48828 1.5156-1.0078 0.96875-1.0469 1.4609-2.1445 1.4609-3.3281m18.746 37.652h-8.3281v-41.363c0-4.5234-1.3789-8.4141-4.1562-11.656-3.1523-3.6016-7.5352-5.4023-13.176-5.4023-5.3672 0-9.7617 1.5977-13.18 4.8164-3.4258 3.2109-5.1328 6.9805-5.1328 11.305 0 1.4336 0.046875 2.8984 0.16016 4.4023 0.11328 1.4688 0.31641 3.0312 0.63672 4.625l1.9805 10.113v7.6406c-0.11719 0.77734-0.1875 1.3438-0.23047 1.7031l1.3008-9.5625c0.71094-3.6172 1.4922-6.8555 2.3555-9.6875 0.87109-2.8672 1.9258-5.543 3.1719-8.0859 2.2695-4.8164 5.9297-7.2344 10.977-7.2344 2.9219 0 5.4961 1.0234 7.7539 3.0703 2.2539 2.0625 3.3711 4.6094 3.3711 7.6641 0 2.9336-1.0547 5.4492-3.168 7.5312-2.125 2.0664-4.7773 3.0977-7.9844 3.0977-2.7227 0-5.1484-0.82812-7.3203-2.5-1.0391 2.6836-2.4297 7.332-4.1641 13.945-0.69531 2.7461-1.3633 5.3945-1.9414 7.9492-0.60547 2.5664-1.1719 5.0938-1.7031 7.6289h-8.8828v-10c0-4.3242-1.0117-11.09-3.0117-20.363-0.43359-2.332-0.80859-4.6133-1.1445-6.8711-0.32812-2.2578-0.48828-4.0078-0.48828-5.2344 0-6.0234 2.3906-11.227 7.1602-15.629 5.2656-4.5508 11.906-6.8203 19.934-6.8203 7.582 0 13.684 2.1094 18.301 6.3438 4.6094 4.2578 6.9102 9.4023 6.9102 15.469z" fill="#1e64aa"/>
<path d="m519.61 1104v-8.8047c-2.168 0-4.0195 0.64844-5.5234 1.9492-1.418 1.3477-2.1094 2.9336-2.1094 4.7461 0 1.7227 0.34375 3.125 1.082 4.207 0.73828 1.0938 1.8672 1.7188 3.3711 1.8633 2.1133 0 3.1797-1.3125 3.1797-3.9609m0.46484-42.602c0-1.168-0.48047-2.2109-1.4023-3.1367-0.94141-0.9375-2.0391-1.4062-3.3164-1.4062-1.2695 0-2.4141 0.48047-3.4258 1.4531-0.73438 0.64453-1.1992 1.6719-1.3438 3.0898 0 0.69531 0.085937 1.2891 0.25781 1.7812 0.20703 0.49609 0.55078 0.96875 1.0859 1.4883 0.47656 0.33984 0.97266 0.60547 1.4766 0.78125 0.50391 0.17578 1.1562 0.30078 1.9492 0.42188 1.2773 0 2.375-0.4375 3.3164-1.3047 0.92188-0.85156 1.4023-1.9102 1.4023-3.168m39.574 44.512c0 5.8281-2.5703 8.7539-7.6953 8.7539h-2.8633c-1.3125-3.793-3.9922-7.6016-8.0273-11.445-2.0703-2.0273-4.2656-3.7031-6.5508-5.0312-2.2891-1.3203-4.6289-2.3164-7.0312-2.9922v9.6992c0 2.9219-0.95703 5.3438-2.8086 7.2812-1.8789 1.9375-4.4805 2.918-7.8516 2.918s-6.3203-1.168-8.8984-3.5117c-2.4023-2.5898-3.5859-5.7734-3.5859-9.5898 0-3.6367 1.5039-6.832 4.5703-9.5781 1.5195-1.3555 3.1836-2.3906 4.9766-3.0781 1.793-0.69531 3.7031-1.0586 5.7266-1.0586v-17.184c-0.40234 0.17188-0.83984 0.28906-1.3281 0.35547-0.49219 0.074218-1.4023 0.17969-2.7188 0.28125-3.0391 0-5.6992-0.99609-8.0156-3.0234-0.98438-0.92578-1.7773-2.0117-2.3555-3.2461-0.58203-1.2227-0.85547-2.6211-0.85547-4.1758 0-2.8945 1.043-5.4375 3.1836-7.6406 2.1094-2.168 4.8164-3.2812 8.0977-3.2812 3.6055 0 6.4531 1.1133 8.5508 3.3281 2.1992 2.0234 3.3125 4.7461 3.3125 8.1992v26.793c1.8516 0.16016 3.8164 0.65234 5.9336 1.5 2.0938 0.85547 4.3203 2.0586 6.6797 3.6094 4.5703 2.7852 8.3203 6.1172 11.227 9.9883v-52.684h8.3281z" fill="#1e64aa"/>
<path d="m593.62 1061.4c0-1.168-0.47656-2.2109-1.4453-3.0898-0.85547-0.97266-1.957-1.4531-3.2969-1.4531-1.2734 0-2.4336 0.48047-3.4414 1.4531-0.69922 0.64453-1.1328 1.6719-1.3047 3.0898 0 0.69141 0.10156 1.3086 0.28906 1.8242 0.1875 0.49219 0.52344 0.96875 1.0156 1.4023 0.47656 0.42188 1.0977 0.72656 1.8477 0.89844 0.75391 0.17578 1.2734 0.28906 1.5938 0.34766 0.75 0 1.3594-0.070313 1.8203-0.23047 0.44922-0.15625 0.95312-0.49609 1.4766-0.97266 0.96875-0.92578 1.4453-2.0078 1.4453-3.2695m31.938 43.418c0 3.5234-0.72266 6.0547-2.1836 7.6016-1.3008 1.5078-3.3125 2.2461-6.0156 2.2461h-2.8516l-13.508-29.523-13.426 29.523h-11.078v-52.742c0-3.4102 1.0547-6.1914 3.1523-8.3281 2.082-2.1484 5.0625-3.2305 8.9102-3.2305 3.2109 0 5.8711 1.1133 7.9844 3.3281 2.2266 2.0234 3.3281 4.543 3.3281 7.5938 0 2.8359-1.0547 5.2969-3.1836 7.3477-2.125 2.0703-4.7461 3.0977-7.8398 3.0977-1.1562 0-1.9531-0.027344-2.418-0.089844-0.46094-0.042969-0.99219-0.22656-1.6016-0.54688v31.98l13.32-28.18 5.9141-0.027344 13.164 28.234v-52.004h8.332z" fill="#1e64aa"/>
<path d="m600.07 1131c0-1.2305-0.40625-2.2305-1.1875-2.9922-0.79688-0.78516-1.9102-1.2461-3.3281-1.4023-1.2578 0-2.2852 0.38281-3.0781 1.1523-0.79688 0.78516-1.2578 1.8516-1.4336 3.2422 0 1.2266 0.43359 2.2695 1.3008 3.1211 0.72266 0.68359 1.793 1.1289 3.2109 1.2734 1.2578 0 2.2891-0.38672 3.0664-1.1562 0.8125-0.78125 1.2773-1.8477 1.4492-3.2383m25.457 11.34c0 4.0195-0.95703 7.0742-2.8906 9.082-1.9102 2.0273-5.0664 3.0391-9.4609 3.0391h-20.137v-5.6562c2.2266 0 3.8047-0.31641 4.7305-0.94141 0.76562-0.73828 1.1406-2.0977 1.1406-4.0312v-3.4141l-3.3555 0.64844c-3.0352 0-5.5508-0.95703-7.5508-2.8516-1.9961-1.8945-2.9805-4.3086-2.9805-7.2148s0.98438-5.3125 2.9805-7.2031c2-1.9102 4.5156-2.8555 7.5508-2.8555 3.3867 0 6.1641 1.0312 8.332 3.0586 2.2422 1.8633 3.3555 4.4102 3.3555 7.6445v16.945h2.9961c2.9648 0 4.9023-0.52344 5.8281-1.5312 0.32031-0.57812 0.58203-1.3203 0.8125-2.2344 0.20312-0.91406 0.31641-2.0391 0.31641-3.3789v-19.867l8.332-0.078125z" fill="#1e64aa"/>
<path d="m611.41 1022.1c0-2.6406-1.3789-3.9531-4.1367-3.9531-2.793 0-4.1953 1.3125-4.1953 3.9531 0 2.5352 1.4023 3.8047 4.1953 3.8047 2.7578 0 4.1367-1.2695 4.1367-3.8047m26.383-3.9727c-0.65234 6.668-3.6719 11.879-9.082 15.652-2.3164 1.5195-4.918 2.7227-7.8242 3.6055-2.8789 0.85156-6.0352 1.2852-9.4453 1.2852-2.75 0-5.4961-0.28906-8.2188-0.91406 1.5312-0.83594 2.7617-1.8203 3.7031-2.9336 0.95312-1.125 1.6797-2.4883 2.1719-4.1094l-1.7227 0.19922c-2.4453 0-4.6445-0.83594-6.5547-2.5586-0.80859-0.83203-1.4453-1.7773-1.9102-2.8477-0.46094-1.0547-0.69531-2.1953-0.69531-3.3867 0-2.4375 0.87109-4.5078 2.6055-6.2266 0.88281-0.76953 1.8828-1.3906 2.9961-1.8594 1.1133-0.47266 2.2969-0.71094 3.5586-0.71094 2.8789 0 5.2773 0.91797 7.1875 2.7383 1.9102 1.8203 2.8672 4.0664 2.8672 6.7109 0 2.0547-0.19141 3.7461-0.55078 5.125-0.37891 1.3828-0.68359 2.3438-0.92578 2.8867-0.23438 0.55469-0.66797 1.293-1.3047 2.25 2.1562 0 4.1367-0.4375 5.957-1.3047 1.8594-0.83594 3.6211-2.0977 5.3438-3.7617 2.9648-2.8516 4.4375-6.1367 4.4375-9.8398z" fill="#1e64aa"/>
<path d="m671.82 1077c0-1.2031-0.50781-2.2461-1.5039-3.1836-0.89844-0.97656-2.0391-1.4648-3.4297-1.4648-1.4023 0-2.5898 0.48828-3.6016 1.4648-0.78125 0.67578-1.2422 1.7227-1.418 3.1836 0 0.66406 0.085938 1.2539 0.28906 1.7734 0.20312 0.50781 0.57812 1.0312 1.1289 1.5547 0.48828 0.37109 1.0117 0.63281 1.5469 0.80469 0.53516 0.20312 1.2148 0.33594 2.0547 0.43359 1.3438 0 2.4727-0.43359 3.4297-1.2383 0.99609-1.0469 1.5039-2.1445 1.5039-3.3281m19.902 37.652h-8.332v-41.363c0-4.7852-1.3867-8.7305-4.1367-11.812-3.0234-3.5156-7.2891-5.2461-12.785-5.2461-5.1523 0-9.4062 1.4414-12.816 4.3477-3.3867 2.9062-5.2656 5.6602-5.5859 8.2969l-0.31641 5.8711c0 1.8047 0.15625 3.8438 0.47656 6.1719 0.32031 2.3086 0.88281 5.1328 1.6797 8.4766 1.4883 6.5781 2.2383 10.953 2.2383 13.121 0.37891-0.66406 0.78125-1.332 1.2031-2.0117 0.41797-0.67969 0.96875-1.4453 1.6055-2.2578 0.43359-0.66406 0.88281-1.3008 1.3594-1.8672 0.69531-0.875 1.5039-1.8203 2.4023-2.875l5.4648-6.1953c-2.2852-0.45703-4.3516-1.6914-6.1914-3.6562-1.5898-2.0664-2.3711-4.2969-2.3711-6.6719 0-2.7461 1.0586-5.2617 3.1836-7.5195 2.3438-2.1289 5.0312-3.1953 8.0703-3.1953 2.9492 0 5.5547 1.0664 7.8398 3.1953 1.1016 0.96484 1.9258 2.0977 2.4883 3.3242 0.58203 1.2617 0.86719 2.6523 0.86719 4.2148 0 2.1719-0.40625 3.8984-1.2109 5.1953-0.39453 0.77734-0.89844 1.5859-1.5078 2.4141-0.63672 0.82031-1.2461 1.5742-1.8359 2.2422l-9.6055 11.57c-2.125 2.7617-4.2344 5.668-6.3516 8.75-2.1094 3.082-3.6133 5.5703-4.4844 7.4805h-9.0234v-9.2344c0-2.1836-0.17188-4.5117-0.49219-6.9961-0.31641-2.4922-0.89844-5.6367-1.7344-9.4453-0.84375-3.8086-1.4648-7.0039-1.8398-9.6211-0.375-2.6016-0.5625-5.0039-0.5625-7.1719 0-6.2852 2.4297-11.578 7.3203-15.926 4.8867-4.3555 11.469-6.5234 19.758-6.5234 7.4922 0 13.566 2.0781 18.227 6.2891 4.6562 4.1875 7 9.3711 7 15.523z" fill="#1e64aa"/>
<path d="m666.41 1131c0-1.2305-0.39453-2.2305-1.1875-2.9922-0.79688-0.78516-1.9062-1.2461-3.3281-1.4023-1.2578 0-2.2852 0.38281-3.0664 1.1523-0.80859 0.78516-1.2734 1.8516-1.4453 3.2422 0 1.2266 0.43359 2.2695 1.3164 3.1211 0.71094 0.68359 1.7812 1.1289 3.1953 1.2734 1.2617 0 2.2852-0.38672 3.082-1.1562 0.79688-0.78125 1.2734-1.8477 1.4336-3.2383m25.457 11.34c0 4.0195-0.95703 7.0742-2.8906 9.082-1.9102 2.0273-5.0625 3.0391-9.4609 3.0391h-20.137v-5.6562c2.2266 0 3.8047-0.31641 4.7266-0.94141 0.77344-0.73828 1.1484-2.0977 1.1484-4.0312v-3.4141l-3.3594 0.64844c-3.0352 0-5.5508-0.95703-7.5508-2.8516-1.9805-1.8945-2.9805-4.3086-2.9805-7.2148s1-5.3125 2.9805-7.2031c2-1.9102 4.5156-2.8555 7.5508-2.8555 3.3867 0 6.1602 1.0312 8.3359 3.0586 2.2383 1.8633 3.3516 4.4102 3.3516 7.6445v16.945h2.9961c2.9609 0 4.9023-0.52344 5.8281-1.5312 0.32031-0.57812 0.59375-1.3203 0.80859-2.2344 0.21875-0.91406 0.32031-2.0391 0.32031-3.3789v-19.867l8.332-0.078125z" fill="#1e64aa"/>
<path d="m759.91 1104.5c0-1.1797-0.49219-2.2031-1.4766-3.125-0.80859-0.91406-1.9258-1.375-3.3398-1.375-1.3594 0-2.5352 0.46094-3.5117 1.375-0.75781 0.70312-1.2227 1.7461-1.3945 3.125 0 0.71875 0.089844 1.3086 0.28906 1.7852 0.19141 0.5 0.55469 0.98828 1.1055 1.5117 0.48438 0.32812 0.97656 0.59766 1.5039 0.77734 0.51953 0.19922 1.1797 0.32812 2.0078 0.4375 1.3008 0 2.4297-0.4375 3.3867-1.3008 0.95312-0.86719 1.4297-1.9297 1.4297-3.2109m6.2461 0.066406c0 1.5195-0.25781 2.8828-0.77734 4.125-0.50781 1.2266-1.3633 2.4414-2.5469 3.6289-2.0859 2.1133-4.7461 3.1836-7.9844 3.1836-3.707 0-6.6523-1.0703-8.8789-3.1992-0.98828-1.0703-1.7695-2.3281-2.3281-3.7461-0.56641-1.4258-0.85547-2.9648-0.85547-4.6289v-52.742h8.3281v43.57c0.65234-0.25781 2-0.47656 4.0117-0.62109 2.9336 0 5.5078 0.98438 7.7227 2.9375 2.2109 1.9688 3.3086 4.457 3.3086 7.4922m-37.953-0.066406c0-1.1797-0.47656-2.2031-1.4336-3.125-0.95312-0.91406-2.082-1.375-3.3828-1.375-1.3594 0-2.5312 0.46094-3.5117 1.375-0.75781 0.66016-1.2188 1.6992-1.3906 3.125 0 0.71875 0.082031 1.3086 0.28906 1.7852 0.18359 0.5 0.54688 0.98828 1.1016 1.5117 0.49219 0.32812 0.98047 0.59766 1.5 0.77734 0.51953 0.19922 1.1875 0.32812 2.0117 0.4375 1.3008 0 2.4297-0.4375 3.3828-1.3008 0.95703-0.86719 1.4336-1.9297 1.4336-3.2109m6.25 0.066406c0 1.5195-0.26172 2.8828-0.78125 4.125-0.50781 1.2266-1.3594 2.4414-2.5469 3.6289-2.0859 2.1133-4.7422 3.1836-7.9844 3.1836-3.7031 0-6.6562-1.0703-8.8828-3.1992-2.1211-2.2539-3.1836-5.0625-3.1836-8.375v-52.742h8.3359v43.57c0.64844-0.25781 1.9922-0.47656 4.0078-0.62109 2.9336 0 5.5078 0.98438 7.7227 2.9375 2.2109 1.9688 3.3125 4.457 3.3125 7.4922" fill="#1e64aa"/>
<path d="m795.77 1104.5c0-1.1367-0.50781-2.1602-1.5469-3.125-0.8125-0.91406-1.9375-1.375-3.3555-1.375-1.2461 0-2.4336 0.46094-3.5039 1.375-0.72266 0.66016-1.1523 1.6992-1.3164 3.125 0 0.71875 0.10156 1.3242 0.29297 1.8359 0.1875 0.50781 0.53516 0.99219 1.0234 1.4609 0.49219 0.32812 1 0.59766 1.5352 0.77734 0.55078 0.19922 1.2148 0.32812 1.9688 0.4375 0.76172 0 1.3828-0.089843 1.8789-0.28125 0.49219-0.17188 0.98047-0.47656 1.4766-0.93359 1.0391-0.98438 1.5469-2.0742 1.5469-3.2969m30.32 10.152h-8.5625l-16.375-34.848c-0.65625-1.2734-1.7266-2.375-3.1719-3.3281-0.92188-0.64844-2.125-0.98438-3.5859-0.98438-0.60547 0-1.0703 0.027344-1.3867 0.074219-4.0234 0.63672-6.0312 3.0039-6.0312 7.1719v12.02c0.375-0.16016 0.79297-0.27344 1.2852-0.35938 0.49219-0.070312 1.3711-0.15625 2.6602-0.26172 3.0117 0 5.5547 0.98438 7.6836 2.9375 2.1289 1.9688 3.1836 4.457 3.1836 7.4922 0 1.5195-0.25 2.8828-0.76562 4.125-0.52734 1.2266-1.3633 2.4414-2.5469 3.6289-1.9375 2.1133-4.6055 3.1836-7.9297 3.1836-3.6719 0-6.5977-1.0703-8.7344-3.2109-2.1133-2.2578-3.1719-5.0625-3.1719-8.3945v-21.984c0-3.3438 1.1172-6.0273 3.3438-8.0977 2.0273-2.1289 4.293-3.4727 6.8555-4.0391 0.75-0.16016 1.8516-0.30469 3.2969-0.47656 1.4492-0.16016 2.3281-0.25391 2.6602-0.30078 1.625 0 3.1016 0.13281 4.4258 0.39062 1.3359 0.25781 2.6094 0.72266 3.793 1.4023 2.1875 0.98438 3.8477 2.7734 4.9766 5.3633l9.7617 21.32v-28.16c0-3.5273-1.5742-6.6094-4.7266-9.1992-3.1562-2.6055-6.9727-3.8867-11.488-3.8867-9.1445 0-15.199 3.5977-18.199 10.785h-8.6289c1.5742-5.3555 4.8438-9.5977 9.793-12.773 2.4844-1.4414 5.1758-2.5547 8.0664-3.3398 2.8789-0.79688 6.0352-1.168 9.4609-1.168 6.8594 0 12.57 1.6172 17.156 4.8828 4.6016 3.2578 6.9023 7.6406 6.9023 13.121z" fill="#1e64aa"/>
<path d="m862.43 1104.5c0-1.1797-0.48828-2.2031-1.4453-3.125-0.95312-0.91406-2.0859-1.375-3.3867-1.375-1.3594 0-2.5312 0.46094-3.4961 1.375-0.78516 0.66016-1.25 1.6992-1.3906 3.125 0 0.71875 0.085937 1.3086 0.26953 1.7852 0.1875 0.5 0.5625 0.98828 1.1211 1.5117 0.47266 0.32812 0.97656 0.59766 1.5039 0.77734 0.51953 0.19922 1.1836 0.32812 1.9922 0.4375 1.3008 0 2.4336-0.4375 3.3867-1.3008 0.95703-0.86719 1.4453-1.9297 1.4453-3.2109m6.2461 0.066406c0 1.5195-0.25781 2.8828-0.77734 4.125-0.52344 1.2266-1.3711 2.4414-2.5742 3.6289-2.0586 2.1133-4.7148 3.1836-7.9844 3.1836-3.6758 0-6.6406-1.0703-8.8672-3.1992-2.125-2.2539-3.1719-5.0625-3.1719-8.375v-52.742h8.3359v43.57c0.63672-0.25781 1.9805-0.47656 3.9883-0.62109 2.9531 0 5.5312 0.98438 7.7266 2.9375 2.2109 1.9688 3.3242 4.457 3.3242 7.4922" fill="#1e64aa"/>
<path d="m915.92 1104.5c0-1.1367-0.51953-2.1602-1.5625-3.125-0.80469-0.91406-1.9375-1.375-3.3516-1.375-1.2461 0-2.4141 0.46094-3.5 1.375-0.72656 0.66016-1.1562 1.6992-1.3047 3.125 0 0.71875 0.085938 1.3242 0.27734 1.8359 0.1875 0.50781 0.53516 0.99219 1.0273 1.4609 0.49219 0.32812 1.0117 0.59766 1.5469 0.77734 0.53125 0.19922 1.1953 0.32812 1.9531 0.4375 0.76562 0 1.3906-0.089843 1.8789-0.28125 0.48828-0.17188 0.98438-0.47656 1.4727-0.93359 1.043-0.98438 1.5625-2.0742 1.5625-3.2969m7.4062-0.60156c0 3.4297-1.0508 6.2266-3.1484 8.375-2.0859 2.1484-5.0664 3.2305-8.9141 3.2305-3.2109 0-5.918-1.0703-8.1445-3.1836-2.125-2.2695-3.1641-4.8594-3.1641-7.7539 0-2.8633 1.0703-5.3203 3.2695-7.375 2.168-2.043 4.7578-3.0547 7.75-3.0547 1.1602 0 1.9531 0.015625 2.418 0.074219 0.46094 0.042969 0.99609 0.24609 1.6016 0.54688v-25.367c0-3.7305-1.4922-6.8438-4.457-9.375-2.9648-2.5195-6.5938-3.7852-10.871-3.7852-3.8203 0-7.4414 0.93359-10.852 2.8008-3.0469 1.9258-5.2344 4.5898-6.5391 7.9844h-8.7031c1.832-5.5703 5.1211-9.8203 9.8359-12.773 2.457-1.4414 5.0352-2.5547 7.7539-3.3398 2.7031-0.79688 5.6953-1.168 8.9492-1.168 6.5664 0 12.078 1.6289 16.535 4.9336 4.457 3.2812 6.6797 7.6602 6.6797 13.102z" fill="#1e64aa"/>
<path d="m917.02 1034.3c0-2.2969-1.1836-3.4609-3.5859-3.4609-2.3906 0-3.5859 1.1641-3.5859 3.4609 0 2.3125 1.1953 3.4727 3.5859 3.4727 2.4023 0 3.5859-1.1602 3.5859-3.4727m7.1758-25.227c0 3.7617-1.8203 6.8477-5.4688 9.2969-3.6133 2.4492-7.7539 3.6758-12.379 3.6758h-5.8594c-0.76562 0-1.5195 0.019531-2.2891 0.046875-0.75 0.03125-1.6055 0.14062-2.5273 0.32031-1.418 0-3.0391 0.80859-4.8906 2.4375-1.6523 1.2617-2.457 3.0859-2.457 5.5 0 1.9297 0.72266 3.5898 2.1367 4.9453 0.98438 0.94531 1.9805 1.4219 3.0117 1.4219l6.043-8.1758c0.26562 0.26172 0.55469 0.55469 0.84375 0.88281 0.29688 0.33203 0.50781 0.62891 0.60547 0.86328l3.3555 3.0742c0.31641-1.9531 1.3203-3.7188 2.9961-5.3242 1.6758-1.4766 3.7461-2.2109 6.1719-2.2109 2.5508 0 4.707 0.83203 6.4844 2.5273 0.8125 0.78125 1.4453 1.6797 1.9062 2.6914 0.46484 1.0469 0.69531 2.1406 0.69531 3.3281 0 2.4141-0.92578 4.457-2.7656 6.1641-0.91016 0.77734-1.9922 1.375-3.2539 1.8047-1.2461 0.44922-2.5469 0.65234-3.8906 0.65234-1.1875 0-2.3828-0.14453-3.5703-0.40625-1.1875-0.30469-2.3281-0.70703-3.4141-1.2734-2.2266-1.0391-4.1641-2.5-5.8477-4.3984l-3.668 5.4414h-4.7188c-2.8789 0-5.4219-1.043-7.6484-3.1523-2.2266-2.1094-3.3438-4.9648-3.3438-8.5156 0-3.4219 1.3867-6.4883 4.1797-9.2344 2.5547-2.4141 5.3398-3.7891 8.2852-4.0781 2.3516-0.375 3.9688-0.55469 4.8359-0.55469h8.6016c2.7383 0 5.0273-0.55469 6.8906-1.7031 1.7461-1.3594 2.6211-3.3672 2.6211-6.0469z" fill="#1e64aa"/>
<path d="m949.2 1061.4c0-1.168-0.48047-2.2109-1.4336-3.1367-0.95312-0.9375-2.0859-1.4062-3.3828-1.4062-1.3203 0-2.4766 0.48047-3.5195 1.4531-0.74609 0.64453-1.2148 1.6719-1.3828 3.0898 0 0.69141 0.082031 1.2891 0.28906 1.7812 0.1875 0.49219 0.54688 0.96875 1.0938 1.4883 0.49219 0.33594 0.98828 0.60547 1.5039 0.78516 0.52344 0.17188 1.1914 0.29688 2.0156 0.41797 1.2969 0 2.4297-0.4375 3.3828-1.3008 0.95312-0.85547 1.4336-1.9102 1.4336-3.1719m44.203 38.297c0 5.0156-1.168 8.8477-3.5 11.48-2.2852 2.3281-6.3633 3.4883-12.238 3.4883h-37.754v-6.0781c3.1992 0 5.3984-0.49609 6.5938-1.4453 1.1914-1.0117 1.7812-2.9414 1.7812-5.8477v-30.199c-0.38672 0.17188-0.82422 0.28906-1.3008 0.35938-0.48828 0.070312-1.375 0.17578-2.6758 0.27734-2.9961 0-5.625-0.99609-7.9023-3.0234-0.98047-0.92578-1.7578-2.0117-2.3281-3.2461-0.55859-1.2188-0.84766-2.6211-0.84766-4.1758 0-2.8945 1.0664-5.4414 3.207-7.6406 2.1445-2.168 4.8906-3.2812 8.1914-3.2812 3.6445 0 6.5234 1.1133 8.6484 3.3281 2.2109 2.0234 3.3242 4.7461 3.3242 8.1953v46.277h16.453c5.0742 0 8.3164-0.54688 9.7305-1.6875 1.5312-1.3594 2.2852-4.1523 2.2852-8.4375v-46.941h8.332z" fill="#1e64aa"/>
<path d="m1034.7 1104.5c0-1.1367-0.52734-2.1602-1.5703-3.125-0.80859-0.91406-1.9336-1.375-3.332-1.375-1.3789 0-2.5391 0.46094-3.5234 1.375-0.70703 0.66016-1.1445 1.6992-1.3008 3.125 0 0.71875 0.085938 1.3242 0.28906 1.8359 0.17578 0.50781 0.52734 0.97656 1.0117 1.4141 0.49609 0.4375 1.1172 0.72266 1.8828 0.91406 0.75 0.1875 1.3008 0.28906 1.6406 0.34766 0.76172 0 1.3672-0.089843 1.8281-0.23828 0.46875-0.16016 0.95703-0.48047 1.5039-0.97656 1.043-0.98438 1.5703-2.0742 1.5703-3.2969m6.0117 0.066406c0 1.5195-0.25781 2.8828-0.77734 4.125-0.50781 1.2266-1.3633 2.4414-2.5469 3.6289-1.9375 2.1133-4.5859 3.1836-7.9297 3.1836-3.668 0-6.6055-1.0703-8.8242-3.1992-1.0234-1.125-1.7891-2.3867-2.3086-3.7305-0.50781-1.332-0.75781-2.9062-0.75781-4.6562v-84.188l-11.09 10.703c-1.957-4.3359-3.6602-7.6641-5.1367-10.004-4.293-7.0234-8.9062-11.781-13.859-14.309l7.1602-4.5703c3.543 2.0664 6.9844 5.4961 10.344 10.285 0.48828 0.66016 1.043 1.5195 1.6328 2.5156 0.59766 1.0117 1.332 2.2656 2.1992 3.8281l11.012-10.645c1.7227 0 3.1523 0.77734 4.2773 2.3438 0.55078 0.77734 0.95312 1.6953 1.2578 2.8086 0.30469 1.0508 0.45312 2.2109 0.45312 3.3828v78.688c0.37109-0.16016 0.80469-0.27344 1.3008-0.35938 0.48047-0.070312 1.3711-0.15625 2.6602-0.26172 3.0234 0 5.6016 0.98438 7.7266 2.9375 2.1406 1.9688 3.207 4.457 3.207 7.4922" fill="#1e64aa"/>
<path d="m1061.7 1061.4c0-1.168-0.46875-2.2109-1.4258-3.1367-0.95703-0.9375-2.0859-1.4062-3.3867-1.4062-1.3164 0-2.4922 0.48047-3.5156 1.4531-0.76562 0.64453-1.2305 1.6719-1.3906 3.0898 0 0.69141 0.10156 1.2891 0.29297 1.7812 0.18359 0.49219 0.55078 0.96875 1.0977 1.4883 0.48828 0.33594 0.99609 0.60547 1.5039 0.78516 0.51953 0.17188 1.1875 0.29688 2.0117 0.41797 1.3008 0 2.4297-0.4375 3.3867-1.3008 0.95703-0.85547 1.4258-1.9102 1.4258-3.1719m43.746 53.266h-8.332v-48.215c0-6.1211-2.0664-9.168-6.1914-9.168-1.3008 0-2.2734 1.1289-2.9336 3.3672l-18.082 54.016h-9.1328v-43.57c-0.36719 0.17188-0.80469 0.28906-1.3008 0.35938-0.49219 0.070312-1.3711 0.17578-2.6758 0.27734-2.9961 0-5.6133-0.99609-7.8906-3.0234-0.97656-0.92578-1.7539-2.0117-2.3203-3.2461-0.57422-1.2188-0.85547-2.6211-0.85547-4.1758 0-2.8945 1.0742-5.4414 3.2148-7.6406 2.1602-2.168 4.875-3.2812 8.1875-3.2812 3.6406 0 6.5273 1.1133 8.6367 3.3281 2.2266 2.0234 3.3398 4.7578 3.3398 8.2188v21.777c0 1.0742-0.070312 2.5234-0.22656 4.3281-0.16406 1.8086-0.39844 3.8516-0.69922 6.1328 0 0.91016-0.058594 1.9844-0.17578 3.1562-0.10938 1.1992-0.28906 2.5312-0.51953 3.9609 0.31641-1.4297 0.56641-2.5469 0.72656-3.3242 0.15625-0.76953 0.34766-1.4219 0.55859-1.9375 0.85547-3.5469 1.6367-6.2188 2.3359-8.0312l9.9453-30.477c1.4648-4.7461 4.9375-7.1328 10.461-7.1328 4.3125 0 7.6953 1.1719 10.125 3.5039 1.2422 1.1289 2.1836 2.6016 2.832 4.4141 0.64062 1.8008 0.97266 4.0312 0.97266 6.6641z" fill="#1e64aa"/>
<path d="m1138.3 1061.4c0-1.168-0.47656-2.2109-1.4297-3.1367-0.95703-0.9375-2.082-1.4062-3.4023-1.4062-1.3047 0-2.457 0.48047-3.5039 1.4531-0.76172 0.64453-1.2227 1.6719-1.3828 3.0898 0 0.69141 0.082031 1.2891 0.28906 1.7812 0.16797 0.49219 0.55078 0.96875 1.0938 1.4883 0.49609 0.33594 0.98438 0.60547 1.5117 0.78516 0.51562 0.17188 1.1836 0.29688 1.9922 0.41797 1.3203 0 2.4453-0.4375 3.4023-1.3008 0.95312-0.85547 1.4297-1.9102 1.4297-3.1719m30.32 38.297c0 5.1211-1.1602 8.8906-3.4688 11.34-2.3047 2.4141-6.3867 3.6289-12.238 3.6289h-30.121v-22.445c0-3.2188 0.78516-5.8086 2.3477-7.7773 0.77734-0.83594 2.2383-1.8789 4.3672-3.1836-2.375-0.61719-4.3398-1.668-5.9297-3.1641-1.6094-1.6484-2.4062-3.7148-2.4062-6.207v-10c0-3.4961 1.043-6.3008 3.125-8.3828 2.0977-2.0938 5.0625-3.1406 8.9219-3.1406 3.1641 0 5.8203 1.1133 7.9883 3.3281 2.2305 2.0234 3.3438 4.543 3.3438 7.5938 0 2.8359-1.1289 5.3086-3.3555 7.4219-1.0977 1.0234-2.2266 1.7891-3.4414 2.2852-1.1914 0.51172-2.6055 0.73828-4.2344 0.73828-1.9727 0-3.3047-0.21875-4.0117-0.63672 0 1.7891 0.92578 3.4102 2.8086 4.8633 2.0352 1.3711 4.832 2.0625 8.3555 2.0625h5.0352v6.4961h-5.2227c-6.2305 0-9.3555 2.7031-9.3555 8.1719v15.477h17.18c5.0547 0 8.2773-0.54688 9.6914-1.6875 1.5195-1.3594 2.2852-4.1523 2.2852-8.4375v-46.941h8.3359z" fill="#1e64aa"/>
</svg>
