<svg xmlns="http://www.w3.org/2000/svg" xmlns:xlink="http://www.w3.org/1999/xlink" viewBox="0 0 468.1 583"><defs><style>.cls-1,.cls-12,.cls-6{fill:none;}.cls-2{fill:url(#linear-gradient);}.cls-3{clip-path:url(#clip-path);}.cls-13,.cls-4,.cls-7{fill:#eceaf4;}.cls-10,.cls-11,.cls-12,.cls-4,.cls-6,.cls-7{stroke:#706cab;}.cls-10,.cls-11,.cls-12,.cls-4,.cls-7{stroke-linejoin:round;}.cls-4{stroke-width:6.08px;}.cls-11,.cls-5{fill:#706cab;}.cls-6{stroke-miterlimit:10;stroke-width:4.06px;}.cls-10,.cls-11,.cls-12,.cls-7{stroke-width:4.2px;}.cls-8{opacity:0.05;}.cls-9{fill:#231f20;}.cls-10{fill:#fff;}</style><linearGradient id="linear-gradient" x1="234.05" y1="1.28" x2="234.05" y2="469.38" gradientTransform="matrix(1, 0, 0, -1, 0, 469.38)" gradientUnits="userSpaceOnUse"><stop offset="0" stop-color="#a0a1e3"/><stop offset="1" stop-color="#eceaf4"/></linearGradient><clipPath id="clip-path"><circle class="cls-1" cx="234.05" cy="234.05" r="234.05"/></clipPath></defs><title>Asset 1</title><g id="Layer_2" data-name="Layer 2"><g id="Layer_1-2" data-name="Layer 1"><circle class="cls-2" cx="234.05" cy="234.05" r="234.05"/><g class="cls-3"><path class="cls-4" d="M378.06,285.93V559.68A20.35,20.35,0,0,1,357.77,580H110.32A20.33,20.33,0,0,1,90,559.68V235.15a20.33,20.33,0,0,1,20.28-20.28h197Z"/><path class="cls-5" d="M378.06,285.93H327.6a20.33,20.33,0,0,1-20.28-20.28V214.87Z"/><rect class="cls-5" x="118.68" y="250.4" width="93.6" height="113.42" rx="8.11" ry="8.11"/><rect class="cls-6" x="234.05" y="307.11" width="113.96" height="15.92" rx="7.96" ry="7.96"/><rect class="cls-6" x="234.05" y="343.62" width="113.96" height="15.92" rx="7.96" ry="7.96"/><path class="cls-6" d="M126.87,381H338.36a8.19,8.19,0,0,1,8.19,8.19h0a8.19,8.19,0,0,1-8.19,8.19H126.87a8.19,8.19,0,0,1-8.19-8.19h0A8.19,8.19,0,0,1,126.87,381Z"/><path class="cls-7" d="M412.88,299.72h0c5.92,5.92,4.15,17.38-1.77,23.3l17.7-17.69c5.92-5.93,7.68-17.38,1.76-23.3h0c-5.92-5.92-17.37-4.15-23.29,1.77l-17.69,17.69C395.51,295.57,407,293.8,412.88,299.72Z"/><g class="cls-8"><path class="cls-9" d="M429.17,283.43h0a11.87,11.87,0,0,0-3.8-2.53,19.48,19.48,0,0,1-5,17.42l-6.46,6.46c2.69,6.19.63,14.78-4.23,19.64l17.76-17.69C433.32,300.81,435.09,289.35,429.17,283.43Z"/></g><path class="cls-7" d="M326.88,407.25s6.36-12.2-1.44-20.06-20.06-1.46-20.06-1.46L296,416.67Z"/><path class="cls-10" d="M326,386.63c7.82,7.82,1.46,20.07,1.46,20.07l82.65-82.65c5.92-5.92,7.69-17.38,1.77-23.3h0c-5.92-5.92-17.38-4.15-23.3,1.77l-82.64,82.65S318.15,378.81,326,386.63Z"/><path class="cls-7" d="M326,386.63c7.82,7.82,1.46,20.07,1.46,20.07l82.65-82.65c5.92-5.92,7.69-17.38,1.77-23.3h0c-5.92-5.92-17.38-4.15-23.3,1.77l-82.64,82.65S318.15,378.81,326,386.63Z"/><path class="cls-5" d="M325.44,387.13a12.91,12.91,0,0,1,3.55,6.52l86.2-86.2a12.55,12.55,0,0,0-3.37-6.7h0a12.55,12.55,0,0,0-6.69-3.37l-86.21,86.2A13,13,0,0,1,325.44,387.13Z"/><path class="cls-11" d="M304.13,414.17a4,4,0,1,0-5.7-5.69h0l-2.49,8.19Z"/><line class="cls-12" x1="404.48" y1="286.6" x2="386.79" y2="304.29"/></g><polygon class="cls-13" points="23.19 205.27 42.87 201.93 46.21 182.25 49.55 201.93 69.23 205.27 49.55 208.61 46.21 228.3 42.87 208.61 23.19 205.27"/><polygon class="cls-13" points="351.7 67 380.97 62.04 385.94 32.77 390.91 62.04 420.18 67 390.91 71.97 385.94 101.24 380.97 71.97 351.7 67"/></g></g></svg>