<svg xmlns="http://www.w3.org/2000/svg" xmlns:xlink="http://www.w3.org/1999/xlink" viewBox="0 0 468.1 583"><defs><style>.cls-1{fill:none;}.cls-2{fill:url(#linear-gradient);}.cls-3{clip-path:url(#clip-path);}.cls-4,.cls-6{fill:#eceaf4;}.cls-4{stroke:#706cab;stroke-linejoin:round;stroke-width:6.08px;}.cls-5{fill:#706cab;}</style><linearGradient id="linear-gradient" x1="234.05" y1="1.28" x2="234.05" y2="469.38" gradientTransform="matrix(1, 0, 0, -1, 0, 469.38)" gradientUnits="userSpaceOnUse"><stop offset="0" stop-color="#a0a1e3"/><stop offset="1" stop-color="#eceaf4"/></linearGradient><clipPath id="clip-path"><circle class="cls-1" cx="234.05" cy="234.05" r="234.05"/></clipPath></defs><title>Asset 1</title><g id="Layer_2" data-name="Layer 2"><g id="Layer_1-2" data-name="Layer 1"><circle class="cls-2" cx="234.05" cy="234.05" r="234.05"/><g class="cls-3"><path class="cls-4" d="M378.06,285.93V559.68A20.35,20.35,0,0,1,357.77,580H110.32A20.33,20.33,0,0,1,90,559.68V235.15a20.33,20.33,0,0,1,20.28-20.28h197Z"/><path class="cls-5" d="M378.06,285.93h-50.5a20.33,20.33,0,0,1-20.28-20.28V214.87Z"/><path class="cls-5" d="M344.11,307.11H332.65a7.64,7.64,0,0,1,7.62,7.62v.68a7.64,7.64,0,0,1-7.62,7.62h11.46a8,8,0,0,0,8-8h0A8,8,0,0,0,344.11,307.11Z"/><rect class="cls-5" x="116.41" y="307.11" width="235.66" height="15.92" rx="7.96" ry="7.96"/><path class="cls-5" d="M273.07,274.66h-7.89c2.89,0,5.25,3.43,5.25,7.62V283c0,4.19-2.36,7.62-5.25,7.62h7.89c3,0,5.48-3.58,5.48-7.95h0C278.56,278.24,276.08,274.66,273.07,274.66Z"/><path class="cls-5" d="M273.07,290.57H121.88c-3,0-5.47-3.58-5.47-7.95h0c0-4.38,2.46-8,5.47-8H273.07c3,0,5.48,3.58,5.48,8h0C278.56,287,276.08,290.57,273.07,290.57Z"/><path class="cls-5" d="M344.11,339.56H332.65a7.64,7.64,0,0,1,7.62,7.62v.68a7.64,7.64,0,0,1-7.62,7.62h11.46a8,8,0,0,0,8-8h0A8,8,0,0,0,344.11,339.56Z"/><rect class="cls-5" x="116.41" y="339.56" width="235.66" height="15.92" rx="7.96" ry="7.96"/><path class="cls-5" d="M344.11,372.05H332.65a7.64,7.64,0,0,1,7.62,7.62v.67a7.64,7.64,0,0,1-7.62,7.62h11.46a8,8,0,0,0,8-8h0A8,8,0,0,0,344.11,372.05Z"/><rect class="cls-5" x="116.41" y="372.02" width="235.66" height="15.92" rx="7.96" ry="7.96"/><path class="cls-5" d="M344.11,404.47H332.65a7.64,7.64,0,0,1,7.62,7.62v.67a7.64,7.64,0,0,1-7.62,7.62h11.46a8,8,0,0,0,8-7.95h0A8,8,0,0,0,344.11,404.47Z"/><rect class="cls-5" x="116.41" y="404.47" width="235.66" height="15.92" rx="7.96" ry="7.96"/></g><polygon class="cls-6" points="23.19 205.27 42.87 201.93 46.21 182.25 49.55 201.93 69.23 205.27 49.55 208.61 46.21 228.3 42.87 208.61 23.19 205.27"/><polygon class="cls-6" points="351.7 67 380.97 62.04 385.94 32.77 390.91 62.04 420.18 67 390.91 71.97 385.94 101.24 380.97 71.97 351.7 67"/><polygon class="cls-5" points="322.19 327.15 309.33 309.33 287.86 312.26 316.64 245.89 350.97 260.78 322.19 327.15"/><polygon class="cls-5" points="372.55 327.15 385.41 309.33 406.88 312.26 378.1 245.89 343.77 260.78 372.55 327.15"/><path class="cls-4" d="M405.27,231.36c0,7.46-7,13.49-9.66,20-2.79,6.73-2.23,15.88-7.3,20.95s-14.23,4.52-21,7.31c-6.49,2.69-12.52,9.65-20,9.65s-13.49-7-20-9.65c-6.73-2.79-15.89-2.23-21-7.31s-4.51-14.22-7.3-20.95c-2.69-6.49-9.66-12.52-9.66-20s7-13.49,9.66-20c2.79-6.72,2.23-15.88,7.3-21s14.23-4.52,21-7.31c6.49-2.69,12.52-9.65,20-9.65s13.49,7,20,9.65c6.73,2.79,15.89,2.24,21,7.31s4.51,14.23,7.3,21C398.3,217.87,405.27,223.89,405.27,231.36Z"/><path class="cls-5" d="M392.84,231.36a45.47,45.47,0,1,1-45.47-45.47,45.47,45.47,0,0,1,45.47,45.47Z"/></g></g></svg>