<svg xmlns="http://www.w3.org/2000/svg" xmlns:xlink="http://www.w3.org/1999/xlink" viewBox="0 0 468.2 583.14"><defs><style>.cls-1{fill:none;}.cls-2{fill:url(#linear-gradient);}.cls-3{clip-path:url(#clip-path);}.cls-4,.cls-6{fill:#eceaf4;}.cls-4{stroke:#706cab;stroke-linejoin:round;stroke-width:6.08px;}.cls-5{fill:#706cab;}</style><linearGradient id="linear-gradient" x1="234.1" y1="563.48" x2="234.1" y2="95.28" gradientTransform="translate(0 -95.28)" gradientUnits="userSpaceOnUse"><stop offset="0" stop-color="#a0a1e3"/><stop offset="1" stop-color="#eceaf4"/></linearGradient><clipPath id="clip-path"><circle class="cls-1" cx="234.1" cy="234.1" r="234.1"/></clipPath></defs><title>step4</title><g id="Layer_2" data-name="Layer 2"><g id="Layer_1-2" data-name="Layer 1"><circle class="cls-2" cx="234.1" cy="234.1" r="234.1"/><g class="cls-3"><path class="cls-4" d="M378.1,286V559.8a20.38,20.38,0,0,1-20.3,20.3H110.4a20.38,20.38,0,0,1-20.3-20.3V235.2a20.38,20.38,0,0,1,20.3-20.3h197Z"/><path class="cls-5" d="M378.1,286H327.6a20.38,20.38,0,0,1-20.3-20.3V214.9Z"/><path class="cls-5" d="M344.2,307.2H332.7a7.6,7.6,0,0,1,7.6,7.6v.7a7.6,7.6,0,0,1-7.6,7.6h11.5a8,8,0,0,0,8-8h0A8,8,0,0,0,344.2,307.2Z"/><path class="cls-5" d="M124.4,307.2H344.1a8,8,0,0,1,8,8h0a8,8,0,0,1-8,8H124.4a8,8,0,0,1-8-8h0A8,8,0,0,1,124.4,307.2Z"/><path class="cls-5" d="M273.1,274.7h-7.9c2.9,0,5.2,3.4,5.2,7.6v.7c0,4.2-2.4,7.6-5.2,7.6h7.9c3,0,5.5-3.6,5.5-8h0C278.6,278.3,276.1,274.7,273.1,274.7Z"/><path class="cls-5" d="M273.1,290.6H121.9c-3,0-5.5-3.6-5.5-8h0c0-4.4,2.5-8,5.5-8H273.1c3,0,5.5,3.6,5.5,8h0C278.6,287,276.1,290.6,273.1,290.6Z"/><path class="cls-5" d="M344.2,339.6H332.7a7.6,7.6,0,0,1,7.6,7.6v.7a7.6,7.6,0,0,1-7.6,7.6h11.5a8,8,0,0,0,8-8h0A8,8,0,0,0,344.2,339.6Z"/><path class="cls-5" d="M124.4,339.6H344.1a8,8,0,0,1,8,8h0a8,8,0,0,1-8,8H124.4a8,8,0,0,1-8-8h0A8.09,8.09,0,0,1,124.4,339.6Z"/><path class="cls-5" d="M344.2,372.1H332.7a7.6,7.6,0,0,1,7.6,7.6v.7a7.6,7.6,0,0,1-7.6,7.6h11.5a8,8,0,0,0,8-8h0A8,8,0,0,0,344.2,372.1Z"/><path class="cls-5" d="M124.4,372.1H344.1a8,8,0,0,1,8,8h0a8,8,0,0,1-8,8H124.4a8,8,0,0,1-8-8h0A8,8,0,0,1,124.4,372.1Z"/><path class="cls-5" d="M344.2,404.5H332.7a7.6,7.6,0,0,1,7.6,7.6v.7a7.6,7.6,0,0,1-7.6,7.6h11.5a8,8,0,0,0,8-8h0A8.07,8.07,0,0,0,344.2,404.5Z"/><path class="cls-5" d="M124.4,404.5H344.1a8,8,0,0,1,8,8h0a8,8,0,0,1-8,8H124.4a8,8,0,0,1-8-8h0A8.09,8.09,0,0,1,124.4,404.5Z"/></g><polygon class="cls-6" points="23.3 205.3 42.9 202 46.3 182.3 49.6 202 69.3 205.3 49.6 208.7 46.3 228.3 42.9 208.7 23.3 205.3"/><polygon class="cls-6" points="351.8 67 381 62.1 386 32.8 391 62.1 420.2 67 391 72 386 101.3 381 72 351.8 67"/><polygon class="cls-5" points="322.3 327.2 309.4 309.4 287.9 312.3 316.7 245.9 351 260.8 322.3 327.2"/><polygon class="cls-5" points="372.6 327.2 385.5 309.4 406.9 312.3 378.2 245.9 343.8 260.8 372.6 327.2"/><path class="cls-4" d="M405.3,231.4c0,7.5-7,13.5-9.7,20-2.8,6.7-2.2,15.9-7.3,21s-14.2,4.5-21,7.3c-6.5,2.7-12.5,9.6-20,9.6s-13.5-7-20-9.6c-6.7-2.8-15.9-2.2-21-7.3s-4.5-14.2-7.3-21c-2.7-6.5-9.7-12.5-9.7-20s7-13.5,9.7-20c2.8-6.7,2.2-15.9,7.3-20.9s14.2-4.5,21-7.3c6.5-2.7,12.5-9.6,20-9.6s13.5,7,20,9.6c6.7,2.8,15.9,2.2,21,7.3s4.5,14.2,7.3,20.9C398.4,217.9,405.3,223.9,405.3,231.4Z"/><path class="cls-5" d="M392.9,231.4a45.5,45.5,0,1,1-45.5-45.5,45.54,45.54,0,0,1,45.5,45.5Z"/><g id="_Group_" data-name=" Group "><path id="_Path_" data-name=" Path " class="cls-6" d="M338.1,255.1l-19.2-19.2a6.15,6.15,0,0,1,8.7-8.7l10.5,10.5,28.7-28.4a6.15,6.15,0,0,1,8.7,8.7Z"/></g></g></g></svg>