<?xml version="1.0" encoding="UTF-8" standalone="no"?>
<svg xmlns:dc="http://purl.org/dc/elements/1.1/" xmlns:cc="http://creativecommons.org/ns#" xmlns:rdf="http://www.w3.org/1999/02/22-rdf-syntax-ns#" xmlns:svg="http://www.w3.org/2000/svg" xmlns="http://www.w3.org/2000/svg" viewBox="0 0 1222 403" height="403" width="1222" xml:space="preserve" id="svg815" version="1.1"><metadata id="metadata821"><rdf:RDF><cc:Work rdf:about=""><dc:format>image/svg+xml</dc:format><dc:type rdf:resource="http://purl.org/dc/dcmitype/StillImage" /><dc:title></dc:title></cc:Work></rdf:RDF></metadata><defs id="defs819"><clipPath id="clipPath831" clipPathUnits="userSpaceOnUse"><path id="path829" d="M 0,960 H 1600 V 0 H 0 Z" /></clipPath><clipPath id="clipPath843" clipPathUnits="userSpaceOnUse"><path id="path841" d="m 270,470 c -10,0 -10,-10 -10,-10 v 0 -290 c 0,0 0,-10 10,-10 v 0 h 930 c 0,0 0,10 0,10 v 0 290 c 0,0 0,10 0,10 v 0 z" /></clipPath><clipPath id="clipPath851" clipPathUnits="userSpaceOnUse"><path id="path849" d="M 0,960 H 1600 V 0 H 0 Z" /></clipPath></defs><g transform="matrix(1.3,0,0,-1.3,0,400)" id="g823"><g style="display:inline" transform="matrix(0.96,0,0,1,-220,-160)" id="g825"><g clip-path="url(#clipPath831)" id="g827"><g transform="translate(1200,160)" id="g833"><path id="path835" style="fill:#f7f6fb;fill-opacity:1;fill-rule:nonzero;stroke:none" d="m 0,0 h -960 c 0,0 -10,5.5 -10,12 v 278 c 0,10 10,20 10,20 H 0 c 6.7,0 12,-10 12,-20 V 12 C 12,5.5 6.7,0 0,0" /></g></g></g><g style="display:inline" transform="translate(-260,-160)" id="g837"><g clip-path="url(#clipPath843)" id="g839"><g id="g845"><g id="g847" /><g id="g859"><g style="opacity:0.4" id="g857" clip-path="url(#clipPath851)"><g id="g855" transform="translate(16,550)"><path id="path853" style="fill:#eceaf4;fill-opacity:1;fill-rule:nonzero;stroke:none" d="m 0,0 c 89,-390 510,-620 940,-520 360,70 560,320 660,611 C 1500,-120 1300,-290 1000,-350 570,-450 140,-220 55,170 23,310 39,410 39,410 -18,280 -31,140 0,0" /></g></g></g></g></g></g></g></svg>