<svg id="Layer_1" data-name="Layer 1" xmlns="http://www.w3.org/2000/svg" xmlns:xlink="http://www.w3.org/1999/xlink" viewBox="0 0 1000 1000"><defs><style>.cls-1{fill:url(#linear-gradient);}.cls-2,.cls-7{fill:#eceaf4;}.cls-2{opacity:0.7;}.cls-3{fill:#706cab;}.cls-4{fill:#f7c778;}.cls-5{fill:#fff;}.cls-6{fill:#a0a1e3;}.cls-8{fill:#231f20;opacity:0.1;}</style><linearGradient id="linear-gradient" x1="506.57" y1="778.96" x2="506.57" y2="137.47" gradientUnits="userSpaceOnUse"><stop offset="0" stop-color="#a0a1e3"/><stop offset="1" stop-color="#eceaf4"/></linearGradient></defs><title>Artboard 3</title><path class="cls-1" d="M668.3,144.82c-148-53.5-503.47,197.08-498.18,368.73s510,346.58,622.19,224.83S816.35,198.31,668.3,144.82Z"/><path class="cls-2" d="M704.13,165.54c105.93,128,153.64,441.19,59.11,543.77-87.59,95.06-414.51,9.25-556.12-114.65C326.34,733.42,698,840.72,792.31,738.38,895.1,626.83,829.7,266.27,704.13,165.54Z"/><path class="cls-3" d="M882.46,534.08a3.51,3.51,0,0,1-3.5-3.5V504.07a3.5,3.5,0,0,1,6-2.47l13.25,13.25a3.49,3.49,0,0,1,0,4.95l-13.25,13.25A3.51,3.51,0,0,1,882.46,534.08Zm3.5-21.56v9.61l4.81-4.81Z"/><polygon class="cls-4" points="879.32 634.81 893.34 632.43 895.72 618.41 898.1 632.43 912.12 634.81 898.1 637.19 895.72 651.21 893.34 637.19 879.32 634.81"/><rect class="cls-5" x="248.68" y="261.2" width="561.92" height="411.31" rx="26.3" ry="26.3"/><path class="cls-3" d="M784.29,676H275a29.84,29.84,0,0,1-29.8-29.8V287.5A29.84,29.84,0,0,1,275,257.7H784.29a29.84,29.84,0,0,1,29.8,29.8V646.2A29.84,29.84,0,0,1,784.29,676ZM275,264.7a22.82,22.82,0,0,0-22.8,22.8V646.2A22.83,22.83,0,0,0,275,669H784.29a22.83,22.83,0,0,0,22.8-22.8V287.5a22.82,22.82,0,0,0-22.8-22.8Z"/><path class="cls-6" d="M785.49,261.2H273.78c-13.81,0-25.1,12.4-25.1,27.56v34.83H810.59V288.76C810.59,273.6,799.3,261.2,785.49,261.2Z"/><path class="cls-3" d="M814.09,327.09H245.18V288.76c0-17.13,12.83-31.06,28.6-31.06H785.49c15.77,0,28.6,13.93,28.6,31.06Zm-561.91-7H807.09V288.76c0-13.27-9.69-24.06-21.6-24.06H273.78c-11.91,0-21.6,10.79-21.6,24.06Z"/><circle class="cls-3" cx="283.71" cy="292.63" r="10.14"/><circle class="cls-3" cx="316.84" cy="292.63" r="10.14"/><circle class="cls-3" cx="349.97" cy="292.63" r="10.14"/><path class="cls-7" d="M794,323.59V629.64a26.39,26.39,0,0,1-26.31,26.3H258.41a25.87,25.87,0,0,1-8.34-1.39,26.38,26.38,0,0,0,24.91,18H784.29a26.37,26.37,0,0,0,26.3-26.3V323.59Z"/><path class="cls-8" d="M794,323.59h16.56V287.5a26.38,26.38,0,0,0-18-24.91,26.14,26.14,0,0,1,1.39,8.34Z"/><rect class="cls-3" x="248.68" y="320.09" width="561.92" height="7"/><path class="cls-3" d="M784.29,676H275a29.84,29.84,0,0,1-29.8-29.8V287.5A29.84,29.84,0,0,1,275,257.7H784.29a29.84,29.84,0,0,1,29.8,29.8V646.2A29.84,29.84,0,0,1,784.29,676ZM275,264.7a22.82,22.82,0,0,0-22.8,22.8V646.2A22.83,22.83,0,0,0,275,669H784.29a22.83,22.83,0,0,0,22.8-22.8V287.5a22.82,22.82,0,0,0-22.8-22.8Z"/><path class="cls-7" d="M491.37,360.66H472.82A12.37,12.37,0,0,1,485.15,373v1.09a12.37,12.37,0,0,1-12.33,12.33h18.55a12.92,12.92,0,0,0,12.88-12.88h0A12.92,12.92,0,0,0,491.37,360.66Z"/><path class="cls-3" d="M491.37,389.92H286.74a16.38,16.38,0,0,1,0-32.76H491.37a16.38,16.38,0,0,1,0,32.76ZM286.74,364.16a9.38,9.38,0,0,0,0,18.76H491.37a9.38,9.38,0,0,0,0-18.76Z"/><path class="cls-7" d="M491.37,410.36H472.82a12.37,12.37,0,0,1,12.33,12.33v1.1a12.37,12.37,0,0,1-12.33,12.33h18.55a12.92,12.92,0,0,0,12.88-12.88h0A12.92,12.92,0,0,0,491.37,410.36Z"/><path class="cls-3" d="M491.37,439.62H286.74a16.38,16.38,0,0,1,0-32.76H491.37a16.38,16.38,0,0,1,0,32.76ZM286.74,413.86a9.38,9.38,0,0,0,0,18.76H491.37a9.38,9.38,0,0,0,0-18.76Z"/><path class="cls-7" d="M533.8,460.06H515.25a12.37,12.37,0,0,1,12.33,12.33v1.09a12.37,12.37,0,0,1-12.33,12.34H533.8a12.92,12.92,0,0,0,12.88-12.88h0A12.92,12.92,0,0,0,533.8,460.06Z"/><path class="cls-3" d="M533.8,489.32H286.74a16.38,16.38,0,0,1,0-32.76H533.8a16.38,16.38,0,0,1,0,32.76ZM286.74,463.56a9.38,9.38,0,0,0,0,18.76H533.8a9.38,9.38,0,0,0,0-18.76Z"/><path class="cls-7" d="M533.8,509.76H515.25a12.37,12.37,0,0,1,12.33,12.33v1.09a12.37,12.37,0,0,1-12.33,12.34H533.8a12.92,12.92,0,0,0,12.88-12.88h0A12.92,12.92,0,0,0,533.8,509.76Z"/><path class="cls-3" d="M533.8,539H286.74a16.38,16.38,0,0,1,0-32.75H533.8a16.38,16.38,0,1,1,0,32.75ZM286.74,513.26a9.38,9.38,0,0,0,0,18.75H533.8a9.38,9.38,0,1,0,0-18.75Z"/><path class="cls-5" d="M864.34,401.05c0-59.58-53.58-107.88-119.67-107.88S625,341.47,625,401.05s53.58,107.89,119.67,107.89a127.58,127.58,0,0,0,74.22-23.29l0,.05,34.67,10.78-8.69-36.43A100,100,0,0,0,864.34,401.05Z"/><path class="cls-3" d="M744.67,512.44c-67.92,0-123.17-50-123.17-111.39s55.25-111.38,123.17-111.38,123.17,50,123.17,111.38a103.34,103.34,0,0,1-19.23,59.74l8.32,34.88a3.5,3.5,0,0,1-4.44,4.16l-33-10.29C797.8,504.53,772,512.44,744.67,512.44Zm0-215.77c-64.06,0-116.17,46.83-116.17,104.38s52.11,104.39,116.17,104.39c26.48,0,51.45-7.83,72.19-22.64a3.47,3.47,0,0,1,3.65-.25l28.19,8.77-7.27-30.46A3.51,3.51,0,0,1,842,458a96.59,96.59,0,0,0,18.83-56.95C860.84,343.5,808.72,296.67,744.67,296.67Z"/><path class="cls-7" d="M864.34,401.05c0-59.58-53.58-107.88-119.67-107.88-50.84,0-94.25,28.6-111.59,68.91,21.67-27.65,57.37-45.72,97.78-45.72,66.09,0,119.67,48.3,119.67,107.89,0,21.78-5.69,35.8-5.69,35.8A100,100,0,0,0,864.34,401.05Z"/><path class="cls-3" d="M744.67,512.44c-67.92,0-123.17-50-123.17-111.39s55.25-111.38,123.17-111.38,123.17,50,123.17,111.38a103.34,103.34,0,0,1-19.23,59.74l8.32,34.88a3.5,3.5,0,0,1-4.44,4.16l-33-10.29C797.8,504.53,772,512.44,744.67,512.44Zm0-215.77c-64.06,0-116.17,46.83-116.17,104.38s52.11,104.39,116.17,104.39c26.48,0,51.45-7.83,72.19-22.64a3.47,3.47,0,0,1,3.65-.25l28.19,8.77-7.27-30.46A3.51,3.51,0,0,1,842,458a96.59,96.59,0,0,0,18.83-56.95C860.84,343.5,808.72,296.67,744.67,296.67Z"/><path class="cls-4" d="M745.72,369.5s12.16-18.54,31.14-19.83c23.77-1.61,40.14,15,41.68,34.16,1.52,18.89-11.46,36.21-22,48-14.31,16.06-36.06,32.54-48.81,40.25-13-7.2-35.43-22.8-50.37-38.28-11-11.38-24.64-28.19-23.87-47.12.78-19.17,16.47-36.46,40.29-35.78C732.83,351.46,745.72,369.5,745.72,369.5Z"/><path class="cls-3" d="M747.76,475.61a3.49,3.49,0,0,1-1.69-.44c-14.51-8-36.75-23.94-51.2-38.91-11.07-11.48-25.68-29.12-24.84-49.69.78-19.55,16.41-39.91,43.88-39.14,15.2.43,26.58,10.78,31.7,16.44,4.88-5.86,15.85-16.66,31-17.69C804,344.32,820.46,364,822,383.54c1.65,20.53-12.25,38.74-22.85,50.65-13.86,15.55-35.45,32.35-49.61,40.91A3.5,3.5,0,0,1,747.76,475.61Zm-35.33-121.2c-22.16,0-34.77,16.54-35.41,32.44-.73,17.9,12.71,34,22.89,44.55,14.83,15.37,36,29.86,47.77,36.64,13.69-8.55,33.43-24.09,46.27-38.51,9.75-10.95,22.54-27.57,21.1-45.42-1.3-16.17-15-32.5-37.95-30.95-17.05,1.16-28.34,18.09-28.45,18.26a3.51,3.51,0,0,1-5.78.12c-.17-.24-12.19-16.63-29.16-17.11Z"/><path class="cls-8" d="M705.73,362.35c19,.53,31.92,18.57,31.92,18.57s12.16-18.54,31.14-19.83c23.77-1.62,40.14,15,41.68,34.15.87,10.88-3.06,21.22-8.56,30.31,9.07-11.29,17.9-26,16.63-41.72-1.54-19.12-17.91-35.77-41.68-34.16-19,1.29-31.14,19.83-31.14,19.83s-12.89-18-31.91-18.57c-17.87-.51-31.17,9.1-37,22C683.79,366.23,693.73,362,705.73,362.35Z"/><path class="cls-7" d="M189.15,412.37,342.69,366A16.61,16.61,0,0,1,363.34,377l75,248.22a16.62,16.62,0,0,1-11.07,20.65L231.55,705.06A16.61,16.61,0,0,1,210.9,694L148.64,488Z"/><path class="cls-3" d="M226.77,709.27A20.1,20.1,0,0,1,207.55,695L145.29,489a3.5,3.5,0,0,1,.27-2.67l40.51-75.6a3.49,3.49,0,0,1,2.07-1.69l153.53-46.4a20.12,20.12,0,0,1,25,13.4l75,248.23a20.12,20.12,0,0,1-13.4,25L232.56,708.41A20,20,0,0,1,226.77,709.27ZM152.41,488.34,214.25,693a13.12,13.12,0,0,0,16.29,8.73l195.73-59.15A13.08,13.08,0,0,0,435,626.27L360,378.05a13.12,13.12,0,0,0-16.29-8.73l-152.15,46Z"/><path class="cls-8" d="M438.35,625.26,363.34,377a16.63,16.63,0,0,0-16.43-11.75,17,17,0,0,1,1.52,3.46l77.4,256.16a8.3,8.3,0,0,1-5.53,10.32L216.64,696.78a16.29,16.29,0,0,1-4.23.67,16.63,16.63,0,0,0,19.14,7.61l195.73-59.15A16.62,16.62,0,0,0,438.35,625.26Z"/><path class="cls-6" d="M189.15,412.37l12.75,42.19a16.6,16.6,0,0,1-11.06,20.65L148.64,488Z"/><path class="cls-3" d="M148.64,491.46a3.49,3.49,0,0,1-3.08-5.15l40.51-75.6a3.5,3.5,0,0,1,6.43.64l12.75,42.2a20.12,20.12,0,0,1-13.4,25l-42.2,12.76A3.47,3.47,0,0,1,148.64,491.46Zm39.6-70-32.52,60.7,34.1-10.31a13.11,13.11,0,0,0,8.73-16.28Z"/><rect class="cls-5" x="183.66" y="476.17" width="174.86" height="12.65" transform="translate(-127.98 99.05) rotate(-16.81)"/><path class="cls-3" d="M189.23,517.34a3.49,3.49,0,0,1-3.35-2.49l-3.66-12.1a3.5,3.5,0,0,1,2.34-4.37L352,447.8a3.47,3.47,0,0,1,2.66.26,3.52,3.52,0,0,1,1.7,2.08L360,462.25a3.5,3.5,0,0,1-2.34,4.36L190.24,517.19A3.48,3.48,0,0,1,189.23,517.34Zm.71-13.27,1.63,5.41,160.69-48.56-1.64-5.41Z"/><rect class="cls-5" x="193.25" y="507.89" width="174.86" height="12.65" transform="translate(-136.75 103.18) rotate(-16.81)"/><path class="cls-3" d="M198.82,549.06a3.49,3.49,0,0,1-3.35-2.49l-3.66-12.11a3.5,3.5,0,0,1,.26-2.67,3.54,3.54,0,0,1,2.08-1.69l167.38-50.59a3.5,3.5,0,0,1,4.36,2.34L369.55,494a3.5,3.5,0,0,1-2.33,4.37L199.83,548.91A3.58,3.58,0,0,1,198.82,549.06Zm.7-13.27,1.63,5.4,160.69-48.55-1.63-5.41Z"/><rect class="cls-5" x="202.83" y="539.6" width="174.86" height="12.65" transform="translate(-145.51 107.31) rotate(-16.81)"/><path class="cls-3" d="M208.4,580.77a3.49,3.49,0,0,1-3.35-2.48l-3.66-12.11a3.51,3.51,0,0,1,2.34-4.37l167.39-50.58a3.51,3.51,0,0,1,4.36,2.34l3.66,12.11A3.5,3.5,0,0,1,376.8,530L209.41,580.62A3.48,3.48,0,0,1,208.4,580.77Zm.7-13.27,1.64,5.41,160.68-48.56-1.63-5.41Z"/><rect class="cls-5" x="212.42" y="571.32" width="174.86" height="12.65" transform="translate(-154.28 111.43) rotate(-16.81)"/><path class="cls-3" d="M218,612.49a3.51,3.51,0,0,1-3.35-2.49L211,597.89a3.49,3.49,0,0,1,2.33-4.36L380.7,543a3.5,3.5,0,0,1,2.67.26,3.55,3.55,0,0,1,1.69,2.07l3.66,12.11a3.51,3.51,0,0,1-2.34,4.37L219,612.34A3.6,3.6,0,0,1,218,612.49Zm.71-13.27,1.63,5.41L381,556.07l-1.63-5.41Z"/><rect class="cls-5" x="222.91" y="609.15" width="132.57" height="12.65" transform="translate(-165.68 109.97) rotate(-16.81)"/><path class="cls-3" d="M227.57,644.21a3.43,3.43,0,0,1-1.65-.42,3.5,3.5,0,0,1-1.7-2.07l-3.66-12.11a3.51,3.51,0,0,1,2.34-4.37L349.8,586.9a3.5,3.5,0,0,1,4.36,2.34l3.66,12.1a3.52,3.52,0,0,1-2.34,4.37l-126.9,38.35A3.48,3.48,0,0,1,227.57,644.21Zm.7-13.28,1.64,5.41L350.1,600l-1.63-5.41Z"/><path class="cls-6" d="M699.42,680.25c15.34-13.12,32.46-28.9,50.09-46.39,54-53.63,92.2-102.8,85.23-109.82s-56.42,30.77-110.47,84.39c-17.62,17.49-33.54,34.5-46.77,49.73Z"/><path class="cls-3" d="M699.42,683.75a3.48,3.48,0,0,1-2.48-1L675,660.62a3.5,3.5,0,0,1-.16-4.76c13.68-15.75,29.92-33,46.95-49.91,26.24-26,52.25-49.21,73.23-65.24,30.66-23.42,38.53-22.81,42.19-19.13s4.2,11.56-19.46,42c-16.19,20.86-39.56,46.68-65.8,72.72-17,16.9-34.41,33-50.27,46.57A3.52,3.52,0,0,1,699.42,683.75ZM682.28,658l17.33,17.47c15.06-13,31.4-28.19,47.43-44.09,60.91-60.45,85.28-97.75,85.07-104.72-7-.29-44.45,23.81-105.37,84.26C710.71,626.83,695.39,643.05,682.28,658Z"/><path class="cls-8" d="M834.74,524c-1.45-1.46-4.76-.95-9.54,1.2-8.35,18.16-41.16,57.81-84,100.29-17.63,17.49-34.75,33.27-50.09,46.38l8.27,8.34c15.34-13.12,32.46-28.9,50.09-46.39C803.55,580.23,841.71,531.06,834.74,524Z"/><polygon class="cls-4" points="677.5 658.16 699.42 680.25 673.57 697.64 659.92 683.88 677.5 658.16"/><path class="cls-3" d="M673.57,701.14a3.48,3.48,0,0,1-2.49-1l-13.65-13.75a3.51,3.51,0,0,1-.4-4.45l17.58-25.72a3.51,3.51,0,0,1,5.38-.49l21.92,22.09a3.5,3.5,0,0,1-.53,5.37l-25.86,17.39A3.47,3.47,0,0,1,673.57,701.14Zm-9.13-17.67,9.58,9.65L694,679.71l-16-16.08Z"/><rect class="cls-6" x="659.73" y="683.96" width="8.2" height="19.38" transform="translate(-295.96 668.88) rotate(-44.78)"/><path class="cls-3" d="M667.75,706.91a3.5,3.5,0,0,1-2.49-1l-13.65-13.76a3.5,3.5,0,0,1,0-5l5.82-5.77a3.51,3.51,0,0,1,2.47-1h0a3.47,3.47,0,0,1,2.47,1l13.65,13.75a3.49,3.49,0,0,1,0,5l-5.82,5.78A3.5,3.5,0,0,1,667.75,706.91Zm-8.7-17.24,8.72,8.79.85-.84-8.72-8.79Z"/><path class="cls-7" d="M637,719.17a2.93,2.93,0,1,1,4.6.63,2.9,2.9,0,0,1-3.53.44l-7.61,7.56c5.46-1,26.41-5.36,32.26-11.16,6.74-6.7,5-13.23,5-13.23l-6.83-6.88-6.82-6.87s-6.52-1.81-13.27,4.89c-5.85,5.8-10.32,26.72-11.4,32.17Z"/><path class="cls-3" d="M630.49,731.29A5.58,5.58,0,0,1,626,726c1.61-8.13,6-27.71,12.37-34,8.09-8,16.32-5.87,16.66-5.78a3.49,3.49,0,0,1,1.55.91L670.23,701a3.53,3.53,0,0,1,.9,1.55c.09.35,2.19,8.59-5.91,16.62-6.31,6.27-25.93,10.56-34.07,12.11A3.68,3.68,0,0,1,630.49,731.29Zm9.09-20a6.43,6.43,0,0,1,5.69,9.43c6.79-2,12.7-4.25,15-6.56,3.92-3.89,4.24-7.53,4.16-9.09l-12-12.12c-1.52-.09-5.18.18-9.12,4.09-2.32,2.31-4.67,8.2-6.68,15A6.43,6.43,0,0,1,639.58,711.28Z"/><path class="cls-3" d="M699.42,683.75a3.48,3.48,0,0,1-2.48-1L675,660.62a3.5,3.5,0,0,1-.16-4.76c13.68-15.75,29.92-33,46.95-49.91,26.24-26,52.25-49.21,73.23-65.24,30.66-23.42,38.53-22.81,42.19-19.13s4.2,11.56-19.46,42c-16.19,20.86-39.56,46.68-65.8,72.72-17,16.9-34.41,33-50.27,46.57A3.52,3.52,0,0,1,699.42,683.75ZM682.28,658l17.33,17.47c15.06-13,31.4-28.19,47.43-44.09,60.91-60.45,85.28-97.75,85.07-104.72-7-.29-44.45,23.81-105.37,84.26C710.71,626.83,695.39,643.05,682.28,658Z"/><path class="cls-3" d="M107,338.51a15.93,15.93,0,1,1,15.93-15.92A15.94,15.94,0,0,1,107,338.51Zm0-24.85a8.93,8.93,0,1,0,8.93,8.93A8.94,8.94,0,0,0,107,313.66Z"/><path class="cls-3" d="M140.31,452.13a3.44,3.44,0,0,1-1.33-.27,3.5,3.5,0,0,1-2.16-3.23V422.12a3.5,3.5,0,0,1,6-2.47L156,432.9a3.49,3.49,0,0,1,0,5L142.79,451.1A3.5,3.5,0,0,1,140.31,452.13Zm3.51-21.56v9.61l4.8-4.81Z"/><polygon class="cls-4" points="166.9 306.19 180.93 303.81 183.31 289.79 185.69 303.81 199.71 306.19 185.69 308.57 183.31 322.59 180.93 308.57 166.9 306.19"/><path class="cls-3" d="M917.44,587.37a15.93,15.93,0,1,1,15.93-15.93A15.94,15.94,0,0,1,917.44,587.37Zm0-24.85a8.93,8.93,0,1,0,8.93,8.92A8.93,8.93,0,0,0,917.44,562.52Z"/><polygon class="cls-4" points="310.58 727.79 324.6 725.42 326.98 711.39 329.36 725.42 343.38 727.79 329.36 730.17 326.98 744.2 324.6 730.17 310.58 727.79"/></svg>