<svg id="Layer_1" data-name="Layer 1" xmlns="http://www.w3.org/2000/svg" xmlns:xlink="http://www.w3.org/1999/xlink" viewBox="0 0 1000 1000"><defs><style>.cls-1{fill:url(#linear-gradient);}.cls-2,.cls-7{fill:#eceaf4;}.cls-2{opacity:0.7;}.cls-3{fill:#fff;}.cls-4{fill:#706cab;}.cls-5{fill:#a0a1e3;}.cls-6{fill:#f7c778;}.cls-10,.cls-8{fill:#231f20;}.cls-8,.cls-9{opacity:0.1;}</style><linearGradient id="linear-gradient" x1="502.99" y1="812.18" x2="502.99" y2="172.97" gradientTransform="translate(-135.61 788.92) rotate(-69.29)" gradientUnits="userSpaceOnUse"><stop offset="0" stop-color="#a0a1e3"/><stop offset="1" stop-color="#eceaf4"/></linearGradient></defs><title>Artboard 1</title><rect class="cls-1" x="219.3" y="208.88" width="567.38" height="567.38" rx="159.24" ry="159.24" transform="translate(785.91 -152.09) rotate(69.29)"/><path class="cls-2" d="M812.36,508.68l-88-232.83a158.47,158.47,0,0,0-74.89-84.44,157.91,157.91,0,0,1,46.95,65.81l88,232.83c31,81.93-10.72,174.29-92.65,205.25l-232.83,88a158.92,158.92,0,0,1-130.35-8.21c42.73,35.49,102.9,47.78,158.3,26.84l232.83-88C801.64,683,843.33,590.61,812.36,508.68Z"/><rect class="cls-3" x="219.57" y="271.73" width="564.35" height="413.09" rx="26.42" ry="26.42"/><path class="cls-4" d="M757.51,688.32H246a30,30,0,0,1-29.92-29.92V298.14A30,30,0,0,1,246,268.23H757.51a30,30,0,0,1,29.91,29.91V658.4A30,30,0,0,1,757.51,688.32ZM246,275.23a22.94,22.94,0,0,0-22.92,22.91V658.4A22.94,22.94,0,0,0,246,681.32H757.51a22.94,22.94,0,0,0,22.91-22.92V298.14a22.94,22.94,0,0,0-22.91-22.91Z"/><path class="cls-5" d="M758.71,271.73H244.78c-13.87,0-25.21,12.45-25.21,27.68v35H783.92v-35C783.92,284.18,772.58,271.73,758.71,271.73Z"/><path class="cls-4" d="M787.42,337.89H216.07V299.41c0-17.2,12.88-31.18,28.71-31.18H758.71c15.83,0,28.71,14,28.71,31.18Zm-564.35-7H780.42V299.41c0-13.34-9.74-24.18-21.71-24.18H244.78c-12,0-21.71,10.84-21.71,24.18Z"/><path class="cls-6" d="M220.49,334.39V564.12A50.06,50.06,0,0,0,270.4,614h3.25c27.45,0,87.57-91.84,87.57-82.68v-8.48a33.37,33.37,0,0,0,33.28,33.27h.87a33.37,33.37,0,0,0,33.27-33.27V422.35a15.84,15.84,0,0,1,15.79-15.79h0a15.84,15.84,0,0,1,15.8,15.79v53.87a21.84,21.84,0,1,0,43.67,0V334.39Z"/><path class="cls-4" d="M273.65,617.53H270.4A53.47,53.47,0,0,1,217,564.12V334.39a3.49,3.49,0,0,1,3.5-3.5H503.9a3.5,3.5,0,0,1,3.5,3.5V476.22a25.34,25.34,0,1,1-50.67,0V422.35a12.3,12.3,0,0,0-24.59,0V522.87a36.82,36.82,0,0,1-36.77,36.77h-.87a36.84,36.84,0,0,1-34.45-23.89c-3,3.16-8.3,9.72-13.49,16.13C319.65,585.1,291.86,617.53,273.65,617.53ZM224,337.89V564.12a46.46,46.46,0,0,0,46.41,46.41h3.25c16.39,0,49.62-41,67.47-63.06,9.33-11.51,13.76-16.9,16.6-19.08v-5.52a3.5,3.5,0,0,1,7,0,29.81,29.81,0,0,0,29.78,29.77h.87a29.81,29.81,0,0,0,29.77-29.77V422.35a19.3,19.3,0,0,1,38.59,0v53.87a18.34,18.34,0,1,0,36.67,0V337.89ZM357.72,531.35Z"/><rect class="cls-7" x="626.06" y="418.12" width="132.02" height="25.87" rx="12.93" ry="12.93"/><path class="cls-4" d="M745.14,447.49H639a16.44,16.44,0,0,1,0-32.87H745.14a16.44,16.44,0,0,1,0,32.87ZM639,421.62a9.44,9.44,0,0,0,0,18.87H745.14a9.44,9.44,0,0,0,0-18.87Z"/><rect class="cls-7" x="626.06" y="468.04" width="132.02" height="25.87" rx="12.93" ry="12.93"/><path class="cls-4" d="M745.14,497.41H639a16.44,16.44,0,0,1,0-32.87H745.14a16.44,16.44,0,0,1,0,32.87ZM639,471.54a9.44,9.44,0,0,0,0,18.87H745.14a9.44,9.44,0,0,0,0-18.87Z"/><circle class="cls-4" cx="254.75" cy="303.3" r="10.18"/><circle class="cls-4" cx="288.03" cy="303.3" r="10.18"/><circle class="cls-4" cx="321.31" cy="303.3" r="10.18"/><rect class="cls-7" x="526.69" y="368.21" width="231.38" height="25.87" rx="12.93" ry="12.93"/><path class="cls-4" d="M745.14,397.58H539.63a16.44,16.44,0,1,1,0-32.87H745.14a16.44,16.44,0,0,1,0,32.87ZM539.63,371.71a9.44,9.44,0,1,0,0,18.87H745.14a9.44,9.44,0,0,0,0-18.87Z"/><path class="cls-7" d="M767.28,334.39V641.76a26.49,26.49,0,0,1-26.41,26.42H229.35a26.23,26.23,0,0,1-8.39-1.4,26.52,26.52,0,0,0,25,18H757.51a26.5,26.5,0,0,0,26.41-26.42v-324Z"/><path class="cls-8" d="M767.28,334.39h16.64V298.14a26.5,26.5,0,0,0-18-25,26.16,26.16,0,0,1,1.39,8.38Z"/><rect class="cls-4" x="219.57" y="330.89" width="564.35" height="7"/><path class="cls-4" d="M757.51,688.32H246a30,30,0,0,1-29.92-29.92V298.14A30,30,0,0,1,246,268.23H757.51a30,30,0,0,1,29.91,29.91V658.4A30,30,0,0,1,757.51,688.32ZM246,275.23a22.94,22.94,0,0,0-22.92,22.91V658.4A22.94,22.94,0,0,0,246,681.32H757.51a22.94,22.94,0,0,0,22.91-22.92V298.14a22.94,22.94,0,0,0-22.91-22.91Z"/><rect class="cls-7" x="207.94" y="468.62" width="161.37" height="132" transform="translate(462.58 -47.5) rotate(45)"/><path class="cls-4" d="M299,641.85a3.53,3.53,0,0,1-2.47-1L182.43,526.72a3.5,3.5,0,0,1-1-2.48,3.45,3.45,0,0,1,1-2.47l93.34-93.34a3.49,3.49,0,0,1,5,0l114.11,114.1a3.49,3.49,0,0,1,0,5l-93.34,93.35A3.54,3.54,0,0,1,299,641.85ZM189.85,524.24,299,633.4,387.41,545,278.25,435.85Z"/><rect class="cls-6" x="144.23" y="574.24" width="161.37" height="48.19" transform="translate(488.96 16.21) rotate(45)"/><path class="cls-4" d="M264.94,675.93a3.48,3.48,0,0,1-2.48-1L148.35,560.79a3.51,3.51,0,0,1,0-4.95l34.08-34.07a3.49,3.49,0,0,1,4.95,0L301.49,635.88a3.49,3.49,0,0,1,0,5L267.41,674.9A3.46,3.46,0,0,1,264.94,675.93ZM155.78,558.32,264.94,667.48l29.12-29.13L184.91,529.19Z"/><polygon class="cls-8" points="278.25 430.9 278.25 430.9 373.72 526.38 280.38 619.72 184.91 524.24 184.91 524.24 299.01 638.35 392.36 545.01 278.25 430.9"/><rect class="cls-8" x="248.56" y="632.9" width="48.19" height="26.35" transform="translate(-376.98 382.03) rotate(-45)"/><path class="cls-5" d="M94.06,729.19h0a24.91,24.91,0,0,1,0-35.11l73.58-73.58c9.66-9.65-16.81-62.18-16.81-62.18L264.94,672.43S212.41,646,202.75,655.61l-73.58,73.58A24.89,24.89,0,0,1,94.06,729.19Z"/><path class="cls-4" d="M111.62,739.93a28.32,28.32,0,0,1-20-48.32L165.17,618c3.79-3.8-2.32-28.06-17.47-58.14a3.5,3.5,0,0,1,5.6-4L267.41,670a3.5,3.5,0,0,1-4.05,5.6c-30.07-15.15-54.34-21.26-58.13-17.46l-73.58,73.58A28.13,28.13,0,0,1,111.62,739.93Zm50.5-165.37c1.33,3.15,2.7,6.53,4,10,10.41,27.59,7.26,35.14,4,38.42L96.54,696.56a21.33,21.33,0,0,0,30.16,30.16l73.58-73.58c3.27-3.28,10.82-6.43,38.42,4,3.47,1.3,6.85,2.67,10,4Z"/><line class="cls-3" x1="335.3" y1="487.95" x2="301.43" y2="521.82"/><path class="cls-4" d="M301.43,525.32a3.5,3.5,0,0,1-2.47-6l33.87-33.87a3.5,3.5,0,0,1,4.95,4.95L303.91,524.3A3.51,3.51,0,0,1,301.43,525.32Z"/><line class="cls-3" x1="289.12" y1="509.51" x2="322.98" y2="475.64"/><path class="cls-4" d="M289.12,513a3.51,3.51,0,0,1-2.48-6l33.87-33.87a3.5,3.5,0,1,1,4.95,4.95L291.59,512A3.46,3.46,0,0,1,289.12,513Z"/><line class="cls-3" x1="359.93" y1="512.59" x2="326.07" y2="546.46"/><path class="cls-4" d="M326.07,550a3.51,3.51,0,0,1-2.48-6l33.87-33.87a3.5,3.5,0,0,1,5,4.95l-33.87,33.87A3.5,3.5,0,0,1,326.07,550Z"/><line class="cls-3" x1="347.62" y1="500.27" x2="313.75" y2="534.14"/><path class="cls-4" d="M313.75,537.64a3.5,3.5,0,0,1-2.48-6l33.87-33.87a3.5,3.5,0,1,1,4.95,4.95l-33.87,33.87A3.49,3.49,0,0,1,313.75,537.64Z"/><line class="cls-3" x1="384.57" y1="537.22" x2="350.7" y2="571.09"/><path class="cls-4" d="M350.7,574.59a3.51,3.51,0,0,1-2.48-6l33.87-33.86a3.5,3.5,0,0,1,5,5l-33.87,33.86A3.46,3.46,0,0,1,350.7,574.59Z"/><line class="cls-3" x1="372.25" y1="524.9" x2="338.38" y2="558.77"/><path class="cls-4" d="M338.38,562.27a3.5,3.5,0,0,1-2.47-6l33.87-33.87a3.5,3.5,0,0,1,5,5l-33.87,33.87A3.51,3.51,0,0,1,338.38,562.27Z"/><line class="cls-3" x1="310.67" y1="463.32" x2="276.8" y2="497.19"/><path class="cls-4" d="M276.8,500.69a3.5,3.5,0,0,1-2.48-6l33.87-33.87a3.5,3.5,0,0,1,4.95,4.95l-33.87,33.87A3.49,3.49,0,0,1,276.8,500.69Z"/><line class="cls-3" x1="298.35" y1="451.01" x2="264.48" y2="484.87"/><path class="cls-4" d="M264.48,488.37a3.5,3.5,0,0,1-2.47-6l33.87-33.87a3.5,3.5,0,1,1,4.95,5L267,487.35A3.51,3.51,0,0,1,264.48,488.37Z"/><line class="cls-3" x1="286.03" y1="438.69" x2="252.17" y2="472.56"/><path class="cls-4" d="M252.17,476.06a3.51,3.51,0,0,1-2.48-6l33.87-33.87a3.5,3.5,0,0,1,4.95,5L254.64,475A3.46,3.46,0,0,1,252.17,476.06Z"/><line class="cls-3" x1="222.16" y1="584.5" x2="230.46" y2="592.8"/><path class="cls-4" d="M230.46,596.3a3.48,3.48,0,0,1-2.48-1L219.69,587a3.5,3.5,0,0,1,4.95-5l8.29,8.29a3.49,3.49,0,0,1,0,4.95A3.46,3.46,0,0,1,230.46,596.3Z"/><line class="cls-3" x1="173.4" y1="535.74" x2="216.06" y2="578.4"/><path class="cls-4" d="M216.06,581.9a3.49,3.49,0,0,1-2.47-1l-42.66-42.66a3.5,3.5,0,0,1,4.95-5l42.66,42.66a3.5,3.5,0,0,1-2.48,6Z"/><circle class="cls-6" cx="109.25" cy="713.93" r="7.55"/><path class="cls-4" d="M109.25,725a11.05,11.05,0,1,1,7.82-3.23A11.06,11.06,0,0,1,109.25,725Zm0-15.1a4.05,4.05,0,1,0,2.87,1.18A4,4,0,0,0,109.25,709.88Z"/><path class="cls-8" d="M150.83,558.32h0L255.62,663.11s-52.53-26.47-62.18-16.81l-73.58,73.58a24.93,24.93,0,0,1-29.82,4,25,25,0,0,0,4,5.29h0a24.89,24.89,0,0,0,35.11,0l73.58-73.58c9.66-9.65,62.19,16.82,62.19,16.82Z"/><path class="cls-5" d="M94.06,694.08l73.58-73.58"/><rect class="cls-4" x="78.82" y="653.79" width="104.06" height="7" transform="translate(-426.45 285.04) rotate(-45)"/><path class="cls-4" d="M111.62,739.93a28.32,28.32,0,0,1-20-48.32L165.17,618c3.79-3.8-2.32-28.06-17.47-58.14a3.5,3.5,0,0,1,5.6-4L267.41,670a3.5,3.5,0,0,1-4.05,5.6c-30.07-15.15-54.34-21.26-58.13-17.46l-73.58,73.58A28.13,28.13,0,0,1,111.62,739.93Zm50.5-165.37c1.33,3.15,2.7,6.53,4,10,10.41,27.59,7.26,35.14,4,38.42L96.54,696.56a21.33,21.33,0,0,0,30.16,30.16l73.58-73.58c3.27-3.28,10.82-6.43,38.42,4,3.47,1.3,6.85,2.67,10,4Z"/><line class="cls-8" x1="280.38" y1="619.72" x2="184.91" y2="524.24"/><path class="cls-4" d="M299,641.85a3.53,3.53,0,0,1-2.47-1L182.43,526.72a3.5,3.5,0,0,1-1-2.48,3.45,3.45,0,0,1,1-2.47l93.34-93.34a3.49,3.49,0,0,1,5,0l114.11,114.1a3.49,3.49,0,0,1,0,5l-93.34,93.35A3.54,3.54,0,0,1,299,641.85ZM189.85,524.24,299,633.4,387.41,545,278.25,435.85Z"/><g class="cls-9"><path class="cls-10" d="M871.71,430.9h0a15.39,15.39,0,0,0-5.06-3.36c1.91,7.84-.89,17.44-6.61,23.16l-8.59,8.59c3.58,8.24.84,19.66-5.62,26.12l23.53-23.53C877.23,454,879.58,438.77,871.71,430.9Z"/></g><path class="cls-7" d="M735.65,595.59s8.46-16.29-1.94-26.69S707,567,707,567L694.5,608.11Z"/><path class="cls-4" d="M694.5,611.61a3.5,3.5,0,0,1-3.35-4.52l12.52-41.15a3.49,3.49,0,0,1,1.73-2.09,37.18,37.18,0,0,1,10.54-3.28c8.17-1.24,15.17.78,20.24,5.86s7.1,12.07,5.86,20.24a37.28,37.28,0,0,1-3.28,10.53,3.54,3.54,0,0,1-2.09,1.74l-41.15,12.52A3.6,3.6,0,0,1,694.5,611.61Zm15.4-42.12-10.14,33.36,33.35-10.15c1.52-3.67,5.06-14.39-1.88-21.32S713.57,568,709.9,569.49Z"/><path class="cls-3" d="M734.45,568.16c10.4,10.4,1.94,26.69,1.94,26.69L846.32,484.92c7.87-7.87,10.22-23.11,2.35-31h0c-7.87-7.88-23.11-5.53-31,2.35L707.76,566.22S724,557.76,734.45,568.16Z"/><path class="cls-4" d="M736.39,598.35a3.47,3.47,0,0,1-2.07-.68,3.5,3.5,0,0,1-1-4.43c.07-.14,7.13-14.17-1.31-22.6s-22.47-1.39-22.61-1.31a3.5,3.5,0,0,1-4.08-5.59L815.21,453.81c8.85-8.85,26.48-11.81,35.94-2.35s6.5,27.08-2.36,35.94L738.87,597.32A3.51,3.51,0,0,1,736.39,598.35Zm-15.17-38.88a21.5,21.5,0,0,1,15.7,6.22c4.5,4.5,6.6,10.52,6.15,17.53L843.84,482.45c7.87-7.87,7.72-20.68,2.36-26s-18.18-5.51-26,2.35L719.39,559.53Q720.32,559.47,721.22,559.47Z"/><path class="cls-3" d="M734.45,568.16c10.4,10.4,1.94,26.69,1.94,26.69L846.32,484.92c7.87-7.87,10.22-23.11,2.35-31h0c-7.87-7.88-23.11-5.53-31,2.35L707.76,566.22S724,557.76,734.45,568.16Z"/><path class="cls-4" d="M736.39,598.35a3.47,3.47,0,0,1-2.07-.68,3.5,3.5,0,0,1-1-4.43c.07-.14,7.13-14.17-1.31-22.6s-22.47-1.39-22.61-1.31a3.5,3.5,0,0,1-4.08-5.59L815.21,453.81c8.85-8.85,26.48-11.81,35.94-2.35s6.5,27.08-2.36,35.94L738.87,597.32A3.51,3.51,0,0,1,736.39,598.35Zm-15.17-38.88a21.5,21.5,0,0,1,15.7,6.22c4.5,4.5,6.6,10.52,6.15,17.53L843.84,482.45c7.87-7.87,7.72-20.68,2.36-26s-18.18-5.51-26,2.35L719.39,559.53Q720.32,559.47,721.22,559.47Z"/><path class="cls-6" d="M733.79,568.82a17.28,17.28,0,0,1,4.71,8.68L853.16,462.84a16.66,16.66,0,0,0-4.49-8.9h0a16.69,16.69,0,0,0-8.9-4.49L725.11,564.11A17.2,17.2,0,0,1,733.79,568.82Z"/><path class="cls-4" d="M738.5,581a3.4,3.4,0,0,1-1-.15,3.5,3.5,0,0,1-2.43-2.61,13.91,13.91,0,0,0-10.71-10.71,3.51,3.51,0,0,1-1.74-5.9L837.29,447a3.51,3.51,0,0,1,3.11-1,19.38,19.38,0,0,1,16.2,16.19,3.48,3.48,0,0,1-1,3.11L741,580A3.5,3.5,0,0,1,738.5,581Zm-7.07-18.27a20.76,20.76,0,0,1,4.83,3.62h0a20.67,20.67,0,0,1,3.61,4.82L849.3,461.75a12.63,12.63,0,0,0-3.1-5.34,12.43,12.43,0,0,0-5.34-3.1Z"/><path class="cls-4" d="M705.39,604.79s3.71-3.7-.08-7.49-7.5-.09-7.5-.09l-3.31,10.9Z"/><path class="cls-4" d="M694.5,611.61a3.5,3.5,0,0,1-3.35-4.52l3.31-10.89a3.54,3.54,0,0,1,.88-1.46,8.86,8.86,0,0,1,12.53,12.53,3.42,3.42,0,0,1-1.46.87l-10.89,3.32A3.6,3.6,0,0,1,694.5,611.61Zm6.35-12.35-1.09,3.59,3.55-1.08a1.53,1.53,0,0,0-.48-2A1.64,1.64,0,0,0,700.85,599.26Z"/><path class="cls-7" d="M838.86,435.11l-23.53,23.53"/><rect class="cls-4" x="810.46" y="443.38" width="33.28" height="7" transform="translate(-73.76 715.64) rotate(-44.99)"/><path class="cls-4" d="M847.69,487.05a3.5,3.5,0,0,1-2.47-6c7.86-7.86,7.71-20.67,2.35-26s-18.17-5.51-26,2.35a3.5,3.5,0,0,1-4.95-4.95l23.53-23.53c8.86-8.85,26.48-11.81,35.94-2.35s6.5,27.08-2.35,35.93L850.17,486A3.48,3.48,0,0,1,847.69,487.05Zm-10.53-42.79c5.73,0,11.3,1.77,15.36,5.83,4.68,4.67,6.32,11.35,5.71,18l10.52-10.52c7.86-7.86,7.71-20.67,2.35-26s-18.17-5.51-26,2.35l-10.51,10.52Q835.86,444.26,837.16,444.26Z"/><rect class="cls-3" x="512.22" y="571.91" width="142.78" height="142.78"/><path class="cls-4" d="M655,718.19H512.22a3.5,3.5,0,0,1-3.5-3.5V571.91a3.5,3.5,0,0,1,3.5-3.5H655a3.5,3.5,0,0,1,3.5,3.5V714.69A3.5,3.5,0,0,1,655,718.19Zm-139.28-7H651.5V575.41H515.72Z"/><polygon class="cls-8" points="645.68 571.9 645.68 705.37 512.22 705.37 512.22 714.68 655 714.68 655 571.9 645.68 571.9"/><rect class="cls-7" x="498.63" y="558.32" width="27.17" height="27.17"/><path class="cls-4" d="M525.8,589H498.63a3.5,3.5,0,0,1-3.5-3.5V558.32a3.5,3.5,0,0,1,3.5-3.5H525.8a3.5,3.5,0,0,1,3.5,3.5v27.17A3.5,3.5,0,0,1,525.8,589Zm-23.67-7H522.3V561.82H502.13Z"/><rect class="cls-7" x="498.63" y="701.1" width="27.17" height="27.17"/><path class="cls-4" d="M525.8,731.77H498.63a3.5,3.5,0,0,1-3.5-3.5V701.1a3.5,3.5,0,0,1,3.5-3.5H525.8a3.5,3.5,0,0,1,3.5,3.5v27.17A3.5,3.5,0,0,1,525.8,731.77Zm-23.67-7H522.3V704.6H502.13Z"/><rect class="cls-7" x="644.3" y="701.1" width="27.17" height="27.17"/><path class="cls-4" d="M671.47,731.77H644.3a3.5,3.5,0,0,1-3.5-3.5V701.1a3.5,3.5,0,0,1,3.5-3.5h27.17a3.5,3.5,0,0,1,3.5,3.5v27.17A3.5,3.5,0,0,1,671.47,731.77Zm-23.67-7H668V704.6H647.8Z"/><rect class="cls-7" x="641.41" y="558.32" width="27.17" height="27.17"/><path class="cls-4" d="M668.58,589H641.41a3.5,3.5,0,0,1-3.5-3.5V558.32a3.5,3.5,0,0,1,3.5-3.5h27.17a3.5,3.5,0,0,1,3.5,3.5v27.17A3.5,3.5,0,0,1,668.58,589Zm-23.67-7h20.17V561.82H644.91Z"/><path class="cls-4" d="M155.77,503.25a16,16,0,1,1,16-16A16,16,0,0,1,155.77,503.25Zm0-24.95a9,9,0,1,0,9,9A9,9,0,0,0,155.77,478.3Z"/><path class="cls-4" d="M832.54,397.12a16,16,0,1,1,16-16A16,16,0,0,1,832.54,397.12Zm0-25a9,9,0,1,0,9,9A9,9,0,0,0,832.54,372.16Z"/><path class="cls-4" d="M102.59,447.87a3.44,3.44,0,0,1-1.33-.27,3.5,3.5,0,0,1-2.16-3.23V417.75a3.5,3.5,0,0,1,6-2.48l13.31,13.31a3.5,3.5,0,0,1,1,2.48,3.46,3.46,0,0,1-1,2.47l-13.31,13.31A3.5,3.5,0,0,1,102.59,447.87Zm3.51-21.67v9.72l4.86-4.86Z"/><path class="cls-4" d="M853.53,552.55a3.48,3.48,0,0,1-3.5-3.5V522.43a3.5,3.5,0,0,1,6-2.47l13.31,13.31a3.49,3.49,0,0,1,0,5L856,551.53A3.48,3.48,0,0,1,853.53,552.55Zm3.5-21.67v9.72l4.86-4.86Z"/><path class="cls-4" d="M191.12,409.5H180.78a3.51,3.51,0,0,1-3-1.75l-5.17-9a3.53,3.53,0,0,1,0-3.5l5.17-9a3.51,3.51,0,0,1,3-1.75h10.34a3.51,3.51,0,0,1,3,1.75l5.17,9a3.53,3.53,0,0,1,0,3.5l-5.17,9A3.51,3.51,0,0,1,191.12,409.5Zm-8.32-7h6.3l3.15-5.46-3.15-5.45h-6.3L179.65,397Z"/><polygon class="cls-6" points="880.23 406 894.32 403.61 896.71 389.52 899.1 403.61 913.18 406 899.1 408.39 896.71 422.47 894.32 408.39 880.23 406"/><polygon class="cls-6" points="99.43 549.05 113.52 546.66 115.91 532.58 118.3 546.66 132.38 549.05 118.3 551.44 115.91 565.53 113.52 551.44 99.43 549.05"/><polygon class="cls-6" points="655 779.74 669.08 777.35 671.47 763.27 673.86 777.35 687.94 779.74 673.86 782.13 671.47 796.21 669.08 782.13 655 779.74"/><polygon class="cls-6" points="722.42 224.4 736.5 222.01 738.89 207.93 741.28 222.01 755.37 224.4 741.28 226.79 738.89 240.87 736.5 226.79 722.42 224.4"/><path class="cls-5" d="M745.14,368.21H726.51a12.42,12.42,0,0,1,12.38,12.39v1.09a12.42,12.42,0,0,1-12.38,12.39h18.63a13,13,0,0,0,12.93-12.94h0A13,13,0,0,0,745.14,368.21Z"/><path class="cls-5" d="M745.14,418.12H726.51a12.42,12.42,0,0,1,12.38,12.39v1.09A12.42,12.42,0,0,1,726.51,444h18.63a13,13,0,0,0,12.93-12.93h0A13,13,0,0,0,745.14,418.12Z"/><path class="cls-5" d="M745.14,468H726.51a12.42,12.42,0,0,1,12.38,12.38v1.1a12.42,12.42,0,0,1-12.38,12.39h18.63A13,13,0,0,0,758.07,481h0A13,13,0,0,0,745.14,468Z"/><path class="cls-4" d="M745.14,447.49H639a16.44,16.44,0,0,1,0-32.87H745.14a16.44,16.44,0,0,1,0,32.87ZM639,421.62a9.44,9.44,0,0,0,0,18.87H745.14a9.44,9.44,0,0,0,0-18.87Z"/><path class="cls-4" d="M745.14,497.41H639a16.44,16.44,0,0,1,0-32.87H745.14a16.44,16.44,0,0,1,0,32.87ZM639,471.54a9.44,9.44,0,0,0,0,18.87H745.14a9.44,9.44,0,0,0,0-18.87Z"/><path class="cls-4" d="M745.14,397.58H539.63a16.44,16.44,0,1,1,0-32.87H745.14a16.44,16.44,0,0,1,0,32.87ZM539.63,371.71a9.44,9.44,0,1,0,0,18.87H745.14a9.44,9.44,0,0,0,0-18.87Z"/><path class="cls-4" d="M454.05,621a75.61,75.61,0,1,1,127.6-81.15l-5.9,3.76A68.61,68.61,0,0,0,460,617.24Z"/><rect class="cls-7" x="445.74" y="600.45" width="27.17" height="27.17"/><path class="cls-4" d="M472.91,631.12H445.74a3.5,3.5,0,0,1-3.5-3.5V600.45a3.49,3.49,0,0,1,3.5-3.5h27.17a3.5,3.5,0,0,1,3.5,3.5v27.17A3.5,3.5,0,0,1,472.91,631.12Zm-23.67-7h20.17V604H449.24Z"/><rect class="cls-7" x="565.11" y="528.25" width="27.17" height="27.17"/><path class="cls-4" d="M592.29,558.92H565.11a3.5,3.5,0,0,1-3.5-3.5V528.25a3.5,3.5,0,0,1,3.5-3.5h27.18a3.5,3.5,0,0,1,3.5,3.5v27.17A3.5,3.5,0,0,1,592.29,558.92Zm-23.68-7h20.18V531.75H568.61Z"/></svg>