<svg xmlns="http://www.w3.org/2000/svg" xmlns:xlink="http://www.w3.org/1999/xlink" viewBox="0 0 832.51 598.06"><defs><style>.cls-1{fill:url(#linear-gradient);}.cls-2,.cls-6{fill:#eceaf4;}.cls-2{opacity:0.7;}.cls-2,.cls-7{isolation:isolate;}.cls-3{fill:#fff;}.cls-4{fill:#706cab;}.cls-5{fill:#a0a1e3;}.cls-7{fill:#231f20;opacity:0.1;}.cls-8{fill:#f797aa;}.cls-9{fill:#e2e0f0;}.cls-10{fill:none;}.cls-11{fill:#f7c778;}.cls-12{fill:#fbfbfb;}</style><linearGradient id="linear-gradient" x1="397.72" y1="460.96" x2="397.72" y2="1046.39" gradientTransform="matrix(1, 0, 0, -1, 0, 1046.39)" gradientUnits="userSpaceOnUse"><stop offset="0" stop-color="#a0a1e3"/><stop offset="1" stop-color="#eceaf4"/></linearGradient></defs><title>Asset 3</title><g id="Layer_2" data-name="Layer 2"><g id="Layer_1-2" data-name="Layer 1"><path class="cls-1" d="M2,326.86c36.3-186.3,261-43.4,372-126s228.3-265.3,353.9-177.6,68.3,375.8-107.2,511.2S-34.44,513.06,2,326.86Z"/><path class="cls-2" d="M730.76,25.26c82.9,110.9,20.8,358.6-138,481.2-129.8,100.1-425.5,40.6-556.4-72.4,110.7,130.5,444.2,208.4,584.3,100.3C794.76,400,852.56,115.36,730.76,25.26Z"/><path class="cls-3" d="M155.06,82.76h520.5a26.91,26.91,0,0,1,26.9,26.9v366.6a26.91,26.91,0,0,1-26.9,26.9H155.06a26.91,26.91,0,0,1-26.9-26.9V109.66A26.84,26.84,0,0,1,155.06,82.76Z"/><path class="cls-4" d="M675.46,506.56H155.06a30.39,30.39,0,0,1-30.4-30.4V109.66a30.39,30.39,0,0,1,30.4-30.4h520.5a30.39,30.39,0,0,1,30.4,30.4v366.6A30.52,30.52,0,0,1,675.46,506.56ZM155.06,86.26a23.43,23.43,0,0,0-23.4,23.4v366.6a23.43,23.43,0,0,0,23.4,23.4h520.5a23.43,23.43,0,0,0,23.4-23.4V109.66a23.43,23.43,0,0,0-23.4-23.4Z"/><path class="cls-5" d="M676.76,82.76h-523c-14.1,0-25.6,12.7-25.6,28.2v35.6h574.2V111C702.36,95.36,690.86,82.76,676.76,82.76Z"/><path class="cls-4" d="M705.86,150H124.66v-39.1c0-17.5,13.1-31.7,29.1-31.7h523c16.1,0,29.2,14.2,29.2,31.7Zm-574.2-7h567.2v-32.1c0-13.6-9.9-24.7-22.2-24.7H153.76c-12.2,0-22.1,11.1-22.1,24.7Z"/><circle class="cls-4" cx="163.96" cy="114.86" r="10.4"/><circle class="cls-4" cx="197.76" cy="114.86" r="10.4"/><circle class="cls-4" cx="231.66" cy="114.86" r="10.4"/><path class="cls-6" d="M685.46,146.46v312.8a27.1,27.1,0,0,1-26.9,26.9H138.06a27,27,0,0,1-8.5-1.4,26.89,26.89,0,0,0,25.4,18.3h520.5a27.1,27.1,0,0,0,26.9-26.9V146.46Z"/><path class="cls-7" d="M685.46,146.46h16.9v-36.9a27,27,0,0,0-18.3-25.5,27,27,0,0,1,1.4,8.5Z"/><rect class="cls-4" x="128.16" y="142.96" width="574.2" height="7"/><path class="cls-4" d="M675.46,506.56H155.06a30.39,30.39,0,0,1-30.4-30.4V109.66a30.39,30.39,0,0,1,30.4-30.4h520.5a30.39,30.39,0,0,1,30.4,30.4v366.6A30.52,30.52,0,0,1,675.46,506.56ZM155.06,86.26a23.43,23.43,0,0,0-23.4,23.4v366.6a23.43,23.43,0,0,0,23.4,23.4h520.5a23.43,23.43,0,0,0,23.4-23.4V109.66a23.43,23.43,0,0,0-23.4-23.4Z"/><path class="cls-8" d="M182.56,180.26h129.9a16.88,16.88,0,0,1,16.9,16.9v153.5a16.88,16.88,0,0,1-16.9,16.9H182.56a16.88,16.88,0,0,1-16.9-16.9V197.16A16.94,16.94,0,0,1,182.56,180.26Z"/><path class="cls-4" d="M312.56,371.16h-130a20.42,20.42,0,0,1-20.4-20.4V197.16a20.42,20.42,0,0,1,20.4-20.4h129.9a20.42,20.42,0,0,1,20.4,20.4v153.5A20.36,20.36,0,0,1,312.56,371.16Zm-130-187.4a13.4,13.4,0,0,0-13.4,13.4v153.5a13.4,13.4,0,0,0,13.4,13.4h129.9a13.4,13.4,0,0,0,13.4-13.4V197.16a13.4,13.4,0,0,0-13.4-13.4Z"/><path class="cls-6" d="M639.56,184.36h-19a12.61,12.61,0,0,1,12.6,12.6v1.1a12.55,12.55,0,0,1-12.6,12.6h19a13.23,13.23,0,0,0,13.2-13.1h0A13.19,13.19,0,0,0,639.56,184.36Z"/><path class="cls-4" d="M639.56,214.16H430.46a16.7,16.7,0,0,1,0-33.4h209.1a16.7,16.7,0,0,1,0,33.4Zm-209.1-26.3a9.7,9.7,0,0,0,0,19.4h209.1a9.7,9.7,0,0,0,0-19.4Z"/><path class="cls-6" d="M639.56,235.16h-19a12.68,12.68,0,0,1,12.6,12.6v1.1a12.68,12.68,0,0,1-12.6,12.6h19a13.25,13.25,0,0,0,13.2-13.2h0A13.17,13.17,0,0,0,639.56,235.16Z"/><path class="cls-4" d="M639.56,265H430.46a16.7,16.7,0,0,1,0-33.4h209.1a16.7,16.7,0,1,1,0,33.4Zm-209.1-26.3a9.7,9.7,0,1,0,0,19.4h209.1a9.7,9.7,0,1,0,0-19.4H430.46Z"/><path class="cls-6" d="M639.56,286h-19a12.68,12.68,0,0,1,12.6,12.6v1.1a12.68,12.68,0,0,1-12.6,12.6h19a13.25,13.25,0,0,0,13.2-13.2h0A13.17,13.17,0,0,0,639.56,286Z"/><path class="cls-4" d="M639.56,315.76H387.16a16.7,16.7,0,0,1,0-33.4h252.5a16.7,16.7,0,1,1-.1,33.4Zm-252.4-26.3a9.7,9.7,0,0,0,0,19.4h252.5a9.7,9.7,0,1,0,0-19.4H387.16Z"/><path class="cls-6" d="M639.56,336.76h-19a12.61,12.61,0,0,1,12.6,12.6v1.1a12.55,12.55,0,0,1-12.6,12.6h19a13.25,13.25,0,0,0,13.2-13.2h0A13.17,13.17,0,0,0,639.56,336.76Z"/><path class="cls-4" d="M639.56,366.56H387.16a16.7,16.7,0,0,1,0-33.4h252.5a16.7,16.7,0,0,1-.1,33.4Zm-252.4-26.3a9.7,9.7,0,0,0,0,19.4h252.5a9.7,9.7,0,0,0,0-19.4Z"/><path class="cls-4" d="M312.56,371.16h-130a20.42,20.42,0,0,1-20.4-20.4V197.16a20.42,20.42,0,0,1,20.4-20.4h129.9a20.42,20.42,0,0,1,20.4,20.4v153.5A20.36,20.36,0,0,1,312.56,371.16Zm-130-187.4a13.4,13.4,0,0,0-13.4,13.4v153.5a13.4,13.4,0,0,0,13.4,13.4h129.9a13.4,13.4,0,0,0,13.4-13.4V197.16a13.4,13.4,0,0,0-13.4-13.4Z"/><path class="cls-3" d="M775.36,372.66a26.68,26.68,0,0,1,17.8,33.2l-2.2,7.4a26.76,26.76,0,0,1-33.2,17.8l-4.1-1.2,17.7-58.3Z"/><path class="cls-4" d="M765.46,435.56a29.32,29.32,0,0,1-8.8-1.3l-4.1-1.2a3.52,3.52,0,0,1-2.3-4.4l17.7-58.3a3.52,3.52,0,0,1,4.4-2.3l4.1,1.2a30.09,30.09,0,0,1,20.1,37.5l-2.2,7.4A30.34,30.34,0,0,1,765.46,435.56Zm-7.5-8.2.8.2a23.1,23.1,0,0,0,28.8-15.4h0l2.2-7.4a23.1,23.1,0,0,0-15.4-28.8h0l-.8-.2Z"/><path class="cls-8" d="M775.36,372.66a26.68,26.68,0,0,1,17.8,33.2l-2.2,7.4a26.76,26.76,0,0,1-33.2,17.8l-4.1-1.2,17.7-58.3Z"/><path class="cls-4" d="M765.46,435.56a29.32,29.32,0,0,1-8.8-1.3l-4.1-1.2a3.52,3.52,0,0,1-2.3-4.4l17.7-58.3a3.52,3.52,0,0,1,4.4-2.3l4.1,1.2a30.09,30.09,0,0,1,20.1,37.5l-2.2,7.4A30.34,30.34,0,0,1,765.46,435.56Zm-7.5-8.2.8.2a23.1,23.1,0,0,0,28.8-15.4h0l2.2-7.4a23.1,23.1,0,0,0-15.4-28.8h0l-.8-.2Z"/><path class="cls-7" d="M775.36,372.66l-4.1-1.2-3.4,13.5,4.1,1.2a26.49,26.49,0,0,1,18.8,27.3c0-.1,0-.2.1-.2l2.2-7.4A26.5,26.5,0,0,0,775.36,372.66Z"/><path class="cls-4" d="M765.46,435.56a29.32,29.32,0,0,1-8.8-1.3l-4.1-1.2a3.52,3.52,0,0,1-2.3-4.4l17.7-58.3a3.52,3.52,0,0,1,4.4-2.3l4.1,1.2a30.09,30.09,0,0,1,20.1,37.5l-2.2,7.4A30.34,30.34,0,0,1,765.46,435.56Zm-7.5-8.2.8.2a23.1,23.1,0,0,0,28.8-15.4h0l2.2-7.4a23.1,23.1,0,0,0-15.4-28.8h0l-.8-.2Z"/><path class="cls-8" d="M699.36,412l-31.1,102.6a18.92,18.92,0,0,0,36.2,11l31.1-102.7Z"/><path class="cls-4" d="M686.36,542.46a20.52,20.52,0,0,1-6.5-1,22.38,22.38,0,0,1-14.9-27.9l31.1-102.7a3.52,3.52,0,0,1,4.4-2.3h0l36.2,11a3.46,3.46,0,0,1,2.3,4.3h0l-31.2,102.7a22.5,22.5,0,0,1-21.4,15.9Zm15.3-126.2-30,99.3a15.37,15.37,0,1,0,29.4,9h0l30.1-99.3Z"/><path class="cls-7" d="M699.36,412l-1.1,3.8,23.8,7.2-31.2,102.6a19.05,19.05,0,0,1-11.3,12.2c.4.2.8.3,1.3.5a19,19,0,0,0,23.6-12.6h0L735.56,423Z"/><path class="cls-4" d="M686.36,542.46a20.52,20.52,0,0,1-6.5-1,22.38,22.38,0,0,1-14.9-27.9l31.1-102.7a3.52,3.52,0,0,1,4.4-2.3h0l36.2,11a3.46,3.46,0,0,1,2.3,4.3h0l-31.2,102.7a22.5,22.5,0,0,1-21.4,15.9Zm15.3-126.2-30,99.3a15.37,15.37,0,1,0,29.4,9h0l30.1-99.3Z"/><path class="cls-3" d="M770.76,347.86a14,14,0,0,1,9.4,17.4v.1l-22.5,74.2a14,14,0,0,1-17.4,9.4h-.1l-66.1-20,30.6-101Z"/><path class="cls-4" d="M744.26,453.06a18.07,18.07,0,0,1-5.1-.8l-66.1-20a3.46,3.46,0,0,1-2.3-4.3h0l30.6-101a3.52,3.52,0,0,1,4.4-2.3h0l66.1,20a17.54,17.54,0,0,1,11.7,21.9l-22.5,74A17.58,17.58,0,0,1,744.26,453.06Zm-65.8-26.5,62.8,19a10.44,10.44,0,0,0,13.1-7l22.5-74.2a10.44,10.44,0,0,0-7-13.1h0l-62.8-19Z"/><path class="cls-3" d="M770.76,347.86a14,14,0,0,1,9.4,17.4v.1l-22.5,74.2a14,14,0,0,1-17.4,9.4h-.1l-66.1-20,30.6-101Z"/><path class="cls-4" d="M744.26,453.06a18.07,18.07,0,0,1-5.1-.8l-66.1-20a3.46,3.46,0,0,1-2.3-4.3h0l30.6-101a3.52,3.52,0,0,1,4.4-2.3h0l66.1,20a17.54,17.54,0,0,1,11.7,21.9l-22.5,74A17.58,17.58,0,0,1,744.26,453.06Zm-65.8-26.5,62.8,19a10.44,10.44,0,0,0,13.1-7l22.5-74.2a10.44,10.44,0,0,0-7-13.1h0l-62.8-19Z"/><path class="cls-9" d="M743.46,429.16l-2.7,8.7"/><path class="cls-4" d="M740.76,441.36a3.64,3.64,0,0,1-3.3-4.6h0l2.6-8.7a3.45,3.45,0,0,1,4.5-2.1,3.4,3.4,0,0,1,2.2,4.1l-2.7,8.7A3.32,3.32,0,0,1,740.76,441.36Z"/><path class="cls-9" d="M762.06,367.66l-15.9,52.5"/><path class="cls-4" d="M746.16,423.66a3.35,3.35,0,0,1-3.3-4.5l15.9-52.5a3.49,3.49,0,0,1,6.8,1.6c0,.1-.1.2-.1.3l-15.9,52.5A3.73,3.73,0,0,1,746.16,423.66Z"/><polygon class="cls-3" points="516.16 464.76 673.96 429.16 704.76 327.66 593.16 210.36 516.16 464.76"/><path class="cls-4" d="M516.16,468.26a3.54,3.54,0,0,1-3.5-3.5c0-.3.1-.7.1-1l77-254.4a3.52,3.52,0,0,1,4.4-2.3,3.77,3.77,0,0,1,1.5.9l111.6,117.3a3.3,3.3,0,0,1,.8,3.4l-30.7,101.4a3.35,3.35,0,0,1-2.6,2.4l-157.9,35.6A1,1,0,0,1,516.16,468.26Zm78.6-251.1-73.5,242.9,150-33.9,29.5-97.6Z"/><path class="cls-3" d="M595.76,187.76h0a12.86,12.86,0,0,1,8.5,15.9l-82.6,272.9a12.86,12.86,0,0,1-15.9,8.5h0a12.77,12.77,0,0,1-8.5-15.9L580,196.26A12.58,12.58,0,0,1,595.76,187.76Z"/><path class="cls-4" d="M509.36,489.16a16.3,16.3,0,0,1-16.3-16.3,14.87,14.87,0,0,1,.7-4.7l82.7-272.9a16.39,16.39,0,0,1,20.3-10.9h0a16.31,16.31,0,0,1,10.9,20.3L525,477.56a16.41,16.41,0,0,1-15.6,11.6Zm82.7-298.5a9.33,9.33,0,0,0-8.9,6.6l-82.7,272.9a9.3,9.3,0,1,0,17.8,5.4L601,202.66a9.32,9.32,0,0,0-6.2-11.6h0a8.42,8.42,0,0,0-2.7-.4Z"/><polygon class="cls-5" points="516.16 464.76 673.96 429.16 704.76 327.66 593.16 210.36 516.16 464.76"/><path class="cls-4" d="M516.16,468.26a3.54,3.54,0,0,1-3.5-3.5c0-.3.1-.7.1-1l77-254.4a3.52,3.52,0,0,1,4.4-2.3,3.77,3.77,0,0,1,1.5.9l111.6,117.3a3.3,3.3,0,0,1,.8,3.4l-30.7,101.4a3.35,3.35,0,0,1-2.6,2.4l-157.9,35.6A1,1,0,0,1,516.16,468.26Zm78.6-251.1-73.5,242.9,150-33.9,29.5-97.6Z"/><path class="cls-7" d="M770.76,346.26l-66.1-20,.1-.2-111.6-117.3-5.9,19.5L698,344.56l-.1.2,81.2,24.5,1.1-5.6a14,14,0,0,0-9.4-17.4Z"/><line class="cls-10" x1="673.96" y1="429.16" x2="704.76" y2="327.66"/><rect class="cls-4" x="636.44" y="374.85" width="106" height="7" transform="translate(127.47 928.51) rotate(-73.15)"/><path class="cls-11" d="M595.76,187.76h0a12.86,12.86,0,0,1,8.5,15.9l-82.6,272.9a12.86,12.86,0,0,1-15.9,8.5h0a12.77,12.77,0,0,1-8.5-15.9L580,196.26A12.58,12.58,0,0,1,595.76,187.76Z"/><path class="cls-4" d="M509.36,489.16a16.3,16.3,0,0,1-16.3-16.3,14.87,14.87,0,0,1,.7-4.7l82.7-272.9a16.39,16.39,0,0,1,20.3-10.9h0a16.31,16.31,0,0,1,10.9,20.3L525,477.56a16.41,16.41,0,0,1-15.6,11.6Zm82.7-298.5a9.33,9.33,0,0,0-8.9,6.6l-82.7,272.9a9.3,9.3,0,1,0,17.8,5.4L601,202.66a9.32,9.32,0,0,0-6.2-11.6h0a8.42,8.42,0,0,0-2.7-.4Z"/><path class="cls-8" d="M595.76,187.76h0a12.86,12.86,0,0,1,8.5,15.9l-82.6,272.9a12.86,12.86,0,0,1-15.9,8.5h0a12.77,12.77,0,0,1-8.5-15.9L580,196.26A12.58,12.58,0,0,1,595.76,187.76Z"/><path class="cls-4" d="M509.36,489.16a16.3,16.3,0,0,1-16.3-16.3,14.87,14.87,0,0,1,.7-4.7l82.7-272.9a16.39,16.39,0,0,1,20.3-10.9h0a16.31,16.31,0,0,1,10.9,20.3L525,477.56a16.41,16.41,0,0,1-15.6,11.6Zm82.7-298.5a9.33,9.33,0,0,0-8.9,6.6l-82.7,272.9a9.3,9.3,0,1,0,17.8,5.4L601,202.66a9.32,9.32,0,0,0-6.2-11.6h0a8.42,8.42,0,0,0-2.7-.4Z"/><path class="cls-7" d="M595.76,187.76h0a12.81,12.81,0,0,0-15.9,8.5l-5.1,16.9a12.86,12.86,0,0,1,15.9-8.5h0a12.88,12.88,0,0,1,8.8,15l4.8-16A12.69,12.69,0,0,0,595.76,187.76Z"/><path class="cls-4" d="M509.36,489.16a16.3,16.3,0,0,1-16.3-16.3,14.87,14.87,0,0,1,.7-4.7l82.7-272.9a16.39,16.39,0,0,1,20.3-10.9h0a16.31,16.31,0,0,1,10.9,20.3L525,477.56a16.41,16.41,0,0,1-15.6,11.6Zm82.7-298.5a9.33,9.33,0,0,0-8.9,6.6l-82.7,272.9a9.3,9.3,0,1,0,17.8,5.4L601,202.66a9.32,9.32,0,0,0-6.2-11.6h0a8.42,8.42,0,0,0-2.7-.4Z"/><path class="cls-4" d="M762.06,275.56a16.2,16.2,0,1,1,16.2-16.2h0A16.2,16.2,0,0,1,762.06,275.56Zm0-25.4a9.2,9.2,0,1,0,9.2,9.2,9.18,9.18,0,0,0-9.2-9.2Z"/><path class="cls-4" d="M48.16,323a3.48,3.48,0,0,1-3.5-3.5h0v-27.1a3.48,3.48,0,0,1,3.5-3.5,3.25,3.25,0,0,1,2.5,1.1l13.6,13.5a3.5,3.5,0,0,1,0,5L50.66,322A3.17,3.17,0,0,1,48.16,323Zm3.6-22.1v10.2l5.1-5.1Z"/><path class="cls-4" d="M107,232.26H96.46a3.49,3.49,0,0,1-3-1.8l-5.3-9.1a3.63,3.63,0,0,1,0-3.5l5.3-9.1a3.72,3.72,0,0,1,3-1.8H107a3.49,3.49,0,0,1,3,1.8l5.3,9.1a3.63,3.63,0,0,1,0,3.5l-5.2,9.1A3.45,3.45,0,0,1,107,232.26Zm-8.5-7H105l3.2-5.6-3.2-5.6h-6.5l-3.2,5.6Z"/><polygon class="cls-8" points="795.46 324.76 809.76 322.36 812.16 307.96 814.66 322.36 828.96 324.76 814.66 327.16 812.16 341.56 809.76 327.16 795.46 324.76"/><polygon class="cls-8" points="1.56 187.16 15.86 184.76 18.36 170.36 20.76 184.76 35.06 187.16 20.76 189.56 18.36 203.96 15.86 189.56 1.56 187.16"/><path class="cls-4" d="M818.76,208.16a2.77,2.77,0,0,1-1.3-.3,3.48,3.48,0,0,1-2.2-3.2v-20.3a3.48,3.48,0,0,1,3.5-3.5,3.25,3.25,0,0,1,2.5,1.1l10.2,10.2a3.5,3.5,0,0,1,0,5l-10.2,10.1A3.84,3.84,0,0,1,818.76,208.16Zm3.5-15.3v3.4l1.7-1.7Z"/><polygon class="cls-8" points="258.46 555.76 272.76 553.26 275.16 538.96 277.66 553.26 291.96 555.76 277.66 558.16 275.16 572.46 272.76 558.16 258.46 555.76"/><path class="cls-4" d="M316.16,540.66a9.5,9.5,0,1,1,9.5-9.5A9.63,9.63,0,0,1,316.16,540.66Zm0-12a2.5,2.5,0,1,0,2.5,2.5h0a2.42,2.42,0,0,0-2.5-2.5Z"/><path class="cls-4" d="M403,598.06h-10.5a3.49,3.49,0,0,1-3-1.8l-5.3-9.1a3.63,3.63,0,0,1,0-3.5l5.3-9.1a3.72,3.72,0,0,1,3-1.8H403a3.49,3.49,0,0,1,3,1.8l5.3,9.1a3.63,3.63,0,0,1,0,3.5l-5.3,9.1A3.49,3.49,0,0,1,403,598.06Zm-8.5-7H401l3.2-5.6-3.2-5.6h-6.5l-3.2,5.6Z"/><circle class="cls-5" cx="301.36" cy="236.96" r="76.9"/><path class="cls-4" d="M301.36,317.36a80.4,80.4,0,1,1,80.4-80.4h0A80.53,80.53,0,0,1,301.36,317.36Zm0-153.9a73.4,73.4,0,1,0,73.4,73.4h0A73.51,73.51,0,0,0,301.36,163.46Z"/><circle class="cls-12" cx="301.36" cy="236.86" r="61.4"/><circle class="cls-5" cx="301.36" cy="236.96" r="51"/><circle class="cls-12" cx="301.36" cy="236.86" r="36.1"/><circle class="cls-8" cx="301.36" cy="236.86" r="22.8"/><rect class="cls-4" x="290.49" y="198.76" width="91.7" height="7" transform="translate(-44.52 297.02) rotate(-44.99)"/><polygon class="cls-4" points="298.66 229.36 296.66 241.26 309.16 239.86 298.66 229.36"/><polygon class="cls-4" points="359.66 178.56 359.86 167.96 375.66 152.16 375.46 162.86 359.66 178.56"/><polygon class="cls-4" points="359.86 178.76 370.56 178.56 386.26 162.86 375.66 163.06 359.86 178.76"/><circle class="cls-6" cx="180.26" cy="413.46" r="118.5"/><path class="cls-4" d="M180.26,535.36a122,122,0,1,1,122-122h0A122,122,0,0,1,180.26,535.36Zm0-237a115,115,0,1,0,115,115c0-63.4-51.5-114.9-115-115Z"/><path class="cls-4" d="M99.26,478.46a3.54,3.54,0,0,1-3.5-3.5V351a3.5,3.5,0,0,1,7,0V475A3.48,3.48,0,0,1,99.26,478.46Z"/><path class="cls-4" d="M272.66,478.46H99.26a3.5,3.5,0,0,1,0-7h173.5a3.5,3.5,0,1,1-.1,7Z"/><rect class="cls-5" x="121.66" y="438.86" width="34.5" height="36.2"/><path class="cls-4" d="M156.16,478.46h-34.4a3.54,3.54,0,0,1-3.5-3.5v-36.2a3.54,3.54,0,0,1,3.5-3.5h34.5a3.54,3.54,0,0,1,3.5,3.5V475a3.5,3.5,0,0,1-3.6,3.5Zm-31-7h27.6v-29.2h-27.5Z"/><rect class="cls-8" x="166.26" y="404.26" width="34.5" height="70.8"/><path class="cls-4" d="M200.76,478.46h-34.5a3.54,3.54,0,0,1-3.5-3.5v-70.8a3.54,3.54,0,0,1,3.5-3.5h34.5a3.54,3.54,0,0,1,3.5,3.5V475A3.48,3.48,0,0,1,200.76,478.46Zm-31-7h27.5v-63.8h-27.5Z"/><rect class="cls-5" x="211.66" y="359.66" width="34.5" height="115.3"/><path class="cls-4" d="M246.16,478.46h-34.5a3.54,3.54,0,0,1-3.5-3.5V359.66a3.54,3.54,0,0,1,3.5-3.5h34.5a3.54,3.54,0,0,1,3.5,3.5V475A3.48,3.48,0,0,1,246.16,478.46Zm-31-7h27.5V363.16h-27.5Z"/></g></g></svg>