<svg id="Layer_1" data-name="Layer 1" xmlns="http://www.w3.org/2000/svg" xmlns:xlink="http://www.w3.org/1999/xlink" viewBox="0 0 1000 1000"><defs><style>.cls-1{fill:url(#linear-gradient);}.cls-2,.cls-6{fill:#eceaf4;}.cls-2{opacity:0.7;}.cls-3{fill:#fff;}.cls-4{fill:#706cab;}.cls-5{fill:#a0a1e3;}.cls-7{fill:#231f20;opacity:0.1;}.cls-8{fill:#f7c778;}.cls-9{fill:#e2e0f0;}.cls-10{fill:#fbfbfb;}</style><linearGradient id="linear-gradient" x1="473.94" y1="763.86" x2="473.94" y2="178.37" gradientUnits="userSpaceOnUse"><stop offset="0" stop-color="#a0a1e3"/><stop offset="1" stop-color="#eceaf4"/></linearGradient></defs><title>Artboard 2</title><path class="cls-1" d="M78.15,505.26c36.35-186.27,261-43.35,372-126S678.44,113.94,804.08,201.62,872.4,577.38,696.87,712.84,41.8,691.53,78.15,505.26Z"/><path class="cls-2" d="M807,203.7c82.87,110.88,20.85,358.57-138.05,481.19C539.19,785,243.47,725.51,112.6,612.46,223.3,743,556.82,820.91,696.87,712.84,871,578.43,928.82,293.76,807,203.7Z"/><rect class="cls-3" x="204.39" y="261.18" width="574.22" height="420.31" rx="26.88" ry="26.88"/><path class="cls-4" d="M751.73,685H231.26a30.41,30.41,0,0,1-30.37-30.38V288.06a30.41,30.41,0,0,1,30.37-30.38H751.73a30.41,30.41,0,0,1,30.37,30.38V654.61A30.41,30.41,0,0,1,751.73,685ZM231.26,264.68a23.4,23.4,0,0,0-23.37,23.38V654.61A23.4,23.4,0,0,0,231.26,678H751.73a23.4,23.4,0,0,0,23.37-23.38V288.06a23.4,23.4,0,0,0-23.37-23.38Z"/><path class="cls-5" d="M753,261.18H230c-14.11,0-25.65,12.67-25.65,28.16v35.6H778.6v-35.6C778.6,273.85,767.06,261.18,753,261.18Z"/><path class="cls-4" d="M782.1,328.44H200.89v-39.1c0-17.45,13.07-31.66,29.15-31.66H753c16.08,0,29.15,14.21,29.15,31.66Zm-574.21-7H775.1v-32.1c0-13.59-9.93-24.66-22.15-24.66H230c-12.22,0-22.15,11.07-22.15,24.66Z"/><circle class="cls-4" cx="240.19" cy="293.31" r="10.36"/><circle class="cls-4" cx="274.04" cy="293.31" r="10.36"/><circle class="cls-4" cx="307.9" cy="293.31" r="10.36"/><path class="cls-6" d="M761.68,324.94V637.69a27,27,0,0,1-26.88,26.87H214.34a26.45,26.45,0,0,1-8.53-1.42,27,27,0,0,0,25.45,18.35H751.73a27,27,0,0,0,26.87-26.88V324.94Z"/><path class="cls-7" d="M761.68,324.94H778.6V288.06a27,27,0,0,0-18.34-25.46,26.82,26.82,0,0,1,1.42,8.53Z"/><rect class="cls-4" x="204.39" y="321.44" width="574.22" height="7"/><path class="cls-4" d="M751.73,685H231.26a30.41,30.41,0,0,1-30.37-30.38V288.06a30.41,30.41,0,0,1,30.37-30.38H751.73a30.41,30.41,0,0,1,30.37,30.38V654.61A30.41,30.41,0,0,1,751.73,685ZM231.26,264.68a23.4,23.4,0,0,0-23.37,23.38V654.61A23.4,23.4,0,0,0,231.26,678H751.73a23.4,23.4,0,0,0,23.37-23.38V288.06a23.4,23.4,0,0,0-23.37-23.38Z"/><rect class="cls-8" x="241.9" y="358.7" width="163.78" height="187.38" rx="16.93" ry="16.93"/><path class="cls-4" d="M388.76,549.58H258.83a20.45,20.45,0,0,1-20.43-20.43V375.63a20.46,20.46,0,0,1,20.43-20.43H388.76a20.46,20.46,0,0,1,20.43,20.43V529.15A20.45,20.45,0,0,1,388.76,549.58ZM258.83,362.2a13.45,13.45,0,0,0-13.43,13.43V529.15a13.45,13.45,0,0,0,13.43,13.43H388.76a13.45,13.45,0,0,0,13.43-13.43V375.63a13.45,13.45,0,0,0-13.43-13.43Z"/><path class="cls-6" d="M715.83,362.82h-19a12.65,12.65,0,0,1,12.6,12.61v1.11a12.65,12.65,0,0,1-12.6,12.61h19A13.21,13.21,0,0,0,729,376h0A13.21,13.21,0,0,0,715.83,362.82Z"/><path class="cls-4" d="M715.83,392.65H506.72a16.67,16.67,0,0,1,0-33.33H715.83a16.67,16.67,0,0,1,0,33.33ZM506.72,366.32a9.67,9.67,0,0,0,0,19.33H715.83a9.67,9.67,0,0,0,0-19.33Z"/><path class="cls-6" d="M715.83,413.61h-19a12.64,12.64,0,0,1,12.6,12.6v1.12a12.64,12.64,0,0,1-12.6,12.6h19A13.2,13.2,0,0,0,729,426.77h0A13.2,13.2,0,0,0,715.83,413.61Z"/><path class="cls-4" d="M715.83,443.43H506.72a16.66,16.66,0,0,1,0-33.32H715.83a16.66,16.66,0,0,1,0,33.32ZM506.72,417.11a9.66,9.66,0,0,0,0,19.32H715.83a9.66,9.66,0,0,0,0-19.32Z"/><path class="cls-6" d="M715.83,464.4h-19a12.64,12.64,0,0,1,12.6,12.6v1.12a12.64,12.64,0,0,1-12.6,12.6h19A13.2,13.2,0,0,0,729,477.56h0A13.2,13.2,0,0,0,715.83,464.4Z"/><path class="cls-4" d="M715.83,494.22H463.36a16.66,16.66,0,1,1,0-33.32H715.83a16.66,16.66,0,0,1,0,33.32ZM463.36,467.9a9.66,9.66,0,1,0,0,19.32H715.83a9.66,9.66,0,0,0,0-19.32Z"/><path class="cls-6" d="M715.83,515.18h-19a12.65,12.65,0,0,1,12.6,12.61v1.11a12.65,12.65,0,0,1-12.6,12.61h19A13.21,13.21,0,0,0,729,528.34h0A13.21,13.21,0,0,0,715.83,515.18Z"/><path class="cls-4" d="M715.83,545H463.36a16.67,16.67,0,0,1,0-33.33H715.83a16.67,16.67,0,0,1,0,33.33ZM463.36,518.68a9.67,9.67,0,0,0,0,19.33H715.83a9.67,9.67,0,0,0,0-19.33Z"/><path class="cls-4" d="M388.76,549.58H258.83a20.45,20.45,0,0,1-20.43-20.43V375.63a20.46,20.46,0,0,1,20.43-20.43H388.76a20.46,20.46,0,0,1,20.43,20.43V529.15A20.45,20.45,0,0,1,388.76,549.58ZM258.83,362.2a13.45,13.45,0,0,0-13.43,13.43V529.15a13.45,13.45,0,0,0,13.43,13.43H388.76a13.45,13.45,0,0,0,13.43-13.43V375.63a13.45,13.45,0,0,0-13.43-13.43Z"/><path class="cls-3" d="M851.64,551.06a26.61,26.61,0,0,1,17.75,33.18l-2.24,7.39A26.61,26.61,0,0,1,834,609.38l-4.11-1.24,17.67-58.33Z"/><path class="cls-4" d="M841.72,614a30.3,30.3,0,0,1-8.76-1.31l-4.11-1.24a3.52,3.52,0,0,1-2.34-4.37l17.67-58.32a3.5,3.5,0,0,1,4.36-2.34l4.11,1.25a30.11,30.11,0,0,1,20.09,37.54l-2.24,7.39A30.17,30.17,0,0,1,841.72,614Zm-7.49-8.24.75.23a23.11,23.11,0,0,0,28.82-15.42l2.24-7.39a23.1,23.1,0,0,0-15.42-28.81h0l-.76-.23Z"/><path class="cls-8" d="M851.64,551.06a26.61,26.61,0,0,1,17.75,33.18l-2.24,7.39A26.61,26.61,0,0,1,834,609.38l-4.11-1.24,17.67-58.33Z"/><path class="cls-4" d="M841.72,614a30.3,30.3,0,0,1-8.76-1.31l-4.11-1.24a3.52,3.52,0,0,1-2.34-4.37l17.67-58.32a3.5,3.5,0,0,1,4.36-2.34l4.11,1.25a30.11,30.11,0,0,1,20.09,37.54l-2.24,7.39A30.17,30.17,0,0,1,841.72,614Zm-7.49-8.24.75.23a23.11,23.11,0,0,0,28.82-15.42l2.24-7.39a23.1,23.1,0,0,0-15.42-28.81h0l-.76-.23Z"/><path class="cls-7" d="M851.64,551.06l-4.11-1.25-3.39,13.55,4.11,1.24a26.6,26.6,0,0,1,18.82,27.26,2.09,2.09,0,0,1,.08-.23l2.24-7.39A26.61,26.61,0,0,0,851.64,551.06Z"/><path class="cls-4" d="M841.72,614a30.3,30.3,0,0,1-8.76-1.31l-4.11-1.24a3.52,3.52,0,0,1-2.34-4.37l17.67-58.32a3.5,3.5,0,0,1,4.36-2.34l4.11,1.25a30.11,30.11,0,0,1,20.09,37.54l-2.24,7.39A30.17,30.17,0,0,1,841.72,614Zm-7.49-8.24.75.23a23.11,23.11,0,0,0,28.82-15.42l2.24-7.39a23.1,23.1,0,0,0-15.42-28.81h0l-.76-.23Z"/><path class="cls-8" d="M775.6,590.36,744.51,693a18.89,18.89,0,1,0,36.16,11l31.09-102.66Z"/><path class="cls-4" d="M762.61,720.9a22.51,22.51,0,0,1-6.53-1A22.39,22.39,0,0,1,741.16,692l31.09-102.66a3.5,3.5,0,0,1,4.37-2.33l36.16,11a3.49,3.49,0,0,1,2.33,4.36L784,705a22.46,22.46,0,0,1-21.41,15.91Zm15.33-126.18L747.86,694A15.39,15.39,0,0,0,777.32,703l30.08-99.32Z"/><path class="cls-7" d="M775.6,590.36l-1.13,3.75,23.75,7.2L767.12,704a18.86,18.86,0,0,1-11.31,12.15c.42.16.85.33,1.29.46A18.9,18.9,0,0,0,780.67,704l31.09-102.66Z"/><path class="cls-4" d="M762.61,720.9a22.51,22.51,0,0,1-6.53-1A22.39,22.39,0,0,1,741.16,692l31.09-102.66a3.5,3.5,0,0,1,4.37-2.33l36.16,11a3.49,3.49,0,0,1,2.33,4.36L784,705a22.46,22.46,0,0,1-21.41,15.91Zm15.33-126.18L747.86,694A15.39,15.39,0,0,0,777.32,703l30.08-99.32Z"/><path class="cls-3" d="M847,526.35a14,14,0,0,1,9.37,17.51L833.94,618a14,14,0,0,1-17.5,9.36l-66.13-20,30.6-101Z"/><path class="cls-4" d="M820.5,631.49a17.13,17.13,0,0,1-5.07-.76l-66.14-20a3.49,3.49,0,0,1-2.33-4.36l30.6-101a3.5,3.5,0,0,1,4.37-2.33l66.13,20a17.54,17.54,0,0,1,11.7,21.87L837.29,619A17.56,17.56,0,0,1,820.5,631.49ZM754.67,605l62.79,19a10.54,10.54,0,0,0,13.13-7l22.47-74.16a10.54,10.54,0,0,0-7-13.14h0l-62.78-19Z"/><path class="cls-3" d="M847,526.35a14,14,0,0,1,9.37,17.51L833.94,618a14,14,0,0,1-17.5,9.36l-66.13-20,30.6-101Z"/><path class="cls-4" d="M820.5,631.49a17.13,17.13,0,0,1-5.07-.76l-66.14-20a3.49,3.49,0,0,1-2.33-4.36l30.6-101a3.5,3.5,0,0,1,4.37-2.33l66.13,20a17.54,17.54,0,0,1,11.7,21.87L837.29,619A17.56,17.56,0,0,1,820.5,631.49ZM754.67,605l62.79,19a10.54,10.54,0,0,0,13.13-7l22.47-74.16a10.54,10.54,0,0,0-7-13.14h0l-62.78-19Z"/><path class="cls-9" d="M819.66,607.59,817,616.33"/><path class="cls-4" d="M817,619.83a3.6,3.6,0,0,1-1-.15,3.5,3.5,0,0,1-2.33-4.37l2.64-8.74a3.5,3.5,0,0,1,6.7,2l-2.65,8.74A3.49,3.49,0,0,1,817,619.83Z"/><path class="cls-9" d="M838.29,546.08l-15.9,52.5"/><path class="cls-4" d="M822.39,602.08a3.5,3.5,0,0,1-3.35-4.52l15.9-52.49a3.5,3.5,0,1,1,6.7,2l-15.9,52.49A3.5,3.5,0,0,1,822.39,602.08Z"/><polygon class="cls-3" points="592.36 643.21 750.24 607.56 780.97 506.11 669.41 388.85 592.36 643.21"/><path class="cls-4" d="M592.36,646.71a3.51,3.51,0,0,1-3.35-4.52l77-254.36a3.5,3.5,0,0,1,5.89-1.39L783.51,503.7a3.48,3.48,0,0,1,.81,3.43L753.59,608.57A3.49,3.49,0,0,1,751,611L593.13,646.62A3.31,3.31,0,0,1,592.36,646.71ZM671,395.62,597.45,638.47l150-33.88L777,507.05Z"/><path class="cls-3" d="M672,366.16h0a12.82,12.82,0,0,1,8.52,15.93L597.86,655a12.8,12.8,0,0,1-15.92,8.52h0a12.81,12.81,0,0,1-8.53-15.93l82.67-272.91A12.82,12.82,0,0,1,672,366.16Z"/><path class="cls-4" d="M585.63,667.57a16.29,16.29,0,0,1-15.57-21l82.67-272.91A16.29,16.29,0,0,1,673,362.81h0a16.29,16.29,0,0,1,10.86,20.29L601.21,656a16.33,16.33,0,0,1-15.58,11.56Zm82.68-298.46a9.29,9.29,0,0,0-8.88,6.59L576.76,648.61A9.27,9.27,0,0,0,594.51,654l82.67-272.91A9.31,9.31,0,0,0,671,369.51h0A9.33,9.33,0,0,0,668.31,369.11Z"/><polygon class="cls-5" points="592.36 643.21 750.24 607.56 780.97 506.11 669.41 388.85 592.36 643.21"/><path class="cls-4" d="M592.36,646.71a3.51,3.51,0,0,1-3.35-4.52l77-254.36a3.5,3.5,0,0,1,5.89-1.39L783.51,503.7a3.48,3.48,0,0,1,.81,3.43L753.59,608.57A3.49,3.49,0,0,1,751,611L593.13,646.62A3.31,3.31,0,0,1,592.36,646.71ZM671,395.62,597.45,638.47l150-33.88L777,507.05Z"/><path class="cls-7" d="M847,524.66l-66.13-20,.06-.21L669.37,387.16l-5.92,19.52L774.16,523l-.06.21,81.18,24.53,1.09-5.62A14,14,0,0,0,847,524.66Z"/><line class="cls-5" x1="750.24" y1="607.56" x2="780.97" y2="506.11"/><rect class="cls-4" x="712.61" y="553.34" width="106" height="7" transform="translate(10.73 1128.13) rotate(-73.15)"/><path class="cls-8" d="M672,366.16h0a12.82,12.82,0,0,1,8.52,15.93L597.86,655a12.8,12.8,0,0,1-15.92,8.52h0a12.81,12.81,0,0,1-8.53-15.93l82.67-272.91A12.82,12.82,0,0,1,672,366.16Z"/><path class="cls-4" d="M585.63,667.57a16.29,16.29,0,0,1-15.57-21l82.67-272.91A16.29,16.29,0,0,1,673,362.81h0a16.29,16.29,0,0,1,10.86,20.29L601.21,656a16.33,16.33,0,0,1-15.58,11.56Zm82.68-298.46a9.29,9.29,0,0,0-8.88,6.59L576.76,648.61A9.27,9.27,0,0,0,594.51,654l82.67-272.91A9.31,9.31,0,0,0,671,369.51h0A9.33,9.33,0,0,0,668.31,369.11Z"/><path class="cls-8" d="M672,366.16h0a12.82,12.82,0,0,1,8.52,15.93L597.86,655a12.8,12.8,0,0,1-15.92,8.52h0a12.81,12.81,0,0,1-8.53-15.93l82.67-272.91A12.82,12.82,0,0,1,672,366.16Z"/><path class="cls-4" d="M585.63,667.57a16.29,16.29,0,0,1-15.57-21l82.67-272.91A16.29,16.29,0,0,1,673,362.81h0a16.29,16.29,0,0,1,10.86,20.29L601.21,656a16.33,16.33,0,0,1-15.58,11.56Zm82.68-298.46a9.29,9.29,0,0,0-8.88,6.59L576.76,648.61A9.27,9.27,0,0,0,594.51,654l82.67-272.91A9.31,9.31,0,0,0,671,369.51h0A9.33,9.33,0,0,0,668.31,369.11Z"/><path class="cls-7" d="M672,366.16h0a12.82,12.82,0,0,0-15.93,8.52L651,391.61a12.82,12.82,0,0,1,15.93-8.52h0a12.81,12.81,0,0,1,8.75,15l4.85-16A12.81,12.81,0,0,0,672,366.16Z"/><path class="cls-4" d="M585.63,667.57a16.29,16.29,0,0,1-15.57-21l82.67-272.91A16.29,16.29,0,0,1,673,362.81h0a16.29,16.29,0,0,1,10.86,20.29L601.21,656a16.33,16.33,0,0,1-15.58,11.56Zm82.68-298.46a9.29,9.29,0,0,0-8.88,6.59L576.76,648.61A9.27,9.27,0,0,0,594.51,654l82.67-272.91A9.31,9.31,0,0,0,671,369.51h0A9.33,9.33,0,0,0,668.31,369.11Z"/><path class="cls-4" d="M838.29,454a16.2,16.2,0,1,1,16.2-16.19A16.2,16.2,0,0,1,838.29,454Zm0-25.39a9.2,9.2,0,1,0,9.2,9.2A9.21,9.21,0,0,0,838.29,428.64Z"/><path class="cls-4" d="M124.45,501.43a3.48,3.48,0,0,1-3.5-3.5V470.85a3.5,3.5,0,0,1,6-2.48l13.55,13.54a3.51,3.51,0,0,1,0,4.95l-13.55,13.55A3.48,3.48,0,0,1,124.45,501.43ZM128,479.3v10.18l5.09-5.09Z"/><path class="cls-4" d="M183.22,410.73H172.7a3.5,3.5,0,0,1-3-1.75l-5.26-9.11a3.48,3.48,0,0,1,0-3.5l5.26-9.11a3.5,3.5,0,0,1,3-1.75h10.52a3.51,3.51,0,0,1,3,1.75l5.26,9.11a3.53,3.53,0,0,1,0,3.5L186.25,409A3.51,3.51,0,0,1,183.22,410.73Zm-8.5-7h6.48l3.23-5.61-3.23-5.61h-6.48l-3.24,5.61Z"/><polygon class="cls-8" points="871.68 503.21 886.01 500.78 888.44 486.45 890.87 500.78 905.2 503.21 890.87 505.65 888.44 519.97 886.01 505.65 871.68 503.21"/><polygon class="cls-8" points="77.79 365.61 92.12 363.18 94.55 348.85 96.98 363.18 111.31 365.61 96.98 368.05 94.55 382.37 92.12 368.05 77.79 365.61"/><path class="cls-4" d="M895,386.64a3.44,3.44,0,0,1-1.33-.27,3.49,3.49,0,0,1-2.16-3.23V362.83a3.5,3.5,0,0,1,6-2.48l10.16,10.16a3.51,3.51,0,0,1,0,4.95l-10.16,10.15A3.5,3.5,0,0,1,895,386.64Zm3.51-15.37v3.42l1.7-1.71Z"/><polygon class="cls-8" points="334.66 734.16 348.99 731.73 351.42 717.4 353.85 731.73 368.18 734.16 353.85 736.59 351.42 750.92 348.99 736.59 334.66 734.16"/><path class="cls-4" d="M392.39,719.06a9.51,9.51,0,1,1,9.51-9.51A9.53,9.53,0,0,1,392.39,719.06Zm0-12a2.51,2.51,0,1,0,2.51,2.5A2.51,2.51,0,0,0,392.39,707.05Z"/><path class="cls-4" d="M479.2,776.47H468.68a3.5,3.5,0,0,1-3-1.75l-5.26-9.11a3.48,3.48,0,0,1,0-3.5l5.26-9.11a3.5,3.5,0,0,1,3-1.75H479.2a3.51,3.51,0,0,1,3,1.75l5.26,9.11a3.53,3.53,0,0,1,0,3.5l-5.26,9.11A3.51,3.51,0,0,1,479.2,776.47Zm-8.5-7h6.48l3.24-5.61-3.24-5.61H470.7l-3.24,5.61Z"/><circle class="cls-5" cx="377.58" cy="415.35" r="76.93" transform="translate(-95.74 717.09) rotate(-80.24)"/><path class="cls-4" d="M377.58,495.78A80.43,80.43,0,1,1,458,415.35,80.52,80.52,0,0,1,377.58,495.78Zm0-153.85A73.43,73.43,0,1,0,451,415.35,73.5,73.5,0,0,0,377.58,341.93Z"/><circle class="cls-10" cx="377.58" cy="415.35" r="61.43" transform="translate(-128.89 173.34) rotate(-22.19)"/><circle class="cls-5" cx="377.58" cy="415.35" r="51.01" transform="translate(-129.11 173.81) rotate(-22.24)"/><circle class="cls-10" cx="377.58" cy="415.35" r="36.07" transform="translate(-183.11 388.64) rotate(-45)"/><circle class="cls-5" cx="377.58" cy="415.35" r="22.78"/><rect class="cls-4" x="366.68" y="377.11" width="91.72" height="7" transform="translate(-148.31 403.14) rotate(-44.99)"/><polygon class="cls-4" points="374.86 407.78 372.91 419.68 385.37 418.3 374.86 407.78"/><polygon class="cls-4" points="435.94 357.05 436.1 346.37 451.86 330.61 451.69 341.29 435.94 357.05"/><polygon class="cls-4" points="436.1 357.22 446.79 357.05 462.55 341.29 451.86 341.46 436.1 357.22"/><circle class="cls-6" cx="256.55" cy="591.86" r="118.48"/><path class="cls-4" d="M256.55,713.84a122,122,0,1,1,122-122A122.12,122.12,0,0,1,256.55,713.84Zm0-237a115,115,0,1,0,115,115A115.11,115.11,0,0,0,256.55,476.88Z"/><path class="cls-4" d="M175.47,656.94a3.5,3.5,0,0,1-3.5-3.5v-124a3.5,3.5,0,0,1,7,0v124A3.5,3.5,0,0,1,175.47,656.94Z"/><path class="cls-4" d="M348.93,656.94H175.47a3.5,3.5,0,0,1,0-7H348.93a3.5,3.5,0,1,1,0,7Z"/><rect class="cls-5" x="197.95" y="617.29" width="34.5" height="36.15"/><path class="cls-4" d="M232.45,656.94H198a3.5,3.5,0,0,1-3.5-3.5V617.29a3.5,3.5,0,0,1,3.5-3.5h34.5a3.5,3.5,0,0,1,3.5,3.5v36.15A3.5,3.5,0,0,1,232.45,656.94Zm-31-7H229V620.79h-27.5Z"/><rect class="cls-5" x="242.47" y="582.68" width="34.5" height="70.77"/><path class="cls-4" d="M277,656.94H242.46a3.5,3.5,0,0,1-3.5-3.5V582.68a3.5,3.5,0,0,1,3.5-3.5H277a3.5,3.5,0,0,1,3.5,3.5v70.76A3.5,3.5,0,0,1,277,656.94Zm-31-7h27.51V586.18H246Z"/><rect class="cls-5" x="287.87" y="538.09" width="34.5" height="115.35"/><path class="cls-4" d="M322.38,656.94H287.87a3.5,3.5,0,0,1-3.5-3.5V538.09a3.5,3.5,0,0,1,3.5-3.5h34.51a3.5,3.5,0,0,1,3.5,3.5V653.44A3.5,3.5,0,0,1,322.38,656.94Zm-31-7h27.51V541.59H291.37Z"/></svg>