<svg id="Layer_1" data-name="Layer 1" xmlns="http://www.w3.org/2000/svg" xmlns:xlink="http://www.w3.org/1999/xlink" viewBox="0 0 1000 1000"><defs><style>.cls-1{fill:url(#linear-gradient);}.cls-2,.cls-6{fill:#eceaf4;}.cls-2{opacity:0.7;}.cls-3{fill:#fff;}.cls-4{fill:#706cab;}.cls-5{fill:#a0a1e3;}.cls-10,.cls-7{fill:#231f20;}.cls-7{opacity:0.1;}.cls-8{fill:#f7c778;}.cls-9{opacity:0.05;}.cls-11{fill:#e2e0f0;}</style><linearGradient id="linear-gradient" x1="718.89" y1="2062.39" x2="718.89" y2="1424.89" gradientTransform="matrix(0.62, -0.64, -0.72, -0.7, 1288.58, 2189.55)" gradientUnits="userSpaceOnUse"><stop offset="0" stop-color="#a0a1e3"/><stop offset="1" stop-color="#eceaf4"/></linearGradient></defs><title>Artboard 4</title><path class="cls-1" d="M191.55,763.46c170,116.17,210.56-148.65,350.24-163.17S903.38,643,920,489,673.12,156.11,448.56,175.36,21.59,647.29,191.55,763.46Z"/><path class="cls-2" d="M541.79,559.72C402.11,574.23,361.5,839.06,191.55,722.89c-39.43-26.95-58.8-72-62.53-125.56-4.55,71.06,13.49,132.61,62.53,166.13,170,116.17,210.56-148.65,350.24-163.17S903.38,643,920,489a135.86,135.86,0,0,0-.78-34.51C897.44,600.91,679.59,545.4,541.79,559.72Z"/><rect class="cls-3" x="198.43" y="262.49" width="570.5" height="417.59" rx="26.7" ry="26.7"/><path class="cls-4" d="M742.23,683.14H225.13a29.8,29.8,0,0,1-29.76-29.77V289.19a29.8,29.8,0,0,1,29.76-29.77h517.1A29.8,29.8,0,0,1,772,289.19V653.37A29.8,29.8,0,0,1,742.23,683.14ZM225.13,265.55a23.66,23.66,0,0,0-23.63,23.64V653.37A23.66,23.66,0,0,0,225.13,677h517.1a23.66,23.66,0,0,0,23.63-23.64V289.19a23.66,23.66,0,0,0-23.63-23.64Z"/><path class="cls-5" d="M743.44,262.49H223.92c-14,0-25.49,12.59-25.49,28v35.36h570.5V290.47C768.93,275.08,757.46,262.49,743.44,262.49Z"/><path class="cls-4" d="M769.77,326.67H197.59v-36.2c0-15.89,11.81-28.82,26.33-28.82H743.44c14.52,0,26.33,12.93,26.33,28.82ZM199.27,325H768.09V290.47c0-15-11.06-27.14-24.65-27.14H223.92c-13.59,0-24.65,12.17-24.65,27.14Z"/><circle class="cls-4" cx="234" cy="294.4" r="10.29"/><circle class="cls-4" cx="267.64" cy="294.4" r="10.29"/><circle class="cls-4" cx="301.28" cy="294.4" r="10.29"/><path class="cls-6" d="M752.11,325.83V636.55a26.79,26.79,0,0,1-26.7,26.71H208.32a26.19,26.19,0,0,1-8.48-1.42,26.78,26.78,0,0,0,25.29,18.23h517.1a26.78,26.78,0,0,0,26.7-26.7V325.83Z"/><path class="cls-7" d="M752.11,325.83h16.82V289.19A26.79,26.79,0,0,0,750.7,263.9a26.4,26.4,0,0,1,1.41,8.47Z"/><rect class="cls-4" x="198.43" y="322.76" width="570.5" height="6.13"/><path class="cls-4" d="M742.23,683.14H225.13a29.8,29.8,0,0,1-29.76-29.77V289.19a29.8,29.8,0,0,1,29.76-29.77h517.1A29.8,29.8,0,0,1,772,289.19V653.37A29.8,29.8,0,0,1,742.23,683.14ZM225.13,265.55a23.66,23.66,0,0,0-23.63,23.64V653.37A23.66,23.66,0,0,0,225.13,677h517.1a23.66,23.66,0,0,0,23.63-23.64V289.19a23.66,23.66,0,0,0-23.63-23.64Z"/><path class="cls-8" d="M423.42,438.88a10,10,0,0,1,6,5.12,9.88,9.88,0,0,1,.65,7.85,10,10,0,0,1-5.12,6.1l-68.87,35.52L424.94,529a10.37,10.37,0,0,1-1.52,19.07,10.11,10.11,0,0,1-8-.66l-86.63-44.67a10.27,10.27,0,0,1-5.23-12.43,10,10,0,0,1,5.12-6l86.74-44.79A10.11,10.11,0,0,1,423.42,438.88Z"/><path class="cls-4" d="M420.14,551.26a12.79,12.79,0,0,1-5.9-1.47L327.6,505.11a12.94,12.94,0,0,1-6.55-15.6A12.59,12.59,0,0,1,327.5,482l86.74-44.79a12.74,12.74,0,0,1,10-.83h0a13,13,0,0,1,1.92,24l-64.27,33.15,64.27,33.16a13,13,0,0,1-1.92,24A13.8,13.8,0,0,1,420.14,551.26Zm0-110.23a7.46,7.46,0,0,0-3.48.88l-86.74,44.78a7.32,7.32,0,0,0-3.8,4.45,7.58,7.58,0,0,0,3.88,9.21L416.68,545a7.47,7.47,0,0,0,5.93.48,7.71,7.71,0,0,0,1.11-14.15l-68.87-35.53a2.66,2.66,0,0,1,0-4.74l68.87-35.52a7.39,7.39,0,0,0,3.8-4.54,7.7,7.7,0,0,0-4.92-9.62A8.12,8.12,0,0,0,420.16,441Z"/><path class="cls-8" d="M510.38,405.75a9.78,9.78,0,0,1,8,.11,10,10,0,0,1,5.45,5.77,9.55,9.55,0,0,1-.11,7.85l-59.61,134.8a10.25,10.25,0,0,1-13.62,5.34,10.34,10.34,0,0,1-5.56-5.67,10.08,10.08,0,0,1,.22-8l59.61-134.8A9.93,9.93,0,0,1,510.38,405.75Z"/><path class="cls-4" d="M454.63,563.22A13.47,13.47,0,0,1,442.42,555a12.8,12.8,0,0,1,.24-10.07l59.61-134.79a12.55,12.55,0,0,1,7.12-6.85,12.39,12.39,0,0,1,10,.15,12.53,12.53,0,0,1,6.86,7.27,12.05,12.05,0,0,1-.16,9.87L466.5,555.36a13.13,13.13,0,0,1-11.87,7.86Zm59.62-155.59a7.64,7.64,0,0,0-2.87.59l0,0a7.3,7.3,0,0,0-4.19,4l-59.61,134.8a7.46,7.46,0,0,0-.16,5.93,7.65,7.65,0,0,0,4.14,4.17,7.59,7.59,0,0,0,10.09-4L521.23,418.4a6.89,6.89,0,0,0,.08-5.74,7.34,7.34,0,0,0-4.07-4.36A7.21,7.21,0,0,0,514.25,407.63Z"/><path class="cls-8" d="M553.31,439.53l86.74,44.79a10.32,10.32,0,0,1,4.47,13.95,10.27,10.27,0,0,1-4.47,4.47l-86.74,44.67a10.12,10.12,0,0,1-8,.66,10,10,0,0,1-6-5.12,10.41,10.41,0,0,1,4.47-14l69-35.53-69-35.52a10,10,0,0,1-5.12-6.1,9.88,9.88,0,0,1,.65-7.85,10,10,0,0,1,6-5.12A10.12,10.12,0,0,1,553.31,439.53Z"/><path class="cls-4" d="M548.62,551.26a13.25,13.25,0,0,1-4.07-.65,13.05,13.05,0,0,1-1.94-24L607,493.47l-64.37-33.15a13,13,0,1,1,11.92-23.16h0L641.28,482a13,13,0,0,1,5.61,17.54,12.86,12.86,0,0,1-5.61,5.62l-86.75,44.68A12.83,12.83,0,0,1,548.62,551.26Zm0-110.23a8.23,8.23,0,0,0-2.45.39,7.32,7.32,0,0,0-4.42,3.8,7.22,7.22,0,0,0-.49,5.8,7.3,7.3,0,0,0,3.8,4.55l69,35.53a2.67,2.67,0,0,1,0,4.75l-69,35.52a7.37,7.37,0,0,0-3.8,4.53,7.7,7.7,0,0,0,4.93,9.63,7.47,7.47,0,0,0,5.91-.49l86.74-44.68a7.56,7.56,0,0,0,3.32-3.32,7.44,7.44,0,0,0,.48-5.92,7.34,7.34,0,0,0-3.8-4.43l-86.74-44.78A7.46,7.46,0,0,0,548.61,441Z"/><path class="cls-5" d="M895,446.14V414.79H870.08a65.48,65.48,0,0,0-7.63-18.45l17.61-17.61L857.9,356.56l-17.62,17.62a65.42,65.42,0,0,0-18.44-7.63V341.62H790.49v24.93A65.36,65.36,0,0,0,772,374.18l-17.62-17.62-22.16,22.17,17.61,17.61a66.07,66.07,0,0,0-7.63,18.45H717.32v31.35h24.92a65.89,65.89,0,0,0,7.63,18.44L732.26,482.2l22.16,22.17L772,486.75a65.36,65.36,0,0,0,18.45,7.63V519.3h31.35V494.38a65.42,65.42,0,0,0,18.44-7.63l17.62,17.62,22.16-22.17-17.61-17.62a65.3,65.3,0,0,0,7.63-18.44Zm-88.84,18.44a34.12,34.12,0,1,1,34.12-34.12A34.13,34.13,0,0,1,806.16,464.58Z"/><path class="cls-4" d="M821.84,522.37H790.49a3.06,3.06,0,0,1-3.07-3.07V496.74a68.45,68.45,0,0,1-14.88-6.15l-15.95,16a3.06,3.06,0,0,1-2.17.89h0a3.1,3.1,0,0,1-2.17-.89l-22.16-22.17a3.07,3.07,0,0,1,0-4.34L746,464.08a68.45,68.45,0,0,1-6.15-14.88H717.32a3.07,3.07,0,0,1-3.07-3.06V414.79a3.07,3.07,0,0,1,3.07-3.07h22.56A69,69,0,0,1,746,396.84l-15.94-15.95a3.05,3.05,0,0,1,0-4.33l22.16-22.17a3.16,3.16,0,0,1,4.34,0l15.95,15.95a68.48,68.48,0,0,1,14.88-6.16V341.62a3.07,3.07,0,0,1,3.07-3.07h31.35a3.07,3.07,0,0,1,3.06,3.07v22.56a68.48,68.48,0,0,1,14.88,6.16l16-15.95a3.07,3.07,0,0,1,4.34,0l22.16,22.17a3.05,3.05,0,0,1,0,4.33l-15.94,15.95a68.45,68.45,0,0,1,6.15,14.88H895a3.07,3.07,0,0,1,3.07,3.07v31.35A3.07,3.07,0,0,1,895,449.2H872.44a68.24,68.24,0,0,1-6.15,14.88L882.23,480a3.07,3.07,0,0,1,0,4.34l-22.16,22.17a3.08,3.08,0,0,1-4.34,0l-16-16a68.45,68.45,0,0,1-14.88,6.15V519.3A3.06,3.06,0,0,1,821.84,522.37Zm-28.29-6.13h25.22V494.38a3.05,3.05,0,0,1,2.34-3,62.45,62.45,0,0,0,17.58-7.27,3.06,3.06,0,0,1,3.76.45L857.9,500l17.83-17.83-15.45-15.45a3.06,3.06,0,0,1-.45-3.76,62.33,62.33,0,0,0,7.27-17.58,3.06,3.06,0,0,1,3-2.34h21.85V417.85H870.08a3.05,3.05,0,0,1-3-2.33,62.21,62.21,0,0,0-7.27-17.58,3.07,3.07,0,0,1,.45-3.77l15.45-15.44L857.9,360.89l-15.45,15.45a3.07,3.07,0,0,1-3.76.46,62.16,62.16,0,0,0-17.58-7.27,3.07,3.07,0,0,1-2.34-3V344.69H793.55v21.85a3.05,3.05,0,0,1-2.34,3,62.48,62.48,0,0,0-17.58,7.28,3.07,3.07,0,0,1-3.76-.46l-15.45-15.45-17.83,17.84L752,394.17a3.09,3.09,0,0,1,.46,3.77,62.23,62.23,0,0,0-7.28,17.58,3.05,3.05,0,0,1-3,2.33H720.39v25.22h21.85a3.06,3.06,0,0,1,3,2.34A62.48,62.48,0,0,0,752.5,463a3.07,3.07,0,0,1-.46,3.76L736.59,482.2,754.42,500l15.45-15.45a3.06,3.06,0,0,1,3.76-.45,62.45,62.45,0,0,0,17.58,7.27,3.05,3.05,0,0,1,2.34,3Zm12.61-48.59a37.19,37.19,0,1,1,37.19-37.19A37.23,37.23,0,0,1,806.16,467.65Zm0-68.24a31.05,31.05,0,1,0,31.05,31A31.09,31.09,0,0,0,806.16,399.41Z"/><g class="cls-9"><path class="cls-10" d="M811.74,361.5a65.41,65.41,0,0,1,10.1,3.37V341.62h-10.1Z"/><path class="cls-10" d="M762,369.13c1.06-.64,2.15-1.22,3.24-1.8l-10.77-10.77-2.52,2.52Z"/><path class="cls-10" d="M870,373.68,852.36,391.3A65.89,65.89,0,0,1,860,409.74h8.63a65.21,65.21,0,0,0-6.17-13.4l17.61-17.61L857.9,356.56l-2.53,2.52Z"/><path class="cls-10" d="M786.16,458.06a34.09,34.09,0,0,1,29.91-60.24,34.1,34.1,0,1,0-29.91,60.24Z"/><path class="cls-10" d="M732.15,441.09H717.32v5.05h16.29Q732.78,443.65,732.15,441.09Z"/><path class="cls-10" d="M895,446.14V414.79H884.91v26.3H860a65.89,65.89,0,0,1-7.63,18.44L870,477.15,850.33,496.8l7.57,7.57,22.16-22.17-17.61-17.62a65.3,65.3,0,0,0,7.63-18.44Z"/><path class="cls-10" d="M830.19,481.7a65.36,65.36,0,0,1-18.45,7.63v24.93H790.49v5h31.35V494.38a65.67,65.67,0,0,0,15.2-5.83Z"/><path class="cls-10" d="M780.39,489.33A65.42,65.42,0,0,1,762,481.7l-15.09,15.1,7.56,7.57L772,486.75a64.9,64.9,0,0,0,8.35,4.26Z"/></g><path class="cls-5" d="M738.65,625.18l20-11.06-8.79-15.93A47.83,47.83,0,0,0,759,586.81l17.47,5,6.34-22-17.47-5a47.9,47.9,0,0,0-1.63-14.47l15.92-8.8-11.06-20-15.92,8.8a47.39,47.39,0,0,0-11.39-9.09l5-17.48-22-6.34-5,17.47a47.63,47.63,0,0,0-14.48,1.64L696,500.59l-20,11.06,8.79,15.93A47.83,47.83,0,0,0,675.66,539l-17.47-5-6.34,22,17.47,5A47.59,47.59,0,0,0,671,575.42L655,584.22l11.06,20,15.92-8.8a47.54,47.54,0,0,0,11.38,9.09l-5,17.48,22,6.34,5-17.47a47.63,47.63,0,0,0,14.48-1.64Zm-43.13-50.26a24.9,24.9,0,1,1,33.84,9.76A24.89,24.89,0,0,1,695.52,574.92Z"/><path class="cls-4" d="M710.34,631.42a2.73,2.73,0,0,1-.85-.12l-22-6.34a3.06,3.06,0,0,1-2.09-3.79L689.8,606a50.64,50.64,0,0,1-8.36-6.68l-13.87,7.66a3,3,0,0,1-2.33.26,3.05,3.05,0,0,1-1.84-1.46l-11.06-20a3.07,3.07,0,0,1,1.2-4.17l13.87-7.66a51.47,51.47,0,0,1-1.2-10.63L651,558.85a3,3,0,0,1-1.84-1.46,3.07,3.07,0,0,1-.26-2.34l6.34-22A3.07,3.07,0,0,1,659,531l15.21,4.39a50.64,50.64,0,0,1,6.68-8.36l-7.66-13.87a3.06,3.06,0,0,1,1.2-4.16l20-11.06a3.07,3.07,0,0,1,4.17,1.2L706.33,513a50.13,50.13,0,0,1,10.63-1.2l4.39-15.22a3.09,3.09,0,0,1,3.8-2.1l22,6.35a3.05,3.05,0,0,1,2.1,3.79l-4.39,15.22a50.64,50.64,0,0,1,8.36,6.68l13.87-7.66a3.07,3.07,0,0,1,4.17,1.2l11.06,20a3.07,3.07,0,0,1-1.2,4.17l-13.87,7.66a51.47,51.47,0,0,1,1.2,10.63l15.21,4.39a3.06,3.06,0,0,1,2.1,3.79l-6.34,22a3.09,3.09,0,0,1-3.8,2.1l-15.21-4.39a51.59,51.59,0,0,1-6.68,8.36l7.66,13.86a3.13,3.13,0,0,1,.26,2.34,3.05,3.05,0,0,1-1.47,1.83l-20,11.06a3.06,3.06,0,0,1-4.16-1.2l-7.66-13.87a50.13,50.13,0,0,1-10.63,1.2l-4.39,15.22a3.09,3.09,0,0,1-1.47,1.83A3,3,0,0,1,710.34,631.42Zm-18.19-11.5,16.09,4.64L712.43,610a3.1,3.1,0,0,1,3.08-2.22,44.33,44.33,0,0,0,13.54-1.53,3.06,3.06,0,0,1,3.49,1.48L739.85,621l14.66-8.09-7.31-13.25a3.06,3.06,0,0,1,.61-3.73,44.83,44.83,0,0,0,8.51-10.66,3.07,3.07,0,0,1,3.51-1.42l14.53,4.19L779,572l-14.53-4.19a3.06,3.06,0,0,1-2.21-3.07,44.7,44.7,0,0,0-1.53-13.55,3.07,3.07,0,0,1,1.48-3.49l13.24-7.31-8.1-14.66L754.11,533a3.07,3.07,0,0,1-3.74-.61,44.74,44.74,0,0,0-10.65-8.5,3.07,3.07,0,0,1-1.42-3.51l4.19-14.53-16.09-4.64-4.19,14.52a3,3,0,0,1-3.08,2.22,44.46,44.46,0,0,0-13.55,1.53A3.07,3.07,0,0,1,702.1,518l-7.31-13.24-14.67,8.09,7.32,13.24a3.07,3.07,0,0,1-.61,3.74,45,45,0,0,0-8.51,10.65,3.07,3.07,0,0,1-3.51,1.43l-14.53-4.19-4.64,16.09L670.17,558a3.06,3.06,0,0,1,2.21,3.07,44.67,44.67,0,0,0,1.53,13.55,3.07,3.07,0,0,1-1.48,3.49l-13.24,7.31,8.1,14.66,13.24-7.31a3,3,0,0,1,3.74.61,44.54,44.54,0,0,0,10.65,8.5,3.07,3.07,0,0,1,1.42,3.51Zm25.21-29a28.15,28.15,0,0,1-7.79-1.11,27.77,27.77,0,1,1,7.79,1.11ZM717.29,541a21.85,21.85,0,1,0,6.08.86A22.21,22.21,0,0,0,717.29,541Z"/><g class="cls-9"><path class="cls-10" d="M660.91,552.54l-7.47-2.16-1.59,5.53,9.22,2.66A48.68,48.68,0,0,1,660.91,552.54Z"/><path class="cls-10" d="M771.2,533.14l-15.92,8.8a47.59,47.59,0,0,1,1.63,14.47l8.24,2.38a47.2,47.2,0,0,0-1.46-8.44l15.92-8.8-11.06-20-2.88,1.6Z"/><path class="cls-10" d="M732.83,512.82a47.27,47.27,0,0,1,8.93,6.62l4.52-15.69-10-2.88Z"/><path class="cls-10" d="M695.52,574.92a24.89,24.89,0,0,1,34.66-33.34,24.89,24.89,0,1,0-34.13,34.2C695.88,575.49,695.68,575.22,695.52,574.92Z"/><path class="cls-10" d="M772.79,567,768,583.44l-17.47-5a47.83,47.83,0,0,1-9.09,11.38l8.79,15.93-17.14,9.47,5.52,10,20-11.06-8.79-15.93A47.83,47.83,0,0,0,759,586.81l17.47,5,6.34-22Z"/><path class="cls-10" d="M721.45,600.84A47.63,47.63,0,0,1,707,602.48l-5,17.47-12-3.46-1.6,5.53,22,6.34,5-17.47a47.6,47.6,0,0,0,11.14-.87Z"/><path class="cls-10" d="M696.37,508.11c1.11-.3,2.23-.55,3.34-.77L696,500.59l-2.89,1.59Z"/><path class="cls-10" d="M684.47,597.92l.52-1.79A47.39,47.39,0,0,1,673.6,587l-13,7.2,5.53,10,15.92-8.8C682.8,596.31,683.63,597.13,684.47,597.92Z"/></g><path class="cls-11" d="M331.12,571.18a37.49,37.49,0,0,0-36.85-44.75A37.42,37.42,0,0,0,276.39,531a64.18,64.18,0,0,0-116.12,37.73c0,.16,0,.31,0,.46a67.6,67.6,0,0,0-59.95,67.15h0A67.6,67.6,0,0,0,168,703.89H313.11a67.59,67.59,0,0,0,67.6-67.6h0A67.59,67.59,0,0,0,331.12,571.18Z"/><path class="cls-4" d="M313.11,706.82H168a70.52,70.52,0,0,1-10.58-140.25,67.1,67.1,0,0,1,119.88-39.33,40.47,40.47,0,0,1,57.17,41.87,70.5,70.5,0,0,1-21.31,137.71ZM224.49,507.38a61.36,61.36,0,0,0-61.29,61.3c0,.16,0,.3,0,.45a2.93,2.93,0,0,1-2.6,2.93A64.66,64.66,0,0,0,168,701H313.11a64.64,64.64,0,0,0,17.23-127,2.94,2.94,0,0,1-2.1-3.39,34.63,34.63,0,0,0-50.46-37.09,2.93,2.93,0,0,1-3.76-.85A61.52,61.52,0,0,0,224.49,507.38Z"/><g class="cls-9"><path class="cls-10" d="M315,547.16a37.88,37.88,0,0,1-.71,7.2A67.25,67.25,0,0,1,331.77,562a37.54,37.54,0,0,0-20.72-31.6A37.32,37.32,0,0,1,315,547.16Z"/><path class="cls-10" d="M351.79,580.92a67.57,67.57,0,0,1-55.5,106.15H151.13a67.21,67.21,0,0,1-38.64-12.14,67.5,67.5,0,0,0,55.46,29H313.11a67.55,67.55,0,0,0,38.68-123Z"/></g><path class="cls-8" d="M217.41,562.2a5.59,5.59,0,0,1,0,7.93,5.5,5.5,0,0,1-4,1.65,19.35,19.35,0,0,0-4.85.48c-.87.23-1.5,1-1.89,2.36a27.9,27.9,0,0,0-.54,6.21v15.49q0,11.83-3.72,17.56a2.38,2.38,0,0,1-.3.36,13.85,13.85,0,0,1-2.42,2.78,18.62,18.62,0,0,1,2.66,3.19,22.33,22.33,0,0,1,3,7.86,51.86,51.86,0,0,1,.82,9.88v15.49q.18,7.09,1.13,8,1.11,1.07,6.32,1.07h2.49a5.42,5.42,0,0,1,4,1.65,5.31,5.31,0,0,1,1.65,4,5.63,5.63,0,0,1-5.61,5.61h-2.49a31.3,31.3,0,0,1-8-.88,13.5,13.5,0,0,1-6.5-3.73,14.46,14.46,0,0,1-3.37-7,39.35,39.35,0,0,1-.83-8.69V638a39.65,39.65,0,0,0-.65-7.81,10.6,10.6,0,0,0-1.3-3.78,6.68,6.68,0,0,0-2.13-2,15.86,15.86,0,0,0-4.14-1.66,5.17,5.17,0,0,1-4.44-4,6.16,6.16,0,0,1,.48-4.25,5.48,5.48,0,0,1,3.37-2.67,19.24,19.24,0,0,0,4.67-2,8.63,8.63,0,0,0,2.25-2.07q1.89-2.9,1.89-11.41V580.83a42.29,42.29,0,0,1,.77-8.69,14.83,14.83,0,0,1,3.37-7,14.16,14.16,0,0,1,6.5-3.72,30.73,30.73,0,0,1,7.87-.89A5.5,5.5,0,0,1,217.41,562.2Z"/><path class="cls-4" d="M216.05,676.39h-2.49a33.94,33.94,0,0,1-8.67-1,16.32,16.32,0,0,1-7.77-4.48,17.23,17.23,0,0,1-4-8.21,42.83,42.83,0,0,1-.89-9.28V638a37.23,37.23,0,0,0-.59-7.26,8.11,8.11,0,0,0-.91-2.85,4.09,4.09,0,0,0-1.33-1.23,13.07,13.07,0,0,0-3.3-1.31,7.84,7.84,0,0,1-6.43-5.92,8.82,8.82,0,0,1,.65-6.13.91.91,0,0,1,.07-.14,8.17,8.17,0,0,1,5-3.92,16.71,16.71,0,0,0,4-1.66,5.74,5.74,0,0,0,1.45-1.32c.55-.9,1.42-3.34,1.42-9.89V580.83a45.5,45.5,0,0,1,.83-9.24,17.61,17.61,0,0,1,4-8.25,17,17,0,0,1,7.72-4.47,34.08,34.08,0,0,1,8.61-1,8.14,8.14,0,0,1,5.9,2.44h0a8.29,8.29,0,0,1-5.91,14.13,18.25,18.25,0,0,0-3.95.33,2.67,2.67,0,0,0-.21.53,26,26,0,0,0-.45,5.52v15.49c0,8.49-1.36,14.71-4.15,19a6,6,0,0,1-.44.56c-.27.4-.56.79-.86,1.16.44.55.85,1.11,1.23,1.69a24.63,24.63,0,0,1,3.34,8.81,53.93,53.93,0,0,1,.88,10.39v15.49a34.36,34.36,0,0,0,.5,6,18.37,18.37,0,0,0,4.28.34h2.49a8.11,8.11,0,0,1,5.85,2.44,8,8,0,0,1,2.43,5.85,8.31,8.31,0,0,1-8.28,8.28Zm-31-60.74a3.43,3.43,0,0,0-.25,2.39,2.49,2.49,0,0,0,2.28,2l.24.05a18.3,18.3,0,0,1,4.85,2,9.25,9.25,0,0,1,3,2.86,12.84,12.84,0,0,1,1.67,4.72,41.92,41.92,0,0,1,.7,8.3v15.49a37.1,37.1,0,0,0,.76,8.1,12,12,0,0,0,2.7,5.73,11.06,11.06,0,0,0,5.28,3,28.47,28.47,0,0,0,7.27.79h2.49a3,3,0,0,0,2.95-2.94,2.64,2.64,0,0,0-.84-2.05,2.8,2.8,0,0,0-2.11-.9h-2.49c-4.45,0-6.81-.52-8.16-1.8-1.13-1.06-1.78-3-2-9.85V638a49.86,49.86,0,0,0-.77-9.36,19.52,19.52,0,0,0-2.58-6.92,15.75,15.75,0,0,0-2.27-2.73,2.66,2.66,0,0,1-.82-2,2.69,2.69,0,0,1,.91-2,11.4,11.4,0,0,0,2-2.23,2.44,2.44,0,0,1,.35-.43c2.13-3.29,3.23-8.71,3.23-16V580.83a30.24,30.24,0,0,1,.61-6.82l0-.14c.84-2.85,2.51-3.85,3.76-4.19a22,22,0,0,1,5.55-.57,2.81,2.81,0,0,0,2.13-.87,2.74,2.74,0,0,0,.87-2.07,2.77,2.77,0,0,0-.87-2.08,2.82,2.82,0,0,0-2.13-.87,28.64,28.64,0,0,0-7.19.8,11.61,11.61,0,0,0-5.25,3,12.36,12.36,0,0,0-2.7,5.73,40.68,40.68,0,0,0-.7,8.1v15.49c0,6.35-.74,10.44-2.33,12.87a.71.71,0,0,1-.1.14A11.17,11.17,0,0,1,192.2,612a22.21,22.21,0,0,1-5.38,2.28A2.74,2.74,0,0,0,185.07,615.65Zm24.33,44.26Z"/><path class="cls-8" d="M267.61,560.55a30.27,30.27,0,0,1,7.86.89,13.84,13.84,0,0,1,6.51,3.72,14.92,14.92,0,0,1,3.37,7,40,40,0,0,1,.83,8.69v15.49c0,5.68.62,9.48,1.89,11.41a8.74,8.74,0,0,0,2.24,2.07,19.33,19.33,0,0,0,4.68,2,5.73,5.73,0,0,1,3.37,2.67,6.16,6.16,0,0,1,.47,4.25,5.17,5.17,0,0,1-4.44,4,15.78,15.78,0,0,0-4.13,1.66,6.47,6.47,0,0,0-2.13,2,10.89,10.89,0,0,0-1.36,3.78,42.69,42.69,0,0,0-.59,7.81v15.49a40,40,0,0,1-.83,8.69,14.55,14.55,0,0,1-3.37,7,13.58,13.58,0,0,1-6.51,3.73,31.68,31.68,0,0,1-8,.88H265a5.63,5.63,0,0,1-5.62-5.61,5.31,5.31,0,0,1,1.65-4,5.44,5.44,0,0,1,4-1.65h2.48q5.2,0,6.33-1.07.94-.88,1.12-8V638a51.79,51.79,0,0,1,.83-9.88,21.4,21.4,0,0,1,2.9-7.86,20,20,0,0,1,2.72-3.19,15.25,15.25,0,0,1-2.49-2.78c-.08-.12-.16-.24-.23-.36q-3.74-5.73-3.73-17.56V580.83a28.63,28.63,0,0,0-.53-6.21c-.4-1.34-1-2.13-1.89-2.36a19.71,19.71,0,0,0-4.91-.48,5.62,5.62,0,0,1,0-11.23Z"/><path class="cls-4" d="M267.49,676.39H265a8.31,8.31,0,0,1-8.29-8.28,8.31,8.31,0,0,1,8.29-8.29h2.48a18.49,18.49,0,0,0,4.29-.34,35.45,35.45,0,0,0,.49-6.1V638a54.67,54.67,0,0,1,.88-10.39,24.1,24.1,0,0,1,3.28-8.81c.41-.59.83-1.15,1.28-1.69a15.49,15.49,0,0,1-1-1.3l-.28-.41c-2.8-4.32-4.16-10.54-4.16-19V580.83a26.78,26.78,0,0,0-.44-5.52,3.24,3.24,0,0,0-.22-.53,18.38,18.38,0,0,0-4-.33,8.29,8.29,0,0,1,0-16.57,33.35,33.35,0,0,1,8.55,1,16.56,16.56,0,0,1,7.77,4.48,17.47,17.47,0,0,1,4,8.21,42.9,42.9,0,0,1,.89,9.28v15.49c0,6.55.87,9,1.42,9.89a6.07,6.07,0,0,0,1.51,1.36,16.94,16.94,0,0,0,4,1.62,8.33,8.33,0,0,1,4.93,3.87l.1.19a8.76,8.76,0,0,1,.66,6,7.87,7.87,0,0,1-6.45,6,13,13,0,0,0-3.33,1.33,4,4,0,0,0-1.26,1.16,8.25,8.25,0,0,0-1,2.9,40.93,40.93,0,0,0-.54,7.26v15.49a42.9,42.9,0,0,1-.89,9.28,17.05,17.05,0,0,1-4,8.23,16.27,16.27,0,0,1-7.73,4.46A34.66,34.66,0,0,1,267.49,676.39ZM265,665.16a2.77,2.77,0,0,0-2.08.87,2.67,2.67,0,0,0-.87,2.08,2.74,2.74,0,0,0,.87,2.07,2.77,2.77,0,0,0,2.08.87h2.48a29.12,29.12,0,0,0,7.3-.8,10.76,10.76,0,0,0,5.23-3,12,12,0,0,0,2.72-5.74,37.2,37.2,0,0,0,.77-8.11V638a46.29,46.29,0,0,1,.63-8.3,13.51,13.51,0,0,1,1.77-4.77,9.06,9.06,0,0,1,2.93-2.79,18.13,18.13,0,0,1,4.88-2l.23-.05a2.55,2.55,0,0,0,2.31-2.1,3.4,3.4,0,0,0-.26-2.28,3,3,0,0,0-1.78-1.37,21.72,21.72,0,0,1-5.3-2.23,11.51,11.51,0,0,1-3-2.75l-.1-.14c-1.58-2.42-2.32-6.51-2.32-12.87V580.83a37,37,0,0,0-.77-8.1A12.26,12.26,0,0,0,280,567a11.26,11.26,0,0,0-5.28-3,28.47,28.47,0,0,0-7.13-.78,3,3,0,0,0-2.95,2.95,2.74,2.74,0,0,0,.87,2.07,2.77,2.77,0,0,0,2.08.87,22.11,22.11,0,0,1,5.59.57c1.27.34,2.93,1.34,3.77,4.19,0,0,0,.09,0,.14a30.93,30.93,0,0,1,.6,6.82v15.49c0,7.33,1.11,12.75,3.29,16.11l.21.31a12.8,12.8,0,0,0,2,2.27,2.62,2.62,0,0,1,.91,2,2.66,2.66,0,0,1-.82,2,18.51,18.51,0,0,0-2.37,2.79,19,19,0,0,0-2.47,6.83,49.44,49.44,0,0,0-.78,9.39v15.49c-.17,7-.82,8.86-2,9.93-1.34,1.27-3.71,1.79-8.16,1.79Zm7.15-5.81Z"/><path class="cls-4" d="M517.63,760.29a2.58,2.58,0,0,1-1-.21,2.62,2.62,0,0,1-1.62-2.43V729.9a2.64,2.64,0,0,1,4.5-1.86l13.87,13.87a2.68,2.68,0,0,1,.77,1.87,2.63,2.63,0,0,1-.77,1.86L519.5,759.51A2.64,2.64,0,0,1,517.63,760.29Zm2.64-24v15l7.51-7.51Z"/><polygon class="cls-8" points="76.07 521.52 90.75 519.03 93.23 504.35 95.73 519.03 110.4 521.52 95.73 524.01 93.23 538.69 90.75 524.01 76.07 521.52"/><polygon class="cls-8" points="420.42 723.55 435.09 721.06 437.58 706.38 440.07 721.06 454.75 723.55 440.07 726.04 437.58 740.72 435.09 726.04 420.42 723.55"/><path class="cls-4" d="M158.1,459.1H146.65a3.06,3.06,0,0,1-2.64-1.52l-5.72-9.92a3,3,0,0,1,0-3L144,434.7a3.06,3.06,0,0,1,2.64-1.52H158.1a3.06,3.06,0,0,1,2.64,1.52l5.72,9.92a3.05,3.05,0,0,1,0,3l-5.72,9.92A3.06,3.06,0,0,1,158.1,459.1ZM148.4,453h7.94l4-6.87-4-6.88H148.4l-4,6.88Z"/><path class="cls-4" d="M62.19,604.3a2.66,2.66,0,0,1-1-.2,2.64,2.64,0,0,1-1.63-2.44V573.92a2.64,2.64,0,0,1,4.5-1.87l13.87,13.88a2.59,2.59,0,0,1,.77,1.86,2.63,2.63,0,0,1-.77,1.87L64.06,603.53A2.67,2.67,0,0,1,62.19,604.3Zm2.64-24v15l7.51-7.51Z"/></svg>