<svg xmlns="http://www.w3.org/2000/svg" xmlns:xlink="http://www.w3.org/1999/xlink" viewBox="0 0 457.51 457.51">
    <defs>
        <style>
            @-webkit-keyframes rotate360 {
                0% {
                    -webkit-transform: rotate(0deg);
                }
                100% {
                    -webkit-transform: rotate(360deg);
                }
            }

            @-webkit-keyframes rotate360reverse {
                0% {
                    -webkit-transform: rotate(0deg);
                }
                100% {
                    -webkit-transform: rotate(-360deg);
                }
            }
            
            .cls-1 {
                fill: url(#radial-gradient);
            }
            
            .cls-2 {
                opacity: 0.26;
                fill: url(#linear-gradient);
            }
            
            .cls-3 {
                fill: url(#linear-gradient-2);
            }
            
            .cls-4 {
                fill: url(#linear-gradient-3);
            }
            
            .cls-5 {
                fill: url(#linear-gradient-4);
                animation: 3s rotate360 infinite linear;
                transform-origin: 50% 50%;
                display: inline-block;
            }
            
            .cls-6 {
                fill: url(#linear-gradient-5);
                animation: 3s rotate360 infinite linear;
                transform-origin: 50% 50%;
                display: inline-block;
            }
            
            .cls-7 {
                fill: url(#linear-gradient-6);
                animation: 3s rotate360 infinite linear;
                transform-origin: 50% 50%;
                display: inline-block;
            }
            
            .cls-8 {
                fill: url(#linear-gradient-7);
                animation: 3s rotate360 infinite linear;
                transform-origin: 50% 50%;
                display: inline-block;
            }
            
            .cls-9 {
                fill: #a0a1e3;
                animation: 15s rotate360 infinite linear;
                transform-origin: 50% 50%;
                display: inline-block;
            }
            
            .cls-10 {
                fill: url(#linear-gradient-8);
                animation: 2.5s rotate360reverse infinite linear;
                transform-origin: 50% 50%;
                display: inline-block;
            }
            
            .cls-11 {
                fill: url(#linear-gradient-9);
                animation: 2.5s rotate360reverse infinite linear;
                transform-origin: 50% 50%;
                display: inline-block;
            }
            
            .cls-12 {
                fill: url(#linear-gradient-10);
                animation: 2.5s rotate360reverse infinite linear;
                transform-origin: 50% 50%;
                display: inline-block;
            }
            
            .cls-13 {
                fill: url(#linear-gradient-11);
                animation: 2.5s rotate360reverse infinite linear;
                transform-origin: 50% 50%;
                display: inline-block;
            }
            
            .cls-14 {
                fill: url(#linear-gradient-12);
                animation: 2.5s rotate360reverse infinite linear;
                transform-origin: 50% 50%;
                display: inline-block;
            }
            
            .cls-15 {
                fill: url(#linear-gradient-13);
                animation: 2.5s rotate360reverse infinite linear;
                transform-origin: 50% 50%;
                display: inline-block;
            }
            
            .cls-16 {
                fill: url(#linear-gradient-14);
                animation: 2.5s rotate360reverse infinite linear;
                transform-origin: 50% 50%;
                display: inline-block;
            }
            
            .cls-17 {
                fill: url(#linear-gradient-15);
                animation: 2.5s rotate360reverse infinite linear;
                transform-origin: 50% 50%;
                display: inline-block;
            }
            
            .cls-18,
            .cls-19,
            .cls-20 {
                isolation: isolate;
            }
            
            .cls-19 {
                font-size: 112.38px;
            }
            
            .cls-19,
            .cls-20 {
                fill: #56539b;
                font-family: supermarket, supermarket;
            }
            
            .cls-20 {
                font-size: 72.83px;
            }
        </style>
        <radialGradient id="radial-gradient" cx="229.79" cy="231.69" r="201.36" gradientTransform="matrix(1, 0, 0, -1, 0, 460.02)" gradientUnits="userSpaceOnUse">
            <stop offset="0.56" stop-color="#a0a1e3" />
            <stop offset="1" stop-color="#706cab" stop-opacity="0" />
        </radialGradient>
        <linearGradient id="linear-gradient" x1="228.77" y1="66.18" x2="228.77" y2="396.37" gradientTransform="matrix(1, 0, 0, -1, 0, 460.02)" gradientUnits="userSpaceOnUse">
            <stop offset="0" stop-color="#a0a1e3" />
            <stop offset="1" stop-color="#eceaf4" />
        </linearGradient>
        <linearGradient id="linear-gradient-2" x1="63.66" y1="250.6" x2="354.93" y2="250.6" gradientTransform="matrix(1, 0, 0, -1, 0, 460.02)" gradientUnits="userSpaceOnUse">
            <stop offset="0" stop-color="#a0a1e3" />
            <stop offset="1" stop-color="#eae8f3" stop-opacity="0" />
        </linearGradient>
        <linearGradient id="linear-gradient-3" x1="366.4" y1="139.43" x2="136.88" y2="271.94" xlink:href="#linear-gradient-2" />
        <linearGradient id="linear-gradient-4" x1="314.33" y1="314.04" x2="457.51" y2="314.04" xlink:href="#linear-gradient-2" />
        <linearGradient id="linear-gradient-5" x1="190.02" y1="74.14" x2="439.59" y2="74.14" xlink:href="#linear-gradient-2" />
        <linearGradient id="linear-gradient-6" x1="0" y1="146.9" x2="143.23" y2="146.9" xlink:href="#linear-gradient-2" />
        <linearGradient id="linear-gradient-7" x1="17.95" y1="388.42" x2="288.28" y2="388.42" xlink:href="#linear-gradient-2" />
        <linearGradient id="linear-gradient-8" x1="303.17" y1="392.81" x2="375.86" y2="392.81" xlink:href="#linear-gradient-2" />
        <linearGradient id="linear-gradient-9" x1="116.26" y1="414.95" x2="232.68" y2="414.95" xlink:href="#linear-gradient-2" />
        <linearGradient id="linear-gradient-10" x1="41.25" y1="318.38" x2="57.42" y2="318.38" xlink:href="#linear-gradient-2" />
        <linearGradient id="linear-gradient-11" x1="25.32" y1="188.77" x2="76.12" y2="188.77" xlink:href="#linear-gradient-2" />
        <linearGradient id="linear-gradient-12" x1="111.66" y1="49.15" x2="232.09" y2="49.15" xlink:href="#linear-gradient-2" />
        <linearGradient id="linear-gradient-13" x1="263.31" y1="37.44" x2="289.18" y2="37.44" xlink:href="#linear-gradient-2" />
        <linearGradient id="linear-gradient-14" x1="317.46" y1="78.15" x2="384.84" y2="78.15" xlink:href="#linear-gradient-2" />
        <linearGradient id="linear-gradient-15" x1="409.08" y1="229.71" x2="432.23" y2="229.71" xlink:href="#linear-gradient-2" />
    </defs>
    <title>Asset 20</title>
    <g id="Layer_2" data-name="Layer 2">
        <g id="Layer_1-2" data-name="Layer 1">
            <path class="cls-1" d="M151.16,413.71C48.94,370.37,1.05,251.91,44.41,149.69S206.21-.41,308.41,43s150.11,161.8,106.75,264S253.38,457.07,151.16,413.71Z" />
            <path class="cls-2" d="M164.3,380.73C80.49,345.18,41.23,248.08,76.77,164.27S209.43,41.21,293.24,76.75s123.07,132.62,87.53,216.46S248.1,416.28,164.3,380.73Z" />
            <path class="cls-3" d="M96.77,184.27c35.55-83.8,132.65-123.06,216.46-87.52a164.13,164.13,0,0,1,41.7,25.55,164.14,164.14,0,0,0-61.7-45.55c-83.8-35.54-180.9,3.72-216.46,87.52-29,68.32-8.24,145.47,45.82,190.91A165.29,165.29,0,0,1,96.77,184.27Z" />
            <path class="cls-4" d="M371,145a164.62,164.62,0,0,1-.2,128.24C335.21,357,238.1,396.28,154.3,360.73a164.33,164.33,0,0,1-77.72-68.22,164.55,164.55,0,0,0,87.72,88.22c83.8,35.55,180.91-3.71,216.46-87.52A165,165,0,0,0,371,145Z" />
            <path class="cls-5" d="M450.77,274a2.94,2.94,0,0,1-.51-.05,2.7,2.7,0,0,1-2.15-3.15v0a224.93,224.93,0,0,0-17.85-138.11A221.17,221.17,0,0,0,333.16,31.3c-5.57-2.93-11.39-5.68-17.18-8.16a2.72,2.72,0,0,1,2.12-5h0c6,2.53,11.89,5.35,17.59,8.36A229.24,229.24,0,0,1,453.45,271.84,2.71,2.71,0,0,1,450.77,274Z" />
            <path class="cls-6" d="M228.57,457.51a228.44,228.44,0,0,1-36.27-2.91,2.71,2.71,0,0,1,.86-5.36c92.59,14.95,185.34-30,230.8-112a222.31,222.31,0,0,0,10.41-21.33,2.72,2.72,0,1,1,5,2.12h0a230.71,230.71,0,0,1-10.65,21.85C388.09,413.09,310.62,457.51,228.57,457.51Z" />
            <path class="cls-7" d="M140.5,439.55a2.79,2.79,0,0,1-1.06-.22A228.92,228.92,0,0,1,3.49,188.9a2.71,2.71,0,1,1,5.34.95A223.55,223.55,0,0,0,141.56,434.37a2.7,2.7,0,0,1,1.46,3.54,2.73,2.73,0,0,1-2.52,1.67Z" />
            <path class="cls-8" d="M20.68,143.19a2.79,2.79,0,0,1-1.06-.22,2.71,2.71,0,0,1-1.46-3.54l0-.06A229.12,229.12,0,0,1,286.25,7.31a2.71,2.71,0,1,1-1.37,5.25,223.69,223.69,0,0,0-261.71,129A2.68,2.68,0,0,1,20.68,143.19Z" />
            <path class="cls-9" d="M229,47.91h-3.63a1.81,1.81,0,0,0,0,3.61h3.55a1.81,1.81,0,0,0,0-3.62Zm-12.52.46h-1.06l-1.42.12h-.25l-1,.09a1.81,1.81,0,0,0,.16,3.61h.17c1.17-.11,2.36-.2,3.53-.29a1.81,1.81,0,0,0-.12-3.61ZM204,49.67a1.13,1.13,0,0,0-.26,0l-2.32.34h-.53l-.72.12a1.81,1.81,0,0,0,.28,3.59h.29c1.16-.19,2.34-.37,3.51-.53a1.81,1.81,0,0,0-.25-3.6ZM191.7,51.85H191q-1.29.27-2.58.57h-.1l-.55.12a1.81,1.81,0,0,0,.41,3.57,1.41,1.41,0,0,0,.41,0l3.46-.77a1.81,1.81,0,0,0-.37-3.58Zm-12.16,3a1.77,1.77,0,0,0-.5.07c-1.16.34-2.31.68-3.47,1a1.81,1.81,0,0,0,.54,3.53,1.89,1.89,0,0,0,.53-.08c1.13-.35,2.27-.69,3.4-1a1.81,1.81,0,0,0-.5-3.55Zm-11.92,3.92a1.86,1.86,0,0,0-.61.1c-1.13.42-2.27.84-3.4,1.28a1.81,1.81,0,0,0,1.31,3.37c1.1-.42,2.22-.84,3.32-1.24A1.8,1.8,0,0,0,169.32,60a1.77,1.77,0,0,0-1.7-1.19ZM156,63.46a1.87,1.87,0,0,0-.73.15l-2.9,1.33h0l-.31.15a1.81,1.81,0,0,0,.77,3.44,1.84,1.84,0,0,0,.77-.17c1.06-.5,2.15-1,3.22-1.47a1.81,1.81,0,0,0-.74-3.46ZM144.77,69a1.76,1.76,0,0,0-.84.2c-1.07.57-2.13,1.15-3.19,1.74A1.8,1.8,0,1,0,142.5,74c1-.57,2.08-1.14,3.12-1.69a1.81,1.81,0,0,0-.85-3.4ZM133.91,75.2a1.77,1.77,0,0,0-1,.27l-1.63,1h-.05l-1.26.81a1.81,1.81,0,0,0,2,3l3-1.91A1.81,1.81,0,0,0,134,75Zm-10.4,7a1.84,1.84,0,0,0-1.05.35h0c-.92.67-1.84,1.35-2.75,2a1.81,1.81,0,0,0,2.19,2.88c.94-.71,1.9-1.42,2.85-2.11A1.81,1.81,0,0,0,123.68,82Zm-9.88,7.71a1.8,1.8,0,0,0-1.15.41c-.92.78-1.85,1.57-2.76,2.36a1.81,1.81,0,0,0,2.35,2.69q1.34-1.17,2.7-2.31a1.8,1.8,0,0,0,.21-2.55,1.78,1.78,0,0,0-1.38-.64Zm-9.31,8.37a1.8,1.8,0,0,0-1.26.51l-1.64,1.58h0l-.06.06h0l-.06.06h0c-.23.22-.45.45-.68.68a1.8,1.8,0,0,0,1.15,3.2,1.77,1.77,0,0,0,1.28-.53l2.52-2.49a1.81,1.81,0,0,0-1.25-3.11Zm-8.7,9a1.83,1.83,0,0,0-1.35.59c-.81.9-1.6,1.8-2.39,2.72a1.83,1.83,0,0,0,.18,2.55,1.94,1.94,0,0,0,1.19.44,1.76,1.76,0,0,0,1.36-.63c.77-.89,1.56-1.78,2.35-2.66a1.79,1.79,0,0,0-.13-2.54h0A1.75,1.75,0,0,0,95.62,107.28Zm-8,9.6a1.83,1.83,0,0,0-1.43.69l-.55.72h0l-.07.09h0l-.07.08h0l-.07.08h0l-.06.08h0l-.06.08h0l-.06.08h0l-.06.08h0l-.06.08h0l-.06.08h0l-.07.08h0l-1,1.26a1.8,1.8,0,0,0,.35,2.52h0a1.87,1.87,0,0,0,1.08.36,1.78,1.78,0,0,0,1.45-.73c.71-.94,1.43-1.88,2.15-2.81a1.8,1.8,0,0,0-.29-2.53h0a1.76,1.76,0,0,0-1.11-.38ZM80.27,127a1.82,1.82,0,0,0-1.5.8h0v.05h0v.06h0v0h0v0h0v.06h0v0h0v.06h0v.07h0v.07h0v.07h0v.08h0l-.06.09h0l-1.11,1.7h0a1.82,1.82,0,0,0,.54,2.5,2,2,0,0,0,1,.28,1.78,1.78,0,0,0,1.52-.83c.64-1,1.29-2,2-3a1.81,1.81,0,0,0-1.5-2.82Zm-6.7,10.65a1.81,1.81,0,0,0-1.56.9l-.32.56h0v.06h0v.07h0c-.44.79-.88,1.57-1.31,2.36h0a1.84,1.84,0,0,0,.72,2.45,1.9,1.9,0,0,0,.87.22,1.79,1.79,0,0,0,1.59-.94c.56-1,1.15-2.07,1.73-3.09a1.8,1.8,0,0,0-.67-2.47,1.76,1.76,0,0,0-.9-.24Zm-5.8,11.08a1.82,1.82,0,0,0-1.63,1l-.81,1.7h0v.09h0v.09h0v.07h0v.07h0v.07h0v.22h0v.07h0v.08h0c-.1.2-.19.41-.28.61a1.8,1.8,0,0,0,.87,2.39h0a1.82,1.82,0,0,0,.76.16,1.79,1.79,0,0,0,1.64-1c.49-1.07,1-2.14,1.51-3.2a1.81,1.81,0,0,0-.83-2.42,1.76,1.76,0,0,0-.79-.18Zm-5.08,11.46A1.8,1.8,0,0,0,61,161.37l-.41,1h0v.07h0l-.05.13h0v.05h0v.15h0v.07h0v.07h0v.14h0v.38h0v.14h0v.06h0v.13h0v.06h0c-.09.22-.17.43-.25.65a1.81,1.81,0,0,0,3.31,1.47,1.46,1.46,0,0,0,.07-.19c.42-1.1.85-2.21,1.29-3.3a1.81,1.81,0,0,0-1-2.36,1.91,1.91,0,0,0-.68-.13ZM58.43,172a1.83,1.83,0,0,0-1.72,1.25c-.37,1.15-.74,2.31-1.08,3.47A1.8,1.8,0,0,0,56.77,179a1.88,1.88,0,0,0,.52.08A1.8,1.8,0,0,0,59,177.74c.34-1.12.7-2.26,1.06-3.38a1.81,1.81,0,0,0-1.17-2.28,1.67,1.67,0,0,0-.55-.09ZM55,184a1.81,1.81,0,0,0-1.75,1.38v.08h0v.06h0v.12h0v.05h0c-.18.7-.35,1.41-.51,2.11v.11h0c-.07.33-.14.64-.22,1a1.81,1.81,0,0,0,3.53.79c.26-1.15.54-2.31.82-3.45a1.81,1.81,0,0,0-1.32-2.19,1.61,1.61,0,0,0-.44-.06Zm-2.58,12.26a1.82,1.82,0,0,0-1.78,1.5c-.1.58-.19,1.15-.29,1.73h0v.3h0L50,201.37a1.81,1.81,0,0,0,1.51,2h0a1.31,1.31,0,0,0,.28,0,1.8,1.8,0,0,0,1.78-1.53c.18-1.16.37-2.34.58-3.5a1.81,1.81,0,0,0-1.48-2h-.31Zm-1.7,12.41a1.82,1.82,0,0,0-1.8,1.62v.47l-.34,2.62v0h0v.06h0v.42a1.8,1.8,0,0,0,1.65,1.94h.15a1.79,1.79,0,0,0,1.8-1.66c.1-1.18.21-2.36.33-3.53a1.81,1.81,0,0,0-1.62-2Zm-.83,12.51a1.82,1.82,0,0,0-1.81,1.75v.33h0v.15h0c0,1,0,2.09-.06,3.13a1.82,1.82,0,0,0,1.76,1.84h0a1.8,1.8,0,0,0,1.8-1.79c0-1.17,0-2.37.08-3.54a1.8,1.8,0,0,0-1.75-1.86Zm.06,12.52h-.17A1.81,1.81,0,0,0,48,235.56c0,.72.06,1.43.1,2.15h0v.07h0v.16h0a7.43,7.43,0,0,0,.07,1.24,1.82,1.82,0,0,0,1.8,1.7h.11a1.8,1.8,0,0,0,1.71-1.9h0c-.07-1.17-.13-2.36-.18-3.54a1.8,1.8,0,0,0-1.8-1.74Zm.93,12.5h-.2a1.81,1.81,0,0,0-1.6,2h0a7.21,7.21,0,0,0,.11.92h0c.1.86.21,1.71.32,2.56a1.82,1.82,0,0,0,1.75,1.7h.23a1.8,1.8,0,0,0,1.56-2c-.15-1.17-.29-2.35-.42-3.52a1.8,1.8,0,0,0-1.8-1.61Zm1.81,12.4h-.33a1.79,1.79,0,0,0-1.45,2.07v0c.09.51.18,1,.28,1.52v.15h0c.07.39.15.77.22,1.15h0v.15h0a3,3,0,0,0,.11.58,1.82,1.82,0,0,0,1.77,1.44h.36a1.81,1.81,0,0,0,1.42-2.12h0c-.23-1.15-.45-2.32-.66-3.48a1.8,1.8,0,0,0-1.78-1.48Zm2.67,12.24a1.74,1.74,0,0,0-.45.06,1.8,1.8,0,0,0-1.31,2.18h0l.31,1.21v.16h0l.3,1.13h0v.15c.08.28.15.56.23.84a1.81,1.81,0,0,0,1.74,1.32,1.51,1.51,0,0,0,.48-.07,1.8,1.8,0,0,0,1.27-2.22c-.32-1.14-.62-2.29-.91-3.43a1.8,1.8,0,0,0-1.75-1.36Zm3.51,12a1.88,1.88,0,0,0-.57.09,1.8,1.8,0,0,0-1.15,2.27h0l.23.71v.15h0c.28.85.58,1.71.88,2.56a1.82,1.82,0,0,0,2.35,1,1.8,1.8,0,0,0,1.06-2.24c-.39-1.1-.78-2.23-1.15-3.35a1.78,1.78,0,0,0-1.74-1.15Zm4.33,11.75a1.84,1.84,0,0,0-1.67,2.49.75.75,0,0,0,.11.28v0h0l.56,1.35h0v.09h0v.05h0c.19.46.39.91.58,1.37a1.82,1.82,0,0,0,1.66,1.08,1.75,1.75,0,0,0,.72-.15,1.8,1.8,0,0,0,.95-2.37h0c-.47-1.08-.93-2.18-1.37-3.27A1.82,1.82,0,0,0,63,294.42ZM68.33,306a1.7,1.7,0,0,0-.79.19,1.82,1.82,0,0,0-.83,2.42l.19.37h0c.37.75.75,1.5,1.13,2.24h0l.27.53a1.8,1.8,0,1,0,3.21-1.64c-.54-1-1.07-2.1-1.59-3.16a1.81,1.81,0,0,0-1.63-1Zm5.92,11a1.82,1.82,0,0,0-1.56,2.71h0c.1.17.19.34.29.5h0c.36.62.73,1.24,1.1,1.85h0c.12.21.25.42.38.63a1.81,1.81,0,0,0,3.08-1.89c-.61-1-1.22-2-1.81-3a1.8,1.8,0,0,0-1.57-.9Zm6.68,10.61a1.81,1.81,0,0,0-1.49,2.82l.25.36h0c.53.77,1.06,1.54,1.6,2.3h0l.1.15a1.83,1.83,0,0,0,1.47.76,1.82,1.82,0,0,0,1.43-2.86c-.68-1-1.36-1.94-2-2.91a1.76,1.76,0,0,0-1.5-.79Zm7.4,10.11a1.81,1.81,0,0,0-1.81,1.81,1.86,1.86,0,0,0,.38,1.11l.38.48h0l.07.1h0v.06h0v0h0v.07h0v.06h0v.06h0l.06.07h0l.06.07h0l.06.08h0l.06.07h0l.06.07h0l.06.07h0l.06.08h0v.06h0l.06.06h0v.07h0l.06.07h0v.05h0l.48.59a1.8,1.8,0,0,0,2.54.25,1.82,1.82,0,0,0,.25-2.55c-.75-.91-1.49-1.84-2.22-2.76a1.78,1.78,0,0,0-1.42-.69Zm8.09,9.57a1.75,1.75,0,0,0-1.22.47,1.8,1.8,0,0,0-.12,2.54h0l.6.67h0l.06.06h0l.06.06h0l0,.06h0c.47.52,1,1,1.44,1.55h0l.07.08h0a1.81,1.81,0,0,0,2.76-2.35l-.14-.14c-.8-.85-1.61-1.73-2.4-2.6a1.79,1.79,0,0,0-1.34-.59Zm8.74,9a1.8,1.8,0,0,0-1.25,3.11l.16.16h0l.07.06h0l.06.06h0l.07.07h0l1.6,1.61h0l.07.06h0l.06.05h0l.06.06h0l.07.07h0l.25.22a1.81,1.81,0,0,0,2.57-2.55.43.43,0,0,0-.12-.11c-.86-.79-1.73-1.61-2.58-2.42a1.75,1.75,0,0,0-1.25-.5Zm9.35,8.33a1.81,1.81,0,0,0-1.16,3.2l.7.58h0l.08.07h0l.08.07h0l.08.06h0l.07.06h0l.06.06h0l.07.06h0l.06,0h0l.06.05h0l.07.06h.06l.07.06h0l.07.05h0l.06.05h0l.08.06h0l.16.13h0l.08.06h0l.09.07h0l.08.07h0l.44.36a1.81,1.81,0,1,0,2.4-2.72l-.15-.11c-.92-.73-1.84-1.49-2.75-2.24a1.79,1.79,0,0,0-1.15-.42Zm9.86,7.74a1.84,1.84,0,0,0-1.47.76,1.82,1.82,0,0,0,.41,2.52c.75.53,1.49,1.06,2.25,1.58h0l.06,0h0l.08.06h0l.47.32a1.8,1.8,0,0,0,2.5-.45v0a1.78,1.78,0,0,0-.44-2.49l0,0c-1-.67-1.94-1.35-2.89-2a1.81,1.81,0,0,0-1.06-.34Zm10.4,7a1.81,1.81,0,0,0-1,3.35c1,.63,2.06,1.25,3.11,1.87a1.81,1.81,0,1,0,1.82-3.12l-3-1.83A1.77,1.77,0,0,0,134.77,379.37Zm10.9,6.19a1.81,1.81,0,0,0-.84,3.42l.79.41h.13l.11.06h0c.69.35,1.37.7,2.07,1a1.8,1.8,0,0,0,2.61-1.62,1.81,1.81,0,0,0-1-1.62c-1-.52-2.12-1.06-3.16-1.61a1.71,1.71,0,0,0-.83-.21ZM157,391a1.81,1.81,0,0,0-.73,3.46l.22.1h.05l1.57.68h.19l.17.07h0l.53.22h0l.22.09a1.79,1.79,0,0,0,.68.13,1.81,1.81,0,0,0,.69-3.48l-1.41-.59-1.85-.8a1.8,1.8,0,0,0-.73-.15Zm11.65,4.62a1.81,1.81,0,0,0-.61,3.52l2.75,1h.05l.56.19a1.88,1.88,0,0,0,.57.09,1.81,1.81,0,0,0,.57-3.52c-1.11-.37-2.24-.76-3.35-1.16a1.78,1.78,0,0,0-.61-.11Zm12,3.77a1.8,1.8,0,0,0-.49,3.54l.23.07h.06l3.17.85a2.3,2.3,0,0,0,.45.05,1.8,1.8,0,0,0,.45-3.55c-1.14-.3-2.29-.61-3.42-.93a2,2,0,0,0-.49-.06Zm12.19,3a1.81,1.81,0,0,0-.36,3.58l1.94.39h.46l1.15.21h.32a1.8,1.8,0,0,0,.33-3.58l-3.48-.68a1.15,1.15,0,0,0-.37,0Zm12.34,2a1.81,1.81,0,0,0-.25,3.6l1,.13h.3c.77.09,1.53.19,2.3.27h.2a1.81,1.81,0,0,0,.2-3.6c-1.16-.13-2.35-.28-3.51-.43h-.24Zm12.47,1.21a1.81,1.81,0,0,0-.11,3.61l1.57.1h2.11a1.81,1.81,0,0,0,.08-3.61c-1.18-.05-2.37-.11-3.54-.18Zm16.1.26h0c-1.18,0-2.37.06-3.54.07a1.81,1.81,0,0,0,0,3.62h0c1.08,0,2.17,0,3.25-.06h.38a1.82,1.82,0,0,0,1.79-1.84,1.8,1.8,0,0,0-1.84-1.78h0Zm12.51-.8H246c-1.17.12-2.36.22-3.53.32a1.81,1.81,0,0,0,.14,3.61h.15l1.73-.14h.19l1.68-.16a1.81,1.81,0,0,0-.17-3.61Zm12.41-1.67h-.3c-1.16.2-2.34.39-3.5.56a1.81,1.81,0,0,0,.26,3.6h.28l.61-.09h.13l2.06-.33h.16l.61-.1a1.81,1.81,0,0,0-.31-3.59Zm12.27-2.54a1.58,1.58,0,0,0-.43.05c-1.14.28-2.3.55-3.45.8a1.81,1.81,0,0,0,.39,3.58,1.75,1.75,0,0,0,.4-.05h.66l.33-.07h.58l2-.47a1.81,1.81,0,0,0-.44-3.56Zm12.07-3.39a1.76,1.76,0,0,0-.55.09c-1.12.36-2.26.71-3.39,1a1.81,1.81,0,0,0,1,3.47c1.16-.34,2.32-.7,3.47-1.07a1.81,1.81,0,0,0-.55-3.53Zm11.83-4.17a1.74,1.74,0,0,0-.67.13c-1.09.43-2.21.86-3.31,1.27a1.81,1.81,0,0,0,1.26,3.39l.88-.33h.15l.16-.06h.1l.21-.08h.29l1.36-.53a1.81,1.81,0,0,0-.67-3.49Zm11.48-5a1.65,1.65,0,0,0-.78.18l-3.22,1.5a1.81,1.81,0,0,0,.75,3.45,1.9,1.9,0,0,0,.75-.16c1-.47,2.07-1,3.11-1.45h.05a1.81,1.81,0,0,0-.78-3.44Zm11.1-5.81a1.78,1.78,0,0,0-.89.24c-1,.58-2.07,1.16-3.1,1.72a1.81,1.81,0,0,0,.86,3.4,1.83,1.83,0,0,0,.86-.22c1.06-.58,2.12-1.16,3.17-1.76a1.81,1.81,0,0,0-.9-3.38ZM328,375.9a1.8,1.8,0,0,0-1,.3c-1,.65-2,1.3-3,1.93a1.81,1.81,0,1,0,1.94,3.06h0l2.92-1.9h.05a1.81,1.81,0,0,0,.49-2.51,1.78,1.78,0,0,0-1.49-.8Zm10.19-7.29a1.84,1.84,0,0,0-1.1.37c-.93.72-1.88,1.44-2.83,2.14a1.8,1.8,0,0,0-.36,2.53,1.79,1.79,0,0,0,1.44.73,1.73,1.73,0,0,0,1.06-.35q1.23-.88,2.4-1.8h0l.07-.06h.1l.07-.05h0l.08-.06h0l.09-.07a1.81,1.81,0,0,0-1.11-3.24Zm9.66-8a1.78,1.78,0,0,0-1.2.46c-.88.78-1.78,1.56-2.67,2.33a1.83,1.83,0,0,0-.21,2.55,1.85,1.85,0,0,0,1.38.63,1.78,1.78,0,0,0,1.17-.43l1.28-1.1h0l.07-.06h0l.06-.05h.07l1.16-1a1.82,1.82,0,0,0,.15-2.56,1.85,1.85,0,0,0-1.36-.6Zm9.07-8.64a1.8,1.8,0,0,0-1.29.54c-.82.84-1.67,1.69-2.51,2.51a1.81,1.81,0,0,0,0,2.56,1.84,1.84,0,0,0,1.29.54,1.77,1.77,0,0,0,1.26-.51l.36-.35h0l.06-.06.05-.05h0l.05,0h0l.06-.06h0l.07-.07h0l.08-.08h0l.08-.08h0l.8-.8h0l.08-.08h0l.07-.07h0l.07-.06h0l.07-.06h.1l.37-.38a1.8,1.8,0,0,0,0-2.56,1.79,1.79,0,0,0-1.26-.51Zm8.44-9.26a1.81,1.81,0,0,0-1.38.64c-.76.9-1.54,1.8-2.32,2.68a1.81,1.81,0,0,0,2.71,2.4l.78-.9h0l.05-.06h0l0-.06h0l.05-.06h0v-.05l.05-.05h0v-.05h0v-.06h0l.06-.07h0l.05-.06h0l.06-.06h0l0-.06h0v-.06h0v-.06h0v0h0l.05-.05h0c.16-.19.32-.37.47-.56a1.82,1.82,0,0,0-.17-2.56,1.77,1.77,0,0,0-1.21-.44Zm7.77-9.83a1.78,1.78,0,0,0-1.46.74c-.7.94-1.41,1.9-2.13,2.83a1.81,1.81,0,1,0,2.87,2.21h0l1.13-1.49h0l.06-.07h0l.05-.07h0v0h0v-.05h0l.05-.07h0l0-.08h0l.6-.81a1.8,1.8,0,0,0-.39-2.53h0a1.73,1.73,0,0,0-1.06-.35Zm7-10.36a1.8,1.8,0,0,0-1.53.85c-.63,1-1.28,2-1.92,3a1.8,1.8,0,1,0,3,2h0q1-1.5,1.95-3a1.81,1.81,0,0,0-.55-2.5h0a1.74,1.74,0,0,0-1-.28Zm6.3-10.82a1.81,1.81,0,0,0-1.59.95c-.56,1-1.13,2.08-1.71,3.11a1.81,1.81,0,0,0,3.15,1.77c.46-.82.92-1.64,1.37-2.47h0l.05-.1h0v-.1h0l0-.1h0l.05-.1h0l.06-.1h0l.05-.09h0v-.08h0a1.79,1.79,0,0,0-.74-2.45,1.82,1.82,0,0,0-.86-.21ZM392,300.46a1.8,1.8,0,0,0-1.65,1.06c-.49,1.08-1,2.16-1.49,3.22a1.82,1.82,0,0,0,.86,2.41,1.88,1.88,0,0,0,.77.17,1.8,1.8,0,0,0,1.64-1h0c.51-1.09,1-2.18,1.52-3.28a1.81,1.81,0,0,0-.91-2.4,1.85,1.85,0,0,0-.74-.15Zm4.78-11.62a1.81,1.81,0,0,0-1.69,1.19c-.41,1.1-.84,2.22-1.27,3.31a1.83,1.83,0,0,0,1,2.35,1.92,1.92,0,0,0,.66.12,1.79,1.79,0,0,0,1.68-1.15h0v-.06h0v-.06h0v-.17h0v-.08h0c.22-.56.43-1.12.64-1.68h0v-.24h0v-.07h0v-.07h0l.34-.93a1.79,1.79,0,0,0-1.07-2.31h0a1.68,1.68,0,0,0-.63-.12ZM400.7,277a1.82,1.82,0,0,0-1.74,1.3c-.33,1.13-.67,2.27-1,3.39a1.81,1.81,0,0,0,1.18,2.27,2,2,0,0,0,.54.08,1.81,1.81,0,0,0,1.73-1.27c.07-.24.15-.48.22-.72h0c.29-.92.56-1.83.83-2.75a1.79,1.79,0,0,0-1.23-2.23,1.7,1.7,0,0,0-.51-.07Zm3.07-12.15a1.81,1.81,0,0,0-1.76,1.43c-.25,1.15-.52,2.31-.79,3.46a1.8,1.8,0,0,0,1.34,2.17h0a2,2,0,0,0,.42.05,1.81,1.81,0,0,0,1.76-1.39l.12-.49h0V270h0v-.05h0v-.06h0v-.06h0l.3-1.31h0v-.24h0l.24-1.11A1.82,1.82,0,0,0,404,265h-.39ZM406,252.47A1.82,1.82,0,0,0,404.2,254c-.16,1.17-.34,2.35-.54,3.51a1.82,1.82,0,0,0,1.5,2.07h.29a1.8,1.8,0,0,0,1.78-1.51c.2-1.2.38-2.39.56-3.59a1.8,1.8,0,0,0-1.54-2H406ZM407.34,240a1.81,1.81,0,0,0-1.8,1.68c-.09,1.17-.19,2.36-.3,3.53a1.83,1.83,0,0,0,1.63,2h.18a1.82,1.82,0,0,0,1.8-1.63c.07-.86.15-1.71.22-2.57h0V243h0v-.07h0v-.17h0a3.54,3.54,0,0,1,.05-.73,1.8,1.8,0,0,0-1.67-1.94h0Zm.46-12.52a1.81,1.81,0,0,0-1.8,1.8c0,1.18,0,2.37-.05,3.55a1.81,1.81,0,0,0,1.76,1.84h0a1.81,1.81,0,0,0,1.81-1.76v-.35h0v-.31h0v-.11h0v-.22h0v-.06h0v-.27h0V231h0v-.06h0v-.06h0v-.13h0v-.33h0v-.12h0v-.13h0v-.21h0v-.56a1.79,1.79,0,0,0-1.79-1.81h0ZM407.39,215h-.13a1.82,1.82,0,0,0-1.68,1.93c.08,1.17.15,2.36.21,3.54a1.82,1.82,0,0,0,1.8,1.72h.09a1.8,1.8,0,0,0,1.73-1.88h0c-.06-1.2-.13-2.41-.21-3.61a1.8,1.8,0,0,0-1.8-1.68Zm-1.3-12.47h-.25a1.81,1.81,0,0,0-1.54,2c.16,1.17.31,2.35.45,3.52a1.82,1.82,0,0,0,1.8,1.59h.22a1.81,1.81,0,0,0,1.59-2c0-.3-.08-.6-.11-.9h0v-.16h0v-.28h0v-.71h0v-.1h0v-.17h0V205h0v-.16h0v-.21h0v-.34a1.81,1.81,0,0,0-1.79-1.56Zm-2.16-12.34a1.21,1.21,0,0,0-.38,0,1.81,1.81,0,0,0-1.39,2.14c.24,1.16.48,2.32.7,3.48a1.81,1.81,0,0,0,1.77,1.47,1.93,1.93,0,0,0,.34,0,1.82,1.82,0,0,0,1.44-2.12c-.18-.92-.36-1.85-.55-2.77h0v-.31h0l-.09-.47a1.79,1.79,0,0,0-1.77-1.43Zm-3-12.16a1.66,1.66,0,0,0-.49.07,1.82,1.82,0,0,0-1.25,2.24c.33,1.13.64,2.28.94,3.41a1.82,1.82,0,0,0,2.25,1.23,1.79,1.79,0,0,0,1.25-2.15v-.27h0v-.34h0V182h0l-.05-.19h0v-.07h0l-.66-2.38a1.8,1.8,0,0,0-1.74-1.3Zm-3.85-11.92a1.66,1.66,0,0,0-.62.11,1.8,1.8,0,0,0-1.08,2.3h0c.4,1.11.79,2.23,1.17,3.35a1.82,1.82,0,0,0,1.71,1.22,1.85,1.85,0,0,0,.58-.09,1.82,1.82,0,0,0,1.14-2.3c-.28-.81-.56-1.62-.85-2.43v-.11h0c-.1-.27-.2-.54-.29-.81a1.78,1.78,0,0,0-1.7-1.19Zm-4.67-11.63a1.76,1.76,0,0,0-.74.16,1.82,1.82,0,0,0-.92,2.38c.48,1.08.95,2.17,1.41,3.26a1.83,1.83,0,0,0,1.61,1.11,1.86,1.86,0,0,0,.7-.14,1.81,1.81,0,0,0,1-2.35v0l-.15-.37h0v-.12h0c-.39-.92-.78-1.83-1.19-2.74h0a1.78,1.78,0,0,0-1.65-1.08Zm-5.47-11.28a1.82,1.82,0,0,0-1.8,1.83,1.85,1.85,0,0,0,.2.83c.55,1,1.1,2.1,1.63,3.15a1.81,1.81,0,0,0,1.61,1,1.9,1.9,0,0,0,.82-.19,1.81,1.81,0,0,0,.8-2.42c-.5-1-1-2-1.54-3h0l-.05-.09a1.79,1.79,0,0,0-1.6-1Zm-6.27-10.81a1.8,1.8,0,0,0-1.53,2.75h0c.62,1,1.24,2,1.84,3a1.82,1.82,0,1,0,3.17-1.77l-.06-.08c-.46-.77-.93-1.55-1.4-2.31h0l-.4-.65a1.8,1.8,0,0,0-1.54-.84Zm-7-10.41a1.81,1.81,0,0,0-1.81,1.81,1.83,1.83,0,0,0,.34,1.06c.69,1,1.38,1.92,2.05,2.89a1.82,1.82,0,0,0,1.49.78,1.85,1.85,0,0,0,1-.32,1.8,1.8,0,0,0,.45-2.52h0l-.29-.42h0l-.08-.12h0c-.23-.34-.46-.66-.7-1h0v-.06h0v0h0l-.63-.87a1.79,1.79,0,0,0-1.46-.75Zm-7.69-9.9a1.79,1.79,0,0,0-1.83,1.78,1.81,1.81,0,0,0,.44,1.22c.76.9,1.51,1.83,2.25,2.74a1.8,1.8,0,0,0,2.53.29h0a1.8,1.8,0,0,0,.28-2.54h0l-.14-.17h0l-.07-.09h0l-.14-.17h0l-.06-.08h0l-.06-.08h0l-.06-.07h0l-.06-.07h0v-.06h0l-.05-.06h0l0-.06h0v-.06h0l-.07-.09h0c-.15-.17-.29-.35-.43-.52h0l-.13-.15h0l-.07-.09h0v0h0l0-.06h0l-.05-.07h0l-.07-.09h0l-.22-.26a1.81,1.81,0,0,0-1.39-.65Zm-8.36-9.33a1.81,1.81,0,0,0-1.8,1.82,1.86,1.86,0,0,0,.5,1.24c.81.85,1.63,1.72,2.43,2.58a1.83,1.83,0,0,0,1.33.58,1.75,1.75,0,0,0,1.22-.48,1.79,1.79,0,0,0,.12-2.54h0l-.85-.91h0l-.15-.16h0l-.07-.07h0l-.05-.06h0l-.05,0h0l-1.13-1.18a1.82,1.82,0,0,0-1.3-.55Zm-9-8.72a1.81,1.81,0,0,0-1.81,1.81,1.85,1.85,0,0,0,.59,1.34c.88.79,1.75,1.6,2.61,2.4a1.81,1.81,0,0,0,1.24.5,1.86,1.86,0,0,0,1.32-.57,1.81,1.81,0,0,0-.07-2.56h0l-.06-.06h0l-.07-.06h0l-.07-.06h-.05l-.07-.06h0l-.07-.06H352l-.07-.07h0l-.06-.06h0l-.07-.07h0l-.07-.07h0l-.07-.06h0l-.08-.07h0l-.07-.07h0l-.07-.08h0L351.4,96h0L350.23,95a1.8,1.8,0,0,0-1.21-.47ZM339,86a1.81,1.81,0,0,0-1.11,3.23c.92.73,1.85,1.47,2.76,2.21a1.8,1.8,0,0,0,1.15.41A1.82,1.82,0,0,0,343.64,90a1.79,1.79,0,0,0-.67-1.39l-.2-.22h0l-.16-.13h0l-.07-.06h-.06l-.07-.06h-.28l-.06-.06H342L342,88h-.07l-.07-.06h0l-.08-.06h0l-.17-.13h0l-.26-.21h0l-.44-.35h0l-.17-.13h0l-.08-.06h0a1.76,1.76,0,0,0-1.11-.38ZM328.9,78.58a1.81,1.81,0,0,0-1,3.31c1,.66,2,1.33,2.92,2a1.92,1.92,0,0,0,1,.33,1.82,1.82,0,0,0,1.81-1.82,1.78,1.78,0,0,0-.76-1.46h0l-.09-.06h-.13l-.08,0h-.08l-.09-.06h0l-.09-.06h0l-.18-.12h0l-1.2-.83h0l-.08-.06h-.13l-.51-.34a1.77,1.77,0,0,0-1-.31ZM318.27,72a1.8,1.8,0,0,0-.9,3.37l3.05,1.8A1.81,1.81,0,0,0,322.29,74l-1.59-1h-.37l-1-.56a1.67,1.67,0,0,0-.9-.24ZM307.2,66.07a1.81,1.81,0,0,0-.79,3.43c1.06.52,2.13,1,3.17,1.59a1.88,1.88,0,0,0,.83.2,1.81,1.81,0,0,0,.82-3.42h-.1c-1-.53-2.08-1.06-3.14-1.57a1.76,1.76,0,0,0-.79-.18Zm-11.43-5.14a1.81,1.81,0,0,0-.68,3.48c1,.39,1.91.78,2.86,1.19l.42.17a1.78,1.78,0,0,0,.71.15,1.81,1.81,0,0,0,.72-3.47l-.13-.08h-.27L298,61.81h0l-.17-.07h-.22c-.32-.14-.65-.27-1-.39a1.7,1.7,0,0,0-.67-.13ZM284,56.64a1.81,1.81,0,0,0-.56,3.53c1.11.36,2.25.74,3.36,1.13a2.35,2.35,0,0,0,.59.1,1.81,1.81,0,0,0,.6-3.52c-1.15-.4-2.29-.78-3.44-1.15A1.67,1.67,0,0,0,284,56.64Zm-12-3.46a1.81,1.81,0,0,0-.43,3.57c1.14.28,2.29.58,3.43.89a2,2,0,0,0,.47.06,1.81,1.81,0,0,0,.48-3.55c-1.17-.32-2.35-.62-3.52-.92a1.55,1.55,0,0,0-.43,0Zm-12.2-2.6a1.81,1.81,0,0,0-.31,3.59c1.15.2,2.33.42,3.48.65h.35a1.81,1.81,0,0,0,.36-3.58c-1.19-.23-2.39-.45-3.58-.66Zm-12.41-1.73a1.81,1.81,0,0,0-.19,3.61c1.17.12,2.36.26,3.53.4h.22a1.81,1.81,0,0,0,.23-3.6c-1.2-.15-2.41-.28-3.61-.41ZM234.77,48a1.81,1.81,0,0,0-.06,3.62c1.18,0,2.37.09,3.54.15h.1a1.81,1.81,0,0,0,.09-3.61h-2.2l-1.35,0Z" />
            <path class="cls-10" d="M372.24,93.26a3.65,3.65,0,0,1-2.6-1.1,195.54,195.54,0,0,0-64.27-44A3.62,3.62,0,0,1,308,41.4l.21.09a205,205,0,0,1,36.11,19.82,200.79,200.79,0,0,1,30.53,25.82,3.62,3.62,0,0,1-.09,5.12,3.66,3.66,0,0,1-2.51,1Z" />
            <path class="cls-11" d="M119.89,64.84a3.62,3.62,0,0,1-2-6.65c5.48-3.54,11.17-6.82,16.88-9.82s11.7-5.74,17.72-8.17,12.28-4.63,18.46-6.47,12.61-3.41,19-4.66,13-2.21,19.42-2.83,13.19-.95,19.72-.94a3.62,3.62,0,1,1,.38,7.23h-.7c-6.22,0-12.53.3-18.75.91S197.48,35,191.29,36.17,179,38.88,173,40.67s-12,3.86-17.77,6.21-11.56,5-17.09,7.88-11,6.08-16.3,9.5A3.64,3.64,0,0,1,119.89,64.84Z" />
            <path class="cls-12" d="M44.85,154.37a3.82,3.82,0,0,1-1.41-.29,3.62,3.62,0,0,1-1.92-4.71c2.72-6.39,5.75-12.65,9.09-18.73A3.62,3.62,0,0,1,57,134.12C53.75,140,50.8,146,48.18,152.19A3.61,3.61,0,0,1,44.85,154.37Z" />
            <path class="cls-13" d="M72.51,356.89a3.66,3.66,0,0,1-2.84-1.36q-6.11-7.74-11.46-15.93c-3.56-5.45-6.83-11.12-9.84-16.89S42.64,311,40.2,305s-4.6-12.22-6.44-18.42-3.42-12.62-4.66-19-2.21-12.92-2.84-19.41-.94-13.18-.94-19.72.35-13.29,1-19.87,1.68-13.34,3-19.91a3.62,3.62,0,0,1,7.15,1.17,2.61,2.61,0,0,1-.06.27c-1.28,6.33-2.25,12.78-2.89,19.19s-1,12.79-1,19.16.29,12.7.9,19S35,260,36.15,266.17s2.72,12.3,4.5,18.31,3.87,12,6.22,17.77,5,11.56,7.88,17.1,6.09,11,9.49,16.29,7.13,10.43,11,15.37a3.61,3.61,0,0,1-2.82,5.86Z" />
            <path class="cls-14" d="M228.48,432.19h0c-6.61,0-13.29-.34-19.87-1s-13.32-1.67-19.91-3-13.32-3.05-19.8-5.05-13.17-4.45-19.55-7.15a204.55,204.55,0,0,1-36.11-19.81,3.63,3.63,0,0,1,4.1-6,192.82,192.82,0,0,0,16.76,10.34A199.79,199.79,0,0,0,171,416.19c6.25,1.93,12.67,3.57,19.09,4.87a193.1,193.1,0,0,0,19.2,2.89c6.41.64,12.79,1,19.16,1a3.62,3.62,0,0,1,0,7.23Z" />
            <path class="cls-15" d="M266.91,428.49a3.62,3.62,0,0,1-.69-7.17c6.14-1.2,12.3-2.72,18.31-4.5a3.61,3.61,0,1,1,2.06,6.93c-6.22,1.85-12.61,3.42-19,4.67A5.05,5.05,0,0,1,266.91,428.49Z" />
            <path class="cls-16" d="M321.07,409.55a3.62,3.62,0,0,1-1.67-6.83c5.56-2.89,11-6.09,16.29-9.49a186.58,186.58,0,0,0,15.36-11.06c4.93-3.93,9.76-8.16,14.3-12.55s9-9.17,13.11-14a3.62,3.62,0,1,1,5.76,4.38,2.17,2.17,0,0,1-.24.29c-4.26,5-8.83,9.92-13.6,14.53s-9.69,8.94-14.83,13-10.47,7.92-15.92,11.46-11.13,6.84-16.9,9.84A3.57,3.57,0,0,1,321.07,409.55Z" />
            <path class="cls-17" d="M412.68,310.37a3.82,3.82,0,0,1-1.41-.29,3.63,3.63,0,0,1-1.91-4.74c2.61-6.17,4.93-12.52,6.9-18.87a195,195,0,0,0,4.87-19.09A192,192,0,0,0,424,248.19c.64-6.42,1-12.78,1-19.17s-.3-12.71-.9-19-1.53-12.55-2.74-18.72S418.67,179,416.89,173s-3.88-12-6.22-17.77a3.61,3.61,0,1,1,6.7-2.71h0c2.43,6,4.6,12.21,6.45,18.42s3.42,12.63,4.66,19,2.21,12.93,2.83,19.42.95,13.16.95,19.71-.35,13.31-1,19.88a200,200,0,0,1-3,19.9,195.47,195.47,0,0,1-5.05,19.8,205.81,205.81,0,0,1-7.15,19.55A3.63,3.63,0,0,1,412.68,310.37Z" />
            <g class="cls-18"></g>
        </g>
    </g>
</svg>