<?xml version="1.0" encoding="utf-8"?>
<!-- Generator: Adobe Illustrator 22.0.0, SVG Export Plug-In . SVG Version: 6.00 Build 0)  -->
<svg version="1.1" id="Layer_1" xmlns="http://www.w3.org/2000/svg" xmlns:xlink="http://www.w3.org/1999/xlink" x="0px" y="0px"
	 viewBox="0 0 1024 768" style="enable-background:new 0 0 1024 768;" xml:space="preserve">
<style type="text/css">
	.st0{fill:#1C4CA0;stroke:#FFFFFF;stroke-width:4;}
	.st1{fill:#01A7DF;stroke:#FFFFFF;stroke-width:4;}
	.st2{fill:#EC1C24;stroke:#FFFFFF;stroke-width:4;}
	.st3{fill:#38B14A;stroke:#FFFFFF;stroke-width:4;}
	.st4{fill:#1C4CA0;stroke:#FFFFFF;}
	.st5{fill:#01A7DF;stroke:#FFFFFF;}
	.st6{fill:#EC1C24;stroke:#FFFFFF;}
	.st7{fill:#38B14A;stroke:#FFFFFF;}
</style>
<g>
	<g>
		<g>
			<g>
				<g>
					<g>
						<path class="st0" d="M140.2,566.4c-28.8-25.3-36.4-58.1-36.4-86.6c0-20,6.2-54.6,34.3-80.4c21.2-19.4,49-31.1,92.8-31.1
							c18.2,0,29.1,1.2,42.6,2.9c11.2,1.5,20.5,4.1,29.4,5c3.2,0.3,4.4,1.8,4.4,3.5c0,2.3-0.9,5.9-1.5,16.1
							c-0.6,9.7-0.3,25.9-0.9,31.7c-0.3,4.4-0.9,6.8-3.5,6.8c-2.4,0-2.9-2.4-2.9-6.5c-0.3-9.1-4.1-19.4-11.5-27
							c-9.7-10.3-32.6-18.2-59.6-18.2c-25.5,0-42.3,6.5-55.2,18.2c-21.4,19.6-27,47.6-27,76c0,69.9,53.1,104.5,92.5,104.5
							c26.1,0,42-3,53.7-16.5c5-5.6,8.8-14.1,10-19.4c0.9-4.7,1.5-5.9,3.8-5.9c2,0,2.6,2.1,2.6,4.4c0,3.5-3.5,29.1-6.5,39.1
							c-1.5,5-2.6,6.5-7.6,8.5c-11.7,4.7-34.1,6.8-52.9,6.8C200.6,598.3,166.9,589.5,140.2,566.4z"/>
						<path class="st0" d="M350.1,456.9c0-46.2,0-54.7-0.6-64.4c-0.6-10.3-3-15.2-13.1-17.3c-2.4-0.6-7.6-0.9-11.8-0.9
							c-3.4,0-5.2-0.6-5.2-2.7c0-2.1,2.1-2.7,6.7-2.7c16.1,0,35.2,0.9,43.8,0.9c12.5,0,30.1-0.9,44.1-0.9c38,0,51.7,12.8,56.5,17.3
							c6.7,6.4,15.2,20.1,15.2,36.2c0,43.1-31.6,73.5-74.7,73.5c-1.5,0-4.9,0-6.4-0.3c-1.5-0.3-3.7-0.6-3.7-2.7
							c0-2.4,2.2-3.4,8.5-3.4c17,0,40.7-19.1,40.7-50.1c0-10-0.9-30.4-17.9-45.6c-10.9-10-23.4-11.8-30.4-11.8
							c-4.5,0-9.1,0.3-11.8,1.2c-1.5,0.6-2.4,2.4-2.4,5.8v121.5c0,28,0,52,1.6,65c0.9,8.5,2.7,15.2,11.8,16.4
							c4.3,0.6,11,1.2,15.5,1.2c3.3,0,4.9,0.9,4.9,2.4c0,2.1-2.4,3-5.8,3c-20,0-39.2-0.9-47.1-0.9c-7,0-26.1,0.9-38.3,0.9
							c-3.9,0-6.1-0.9-6.1-3c0-1.5,1.2-2.4,4.8-2.4c4.6,0,8.2-0.6,11-1.2c6.1-1.2,7.6-7.9,8.8-16.7c1.5-12.7,1.5-36.8,1.5-64.7
							V456.9z"/>
						<path class="st0" d="M547.4,538.6c-1.2,0-1.6,0.5-2.1,1.8L533,573.2c-2.3,5.7-3.4,11.2-3.4,14c0,4.1,2.1,7.1,9.2,7.1h3.4
							c2.8,0,3.4,0.5,3.4,1.8c0,1.8-1.4,2.3-3.9,2.3c-7.3,0-17.2-0.7-24.3-0.7c-2.5,0-15.1,0.7-27,0.7c-3,0-4.4-0.5-4.4-2.3
							c0-1.4,0.9-1.8,2.7-1.8c2.1,0,5.3-0.2,7.1-0.4c10.5-1.4,14.9-9.2,19.5-20.6l57.5-143.9c2.8-6.6,4.1-9.2,6.4-9.2
							c2,0,3.4,2.1,5.7,7.3c5.5,12.6,42.2,106.1,56.8,140.9c8.7,20.6,15.4,23.8,20.2,25c3.5,0.7,6.9,0.9,9.6,0.9c1.8,0,3,0.2,3,1.8
							c0,1.8-2.1,2.3-10.6,2.3c-8.2,0-25,0-43.3-0.5c-4.1-0.2-6.9-0.2-6.9-1.8c0-1.4,0.9-1.8,3.2-2.1c1.6-0.5,3.2-2.5,2.1-5.3
							l-18.3-48.6c-0.5-1.1-1.2-1.6-2.3-1.6H547.4z M594.2,527.2c1.2,0,1.4-0.7,1.2-1.4l-20.6-56.6c-0.2-0.9-0.4-2.1-1.1-2.1
							c-0.7,0-1.1,1.1-1.4,2.1l-21.1,56.4c-0.2,0.9,0,1.6,0.9,1.6H594.2z"/>
						<path class="st0" d="M727.9,529.3c0,30.1,0,46.3,4.9,50.5c4,3.5,10.1,5.2,28.5,5.2c12.5,0,21.6-0.2,27.5-6.6
							c2.8-3,5.7-9.6,6.1-14.1c0.2-2.1,0.7-3.5,2.6-3.5c1.6,0,1.9,1.2,1.9,4c0,2.6-1.6,20.2-3.5,27c-1.4,5.2-2.6,6.4-14.8,6.4
							c-16.9,0-29.1-0.5-39.7-0.7c-10.6-0.5-19-0.7-28.7-0.7c-2.6,0-7.8,0-13.4,0.2c-5.4,0-11.5,0.5-16.2,0.5
							c-3.1,0-4.7-0.7-4.7-2.3c0-1.2,1-1.9,3.8-1.9c3.5,0,6.4-0.5,8.5-0.9c4.7-0.9,5.9-6.1,6.8-13c1.2-9.9,1.2-28.4,1.2-50v-41.4
							c0-35.7,0-42.3-0.5-49.8c-0.5-8-2.3-11.8-10.1-13.4c-1.9-0.5-4.7-0.7-7.8-0.7c-2.6,0-4-0.5-4-2.1c0-1.6,1.6-2.1,5.2-2.1
							c11.1,0,25.8,0.7,32.2,0.7c5.6,0,22.8-0.7,32-0.7c3.3,0,4.9,0.5,4.9,2.1c0,1.7-1.4,2.1-4.2,2.1c-2.6,0-6.4,0.2-9.2,0.7
							c-6.3,1.2-8.2,5.2-8.7,13.4c-0.5,7.5-0.5,14.1-0.5,49.8V529.3z"/>
						<path class="st0" d="M848.8,529.3c0,30.1,0,46.3,4.9,50.5c4,3.5,10.1,5.2,28.5,5.2c12.5,0,21.6-0.2,27.5-6.6
							c2.8-3,5.6-9.6,6.1-14.1c0.3-2.1,0.7-3.5,2.6-3.5c1.6,0,1.9,1.2,1.9,4c0,2.6-1.6,20.2-3.5,27c-1.4,5.2-2.6,6.4-14.8,6.4
							c-16.9,0-29.2-0.5-39.7-0.7c-10.6-0.5-19-0.7-28.7-0.7c-2.5,0-7.7,0-13.4,0.2c-5.4,0-11.5,0.5-16.2,0.5
							c-3.1,0-4.7-0.7-4.7-2.3c0-1.2,1-1.9,3.8-1.9c3.5,0,6.4-0.5,8.5-0.9c4.7-0.9,5.9-6.1,6.8-13c1.2-9.9,1.2-28.4,1.2-50v-41.4
							c0-35.7,0-42.3-0.5-49.8c-0.5-8-2.3-11.8-10.1-13.4c-1.9-0.5-4.7-0.7-7.7-0.7c-2.6,0-4-0.5-4-2.1c0-1.6,1.6-2.1,5.2-2.1
							c11,0,25.8,0.7,32.2,0.7c5.7,0,22.8-0.7,32-0.7c3.3,0,4.9,0.5,4.9,2.1c0,1.7-1.4,2.1-4.2,2.1c-2.6,0-6.3,0.2-9.1,0.7
							c-6.3,1.2-8.3,5.2-8.7,13.4c-0.5,7.5-0.5,14.1-0.5,49.8V529.3z"/>
					</g>
				</g>
			</g>
			<g>
				<g>
					<path class="st1" d="M533,326.1l12.2-70.8c0,0,6.6-84.9,84.9-73.3c64.7,9.5,89,9.7,111.7-17.6c0,0,15.9,116.8-89,116.1H616
						c0,0-32.1-3.4-54.8,10.7C549.7,298.5,541.2,309.8,533,326.1z"/>
					<path class="st2" d="M511.2,367.3c0,0,11.5-73,11.5-73.1c2-12.8,2.7-24.8-0.9-37.5c-8.9-31.6-38.9-40.6-68-43.8
						c-27.1-2.9-53.5-4.9-79.4-14.3c-6.8-2.5-13.4-5.3-19.8-8.7c-14.4-7.7-28.6-19.4-34-35.4c-1.3-3.9-4.9-15.8-2.6-19.7
						c0,0-57.4,98.9-2,157.2C373.2,352.1,495.1,280.5,511.2,367.3z"/>
					<path class="st3" d="M531.5,243.3c0,0,4.7-23.6,9-49.2c2.9-17.4,4.2-33-3.2-46.7c-12.4-23.1-49.8-39.4-62.2-54.9
						c-9.5-11.9-4.6-25.7-4.6-25.7s-34.2,36.4-29.3,80.3c4.9,43.7,48.4,45.6,69.7,63C529.8,225.7,531.5,243.3,531.5,243.3z"/>
				</g>
			</g>
		</g>
	</g>
	<g>
		<g>
			<g>
				<g>
					<g>
						<path class="st4" d="M140.2,566.4c-28.8-25.3-36.4-58.1-36.4-86.6c0-20,6.2-54.6,34.3-80.4c21.2-19.4,49-31.1,92.8-31.1
							c18.2,0,29.1,1.2,42.6,2.9c11.2,1.5,20.5,4.1,29.4,5c3.2,0.3,4.4,1.8,4.4,3.5c0,2.3-0.9,5.9-1.5,16.1
							c-0.6,9.7-0.3,25.9-0.9,31.7c-0.3,4.4-0.9,6.8-3.5,6.8c-2.4,0-2.9-2.4-2.9-6.5c-0.3-9.1-4.1-19.4-11.5-27
							c-9.7-10.3-32.6-18.2-59.6-18.2c-25.5,0-42.3,6.5-55.2,18.2c-21.4,19.6-27,47.6-27,76c0,69.9,53.1,104.5,92.5,104.5
							c26.1,0,42-3,53.7-16.5c5-5.6,8.8-14.1,10-19.4c0.9-4.7,1.5-5.9,3.8-5.9c2,0,2.6,2.1,2.6,4.4c0,3.5-3.5,29.1-6.5,39.1
							c-1.5,5-2.6,6.5-7.6,8.5c-11.7,4.7-34.1,6.8-52.9,6.8C200.6,598.3,166.9,589.5,140.2,566.4z"/>
						<path class="st4" d="M350.1,456.9c0-46.2,0-54.7-0.6-64.4c-0.6-10.3-3-15.2-13.1-17.3c-2.4-0.6-7.6-0.9-11.8-0.9
							c-3.4,0-5.2-0.6-5.2-2.7c0-2.1,2.1-2.7,6.7-2.7c16.1,0,35.2,0.9,43.8,0.9c12.5,0,30.1-0.9,44.1-0.9c38,0,51.7,12.8,56.5,17.3
							c6.7,6.4,15.2,20.1,15.2,36.2c0,43.1-31.6,73.5-74.7,73.5c-1.5,0-4.9,0-6.4-0.3c-1.5-0.3-3.7-0.6-3.7-2.7
							c0-2.4,2.2-3.4,8.5-3.4c17,0,40.7-19.1,40.7-50.1c0-10-0.9-30.4-17.9-45.6c-10.9-10-23.4-11.8-30.4-11.8
							c-4.5,0-9.1,0.3-11.8,1.2c-1.5,0.6-2.4,2.4-2.4,5.8v121.5c0,28,0,52,1.6,65c0.9,8.5,2.7,15.2,11.8,16.4
							c4.3,0.6,11,1.2,15.5,1.2c3.4,0,4.9,0.9,4.9,2.4c0,2.1-2.5,3-5.8,3c-20,0-39.2-0.9-47.1-0.9c-7,0-26.1,0.9-38.3,0.9
							c-3.9,0-6.1-0.9-6.1-3c0-1.5,1.2-2.4,4.8-2.4c4.6,0,8.2-0.6,11-1.2c6.1-1.2,7.6-7.9,8.8-16.7c1.5-12.7,1.5-36.8,1.5-64.7
							V456.9z"/>
						<path class="st4" d="M547.4,538.6c-1.2,0-1.6,0.5-2.1,1.8L533,573.2c-2.3,5.7-3.4,11.2-3.4,14c0,4.1,2.1,7.1,9.2,7.1h3.4
							c2.8,0,3.4,0.5,3.4,1.8c0,1.8-1.4,2.3-3.9,2.3c-7.3,0-17.2-0.7-24.3-0.7c-2.5,0-15.1,0.7-27,0.7c-3,0-4.4-0.5-4.4-2.3
							c0-1.4,0.9-1.8,2.7-1.8c2.1,0,5.3-0.2,7.1-0.4c10.5-1.4,14.9-9.2,19.5-20.6l57.5-143.9c2.8-6.6,4.1-9.2,6.4-9.2
							c2,0,3.4,2.1,5.7,7.3c5.5,12.6,42.2,106.1,56.8,140.9c8.7,20.6,15.4,23.8,20.2,25c3.5,0.7,6.9,0.9,9.6,0.9c1.8,0,3,0.2,3,1.8
							c0,1.8-2.1,2.3-10.6,2.3c-8.2,0-25,0-43.3-0.5c-4.1-0.2-6.9-0.2-6.9-1.8c0-1.4,0.9-1.8,3.2-2.1c1.6-0.5,3.2-2.5,2.1-5.3
							l-18.3-48.6c-0.5-1.1-1.2-1.6-2.3-1.6H547.4z M594.2,527.2c1.2,0,1.4-0.7,1.2-1.4l-20.6-56.6c-0.2-0.9-0.4-2.1-1.1-2.1
							c-0.7,0-1.1,1.1-1.4,2.1l-21.1,56.4c-0.2,0.9,0,1.6,0.9,1.6H594.2z"/>
						<path class="st4" d="M727.9,529.3c0,30.1,0,46.3,4.9,50.5c4,3.5,10.1,5.2,28.5,5.2c12.5,0,21.6-0.2,27.5-6.6
							c2.8-3,5.7-9.6,6.1-14.1c0.2-2.1,0.7-3.5,2.6-3.5c1.6,0,1.9,1.2,1.9,4c0,2.6-1.6,20.2-3.5,27c-1.4,5.2-2.6,6.4-14.8,6.4
							c-16.9,0-29.1-0.5-39.7-0.7c-10.6-0.5-19-0.7-28.7-0.7c-2.6,0-7.8,0-13.4,0.2c-5.4,0-11.5,0.5-16.2,0.5
							c-3.1,0-4.7-0.7-4.7-2.3c0-1.2,1-1.9,3.8-1.9c3.5,0,6.4-0.5,8.5-0.9c4.7-0.9,5.9-6.1,6.8-13c1.2-9.9,1.2-28.4,1.2-50v-41.4
							c0-35.7,0-42.3-0.5-49.8c-0.5-8-2.3-11.8-10.1-13.4c-1.9-0.5-4.7-0.7-7.8-0.7c-2.6,0-4-0.5-4-2.1c0-1.6,1.6-2.1,5.2-2.1
							c11.1,0,25.8,0.7,32.2,0.7c5.6,0,22.8-0.7,32-0.7c3.3,0,4.9,0.5,4.9,2.1c0,1.7-1.4,2.1-4.2,2.1c-2.6,0-6.4,0.2-9.2,0.7
							c-6.3,1.2-8.2,5.2-8.7,13.4c-0.5,7.5-0.5,14.1-0.5,49.8V529.3z"/>
						<path class="st4" d="M848.8,529.3c0,30.1,0,46.3,4.9,50.5c4,3.5,10.1,5.2,28.5,5.2c12.5,0,21.6-0.2,27.5-6.6
							c2.8-3,5.6-9.6,6.1-14.1c0.3-2.1,0.7-3.5,2.6-3.5c1.6,0,1.9,1.2,1.9,4c0,2.6-1.6,20.2-3.5,27c-1.4,5.2-2.6,6.4-14.8,6.4
							c-16.9,0-29.2-0.5-39.7-0.7c-10.6-0.5-19-0.7-28.7-0.7c-2.5,0-7.7,0-13.4,0.2c-5.4,0-11.5,0.5-16.2,0.5
							c-3.1,0-4.7-0.7-4.7-2.3c0-1.2,1-1.9,3.8-1.9c3.5,0,6.4-0.5,8.5-0.9c4.7-0.9,5.9-6.1,6.8-13c1.2-9.9,1.2-28.4,1.2-50v-41.4
							c0-35.7,0-42.3-0.5-49.8c-0.5-8-2.3-11.8-10.1-13.4c-1.9-0.5-4.7-0.7-7.7-0.7c-2.6,0-4-0.5-4-2.1c0-1.6,1.6-2.1,5.2-2.1
							c11,0,25.8,0.7,32.2,0.7c5.7,0,22.8-0.7,32-0.7c3.3,0,4.9,0.5,4.9,2.1c0,1.7-1.4,2.1-4.2,2.1c-2.6,0-6.3,0.2-9.1,0.7
							c-6.3,1.2-8.3,5.2-8.7,13.4c-0.5,7.5-0.5,14.1-0.5,49.8V529.3z"/>
					</g>
				</g>
			</g>
			<g>
				<g>
					<path class="st5" d="M533,326.1l12.2-70.8c0,0,6.6-84.9,84.9-73.3c64.7,9.5,89,9.7,111.7-17.6c0,0,15.9,116.8-89,116.1H616
						c0,0-32.1-3.4-54.8,10.7C549.7,298.5,541.2,309.8,533,326.1z"/>
					<path class="st6" d="M511.2,367.3c0,0,11.5-73,11.5-73.1c2-12.8,2.7-24.8-0.9-37.5c-8.9-31.6-38.9-40.6-68-43.8
						c-27.1-2.9-53.5-4.9-79.4-14.3c-6.8-2.5-13.4-5.3-19.8-8.7c-14.4-7.7-28.6-19.4-34-35.4c-1.3-3.9-4.9-15.8-2.6-19.7
						c0,0-57.4,98.9-2,157.2C373.2,352.1,495.1,280.5,511.2,367.3z"/>
					<path class="st7" d="M531.5,243.3c0,0,4.7-23.6,9-49.2c2.9-17.4,4.2-33-3.2-46.7c-12.4-23.1-49.8-39.4-62.2-54.9
						c-9.5-11.9-4.6-25.7-4.6-25.7s-34.2,36.4-29.3,80.3c4.9,43.7,48.4,45.6,69.7,63C529.8,225.7,531.5,243.3,531.5,243.3z"/>
				</g>
			</g>
		</g>
	</g>
</g>
</svg>
