<svg xmlns="http://www.w3.org/2000/svg" viewBox="0 0 1132.86 200.86"><defs><style>.cls-1{fill:#eaa023;}.cls-2{fill:#333;}</style></defs><title>Asset 1sad</title><g id="Layer_2" data-name="Layer 2"><g id="Layer_1-2" data-name="Layer 1"><path class="cls-1" d="M879.1,28.73q15.82,0,26.7,8A48.42,48.42,0,0,1,922.12,58a78.84,78.84,0,0,1,5.44,30v11H861.19q4.69,19.91,27.32,19.89,14.72,0,29.23-8.89l9.4,25.5a56.26,56.26,0,0,1-17.83,9.36,73,73,0,0,1-23.15,3.51q-28.39,0-44.71-15.68T825.13,89.08q0-18.24,6.83-31.93a49.75,49.75,0,0,1,19.09-21A53.39,53.39,0,0,1,879.1,28.73Zm-.83,30.18a15.4,15.4,0,0,0-11.85,5.26q-4.8,5.27-5.66,13.93h35c-.86-5.78-2.73-10.42-5.66-13.93A14.57,14.57,0,0,0,878.27,58.91Z"/><path class="cls-1" d="M997.88,63.35l9.4-34.95v0q-8.35,0-18.72,5.32a96.9,96.9,0,0,0-18.27,12l-9.93-17h-18V148.28h35.4V76.58A70.2,70.2,0,0,1,996.11,64.1C996.72,63.81,997.29,63.61,997.88,63.35Z"/><polygon class="cls-1" points="745.18 28.36 827.26 28.36 821 50.13 771.61 117.62 821.25 117.62 813.11 148.28 722.69 148.28 727.86 128.01 777.48 59.28 736.86 59.28 745.18 28.36"/><path class="cls-1" d="M1075.72,19.71c-3.33-1.06-31.88-9.08-49.43,20.44-11.13,18.75-10.85,35.12-10.62,48.27,0,2.58.08,5,0,7.24-.31,10.93-1.93,18.91-5.47,26.69-2.23,4.9-8.16,17.9,4.79,24.8a25,25,0,0,0,11.83,2.68c6.05,0,13-1.59,20.66-4.7,14.39-5.86,44-27.7,53.25-68.45,5.47-24.14-1.43-38.32-8.18-46A37.42,37.42,0,0,0,1075.72,19.71ZM1086,73.62c-8.1,35.83-34.52,53.71-44,57.57-6.89,2.8-15.28,5.75-19,3.75a1.18,1.18,0,0,1-.38-.3c-.41-.51-.6-1.88,1.4-6.27,4.39-9.61,6.47-19.66,6.83-32.59,0-2.53,0-5.13,0-7.89-.2-11.82-.43-25.22,8.48-40.22,7.23-12.16,17-14.72,23.9-14.72a25.82,25.82,0,0,1,7.75,1.13l.44.13a23,23,0,0,1,10.16,7C1087.71,48.53,1089.23,59.45,1086,73.62Z"/><path class="cls-1" d="M1091.47,5.9A30.12,30.12,0,0,0,1087,0s-8.76,6.57-11.7,17.62a23.55,23.55,0,0,1,4.85,1.8A34.75,34.75,0,0,1,1091.47,5.9Z"/><path class="cls-1" d="M1102.1,6.11c-14.87,3.7-18.54,15-18.54,15a33.52,33.52,0,0,1,10.81,2.25c1.51.56,11.09,4.36,23.45-.57s15-14.89,15-14.89C1119.68,9,1117,2.42,1102.1,6.11Z"/><path class="cls-2" d="M194,68.65l-20.62,76.73H139.09l19.25-71.66c1.61-6,2-10.49,1.14-13.63s-3.54-4.71-8.09-4.71a29,29,0,0,0-11.08,2.78,161.81,161.81,0,0,0-14.74,7.35l-.85,3.14L104.1,145.38H69.76L89,73.72q2.4-8.93,1.12-13.63t-8.08-4.71q-4.63,0-11.21,2.78A157.39,157.39,0,0,0,56,65.51L34.55,145.38H0l31.46-117H52.81l2.62,12.3A132.56,132.56,0,0,1,79.05,29Q91,24.5,100.5,24.5q21.56,0,26.06,15.2a134.44,134.44,0,0,1,22.77-11q11.46-4.23,20.7-4.22,19.16,0,24.44,11.45T194,68.65Z"/><path class="cls-2" d="M258.55,57.06a63.91,63.91,0,0,0-15.11,2.18,94.05,94.05,0,0,0-15.73,5.31L226.25,35.6q8.42-4.35,22.08-7.61a104.23,104.23,0,0,1,23.74-3.25q13.46,0,22.22,5.79a27.17,27.17,0,0,1,11.58,16.28q2.79,10.5-.84,24l-20,74.56H265.84L261,133.07q-15.91,15-30.21,15-19.38,0-26.46-10.5t-2.21-28.59q4.8-17.85,18.21-26.78t32.54-8.93h16.73c1.09-5.14.65-9.13-1.31-11.94S263.1,57.06,258.55,57.06ZM247,95.91a15.09,15.09,0,0,0-9.88,3.62,17.63,17.63,0,0,0-5.89,9.17,9,9,0,0,0,.86,7.48c1.33,2.09,3.56,3.13,6.63,3.13q9.68,0,21.18-9.17l3.82-14.23Z"/><path class="cls-2" d="M390.83,55.38q-9.25,0-27.82,10.13l-21.47,79.87H307l31.47-117H359.8l2.64,12.3A125,125,0,0,1,386.59,29c8.36-3,15.9-4.46,22.67-4.46,13.19,0,21.67,4.14,25.36,12.42s3.66,19.59-.19,33.9l-20,74.56H379.83L399.1,73.72q2.28-8.44.29-13.4C398.09,57,395.24,55.38,390.83,55.38Z"/><path class="cls-2" d="M537.05,150a65.69,65.69,0,0,1-14.42,27,67.69,67.69,0,0,1-25,17.74,82.06,82.06,0,0,1-31.9,6.15q-8.82,0-22.36-3.62t-20.46-9.89l17.48-26.54q15.24,9.65,31.52,9.66a34.59,34.59,0,0,0,19.68-5.67,25.78,25.78,0,0,0,11-15.08l1.74-6.52Q493.14,148,483.44,148q-24.88,0-35.34-15.93T445.5,87q7.83-29.19,27.24-45.72A67.62,67.62,0,0,1,517.9,24.74,32.87,32.87,0,0,1,532.21,28a34.3,34.3,0,0,1,11.8,9.3l8.06-8.69h17.61Zm-24.11-38.85,13.43-49.94a21,21,0,0,0-15.1-6q-9.69,0-18,8.68T481.2,86.75q-3.88,14.46-.18,22.8c2.46,5.54,7.23,8.32,14.27,8.32Q502.54,117.87,512.94,111.11Z"/><path class="cls-2" d="M613.93,148q-17.4,0-28.67-7.12t-14.94-21Q566.67,106,571.93,86.5a87.43,87.43,0,0,1,16.42-32.81A78.57,78.57,0,0,1,615,32.21a73.4,73.4,0,0,1,32.5-7.47q17.38,0,28.72,7.36t14.94,21.35q3.63,14-1.64,33.53a85.34,85.34,0,0,1-16.35,32.58,77.06,77.06,0,0,1-26.69,21.1A74.59,74.59,0,0,1,613.93,148Zm40-61q3.63-13.5-.3-22.19C651,59,646.21,56.11,639.3,56.11q-10.77,0-19.39,8.32T607.58,86.5q-3.69,13.75.34,22.09t14.6,8.31q10.56,0,19.15-8.2T653.89,87Z"/></g></g></svg>