<?xml version="1.0" encoding="utf-8"?>
<!-- Generator: Adobe Illustrator 22.0.0, SVG Export Plug-In . SVG Version: 6.00 Build 0)  -->
<svg version="1.1" id="Layer_1" xmlns="http://www.w3.org/2000/svg" xmlns:xlink="http://www.w3.org/1999/xlink" x="0px" y="0px"
	 viewBox="0 0 113.4 56.7" style="enable-background:new 0 0 113.4 56.7;" xml:space="preserve">
<g>
	<g>
		<path d="M4.5,26.5v-7.4c0-0.3,0.3-0.6,0.6-0.6c0.3,0,0.6,0.3,0.6,0.6v7.4c0,1.3,0.5,2.6,2.8,2.6c2.3,0,2.8-1.3,2.8-2.6v-7.4
			c0-0.3,0.3-0.6,0.6-0.6c0.3,0,0.6,0.3,0.6,0.6v7.4c0,1.8-0.8,3.7-3.9,3.7C5.3,30.1,4.5,28.3,4.5,26.5z"/>
	</g>
	<g>
		<path d="M20.1,29.5c0,0.3-0.3,0.6-0.6,0.6c-0.3,0-0.6-0.3-0.6-0.6V19.2c0-0.3,0.3-0.6,0.6-0.6h3.3c1.8,0,3.2,1,3.2,3.3
			c0,2.2-1.4,3.3-3.2,3.3h-2.8V29.5z M20.1,24.1h2.6c1.4,0,2.2-0.8,2.2-2.2c0-1.5-0.9-2.2-2.2-2.2h-2.6V24.1z"/>
	</g>
	<g>
		<path d="M33.2,29.5c0,0.3-0.3,0.6-0.6,0.6c-0.3,0-0.6-0.3-0.6-0.6V19.2c0-0.3,0.3-0.6,0.6-0.6h3.3c1.8,0,3.2,1,3.2,3.3
			c0,2.2-1.4,3.3-3.2,3.3h-2.8V29.5z M33.2,24.1h2.6c1.4,0,2.2-0.8,2.2-2.2c0-1.5-0.9-2.2-2.2-2.2h-2.6V24.1z"/>
	</g>
	<g>
		<path d="M61.9,29.5c0,0.3-0.3,0.6-0.6,0.6c-0.3,0-0.6-0.3-0.6-0.6V19.2c0-0.3,0.3-0.6,0.6-0.6h3.3c1.9,0,3.2,1.4,3.2,3.2
			c0,1.7-1.2,3.1-3,3.2l3.1,4.1c0.1,0.1,0.1,0.2,0.1,0.4c0,0.3-0.3,0.6-0.6,0.6c-0.2,0-0.4-0.1-0.5-0.3L63.6,25h-1.7V29.5z M61.9,24
			h2.8c1.2,0,2-1,2-2.2c0-1.2-0.9-2.2-2.1-2.2h-2.7V24z"/>
	</g>
	<g>
		<path d="M73.3,24.3c0-4,2-5.9,5.2-5.9c1.6,0,3,0.7,3.8,1.8c0.1,0.1,0.1,0.2,0.1,0.4c0,0.3-0.2,0.5-0.5,0.5c-0.2,0-0.3-0.1-0.4-0.2
			c-0.6-0.8-1.7-1.4-2.9-1.4c-2.6,0-4,1.6-4,4.8c0,3.5,1.5,4.8,4,4.8c1.1,0,2.3-0.4,2.9-1.4c0.1-0.2,0.3-0.2,0.4-0.2
			c0.3,0,0.5,0.2,0.5,0.5c0,0.1,0,0.2-0.1,0.3c-0.7,1.1-2.2,1.8-3.8,1.8C75.3,30.1,73.3,28.4,73.3,24.3z"/>
	</g>
	<g>
		<path d="M88.4,26.5v-7.4c0-0.3,0.3-0.6,0.6-0.6c0.3,0,0.6,0.3,0.6,0.6v7.4c0,1.3,0.5,2.6,2.8,2.6c2.3,0,2.8-1.3,2.8-2.6v-7.4
			c0-0.3,0.3-0.6,0.6-0.6c0.3,0,0.6,0.3,0.6,0.6v7.4c0,1.8-0.8,3.7-3.9,3.7C89.2,30.1,88.4,28.3,88.4,26.5z"/>
	</g>
	<g>
		<path d="M102.4,29.9c-0.3,0-0.5-0.2-0.5-0.5c0-0.1,0-0.2,0.1-0.3l6.2-9.3h-5.4c-0.3,0-0.5-0.2-0.5-0.5c0-0.3,0.2-0.5,0.5-0.5h6.4
			c0.3,0,0.5,0.2,0.5,0.5c0,0.1,0,0.2-0.1,0.3l-6.2,9.3h6c0.3,0,0.5,0.2,0.5,0.5s-0.2,0.5-0.5,0.5H102.4z"/>
	</g>
	<g>
		<g>
			<path d="M55.2,28.5c0.3,0,0.6,0.3,0.6,0.6c0,0.3-0.3,0.6-0.6,0.6H44.9c-0.3,0-0.6-0.3-0.6-0.6c0-0.3,0.3-0.6,0.6-0.6H55.2z"/>
		</g>
	</g>
	<g>
		<g>
			<path d="M48.5,18.7c0.3,0,0.6,0.3,0.6,0.6c0,0.3-0.3,0.6-0.6,0.6h-3.6c-0.3,0-0.6-0.3-0.6-0.6c0-0.3,0.3-0.6,0.6-0.6H48.5z"/>
		</g>
	</g>
	<g>
		<g>
			<path d="M52.1,23.6c0.3,0,0.6,0.3,0.6,0.6c0,0.3-0.3,0.6-0.6,0.6h-7.2c-0.3,0-0.6-0.3-0.6-0.6c0-0.3,0.3-0.6,0.6-0.6H52.1z"/>
		</g>
	</g>
</g>
<g>
	<path d="M37,36.4c0-1.3,0.6-1.9,1.7-1.9c0.5,0,1,0.2,1.2,0.6c0,0,0,0.1,0,0.1c0,0.1-0.1,0.2-0.2,0.2c0,0-0.1,0-0.1-0.1
		c-0.2-0.3-0.5-0.5-0.9-0.5c-0.8,0-1.3,0.5-1.3,1.6c0,1.1,0.5,1.6,1.3,1.6c0.4,0,0.7-0.1,0.9-0.4c0-0.1,0.1-0.1,0.1-0.1
		c0.1,0,0.2,0.1,0.2,0.2c0,0,0,0.1,0,0.1c-0.2,0.3-0.7,0.6-1.2,0.6C37.7,38.3,37,37.7,37,36.4z"/>
	<path d="M43.7,38.1c0,0.1-0.1,0.2-0.2,0.2s-0.2-0.1-0.2-0.2v-3.3c0-0.1,0.1-0.2,0.2-0.2h1.1c0.6,0,1,0.5,1,1c0,0.6-0.4,1-1,1l1,1.3
		c0,0,0,0.1,0,0.1c0,0.1-0.1,0.2-0.2,0.2c-0.1,0-0.1,0-0.2-0.1l-1.1-1.5h-0.5V38.1z M43.7,36.3h0.9c0.4,0,0.6-0.3,0.6-0.7
		c0-0.4-0.3-0.7-0.7-0.7h-0.9V36.3z"/>
	<path d="M49.1,38.2C49,38.2,49,38.1,49,38v-3.3c0-0.1,0.1-0.2,0.2-0.2h1.7c0.1,0,0.2,0.1,0.2,0.2s-0.1,0.2-0.2,0.2h-1.5v1.3h1.2
		c0.1,0,0.2,0.1,0.2,0.2c0,0.1-0.1,0.2-0.2,0.2h-1.2v1.3h1.6c0.1,0,0.2,0.1,0.2,0.2c0,0.1-0.1,0.2-0.2,0.2H49.1z"/>
	<path d="M54.9,37.1l-0.4,1c0,0.1-0.1,0.1-0.2,0.1c-0.1,0-0.2-0.1-0.2-0.2c0,0,0-0.1,0-0.1l1.3-3.3c0-0.1,0.1-0.1,0.2-0.1
		c0.1,0,0.2,0.1,0.2,0.1l1.3,3.3c0,0,0,0.1,0,0.1c0,0.1-0.1,0.2-0.2,0.2c-0.1,0-0.2-0.1-0.2-0.1l-0.4-1H54.9z M55.7,35.1L55,36.8
		h1.3L55.7,35.1z"/>
	<path d="M59.8,34.9c-0.1,0-0.2-0.1-0.2-0.2c0-0.1,0.1-0.2,0.2-0.2h2.3c0.1,0,0.2,0.1,0.2,0.2c0,0.1-0.1,0.2-0.2,0.2h-1v3.1
		c0,0.1-0.1,0.2-0.2,0.2s-0.2-0.1-0.2-0.2v-3.1H59.8z"/>
	<path d="M65.9,38.1c0,0.1-0.1,0.2-0.2,0.2c-0.1,0-0.2-0.1-0.2-0.2v-3.3c0-0.1,0.1-0.2,0.2-0.2c0.1,0,0.2,0.1,0.2,0.2V38.1z"/>
	<path d="M71.7,34.6c0,0,0.1-0.1,0.2-0.1c0.1,0,0.2,0.1,0.2,0.2c0,0,0,0.1,0,0.1l-1.3,3.3c0,0.1-0.1,0.1-0.2,0.1
		c-0.1,0-0.1,0-0.2-0.1l-1.3-3.3c0,0,0,0,0-0.1c0-0.1,0.1-0.2,0.2-0.2c0.1,0,0.2,0.1,0.2,0.1l1.1,2.9L71.7,34.6z"/>
	<path d="M75.4,38.2c-0.1,0-0.2-0.1-0.2-0.2v-3.3c0-0.1,0.1-0.2,0.2-0.2h1.7c0.1,0,0.2,0.1,0.2,0.2s-0.1,0.2-0.2,0.2h-1.5v1.3h1.2
		c0.1,0,0.2,0.1,0.2,0.2c0,0.1-0.1,0.2-0.2,0.2h-1.2v1.3h1.6c0.1,0,0.2,0.1,0.2,0.2c0,0.1-0.1,0.2-0.2,0.2H75.4z"/>
</g>
</svg>
