<?xml version="1.0" encoding="UTF-8" standalone="no"?>
<svg xmlns:dc="http://purl.org/dc/elements/1.1/" xmlns:cc="http://creativecommons.org/ns#" xmlns:rdf="http://www.w3.org/1999/02/22-rdf-syntax-ns#" xmlns:svg="http://www.w3.org/2000/svg" xmlns="http://www.w3.org/2000/svg" id="svg837" version="1.1" height="1.4e+002" width="1366" viewBox="0 0 1366 1.4e+002">
  <metadata id="metadata841">
    <rdf:RDF>
      <cc:Work rdf:about="">
        <dc:format>image/svg+xml</dc:format>
        <dc:type rdf:resource="http://purl.org/dc/dcmitype/StillImage" />
        <dc:title></dc:title>
      </cc:Work>
    </rdf:RDF>
  </metadata>
  <defs id="defs830">
    <linearGradient gradientTransform="translate(120,0.7)" y2="21" x2="6.8e+002" y1="263" x1="6.8e+002" gradientUnits="userSpaceOnUse" id="grd1">
      <stop id="stop815" stop-color="#fd9b93" offset="0" />
      <stop id="stop817" stop-color="#fbe17b" offset="1" />
    </linearGradient>
    <linearGradient gradientTransform="translate(120,0.7)" y2="6.2e+002" x2="1706" y1="1.1e+003" x1="2" gradientUnits="userSpaceOnUse" id="grd2">
      <stop id="stop820" stop-color="#ebe9f5" offset="0" />
      <stop id="stop822" stop-color="#6d65ab" offset="1" />
    </linearGradient>
    <linearGradient gradientTransform="translate(120,0.7)" y2="1.5e+003" x2="1.1e+003" y1="27" x1="5.5e+002" gradientUnits="userSpaceOnUse" id="grd3">
      <stop id="stop825" stop-color="#ffffff" offset="0" />
      <stop id="stop827" stop-color="#ebe9f5" offset="0.826" />
    </linearGradient>
    <clipPath id="clipPath855" clipPathUnits="userSpaceOnUse">
      <rect y="0" x="121" height="143" width="1366" id="rect857" style="fill:#4682b4;fill-opacity:1" />
    </clipPath>
    <clipPath id="clipPath859" clipPathUnits="userSpaceOnUse">
      <rect y="0" x="121" height="143" width="1366" id="rect861" style="fill:#4682b4;fill-opacity:1" />
    </clipPath>
    <clipPath id="clipPath863" clipPathUnits="userSpaceOnUse">
      <rect y="0" x="121" height="143" width="1366" id="rect865" style="fill:#4682b4;fill-opacity:1" />
    </clipPath>
  </defs>
  <style id="style832">
		tspan { white-space:pre }
		.shp0 { opacity: 0.702;fill: url(#grd1) } 
		.shp1 { opacity: 0.541;fill: url(#grd2) } 
		.shp2 { fill: url(#grd3) } 
	</style>
  <path transform="translate(-120,-0.7)" style="opacity:0.7;fill:url(#grd1)" clip-path="url(#clipPath863)" d="m 1200,260 c 0,0 100,-193 100,-184 C 1200,89 840,-12 650,32 460,77 79,150 79,150 Z" class="shp0" id="Shape 6" />
  <path transform="translate(-120,-0.7)" style="opacity:0.54;fill:url(#grd2)" clip-path="url(#clipPath859)" d="M 2,1600 1600,1700 1700,71 C 1700,71 1500,-63 1200,39 1000,100 720,120 500,64 280,10 100,14 100,14 Z" class="shp1" id="Shape 5" />
  <path transform="translate(-120,-0.7)" style="fill:url(#grd3)" clip-path="url(#clipPath855)" d="m 120,1500 c 410,100 1480,0 1480,0 0,0 100,-1340 -100,-1417 C 1100,-42 930,74 660,120 390,170 89,59 89,59 c 0,0 -219,1341 31,1441 z" class="shp2" id="Shape 4" />
</svg>
