<?xml version="1.0" encoding="UTF-8"?>
<svg enable-background="new 0 0 349.1 265.9" version="1.1" viewBox="0 0 349.1 265.9" xml:space="preserve" xmlns="http://www.w3.org/2000/svg">
<style type="text/css">
	.st0{fill:url(#o);}
	.st1{fill:url(#h);}
	.st2{opacity:0.4;fill:#EAE8F2;enable-background:new    ;}
	.st3{fill:#706DAA;}
	.st4{fill:#80B77D;}
	.st5{fill:#FFFFFF;}
	.st6{opacity:0.2;fill:url(#g);}
	.st7{fill:#A19FCE;}
	.st8{fill:url(#f);}
	.st9{fill:url(#e);}
	.st10{fill:url(#d);}
	.st11{fill:url(#c);}
	.st12{fill:url(#b);}
	.st13{fill:url(#a);}
	.st14{fill:url(#y);}
	.st15{fill:url(#x);}
	.st16{opacity:0.2;fill:url(#w);}
	.st17{opacity:0.8;fill:url(#v);}
	.st18{fill:#EAE8F2;}
	.st19{opacity:0.4;fill:url(#u);}
	.st20{opacity:0.7;fill:url(#t);}
	.st21{opacity:0.2;fill:url(#s);}
	.st22{opacity:0.2;fill:url(#r);}
	.st23{opacity:0.2;fill:url(#q);}
	.st24{opacity:0.2;fill:url(#p);}
	.st25{opacity:0.2;fill:url(#n);}
	.st26{opacity:0.7;fill:url(#m);}
	.st27{fill:url(#l);}
	.st28{opacity:0.7;fill:url(#k);}
	.st29{opacity:0.4;fill:url(#j);}
	.st30{fill:url(#i);}
</style>
		<linearGradient id="o" x1="32.726" x2="311.74" y1="132.95" y2="132.95" gradientUnits="userSpaceOnUse">
			<stop stop-color="#A19FCE" offset="0"/>
			<stop stop-color="#EAE8F2" offset="1"/>
		</linearGradient>
		<path class="st0" d="M239.3,3C177.9-19.1,30.6,84.8,32.8,155.9s211.4,143.7,257.9,93.2S300.6,25.2,239.3,3z"/>
		<linearGradient id="h" x1="172.23" x2="172.23" y1="265.9" y2="-1.819e-12" gradientUnits="userSpaceOnUse">
			<stop stop-color="#6160AA" offset="0"/>
			<stop stop-color="#6D6CB1" stop-opacity=".8036" offset=".1964"/>
			<stop stop-color="#8E8DC3" stop-opacity=".4456" offset=".5544"/>
			<stop stop-color="#BEBEDE" stop-opacity="0" offset="1"/>
		</linearGradient>
		<path class="st1" d="M239.3,3C177.9-19.1,30.6,84.8,32.8,155.9s211.4,143.7,257.9,93.2S300.6,25.2,239.3,3z"/>
		<path class="st2" d="m254.1 11.6c43.9 53.1 63.7 182.9 24.5 225.4-36.3 39.4-171.8 3.8-230.5-47.6 49.4 57.5 203.5 102 242.6 59.6 42.6-46.1 15.5-195.6-36.6-237.4z"/>
		<path class="st3" d="m328.1 164.4c-0.8 0-1.4-0.7-1.5-1.5v-11c0-0.8 0.6-1.4 1.4-1.5 0.4 0 0.8 0.2 1 0.5l5.5 5.5c0.6 0.5 0.6 1.4 0.1 2l-5.6 5.6c-0.2 0.3-0.5 0.4-0.9 0.4zm1.4-8.9v4l2-2-2-2z"/>
		<polygon class="st4" points="326.8 206.2 332.6 205.2 333.6 199.4 334.5 205.2 340.4 206.2 334.5 207.2 333.6 213 332.6 207.2"/>
		<path class="st5" d="m76.2 51.3h211.1c6 0 10.9 4.9 10.9 10.9v148.7c0 6-4.9 10.9-10.9 10.9h-211.1c-6 0-10.9-4.9-10.9-10.9v-148.7c0.1-6 4.9-10.9 10.9-10.9z"/>
		<linearGradient id="g" x1="65.335" x2="298.28" y1="136.55" y2="136.55" gradientUnits="userSpaceOnUse">
			<stop stop-color="#fff" stop-opacity="0" offset="0"/>
			<stop stop-color="#EBEBF5" stop-opacity=".2571" offset=".2571"/>
			<stop stop-color="#CACAE4" stop-opacity=".7362" offset=".7362"/>
			<stop stop-color="#BEBEDE" offset="1"/>
		</linearGradient>
		<path class="st6" d="m76.2 51.3h211.1c6 0 10.9 4.9 10.9 10.9v148.7c0 6-4.9 10.9-10.9 10.9h-211.1c-6 0-10.9-4.9-10.9-10.9v-148.7c0.1-6 4.9-10.9 10.9-10.9z"/>
		<path class="st7" d="m287.9 51.3h-212.2c-5.7 0-10.4 5.1-10.4 11.4v14.4h232.9v-14.4c0.1-6.3-4.6-11.4-10.3-11.4z"/>
		<linearGradient id="f" x1="65.335" x2="298.28" y1="64.234" y2="64.234" gradientUnits="userSpaceOnUse">
			<stop stop-color="#BEBEDE" stop-opacity="0" offset="0"/>
			<stop stop-color="#8E8DC3" stop-opacity=".4456" offset=".4456"/>
			<stop stop-color="#6D6CB1" stop-opacity=".8036" offset=".8036"/>
			<stop stop-color="#6160AA" offset="1"/>
		</linearGradient>
		<path class="st8" d="m287.9 51.3h-212.2c-5.7 0-10.4 5.1-10.4 11.4v14.4h232.9v-14.4c0.1-6.3-4.6-11.4-10.3-11.4z"/>
		<circle class="st3" cx="79.8" cy="64.3" r="4.2"/>
		<circle class="st3" cx="93.6" cy="64.3" r="4.2"/>
		<circle class="st3" cx="107.3" cy="64.3" r="4.2"/>
		<linearGradient id="e" x1="75.657" x2="84.031" y1="64.317" y2="64.317" gradientUnits="userSpaceOnUse">
			<stop stop-color="#6160AA" offset="0"/>
			<stop stop-color="#6D6CB1" stop-opacity=".8036" offset=".1964"/>
			<stop stop-color="#8E8DC3" stop-opacity=".4456" offset=".5544"/>
			<stop stop-color="#BEBEDE" stop-opacity="0" offset="1"/>
		</linearGradient>
		<circle class="st9" cx="79.8" cy="64.3" r="4.2"/>
		<linearGradient id="d" x1="89.379" x2="97.753" y1="64.317" y2="64.317" gradientUnits="userSpaceOnUse">
			<stop stop-color="#6160AA" offset="0"/>
			<stop stop-color="#6D6CB1" stop-opacity=".8036" offset=".1964"/>
			<stop stop-color="#8E8DC3" stop-opacity=".4456" offset=".5544"/>
			<stop stop-color="#BEBEDE" stop-opacity="0" offset="1"/>
		</linearGradient>
		<circle class="st10" cx="93.6" cy="64.3" r="4.2"/>
		<linearGradient id="c" x1="103.14" x2="111.52" y1="64.317" y2="64.317" gradientUnits="userSpaceOnUse">
			<stop stop-color="#6160AA" offset="0"/>
			<stop stop-color="#6D6CB1" stop-opacity=".8036" offset=".1964"/>
			<stop stop-color="#8E8DC3" stop-opacity=".4456" offset=".5544"/>
			<stop stop-color="#BEBEDE" stop-opacity="0" offset="1"/>
		</linearGradient>
		<circle class="st11" cx="107.3" cy="64.3" r="4.2"/>
		<path class="st3" d="m165.9 104.7h-84.8c-3.8 0-6.8-3-6.8-6.8s3-6.8 6.8-6.8h84.8c3.8 0 6.8 3 6.8 6.8 0 3.7-3 6.7-6.8 6.8zm-84.8-10.7c-2.2 0-3.9 1.7-3.9 3.9s1.7 3.9 3.9 3.9h84.8c2.2 0 3.9-1.7 3.9-3.9s-1.7-3.9-3.9-3.9h-84.8z"/>
		<path class="st3" d="m165.9 125.3h-84.8c-3.8 0-6.8-3-6.8-6.8s3-6.8 6.8-6.8h84.8c3.8 0 6.8 3 6.8 6.8 0 3.7-3 6.7-6.8 6.8zm-84.8-10.7c-2.2 0-3.9 1.7-3.9 3.9s1.7 3.9 3.9 3.9h84.8c2.2 0 3.9-1.7 3.9-3.9s-1.7-3.9-3.9-3.9h-84.8z"/>
		<path class="st3" d="m183.5 145.9h-102.4c-3.8 0-6.8-3-6.8-6.8s3-6.8 6.8-6.8h102.4c3.8 0 6.8 3 6.8 6.8 0 3.7-3 6.8-6.8 6.8zm-102.4-10.7c-2.2 0-3.9 1.7-3.9 3.9s1.7 3.9 3.9 3.9h102.4c2.2 0 3.9-1.7 3.9-3.9s-1.7-3.9-3.9-3.9h-102.4z"/>
		<path class="st3" d="m183.5 166.5h-102.4c-3.8 0-6.8-3-6.8-6.8s3-6.8 6.8-6.8h102.4c3.8-0.1 6.9 2.9 7 6.6 0.1 3.8-2.9 6.9-6.6 7h-0.4zm-102.4-10.7c-2.2 0-3.9 1.7-3.9 3.9 0 2.1 1.7 3.9 3.9 3.9h102.4c2.2 0.1 4-1.6 4-3.8 0.1-2.2-1.6-4-3.8-4h-102.6z"/>
		<linearGradient id="b" x1="74.289" x2="172.73" y1="97.854" y2="97.854" gradientUnits="userSpaceOnUse">
			<stop stop-color="#BEBEDE" offset="0"/>
			<stop stop-color="#CACAE4" stop-opacity=".7362" offset=".2638"/>
			<stop stop-color="#EBEBF5" stop-opacity=".2571" offset=".7429"/>
			<stop stop-color="#fff" stop-opacity="0" offset="1"/>
		</linearGradient>
		<path class="st12" d="m165.9 104.7h-84.8c-3.8 0-6.8-3-6.8-6.8s3-6.8 6.8-6.8h84.8c3.8 0 6.8 3 6.8 6.8 0 3.7-3 6.7-6.8 6.8zm-84.8-10.7c-2.2 0-3.9 1.7-3.9 3.9s1.7 3.9 3.9 3.9h84.8c2.2 0 3.9-1.7 3.9-3.9s-1.7-3.9-3.9-3.9h-84.8z"/>
		<linearGradient id="a" x1="74.295" x2="172.73" y1="118.46" y2="118.46" gradientUnits="userSpaceOnUse">
			<stop stop-color="#BEBEDE" offset="0"/>
			<stop stop-color="#CACAE4" stop-opacity=".7362" offset=".2638"/>
			<stop stop-color="#EBEBF5" stop-opacity=".2571" offset=".7429"/>
			<stop stop-color="#fff" stop-opacity="0" offset="1"/>
		</linearGradient>
		<path class="st13" d="m165.9 125.3h-84.8c-3.8 0-6.8-3-6.8-6.8s3-6.8 6.8-6.8h84.8c3.8 0 6.8 3 6.8 6.8 0 3.7-3 6.7-6.8 6.8zm-84.8-10.7c-2.2 0-3.9 1.7-3.9 3.9s1.7 3.9 3.9 3.9h84.8c2.2 0 3.9-1.7 3.9-3.9s-1.7-3.9-3.9-3.9h-84.8z"/>
		<linearGradient id="y" x1="74.295" x2="190.33" y1="139.06" y2="139.06" gradientUnits="userSpaceOnUse">
			<stop stop-color="#BEBEDE" offset="0"/>
			<stop stop-color="#CACAE4" stop-opacity=".7362" offset=".2638"/>
			<stop stop-color="#EBEBF5" stop-opacity=".2571" offset=".7429"/>
			<stop stop-color="#fff" stop-opacity="0" offset="1"/>
		</linearGradient>
		<path class="st14" d="m183.5 145.9h-102.4c-3.8 0-6.8-3-6.8-6.8s3-6.8 6.8-6.8h102.4c3.8 0 6.8 3 6.8 6.8 0 3.7-3 6.8-6.8 6.8zm-102.4-10.7c-2.2 0-3.9 1.7-3.9 3.9s1.7 3.9 3.9 3.9h102.4c2.2 0 3.9-1.7 3.9-3.9s-1.7-3.9-3.9-3.9h-102.4z"/>
		<linearGradient id="x" x1="74.295" x2="190.49" y1="159.66" y2="159.66" gradientUnits="userSpaceOnUse">
			<stop stop-color="#BEBEDE" offset="0"/>
			<stop stop-color="#CACAE4" stop-opacity=".7362" offset=".2638"/>
			<stop stop-color="#EBEBF5" stop-opacity=".2571" offset=".7429"/>
			<stop stop-color="#fff" stop-opacity="0" offset="1"/>
		</linearGradient>
		<path class="st15" d="m183.5 166.5h-102.4c-3.8 0-6.8-3-6.8-6.8s3-6.8 6.8-6.8h102.4c3.8-0.1 6.9 2.9 7 6.6 0.1 3.8-2.9 6.9-6.6 7h-0.4zm-102.4-10.7c-2.2 0-3.9 1.7-3.9 3.9 0 2.1 1.7 3.9 3.9 3.9h102.4c2.2 0.1 4-1.6 4-3.8 0.1-2.2-1.6-4-3.8-4h-102.6z"/>
		<path class="st5" d="m320.5 109.3c0-24.7-22.2-44.7-49.6-44.7s-49.6 20-49.6 44.7 22.3 44.7 49.7 44.7c11 0.1 21.8-3.3 30.8-9.7l14.4 4.5-3.6-15.1c5.1-7.1 7.9-15.6 7.9-24.4z"/>
		<linearGradient id="w" x1="221.33" x2="320.54" y1="109.26" y2="109.26" gradientUnits="userSpaceOnUse">
			<stop stop-color="#fff" stop-opacity="0" offset="0"/>
			<stop stop-color="#EBEBF5" stop-opacity=".2571" offset=".2571"/>
			<stop stop-color="#CACAE4" stop-opacity=".7362" offset=".7362"/>
			<stop stop-color="#BEBEDE" offset="1"/>
		</linearGradient>
		<path class="st16" d="m320.5 109.3c0-24.7-22.2-44.7-49.6-44.7s-49.6 20-49.6 44.7 22.3 44.7 49.7 44.7c11 0.1 21.8-3.3 30.8-9.7l14.4 4.5-3.6-15.1c5.1-7.1 7.9-15.6 7.9-24.4z"/>
		<path class="st4" d="m271.4 96.2s5.1-7.7 12.9-8.2c9.9-0.7 16.6 6.2 17.3 14.2 0.6 7.8-4.8 15-9.1 19.9-5.9 6.7-15 13.5-20.2 16.7-5.4-3-14.7-9.5-20.9-15.9-4.6-4.7-10.2-11.7-9.9-19.5 0.3-8 6.8-15.1 16.7-14.8 7.8 0.1 13.2 7.6 13.2 7.6z"/>
		<linearGradient id="v" x1="252.63" x2="290.69" y1="124.17" y2="86.108" gradientUnits="userSpaceOnUse">
			<stop stop-color="#45B549" offset="0"/>
			<stop stop-color="#45B549" stop-opacity="0" offset="1"/>
		</linearGradient>
		<path class="st17" d="m271.4 96.2s5.1-7.7 12.9-8.2c9.9-0.7 16.6 6.2 17.3 14.2 0.6 7.8-4.8 15-9.1 19.9-5.9 6.7-15 13.5-20.2 16.7-5.4-3-14.7-9.5-20.9-15.9-4.6-4.7-10.2-11.7-9.9-19.5 0.3-8 6.8-15.1 16.7-14.8 7.8 0.1 13.2 7.6 13.2 7.6z"/>
		<path class="st18" d="m40.6 114 63.7-19.2c3.6-1.1 7.4 1 8.5 4.6l31.1 102.9c1.1 3.6-1 7.5-4.6 8.6l-81.1 24.5c-3.6 1.1-7.5-1-8.6-4.6l-25.8-85.4 16.8-31.4z"/>
		<linearGradient id="u" x1="23.796" x2="144.23" y1="165.03" y2="165.03" gradientUnits="userSpaceOnUse">
			<stop stop-color="#EAE8F2" offset="0"/>
			<stop stop-color="#E5E3EF" offset=".2123"/>
			<stop stop-color="#D6D4E8" offset=".4678"/>
			<stop stop-color="#BEBCDC" offset=".7444"/>
			<stop stop-color="#A19FCE" offset="1"/>
		</linearGradient>
		<path class="st19" d="m40.6 114 63.7-19.2c3.6-1.1 7.4 1 8.5 4.6l31.1 102.9c1.1 3.6-1 7.5-4.6 8.6l-81.1 24.5c-3.6 1.1-7.5-1-8.6-4.6l-25.8-85.4 16.8-31.4z"/>
		<path class="st7" d="m40.6 114 5.3 17.5c1.1 3.6-0.9 7.4-4.6 8.5l-17.5 5.3 16.8-31.3z"/>
		<linearGradient id="t" x1="42.55" x2="28.594" y1="139.97" y2="126.01" gradientUnits="userSpaceOnUse">
			<stop stop-color="#BEBEDE" stop-opacity="0" offset="0"/>
			<stop stop-color="#8E8DC3" stop-opacity=".4456" offset=".4456"/>
			<stop stop-color="#6D6CB1" stop-opacity=".8036" offset=".8036"/>
			<stop stop-color="#6160AA" offset="1"/>
		</linearGradient>
		<path class="st20" d="m40.6 114 5.3 17.5c1.1 3.6-0.9 7.4-4.6 8.5l-17.5 5.3 16.8-31.3z"/>
			<rect class="st5" transform="matrix(.9573 -.2892 .2892 .9573 -38.181 27.688)" x="38.3" y="140.4" width="72.5" height="5.2"/>
			<rect class="st5" transform="matrix(.9573 -.2892 .2892 .9573 -41.818 29.402)" x="42.3" y="153.6" width="72.5" height="5.3"/>
			<rect class="st5" transform="matrix(.9573 -.2892 .2892 .9573 -45.448 31.113)" x="46.3" y="166.7" width="72.5" height="5.3"/>
			<rect class="st5" transform="matrix(.9573 -.2892 .2892 .9573 -49.089 32.831)" x="50.3" y="179.9" width="72.5" height="5.3"/>
			<rect class="st5" transform="matrix(.9573 -.2892 .2892 .9573 -53.81 32.222)" x="54.6" y="195.6" width="55" height="5.3"/>
		<linearGradient id="s" x1="39.141" x2="110.06" y1="143.05" y2="143.05" gradientUnits="userSpaceOnUse">
			<stop stop-color="#BEBEDE" offset="0"/>
			<stop stop-color="#CACAE4" stop-opacity=".7362" offset=".2638"/>
			<stop stop-color="#EBEBF5" stop-opacity=".2571" offset=".7429"/>
			<stop stop-color="#fff" stop-opacity="0" offset="1"/>
		</linearGradient>
		<polygon class="st21" points="39.1 151 108.6 130.1 110.1 135.1 40.7 156"/>
		<linearGradient id="r" x1="43.12" x2="114.05" y1="156.21" y2="156.21" gradientUnits="userSpaceOnUse">
			<stop stop-color="#BEBEDE" offset="0"/>
			<stop stop-color="#CACAE4" stop-opacity=".7362" offset=".2638"/>
			<stop stop-color="#EBEBF5" stop-opacity=".2571" offset=".7429"/>
			<stop stop-color="#fff" stop-opacity="0" offset="1"/>
		</linearGradient>
		<polygon class="st22" points="43.1 164.2 112.5 143.2 114.1 148.2 44.6 169.2"/>
		<linearGradient id="q" x1="47.093" x2="118.03" y1="169.35" y2="169.35" gradientUnits="userSpaceOnUse">
			<stop stop-color="#BEBEDE" offset="0"/>
			<stop stop-color="#CACAE4" stop-opacity=".7362" offset=".2638"/>
			<stop stop-color="#EBEBF5" stop-opacity=".2571" offset=".7429"/>
			<stop stop-color="#fff" stop-opacity="0" offset="1"/>
		</linearGradient>
		<polygon class="st23" points="47.1 177.3 116.5 156.3 118 161.4 48.6 182.4"/>
		<linearGradient id="p" x1="51.088" x2="122.02" y1="182.53" y2="182.53" gradientUnits="userSpaceOnUse">
			<stop stop-color="#BEBEDE" offset="0"/>
			<stop stop-color="#CACAE4" stop-opacity=".7362" offset=".2638"/>
			<stop stop-color="#EBEBF5" stop-opacity=".2571" offset=".7429"/>
			<stop stop-color="#fff" stop-opacity="0" offset="1"/>
		</linearGradient>
		<polygon class="st24" points="51.1 190.5 120.5 169.5 122 174.6 52.6 195.5"/>
		<linearGradient id="n" x1="55.06" x2="109.2" y1="198.2" y2="198.2" gradientUnits="userSpaceOnUse">
			<stop stop-color="#BEBEDE" offset="0"/>
			<stop stop-color="#CACAE4" stop-opacity=".7362" offset=".2638"/>
			<stop stop-color="#EBEBF5" stop-opacity=".2571" offset=".7429"/>
			<stop stop-color="#fff" stop-opacity="0" offset="1"/>
		</linearGradient>
		<polygon class="st25" points="55.1 203.6 107.7 187.7 109.2 192.8 56.6 208.7"/>
		<path class="st7" d="m252.2 225c6.3-5.4 13.5-12 20.8-19.2 22.4-22.2 38.2-42.6 35.3-45.5s-23.4 12.8-45.8 35c-7.3 7.3-13.9 14.3-19.4 20.6l9.1 9.1z"/>
		<linearGradient id="m" x1="283.16" x2="272.64" y1="195.56" y2="185.05" gradientUnits="userSpaceOnUse">
			<stop stop-color="#6160AA" offset="0"/>
			<stop stop-color="#6D6CB1" stop-opacity=".8036" offset=".1964"/>
			<stop stop-color="#8E8DC3" stop-opacity=".4456" offset=".5544"/>
			<stop stop-color="#BEBEDE" stop-opacity="0" offset="1"/>
		</linearGradient>
		<path class="st26" d="m252.2 225c6.3-5.4 13.5-12 20.8-19.2 22.4-22.2 38.2-42.6 35.3-45.5s-23.4 12.8-45.8 35c-7.3 7.3-13.9 14.3-19.4 20.6l9.1 9.1z"/>
		<polygon class="st4" points="243.1 215.9 252.2 225 241.5 232.2 235.8 226.5"/>
		<linearGradient id="l" x1="247.71" x2="238.61" y1="229.47" y2="220.37" gradientUnits="userSpaceOnUse">
			<stop stop-color="#45B549" offset="0"/>
			<stop stop-color="#45B549" stop-opacity="0" offset="1"/>
		</linearGradient>
		<polygon class="st27" points="243.1 215.9 252.2 225 241.5 232.2 235.8 226.5"/>
			<rect class="st7" transform="matrix(.7098 -.7044 .7044 .7098 -93.532 234.16)" x="235.7" y="226.6" width="3.4" height="8"/>
		<linearGradient id="k" x1="233.4" x2="241.47" y1="230.6" y2="230.6" gradientUnits="userSpaceOnUse">
			<stop stop-color="#BEBEDE" stop-opacity="0" offset="0"/>
			<stop stop-color="#8E8DC3" stop-opacity=".4456" offset=".4456"/>
			<stop stop-color="#6D6CB1" stop-opacity=".8036" offset=".8036"/>
			<stop stop-color="#6160AA" offset="1"/>
		</linearGradient>
		<polygon class="st28" points="233.4 228.9 235.8 226.5 241.5 232.3 239.1 234.7"/>
		<path class="st5" d="m226.3 241.2c-0.3-0.6-0.1-1.3 0.5-1.7 0.6-0.3 1.3-0.1 1.7 0.5 0.3 0.5 0.2 1.1-0.2 1.5s-1 0.4-1.5 0.2l-3.2 3.2c2.3-0.4 10.9-2.2 13.4-4.6 2.8-2.8 2.1-5.5 2.1-5.5l-5.6-5.8s-2.7-0.7-5.5 2c-2.4 2.4-4.3 11.1-4.7 13.3l3-3.1z"/>
		<linearGradient id="j" x1="223.2" x2="239.16" y1="236.77" y2="236.77" gradientUnits="userSpaceOnUse">
			<stop stop-color="#fff" stop-opacity="0" offset="0"/>
			<stop stop-color="#EBEBF5" stop-opacity=".2571" offset=".2571"/>
			<stop stop-color="#CACAE4" stop-opacity=".7362" offset=".7362"/>
			<stop stop-color="#BEBEDE" offset="1"/>
		</linearGradient>
		<path class="st29" d="m226.3 241.2c-0.3-0.6-0.1-1.3 0.5-1.7 0.6-0.3 1.3-0.1 1.7 0.5 0.3 0.5 0.2 1.1-0.2 1.5s-1 0.4-1.5 0.2l-3.2 3.2c2.3-0.4 10.9-2.2 13.4-4.6 2.8-2.8 2.1-5.5 2.1-5.5l-5.6-5.8s-2.7-0.7-5.5 2c-2.4 2.4-4.3 11.1-4.7 13.3l3-3.1z"/>
		<path class="st3" d="m6.6 83.3c-3.6 0-6.6-3-6.6-6.6s3-6.6 6.6-6.6 6.6 3 6.6 6.6c0 3.7-3 6.6-6.6 6.6zm0-10.3c-2 0-3.7 1.7-3.7 3.7s1.7 3.7 3.7 3.7 3.7-1.7 3.7-3.7-1.7-3.6-3.7-3.7z"/>
		<path class="st3" d="m20.4 130.4c-0.2 0-0.4 0-0.5-0.1-0.5-0.2-0.9-0.7-0.9-1.3v-11c0-0.8 0.6-1.4 1.4-1.5 0.4 0 0.8 0.2 1 0.5l5.5 5.5c0.6 0.5 0.6 1.5 0 2l-5.5 5.5c-0.2 0.3-0.6 0.4-1 0.4zm1.4-8.9v4l2-2-2-2z"/>
		<polygon class="st4" points="31.4 70 37.2 69 38.2 63.2 39.2 69 45 70 39.2 70.9 38.2 76.8 37.2 70.9"/>
		<path class="st3" d="m342.6 186.5c-3.6 0-6.6-3-6.6-6.6s3-6.6 6.6-6.6 6.6 2.9 6.6 6.6-3 6.6-6.6 6.6zm0-10.3c-2 0-3.7 1.7-3.7 3.7s1.7 3.7 3.7 3.7 3.7-1.7 3.7-3.7-1.6-3.7-3.6-3.7h-0.1z"/>
		<polygon class="st4" points="91 244.7 96.8 243.7 97.8 237.9 98.8 243.7 104.6 244.7 98.8 245.7 97.8 251.5 96.8 245.7"/>
		<path class="st3" d="m223 244.9s1.6-7.2 2.1-8.1c0 0 4.1 1.7 6.1 6.1 0 0-5.6 1.6-8.2 2z"/>
		<linearGradient id="i" x1="223.04" x2="231.18" y1="240.81" y2="240.81" gradientUnits="userSpaceOnUse">
			<stop stop-color="#BEBEDE" stop-opacity="0" offset="0"/>
			<stop stop-color="#8E8DC3" stop-opacity=".4456" offset=".4456"/>
			<stop stop-color="#6D6CB1" stop-opacity=".8036" offset=".8036"/>
			<stop stop-color="#6160AA" offset="1"/>
		</linearGradient>
		<path class="st30" d="m231.2 242.9s-5.6 1.7-8.1 2c0 0 1.6-7.2 2.1-8.1"/>
</svg>
