<?xml version="1.0" encoding="UTF-8"?>
<svg enable-background="new 0 0 342.6 265.1" version="1.1" viewBox="0 0 342.6 265.1" xml:space="preserve" xmlns="http://www.w3.org/2000/svg">
<style type="text/css">
	.st0{fill:url(#v);}
	.st1{fill:url(#q);}
	.st2{opacity:0.4;fill:#EAE8F2;enable-background:new    ;}
	.st3{fill:#FFFFFF;}
	.st4{opacity:0.2;fill:url(#g);}
	.st5{fill:#A19FCE;}
	.st6{fill:url(#f);}
	.st7{fill:#F7C778;}
	.st8{opacity:0.8;fill:url(#e);}
	.st9{fill:#706DAA;}
	.st10{fill:url(#d);}
	.st11{fill:url(#c);}
	.st12{fill:url(#b);}
	.st13{fill:#EAE8F2;}
	.st14{opacity:0.4;fill:url(#a);}
	.st15{fill:url(#ad);}
	.st16{fill:url(#ac);}
	.st17{fill:url(#ab);}
	.st18{fill:url(#aa);}
	.st19{fill:url(#z);}
	.st20{fill:url(#y);}
	.st21{fill:url(#x);}
	.st22{fill:url(#w);}
	.st23{fill:url(#SVGID_18_);}
	.st24{fill:url(#SVGID_19_);}
	.st25{fill:url(#SVGID_20_);}
	.st26{fill:url(#SVGID_21_);}
	.st27{fill:url(#SVGID_22_);}
	.st28{fill:url(#SVGID_23_);}
	.st29{fill:url(#SVGID_24_);}
	.st30{fill:url(#SVGID_25_);}
	.st31{fill:url(#u);}
	.st32{fill:url(#t);}
	.st33{fill:none;}
	.st34{fill:url(#s);}
	.st35{opacity:0.4;fill:url(#r);}
	.st36{opacity:0.3;fill:url(#p);}
	.st37{opacity:0.8;fill:url(#o);}
	.st38{fill:url(#n);}
	.st39{opacity:0.2;fill:url(#m);}
	.st40{fill:url(#l);}
	.st41{fill:url(#k);}
	.st42{fill:url(#j);}
	.st43{fill:url(#i);}
	.st44{fill:url(#h);}
</style>
		<linearGradient id="v" x1="40.011" x2="305.08" y1="132.54" y2="132.54" gradientUnits="userSpaceOnUse">
			<stop stop-color="#A19FCE" offset="0"/>
			<stop stop-color="#EAE8F2" offset="1"/>
		</linearGradient>
		<path class="st0" d="m82.7 40.8 96.5-36.5c34.1-12.9 72.2 4.3 85.1 38.4l36.5 96.5c12.9 34.1-4.3 72.2-38.4 85.1l-96.5 36.5c-34.1 12.9-72.2-4.3-85.1-38.4l-36.5-96.5c-12.9-34.1 4.3-72.2 38.4-85.1z"/>
			<linearGradient id="q" x1="175.03" x2="175.03" y1="-177.22" y2="-442.29" gradientTransform="matrix(1.003 -.005036 .005036 1.003 -1.4618 442.82)" gradientUnits="userSpaceOnUse">
			<stop stop-color="#6160AA" offset="0"/>
			<stop stop-color="#6D6CB1" stop-opacity=".8036" offset=".1964"/>
			<stop stop-color="#8E8DC3" stop-opacity=".4456" offset=".5544"/>
			<stop stop-color="#BEBEDE" stop-opacity="0" offset="1"/>
		</linearGradient>
		<path class="st1" d="m82.7 40.8 96.5-36.5c34.1-12.9 72.2 4.3 85.1 38.4l36.5 96.5c12.9 34.1-4.3 72.2-38.4 85.1l-96.5 36.5c-34.1 12.9-72.2-4.3-85.1-38.4l-36.5-96.5c-12.9-34.1 4.3-72.2 38.4-85.1z"/>
		<path class="st2" d="m300.8 139.2-36.5-96.5c-5.7-15.1-16.8-27.5-31-35 8.8 7.2 15.5 16.7 19.5 27.3l36.5 96.5c12.9 34-4.4 72.3-38.4 85.1l-96.5 36.5c-17.7 6.7-37.3 5.4-54-3.4 17.7 14.7 42.6 19.8 65.6 11.1l96.5-36.5c33.8-12.8 51.1-51.1 38.3-85.1z"/>
		<path class="st3" d="M66,41H278c6,0,11,4.9,11,11v149.3c0,6-4.9,11-11,11H66c-6,0-11-4.9-11-11V51.9C55,45.9,59.9,41,66,41z"/>
		<linearGradient id="g" x1="55.032" x2="288.99" y1="126.6" y2="126.6" gradientUnits="userSpaceOnUse">
			<stop stop-color="#fff" stop-opacity="0" offset="0"/>
			<stop stop-color="#EBEBF5" stop-opacity=".2571" offset=".2571"/>
			<stop stop-color="#CACAE4" stop-opacity=".7362" offset=".7362"/>
			<stop stop-color="#BEBEDE" offset="1"/>
		</linearGradient>
		<path class="st4" d="M66,41H278c6,0,11,4.9,11,11v149.3c0,6-4.9,11-11,11H66c-6,0-11-4.9-11-11V51.9C55,45.9,59.9,41,66,41z"/>
		<path class="st5" d="M278.5,41H65.5C59.7,41,55,46.1,55,52.4V67h234V52.4C289,46.1,284.3,41,278.5,41z"/>
		<linearGradient id="f" x1="55.032" x2="288.99" y1="53.967" y2="53.967" gradientUnits="userSpaceOnUse">
			<stop stop-color="#BEBEDE" stop-opacity="0" offset="0"/>
			<stop stop-color="#8E8DC3" stop-opacity=".4456" offset=".4456"/>
			<stop stop-color="#6D6CB1" stop-opacity=".8036" offset=".8036"/>
			<stop stop-color="#6160AA" offset="1"/>
		</linearGradient>
		<path class="st6" d="M278.5,41H65.5C59.7,41,55,46.1,55,52.4V67h234V52.4C289,46.1,284.3,41,278.5,41z"/>
		<path class="st7" d="m55 67v95.2c0 11.4 9.3 20.6 20.7 20.7h1.3c11.4 0 36.3-38.1 36.3-34.3v-3.5c0 7.6 6.2 13.8 13.8 13.8h0.4c7.6 0 13.8-6.2 13.8-13.8v-41.7c0-3.6 2.9-6.5 6.5-6.5s6.5 2.9 6.6 6.5v22.3c-0.1 5 3.9 9.1 8.9 9.2s9.1-3.9 9.2-8.9v-0.4-58.6h-117.5z"/>
		<linearGradient id="e" x1="55.032" x2="172.52" y1="124.91" y2="124.91" gradientUnits="userSpaceOnUse">
			<stop stop-color="#F7B445" stop-opacity="0" offset="0"/>
			<stop stop-color="#F7B445" offset="1"/>
		</linearGradient>
		<path class="st8" d="m55 67v95.2c0 11.4 9.3 20.6 20.7 20.7h1.3c11.4 0 36.3-38.1 36.3-34.3v-3.5c0 7.6 6.2 13.8 13.8 13.8h0.4c7.6 0 13.8-6.2 13.8-13.8v-41.7c0-3.6 2.9-6.5 6.5-6.5s6.5 2.9 6.6 6.5v22.3c-0.1 5 3.9 9.1 8.9 9.2s9.1-3.9 9.2-8.9v-0.4-58.6h-117.5z"/>
		<path class="st9" d="m272.9 113.8h-44c-3.8-0.1-6.7-3.2-6.6-7 0.1-3.6 3-6.6 6.6-6.6h44c3.8 0.1 6.7 3.2 6.6 7 0 3.6-3 6.5-6.6 6.6zm-44-10.7c-2.2 0.1-3.9 1.9-3.8 4s1.7 3.7 3.8 3.8h44c2.2-0.1 3.9-1.9 3.8-4s-1.7-3.7-3.8-3.8h-44z"/>
		<path class="st9" d="m272.9 134.5h-44c-3.8-0.1-6.7-3.2-6.6-7 0.1-3.6 3-6.6 6.6-6.6h44c3.8 0.1 6.7 3.2 6.6 7 0 3.6-3 6.5-6.6 6.6zm-44-10.7c-2.2 0.1-3.9 1.9-3.8 4s1.7 3.7 3.8 3.8h44c2.2-0.1 3.9-1.9 3.8-4s-1.7-3.7-3.8-3.8h-44z"/>
		<circle class="st9" cx="69.6" cy="54.1" r="4.2"/>
		<circle class="st9" cx="83.4" cy="54.1" r="4.2"/>
		<circle class="st9" cx="97.2" cy="54.1" r="4.2"/>
		<linearGradient id="d" x1="65.396" x2="73.836" y1="54.062" y2="54.062" gradientUnits="userSpaceOnUse">
			<stop stop-color="#6160AA" offset="0"/>
			<stop stop-color="#6D6CB1" stop-opacity=".8036" offset=".1964"/>
			<stop stop-color="#8E8DC3" stop-opacity=".4456" offset=".5544"/>
			<stop stop-color="#BEBEDE" stop-opacity="0" offset="1"/>
		</linearGradient>
		<circle class="st10" cx="69.6" cy="54.1" r="4.2"/>
		<linearGradient id="c" x1="79.192" x2="87.633" y1="54.062" y2="54.062" gradientUnits="userSpaceOnUse">
			<stop stop-color="#6160AA" offset="0"/>
			<stop stop-color="#6D6CB1" stop-opacity=".8036" offset=".1964"/>
			<stop stop-color="#8E8DC3" stop-opacity=".4456" offset=".5544"/>
			<stop stop-color="#BEBEDE" stop-opacity="0" offset="1"/>
		</linearGradient>
		<circle class="st11" cx="83.4" cy="54.1" r="4.2"/>
		<linearGradient id="b" x1="92.989" x2="101.43" y1="54.062" y2="54.062" gradientUnits="userSpaceOnUse">
			<stop stop-color="#6160AA" offset="0"/>
			<stop stop-color="#6D6CB1" stop-opacity=".8036" offset=".1964"/>
			<stop stop-color="#8E8DC3" stop-opacity=".4456" offset=".5544"/>
			<stop stop-color="#BEBEDE" stop-opacity="0" offset="1"/>
		</linearGradient>
		<circle class="st12" cx="97.2" cy="54.1" r="4.2"/>
		<path class="st9" d="m272.9 93.1h-85.2c-3.8 0.1-6.9-2.9-7-6.6-0.1-3.8 2.9-6.9 6.6-7h85.5c3.8 0.1 6.7 3.2 6.6 7 0.1 3.6-2.9 6.6-6.5 6.6zm-85.2-10.7c-2.2-0.1-4 1.6-4 3.8-0.1 2.2 1.6 4 3.8 4h85.5c2.2-0.1 3.9-1.9 3.8-4s-1.7-3.7-3.8-3.8h-85.3z"/>
			<rect class="st13" transform="matrix(.7071 -.7071 .7071 .7071 -81.536 103.08)" x="56.3" y="116.5" width="54.7" height="66.9"/>
		<linearGradient id="a" x1="40.662" x2="126.66" y1="149.96" y2="149.96" gradientUnits="userSpaceOnUse">
			<stop stop-color="#A19FCE" offset="0"/>
			<stop stop-color="#BEBCDC" offset=".2556"/>
			<stop stop-color="#D6D4E8" offset=".5322"/>
			<stop stop-color="#E5E3EF" offset=".7877"/>
			<stop stop-color="#EAE8F2" offset="1"/>
		</linearGradient>
		<polygon class="st14" points="40.7 145.7 79.4 107 126.7 154.3 88 193"/>
			<linearGradient id="ad" x1="79.929" x2="67.544" y1="122.25" y2="115.1" gradientUnits="userSpaceOnUse">
				<stop stop-color="#BEBEDE" offset="0"/>
				<stop stop-color="#BEBEDE" stop-opacity="0" offset="1"/>
			</linearGradient>
			<polygon class="st15" points="62 124.7 79.7 107 85.5 112.7 67.7 130.4"/>
			<linearGradient id="ac" x1="85.846" x2="73.461" y1="128.17" y2="121.02" gradientUnits="userSpaceOnUse">
				<stop stop-color="#BEBEDE" offset="0"/>
				<stop stop-color="#BEBEDE" stop-opacity="0" offset="1"/>
			</linearGradient>
			<polygon class="st16" points="67.9 130.6 85.6 112.9 91.4 118.6 73.7 136.3"/>
			<linearGradient id="ab" x1="91.763" x2="79.378" y1="134.09" y2="126.94" gradientUnits="userSpaceOnUse">
				<stop stop-color="#BEBEDE" offset="0"/>
				<stop stop-color="#BEBEDE" stop-opacity="0" offset="1"/>
			</linearGradient>
			<polygon class="st17" points="73.9 136.5 91.6 118.8 97.3 124.5 79.6 142.2"/>
			<linearGradient id="aa" x1="97.68" x2="85.295" y1="140" y2="132.85" gradientUnits="userSpaceOnUse">
				<stop stop-color="#BEBEDE" offset="0"/>
				<stop stop-color="#BEBEDE" stop-opacity="0" offset="1"/>
			</linearGradient>
			<polygon class="st18" points="79.8 142.4 97.5 124.7 103.2 130.4 85.5 148.1"/>
			<linearGradient id="z" x1="103.6" x2="91.211" y1="145.92" y2="138.77" gradientUnits="userSpaceOnUse">
				<stop stop-color="#BEBEDE" offset="0"/>
				<stop stop-color="#BEBEDE" stop-opacity="0" offset="1"/>
			</linearGradient>
			<polygon class="st19" points="85.7 148.3 103.4 130.6 109.1 136.4 91.4 154.1"/>
			<linearGradient id="y" x1="109.51" x2="97.128" y1="151.84" y2="144.69" gradientUnits="userSpaceOnUse">
				<stop stop-color="#BEBEDE" offset="0"/>
				<stop stop-color="#BEBEDE" stop-opacity="0" offset="1"/>
			</linearGradient>
			<polygon class="st20" points="91.6 154.3 109.3 136.5 115 142.3 97.3 160"/>
			<linearGradient id="x" x1="115.43" x2="103.04" y1="157.75" y2="150.6" gradientUnits="userSpaceOnUse">
				<stop stop-color="#BEBEDE" offset="0"/>
				<stop stop-color="#BEBEDE" stop-opacity="0" offset="1"/>
			</linearGradient>
			<polygon class="st21" points="97.5 160.2 115.2 142.5 121 148.2 103.2 165.9"/>
			<linearGradient id="w" x1="121.35" x2="108.96" y1="163.67" y2="156.52" gradientUnits="userSpaceOnUse">
				<stop stop-color="#BEBEDE" offset="0"/>
				<stop stop-color="#BEBEDE" stop-opacity="0" offset="1"/>
			</linearGradient>
			<polygon class="st22" points="103.4 166.1 121.1 148.4 126.9 154.1 109.2 171.8"/>
			<polygon class="st23" points="62 124.7 79.7 107 85.5 112.7 67.7 130.4"/>
			<polygon class="st24" points="67.9 130.6 85.6 112.9 91.4 118.6 73.7 136.3"/>
			<polygon class="st25" points="73.9 136.5 91.6 118.8 97.3 124.5 79.6 142.2"/>
			<polygon class="st26" points="79.8 142.4 97.5 124.7 103.2 130.4 85.5 148.1"/>
			<polygon class="st27" points="85.7 148.3 103.4 130.6 109.1 136.4 91.4 154.1"/>
			<polygon class="st28" points="91.6 154.3 109.3 136.5 115 142.3 97.3 160"/>
			<polygon class="st29" points="97.5 160.2 115.2 142.5 121 148.2 103.2 165.9"/>
			<polygon class="st30" points="103.4 166.1 121.1 148.4 126.9 154.1 109.2 171.8"/>
			<rect class="st7" transform="matrix(.7071 -.7071 .7071 .7071 -107.95 92.138)" x="47.3" y="142.9" width="20" height="66.9"/>
		<linearGradient id="u" x1="26.533" x2="87.963" y1="176.37" y2="176.37" gradientUnits="userSpaceOnUse">
			<stop stop-color="#F7B445" stop-opacity="0" offset="0"/>
			<stop stop-color="#F7B445" stop-opacity=".9015" offset=".9015"/>
			<stop stop-color="#F7B445" offset="1"/>
		</linearGradient>
		<polygon class="st31" points="26.5 159.8 40.7 145.7 88 193 73.8 207.1"/>
		<path class="st5" d="m3 230.6c-4-4-4-10.5 0-14.6l30.5-30.5c4-4-7-25.8-7-25.8l47.3 47.3s-21.8-11-25.8-7l-30.5 30.5c-4 4.1-10.5 4.1-14.5 0.1z"/>
		<linearGradient id="t" x2="73.84" y1="196.7" y2="196.7" gradientUnits="userSpaceOnUse">
			<stop stop-color="#BEBEDE" stop-opacity="0" offset="0"/>
			<stop stop-color="#8E8DC3" stop-opacity=".4456" offset=".4456"/>
			<stop stop-color="#6D6CB1" stop-opacity=".8036" offset=".8036"/>
			<stop stop-color="#6160AA" offset="1"/>
		</linearGradient>
		<path class="st32" d="m3 230.6c-4-4-4-10.5 0-14.6l30.5-30.5c4-4-7-25.8-7-25.8l47.3 47.3s-21.8-11-25.8-7l-30.5 30.5c-4 4.1-10.5 4.1-14.5 0.1z"/>
		<circle class="st7" cx="9.3" cy="224.3" r="3.1"/>
		<path class="st5" d="m3 216.1 30.5-30.5"/>
		<line class="st33" x1="80.2" x2="40.7" y1="185.2" y2="145.7"/>
		<path class="st13" d="m269 175.2s3.5-6.8-0.8-11.1-11.1-0.8-11.1-0.8l-5.2 17 17.1-5.1z"/>
		<path class="st9" d="m303 118.7c2.9 0 5.7 0.9 7.7 2.9 2.4 2.4 3.2 5.7 2.9 9.1l10.4-10.4c4-4 3.9-10.4 1.2-13.1s-9.2-2.8-13.1 1.2l-10.4 10.4c0.4-0.1 0.8-0.1 1.3-0.1z"/>
		<linearGradient id="s" x1="301.66" x2="327.08" y1="118" y2="118" gradientUnits="userSpaceOnUse">
			<stop stop-color="#BEBEDE" stop-opacity="0" offset="0"/>
			<stop stop-color="#8E8DC3" stop-opacity=".4456" offset=".4456"/>
			<stop stop-color="#6D6CB1" stop-opacity=".8036" offset=".8036"/>
			<stop stop-color="#6160AA" offset="1"/>
		</linearGradient>
		<path class="st34" d="m303 118.7c2.9 0 5.7 0.9 7.7 2.9 2.4 2.4 3.2 5.7 2.9 9.1l10.4-10.4c4-4 3.9-10.4 1.2-13.1s-9.2-2.8-13.1 1.2l-10.4 10.4c0.4-0.1 0.8-0.1 1.3-0.1z"/>
		<linearGradient id="r" x1="265.98" x2="254.12" y1="178.23" y2="166.37" gradientUnits="userSpaceOnUse">
			<stop stop-color="#A19FCE" offset="0"/>
			<stop stop-color="#BEBCDC" offset=".2556"/>
			<stop stop-color="#D6D4E8" offset=".5322"/>
			<stop stop-color="#E5E3EF" offset=".7877"/>
			<stop stop-color="#EAE8F2" offset="1"/>
		</linearGradient>
		<path class="st35" d="m269 175.2s3.5-6.8-0.8-11.1-11.1-0.8-11.1-0.8l-5.2 17 17.1-5.1z"/>
		<path class="st3" d="m268.5 163.9c4.3 4.3 0.8 11.1 0.8 11.1l45.6-45.6c3.3-3.3 4.2-9.6 1-12.9-3.3-3.3-9.6-2.3-12.9 1l-45.6 45.6s6.7-3.5 11.1 0.8z"/>
		<path class="st3" d="m268.5 163.9c4.3 4.3 0.8 11.1 0.8 11.1l45.6-45.6c3.3-3.3 4.2-9.6 1-12.9-3.3-3.3-9.6-2.3-12.9 1l-45.6 45.6s6.7-3.5 11.1 0.8z"/>
		<linearGradient id="p" x1="283.65" x2="295.52" y1="136.81" y2="148.69" gradientUnits="userSpaceOnUse">
			<stop stop-color="#fff" stop-opacity="0" offset="0"/>
			<stop stop-color="#EBEBF5" stop-opacity=".2571" offset=".2571"/>
			<stop stop-color="#CACAE4" stop-opacity=".7362" offset=".7362"/>
			<stop stop-color="#BEBEDE" offset="1"/>
		</linearGradient>
		<path class="st36" d="m268.5 163.9c4.3 4.3 0.8 11.1 0.8 11.1l45.6-45.6c3.3-3.3 4.2-9.6 1-12.9-3.3-3.3-9.6-2.3-12.9 1l-45.6 45.6s6.7-3.5 11.1 0.8z"/>
		<path class="st7" d="m268.2 164.1c1 1 1.7 2.2 2 3.6l47.5-47.5c-0.2-1.4-0.9-2.7-1.9-3.7s-2.3-1.6-3.7-1.9l-47.5 47.5c1.4 0.4 2.6 1 3.6 2z"/>
		<linearGradient id="o" x1="288.83" x2="294.39" y1="137.96" y2="143.53" gradientUnits="userSpaceOnUse">
			<stop stop-color="#F7B445" stop-opacity="0" offset="0"/>
			<stop stop-color="#F7B445" stop-opacity=".9648" offset=".9648"/>
			<stop stop-color="#F7B445" offset="1"/>
		</linearGradient>
		<path class="st37" d="m268.2 164.1c1 1 1.7 2.2 2 3.6l47.5-47.5c-0.2-1.4-0.9-2.7-1.9-3.7s-2.3-1.6-3.7-1.9l-47.5 47.5c1.4 0.4 2.6 1 3.6 2z"/>
		<path class="st9" d="m256.4 179s1.5-1.5 0-3.1c-1.6-1.6-3.1 0-3.1 0l-1.4 4.5 4.5-1.4z"/>
		<linearGradient id="n" x1="251.9" x2="257.09" y1="177.83" y2="177.83" gradientUnits="userSpaceOnUse">
			<stop stop-color="#BEBEDE" stop-opacity="0" offset="0"/>
			<stop stop-color="#8E8DC3" stop-opacity=".4456" offset=".4456"/>
			<stop stop-color="#6D6CB1" stop-opacity=".8036" offset=".8036"/>
			<stop stop-color="#6160AA" offset="1"/>
		</linearGradient>
		<path class="st38" d="m256.4 179s1.5-1.5 0-3.1c-1.6-1.6-3.1 0-3.1 0l-1.4 4.5 4.5-1.4z"/>
		<path class="st13" d="m311.8 108.7-9.7 9.8"/>
		<rect class="st3" x="176.4" y="165.4" width="59.2" height="59.2"/>
		<linearGradient id="m" x1="176.35" x2="235.54" y1="195.01" y2="195.01" gradientUnits="userSpaceOnUse">
			<stop stop-color="#BEBEDE" offset="0"/>
			<stop stop-color="#CACAE4" stop-opacity=".7362" offset=".2638"/>
			<stop stop-color="#EBEBF5" stop-opacity=".2571" offset=".7429"/>
			<stop stop-color="#fff" stop-opacity="0" offset="1"/>
		</linearGradient>
		<rect class="st39" x="176.4" y="165.4" width="59.2" height="59.2"/>
		<path class="st9" d="M237,219V171h4.2v-11.3h-11.3v4.2H182v-4.2h-11.3V171h4.2V219h-4.2v11.3H182v-4.2h49.1v4.2h11.3V219H237z     M182,223.2V219h-4.2V171h4.2v-4.2h47.9v4.2h4.2V219h-3v4.2H182z"/>
		<linearGradient id="l" x1="206.54" x2="206.54" y1="230.24" y2="159.78" gradientUnits="userSpaceOnUse">
			<stop stop-color="#fff" stop-opacity="0" offset="0"/>
			<stop stop-color="#EBEBF5" stop-opacity=".2571" offset=".2571"/>
			<stop stop-color="#CACAE4" stop-opacity=".7362" offset=".7362"/>
			<stop stop-color="#BEBEDE" offset="1"/>
		</linearGradient>
		<path class="st40" d="M237,219V171h4.2v-11.3h-11.3v4.2H182v-4.2h-11.3V171h4.2V219h-4.2v11.3H182v-4.2h49.1v4.2h11.3V219H237z     M182,223.2V219h-4.2V171h4.2v-4.2h47.9v4.2h4.2V219h-3v4.2H182z"/>
		<path class="st9" d="m28.6 137c-3.7 0-6.6-3-6.6-6.6 0-3.7 3-6.6 6.6-6.6s6.6 3 6.6 6.6-3 6.6-6.6 6.6zm0-10.4c-2.1 0-3.7 1.7-3.7 3.7s1.7 3.7 3.7 3.7 3.7-1.7 3.7-3.7-1.7-3.7-3.7-3.7z"/>
		<path class="st9" d="m309.1 93c-3.7 0-6.6-3-6.6-6.6s3-6.6 6.6-6.6c3.7 0 6.6 3 6.6 6.6s-2.9 6.6-6.6 6.6zm0-10.4c-2.1 0-3.7 1.7-3.7 3.7 0 2.1 1.7 3.7 3.7 3.7 2.1 0 3.7-1.7 3.7-3.7 0.1-2-1.6-3.7-3.7-3.7z"/>
		<path class="st9" d="m6.5 114c-0.2 0-0.4 0-0.6-0.1-0.5-0.2-0.9-0.8-0.9-1.3v-11c0-0.8 0.6-1.5 1.4-1.5 0.4 0 0.8 0.2 1 0.4l5.5 5.5c0.3 0.3 0.4 0.6 0.4 1s-0.1 0.8-0.4 1l-5.5 5.5c-0.1 0.4-0.5 0.5-0.9 0.5zm1.5-9v4l2-2-2-2z"/>
		<path class="st9" d="m317.8 157.4c-0.8 0-1.4-0.6-1.5-1.4v-11.1c0-0.8 0.6-1.5 1.4-1.5 0.4 0 0.8 0.2 1 0.4l5.5 5.5c0.6 0.6 0.6 1.5 0 2l-5.5 5.5c-0.1 0.4-0.5 0.6-0.9 0.6zm1.5-9v4l2-2-2-2z"/>
		<path class="st9" d="m43.2 98.1h-4.2c-0.5 0-1-0.3-1.2-0.7l-2.1-3.7c-0.3-0.4-0.3-1 0-1.5l2.1-3.7c0.3-0.4 0.7-0.7 1.2-0.7h4.3c0.5 0 1 0.3 1.2 0.7l2.1 3.7c0.3 0.4 0.3 1 0 1.5l-2.1 3.7c-0.3 0.4-0.7 0.7-1.3 0.7zm-3.4-2.9h2.6l1.3-2.3-1.3-2.3h-2.6l-1.3 2.2 1.3 2.4z"/>
		<polygon class="st7" points="328.9 96.6 334.8 95.6 335.7 89.8 336.7 95.6 342.6 96.6 336.7 97.6 335.7 103.5 334.8 97.6"/>
		<polygon class="st7" points="5.2 155.9 11.1 154.9 12.1 149.1 13 154.9 18.9 155.9 13 156.9 12.1 162.8 11.1 156.9"/>
		<polygon class="st7" points="235.5 251.6 241.4 250.6 242.4 244.7 243.4 250.6 249.2 251.6 243.4 252.6 242.4 258.4 241.4 252.6"/>
		<polygon class="st7" points="263.5 21.4 269.3 20.4 270.3 14.5 271.3 20.4 277.2 21.4 271.3 22.3 270.3 28.2 269.3 22.3"/>
		<path class="st9" d="m272.9 113.8h-44c-3.8-0.1-6.7-3.2-6.6-7 0.1-3.6 3-6.6 6.6-6.6h44c3.8 0.1 6.7 3.2 6.6 7 0 3.6-3 6.5-6.6 6.6zm-44-10.7c-2.2 0.1-3.9 1.9-3.8 4s1.7 3.7 3.8 3.8h44c2.2-0.1 3.9-1.9 3.8-4s-1.7-3.7-3.8-3.8h-44z"/>
		<linearGradient id="k" x1="222.26" x2="279.56" y1="107.02" y2="107.02" gradientUnits="userSpaceOnUse">
			<stop stop-color="#BEBEDE" offset="0"/>
			<stop stop-color="#CACAE4" stop-opacity=".7362" offset=".2638"/>
			<stop stop-color="#EBEBF5" stop-opacity=".2571" offset=".7429"/>
			<stop stop-color="#fff" stop-opacity="0" offset="1"/>
		</linearGradient>
		<path class="st41" d="m272.9 113.8h-44c-3.8-0.1-6.7-3.2-6.6-7 0.1-3.6 3-6.6 6.6-6.6h44c3.8 0.1 6.7 3.2 6.6 7 0 3.6-3 6.5-6.6 6.6zm-44-10.7c-2.2 0.1-3.9 1.9-3.8 4s1.7 3.7 3.8 3.8h44c2.2-0.1 3.9-1.9 3.8-4s-1.7-3.7-3.8-3.8h-44z"/>
		<path class="st9" d="m272.9 134.5h-44c-3.8-0.1-6.7-3.2-6.6-7 0.1-3.6 3-6.6 6.6-6.6h44c3.8 0.1 6.7 3.2 6.6 7 0 3.6-3 6.5-6.6 6.6zm-44-10.7c-2.2 0.1-3.9 1.9-3.8 4s1.7 3.7 3.8 3.8h44c2.2-0.1 3.9-1.9 3.8-4s-1.7-3.7-3.8-3.8h-44z"/>
		<linearGradient id="j" x1="222.26" x2="279.56" y1="127.72" y2="127.72" gradientUnits="userSpaceOnUse">
			<stop stop-color="#BEBEDE" offset="0"/>
			<stop stop-color="#CACAE4" stop-opacity=".7362" offset=".2638"/>
			<stop stop-color="#EBEBF5" stop-opacity=".2571" offset=".7429"/>
			<stop stop-color="#fff" stop-opacity="0" offset="1"/>
		</linearGradient>
		<path class="st42" d="m272.9 134.5h-44c-3.8-0.1-6.7-3.2-6.6-7 0.1-3.6 3-6.6 6.6-6.6h44c3.8 0.1 6.7 3.2 6.6 7 0 3.6-3 6.5-6.6 6.6zm-44-10.7c-2.2 0.1-3.9 1.9-3.8 4s1.7 3.7 3.8 3.8h44c2.2-0.1 3.9-1.9 3.8-4s-1.7-3.7-3.8-3.8h-44z"/>
		<path class="st9" d="m272.9 93.1h-85.2c-3.8 0.1-6.9-2.9-7-6.6-0.1-3.8 2.9-6.9 6.6-7h85.5c3.8 0.1 6.7 3.2 6.6 7 0.1 3.6-2.9 6.6-6.5 6.6zm-85.2-10.7c-2.2-0.1-4 1.6-4 3.8-0.1 2.2 1.6 4 3.8 4h85.5c2.2-0.1 3.9-1.9 3.8-4s-1.7-3.7-3.8-3.8h-85.3z"/>
		<linearGradient id="i" x1="180.72" x2="279.56" y1="86.335" y2="86.335" gradientUnits="userSpaceOnUse">
			<stop stop-color="#BEBEDE" offset="0"/>
			<stop stop-color="#CACAE4" stop-opacity=".7362" offset=".2638"/>
			<stop stop-color="#EBEBF5" stop-opacity=".2571" offset=".7429"/>
			<stop stop-color="#fff" stop-opacity="0" offset="1"/>
		</linearGradient>
		<path class="st43" d="m272.9 93.1h-85.2c-3.8 0.1-6.9-2.9-7-6.6-0.1-3.8 2.9-6.9 6.6-7h85.5c3.8 0.1 6.7 3.2 6.6 7 0.1 3.6-2.9 6.6-6.5 6.6zm-85.2-10.7c-2.2-0.1-4 1.6-4 3.8-0.1 2.2 1.6 4 3.8 4h85.5c2.2-0.1 3.9-1.9 3.8-4s-1.7-3.7-3.8-3.8h-85.3z"/>
		<path class="st9" d="m201.4 147.3c-10.1-10.8-26.8-13.1-39.7-4.9-12.2 7.8-17.1 22.7-12.9 35.9v10.1h11.3v-11.3h-8.2c-3.3-11.6 1-24.4 11.4-31.4 11.1-7.4 25.6-5.9 35 2.8v10h11.3v-11.3h-8.2z"/>
		<linearGradient id="h" x1="157.18" x2="189.69" y1="145.93" y2="178.44" gradientUnits="userSpaceOnUse">
			<stop stop-color="#BEBEDE" offset="0"/>
			<stop stop-color="#CACAE4" stop-opacity=".7362" offset=".2638"/>
			<stop stop-color="#EBEBF5" stop-opacity=".2571" offset=".7429"/>
			<stop stop-color="#fff" stop-opacity="0" offset="1"/>
		</linearGradient>
		<path class="st44" d="m201.4 147.3c-10.1-10.8-26.8-13.1-39.7-4.9-12.2 7.8-17.1 22.7-12.9 35.9v10.1h11.3v-11.3h-8.2c-3.3-11.6 1-24.4 11.4-31.4 11.1-7.4 25.6-5.9 35 2.8v10h11.3v-11.3h-8.2z"/>
</svg>
