<?xml version="1.0" encoding="UTF-8"?>
<svg enable-background="new 0 0 345.1 247.9" version="1.1" viewBox="0 0 345.1 247.9" xml:space="preserve" xmlns="http://www.w3.org/2000/svg">
<style type="text/css">
	.st0{fill:url(#s);}
	.st1{fill:url(#h);}
	.st2{opacity:0.4;fill:#EAE8F2;enable-background:new    ;}
	.st3{fill:#FFFFFF;}
	.st4{opacity:0.2;fill:url(#g);}
	.st5{fill:#A19FCE;}
	.st6{fill:url(#f);}
	.st7{fill:#706DAA;}
	.st8{fill:url(#e);}
	.st9{fill:url(#d);}
	.st10{fill:url(#c);}
	.st11{fill:#F496A9;}
	.st12{opacity:0.8;fill:url(#b);}
	.st13{fill:url(#a);}
	.st14{fill:#EAE8F2;}
	.st15{fill:url(#ac);}
	.st16{fill:url(#ab);}
	.st17{fill:url(#aa);}
	.st18{fill:url(#z);}
	.st19{fill:url(#y);}
	.st20{opacity:0.6;fill:url(#x);}
	.st21{fill:#E2E0EF;}
	.st22{opacity:0.4;fill:url(#w);}
	.st23{fill:none;}
	.st24{fill:#F7C778;}
	.st25{opacity:0.8;fill:url(#v);}
	.st26{fill:url(#u);}
	.st27{fill:url(#t);}
	.st28{fill:url(#r);}
	.st29{fill:url(#q);}
	.st30{fill:#FAFBFB;}
	.st31{fill:url(#p);}
	.st32{opacity:0.8;fill:url(#o);}
	.st33{opacity:0.6;fill:url(#n);}
	.st34{fill:url(#m);}
	.st35{opacity:0.8;fill:url(#l);}
	.st36{fill:url(#k);}
	.st37{fill:url(#j);}
	.st38{fill:url(#i);}
</style>
		<linearGradient id="s" x2="329.76" y1="121.35" y2="121.35" gradientUnits="userSpaceOnUse">
			<stop stop-color="#A19FCE" offset="0"/>
			<stop stop-color="#EAE8F2" offset="1"/>
		</linearGradient>
		<path class="st0" d="m0.8 135.5c15-77.2 108.2-18 154.2-52.2s94.6-110 146.7-73.6 28.3 155.8-44.4 211.9-271.6-8.9-256.5-86.1z"/>
		<linearGradient id="h" x1="164.88" x2="164.88" y1="242.7" gradientUnits="userSpaceOnUse">
			<stop stop-color="#6160AA" offset="0"/>
			<stop stop-color="#6D6CB1" stop-opacity=".8036" offset=".1964"/>
			<stop stop-color="#8E8DC3" stop-opacity=".4456" offset=".5544"/>
			<stop stop-color="#BEBEDE" stop-opacity="0" offset="1"/>
		</linearGradient>
		<path class="st1" d="m0.8 135.5c15-77.2 108.2-18 154.2-52.2s94.6-110 146.7-73.6 28.3 155.8-44.4 211.9-271.6-8.9-256.5-86.1z"/>
		<path class="st2" d="m302.9 10.5c34.4 46 8.6 148.7-57.2 199.5-53.8 41.5-176.4 16.8-230.7-30 46 54 184.2 86.3 242.3 41.5 72.2-55.7 96.1-173.7 45.6-211z"/>
		<path class="st3" d="m64.3 34.3h215.7c6.2 0 11.1 5 11.2 11.2v152c0 6.2-5 11.1-11.2 11.2h-215.7c-6.2 0-11.1-5-11.2-11.2v-152c0-6.2 5-11.2 11.2-11.2-0.1 0 0 0 0 0z"/>
		<linearGradient id="g" x1="172.16" x2="172.16" y1="208.59" y2="34.308" gradientUnits="userSpaceOnUse">
			<stop stop-color="#BEBEDE" offset="0"/>
			<stop stop-color="#CACAE4" stop-opacity=".7362" offset=".2638"/>
			<stop stop-color="#EBEBF5" stop-opacity=".2571" offset=".7429"/>
			<stop stop-color="#fff" stop-opacity="0" offset="1"/>
		</linearGradient>
		<path class="st4" d="m64.3 34.3h215.7c6.2 0 11.1 5 11.2 11.2v152c0 6.2-5 11.1-11.2 11.2h-215.7c-6.2 0-11.1-5-11.2-11.2v-152c0-6.2 5-11.2 11.2-11.2-0.1 0 0 0 0 0z"/>
		<path class="st5" d="m280.5 34.3h-216.8c-5.8 0-10.6 5.3-10.6 11.7v14.8h238v-14.8c0.1-6.5-4.7-11.7-10.6-11.7z"/>
		<linearGradient id="f" x1="53.116" x2="291.16" y1="47.532" y2="47.532" gradientUnits="userSpaceOnUse">
			<stop stop-color="#BEBEDE" stop-opacity="0" offset="0"/>
			<stop stop-color="#8E8DC3" stop-opacity=".4456" offset=".4456"/>
			<stop stop-color="#6D6CB1" stop-opacity=".8036" offset=".8036"/>
			<stop stop-color="#6160AA" offset="1"/>
		</linearGradient>
		<path class="st6" d="m280.5 34.3h-216.8c-5.8 0-10.6 5.3-10.6 11.7v14.8h238v-14.8c0.1-6.5-4.7-11.7-10.6-11.7z"/>
		<circle class="st7" cx="68" cy="47.6" r="4.3"/>
		<circle class="st7" cx="82" cy="47.6" r="4.3"/>
		<circle class="st7" cx="96" cy="47.6" r="4.3"/>
		<linearGradient id="e" x1="63.646" x2="72.269" y1="47.615" y2="47.615" gradientUnits="userSpaceOnUse">
			<stop stop-color="#6160AA" offset="0"/>
			<stop stop-color="#6D6CB1" stop-opacity=".8036" offset=".1964"/>
			<stop stop-color="#8E8DC3" stop-opacity=".4456" offset=".5544"/>
			<stop stop-color="#BEBEDE" stop-opacity="0" offset="1"/>
		</linearGradient>
		<circle class="st8" cx="68" cy="47.6" r="4.3"/>
		<linearGradient id="d" x1="77.658" x2="86.281" y1="47.615" y2="47.615" gradientUnits="userSpaceOnUse">
			<stop stop-color="#6160AA" offset="0"/>
			<stop stop-color="#6D6CB1" stop-opacity=".8036" offset=".1964"/>
			<stop stop-color="#8E8DC3" stop-opacity=".4456" offset=".5544"/>
			<stop stop-color="#BEBEDE" stop-opacity="0" offset="1"/>
		</linearGradient>
		<circle class="st9" cx="82" cy="47.6" r="4.3"/>
		<linearGradient id="c" x1="91.712" x2="100.33" y1="47.615" y2="47.615" gradientUnits="userSpaceOnUse">
			<stop stop-color="#6160AA" offset="0"/>
			<stop stop-color="#6D6CB1" stop-opacity=".8036" offset=".1964"/>
			<stop stop-color="#8E8DC3" stop-opacity=".4456" offset=".5544"/>
			<stop stop-color="#BEBEDE" stop-opacity="0" offset="1"/>
		</linearGradient>
		<circle class="st10" cx="96" cy="47.6" r="4.3"/>
		<path class="st11" d="m75.7 74.7h53.9c3.9 0 7 3.1 7 7v63.6c0 3.9-3.1 7-7 7h-53.9c-3.9 0-7-3.1-7-7v-63.6c0-3.8 3.1-7 7-7z"/>
		<linearGradient id="b" x1="68.662" x2="136.53" y1="113.55" y2="113.55" gradientUnits="userSpaceOnUse">
			<stop stop-color="#EF5675" stop-opacity="0" offset="0"/>
			<stop stop-color="#EF5675" offset="1"/>
		</linearGradient>
		<path class="st12" d="m75.7 74.7h53.9c3.9 0 7 3.1 7 7v63.6c0 3.9-3.1 7-7 7h-53.9c-3.9 0-7-3.1-7-7v-63.6c0-3.8 3.1-7 7-7z"/>
		<path class="st7" d="m265.1 88.8h-86.7c-3.8 0-6.9-3.1-6.9-6.9s3.1-6.9 6.9-6.9h86.7c3.8 0 6.9 3.1 6.9 6.9s-3.1 6.9-6.9 6.9zm-86.7-10.9c-2.2 0-4 1.8-4 4s1.8 4 4 4h86.7c2.2 0 4-1.8 4-4s-1.8-4-4-4h-86.7z"/>
		<linearGradient id="a" x1="171.52" x2="272.04" y1="81.858" y2="81.858" gradientUnits="userSpaceOnUse">
			<stop stop-color="#BEBEDE" offset="0"/>
			<stop stop-color="#CACAE4" stop-opacity=".7362" offset=".2638"/>
			<stop stop-color="#EBEBF5" stop-opacity=".2571" offset=".7429"/>
			<stop stop-color="#fff" stop-opacity="0" offset="1"/>
		</linearGradient>
		<path class="st13" d="m265.1 88.8h-86.7c-3.8 0-6.9-3.1-6.9-6.9s3.1-6.9 6.9-6.9h86.7c3.8 0 6.9 3.1 6.9 6.9s-3.1 6.9-6.9 6.9zm-86.7-10.9c-2.2 0-4 1.8-4 4s1.8 4 4 4h86.7c2.2 0 4-1.8 4-4s-1.8-4-4-4h-86.7z"/>
		<path class="st14" d="m265.1 97.5h-7.9c2.9 0 5.2 2.3 5.2 5.2v0.5c0 2.9-2.3 5.2-5.2 5.2h7.9c3 0 5.5-2.5 5.5-5.5s-2.5-5.4-5.5-5.4z"/>
		<path class="st7" d="m265.1 109.9h-86.7c-3.8 0-6.9-3.1-6.9-6.9s3.1-6.9 6.9-6.9h86.7c3.8 0 6.9 3.1 6.9 6.9 0.1 3.8-3 6.9-6.9 6.9zm-86.7-10.9c-2.2 0-4 1.8-4 4s1.8 4 4 4h86.7c2.2 0 4-1.8 4-4s-1.8-4-4-4h-86.7z"/>
		<linearGradient id="ac" x1="171.52" x2="272.05" y1="102.93" y2="102.93" gradientUnits="userSpaceOnUse">
			<stop stop-color="#BEBEDE" offset="0"/>
			<stop stop-color="#CACAE4" stop-opacity=".7362" offset=".2638"/>
			<stop stop-color="#EBEBF5" stop-opacity=".2571" offset=".7429"/>
			<stop stop-color="#fff" stop-opacity="0" offset="1"/>
		</linearGradient>
		<path class="st15" d="m265.1 109.9h-86.7c-3.8 0-6.9-3.1-6.9-6.9s3.1-6.9 6.9-6.9h86.7c3.8 0 6.9 3.1 6.9 6.9 0.1 3.8-3 6.9-6.9 6.9zm-86.7-10.9c-2.2 0-4 1.8-4 4s1.8 4 4 4h86.7c2.2 0 4-1.8 4-4s-1.8-4-4-4h-86.7z"/>
		<path class="st14" d="m265.1 118.6h-7.9c2.9 0 5.2 2.3 5.2 5.2v0.5c0 2.9-2.3 5.2-5.2 5.2h7.9c3 0 5.5-2.5 5.5-5.5s-2.5-5.4-5.5-5.4z"/>
		<path class="st7" d="m265.1 130.9h-104.6c-3.8 0-6.9-3.1-6.9-6.9s3.1-6.9 6.9-6.9h104.7c3.8 0 6.9 3.1 6.9 6.9s-3.2 6.9-7 6.9zm-104.6-10.9c-2.2 0-4 1.8-4 4s1.8 4 4 4h104.7c2.2 0 4-1.8 4-4s-1.8-4-4-4h-104.7z"/>
		<linearGradient id="ab" x1="153.57" x2="272.07" y1="123.98" y2="123.98" gradientUnits="userSpaceOnUse">
			<stop stop-color="#BEBEDE" offset="0"/>
			<stop stop-color="#CACAE4" stop-opacity=".7362" offset=".2638"/>
			<stop stop-color="#EBEBF5" stop-opacity=".2571" offset=".7429"/>
			<stop stop-color="#fff" stop-opacity="0" offset="1"/>
		</linearGradient>
		<path class="st16" d="m265.1 130.9h-104.6c-3.8 0-6.9-3.1-6.9-6.9s3.1-6.9 6.9-6.9h104.7c3.8 0 6.9 3.1 6.9 6.9s-3.2 6.9-7 6.9zm-104.6-10.9c-2.2 0-4 1.8-4 4s1.8 4 4 4h104.7c2.2 0 4-1.8 4-4s-1.8-4-4-4h-104.7z"/>
		<path class="st14" d="m265.1 139.6h-7.9c2.9 0 5.2 2.3 5.2 5.2v0.5c0 2.9-2.3 5.2-5.2 5.2h7.9c3 0 5.5-2.5 5.5-5.5s-2.5-5.4-5.5-5.4z"/>
		<path class="st7" d="m265.1 152h-104.6c-3.8 0-6.9-3.1-6.9-6.9s3.1-6.9 6.9-6.9h104.7c3.8 0 6.9 3.1 6.9 6.9s-3.2 6.9-7 6.9zm-104.6-10.9c-2.2 0-4 1.8-4 4s1.8 4 4 4h104.7c2.2 0 4-1.8 4-4s-1.8-4-4-4h-104.7z"/>
		<linearGradient id="aa" x1="153.57" x2="272.07" y1="145.04" y2="145.04" gradientUnits="userSpaceOnUse">
			<stop stop-color="#BEBEDE" offset="0"/>
			<stop stop-color="#CACAE4" stop-opacity=".7362" offset=".2638"/>
			<stop stop-color="#EBEBF5" stop-opacity=".2571" offset=".7429"/>
			<stop stop-color="#fff" stop-opacity="0" offset="1"/>
		</linearGradient>
		<path class="st17" d="m265.1 152h-104.6c-3.8 0-6.9-3.1-6.9-6.9s3.1-6.9 6.9-6.9h104.7c3.8 0 6.9 3.1 6.9 6.9s-3.2 6.9-7 6.9zm-104.6-10.9c-2.2 0-4 1.8-4 4s1.8 4 4 4h104.7c2.2 0 4-1.8 4-4s-1.8-4-4-4h-104.7z"/>
		<path class="st3" d="m321.4 154.5c5.8 1.8 9.1 7.9 7.4 13.8l-0.9 3.1c-1.8 5.8-7.9 9.1-13.8 7.4l-1.7-0.5 7.3-24.2 1.7 0.4z"/>
		<path class="st11" d="m321.4 154.5c5.8 1.8 9.1 7.9 7.4 13.8l-0.9 3.1c-1.8 5.8-7.9 9.1-13.8 7.4l-1.7-0.5 7.3-24.2 1.7 0.4z"/>
		<linearGradient id="z" x1="312.42" x2="329.27" y1="166.6" y2="166.6" gradientUnits="userSpaceOnUse">
			<stop stop-color="#EF5675" offset="0"/>
			<stop stop-color="#EF5675" stop-opacity="0" offset="1"/>
		</linearGradient>
		<path class="st18" d="m321.4 154.5c5.8 1.8 9.1 7.9 7.4 13.8l-0.9 3.1c-1.8 5.8-7.9 9.1-13.8 7.4l-1.7-0.5 7.3-24.2 1.7 0.4z"/>
		<path class="st11" d="m289.9 170.8-12.9 42.5c-1.2 4.2 1.2 8.5 5.4 9.7 4.1 1.2 8.3-1.1 9.6-5.1l12.9-42.6-15-4.5z"/>
		<linearGradient id="y" x1="290.82" x2="290.82" y1="223.33" y2="170.8" gradientUnits="userSpaceOnUse">
			<stop stop-color="#EF5675" stop-opacity="0" offset="0"/>
			<stop stop-color="#EF5675" offset="1"/>
		</linearGradient>
		<path class="st19" d="m289.9 170.8-12.9 42.5c-1.2 4.2 1.2 8.5 5.4 9.7 4.1 1.2 8.3-1.1 9.6-5.1l12.9-42.6-15-4.5z"/>
		<path class="st3" d="m319.5 144.2c3.1 0.9 4.8 4.1 3.9 7.2l-9.3 30.8c-0.9 3.1-4.1 4.8-7.2 3.9l-27.4-8.3 12.7-41.9 27.3 8.3z"/>
		<path class="st3" d="m319.5 144.2c3.1 0.9 4.8 4.1 3.9 7.2l-9.3 30.8c-0.9 3.1-4.1 4.8-7.2 3.9l-27.4-8.3 12.7-41.9 27.3 8.3z"/>
		<linearGradient id="x" x1="279.42" x2="323.65" y1="161.16" y2="161.16" gradientUnits="userSpaceOnUse">
			<stop stop-color="#fff" stop-opacity="0" offset="0"/>
			<stop stop-color="#EBEBF5" stop-opacity=".2571" offset=".2571"/>
			<stop stop-color="#CACAE4" stop-opacity=".7362" offset=".7362"/>
			<stop stop-color="#BEBEDE" offset="1"/>
		</linearGradient>
		<path class="st20" d="m319.5 144.2c3.1 0.9 4.8 4.1 3.9 7.2l-9.3 30.8c-0.9 3.1-4.1 4.8-7.2 3.9l-27.4-8.3 12.7-41.9 27.3 8.3z"/>
		<path class="st21" d="m308.2 177.9-1.1 3.6"/>
		<path class="st21" d="m315.9 152.4-6.6 21.8"/>
		<polygon class="st3" points="214 192.7 279.4 177.9 292.2 135.8 245.9 87.2"/>
		<path class="st3" d="m247 77.8c2.8 0.9 4.3 3.8 3.5 6.6l-34.2 113.1c-0.9 2.8-3.8 4.3-6.6 3.5-2.8-0.9-4.4-3.8-3.5-6.6l34.3-113.1c0.7-2.7 3.6-4.3 6.5-3.5-0.1 0-0.1 0 0 0z"/>
		<polygon class="st5" points="214 192.7 279.4 177.9 292.2 135.8 245.9 87.2"/>
		<linearGradient id="w" x1="213.97" x2="292.15" y1="139.94" y2="139.94" gradientUnits="userSpaceOnUse">
			<stop stop-color="#BEBEDE" stop-opacity="0" offset="0"/>
			<stop stop-color="#ABABD3" stop-opacity=".2534" offset=".2534"/>
			<stop stop-color="#7A79B8" stop-opacity=".7666" offset=".7666"/>
			<stop stop-color="#6160AA" offset="1"/>
		</linearGradient>
		<polygon class="st22" points="214 192.7 279.4 177.9 292.2 135.8 245.9 87.2"/>
		<line class="st23" x1="279.4" x2="292.2" y1="177.9" y2="135.8"/>
		<path class="st24" d="m247 77.8c2.8 0.9 4.3 3.8 3.5 6.6l-34.2 113.1c-0.9 2.8-3.8 4.3-6.6 3.5-2.8-0.9-4.4-3.8-3.5-6.6l34.3-113.1c0.7-2.7 3.6-4.3 6.5-3.5-0.1 0-0.1 0 0 0z"/>
		<path class="st11" d="m247 77.8c2.8 0.9 4.3 3.8 3.5 6.6l-34.2 113.1c-0.9 2.8-3.8 4.3-6.6 3.5-2.8-0.9-4.4-3.8-3.5-6.6l34.3-113.1c0.7-2.7 3.6-4.3 6.5-3.5-0.1 0-0.1 0 0 0z"/>
		<linearGradient id="v" x1="205.9" x2="250.71" y1="139.45" y2="139.45" gradientUnits="userSpaceOnUse">
			<stop stop-color="#EF5675" offset="0"/>
			<stop stop-color="#EF5675" stop-opacity="0" offset="1"/>
		</linearGradient>
		<path class="st25" d="m247 77.8c2.8 0.9 4.3 3.8 3.5 6.6l-34.2 113.1c-0.9 2.8-3.8 4.3-6.6 3.5-2.8-0.9-4.4-3.8-3.5-6.6l34.3-113.1c0.7-2.7 3.6-4.3 6.5-3.5-0.1 0-0.1 0 0 0z"/>
		<path class="st7" d="m315.9 114.2c-3.7 0-6.7-3-6.7-6.7s3-6.7 6.7-6.7 6.7 3 6.7 6.7-3 6.7-6.7 6.7zm0-10.5c-2.1 0-3.8 1.7-3.8 3.8s1.7 3.8 3.8 3.8 3.8-1.7 3.8-3.8-1.7-3.8-3.8-3.8z"/>
		<path class="st7" d="m20 133.9c-0.8 0-1.4-0.6-1.5-1.4v-11.2c0-0.8 0.6-1.4 1.4-1.5 0.4 0 0.8 0.2 1 0.5l5.6 5.6c0.6 0.6 0.6 1.5 0 2.1l-5.6 5.6c-0.2 0.2-0.6 0.3-0.9 0.3zm1.4-9.2v4.2l2.1-2.1-2.1-2.1z"/>
		<path class="st7" d="m44.3 96.3h-4.3c-0.5 0-1-0.3-1.2-0.7l-2.2-3.8c-0.2-0.5-0.2-1 0-1.5l2.2-3.8c0.3-0.4 0.7-0.7 1.2-0.7h4.4c0.5 0 1 0.3 1.2 0.7l2.2 3.8c0.2 0.5 0.2 1 0 1.5l-2.2 3.8c-0.2 0.4-0.7 0.7-1.3 0.7zm-3.5-2.9h2.7l1.3-2.3-1.3-2.3h-2.7l-1.3 2.3 1.3 2.3z"/>
		<polygon class="st11" points="329.8 134.6 335.7 133.6 336.7 127.7 337.7 133.6 343.6 134.6 337.7 135.6 336.7 141.6 335.7 135.6"/>
		<polygon class="st11" points="0.6 77.6 6.6 76.6 7.6 70.6 8.6 76.6 14.5 77.6 8.6 78.6 7.6 84.6 6.6 78.6"/>
		<path class="st7" d="m339.4 86.3c-0.2 0-0.4 0-0.5-0.1-0.5-0.2-0.9-0.7-0.9-1.3v-8.4c0-0.8 0.6-1.4 1.4-1.5 0.4 0 0.8 0.2 1 0.5l4.2 4.2c0.6 0.6 0.6 1.5 0 2.1l-4.2 4.2c-0.2 0.2-0.6 0.3-1 0.3zm1.5-6.3v1.4l0.7-0.7-0.7-0.7z"/>
		<polygon class="st11" points="107.1 230.4 113.1 229.4 114.1 223.4 115.1 229.4 121 230.4 115.1 231.4 114.1 237.3 113.1 231.4"/>
		<linearGradient id="u" x1="329.75" x2="343.64" y1="134.63" y2="134.63" gradientUnits="userSpaceOnUse">
			<stop stop-color="#EF5675" stop-opacity="0" offset="0"/>
			<stop stop-color="#EF5675" offset="1"/>
		</linearGradient>
		<polygon class="st26" points="329.8 134.6 335.7 133.6 336.7 127.7 337.7 133.6 343.6 134.6 337.7 135.6 336.7 141.6 335.7 135.6"/>
		<linearGradient id="t" x1=".6332" x2="14.521" y1="77.588" y2="77.588" gradientUnits="userSpaceOnUse">
			<stop stop-color="#EF5675" stop-opacity="0" offset="0"/>
			<stop stop-color="#EF5675" offset="1"/>
		</linearGradient>
		<polygon class="st27" points="0.6 77.6 6.6 76.6 7.6 70.6 8.6 76.6 14.5 77.6 8.6 78.6 7.6 84.6 6.6 78.6"/>
		<linearGradient id="r" x1="107.13" x2="121.02" y1="230.37" y2="230.37" gradientUnits="userSpaceOnUse">
			<stop stop-color="#EF5675" stop-opacity="0" offset="0"/>
			<stop stop-color="#EF5675" offset="1"/>
		</linearGradient>
		<polygon class="st28" points="107.1 230.4 113.1 229.4 114.1 223.4 115.1 229.4 121 230.4 115.1 231.4 114.1 237.3 113.1 231.4"/>
		<path class="st7" d="m131.1 224.1c-2.2 0-3.9-1.8-3.9-3.9 0-2.2 1.8-3.9 3.9-3.9 2.2 0 3.9 1.8 3.9 3.9 0 2.2-1.8 3.9-3.9 3.9zm0-4.9c-0.6 0-1 0.5-1 1 0 0.6 0.5 1 1 1 0.6 0 1-0.5 1-1 0-0.6-0.4-1-1-1z"/>
		<path class="st7" d="m167.1 247.9h-4.4c-0.5 0-1-0.3-1.2-0.7l-2.2-3.8c-0.2-0.5-0.2-1 0-1.5l2.2-3.8c0.3-0.4 0.7-0.7 1.2-0.7h4.4c0.5 0 1 0.3 1.2 0.7l2.2 3.8c0.2 0.5 0.2 1 0 1.5l-2.2 3.8c-0.3 0.4-0.7 0.7-1.2 0.7zm-3.6-2.9h2.7l1.3-2.3-1.3-2.3h-2.7l-1.3 2.3 1.3 2.3z"/>
		<circle class="st5" cx="124.9" cy="98.2" r="31.9"/>
		<linearGradient id="q" x1="93.039" x2="156.8" y1="98.233" y2="98.233" gradientUnits="userSpaceOnUse">
			<stop stop-color="#BEBEDE" offset="0"/>
			<stop stop-color="#CACAE4" stop-opacity=".7362" offset=".2638"/>
			<stop stop-color="#EBEBF5" stop-opacity=".2571" offset=".7429"/>
			<stop stop-color="#fff" stop-opacity="0" offset="1"/>
		</linearGradient>
		<circle class="st29" cx="124.9" cy="98.2" r="31.9"/>
		<circle class="st30" cx="124.9" cy="98.2" r="25.5"/>
		<circle class="st5" cx="124.9" cy="98.2" r="21.1"/>
		<linearGradient id="p" x1="103.78" x2="146.06" y1="98.233" y2="98.233" gradientUnits="userSpaceOnUse">
			<stop stop-color="#fff" stop-opacity="0" offset="0"/>
			<stop stop-color="#EBEBF5" stop-opacity=".2571" offset=".2571"/>
			<stop stop-color="#CACAE4" stop-opacity=".7362" offset=".7362"/>
			<stop stop-color="#BEBEDE" offset="1"/>
		</linearGradient>
		<circle class="st31" cx="124.9" cy="98.2" r="21.1"/>
		<circle class="st30" cx="124.9" cy="98.2" r="15"/>
		<circle class="st11" cx="124.9" cy="98.2" r="9.5"/>
		<circle class="st11" cx="124.9" cy="98.2" r="9.5"/>
		<linearGradient id="o" x1="115.47" x2="134.37" y1="98.191" y2="98.191" gradientUnits="userSpaceOnUse">
			<stop stop-color="#EF5675" stop-opacity="0" offset="0"/>
			<stop stop-color="#EF5675" offset="1"/>
		</linearGradient>
		<circle class="st32" cx="124.9" cy="98.2" r="9.5"/>
			<rect class="st7" transform="matrix(.7072 -.707 .707 .7072 -18.466 123.12)" x="120.4" y="82.4" width="38" height="2.9"/>
		<polygon class="st7" points="123.8 95.1 123 100 128.2 99.4"/>
		<polygon class="st7" points="149.1 74 149.2 69.6 155.7 63.1 155.6 67.5"/>
		<polygon class="st7" points="149.2 74.1 153.6 74 160.1 67.5 155.7 67.6"/>
		<circle class="st14" cx="74.7" cy="171.4" r="49.1"/>
		<linearGradient id="n" x1="109.45" x2="39.978" y1="206.14" y2="136.67" gradientUnits="userSpaceOnUse">
			<stop stop-color="#BEBEDE" offset="0"/>
			<stop stop-color="#CACAE4" stop-opacity=".7362" offset=".2638"/>
			<stop stop-color="#EBEBF5" stop-opacity=".2571" offset=".7429"/>
			<stop stop-color="#fff" stop-opacity="0" offset="1"/>
		</linearGradient>
		<circle class="st33" cx="74.7" cy="171.4" r="49.1"/>
		<path class="st7" d="m41.1 198.3c-0.8 0-1.4-0.7-1.5-1.5v-51.4c0-0.8 0.6-1.5 1.5-1.5 0.8 0 1.5 0.6 1.5 1.5v51.4c0 0.9-0.7 1.6-1.5 1.5z"/>
		<rect class="st5" x="50.4" y="181.9" width="14.3" height="15"/>
		<linearGradient id="m" x1="57.573" x2="57.573" y1="196.94" y2="181.93" gradientUnits="userSpaceOnUse">
			<stop stop-color="#6160AA" offset="0"/>
			<stop stop-color="#6D6CB1" stop-opacity=".8036" offset=".1964"/>
			<stop stop-color="#8E8DC3" stop-opacity=".4456" offset=".5544"/>
			<stop stop-color="#BEBEDE" stop-opacity="0" offset="1"/>
		</linearGradient>
		<rect class="st34" x="50.4" y="181.9" width="14.3" height="15"/>
		<rect class="st11" x="68.9" y="167.6" width="14.3" height="29.4"/>
		<linearGradient id="l" x1="76.062" x2="76.062" y1="196.94" y2="167.59" gradientUnits="userSpaceOnUse">
			<stop stop-color="#EF5675" offset="0"/>
			<stop stop-color="#EF5675" stop-opacity="0" offset="1"/>
		</linearGradient>
		<rect class="st35" x="68.9" y="167.6" width="14.3" height="29.4"/>
		<rect class="st5" x="87.7" y="149.1" width="14.3" height="47.8"/>
		<linearGradient id="k" x1="94.883" x2="94.883" y1="196.9" y2="149.1" gradientUnits="userSpaceOnUse">
			<stop stop-color="#6160AA" offset="0"/>
			<stop stop-color="#6D6CB1" stop-opacity=".8036" offset=".1964"/>
			<stop stop-color="#8E8DC3" stop-opacity=".4456" offset=".5544"/>
			<stop stop-color="#BEBEDE" stop-opacity="0" offset="1"/>
		</linearGradient>
		<rect class="st36" x="87.7" y="149.1" width="14.3" height="47.8"/>
		<path class="st7" d="m113 198.3h-71.9c-0.8 0-1.5-0.6-1.5-1.5 0-0.8 0.6-1.5 1.5-1.5h71.9c0.8 0 1.4 0.7 1.4 1.5 0.1 0.9-0.6 1.6-1.4 1.5z"/>
		<linearGradient id="j" x1="41.136" x2="41.136" y1="198.35" y2="144.06" gradientUnits="userSpaceOnUse">
			<stop stop-color="#fff" stop-opacity="0" offset="0"/>
			<stop stop-color="#EBEBF5" stop-opacity=".2571" offset=".2571"/>
			<stop stop-color="#CACAE4" stop-opacity=".7362" offset=".7362"/>
			<stop stop-color="#BEBEDE" offset="1"/>
		</linearGradient>
		<path class="st37" d="m41.1 198.3c-0.8 0-1.4-0.7-1.5-1.5v-51.4c0-0.8 0.6-1.5 1.5-1.5 0.8 0 1.5 0.6 1.5 1.5v51.4c0 0.9-0.7 1.6-1.5 1.5z"/>
		<linearGradient id="i" x1="39.685" x2="114.49" y1="196.9" y2="196.9" gradientUnits="userSpaceOnUse">
			<stop stop-color="#fff" stop-opacity="0" offset="0"/>
			<stop stop-color="#EBEBF5" stop-opacity=".2571" offset=".2571"/>
			<stop stop-color="#CACAE4" stop-opacity=".7362" offset=".7362"/>
			<stop stop-color="#BEBEDE" offset="1"/>
		</linearGradient>
		<path class="st38" d="m113 198.3h-71.9c-0.8 0-1.5-0.6-1.5-1.5 0-0.8 0.6-1.5 1.5-1.5h71.9c0.8 0 1.4 0.7 1.4 1.5 0.1 0.9-0.6 1.6-1.4 1.5z"/>
</svg>
