<?xml version="1.0" encoding="utf-8"?>
<!-- Generator: Adobe Illustrator 21.0.0, SVG Export Plug-In . SVG Version: 6.00 Build 0)  -->
<svg version="1.1" id="Layer_1" xmlns="http://www.w3.org/2000/svg" xmlns:xlink="http://www.w3.org/1999/xlink" x="0px" y="0px"
	 viewBox="0 0 357.2 256.6" style="enable-background:new 0 0 357.2 256.6;" xml:space="preserve">
<style type="text/css">
	.st0{fill:url(#SVGID_1_);}
	.st1{fill:url(#SVGID_2_);}
	.st2{opacity:0.4;fill:#EAE8F2;enable-background:new    ;}
	.st3{fill:#FFFFFF;}
	.st4{opacity:0.2;fill:url(#SVGID_3_);}
	.st5{fill:#A19FCE;}
	.st6{fill:url(#SVGID_4_);}
	.st7{fill:#706DAA;}
	.st8{fill:url(#SVGID_5_);}
	.st9{fill:url(#SVGID_6_);}
	.st10{fill:url(#SVGID_7_);}
	.st11{fill:#7AC6EE;}
	.st12{fill:url(#SVGID_8_);}
	.st13{fill:url(#SVGID_9_);}
	.st14{fill:url(#SVGID_10_);}
	.st15{fill:url(#SVGID_11_);}
	.st16{opacity:0.6;fill:url(#SVGID_12_);}
	.st17{fill:#E2E0EF;}
	.st18{opacity:0.4;fill:url(#SVGID_13_);}
	.st19{fill:url(#SVGID_14_);}
	.st20{fill:url(#SVGID_15_);}
</style>
<g id="Layer_2_11_">
	<g id="Layer_1-2_11_">
		<linearGradient id="SVGID_1_" gradientUnits="userSpaceOnUse" x1="28.7353" y1="128.2924" x2="357.2174" y2="128.2924">
			<stop  offset="0" style="stop-color:#A19FCE"/>
			<stop  offset="1" style="stop-color:#EAE8F2"/>
		</linearGradient>
		<path class="st0" d="M54.9,244.4c70.5,48.2,87.3-61.6,145.2-67.7c57.9-6.1,149.9,17.7,156.8-46.2S254.6-7.4,161.5,0.6
			S-15.5,196.2,54.9,244.4z"/>
		<linearGradient id="SVGID_2_" gradientUnits="userSpaceOnUse" x1="192.9764" y1="256.5848" x2="192.9764" y2="-1.818989e-12">
			<stop  offset="0" style="stop-color:#6160AA"/>
			<stop  offset="0.1964" style="stop-color:#6D6CB1;stop-opacity:0.8036"/>
			<stop  offset="0.5544" style="stop-color:#8E8DC3;stop-opacity:0.4456"/>
			<stop  offset="1" style="stop-color:#BEBEDE;stop-opacity:0"/>
		</linearGradient>
		<path class="st1" d="M54.9,244.4c70.5,48.2,87.3-61.6,145.2-67.7c57.9-6.1,149.9,17.7,156.8-46.2S254.6-7.4,161.5,0.6
			S-15.5,196.2,54.9,244.4z"/>
		<path class="st2" d="M200.1,159.9c-57.9,6-74.7,115.8-145.2,67.7c-16.3-11.2-24.4-29.8-25.9-52.1c-1.9,29.5,5.6,55,25.9,68.9
			c70.5,48.2,87.3-61.6,145.2-67.7c57.9-6.1,149.9,17.7,156.8-46.1c0.5-4.8,0.4-9.6-0.3-14.3C347.5,177,257.2,154,200.1,159.9z"/>
		<path class="st3" d="M68.8,36.7h214.4c6.1,0,11.1,5,11.1,11.1v151c0,6.1-5,11.1-11.1,11.1H68.8c-6.1,0-11.1-5-11.1-11.1v-151
			C57.8,41.7,62.7,36.7,68.8,36.7L68.8,36.7z"/>
		<linearGradient id="SVGID_3_" gradientUnits="userSpaceOnUse" x1="57.7617" y1="123.2638" x2="294.268" y2="123.2638">
			<stop  offset="0" style="stop-color:#FFFFFF;stop-opacity:0"/>
			<stop  offset="0.2571" style="stop-color:#EBEBF5;stop-opacity:0.2571"/>
			<stop  offset="0.7362" style="stop-color:#CACAE4;stop-opacity:0.7362"/>
			<stop  offset="1" style="stop-color:#BEBEDE"/>
		</linearGradient>
		<path class="st4" d="M68.8,36.7h214.4c6.1,0,11.1,5,11.1,11.1v151c0,6.1-5,11.1-11.1,11.1H68.8c-6.1,0-11.1-5-11.1-11.1v-151
			C57.8,41.7,62.7,36.7,68.8,36.7L68.8,36.7z"/>
		<path class="st5" d="M283.7,36.7H68.3c-5.8,0-10.6,5.2-10.6,11.6V63h236.5V48.3C294.3,41.9,289.5,36.7,283.7,36.7z"/>
		<linearGradient id="SVGID_4_" gradientUnits="userSpaceOnUse" x1="57.7617" y1="49.8453" x2="294.268" y2="49.8453">
			<stop  offset="0" style="stop-color:#BEBEDE;stop-opacity:0"/>
			<stop  offset="0.4456" style="stop-color:#8E8DC3;stop-opacity:0.4456"/>
			<stop  offset="0.8036" style="stop-color:#6D6CB1;stop-opacity:0.8036"/>
			<stop  offset="1" style="stop-color:#6160AA"/>
		</linearGradient>
		<path class="st6" d="M283.7,36.7H68.3c-5.8,0-10.6,5.2-10.6,11.6V63h236.5V48.3C294.3,41.9,289.5,36.7,283.7,36.7z"/>
		<circle class="st7" cx="72.5" cy="49.9" r="4.3"/>
		<circle class="st7" cx="86.4" cy="49.9" r="4.3"/>
		<circle class="st7" cx="100.4" cy="49.9" r="4.3"/>
		<linearGradient id="SVGID_5_" gradientUnits="userSpaceOnUse" x1="68.2501" y1="49.9282" x2="76.79" y2="49.9282">
			<stop  offset="0" style="stop-color:#6160AA"/>
			<stop  offset="0.1964" style="stop-color:#6D6CB1;stop-opacity:0.8036"/>
			<stop  offset="0.5544" style="stop-color:#8E8DC3;stop-opacity:0.4456"/>
			<stop  offset="1" style="stop-color:#BEBEDE;stop-opacity:0"/>
		</linearGradient>
		<circle class="st8" cx="72.5" cy="49.9" r="4.3"/>
		<linearGradient id="SVGID_6_" gradientUnits="userSpaceOnUse" x1="82.1793" y1="49.9282" x2="90.7192" y2="49.9282">
			<stop  offset="0" style="stop-color:#6160AA"/>
			<stop  offset="0.1964" style="stop-color:#6D6CB1;stop-opacity:0.8036"/>
			<stop  offset="0.5544" style="stop-color:#8E8DC3;stop-opacity:0.4456"/>
			<stop  offset="1" style="stop-color:#BEBEDE;stop-opacity:0"/>
		</linearGradient>
		<circle class="st9" cx="86.4" cy="49.9" r="4.3"/>
		<linearGradient id="SVGID_7_" gradientUnits="userSpaceOnUse" x1="96.1499" y1="49.9282" x2="104.6899" y2="49.9282">
			<stop  offset="0" style="stop-color:#6160AA"/>
			<stop  offset="0.1964" style="stop-color:#6D6CB1;stop-opacity:0.8036"/>
			<stop  offset="0.5544" style="stop-color:#8E8DC3;stop-opacity:0.4456"/>
			<stop  offset="1" style="stop-color:#BEBEDE;stop-opacity:0"/>
		</linearGradient>
		<circle class="st10" cx="100.4" cy="49.9" r="4.3"/>
		<path class="st11" d="M151,109.8c1.1,0.3,2,1.1,2.5,2.1c0.5,1,0.6,2.2,0.2,3.3c-0.3,1.1-1.1,2-2.1,2.5l-28.6,14.7l28.6,14.7
			c2.1,1.1,2.9,3.7,1.9,5.8c-0.5,1-1.4,1.8-2.5,2.1c-1.1,0.4-2.3,0.3-3.3-0.3l-35.9-18.5c-1.9-0.9-2.8-3.1-2.2-5.1
			c0.3-1.1,1.1-2,2.1-2.5l35.9-18.6C148.7,109.5,149.9,109.5,151,109.8z"/>
		<path class="st11" d="M187.1,96.1c1.1-0.5,2.3-0.4,3.3,0c1,0.5,1.9,1.3,2.3,2.4c0.5,1,0.4,2.2,0,3.3L168,157.7
			c-0.9,2.2-3.4,3.2-5.6,2.2l0,0c0,0,0,0-0.1,0c-1-0.5-1.9-1.3-2.3-2.4c-0.4-1.1-0.4-2.3,0.1-3.3l24.7-55.9
			C185.2,97.3,186.1,96.5,187.1,96.1z"/>
		<path class="st11" d="M204.9,110.1l35.9,18.6c2.1,1.1,2.9,3.6,1.9,5.7c0,0,0,0,0,0v0c-0.4,0.8-1.1,1.5-1.9,1.9l-35.9,18.5
			c-2.1,1.1-4.7,0.3-5.8-1.8c0,0,0,0,0,0c-1.1-2.1-0.2-4.7,1.9-5.8l28.6-14.7L201,117.8c-1-0.5-1.8-1.4-2.1-2.5
			c-0.4-1.1-0.3-2.3,0.3-3.3c0.5-1,1.4-1.8,2.5-2.1C202.7,109.5,203.9,109.5,204.9,110.1z"/>
		<linearGradient id="SVGID_8_" gradientUnits="userSpaceOnUse" x1="109.4523" y1="132.4543" x2="154.0034" y2="132.4543">
			<stop  offset="0" style="stop-color:#3CA4DC;stop-opacity:0"/>
			<stop  offset="1" style="stop-color:#3CA4DC"/>
		</linearGradient>
		<path class="st12" d="M151,109.8c1.1,0.3,2,1.1,2.5,2.1c0.5,1,0.6,2.2,0.2,3.3c-0.3,1.1-1.1,2-2.1,2.5l-28.6,14.7l28.6,14.7
			c2.1,1.1,2.9,3.7,1.9,5.8c-0.5,1-1.4,1.8-2.5,2.1c-1.1,0.4-2.3,0.3-3.3-0.3l-35.9-18.5c-1.9-0.9-2.8-3.1-2.2-5.1
			c0.3-1.1,1.1-2,2.1-2.5l35.9-18.6C148.7,109.5,149.9,109.5,151,109.8z"/>
		<linearGradient id="SVGID_9_" gradientUnits="userSpaceOnUse" x1="159.6902" y1="127.9911" x2="193.0379" y2="127.9911">
			<stop  offset="0" style="stop-color:#3CA4DC"/>
			<stop  offset="1" style="stop-color:#3CA4DC;stop-opacity:0"/>
		</linearGradient>
		<path class="st13" d="M187.1,96.1c1.1-0.5,2.3-0.4,3.3,0c1,0.5,1.9,1.3,2.3,2.4c0.5,1,0.4,2.2,0,3.3L168,157.7
			c-0.9,2.2-3.4,3.2-5.6,2.2l0,0c0,0,0,0-0.1,0c-1-0.5-1.9-1.3-2.3-2.4c-0.4-1.1-0.4-2.3,0.1-3.3l24.7-55.9
			C185.2,97.3,186.1,96.5,187.1,96.1z"/>
		<linearGradient id="SVGID_10_" gradientUnits="userSpaceOnUse" x1="198.6113" y1="132.4815" x2="243.1696" y2="132.4815">
			<stop  offset="0" style="stop-color:#3CA4DC"/>
			<stop  offset="1" style="stop-color:#3CA4DC;stop-opacity:0"/>
		</linearGradient>
		<path class="st14" d="M204.9,110.1l35.9,18.6c2.1,1.1,2.9,3.6,1.9,5.7c0,0,0,0,0,0v0c-0.4,0.8-1.1,1.5-1.9,1.9l-35.9,18.5
			c-2.1,1.1-4.7,0.3-5.8-1.8c0,0,0,0,0,0c-1.1-2.1-0.2-4.7,1.9-5.8l28.6-14.7L201,117.8c-1-0.5-1.8-1.4-2.1-2.5
			c-0.4-1.1-0.3-2.3,0.3-3.3c0.5-1,1.4-1.8,2.5-2.1C202.7,109.5,203.9,109.5,204.9,110.1z"/>
		<path class="st11" d="M346.5,112.8v-13h-10.3c-0.7-2.7-1.7-5.3-3.2-7.7l7.3-7.3l-9.2-9.2l-7.3,7.3c-2.4-1.4-4.9-2.5-7.6-3.2V69.4
			h-13v10.3c-2.7,0.7-5.3,1.7-7.7,3.2l-7.3-7.3l-9.2,9.2l7.3,7.3c-1.4,2.4-2.5,5-3.2,7.7h-10.3v13h10.3c0.7,2.7,1.7,5.3,3.2,7.6
			l-7.3,7.3l9.2,9.2l7.3-7.3c2.4,1.4,5,2.5,7.7,3.2v10.3h13v-10.3c2.7-0.7,5.3-1.7,7.6-3.2l7.3,7.3l9.2-9.2l-7.3-7.3
			c1.4-2.4,2.5-4.9,3.2-7.6L346.5,112.8z M309.7,120.5c-7.8,0-14.1-6.3-14.1-14.1s6.3-14.1,14.1-14.1c7.8,0,14.1,6.3,14.1,14.1v0
			l0,0C323.9,114.2,317.5,120.5,309.7,120.5z"/>
		<linearGradient id="SVGID_11_" gradientUnits="userSpaceOnUse" x1="272.8767" y1="106.271" x2="346.544" y2="106.271">
			<stop  offset="0" style="stop-color:#3CA4DC"/>
			<stop  offset="1" style="stop-color:#3CA4DC;stop-opacity:0"/>
		</linearGradient>
		<path class="st15" d="M346.5,112.8v-13h-10.3c-0.7-2.7-1.7-5.3-3.2-7.7l7.3-7.3l-9.2-9.2l-7.3,7.3c-2.4-1.4-4.9-2.5-7.6-3.2V69.4
			h-13v10.3c-2.7,0.7-5.3,1.7-7.7,3.2l-7.3-7.3l-9.2,9.2l7.3,7.3c-1.4,2.4-2.5,5-3.2,7.7h-10.3v13h10.3c0.7,2.7,1.7,5.3,3.2,7.6
			l-7.3,7.3l9.2,9.2l7.3-7.3c2.4,1.4,5,2.5,7.7,3.2v10.3h13v-10.3c2.7-0.7,5.3-1.7,7.6-3.2l7.3,7.3l9.2-9.2l-7.3-7.3
			c1.4-2.4,2.5-4.9,3.2-7.6L346.5,112.8z M309.7,120.5c-7.8,0-14.1-6.3-14.1-14.1s6.3-14.1,14.1-14.1c7.8,0,14.1,6.3,14.1,14.1v0
			l0,0C323.9,114.2,317.5,120.5,309.7,120.5z"/>
		<path class="st5" d="M281.7,187.1l8.3-4.6l-3.6-6.6c1.5-1.4,2.8-3,3.8-4.7l7.3,2.1l2.6-9.1l-7.3-2.1c0.1-2-0.2-4.1-0.7-6l6.6-3.6
			l-4.6-8.3l-6.6,3.6c-1.4-1.5-3-2.8-4.7-3.8l2.1-7.3l-9.1-2.6l-2.1,7.3c-2-0.1-4.1,0.2-6,0.7l-3.6-6.6l-8.3,4.6l3.6,6.6
			c-1.5,1.4-2.8,3-3.8,4.7l-7.3-2.1l-2.6,9.1l7.3,2.1c-0.1,2,0.2,4,0.7,6L247,170l4.6,8.3l6.6-3.6c1.4,1.5,3,2.8,4.7,3.8l-2.1,7.3
			l9.1,2.6l2.1-7.3c2,0.1,4.1-0.2,6-0.7L281.7,187.1z M263.8,166.2c-2.7-5-0.9-11.3,4.1-14c5-2.7,11.3-0.9,14,4.1
			c2.7,5,0.9,11.3-4.1,14C272.9,173,266.6,171.2,263.8,166.2C263.8,166.2,263.8,166.2,263.8,166.2z"/>
		<linearGradient id="SVGID_12_" gradientUnits="userSpaceOnUse" x1="245.7231" y1="161.196" x2="300.0304" y2="161.196">
			<stop  offset="0" style="stop-color:#BEBEDE;stop-opacity:0"/>
			<stop  offset="0.4456" style="stop-color:#8E8DC3;stop-opacity:0.4456"/>
			<stop  offset="0.8036" style="stop-color:#6D6CB1;stop-opacity:0.8036"/>
			<stop  offset="1" style="stop-color:#6160AA"/>
		</linearGradient>
		<path class="st16" d="M281.7,187.1l8.3-4.6l-3.6-6.6c1.5-1.4,2.8-3,3.8-4.7l7.3,2.1l2.6-9.1l-7.3-2.1c0.1-2-0.2-4.1-0.7-6l6.6-3.6
			l-4.6-8.3l-6.6,3.6c-1.4-1.5-3-2.8-4.7-3.8l2.1-7.3l-9.1-2.6l-2.1,7.3c-2-0.1-4.1,0.2-6,0.7l-3.6-6.6l-8.3,4.6l3.6,6.6
			c-1.5,1.4-2.8,3-3.8,4.7l-7.3-2.1l-2.6,9.1l7.3,2.1c-0.1,2,0.2,4,0.7,6L247,170l4.6,8.3l6.6-3.6c1.4,1.5,3,2.8,4.7,3.8l-2.1,7.3
			l9.1,2.6l2.1-7.3c2,0.1,4.1-0.2,6-0.7L281.7,187.1z M263.8,166.2c-2.7-5-0.9-11.3,4.1-14c5-2.7,11.3-0.9,14,4.1
			c2.7,5,0.9,11.3-4.1,14C272.9,173,266.6,171.2,263.8,166.2C263.8,166.2,263.8,166.2,263.8,166.2z"/>
		<path class="st17" d="M112.8,164.7c1.7-8.4-3.8-16.6-12.2-18.2l0,0c-1-0.2-2-0.3-3-0.3c-2.6,0-5.1,0.7-7.4,1.9
			c-8.6-11.9-25.3-14.5-37.2-5.9c-6.9,5-11,13-11,21.5v0.2c-14.2,1.6-24.8,13.6-24.8,27.9l0,0c0,15.5,12.5,28,28,28c0,0,0,0,0,0
			h60.2c15.5,0,28-12.6,28-28l0,0C133.4,179.1,124.9,168,112.8,164.7z"/>
		<linearGradient id="SVGID_13_" gradientUnits="userSpaceOnUse" x1="39.7093" y1="225.9582" x2="111.7493" y2="153.9182">
			<stop  offset="0" style="stop-color:#EAE8F2"/>
			<stop  offset="0.2123" style="stop-color:#E5E3EF"/>
			<stop  offset="0.4678" style="stop-color:#D6D4E8"/>
			<stop  offset="0.7444" style="stop-color:#BEBCDC"/>
			<stop  offset="1" style="stop-color:#A19FCE"/>
		</linearGradient>
		<path class="st18" d="M112.8,164.7c1.7-8.4-3.8-16.6-12.2-18.2l0,0c-1-0.2-2-0.3-3-0.3c-2.6,0-5.1,0.7-7.4,1.9
			c-8.6-11.9-25.3-14.5-37.2-5.9c-6.9,5-11,13-11,21.5v0.2c-14.2,1.6-24.8,13.6-24.8,27.9l0,0c0,15.5,12.5,28,28,28c0,0,0,0,0,0
			h60.2c15.5,0,28-12.6,28-28l0,0C133.4,179.1,124.9,168,112.8,164.7z"/>
		<path class="st11" d="M65.6,160.9c0.9,0.9,0.9,2.3,0,3.3c0,0,0,0,0,0l0,0c-0.4,0.4-1,0.7-1.7,0.7c-0.7,0-1.4,0.1-2,0.2
			c-0.4,0.1-0.6,0.4-0.8,1c-0.2,0.8-0.2,1.7-0.2,2.6v6.4c0,3.3-0.5,5.7-1.5,7.3c0,0-0.1,0.1-0.1,0.2c-0.3,0.4-0.6,0.8-1,1.2
			c0.4,0.4,0.8,0.8,1.1,1.3c0.6,1,1,2.1,1.2,3.3c0.3,1.4,0.4,2.7,0.3,4.1v6.4c0,1.9,0.2,3.1,0.5,3.3s1.2,0.5,2.6,0.5h1
			c0.6,0,1.2,0.2,1.7,0.7c0.5,0.4,0.7,1,0.7,1.7c0,1.3-1,2.3-2.3,2.3h0h-1c-1.1,0-2.2-0.1-3.3-0.4c-1-0.3-2-0.8-2.7-1.5
			c-0.7-0.8-1.2-1.8-1.4-2.9c-0.3-1.2-0.4-2.4-0.3-3.6v-6.6c0-1.1-0.1-2.2-0.2-3.2c-0.1-0.6-0.3-1.1-0.5-1.6
			c-0.2-0.3-0.5-0.6-0.9-0.8c-0.5-0.3-1.1-0.5-1.7-0.7c-0.9-0.1-1.6-0.8-1.8-1.7c-0.2-0.6-0.1-1.2,0.2-1.7c0.3-0.6,0.8-1,1.4-1.1
			c0.7-0.2,1.3-0.5,1.9-0.8c0.4-0.2,0.7-0.5,0.9-0.9c0.5-0.8,0.8-2.4,0.8-4.7v-6.4c0-1.2,0.1-2.4,0.3-3.6c0.2-1.1,0.7-2.1,1.4-2.9
			c0.7-0.8,1.7-1.3,2.7-1.5c1.1-0.2,2.2-0.4,3.3-0.4C64.7,160.2,65.2,160.5,65.6,160.9z"/>
		<path class="st11" d="M86.4,160.2c1.1,0,2.2,0.1,3.3,0.4c1,0.3,2,0.8,2.7,1.5c0.7,0.8,1.2,1.8,1.4,2.9c0.3,1.2,0.4,2.4,0.3,3.6
			v6.4c0,2.4,0.2,3.9,0.8,4.7c0.3,0.3,0.6,0.6,0.9,0.9c0.6,0.4,1.3,0.6,1.9,0.8c0.6,0.2,1.1,0.6,1.4,1.1c0.3,0.5,0.3,1.2,0.2,1.7
			c-0.2,0.9-0.9,1.5-1.8,1.7c-0.6,0.2-1.2,0.4-1.7,0.7c-0.4,0.2-0.7,0.5-0.9,0.8c-0.3,0.5-0.5,1-0.6,1.6c-0.2,1.1-0.2,2.2-0.2,3.2
			v6.4c0,1.2-0.1,2.4-0.3,3.6c-0.2,1.1-0.7,2.1-1.4,2.9c-0.7,0.8-1.7,1.3-2.7,1.5c-1.1,0.2-2.2,0.4-3.3,0.4h-1.1
			c-1.3,0-2.3-1-2.3-2.3v0c0-0.6,0.2-1.2,0.7-1.7c0.4-0.5,1-0.7,1.7-0.7h1c1.5,0,2.3-0.2,2.6-0.5c0.3-0.3,0.4-1.4,0.5-3.3v-6.4
			c0-1.4,0.1-2.7,0.3-4.1c0.2-1.2,0.6-2.3,1.2-3.3c0.3-0.5,0.7-0.9,1.1-1.3c-0.4-0.3-0.7-0.7-1-1.2c-0.1,0-0.1-0.1-0.1-0.2
			c-1-1.6-1.5-4-1.5-7.3v-6.4c0-0.9-0.1-1.7-0.2-2.6c-0.1-0.4-0.4-0.8-0.8-1c-0.7-0.2-1.3-0.2-2-0.2c-1.3-0.1-2.3-1.2-2.2-2.4
			C84.3,161.2,85.3,160.3,86.4,160.2L86.4,160.2z"/>
		<linearGradient id="SVGID_14_" gradientUnits="userSpaceOnUse" x1="51.0457" y1="183.7852" x2="67.4253" y2="183.7852">
			<stop  offset="0" style="stop-color:#3CA4DC;stop-opacity:0"/>
			<stop  offset="1" style="stop-color:#3CA4DC"/>
		</linearGradient>
		<path class="st19" d="M65.6,160.9c0.9,0.9,0.9,2.3,0,3.3c0,0,0,0,0,0l0,0c-0.4,0.4-1,0.7-1.7,0.7c-0.7,0-1.4,0.1-2,0.2
			c-0.4,0.1-0.6,0.4-0.8,1c-0.2,0.8-0.2,1.7-0.2,2.6v6.4c0,3.3-0.5,5.7-1.5,7.3c0,0-0.1,0.1-0.1,0.2c-0.3,0.4-0.6,0.8-1,1.2
			c0.4,0.4,0.8,0.8,1.1,1.3c0.6,1,1,2.1,1.2,3.3c0.3,1.4,0.4,2.7,0.3,4.1v6.4c0,1.9,0.2,3.1,0.5,3.3s1.2,0.5,2.6,0.5h1
			c0.6,0,1.2,0.2,1.7,0.7c0.5,0.4,0.7,1,0.7,1.7c0,1.3-1,2.3-2.3,2.3h0h-1c-1.1,0-2.2-0.1-3.3-0.4c-1-0.3-2-0.8-2.7-1.5
			c-0.7-0.8-1.2-1.8-1.4-2.9c-0.3-1.2-0.4-2.4-0.3-3.6v-6.6c0-1.1-0.1-2.2-0.2-3.2c-0.1-0.6-0.3-1.1-0.5-1.6
			c-0.2-0.3-0.5-0.6-0.9-0.8c-0.5-0.3-1.1-0.5-1.7-0.7c-0.9-0.1-1.6-0.8-1.8-1.7c-0.2-0.6-0.1-1.2,0.2-1.7c0.3-0.6,0.8-1,1.4-1.1
			c0.7-0.2,1.3-0.5,1.9-0.8c0.4-0.2,0.7-0.5,0.9-0.9c0.5-0.8,0.8-2.4,0.8-4.7v-6.4c0-1.2,0.1-2.4,0.3-3.6c0.2-1.1,0.7-2.1,1.4-2.9
			c0.7-0.8,1.7-1.3,2.7-1.5c1.1-0.2,2.2-0.4,3.3-0.4C64.7,160.2,65.2,160.5,65.6,160.9z"/>
		<linearGradient id="SVGID_15_" gradientUnits="userSpaceOnUse" x1="83.0498" y1="183.7191" x2="99.4943" y2="183.7191">
			<stop  offset="0" style="stop-color:#3CA4DC;stop-opacity:0"/>
			<stop  offset="1" style="stop-color:#3CA4DC"/>
		</linearGradient>
		<path class="st20" d="M86.4,160.2c1.1,0,2.2,0.1,3.3,0.4c1,0.3,2,0.8,2.7,1.5c0.7,0.8,1.2,1.8,1.4,2.9c0.3,1.2,0.4,2.4,0.3,3.6
			v6.4c0,2.4,0.2,3.9,0.8,4.7c0.3,0.3,0.6,0.6,0.9,0.9c0.6,0.4,1.3,0.6,1.9,0.8c0.6,0.2,1.1,0.6,1.4,1.1c0.3,0.5,0.3,1.2,0.2,1.7
			c-0.2,0.9-0.9,1.5-1.8,1.7c-0.6,0.2-1.2,0.4-1.7,0.7c-0.4,0.2-0.7,0.5-0.9,0.8c-0.3,0.5-0.5,1-0.6,1.6c-0.2,1.1-0.2,2.2-0.2,3.2
			v6.4c0,1.2-0.1,2.4-0.3,3.6c-0.2,1.1-0.7,2.1-1.4,2.9c-0.7,0.8-1.7,1.3-2.7,1.5c-1.1,0.2-2.2,0.4-3.3,0.4h-1.1
			c-1.3,0-2.3-1-2.3-2.3v0c0-0.6,0.2-1.2,0.7-1.7c0.4-0.5,1-0.7,1.7-0.7h1c1.5,0,2.3-0.2,2.6-0.5c0.3-0.3,0.4-1.4,0.5-3.3v-6.4
			c0-1.4,0.1-2.7,0.3-4.1c0.2-1.2,0.6-2.3,1.2-3.3c0.3-0.5,0.7-0.9,1.1-1.3c-0.4-0.3-0.7-0.7-1-1.2c-0.1,0-0.1-0.1-0.1-0.2
			c-1-1.6-1.5-4-1.5-7.3v-6.4c0-0.9-0.1-1.7-0.2-2.6c-0.1-0.4-0.4-0.8-0.8-1c-0.7-0.2-1.3-0.2-2-0.2c-1.3-0.1-2.3-1.2-2.2-2.4
			C84.3,161.2,85.3,160.3,86.4,160.2L86.4,160.2z"/>
		<polygon class="st11" points="7.1,144.1 13.2,143 14.2,136.9 15.2,143 21.3,144.1 15.2,145.1 14.2,151.2 13.2,145.1 		"/>
		<polygon class="st11" points="149.8,227.8 155.9,226.8 156.9,220.7 158,226.8 164.1,227.8 158,228.9 156.9,234.9 155.9,228.9 		
			"/>
		<path class="st7" d="M190.2,243.2c-0.2,0-0.4,0-0.5-0.1c-0.5-0.2-0.9-0.7-0.9-1.3v-11c0-0.8,0.6-1.4,1.4-1.5h0
			c0.4,0,0.8,0.2,1,0.5l5.5,5.5c0.6,0.5,0.6,1.5,0,2l0,0l-5.5,5.5C191,243,190.6,243.2,190.2,243.2z M191.7,234.3v4l2-2L191.7,234.3
			z"/>
		<path class="st7" d="M1.5,178.5c-0.2,0-0.4,0-0.5-0.1c-0.5-0.2-0.9-0.7-0.9-1.3v-11c0-0.8,0.6-1.4,1.4-1.5h0c0.4,0,0.8,0.2,1,0.5
			l5.5,5.5c0.6,0.5,0.6,1.5,0,2l0,0l-5.5,5.5C2.2,178.4,1.8,178.5,1.5,178.5z M2.9,169.6v4l2-2L2.9,169.6z"/>
		<path class="st7" d="M40.9,117.8h-4.4c-0.5,0-1-0.3-1.2-0.7l-2.2-3.8c-0.2-0.5-0.2-1,0-1.5l2.2-3.8c0.3-0.4,0.7-0.7,1.2-0.7h4.4
			c0.5,0,1,0.3,1.2,0.7l2.2,3.8c0.2,0.5,0.2,1,0,1.5l-2.2,3.8C41.9,117.6,41.4,117.8,40.9,117.8z M37.4,114.9h2.7l1.3-2.3l-1.3-2.3
			h-2.7l-1.3,2.3L37.4,114.9z"/>
	</g>
</g>
</svg>
