<svg xmlns="http://www.w3.org/2000/svg" xmlns:xlink="http://www.w3.org/1999/xlink" viewBox="0 0 468 500.38"><defs><style>.cls-1{fill:none;}.cls-2{fill:url(#linear-gradient);}.cls-3,.cls-6{fill:#eceaf4;}.cls-4{clip-path:url(#clip-path);}.cls-5{fill:#706cab;}.cls-6{stroke:#706cab;stroke-linejoin:round;stroke-width:3.35px;}</style><linearGradient id="linear-gradient" x1="234" y1="563.28" x2="234" y2="95.28" gradientTransform="translate(0 -95.28)" gradientUnits="userSpaceOnUse"><stop offset="0" stop-color="#a0a1e3"/><stop offset="1" stop-color="#eceaf4"/></linearGradient><clipPath id="clip-path"><circle class="cls-1" cx="234" cy="234" r="234"/></clipPath></defs><title>step5</title><g id="Layer_2" data-name="Layer 2"><g id="Layer_1-2" data-name="Layer 1"><circle class="cls-2" cx="234" cy="234" r="234"/><polygon class="cls-3" points="23.1 205.2 42.8 201.9 46.2 182.2 49.5 201.9 69.2 205.2 49.5 208.6 46.2 228.2 42.8 208.6 23.1 205.2"/><polygon class="cls-3" points="351.6 66.9 380.9 62 385.9 32.7 390.9 62 420.1 66.9 390.9 71.9 385.9 101.2 380.9 71.9 351.6 66.9"/><g class="cls-4"><path class="cls-5" d="M165.4,391.5V498.7h-6.3c-14.6,0-28-4.3-38.3-11.4-12.7-8.7-20.7-21.7-20.7-36.2V398c0-3.6,3.7-6.6,8.2-6.6h57.1Z"/><path class="cls-5" d="M368,398.1v53.1c0,14.5-8.1,27.5-20.8,36.2h0c-10.3,7.1-23.7,11.3-38.3,11.3h-6.3V391.5h57.2C364.4,391.5,368,394.4,368,398.1Z"/><path class="cls-5" d="M222.9,204.2c-1.6-4.1-3.4-8.3-4.8-12.5-2.6-7.7,8.1-12.1,16.2-12.1,7.7,0,18.1,4,16.4,11.4-1,4.4-2.5,8.8-3.7,13.2-1.7,6,9.8,8.6,11.5,2.6,1.2-4.3,2.5-8.6,3.6-12.9,2.1-7.8-1.8-14.9-9.9-19.5-17.2-9.7-50.8-1.5-46.1,18.4,1.1,4.8,3.5,9.4,5.3,14.1,2.3,5.8,13.8,3.3,11.5-2.7Z"/><path class="cls-6" d="M349.3,255.5v224a15.57,15.57,0,0,1-2.1,7.9h0c-3.8,6.7-12.1,11.3-21.8,11.3H142.6c-9.7,0-18.1-4.7-21.9-11.4a15.57,15.57,0,0,1-2.1-7.9v-224c0-33,33.3-59.7,74.3-59.7H275C316.1,195.7,349.3,222.5,349.3,255.5Z"/><path class="cls-5" d="M227.4,344.1h0c-2.7,0-4.9-1.8-4.9-3.9V288.1c0-2.2,2.2-3.9,4.9-3.9h0c2.7,0,4.9,1.8,4.9,3.9v52.1C232.2,342.4,230.1,344.1,227.4,344.1Z"/><path class="cls-5" d="M250.1,344.1h0c-2.7,0-4.9-1.8-4.9-3.9V288.1c0-2.2,2.2-3.9,4.9-3.9h0c2.7,0,4.9,1.8,4.9,3.9v52.1C254.9,342.4,252.8,344.1,250.1,344.1Z"/><path class="cls-5" d="M299.9,359.2H168c-13.7,0-24.8,8.9-24.8,20v82.1c0,11,11.1,20,24.8,20H299.9c13.7,0,24.8-8.9,24.8-20V379.2C324.8,368.2,313.6,359.2,299.9,359.2Z"/><path class="cls-6" d="M351.4,247.5c-1.9-19.6-13.1-36.6-29.4-48.1a20.43,20.43,0,0,0-12-3.6H158a21.16,21.16,0,0,0-12,3.6c-16.3,11.5-27.5,28.5-29.4,48.1l-2.8,28.9c-1.4,14.2,10.7,26.4,26.1,26.4H328.1c15.4,0,27.5-12.2,26.1-26.4Z"/><path class="cls-5" d="M179,338h0c-4.8,0-8.7-3.1-8.7-7V194.5a1.12,1.12,0,0,1,1.2-1h15.1a1.11,1.11,0,0,1,1.2,1h0V331C187.7,334.9,183.8,338,179,338Z"/><path class="cls-5" d="M285.9,338h0c-4.8,0-8.7-3.1-8.7-7V194.5a1.12,1.12,0,0,1,1.2-1h15.1a1.11,1.11,0,0,1,1.2,1h0V331C294.6,334.9,290.7,338,285.9,338Z"/><path class="cls-6" d="M163.2,316.1h31.6a2.48,2.48,0,0,1,2.5,2.5v5.2a2.48,2.48,0,0,1-2.5,2.5H163.2a2.48,2.48,0,0,1-2.5-2.5v-5.2A2.48,2.48,0,0,1,163.2,316.1Z"/><path class="cls-6" d="M270.1,316.1h31.6a2.48,2.48,0,0,1,2.5,2.5v5.2a2.48,2.48,0,0,1-2.5,2.5H270.1a2.48,2.48,0,0,1-2.5-2.5v-5.2A2.48,2.48,0,0,1,270.1,316.1Z"/></g></g></g></svg>