<svg xmlns="http://www.w3.org/2000/svg" xmlns:xlink="http://www.w3.org/1999/xlink" viewBox="0 0 468.1 468.1"><defs><style>.cls-1{fill:url(#linear-gradient);}.cls-2,.cls-3{fill:#eceaf4;}.cls-3{stroke:#706cab;stroke-linejoin:round;stroke-width:5.5px;}.cls-4{fill:#706cab;}</style><linearGradient id="linear-gradient" x1="234.05" y1="1.28" x2="234.05" y2="469.38" gradientTransform="matrix(1, 0, 0, -1, 0, 469.38)" gradientUnits="userSpaceOnUse"><stop offset="0" stop-color="#a0a1e3"/><stop offset="1" stop-color="#eceaf4"/></linearGradient></defs><title>step3</title><g id="Layer_2" data-name="Layer 2"><g id="Layer_1-2" data-name="Layer 1"><circle class="cls-1" cx="234.05" cy="234.05" r="234.05"/><polygon class="cls-2" points="23.19 205.27 42.87 201.93 46.21 182.25 49.55 201.93 69.23 205.27 49.55 208.61 46.21 228.3 42.87 208.61 23.19 205.27"/><polygon class="cls-2" points="351.7 67 380.97 62.04 385.94 32.77 390.91 62.04 420.18 67 390.91 71.97 385.94 101.24 380.97 71.97 351.7 67"/><path class="cls-3" d="M417.15,299.05c0-52.8-47.48-95.6-106-95.6s-106,42.8-106,95.6,47.47,95.61,106,95.61A113,113,0,0,0,376.92,374h0l30.72,9.56-7.7-32.28A88.59,88.59,0,0,0,417.15,299.05Z"/><path class="cls-4" d="M379.45,271h-7.13c2.61,0,4.74,3.11,4.74,6.9v.6c0,3.79-2.13,6.9-4.74,6.9h7.13c2.73,0,5-3.24,5-7.2h0C384.4,274.21,382.18,271,379.45,271Z"/><path class="cls-4" d="M379.45,285.37H242.75c-2.73,0-4.95-3.24-4.95-7.2h0c0-4,2.22-7.2,4.95-7.2h136.7c2.73,0,5,3.24,5,7.2h0C384.4,282.13,382.18,285.37,379.45,285.37Z"/><path class="cls-4" d="M340.43,299.54h-5.17c1.89,0,3.43,3.1,3.43,6.89v.62c0,3.79-1.54,6.89-3.43,6.89h5.17c2,0,3.58-3.24,3.58-7.19h0C344,302.78,342.4,299.54,340.43,299.54Z"/><path class="cls-4" d="M340.43,313.93H241.38c-2,0-3.58-3.24-3.58-7.19h0c0-4,1.61-7.2,3.58-7.2h99.05c2,0,3.58,3.24,3.58,7.2h0C344,310.69,342.4,313.93,340.43,313.93Z"/><path class="cls-4" d="M340.43,327.94h-5.17c1.89,0,3.43,3.1,3.43,6.89v.61c0,3.79-1.54,6.89-3.43,6.89h5.17c2,0,3.58-3.24,3.58-7.2h0C344,331.17,342.4,327.94,340.43,327.94Z"/><path class="cls-4" d="M340.43,342.33H241.38c-2,0-3.58-3.24-3.58-7.2h0c0-3.95,1.61-7.19,3.58-7.19h99.05c2,0,3.58,3.24,3.58,7.19h0C344,339.05,342.4,342.33,340.43,342.33Z"/><path class="cls-3" d="M51,261.29c0-52.8,47.48-95.6,106.05-95.6s106,42.8,106,95.6-47.48,95.6-106,95.6a113,113,0,0,1-65.78-20.64v.05L60.5,345.86l7.7-32.29A88.54,88.54,0,0,1,51,261.29Z"/><path class="cls-4" d="M88.68,225.93h7.14c-2.61,0-4.75,3.1-4.75,6.89v.61c0,3.79,2.14,6.89,4.75,6.89H88.68c-2.72,0-5-3.24-5-7.2h0C83.68,229.16,85.92,225.93,88.68,225.93Z"/><path class="cls-4" d="M88.68,240.32H225.35c2.72,0,5-3.24,5-7.2h0c0-4-2.23-7.19-5-7.19H88.68c-2.72,0-5,3.23-5,7.19h0C83.68,237.05,85.92,240.32,88.68,240.32Z"/><path class="cls-4" d="M88.68,284.61h7.14c-2.61,0-4.75,3.1-4.75,6.89v.61c0,3.79,2.14,6.89,4.75,6.89H88.68c-2.72,0-5-3.23-5-7.19h0C83.68,287.85,85.92,284.61,88.68,284.61Z"/><path class="cls-4" d="M88.68,299.05H225.35c2.72,0,5-3.23,5-7.19h0c0-4-2.23-7.2-5-7.2H88.68c-2.72,0-5,3.24-5,7.2h0C83.68,295.77,85.92,299.05,88.68,299.05Z"/><path class="cls-4" d="M127.68,255.27h5.17c-1.89,0-3.44,3.1-3.44,6.89v.61c0,3.79,1.55,6.89,3.44,6.89h-5.17c-2,0-3.59-3.24-3.59-7.2h0C124.08,258.51,125.68,255.27,127.68,255.27Z"/><path class="cls-4" d="M127.68,269.66h99c2,0,3.59-3.24,3.59-7.2h0c0-4-1.61-7.19-3.59-7.19h-99c-2,0-3.59,3.24-3.59,7.19h0C124.08,266.42,125.68,269.66,127.68,269.66Z"/></g></g></svg>