<svg version="1" xmlns="http://www.w3.org/2000/svg" width="1685.333" height="1685.333" viewBox="0 0 1264.000000 1264.000000"><path d="M929.8 305.5c-.1.1-3.9.6-8.3.9-10 .9-12.6 1.2-19.5 2.1-3 .4-7.1.9-9 1.1-1.9.2-6 .9-9 1.4-3 .5-7.1 1.2-9 1.4-1.9.3-4.8.8-6.5 1.1-1.6.3-3.9.8-5 1-1.1.2-5.1 1-9 1.9-3.8.9-8.1 1.7-9.5 2-17.6 3-69.5 20.2-93.5 31-22.4 10.1-43.3 20.7-53.7 27.3-2.1 1.2-4 2.3-4.3 2.3-.2 0-2.9 1.6-5.9 3.5-3 1.9-6 3.5-6.6 3.5-.5 0-1 .4-1 .9s-.8 1.2-1.7 1.5c-2.6.9-4 1.8-39.2 25.5-2 1.3-3.8 2.7-4.1 3-.3.4-3.9 3.1-8 6.1-4.1 3-7.7 5.7-8 6-.3.3-2.5 2.1-5 4-8.5 6.5-24.1 19.7-35.9 30.5-6.5 5.8-44.2 43.6-53.6 53.6-9.3 10-8.8 9.3-23.4 27.5-6.2 7.6-12 14.8-12.9 15.9-1 1.1-4.4 5.6-7.6 10-3.3 4.4-7.9 10.5-10.3 13.5-2.4 3-4.7 5.9-5.1 6.5-.4.5-3 4.1-5.7 8-2.7 3.8-5.3 7.4-5.8 8-1.4 1.7-13.1 19.8-16 24.7-3.5 5.9-4.3 6.2-1.6.5 1.1-2.3 2.5-5.4 3-7 .6-1.5 1.5-2.7 1.9-2.7.4 0 1.1-1.1 1.4-2.4.3-1.4 1.2-3.1 2-3.8.7-.8 3.1-4.4 5.2-8.1 4.8-8.1 15.2-23.6 17.6-26 1-1 1.8-2.4 1.8-3.2 0-.7.4-1.5.8-1.7.5-.2 4.3-5 8.5-10.8 4.2-5.8 8-11 8.4-11.5.4-.6 3.5-4.6 6.8-9s6.5-8.5 7-9.1c.6-.6 2.4-2.8 4-4.9 1.7-2.1 3.5-4.3 4-4.9 4.8-5.3 12.7-15.8 12.2-16.2-.7-.7-2.5 1.1-12.2 12.6-11.8 13.9-20.8 25.2-28.5 35.5-2.5 3.3-4.8 6.2-5.1 6.5-.3.3-4.7 6.3-9.8 13.5-5.1 7.1-9.8 13.7-10.4 14.5-3.6 4.5-20.7 33.5-20.7 35 0 .4-.7 1-1.5 1.4-.8.3-1.5.2-1.5-.3 0-.7-7.2-10.5-13.8-19-1.5-1.9-3.8-5-5.2-7-1.4-2-3-4.2-3.7-4.9-.6-.7-1.7-2.8-2.4-4.7-.7-1.9-1.7-3.5-2.1-3.5-.4 0-.8-.6-.8-1.3 0-1.4-14.3-26.9-20.2-36.3-.7-1.1-2.2-3.5-3.3-5.3-1.1-1.9-14.1-21.6-29-43.8-14.8-22.2-27.4-41.2-28-42.1-.5-.9-1.3-1.9-1.6-2.2-.5-.5-7.2-10-21.1-30.3-2.9-4.3-7.9-11.4-11-15.8-3.2-4.3-5.8-8.3-5.8-8.8s-.3-1.1-.7-1.3c-1.1-.4-5.3-6.5-5.3-7.7 0-.5-.7-1.1-1.5-1.5-1-.4-1.9.5-2.9 2.7-.7 1.8-3.2 7.6-5.6 12.9-2.3 5.4-3.8 10.3-3.4 10.9.4.7.3.9-.3.6-.6-.4-1.5.5-2.2 1.9-1.4 3.2-1.4 3.7.2 2.9.6-.4.4 0-.5.8-2.1 1.6-2.4 3.2-.5 2.1.6-.4 0 .4-1.5 1.9-1.6 1.4-2.8 3-2.8 3.4 0 .4.7-.1 1.5-1.1.8-1.1 1.5-1.5 1.5-.8 0 .6-1 2.1-2.2 3.3-1.3 1.2-1.7 1.9-1.1 1.5.9-.5 1.1-.2.7.8-.3.9-1 1.3-1.5 1-.5-.3-.6.1-.4.9.3.7-1.7 6.7-4.6 13.3-2.8 6.5-7.5 18-10.5 25.4-3 7.4-5.9 14.4-6.4 15.5-.5 1.1-3 7.3-5.5 13.8-2.6 6.5-8.9 20.4-14.1 30.8-5.2 10.4-9.4 19.1-9.4 19.3 0 .4-2.1 4.8-13.5 29.1-2.6 5.5-6.2 13.4-8 17.5-1.8 4.1-6.7 14.8-10.9 23.7-4.2 9-7.6 16.7-7.6 17.3 0 .5-.4 1-1 1-.5 0-1 .5-1 1.1 0 .5-2 5.2-4.4 10.2-6.9 14.5-11.3 24-12 26.1-.6 1.7-.5 1.7 1.1.5 1.5-1.3 0 1.8-5.8 11.7-1.1 1.7-1.6 3.4-1.2 3.7.3.4.2.7-.4.7-.6 0-1.6 1.3-2.3 2.9-1.5 3.8-11.9 13.7-12.4 11.9-2.4-8.4-2.9-11.2-3.1-16.9-.2-5.4-.8-7.7-3.5-12.5-1.8-3.2-3.9-7.1-4.6-8.5-.8-1.5-2.1-3.2-2.9-3.9-.8-.7-1.5-1.6-1.5-2.1 0-.8-3.9-7.2-5.9-9.5-1.3-1.6-6.4-9.8-6.5-10.4-.1-2.6-30.7-52-35-56.6-.6-.6-1.8-2.2-2.6-3.4-7.2-10.7-21.5-26.4-23.5-25.7-2.9 1.1 3 20.5 9.6 31.3 2.4 3.9 2.5 5.8.1 2.2-7.5-11.5-21-28.4-24.5-30.7-1.1-.7-2.2-1-2.5-.6-1.5 1.4-.4 8.3 2 13.3 1.5 2.8 2.2 5 1.7 4.6-1.2-.7-1.1 0 .3 3.1.8 1.9 1.4 2.2 2 1.3.5-.9.7-.7.6.7-.2 1.1 0 2 .4 2s1.4.9 2.3 2c1 1.3.8.3-.6-2.8-1.1-2.6-1.9-5.3-1.6-6 .4-1.2 9.2 9.3 11 13.3.6 1.4 1.4 2.7 1.7 3 1.4 1.4 6.7 13 5.9 13-.5 0-.9.7-.9 1.6 0 1-.5 1.2-1.2.7-.7-.4-.5.5.5 2 2.6 4.1 5.6 9 6.4 10.7.3.8 1.6 3.1 2.8 5 1.2 1.9 3.7 6.2 5.5 9.5 1.8 3.3 3.6 6.2 3.9 6.5.3.3 1.4 2.1 2.5 4 7.9 14.8 10.5 18.9 11.9 19 .7 0-9.1-19.5-17.9-35.8-1.9-3.4-3.2-6.2-3-6.2.5 0 10.6 16.8 10.6 17.7 0 .2 3.1 5.7 6.9 12.1 3.7 6.4 8 13.7 9.3 16.2 1.4 2.5 4.6 8.2 7.2 12.6 2.5 4.5 4.6 8.6 4.6 9.2 0 .6.5 1.2 1.1 1.4.7.2 1 1 .7 1.8-.2.8-1.7-.9-3.5-4.1-1.7-3-3.9-6.4-4.9-7.6-1.1-1.1-2.6-3.1-3.4-4.3-.8-1.2-2-2.8-2.5-3.4-.6-.6-2.2-2.7-3.5-4.6-1.3-1.9-3.3-4.4-4.3-5.5-2.1-2.2-9.7-13.3-9.7-14.2 0-.3-.9-1.7-1.9-3.2-1.1-1.5-3.3-5.2-4.8-8.2-7.6-14.1-17-29.7-31.7-52.1-3.7-5.6-5.6-9.6-5.3-10.8.3-1.1-.1-2.1-.9-2.4-.8-.3-1.4-1.2-1.4-2.1 0-2.9-9.8-14.5-12.2-14.5-.9 0 1.3 6.4 4.1 11.8 1.7 3.3 1.8 4 .6 3.5-1.3-.5-1.5.1-1 3.8.8 5.7 1 7 2 9.4 2.1 5.8 5.4 12.2 11.8 23.5 11.9 21 14.9 27.8 8.6 19.2-3.2-4.3-4.6-5.4-3.5-2.6.5 1.2.1 1.4-1.5.9-2.9-.9-3.8.8-2.9 5.6 1.1 5.7-1.8 5-10.3-2.6-5.4-4.9-8.1-6.5-10.6-6.5-1.7 0-1.9.6-1.5 3.6.5 3.9 6 19 7.8 21.3.9 1.2.8 1.3-.6.9-1.2-.5-1.5-.2-1.3 1.5.5 3.5 1.3 6.6 2 7.7.3.5.8 1.8 1 2.7.2 1 2.9 8.8 6 17.3s7.2 19.8 9 25c8.1 23.1 13.7 36.2 22.2 51 1.1 1.9 3.5 6.2 5.3 9.5 4.5 8 6.3 11.3 11 19.6 2.2 3.9 4 7.3 4 7.7 0 .3.6 1.3 1.4 2.1.7.9 2.8 4.3 4.6 7.6 1.8 3.3 4.8 8.4 6.6 11.3 1.9 2.9 3.4 5.4 3.4 5.7 0 .3 1.6 3.1 3.6 6.2 3.2 5.2 3.3 5.4.7 2.6-4.1-4.5-6.3-7.3-6.3-7.7 0-.3-1.7-2.2-3.8-4.4-2.1-2.2-5-5.3-6.3-6.9-3.4-3.9-6.6-5.6-7.2-4-.5 1.4 3.2 13.8 4.4 14.7.3.3 1 1.6 1.4 3 .6 2.2 14.2 29 19.2 38 1.1 1.9 5.5 9.8 9.8 17.5 12.7 22.9 23.2 41 33.2 57.8C140.3 957.5 143 961 143 958c0-.6 1.8-4.9 4-9.6 2.2-4.7 4-8.8 4-9.1 0-.3 1.4-3.5 3.1-7.1 1.7-3.7 4.2-9.4 5.5-12.7 1.4-3.3 3.1-7.4 3.9-9 .7-1.7 2.3-5.3 3.6-8 8.9-20.4 13.5-30.8 15.6-35.5 1.4-3 3.4-7.5 4.5-10 2.6-6 4-9 8.2-18.3 2-4.4 3.6-8.1 3.6-8.3 0-.2 1.8-4.2 4-8.9s4-8.7 4-9c0-.2 1.1-2.8 2.4-5.7 1.3-2.9 3-6.8 3.7-8.6.8-1.7 1.7-3.2 2-3.2.3 0 .6-.6.6-1.3 0-1.1 1.4-4.2 8.9-20.5 1.9-4 3.4-7.9 3.4-8.6 0-.6.4-1.6.9-2.1.5-.6 3.4-6.6 6.4-13.5 5.8-13.4 7.3-16.6 13.6-30.3 2.3-4.9 4.1-9.4 4.1-10.1 0-.8.7-1.9 1.5-2.6.8-.7 1.5-1.9 1.5-2.6 0-.8.4-2.2 1-3.2 1.1-2 8-17.2 8-17.7 0-.2 1.8-4.1 3.9-8.7 2.1-4.5 5.9-13 8.4-18.8 2.5-5.8 5.9-13.4 7.5-17 1.6-3.6 4-9.2 5.2-12.5 1.3-3.3 3-6.9 3.7-8.1.7-1.1 1.4-3.2 1.5-4.7.1-1.5.5-2.7.8-2.7.8 0 7 5.7 7 6.4 0 .4 5.3 7.8 11.7 16.4 6.4 8.6 13.9 18.8 16.6 22.7 2.8 3.8 5.3 7.2 5.6 7.5.3.3 1.9 2.5 3.5 4.9 1.6 2.5 3.3 5 3.8 5.5 4.9 6 5.8 7.3 5.8 8.3 0 .6.4 1.3.8 1.5.5.1 5 6.1 10.1 13.3 5 7.1 9.7 13.7 10.4 14.6.7.8 1.7 2.3 2.2 3.2 2.2 3.5 21.1 30.1 22.5 31.6.8.9 2.8 3.7 4.5 6.1 1.6 2.5 3.2 4.7 3.5 5 .3.3 2.6 3.4 5.2 7 4.7 6.7 26.9 36.6 28.8 38.7.5.7 1 1.6 1 2.1s1.1 1.8 2.3 3.1c1.9 1.7 2.6 1.9 3.3.9.5-.7 5.2-10.1 10.4-20.8 5.2-10.7 9.8-19.7 10.3-19.8.4-.2.5-.7.2-1.2s.2-1.6 1.1-2.4c.8-.9 1.3-1.6 1.1-1.6-.3 0 6.3-13.6 14.5-30.3 14.4-28.8 24.3-46.5 34.9-62.5 2.7-4 4.9-7.4 4.9-7.6 0-.5 9.8-15.4 11.2-17.1.5-.5 3-3.9 5.5-7.5 13.7-18.9 40.7-54.6 43.3-57 .3-.3 2.4-2.8 4.5-5.5 2.2-2.8 5.1-6.2 6.5-7.6 1.4-1.5 3.5-3.9 4.7-5.5 10.7-13.5 55.6-58.3 68.8-68.6 1.6-1.3 3.7-3 4.6-3.8 3-2.8 13.8-11.4 23.9-19 1.8-1.4 3.8-3 4.5-3.5.6-.6 1.8-1.5 2.7-2 .9-.6 6.9-4.6 13.5-9.1 13.4-9.2 21.6-14.3 38.8-23.9 13.9-7.8 54-27.5 56-27.5.3 0 2.7-.9 5.3-2.1 5.4-2.4 7.9-3.4 10.7-4.4 1.1-.4 6.2-2.2 11.3-4 5-1.8 9.2-3.1 9.2-2.9 0 .3 1.3-.2 3-1.1 1.6-.8 3.1-1.5 3.2-1.4.2.1 3.5-.8 7.4-2 9.8-2.9 29.1-7.9 33.4-8.6 1.9-.3 5.1-1 7-1.5 2-.5 5.4-1.2 7.5-1.4 2.2-.3 4.9-.7 6-1 1.1-.2 4.9-.8 8.5-1.2 3.6-.4 6.7-.8 7-.9.3-.1 4.4-.5 9.3-.9 4.8-.5 8.9-1.2 9.2-1.6.2-.4-1.2-.6-3.3-.4-2 .2-7.7.6-12.7.9-8.7.5-17.3 1.3-22.5 2-1.4.2-4.5.7-7 1-2.5.3-5.6.8-7 1-1.4.2-5.5.9-9.2 1.5-7.4 1.1-33 6.9-42.3 9.5-3.3.9-6.7 1.8-7.5 2-.8.2-6.2 2-12 4-5.8 1.9-11.2 3.7-12 3.9-4.4 1.1-22.7 8.5-33 13.4-3 1.4-5.7 2.6-6 2.7-1.2.1-22.5 11.1-22.8 11.7-.2.5-.7.8-1.2.8-.4 0-3.7 1.6-7.2 3.6-3.4 2-8.8 5-11.8 6.7-3 1.7-6.1 3.7-6.8 4.4-.7.7-1.9 1.3-2.6 1.3-.7 0-2.2.9-3.4 2-1.1 1.1-3.9 2.9-6.1 4.1-2.3 1.2-4.1 2.5-4.1 3s-.4.9-1 .9c-.8 0-24.3 16.1-29.5 20.1-12.6 9.9-31.8 25.4-34.3 27.7-1.8 1.6-5.2 4.6-7.5 6.5-2.3 1.9-5.2 4.3-6.3 5.4-2.9 2.5-26.7 24.9-32 30.1-5.1 4.9-5.4 4.9-1.9.2 1.4-1.9 2.5-3.9 2.5-4.6 0-4.2 48.3-51 70.5-68.3 4.4-3.4 8.8-6.9 9.7-7.7 1-.7 4.4-3.1 7.5-5.1 3.2-2.1 6-4 6.3-4.3.3-.3 1.6-1.1 3-1.9 1.4-.8 8-4.8 14.6-8.8 6.7-4 12.6-7.3 13.2-7.3.6 0 1.2-.4 1.4-.9.5-1.2 45.2-22.9 50.8-24.6 10.6-3.1 23-8.3 35.5-14.7 4.4-2.3 8.1-4 8.3-3.9.1.1 4.4-1.1 9.5-2.8 14.7-4.8 36.4-10.2 50.2-12.5 1.7-.3 4.1-.7 5.5-1 1.4-.3 4.1-.7 6-1 1.9-.2 5.8-.8 8.5-1.2 2.8-.4 6.1-.8 7.5-1 1.4-.1 2.5-.3 2.5-.4 0-.1 1.6-.3 3.5-.4 1.9-.2 8.7-.7 15-1.2 21.8-1.7 74.3-.9 86.5 1.3 1.7.3 4.6.7 6.5.8 6.3.5 21.3 2.6 27.9 4 1.3.2 5.1.7 8.5 1 6 .6 7.3.1 2.6-.9-1.4-.3-5.2-1.2-8.5-2-3.3-.9-7.6-1.8-9.5-2.1-1.9-.3-7.3-1.1-12-1.9-4.7-.8-11-1.7-14.2-2-3.1-.3-7.3-.8-9.5-1.1-9.5-1.3-18.7-1.7-44.8-2-15.4-.1-30.9.1-34.5.5-3.6.5-9.4 1.1-13 1.4-9.7.9-15.3 1.7-25.5 3.5-3.3.6-7.6 1.3-9.5 1.6-1.9.3-5.3 1-7.5 1.5s-5.3 1.1-7 1.4c-1.6.3-4.5 1-6.2 1.5-1.8.5-3.3.8-3.3.5 0-.3-.8 0-1.8.5-1.1.6-3 1.2-4.3 1.5-5.8 1.1-11.7 2.6-15.9 4.1-2.5.9-4 1.1-3.5.6 1-1 23.5-7.9 28.4-8.7 1.4-.3 4.2-.9 6.1-1.4 1.9-.5 4.6-1.1 6-1.4 1.4-.3 3.6-.8 5-1.1 1.4-.3 3.9-.7 5.5-1 3.2-.5 7.4-1.2 11.5-2 2.9-.6 7.8-1.3 15.3-2 2.8-.3 7-.8 9.2-1 11.5-1.3 27.5-1.9 49.7-2 22.3 0 28.3-.4 23.1-1.7-2.6-.6-42.5-.1-51.8.6-4.4.4-10.9.9-14.5 1.1-13 1-29.6 3.1-38.5 4.9-1.1.2-4 .7-6.5 1.1-8.2 1.3-23.1 4.7-33.7 7.6-4.3 1.2-8.2 2.2-8.8 2.4-3.9.8-7.2 1.9-8.2 2.8-.7.5-1.3.7-1.3.3 0-.3-1.2-.1-2.7.5-1.6.6-3.5 1.2-4.3 1.4-2.5.6-26.1 9.1-32.7 11.8-8.7 3.5-7.9 1.9 1-2 4-1.8 9.9-4.5 13.2-6 3.3-1.5 6.2-2.8 6.5-2.9.3 0 1.6-.5 3-1.1 24.6-10.5 50.6-18.4 68.5-20.8 2.2-.3 5.4-.8 7-1.2 1.7-.3 4.1-.7 5.5-.9 1.4-.1 5.2-.5 8.5-.9 18.7-2.1 32.6-2.9 52.5-2.9 16.8.1 36 .9 45 2 1.9.2 5.1.6 7 .8 7.7.9 14.7 1.8 17.5 2.2 1.7.3 4.6.7 6.5.9 3.7.3 6.7.8 19.5 3 13.2 2.4 13.8 2.5 18.5 3.5 2.5.6 5.5 1.2 6.8 1.5 1.2.2 2.6.6 3.1.9.5.3 2.4.8 4.2 1.1 1.9.2 5 .9 6.9 1.4 1.9.5 5.5 1.5 8 2.1 2.5.7 5.2 1.4 6 1.7.8.3 2.2.7 3.1.9.9.2 5.4 1.6 10 3.1s8.6 2.7 8.9 2.8c5.8 1.3 7.6 1.9 9.8 3.1 1.5.8 3.2 1.4 3.8 1.4.7 0 7.2 2.3 14.5 5.1 21.4 8.1 21.6 8.2 19.9 6.5-2.4-2.2-34.8-15.4-53.5-21.7-4.9-1.7-9.7-3.3-10.5-3.6-.8-.4-1.7-.7-2-.8-.3-.1-3.9-1.1-8-2.4-4.1-1.2-8.6-2.6-10-3.2-1.4-.5-3.4-1.1-4.5-1.4-4-.9-17-4.3-18.5-4.8-.8-.4-3.1-.9-5-1.2-3.7-.7-9.9-2-14-2.9-7.6-1.7-11.9-2.6-15-3.1-13.4-2-18-3-18-3.7 0-.5 1-.6 2.3-.4 1.2.3 4.5.8 7.2 1.2 2.8.4 5.7.9 6.5 1 .8.2 3.1.6 5 .8 5.6.7 38.2 7.5 41.6 8.6 1.7.6 4.1 1.3 5.3 1.5 1.1.3 3 .7 4.1.9 6.4 1.4 27 7.7 45.4 13.8 21.4 7.1 26.6 8.4 26.6 6.7 0-.5-2.4-2.2-5.2-3.8-2.9-1.6-5.9-3.5-6.6-4.1-.7-.6-1.7-.8-2.4-.4-.6.4-.8.3-.4-.4.3-.6.2-1.3-.4-1.7-.5-.3-1 0-1 .7 0 1-.2 1-.8.1-.4-.7-2.7-1.9-5-2.7-3.7-1.3-35.8-11.1-40.1-12.2-21.1-5.5-32.3-8.3-35.1-8.7-1.9-.4-7.8-1.5-13-2.5-5.2-1.1-11.3-2.2-13.5-2.6-2.2-.3-4.9-.7-6-1-2.1-.4-9.4-1.4-16-2.1-2.2-.3-5.6-.7-7.5-1-7.6-1.1-27.7-2.8-31.7-2.6-1.8.1-3.3-.3-3.3-.8s3.3-.8 7.5-.6c4.1.1 7.2-.1 6.9-.6-.3-.5-1.5-.8-2.7-.8H955c-11.8 0-23.8.2-26.5.3-7.4.5-18.4 1.6-23 2.3-2.2.3-5.1.6-6.5.8-1.4.1-4.5.5-7 .9s-5.8 1-7.5 1.2c-3.4.5-17.7 3.1-21.5 3.9-1.4.3-4.5 1-7 1.6-2.5.5-5.2 1.1-6 1.3-1.6.3-2.7.6-17.5 4.3-9.1 2.3-21.5 3.9-21.5 2.8 0-.3 2.8-1.3 9-3 .3-.1 2.5-.7 5-1.4s5.2-1.4 6-1.6c2.4-.5 15.1-3.5 19-4.5 4.3-1.1 12.4-2.8 16.5-3.4 1.7-.2 7.3-1.1 12.5-2 5.2-.8 11.8-1.7 14.5-2.1 2.8-.3 6.4-.8 8-1 14.9-2 29.2-2.8 50.5-2.8 17.2 0 38.1.9 41 1.8.8.2 4.7.7 8.5.9 3.9.3 8.1.8 9.5 1.1 1.4.3 4.5.7 7 1.1 2.5.3 6.3.9 8.5 1.4l4 .9-3.7-.2c-2.1-.2-3.8.1-3.8.5s.8.8 1.8.9c2.7.1 12.8 1.8 20.7 3.5 5.7 1.1 8 1.2 9.3.2.9-.8 1.1-.7.7.4-.5 1.1.2 1.7 2.4 2 1.7.3 3.1.1 3.1-.4 0-.4-1-.9-2.2-.9-2-.1-2.1-.2-.4-.6 1.1-.3 2.5.2 3.1 1 1 1.4 7.9 3.4 17.5 5.1 1.4.3 4.7 1.1 7.5 2 5.4 1.7 7.5 1.5 2.6-.2-3.8-1.4-4-2-.3-1.6 7.7 1.1-11.3-5.1-21.9-7-1.3-.2-2.5-.5-2.6-.7-.5-.3-2.3-.7-4.6-.8-1.3 0-3.2-.8-4.3-1.7-1.9-1.5-1.9-1.5.1-.7 2 .9 9.3.8 10.3-.1.6-.7-2-3-3.8-3.4-.8-.2-1.9-.8-2.5-1.4-.7-.7-.4-.8 1-.5 1.6.5 22.4 5.3 31.4 7.2 1.1.3 2.9.7 3.9 1 2.3.6 10.5 2.6 11.7 2.9.6.1 3.5 1 6.5 1.9 3 1 7.8 2.4 10.5 3.2 2.8.8 10.9 3.4 18 5.7 7.2 2.3 13.2 4.3 13.5 4.3.6.2 1.5.5 12 4.5 4.7 1.7 9 3.3 9.5 3.4 1 .3 1.6.5 8.4 3.2 3 1.2 3.2 1.2 2.1-.1-.7-.8-1.8-1.5-2.5-1.5s-3-.9-5.2-1.9c-2.1-1.1-8.5-3.7-14.3-5.9-5.8-2.2-13.5-5.2-17.3-6.6-3.7-1.4-7.1-2.6-7.6-2.6-.6 0-2.2-.5-3.8-1.2-1.5-.6-3-1.2-3.3-1.3-.3 0-4.5-1.4-9.5-2.9-4.9-1.6-9.4-2.9-10-3-1.6-.4-9.8-2.8-11.5-3.4-.8-.3-1.7-.6-2-.7-.3 0-4.8-1.1-10-2.3-5.2-1.3-10.9-2.7-12.6-3.2-1.7-.6-3.9-1-5.1-1-1.1 0-2.3-.3-2.6-.7-.4-.3-1.7-.7-2.9-.9-1.3-.1-3.6-.5-5.3-.8-1.6-.4-4.6-.9-6.5-1.2-1.9-.3-4.3-.7-5.2-1-2.2-.6-5.1-1.2-9.8-1.8-1.9-.3-5.2-.7-7.2-1-9.7-1.5-11.5-1.8-14.3-2.2-1.6-.2-5.9-.6-9.5-.9-6.9-.5-11.9-1.1-18.5-1.9-6.4-.9-15.6-1.8-20.5-2.1-2.5-.2-4.5-.4-4.5-.5 0-.9-48.6-1.3-61.5-.6-9.8.6-22.6 2-33.5 3.6-3.3.5-7.6 1.1-9.5 1.4-1.9.3-8.9 1.7-15.5 3.1-6.6 1.4-15.1 3.2-19 4-3.8.8-9.5 2.2-12.5 3.1-3 .8-6.4 1.7-7.6 1.9-1.2.3-4 1.1-6.3 2-2.3.8-4.3 1.5-4.6 1.5-.3 0-1 .3-1.7.5s-4.7 1.5-8.8 2.9c-9.2 3-20.8 7.2-23.5 8.5-4.3 2.1-13.6 6.1-14.1 6.1-.8 0-34.3 16.7-40.6 20.3-3.1 1.8-9.8 5.7-14.8 8.7-5 3-10 5.9-11.1 6.5-1 .5-1.9 1.3-1.9 1.7 0 .5-.5.8-1 .8-.9 0-14.6 8.6-16 10-1.7 1.8-8 6-8.9 6-.6 0-1.1.3-1.1.7 0 .5-2.4 2.4-5.3 4.3-2.8 1.9-5.6 4-6.2 4.6-.5.6-3.9 3.3-7.5 5.9-3.6 2.7-6.7 5.2-7 5.5-.3.3-2.8 2.2-5.7 4.2-2.9 2.1-6.2 4.6-7.5 5.6-1.3 1.1-9 7.6-17.3 14.5-8.2 6.8-16.4 13.8-18.1 15.3-1.7 1.6-3.8 3.5-4.7 4.3-1.6 1.3-1.7 1.2-.7-1.5 1.1-2.8 6.1-7.9 14.4-14.7 2.1-1.8 4.3-3.7 5-4.2.6-.6 4.9-4.2 9.6-8 4.7-3.9 9-7.4 9.6-8 .6-.5 2.3-1.9 3.8-3 5.9-4.2 13.1-10 13.4-10.7.2-.5.8-.8 1.3-.8.6 0 1.5-.4 2.2-1 5.3-4.3 9.3-7.2 24.7-17.4 9.6-6.4 18-12 18.7-12.6.7-.5 1.4-1 1.7-1 .6 0 12.9-7.2 13.6-8 .3-.3 1.6-1.1 3-1.8 1.4-.6 6.1-3.2 10.5-5.7 7.8-4.4 42.1-21.5 43.1-21.5.3 0 2.6-1 5.2-2.1 2.6-1.2 7-3.1 9.7-4.4 4.6-2 9.3-3.8 10.5-4 .5 0 6.2-2.2 9.5-3.5 1.9-.8 6-2.2 7.8-2.6.4-.1.9-.3 1.2-.4.3-.1.8-.3 1.3-.5.4-.1 1.4-.4 2.2-.8.8-.3 6.2-2 12-3.7 5.8-1.7 12.5-3.8 15-4.5 2.5-.8 5.6-1.6 7-1.9 1.4-.2 7.2-1.5 13-2.9 10.8-2.6 17-3.8 20.6-4.1 1.1-.2 2.5-.5 3.1-.9.6-.4 3.3-.9 6-1.2 6.5-.7 10.9-1.3 14.1-1.9 1.5-.3 5.2-.8 8.2-1.2 3-.3 6.6-.8 8-.9 20.9-2.6 84.2-2.7 108-.1 13.9 1.5 17.8 2 24.8 3.1 2.3.4 5.2.8 6.5 1 4.4.6 10.3 1.6 15.3 2.6 2.8.5 6.4 1.2 8 1.5 1.6.3 3.6.7 4.4.9.8.2 2.9.7 4.5 1 5.1.8 6.5 1.2 23.5 5.4 9.1 2.3 17.6 4.6 19 5.1 1.4.4 5.9 1.8 10 3s13.4 4.2 20.5 6.6c7.2 2.5 13.7 4.7 14.5 4.9 2.5.6 30.2 11.4 34.5 13.4 2.2 1 6.8 3.1 10.3 4.5 8.3 3.5 15.5 6.8 34.7 16.1 19 9.2 23.5 10.9 23.5 9.2 0-2.1-10.5-8.6-30.5-18.7-10.7-5.5-19.8-9.9-20-9.9-.3 0-3.3-1.3-6.8-2.9-9.9-4.6-12.9-5.9-18.7-8.2-3-1.2-7.1-2.8-9-3.7-6.3-2.7-7.4-3.1-17-6.7-12.6-4.6-36.7-12.6-37.9-12.6-.5 0-2.2-.5-3.8-1.1-1.5-.7-3.5-1.3-4.3-1.5-.8-.1-2.4-.5-3.5-.8-9.7-2.6-14.2-3.8-15.5-4.1-.8-.2-3.5-.8-6-1.5s-5.3-1.4-6.3-1.6c-1-.2-2.6-.5-3.5-.8-.9-.3-3.4-.7-5.6-1.1-2.1-.3-4.1-.7-4.5-.9-.3-.2-2.2-.7-4.1-1-1.9-.3-4.8-.8-6.5-1.1-12.5-2.3-19.6-3.6-23-4-2.2-.3-5.3-.8-6.9-1.1-1.5-.4-4.5-.8-6.5-.9-2-.2-5.6-.6-8.1-1-5.1-.7-14.1-1.5-21.6-1.9-2.8-.2-5.5-.5-6-.8-1-.5-58-.9-58.6-.3zm7.2 31.7c0 .4-.4.8-.9.8-.6 0-1.2-.4-1.5-.8-.3-.5.1-.9.9-.9s1.5.4 1.5.9zm4.3-.5c-.7.2-1.9.2-2.5 0-.7-.3-.2-.5 1.2-.5s1.9.2 1.3.5zm7.7.1c0 .5-1.3.7-3 .4-1.6-.2-3-.6-3-.8 0-.2 1.4-.4 3-.4 1.7 0 3 .4 3 .8zm8.6 0c-.5.8-7.6.4-7.6-.4 0-.2 1.8-.4 4.1-.4 2.2 0 3.8.4 3.5.8zm8.4 0c0 .4-1.6.7-3.5.7s-3.5-.3-3.5-.8c0-.4 1.6-.7 3.5-.7s3.5.4 3.5.8zm-33.7.9c-.7.2-1.9.2-2.5 0-.7-.3-.2-.5 1.2-.5s1.9.2 1.3.5zm104 2.7c.3-.3.8-.1 1.1.4.3.6-.2.9-1.1.7-1-.2-2.6-.4-3.5-.4-1-.1-1.8-.5-1.8-1.1 0-.6.9-.6 2.4 0 1.3.5 2.6.6 2.9.4zm8.6 2.2c1.3 1.1-.8 1-3.4-.2l-3-1.3 3 .6c1.7.3 3.2.7 3.4.9zm8.1 1.4c0 .5-.2 1-.4 1-.3 0-.8-.5-1.1-1-.3-.6-.1-1 .4-1 .6 0 1.1.4 1.1 1zm12.7 2.6c-.3.3-1.2.4-1.9.1-.8-.3-.5-.6.6-.6 1.1-.1 1.7.2 1.3.5zm-58.9 1.3c1.7.1 3.2.5 3.2 1 0 .4-1.7.5-3.8.1-2.1-.4-4.6-.6-5.5-.4-.9.1-1.7-.2-1.7-.7 0-.5 1-.7 2.3-.5 1.2.3 3.7.5 5.5.5zm71.5 1.8c-.7.2-1.9.2-2.5 0-.7-.3-.2-.5 1.2-.5s1.9.2 1.3.5zm6.2 2.1c-.3.3-1.1 0-1.8-.7-.9-1-.8-1.1.6-.5 1 .3 1.5.9 1.2 1.2zM826 381c-.8.5-1.9 1-2.5 1-.5 0-.3-.5.5-1s2-1 2.5-1c.6 0 .3.5-.5 1zM421.8 624.5c1.5 2.2 4.3 6.6 6.1 9.7 1.8 3.2 3.6 6 4.2 6.3.5.4.9 1.3.9 2.2 0 1.3-5.7-6.5-11.5-15.6-.6-.9-3.1-4.9-5.8-8.9-2.6-4-4.7-7.6-4.7-7.9 0-.6 2.5 2.7 10.8 14.2zM49.2 622c1.5 2.7 2.5 5 2.3 5-.8 0-8.5-7.7-8.5-8.5 0-.4.9 0 2 1 2.1 1.9 2.8.7.8-1.3-.7-.7-.8-1.2-.2-1.2.5 0 2.1 2.2 3.6 5zm4.2 7.6c.3.8.2 1.2-.4.9-.6-.3-1-1-1-1.6 0-1.4.7-1.1 1.4.7zM434 638c0 .5-.5 1-1.1 1-.5 0-.7-.5-.4-1 .3-.6.8-1 1.1-1 .2 0 .4.4.4 1zm3-.6c0 .3-.4.8-1 1.1-.5.3-1 .1-1-.4 0-.6.5-1.1 1-1.1.6 0 1 .2 1 .4zm-319.8 77.7c.4.8 2.6 5.3 4.8 10.1 2.1 4.9 4.3 8.8 4.8 8.8.4 0 2.6-3.2 4.8-7.2 6.2-11 7.1-9.3 1.2 2.1-2.9 5.6-5.5 10.1-5.8 10.1-.4 0-2.4-3.7-4.5-8.3-2.2-4.5-5.4-10.8-7.2-14.1-3-5.2-3.1-5.7-1.1-4.4 1.2.8 2.6 2.1 3 2.9zm-8.4 18.9c2.1 4.1 7.1 13.3 11.1 20.5 3.9 7.1 7.1 13.6 7.1 14.3 0 2.6 2.5.6 4.7-3.7 2.7-5.3 3.8-6.4 2.9-3.1-1 3.7-4.8 12-5.5 12-.4 0-2.2-2.8-4.1-6.3-4.3-7.7-4.4-7.9-10.2-17.4-2.6-4.3-5.4-8.9-6.2-10.3-1.7-2.8-5.8-15.6-4.6-14.3.4.4 2.6 4.2 4.8 8.3z"/><path d="M47 622c0 .5.5 1 1.1 1 .5 0 .7-.5.4-1-.3-.6-.8-1-1.1-1-.2 0-.4.4-.4 1zM983 336.2c0 .4 1.5.8 3.3.9 4.7.1 12.8.8 16 1.4 1.5.2 2.7 0 2.7-.5 0-.6-1.7-1.1-3.7-1.1-2.1-.1-5.1-.3-6.8-.5-8.3-.9-11.5-1-11.5-.2zM1006 338.2c0 .4.6.8 1.3.9 5.7.3 8.7.7 11.5 1.3 1.9.5 3.2.4 3.2-.2 0-.8-4.1-1.6-14.2-2.7-1-.1-1.8.2-1.8.7zM743.5 347.2l-2 2.1 2.3-1.2c1.2-.6 2.2-1.6 2.2-2.1 0-1.3-.2-1.2-2.5 1.2zM734.3 351c-3.5 1.6-6.3 2.6-6.3 2.2 0-.4-.4-.3-.8.3-.4.5-7.7 4.5-16.2 8.8-19.3 9.7-25.4 13-25.8 13.9-.2.5-.7.8-1.2.8-.8 0-10.4 5.6-19.2 11.3-2.7 1.7-4.8 3.4-4.8 3.9 0 .4 2.2-.8 4.9-2.7 2.6-1.9 5.3-3.5 6-3.5.6 0 1.1-.4 1.1-.9s1.2-1.4 2.8-2c1.5-.7 4.3-2.2 6.4-3.4 8.4-5.1 13.1-7.7 13.9-7.7.5 0 .9-.5.9-1 0-.6.7-1 1.5-1 .9 0 2.1-.5 2.8-1 1.9-1.6 20.2-10.8 30.2-15.2 5-2.2 9.4-4.4 10-4.9 1.3-1.3.8-1.1-6.2 2.1zM1093.3 354.6c.5.5 4.3 1.8 8.5 3s8.5 2.5 9.5 2.9c.9.4 1.7.3 1.7-.2s-.6-1-1.2-1c-1.1-.1-7.6-2-16.9-4.8-1.4-.4-2-.4-1.6.1zM991 359c0 .3 1.4.6 3 .6 1.7 0 3-.3 3-.6 0-.4-1.3-.7-3-.7-1.6 0-3 .3-3 .7zM998.5 359c-.3.5-.1 1 .4 1 .6 0 1.1-.5 1.1-1 0-.6-.2-1-.4-1-.3 0-.8.4-1.1 1zM1001 359.9c0 .4 1.1.6 2.5.3 1.4-.2 2.5-.6 2.5-.8 0-.2-1.1-.4-2.5-.4s-2.5.4-2.5.9zM1007 359.8c0 .5.7.9 1.5.9s1.2-.4.9-.9c-.3-.4-.9-.8-1.5-.8-.5 0-.9.4-.9.8zM1011.8 360.7c.7.3 1.6.2 1.9-.1.4-.3-.2-.6-1.3-.5-1.1 0-1.4.3-.6.6zM1015 360.9c0 .5.8.8 1.7.7 1-.2 3.2 0 5 .5 1.8.4 3.6.3 3.9-.2.3-.5-1-.9-2.8-1-1.8 0-4.3-.2-5.5-.5-1.3-.2-2.3 0-2.3.5zM1114.7 361.1c.7.7 1.5 1 1.8.7.3-.3-.2-.9-1.2-1.2-1.4-.6-1.5-.5-.6.5zM1027 362.1c0 .5 1.1.9 2.5.9s2.5-.2 2.5-.4-1.1-.6-2.5-.8c-1.4-.3-2.5-.1-2.5.3zM1118.4 362.8c.3 1.6 6.5 3.7 7.6 2.6.8-.9-2.5-2.4-4.3-2-.9.2-1.5.1-1.2-.4.3-.4-.1-1-.9-1.3-.9-.4-1.3 0-1.2 1.1zM1033 363c0 .5.5 1 1.1 1 .5 0 .7-.5.4-1-.3-.6-.8-1-1.1-1-.2 0-.4.4-.4 1zM1036 363.7c0 .5 1.6 1 3.5 1.1 2 .2 8.8 1.4 15.3 2.8 6.4 1.3 12.8 2.7 14.2 3 1.4.3 4.1 1 6 1.5 11.3 3.4 11 3.4 11 2 0-.7-6.4-2.5-7.7-2.2-.2 0-2.1-.6-4.3-1.4-2.2-.8-4-1.2-4-1 0 .2-1.5-.1-3.2-.6-1.8-.6-4.4-1.2-5.8-1.5-22.3-4.3-25-4.7-25-3.7zM1130.7 366.1c.7.7 1.5 1 1.8.7.3-.3-.2-.9-1.2-1.2-1.4-.6-1.5-.5-.6.5zM1134 367.9c0 .9 3.9 2.3 7.3 2.6 2.6.3 2-.3-1.9-2-4.2-1.7-5.4-1.9-5.4-.6zM950.4 369.8c.5.8 6.6.4 6.6-.4 0-.2-1.6-.4-3.6-.4-1.9 0-3.3.4-3 .8zM1146 372c.8.5 2 1 2.5 1 .6 0 .3-.5-.5-1s-1.9-1-2.5-1c-.5 0-.3.5.5 1zM1063 374c0 .5.8 1 1.8 1.1.9 0 2.5.2 3.6.4 2.8.5.5-1.1-2.6-1.9-1.7-.4-2.8-.2-2.8.4zM1151 374c.8.5 2.2.9 3 .9 1 0 .8-.3-.5-.9-2.7-1.2-4.3-1.2-2.5 0zM1071 375c0 .5.5 1 1.1 1 .5 0 .7-.5.4-1-.3-.6-.8-1-1.1-1-.2 0-.4.4-.4 1zM1074.5 376c.3.5 1.1 1 1.6 1 .6 0 .7-.5.4-1-.3-.6-1.1-1-1.6-1-.6 0-.7.4-.4 1zM1162 378.2c3.6 1.6 9.9 4.3 14 6 4.1 1.6 14.4 6.3 22.9 10.4 8.5 4.1 15.6 7.2 15.8 7 .5-.4-7.6-4.5-26.5-13.2-3.9-1.9-7.4-3.4-7.7-3.4-.2 0-5.7-2.3-12.1-5-12.8-5.5-16.7-6.6-6.4-1.8zM1079 376.9c.8.5 3.1 1.2 5 1.5 1.9.3 5 1 6.8 1.5 1.7.5 3.2.6 3.2.2 0-.5-1.9-1.2-4.2-1.6-4.7-.9-5.9-1.1-9.7-2-1.8-.4-2.2-.3-1.1.4zM651.4 396.7c-3.8 2.5-7 5-7.2 5.5-.2.4-.8.8-1.2.8-.8 0-5.3 3.1-23.8 16.3-10.7 7.7-27.8 21.1-37.7 29.7-16 13.8-53.5 50.3-53.5 52 0 .4 5.8-5 12.9-12.1 7.1-7.1 14.8-14.4 17.1-16.4 2.3-1.9 3.9-3.5 3.6-3.5-.4 0 1-1.5 3.1-3.2 2.1-1.8 7.6-6.7 12.3-10.9 4.7-4.2 14.6-12.4 22-18.2 7.4-5.9 14-11 14.5-11.5.6-.5 2.4-1.7 4-2.7 1.7-1.1 3.7-2.5 4.5-3.2 1.5-1.3 5.8-4.5 17.6-12.8 3.1-2.2 6.2-4.5 6.8-5 .6-.6 3.6-2.6 6.6-4.5 6.8-4.2 6.4-3.9 5.9-4.5-.3-.2-3.6 1.6-7.5 4.2zM1217.6 403.5c1 .8 2.4 1.4 2.9 1.4.6 0 .1-.6-.9-1.4-1.1-.8-2.4-1.5-3-1.5-.5 0-.1.7 1 1.5zM1222 405.5c0 .3 3 2 6.8 3.8 3.7 1.8 8.6 4.6 10.9 6 2.4 1.5 4.5 2.7 4.8 2.7 1.3 0-.7-1.9-3.3-3.3-19.8-10.4-19.2-10.1-19.2-9.2zM1246.2 417.9c.2.7 3.1 2.8 6.5 4.5 3.4 1.8 6.9 3.8 7.8 4.6 1.3 1.1 1.5 1.1 1-.1-.3-.8-3.6-3-7.3-4.9-3.7-1.9-7.1-3.9-7.5-4.5-.5-.6-.7-.5-.5.4zM29 597.5c0 .4.9 1.8 2 3.2 1.1 1.4 2 2.2 2 1.8 0-.4-.9-1.8-2-3.2-1.1-1.4-2-2.2-2-1.8z"/></svg>