<?xml version="1.0" encoding="UTF-8" standalone="no"?>
<svg xmlns:dc="http://purl.org/dc/elements/1.1/" xmlns:cc="http://creativecommons.org/ns#" xmlns:rdf="http://www.w3.org/1999/02/22-rdf-syntax-ns#" xmlns:svg="http://www.w3.org/2000/svg" xmlns="http://www.w3.org/2000/svg" id="svg857" version="1.1" height="9.1e+002" width="1366" viewBox="0 0 1366 9.1e+002">
  <metadata id="metadata861">
    <rdf:RDF>
      <cc:Work rdf:about="">
        <dc:format>image/svg+xml</dc:format>
        <dc:type rdf:resource="http://purl.org/dc/dcmitype/StillImage" />
        <dc:title></dc:title>
      </cc:Work>
    </rdf:RDF>
  </metadata>
  <defs id="defs851">
    <linearGradient gradientTransform="translate(100,0.2)" y2="541" x2="7.5e+002" y1="912" x1="7.5e+002" gradientUnits="userSpaceOnUse" id="grd1">
      <stop id="stop839" stop-opacity="0" stop-color="#ffffff" offset="0" />
      <stop id="stop841" stop-color="#6d65ab" offset="1" />
    </linearGradient>
    <linearGradient gradientTransform="translate(100,0.2)" y2="828" x2="7.2e+002" y1="0.23" x1="8.7e+002" gradientUnits="userSpaceOnUse" id="grd2">
      <stop id="stop844" stop-opacity="0" stop-color="#ffffff" offset="0" />
      <stop id="stop846" stop-color="#ebe9f5" offset="0.613" />
      <stop id="stop848" stop-color="#e3dff1" offset="0.956" />
    </linearGradient>
    <clipPath id="clipPath869" clipPathUnits="userSpaceOnUse">
      <rect y="-3.3" x="104" height="920" width="1366" id="rect871" style="fill:#4682b4;fill-opacity:1" />
    </clipPath>
    <clipPath id="clipPath873" clipPathUnits="userSpaceOnUse">
      <rect y="-3.3" x="104" height="920" width="1366" id="rect875" style="fill:#4682b4;fill-opacity:1" />
    </clipPath>
  </defs>
  <style id="style853">
		tspan { white-space:pre }
		.shp0 { opacity: 0.702;fill: url(#grd1) } 
		.shp1 { fill: url(#grd2) } 
	</style>
  <path transform="translate(-100,-0.2)" style="opacity:0.7;fill:url(#grd1)" clip-path="url(#clipPath873)" d="m 63,910 c 0,0 337,-370 797,-290 340,60 640,-80 640,-80 0,0 -300,120 -650,40 C 450,480 210,670 97,750 -53,870 63,910 63,910 Z" class="shp0" id="Shape 7 copy" />
  <path transform="translate(-100,-0.2)" style="fill:url(#grd2)" clip-path="url(#clipPath869)" d="M 2,830 C 280,600 490,500 900,590 c 300,80 700,-90 700,-90 V 250 c 0,0 -300,30 -600,-120 C 700,-25 44,2 44,2 44,2 -7.9,840 2,830 Z" class="shp1" id="Shape 7" />
</svg>
