<svg xmlns="http://www.w3.org/2000/svg" xmlns:xlink="http://www.w3.org/1999/xlink" viewBox="0 0 842.2 641.49"><defs><style>.cls-1{fill:url(#linear-gradient);}.cls-2,.cls-7{fill:#eceaf4;}.cls-2{opacity:0.7;}.cls-2,.cls-8{isolation:isolate;}.cls-3{fill:#706cab;}.cls-4{fill:#81b77d;}.cls-5{fill:#fff;}.cls-6{fill:#a0a1e3;}.cls-8{fill:#231f20;opacity:0.1;}</style><linearGradient id="linear-gradient" x1="415.46" y1="237.44" x2="415.46" y2="-404" gradientTransform="translate(0 404)" gradientUnits="userSpaceOnUse"><stop offset="0" stop-color="#a0a1e3"/><stop offset="1" stop-color="#eceaf4"/></linearGradient></defs><title>Asset 61</title><g id="Layer_2" data-name="Layer 2"><g id="Layer_1-2" data-name="Layer 1"><path class="cls-1" d="M577.2,7.34C429.2-46.16,73.7,204.44,79,376s510,346.6,622.2,224.8S725.2,60.84,577.2,7.34Z"/><path class="cls-2" d="M613,28c105.9,128,153.6,441.2,59.1,543.8-87.6,95.1-414.5,9.2-556.1-114.7,119.2,138.8,490.9,246.1,585.2,143.8C804,489.34,738.6,128.84,613,28Z"/><path class="cls-3" d="M791.4,396.64a3.54,3.54,0,0,1-3.5-3.5v-26.5a3.48,3.48,0,0,1,3.5-3.5,3.41,3.41,0,0,1,2.5,1.1l13.2,13.2a3.38,3.38,0,0,1,0,4.9h0l-13.2,13.2A3.58,3.58,0,0,1,791.4,396.64Zm3.5-21.6v9.6l4.8-4.8Z"/><polygon class="cls-4" points="788.2 497.34 802.2 494.94 804.6 480.94 807 494.94 821 497.34 807 499.74 804.6 513.74 802.2 499.74 788.2 497.34"/><path class="cls-5" d="M183.9,123.74H693.2A26.33,26.33,0,0,1,719.5,150v358.7A26.33,26.33,0,0,1,693.2,535H183.9a26.33,26.33,0,0,1-26.3-26.3V150A26.33,26.33,0,0,1,183.9,123.74Z"/><path class="cls-3" d="M693.2,538.54H183.9a29.87,29.87,0,0,1-29.8-29.8V150a29.87,29.87,0,0,1,29.8-29.8H693.2A29.87,29.87,0,0,1,723,150v358.7A29.87,29.87,0,0,1,693.2,538.54ZM183.9,127.24A22.79,22.79,0,0,0,161.1,150v358.7a22.79,22.79,0,0,0,22.8,22.8H693.2a22.79,22.79,0,0,0,22.8-22.8V150a22.79,22.79,0,0,0-22.8-22.8Z"/><path class="cls-6" d="M694.4,123.74H182.7c-13.8,0-25.1,12.4-25.1,27.6v34.8H719.5v-34.8C719.5,136.14,708.2,123.74,694.4,123.74Z"/><path class="cls-3" d="M723,189.64H154.1v-38.3c0-17.1,12.8-31.1,28.6-31.1H694.4c15.8,0,28.6,13.9,28.6,31.1Zm-561.9-7H716v-31.3c0-13.3-9.7-24.1-21.6-24.1H182.7c-11.9,0-21.6,10.8-21.6,24.1Z"/><circle class="cls-3" cx="192.6" cy="155.14" r="10.1"/><circle class="cls-3" cx="225.7" cy="155.14" r="10.1"/><circle class="cls-3" cx="258.9" cy="155.14" r="10.1"/><path class="cls-7" d="M702.9,186.14v306.1a26.33,26.33,0,0,1-26.3,26.3H167.3a25.82,25.82,0,0,1-8.3-1.4,26.34,26.34,0,0,0,24.9,18H693.2a26.33,26.33,0,0,0,26.3-26.3V186.14Z"/><path class="cls-8" d="M702.9,186.14h16.6V150a26.34,26.34,0,0,0-18-24.9,26.29,26.29,0,0,1,1.4,8.3Z"/><rect class="cls-3" x="157.6" y="182.64" width="561.9" height="7"/><path class="cls-3" d="M693.2,538.54H183.9a29.87,29.87,0,0,1-29.8-29.8V150a29.87,29.87,0,0,1,29.8-29.8H693.2A29.87,29.87,0,0,1,723,150v358.7A29.87,29.87,0,0,1,693.2,538.54ZM183.9,127.24A22.79,22.79,0,0,0,161.1,150v358.7a22.79,22.79,0,0,0,22.8,22.8H693.2a22.79,22.79,0,0,0,22.8-22.8V150a22.79,22.79,0,0,0-22.8-22.8Z"/><path class="cls-7" d="M400.3,223.24H381.8a12.29,12.29,0,0,1,12.3,12.3v1.1a12.29,12.29,0,0,1-12.3,12.3h18.5A12.93,12.93,0,0,0,413.2,236h0A12.91,12.91,0,0,0,400.3,223.24Z"/><path class="cls-3" d="M400.3,252.44H195.6a16.4,16.4,0,0,1,0-32.8H400.2a16.4,16.4,0,0,1,.1,32.8Zm-204.7-25.7a9.4,9.4,0,0,0,0,18.8H400.2a9.4,9.4,0,1,0,0-18.8Z"/><path class="cls-7" d="M400.3,272.94H381.8a12.29,12.29,0,0,1,12.3,12.3v1.1a12.29,12.29,0,0,1-12.3,12.3h18.5a12.93,12.93,0,0,0,12.9-12.9h0A12.91,12.91,0,0,0,400.3,272.94Z"/><path class="cls-3" d="M400.3,302.14H195.6a16.4,16.4,0,0,1,0-32.8H400.2a16.4,16.4,0,0,1,.1,32.8Zm-204.7-25.7a9.4,9.4,0,1,0,0,18.8H400.2a9.4,9.4,0,1,0,0-18.8Z"/><path class="cls-7" d="M442.7,322.64H424.2a12.29,12.29,0,0,1,12.3,12.3V336a12.29,12.29,0,0,1-12.3,12.3h18.5a12.93,12.93,0,0,0,12.9-12.9h0A12.85,12.85,0,0,0,442.7,322.64Z"/><path class="cls-3" d="M442.7,351.84H195.6a16.4,16.4,0,0,1,0-32.8H442.7a16.4,16.4,0,1,1,0,32.8Zm-247.1-25.7a9.4,9.4,0,1,0,0,18.8H442.7a9.4,9.4,0,1,0,0-18.8Z"/><path class="cls-7" d="M442.7,372.34H424.2a12.29,12.29,0,0,1,12.3,12.3v1.1A12.29,12.29,0,0,1,424.2,398h18.5a12.93,12.93,0,0,0,12.9-12.9h0A12.85,12.85,0,0,0,442.7,372.34Z"/><path class="cls-3" d="M442.7,401.54H195.6a16.4,16.4,0,0,1,0-32.8H442.7a16.4,16.4,0,1,1,.8,32.8Zm-247.1-25.7a9.4,9.4,0,0,0,0,18.8H442.7a9.4,9.4,0,1,0,.6-18.8H195.6Z"/><path class="cls-5" d="M773.2,263.54c0-59.6-53.6-107.9-119.7-107.9S533.9,204,533.9,263.54s53.6,107.9,119.7,107.9a127.07,127.07,0,0,0,74.2-23.3h0l34.7,10.8-8.7-36.4A99.3,99.3,0,0,0,773.2,263.54Z"/><path class="cls-3" d="M653.6,374.94c-67.9,0-123.2-50-123.2-111.4s55.2-111.4,123.2-111.4,123.2,50,123.2,111.4a103.78,103.78,0,0,1-19.2,59.7l8.3,34.9a3.4,3.4,0,0,1-2.6,4.2,4.08,4.08,0,0,1-1.9-.1l-33-10.3C706.7,367,680.9,374.94,653.6,374.94Zm0-215.7c-64.1,0-116.2,46.8-116.2,104.4S589.5,368,653.6,368c26.5,0,51.5-7.8,72.2-22.6a3.33,3.33,0,0,1,3.7-.2l28.2,8.8-7.3-30.5a3.79,3.79,0,0,1,.6-2.9,95.71,95.71,0,0,0,18.8-57c-.1-57.6-52.2-104.4-116.2-104.4Z"/><path class="cls-7" d="M773.2,263.54c0-59.6-53.6-107.9-119.7-107.9-50.8,0-94.2,28.6-111.6,68.9,21.7-27.6,57.4-45.7,97.8-45.7,66.1,0,119.7,48.3,119.7,107.9,0,21.8-5.7,35.8-5.7,35.8A99.18,99.18,0,0,0,773.2,263.54Z"/><path class="cls-3" d="M653.6,374.94c-67.9,0-123.2-50-123.2-111.4s55.2-111.4,123.2-111.4,123.2,50,123.2,111.4a103.78,103.78,0,0,1-19.2,59.7l8.3,34.9a3.4,3.4,0,0,1-2.6,4.2,4.08,4.08,0,0,1-1.9-.1l-33-10.3C706.7,367,680.9,374.94,653.6,374.94Zm0-215.7c-64.1,0-116.2,46.8-116.2,104.4S589.5,368,653.6,368c26.5,0,51.5-7.8,72.2-22.6a3.33,3.33,0,0,1,3.7-.2l28.2,8.8-7.3-30.5a3.79,3.79,0,0,1,.6-2.9,95.71,95.71,0,0,0,18.8-57c-.1-57.6-52.2-104.4-116.2-104.4Z"/><path class="cls-4" d="M654.6,232s12.2-18.5,31.1-19.8c23.8-1.6,40.1,15,41.7,34.2,1.5,18.9-11.5,36.2-22,48-14.3,16.1-36.1,32.5-48.8,40.2-13-7.2-35.4-22.8-50.4-38.3-11-11.4-24.6-28.2-23.9-47.1.8-19.2,16.5-36.5,40.3-35.8C641.7,214,654.6,232,654.6,232Z"/><path class="cls-3" d="M656.7,338.14a4.71,4.71,0,0,1-1.7-.4c-14.5-8-36.8-23.9-51.2-38.9-11.1-11.5-25.7-29.1-24.8-49.7.8-19.5,16.4-39.9,43.9-39.1,15.2.4,26.6,10.8,31.7,16.4,4.9-5.9,15.8-16.7,31-17.7,27.4-1.9,43.9,17.8,45.4,37.4,1.7,20.5-12.2,38.7-22.8,50.6-13.9,15.5-35.5,32.4-49.6,40.9A4.89,4.89,0,0,1,656.7,338.14Zm-35.4-121.2c-22.2,0-34.8,16.5-35.4,32.4-.7,17.9,12.7,34,22.9,44.5,14.8,15.4,36,29.9,47.8,36.6,13.7-8.5,33.4-24.1,46.3-38.5,9.8-11,22.5-27.6,21.1-45.4-1.3-16.2-15-32.5-38-31-17,1.2-28.3,18.1-28.5,18.3a3.53,3.53,0,0,1-4.9,1,2,2,0,0,1-.9-.9c-.2-.2-12.2-16.6-29.2-17.1Z"/><path class="cls-8" d="M614.6,224.84c19,.5,31.9,18.6,31.9,18.6s12.2-18.5,31.1-19.8c23.8-1.6,40.1,15,41.7,34.1.9,10.9-3.1,21.2-8.6,30.3,9.1-11.3,17.9-26,16.6-41.7-1.5-19.1-17.9-35.8-41.7-34.2-19,1.3-31.1,19.8-31.1,19.8s-12.9-18-31.9-18.6c-17.9-.5-31.2,9.1-37,22C592.7,228.74,602.6,224.54,614.6,224.84Z"/><path class="cls-7" d="M98,274.94l153.6-46.4a16.56,16.56,0,0,1,20.6,11l75,248.2a16.65,16.65,0,0,1-11.1,20.7l-195.7,59.2a16.65,16.65,0,0,1-20.7-11.1l-62.3-206Z"/><path class="cls-3" d="M135.7,571.84a20,20,0,0,1-19.2-14.3l-62.3-206a3.2,3.2,0,0,1,.3-2.7L95,273.24a3.59,3.59,0,0,1,2.1-1.7l153.5-46.4a20.06,20.06,0,0,1,25,13.4l75,248.2a20.06,20.06,0,0,1-13.4,25l-195.7,59.1A16.86,16.86,0,0,1,135.7,571.84Zm-74.4-221,61.8,204.7a13.07,13.07,0,0,0,16.3,8.7L335.1,505a13.07,13.07,0,0,0,8.7-16.3h0l-74.9-248.2a13.07,13.07,0,0,0-16.3-8.7l-152.1,46Z"/><path class="cls-8" d="M347.3,487.84l-75-248.3a16.66,16.66,0,0,0-16.4-11.8,21.69,21.69,0,0,1,1.5,3.5l77.4,256.2a8.3,8.3,0,0,1-5.5,10.3l-203.7,61.6a20.48,20.48,0,0,1-4.2.7,16.57,16.57,0,0,0,19.1,7.6l195.7-59.2A16.67,16.67,0,0,0,347.3,487.84Z"/><path class="cls-6" d="M98,274.94l12.8,42.2a16.5,16.5,0,0,1-11.1,20.6l-42.2,12.8Z"/><path class="cls-3" d="M57.5,354a3.54,3.54,0,0,1-3.5-3.5,3.29,3.29,0,0,1,.4-1.7l40.5-75.6a3.46,3.46,0,0,1,4.7-1.4,3.59,3.59,0,0,1,1.7,2.1l12.8,42.2a20.06,20.06,0,0,1-13.4,25l-42.2,12.8C58.2,353.94,57.9,354,57.5,354Zm39.6-70-32.5,60.7,34.1-10.3a13.07,13.07,0,0,0,8.7-16.3Z"/><rect class="cls-5" x="92.5" y="338.76" width="174.91" height="12.6" transform="translate(-92.1 66.78) rotate(-16.81)"/><path class="cls-3" d="M98.1,379.84a3.63,3.63,0,0,1-3.4-2.5L91,365.24a3.57,3.57,0,0,1,2.3-4.4h0l167.6-50.5a3.24,3.24,0,0,1,2.7.3,3.59,3.59,0,0,1,1.7,2.1l3.6,12.1a3.52,3.52,0,0,1-2.3,4.4L99.2,379.84Zm.7-13.2,1.6,5.4,160.7-48.6-1.6-5.4Z"/><rect class="cls-5" x="102.11" y="370.46" width="174.91" height="12.7" transform="translate(-100.87 70.92) rotate(-16.81)"/><path class="cls-3" d="M107.7,411.64a3.63,3.63,0,0,1-3.4-2.5L100.6,397a3.24,3.24,0,0,1,.3-2.7,3.59,3.59,0,0,1,2.1-1.7L270.4,342a3.52,3.52,0,0,1,4.4,2.3l3.7,12.1a3.57,3.57,0,0,1-2.3,4.4h0l-167.4,50.5A2.28,2.28,0,0,1,107.7,411.64Zm.7-13.3,1.6,5.4,160.7-48.6-1.6-5.4Z"/><rect class="cls-5" x="111.7" y="402.15" width="174.91" height="12.7" transform="translate(-109.63 75.05) rotate(-16.81)"/><path class="cls-3" d="M117.3,443.34a3.63,3.63,0,0,1-3.4-2.5l-3.7-12.1a3.52,3.52,0,0,1,2.3-4.4l167.4-50.6a3.57,3.57,0,0,1,4.4,2.3l3.7,12.1a3.5,3.5,0,0,1-2.3,4.3L118.3,443A1.93,1.93,0,0,1,117.3,443.34ZM118,430l1.6,5.4,160.7-48.6-1.6-5.4Z"/><rect class="cls-5" x="121.33" y="433.95" width="174.91" height="12.7" transform="translate(-118.41 79.19) rotate(-16.81)"/><path class="cls-3" d="M126.9,475a3.63,3.63,0,0,1-3.4-2.5l-3.6-12.1a3.57,3.57,0,0,1,2.3-4.4h0l167.4-50.5a3.24,3.24,0,0,1,2.7.3,3.59,3.59,0,0,1,1.7,2.1l3.7,12.1a3.52,3.52,0,0,1-2.3,4.4l-167.5,50.4A3.55,3.55,0,0,1,126.9,475Zm.7-13.3,1.6,5.4,160.7-48.5-1.6-5.4Z"/><rect class="cls-5" x="131.82" y="471.75" width="132.6" height="12.7" transform="translate(-129.8 77.72) rotate(-16.81)"/><path class="cls-3" d="M136.5,506.74a2.93,2.93,0,0,1-1.6-.4,3.59,3.59,0,0,1-1.7-2.1l-3.7-12.1a3.52,3.52,0,0,1,2.3-4.4l126.9-38.3a3.52,3.52,0,0,1,4.4,2.3l3.7,12.1a3.52,3.52,0,0,1-2.3,4.4l-126.9,38.3A2.34,2.34,0,0,1,136.5,506.74Zm.7-13.3,1.6,5.4L259,462.54l-1.6-5.4Z"/><path class="cls-6" d="M608.3,542.74c15.3-13.1,32.5-28.9,50.1-46.4,54-53.6,92.2-102.8,85.2-109.8s-56.4,30.8-110.5,84.4c-17.6,17.5-33.5,34.5-46.8,49.7Z"/><path class="cls-3" d="M608.3,546.34a3.47,3.47,0,0,1-2.5-1l-21.9-22.2a3.54,3.54,0,0,1-.2-4.8c13.7-15.8,29.9-33,47-49.9,26.2-26,52.2-49.2,73.2-65.2,30.7-23.4,38.5-22.8,42.2-19.1s4.2,11.6-19.5,42c-16.2,20.9-39.6,46.7-65.8,72.7-17,16.9-34.4,33-50.3,46.6A3.69,3.69,0,0,1,608.3,546.34Zm-17.1-25.8L608.5,538c15.1-13,31.4-28.2,47.4-44.1,60.9-60.5,85.3-97.8,85.1-104.7-7-.3-44.5,23.8-105.4,84.3C619.6,489.34,604.3,505.54,591.2,520.54Z"/><path class="cls-8" d="M743.6,386.54c-1.5-1.5-4.8-1-9.5,1.2-8.3,18.2-41.2,57.8-84,100.3-17.6,17.5-34.8,33.3-50.1,46.4l8.3,8.3c15.3-13.1,32.5-28.9,50.1-46.4C712.4,442.74,750.6,393.64,743.6,386.54Z"/><polygon class="cls-4" points="586.4 520.74 608.3 542.74 582.5 560.14 568.8 546.44 586.4 520.74"/><path class="cls-3" d="M582.5,563.64a3.47,3.47,0,0,1-2.5-1l-13.7-13.8a3.62,3.62,0,0,1-.4-4.5l17.6-25.7a3.53,3.53,0,0,1,4.9-.9c.2.1.3.3.5.4l21.9,22.1a3.38,3.38,0,0,1,0,4.9,1.76,1.76,0,0,1-.5.4l-25.9,17.4A2.1,2.1,0,0,1,582.5,563.64ZM573.3,546l9.6,9.7,20-13.4-16-16.1Z"/><rect class="cls-6" x="568.64" y="546.53" width="8.2" height="19.4" transform="translate(-225.6 564.86) rotate(-44.78)"/><path class="cls-3" d="M576.7,569.44a3.47,3.47,0,0,1-2.5-1l-13.7-13.8a3.47,3.47,0,0,1-.1-4.9l.1-.1,5.8-5.8a3.74,3.74,0,0,1,2.5-1h0a4,4,0,0,1,2.5,1l13.7,13.8a3.47,3.47,0,0,1,.1,4.9l-.1.1-5.8,5.8A3.64,3.64,0,0,1,576.7,569.44Zm-8.8-17.2,8.7,8.8.8-.8-8.7-8.8Z"/><path class="cls-7" d="M545.9,581.74a2.93,2.93,0,1,1,5.1-2.9,2.74,2.74,0,0,1-.5,3.5,2.87,2.87,0,0,1-3.5.4l-7.6,7.6c5.5-1,26.4-5.4,32.3-11.2,6.7-6.7,5-13.2,5-13.2l-6.8-6.9-6.8-6.9s-6.5-1.8-13.3,4.9c-5.8,5.8-10.3,26.7-11.4,32.2Z"/><path class="cls-3" d="M539.4,593.84a5.65,5.65,0,0,1-4.5-5.3c1.6-8.1,6-27.7,12.4-34,8.1-8,16.3-5.9,16.7-5.8a3.77,3.77,0,0,1,1.5.9l13.7,13.9a4.62,4.62,0,0,1,.9,1.5c.1.3,2.2,8.6-5.9,16.6-6.3,6.3-25.9,10.6-34.1,12.1A2,2,0,0,1,539.4,593.84Zm9.1-20a6.38,6.38,0,0,1,6.4,6.4,7.75,7.75,0,0,1-.7,3c6.8-2,12.7-4.2,15-6.6,3.9-3.9,4.2-7.5,4.2-9.1l-12-12.1c-1.5-.1-5.2.2-9.1,4.1-2.3,2.3-4.7,8.2-6.7,15a6.53,6.53,0,0,1,2.9-.7Z"/><path class="cls-3" d="M608.3,546.34a3.47,3.47,0,0,1-2.5-1l-21.9-22.2a3.54,3.54,0,0,1-.2-4.8c13.7-15.8,29.9-33,47-49.9,26.2-26,52.2-49.2,73.2-65.2,30.7-23.4,38.5-22.8,42.2-19.1s4.2,11.6-19.5,42c-16.2,20.9-39.6,46.7-65.8,72.7-17,16.9-34.4,33-50.3,46.6A3.69,3.69,0,0,1,608.3,546.34Zm-17.1-25.8L608.5,538c15.1-13,31.4-28.2,47.4-44.1,60.9-60.5,85.3-97.8,85.1-104.7-7-.3-44.5,23.8-105.4,84.3C619.6,489.34,604.3,505.54,591.2,520.54Z"/><path class="cls-3" d="M15.9,201a15.9,15.9,0,1,1,15.9-15.9h0A15.88,15.88,0,0,1,15.9,201Zm0-24.8a8.9,8.9,0,1,0,8.9,8.9h0A8.92,8.92,0,0,0,15.9,176.24Z"/><path class="cls-3" d="M49.2,314.64a2.77,2.77,0,0,1-1.3-.3,3.48,3.48,0,0,1-2.2-3.2v-26.5a3.48,3.48,0,0,1,3.5-3.5,3.41,3.41,0,0,1,2.5,1.1l13.2,13.2a3.47,3.47,0,0,1,.1,4.9l-.1.1-13.2,13.2A3.47,3.47,0,0,1,49.2,314.64Zm3.5-21.5v9.6l4.8-4.8Z"/><polygon class="cls-4" points="75.8 168.74 89.8 166.34 92.2 152.34 94.6 166.34 108.6 168.74 94.6 171.14 92.2 185.14 89.8 171.14 75.8 168.74"/><path class="cls-3" d="M826.3,449.94A15.9,15.9,0,1,1,842.2,434h0A15.88,15.88,0,0,1,826.3,449.94Zm0-24.9a8.9,8.9,0,1,0,8.9,8.9h0A8.79,8.79,0,0,0,826.3,425Z"/><polygon class="cls-4" points="219.5 590.34 233.5 587.94 235.9 573.94 238.3 587.94 252.3 590.34 238.3 592.74 235.9 606.74 233.5 592.74 219.5 590.34"/></g></g></svg>