<svg xmlns="http://www.w3.org/2000/svg" xmlns:xlink="http://www.w3.org/1999/xlink" viewBox="0 0 829.83 639.4"><defs><style>.cls-1{fill:url(#linear-gradient);}.cls-2,.cls-7{fill:#eceaf4;}.cls-2{opacity:0.7;}.cls-2,.cls-8{isolation:isolate;}.cls-3{fill:#fff;}.cls-4{fill:#706cab;}.cls-5{fill:#a0a1e3;}.cls-6{fill:#f7c778;}.cls-11,.cls-8{fill:#231f20;}.cls-10,.cls-8{opacity:0.1;}.cls-9{fill:none;}</style><linearGradient id="linear-gradient" x1="419.68" y1="14.15" x2="419.68" y2="653.56" gradientTransform="matrix(0.94, 0.35, 0.35, -0.94, -90.93, 483.57)" gradientUnits="userSpaceOnUse"><stop offset="0" stop-color="#a0a1e3"/><stop offset="1" stop-color="#eceaf4"/></linearGradient></defs><title>Asset 1</title><g id="Layer_2" data-name="Layer 2"><g id="Layer_1-2" data-name="Layer 1"><rect class="cls-1" x="136" y="36.01" width="567.38" height="567.38" rx="159.24" ry="159.24" transform="translate(-85.94 169.08) rotate(-20.71)"/><path class="cls-2" d="M729,335.79,641,103a158.46,158.46,0,0,0-74.89-84.44,158,158,0,0,1,47,65.81l88,232.83c31,81.93-10.72,174.29-92.65,205.25l-232.83,88a158.92,158.92,0,0,1-130.35-8.21C288,637.69,348.14,650,403.54,629l232.83-88C718.29,510.11,760,417.72,729,335.79Z"/><rect class="cls-3" x="136.22" y="98.84" width="564.35" height="413.09" rx="26.42" ry="26.42"/><path class="cls-4" d="M674.16,515.43H162.65a30,30,0,0,1-29.92-29.92V125.25a30,30,0,0,1,29.92-29.91H674.16a30,30,0,0,1,29.91,29.91V485.51A30,30,0,0,1,674.16,515.43ZM162.65,102.34a22.94,22.94,0,0,0-22.92,22.91V485.51a22.94,22.94,0,0,0,22.92,22.92H674.16a22.94,22.94,0,0,0,22.91-22.92V125.25a23,23,0,0,0-22.91-22.91Z"/><path class="cls-5" d="M675.36,98.84H161.43c-13.87,0-25.21,12.45-25.21,27.68v35H700.57v-35C700.57,111.29,689.23,98.84,675.36,98.84Z"/><path class="cls-4" d="M704.07,165H132.72V126.52c0-17.2,12.88-31.18,28.71-31.18H675.36c15.83,0,28.71,14,28.71,31.18Zm-564.35-7H697.07V126.52c0-13.34-9.74-24.18-21.71-24.18H161.43c-12,0-21.71,10.84-21.71,24.18Z"/><path class="cls-6" d="M137.14,161.5V391.23a50.06,50.06,0,0,0,49.91,49.88h3.25c27.45,0,87.57-91.84,87.57-82.68V350a33.36,33.36,0,0,0,33.28,33.27H312A33.37,33.37,0,0,0,345.29,350V249.46a15.84,15.84,0,0,1,15.79-15.79h0a15.84,15.84,0,0,1,15.8,15.79v53.87a21.84,21.84,0,0,0,43.67.94c0-.31,0-.63,0-.94V161.5Z"/><path class="cls-4" d="M190.3,444.64h-3.25a53.47,53.47,0,0,1-53.4-53.41V161.5a3.49,3.49,0,0,1,3.48-3.5H420.55a3.5,3.5,0,0,1,3.5,3.5V303.33a25.34,25.34,0,0,1-50.67,1c0-.34,0-.67,0-1V249.46a12.3,12.3,0,0,0-24.59,0V350A36.82,36.82,0,0,1,312,386.75h-.87a36.82,36.82,0,0,1-34.45-23.89c-3,3.16-8.3,9.72-13.49,16.13C236.3,412.21,208.51,444.64,190.3,444.64ZM140.65,165V391.23a46.46,46.46,0,0,0,46.41,46.41h3.25c16.39,0,49.62-41,67.47-63.06,9.33-11.51,13.76-16.9,16.6-19.08V350a3.5,3.5,0,0,1,7,0,29.8,29.8,0,0,0,29.78,29.77H312A29.81,29.81,0,0,0,341.8,350V249.46a19.3,19.3,0,0,1,38.59,0v53.87a18.34,18.34,0,1,0,36.67.86c0-.29,0-.57,0-.86V165Z"/><rect class="cls-7" x="542.71" y="245.23" width="132.02" height="25.87" rx="12.93" ry="12.93"/><path class="cls-4" d="M661.79,274.6H555.65a16.44,16.44,0,0,1,0-32.87H661.79a16.44,16.44,0,0,1,0,32.87ZM555.65,248.73a9.44,9.44,0,0,0,0,18.87H661.79a9.44,9.44,0,0,0,0-18.87Z"/><rect class="cls-7" x="542.71" y="295.15" width="132.02" height="25.87" rx="12.93" ry="12.93"/><path class="cls-4" d="M661.79,324.52H555.65a16.44,16.44,0,0,1,0-32.87H661.79a16.44,16.44,0,0,1,0,32.87ZM555.65,298.65a9.44,9.44,0,0,0,0,18.87H661.79a9.44,9.44,0,0,0,0-18.87Z"/><circle class="cls-4" cx="171.4" cy="130.41" r="10.18"/><circle class="cls-4" cx="204.68" cy="130.41" r="10.18"/><circle class="cls-4" cx="237.96" cy="130.41" r="10.18"/><rect class="cls-7" x="443.34" y="195.32" width="231.38" height="25.87" rx="12.93" ry="12.93"/><path class="cls-4" d="M661.79,224.69H456.28a16.44,16.44,0,1,1-.81-32.87H661.79a16.44,16.44,0,0,1,0,32.87ZM456.28,198.82a9.44,9.44,0,0,0-.62,18.87H661.79a9.44,9.44,0,0,0,0-18.87Z"/><path class="cls-7" d="M683.93,161.5V468.87a26.49,26.49,0,0,1-26.41,26.42H146a26,26,0,0,1-8.39-1.4,26.53,26.53,0,0,0,25,18H674.16a26.5,26.5,0,0,0,26.41-26.42v-324Z"/><path class="cls-8" d="M683.93,161.5h16.64V125.25a26.5,26.5,0,0,0-18-25,26,26,0,0,1,1.39,8.38Z"/><rect class="cls-4" x="136.22" y="158" width="564.35" height="7"/><path class="cls-4" d="M674.16,515.43H162.65a30,30,0,0,1-29.92-29.92V125.25a30,30,0,0,1,29.92-29.91H674.16a30,30,0,0,1,29.91,29.91V485.51A30,30,0,0,1,674.16,515.43ZM162.65,102.34a22.94,22.94,0,0,0-22.92,22.91V485.51a22.94,22.94,0,0,0,22.92,22.92H674.16a22.94,22.94,0,0,0,22.91-22.92V125.25a23,23,0,0,0-22.91-22.91Z"/><rect class="cls-7" x="139.28" y="281.05" width="132" height="161.37" transform="translate(-195.66 251.11) rotate(-45)"/><path class="cls-4" d="M215.65,469a3.51,3.51,0,0,1-2.47-1L99.08,353.83a3.56,3.56,0,0,1,0-4.95l93.34-93.34a3.48,3.48,0,0,1,4.93-.06l.07.06,114.11,114.1a3.49,3.49,0,0,1,.06,4.94l-.06.06L218.19,468A3.52,3.52,0,0,1,215.65,469ZM106.5,351.35,215.65,460.51l88.41-88.4L194.9,263Z"/><rect class="cls-6" x="117.47" y="344.76" width="48.19" height="161.37" transform="translate(-259.37 224.71) rotate(-45)"/><path class="cls-4" d="M181.59,503a3.48,3.48,0,0,1-2.48-1L65,387.9A3.51,3.51,0,0,1,65,383l34.08-34.07a3.5,3.5,0,0,1,4.94,0h0L218.14,463a3.49,3.49,0,0,1,.06,4.94l-.06.06-34.08,34A3.46,3.46,0,0,1,181.59,503ZM72.43,385.43,181.59,494.59l29.12-29.13L101.56,356.3Z"/><polygon class="cls-8" points="194.9 258.01 194.9 258.01 290.37 353.49 197.03 446.83 101.56 351.35 101.56 351.35 215.66 465.46 309.01 372.12 194.9 258.01"/><rect class="cls-8" x="165.21" y="460.02" width="48.19" height="26.35" transform="translate(-279.15 272.46) rotate(-45)"/><path class="cls-5" d="M10.71,556.3h0a24.91,24.91,0,0,1,0-35.11l73.58-73.58C94,438,67.48,385.43,67.48,385.43L181.59,499.54s-52.53-26.43-62.19-16.82L45.82,556.3A24.89,24.89,0,0,1,10.71,556.3Z"/><path class="cls-4" d="M28.27,567a28.32,28.32,0,0,1-20-48.32l73.55-73.61c3.79-3.8-2.32-28.06-17.47-58.14a3.5,3.5,0,0,1,5.6-4L184.06,497.11a3.5,3.5,0,0,1-4.05,5.6c-30.07-15.15-54.34-21.26-58.13-17.46L48.3,558.83A28.1,28.1,0,0,1,28.27,567Zm50.5-165.37c1.33,3.15,2.7,6.53,4,10,10.41,27.59,7.26,35.14,4,38.42L13.19,523.67a21.33,21.33,0,0,0,30.16,30.16l73.58-73.58c3.27-3.28,10.82-6.43,38.42,4,3.47,1.3,6.85,2.67,10,4Z"/><line class="cls-9" x1="251.95" y1="315.06" x2="218.08" y2="348.93"/><path class="cls-4" d="M218.08,352.43a3.5,3.5,0,0,1-2.47-6l33.87-33.87a3.5,3.5,0,1,1,5,4.95l-33.87,33.9A3.5,3.5,0,0,1,218.08,352.43Z"/><line class="cls-9" x1="205.77" y1="336.62" x2="239.63" y2="302.75"/><path class="cls-4" d="M205.77,340.11a3.51,3.51,0,0,1-2.48-6l33.87-33.87a3.5,3.5,0,0,1,5,4.95l-33.87,33.92A3.47,3.47,0,0,1,205.77,340.11Z"/><line class="cls-9" x1="276.58" y1="339.7" x2="242.72" y2="373.57"/><path class="cls-4" d="M242.72,377.11a3.51,3.51,0,0,1-2.48-6l33.87-33.87a3.52,3.52,0,0,1,5,4.95l-33.87,33.87A3.46,3.46,0,0,1,242.72,377.11Z"/><line class="cls-9" x1="264.27" y1="327.38" x2="230.4" y2="361.25"/><path class="cls-4" d="M230.4,364.75a3.5,3.5,0,0,1-2.48-6l33.87-33.87a3.5,3.5,0,0,1,4.95,4.95L232.87,363.7A3.44,3.44,0,0,1,230.4,364.75Z"/><line class="cls-9" x1="301.22" y1="364.33" x2="267.35" y2="398.2"/><path class="cls-4" d="M267.35,401.7a3.51,3.51,0,0,1-2.48-6l33.87-33.86a3.54,3.54,0,0,1,5,5L269.87,400.7A3.45,3.45,0,0,1,267.35,401.7Z"/><line class="cls-9" x1="288.9" y1="352.01" x2="255.03" y2="385.88"/><path class="cls-4" d="M255,389.38a3.5,3.5,0,0,1-2.47-6l33.87-33.87a3.54,3.54,0,0,1,5,5l-33.87,33.87A3.53,3.53,0,0,1,255,389.38Z"/><line class="cls-9" x1="227.32" y1="290.43" x2="193.45" y2="324.3"/><path class="cls-4" d="M193.45,327.8a3.5,3.5,0,0,1-2.48-6l33.87-33.87a3.5,3.5,0,1,1,4.95,4.95l-33.87,33.87A3.44,3.44,0,0,1,193.45,327.8Z"/><line class="cls-9" x1="215" y1="278.12" x2="181.13" y2="311.98"/><path class="cls-4" d="M181.13,315.48a3.5,3.5,0,0,1-2.47-6l33.87-33.87a3.52,3.52,0,0,1,4.95,5l-33.83,33.85A3.5,3.5,0,0,1,181.13,315.48Z"/><line class="cls-9" x1="202.68" y1="265.8" x2="168.82" y2="299.67"/><path class="cls-4" d="M168.82,303.17a3.51,3.51,0,0,1-2.48-6l33.87-33.87a3.52,3.52,0,0,1,4.95,5l-33.87,33.81A3.45,3.45,0,0,1,168.82,303.17Z"/><line class="cls-9" x1="138.81" y1="411.61" x2="147.11" y2="419.91"/><path class="cls-4" d="M147.11,423.41a3.48,3.48,0,0,1-2.48-1l-8.29-8.3a3.52,3.52,0,1,1,4.95-5l8.29,8.29a3.49,3.49,0,0,1,0,4.94h0A3.45,3.45,0,0,1,147.11,423.41Z"/><line class="cls-9" x1="90.05" y1="362.85" x2="132.71" y2="405.51"/><path class="cls-4" d="M132.71,409a3.47,3.47,0,0,1-2.47-1L87.58,365.35a3.52,3.52,0,1,1,5-5h0L135.19,403a3.5,3.5,0,0,1-2.48,6Z"/><circle class="cls-6" cx="25.9" cy="541.04" r="7.55"/><path class="cls-4" d="M25.9,552.11a11,11,0,1,1,7.82-3.23A11.05,11.05,0,0,1,25.9,552.11Zm0-15.1a4,4,0,1,0,2.87,1.18A4.06,4.06,0,0,0,25.9,537Z"/><path class="cls-8" d="M67.48,385.43h0L172.27,490.22s-52.53-26.47-62.18-16.81L36.51,547a24.93,24.93,0,0,1-29.82,4,24.88,24.88,0,0,0,4,5.29h0a24.89,24.89,0,0,0,35.11,0l73.58-73.58c9.66-9.65,62.19,16.82,62.19,16.82Z"/><path class="cls-5" d="M10.71,521.19l73.58-73.58"/><rect class="cls-4" x="-4.53" y="480.9" width="104.06" height="7" transform="translate(-328.61 175.46) rotate(-45)"/><path class="cls-4" d="M28.27,567a28.32,28.32,0,0,1-20-48.32l73.55-73.61c3.79-3.8-2.32-28.06-17.47-58.14a3.5,3.5,0,0,1,5.6-4L184.06,497.11a3.5,3.5,0,0,1-4.05,5.6c-30.07-15.15-54.34-21.26-58.13-17.46L48.3,558.83A28.1,28.1,0,0,1,28.27,567Zm50.5-165.37c1.33,3.15,2.7,6.53,4,10,10.41,27.59,7.26,35.14,4,38.42L13.19,523.67a21.33,21.33,0,0,0,30.16,30.16l73.58-73.58c3.27-3.28,10.82-6.43,38.42,4,3.47,1.3,6.85,2.67,10,4Z"/><line class="cls-9" x1="197.03" y1="446.83" x2="101.56" y2="351.35"/><path class="cls-4" d="M215.65,469a3.51,3.51,0,0,1-2.47-1L99.08,353.83a3.56,3.56,0,0,1,0-4.95l93.34-93.34a3.48,3.48,0,0,1,4.93-.06l.07.06,114.11,114.1a3.49,3.49,0,0,1,.06,4.94l-.06.06L218.19,468A3.52,3.52,0,0,1,215.65,469ZM106.5,351.35,215.65,460.51l88.41-88.4L194.9,263Z"/><g class="cls-10"><path class="cls-11" d="M788.36,258h0a15.49,15.49,0,0,0-5.06-3.36c1.91,7.84-.89,17.44-6.61,23.16l-8.59,8.59c3.58,8.24.84,19.66-5.62,26.12L786,289C793.88,281.11,796.23,265.88,788.36,258Z"/></g><path class="cls-7" d="M652.3,422.7s8.46-16.29-1.94-26.69-26.71-1.9-26.71-1.9l-12.5,41.11Z"/><path class="cls-4" d="M611.15,438.72a3.5,3.5,0,0,1-3.5-3.5,3.55,3.55,0,0,1,.15-1l12.52-41.15a3.49,3.49,0,0,1,1.73-2.09,37.11,37.11,0,0,1,10.54-3.28c8.17-1.24,15.17.78,20.24,5.86s7.1,12.07,5.86,20.24a37.37,37.37,0,0,1-3.28,10.53,3.54,3.54,0,0,1-2.09,1.74l-41.15,12.52A3.55,3.55,0,0,1,611.15,438.72Zm15.4-42.12L616.41,430l33.35-10.15c1.52-3.67,5.06-14.39-1.88-21.32S630.22,395.11,626.55,396.6Z"/><path class="cls-3" d="M651.1,395.27C661.5,405.67,653,422,653,422L763,312c7.87-7.87,10.22-23.11,2.35-31h0c-7.87-7.88-23.11-5.53-31,2.35l-109.91,110S640.65,384.87,651.1,395.27Z"/><path class="cls-4" d="M653,425.46a3.43,3.43,0,0,1-2.07-.68,3.5,3.5,0,0,1-1-4.43c.07-.14,7.13-14.17-1.31-22.6s-22.47-1.39-22.61-1.31a3.5,3.5,0,0,1-4.08-5.59L731.86,280.92c8.85-8.85,26.48-11.81,35.94-2.35s6.5,27.08-2.36,35.94L655.52,424.43A3.5,3.5,0,0,1,653,425.46Zm-15.17-38.88a21.52,21.52,0,0,1,15.7,6.22c4.5,4.5,6.6,10.52,6.15,17.53L760.49,309.56c7.87-7.87,7.72-20.68,2.36-26s-18.18-5.51-26,2.35L636,386.64q.93-.06,1.83-.06Z"/><path class="cls-3" d="M651.1,395.27C661.5,405.67,653,422,653,422L763,312c7.87-7.87,10.22-23.11,2.35-31h0c-7.87-7.88-23.11-5.53-31,2.35l-109.91,110S640.65,384.87,651.1,395.27Z"/><path class="cls-4" d="M653,425.46a3.43,3.43,0,0,1-2.07-.68,3.5,3.5,0,0,1-1-4.43c.07-.14,7.13-14.17-1.31-22.6s-22.47-1.39-22.61-1.31a3.5,3.5,0,0,1-4.08-5.59L731.86,280.92c8.85-8.85,26.48-11.81,35.94-2.35s6.5,27.08-2.36,35.94L655.52,424.43A3.5,3.5,0,0,1,653,425.46Zm-15.17-38.88a21.52,21.52,0,0,1,15.7,6.22c4.5,4.5,6.6,10.52,6.15,17.53L760.49,309.56c7.87-7.87,7.72-20.68,2.36-26s-18.18-5.51-26,2.35L636,386.64q.93-.06,1.83-.06Z"/><path class="cls-6" d="M650.44,395.93a17.3,17.3,0,0,1,4.71,8.68L769.81,290a16.66,16.66,0,0,0-4.49-8.9h0a16.73,16.73,0,0,0-8.9-4.49L641.76,391.22A17.26,17.26,0,0,1,650.44,395.93Z"/><path class="cls-4" d="M655.15,408.11a3.37,3.37,0,0,1-1-.15,3.48,3.48,0,0,1-2.43-2.61A13.92,13.92,0,0,0,641,394.64a3.52,3.52,0,0,1-2.68-4.18,3.56,3.56,0,0,1,.94-1.72L753.94,274.11a3.52,3.52,0,0,1,3.11-1,19.38,19.38,0,0,1,16.2,16.19,3.48,3.48,0,0,1-1,3.11l-114.6,114.7A3.46,3.46,0,0,1,655.15,408.11Zm-7.07-18.27a21.12,21.12,0,0,1,4.83,3.62h0a20.74,20.74,0,0,1,3.61,4.82L766,288.86a12.69,12.69,0,0,0-3.1-5.34,12.52,12.52,0,0,0-5.34-3.1Z"/><path class="cls-4" d="M622,431.9s3.71-3.7-.08-7.49-7.5-.09-7.5-.09l-3.31,10.9Z"/><path class="cls-4" d="M611.15,438.72a3.5,3.5,0,0,1-3.5-3.5,3.55,3.55,0,0,1,.15-1l3.31-10.89a3.54,3.54,0,0,1,.88-1.46,8.86,8.86,0,0,1,12.53,12.53,3.42,3.42,0,0,1-1.46.87l-10.89,3.32A3.5,3.5,0,0,1,611.15,438.72Zm6.35-12.35L616.41,430l3.55-1.08a1.53,1.53,0,0,0-.48-2A1.64,1.64,0,0,0,617.5,426.37Z"/><path class="cls-7" d="M755.51,262.22,732,285.75"/><rect class="cls-4" x="727.14" y="270.55" width="33.28" height="7" transform="translate(24 606.07) rotate(-44.99)"/><path class="cls-4" d="M764.34,314.16a3.5,3.5,0,0,1-2.47-6c7.86-7.86,7.71-20.67,2.35-26s-18.17-5.51-26,2.35a3.5,3.5,0,0,1-5-4.95L756.8,256c8.86-8.85,26.48-11.81,35.94-2.35s6.5,27.08-2.35,35.93l-23.57,23.5A3.47,3.47,0,0,1,764.34,314.16Zm-10.53-42.79c5.73,0,11.3,1.77,15.36,5.83,4.68,4.67,6.32,11.35,5.71,18l10.52-10.52c7.86-7.86,7.71-20.67,2.35-26s-18.17-5.51-26,2.35l-10.51,10.52a18.29,18.29,0,0,1,2.57-.18Z"/><rect class="cls-3" x="428.87" y="399.02" width="142.78" height="142.78"/><path class="cls-4" d="M571.65,545.3H428.87a3.5,3.5,0,0,1-3.5-3.5V399a3.5,3.5,0,0,1,3.5-3.5H571.65a3.5,3.5,0,0,1,3.5,3.5V541.8A3.5,3.5,0,0,1,571.65,545.3Zm-139.28-7H568.15V402.52H432.37Z"/><polygon class="cls-8" points="562.33 399.01 562.33 532.48 428.87 532.48 428.87 541.79 571.65 541.79 571.65 399.01 562.33 399.01"/><rect class="cls-7" x="415.28" y="385.43" width="27.17" height="27.17"/><path class="cls-4" d="M442.45,416.11H415.28a3.5,3.5,0,0,1-3.5-3.5V385.43a3.5,3.5,0,0,1,3.5-3.5h27.17a3.5,3.5,0,0,1,3.5,3.5V412.6a3.49,3.49,0,0,1-3.49,3.51Zm-23.67-7H439V388.93H418.78Z"/><rect class="cls-7" x="415.28" y="528.21" width="27.17" height="27.17"/><path class="cls-4" d="M442.45,558.88H415.28a3.5,3.5,0,0,1-3.5-3.5V528.21a3.5,3.5,0,0,1,3.5-3.5h27.17a3.5,3.5,0,0,1,3.5,3.5v27.17a3.5,3.5,0,0,1-3.5,3.5Zm-23.67-7H439V531.71H418.78Z"/><rect class="cls-7" x="560.95" y="528.21" width="27.17" height="27.17"/><path class="cls-4" d="M588.12,558.88H561a3.5,3.5,0,0,1-3.5-3.5V528.21a3.5,3.5,0,0,1,3.5-3.5h27.17a3.5,3.5,0,0,1,3.5,3.5v27.17a3.5,3.5,0,0,1-3.5,3.5Zm-23.67-7h20.2V531.71h-20.2Z"/><rect class="cls-7" x="558.06" y="385.43" width="27.17" height="27.17"/><path class="cls-4" d="M585.23,416.11H558.06a3.5,3.5,0,0,1-3.5-3.5V385.43a3.5,3.5,0,0,1,3.5-3.5h27.17a3.5,3.5,0,0,1,3.5,3.5V412.6a3.49,3.49,0,0,1-3.49,3.51Zm-23.67-7h20.17V388.93H561.56Z"/><path class="cls-4" d="M72.42,330.36a16,16,0,1,1,16-16A16,16,0,0,1,72.42,330.36Zm0-24.95a9,9,0,1,0,9,9A9,9,0,0,0,72.42,305.41Z"/><path class="cls-4" d="M749.19,224.23a16,16,0,1,1,16-16A16,16,0,0,1,749.19,224.23Zm0-25a9,9,0,1,0,9,9h0a9,9,0,0,0-9-9Z"/><path class="cls-4" d="M19.24,275a3.36,3.36,0,0,1-1.33-.27,3.49,3.49,0,0,1-2.16-3.23V244.86a3.5,3.5,0,0,1,6-2.48l13.31,13.31a3.49,3.49,0,0,1,1,2.48,3.44,3.44,0,0,1-1,2.47L21.75,274A3.47,3.47,0,0,1,19.24,275Zm3.51-21.67V263l4.86-4.86Z"/><path class="cls-4" d="M770.18,379.66a3.48,3.48,0,0,1-3.5-3.46V349.54a3.5,3.5,0,0,1,3.48-3.52,3.54,3.54,0,0,1,2.52,1.05L786,360.38a3.49,3.49,0,0,1,.06,4.94l-.06.06-13.34,13.26A3.47,3.47,0,0,1,770.18,379.66Zm3.5-21.67v9.72l4.86-4.86Z"/><path class="cls-4" d="M107.77,236.61H97.43a3.5,3.5,0,0,1-3-1.75l-5.17-9a3.53,3.53,0,0,1,0-3.5l5.17-9a3.53,3.53,0,0,1,3-1.75h10.34a3.53,3.53,0,0,1,3,1.75l5.17,9a3.53,3.53,0,0,1,0,3.5l-5.17,9A3.5,3.5,0,0,1,107.77,236.61Zm-8.32-7h6.3l3.15-5.46-3.15-5.45h-6.3l-3.15,5.41Z"/><polygon class="cls-6" points="796.88 233.11 810.97 230.72 813.36 216.63 815.75 230.72 829.83 233.11 815.75 235.5 813.36 249.58 810.97 235.5 796.88 233.11"/><polygon class="cls-6" points="16.08 376.16 30.17 373.77 32.56 359.69 34.95 373.77 49.03 376.16 34.95 378.55 32.56 392.64 30.17 378.55 16.08 376.16"/><polygon class="cls-6" points="571.65 606.85 585.73 604.46 588.12 590.38 590.51 604.46 604.59 606.85 590.51 609.24 588.12 623.32 585.73 609.24 571.65 606.85"/><polygon class="cls-6" points="639.07 51.51 653.15 49.12 655.54 35.04 657.93 49.12 672.02 51.51 657.93 53.9 655.54 67.98 653.15 53.9 639.07 51.51"/><path class="cls-5" d="M661.79,195.32H643.16a12.42,12.42,0,0,1,12.38,12.39v1.09a12.42,12.42,0,0,1-12.38,12.39h18.63a13,13,0,0,0,12.93-12.94h0A13,13,0,0,0,661.79,195.32Z"/><path class="cls-5" d="M661.79,245.23H643.16a12.42,12.42,0,0,1,12.38,12.39v1.09a12.41,12.41,0,0,1-12.38,12.4h18.63a13,13,0,0,0,12.93-12.93h0A13,13,0,0,0,661.79,245.23Z"/><path class="cls-5" d="M661.79,295.11H643.16a12.42,12.42,0,0,1,12.38,12.38v1.1A12.42,12.42,0,0,1,643.16,321h18.63a13,13,0,0,0,12.93-12.87h0A13,13,0,0,0,661.79,295.11Z"/><path class="cls-4" d="M661.79,274.6H555.65a16.44,16.44,0,0,1,0-32.87H661.79a16.44,16.44,0,0,1,0,32.87ZM555.65,248.73a9.44,9.44,0,0,0,0,18.87H661.79a9.44,9.44,0,0,0,0-18.87Z"/><path class="cls-4" d="M661.79,324.52H555.65a16.44,16.44,0,0,1,0-32.87H661.79a16.44,16.44,0,0,1,0,32.87ZM555.65,298.65a9.44,9.44,0,0,0,0,18.87H661.79a9.44,9.44,0,0,0,0-18.87Z"/><path class="cls-4" d="M661.79,224.69H456.28a16.44,16.44,0,1,1-.81-32.87H661.79a16.44,16.44,0,0,1,0,32.87ZM456.28,198.82a9.44,9.44,0,0,0-.62,18.87H661.79a9.44,9.44,0,0,0,0-18.87Z"/><path class="cls-4" d="M370.7,448.11A75.61,75.61,0,0,1,498,366.42l.34.54-5.9,3.76a68.61,68.61,0,0,0-115.75,73.63Z"/><rect class="cls-7" x="362.39" y="427.56" width="27.17" height="27.17"/><path class="cls-4" d="M389.56,458.23H362.39a3.5,3.5,0,0,1-3.5-3.5V427.56a3.49,3.49,0,0,1,3.48-3.5h27.19a3.5,3.5,0,0,1,3.5,3.5v27.17A3.5,3.5,0,0,1,389.56,458.23Zm-23.67-7h20.17V431.11H365.89Z"/><rect class="cls-7" x="481.76" y="355.36" width="27.17" height="27.17"/><path class="cls-4" d="M508.94,386H481.76a3.5,3.5,0,0,1-3.5-3.5V355.36a3.5,3.5,0,0,1,3.5-3.5h27.18a3.5,3.5,0,0,1,3.5,3.5v27.17A3.5,3.5,0,0,1,508.94,386Zm-23.68-7h20.18V358.86H485.26Z"/></g></g></svg>