<svg xmlns="http://www.w3.org/2000/svg" xmlns:xlink="http://www.w3.org/1999/xlink" viewBox="0 0 861.15 618.93"><defs><style>.cls-1{fill:url(#linear-gradient);}.cls-2,.cls-6{fill:#eceaf4;}.cls-2{opacity:0.7;}.cls-2,.cls-7{isolation:isolate;}.cls-3{fill:#fff;}.cls-4{fill:#706cab;}.cls-5{fill:#a0a1e3;}.cls-10,.cls-7{fill:#231f20;}.cls-7{opacity:0.1;}.cls-8{fill:#78c8f4;}.cls-9{opacity:0.05;}.cls-11{fill:#e2e0f0;}</style><linearGradient id="linear-gradient" x1="1020.35" y1="2281.36" x2="1020.35" y2="1643.86" gradientTransform="matrix(0.62, -0.64, -0.72, -0.7, 1200.72, 2360.79)" gradientUnits="userSpaceOnUse"><stop offset="0" stop-color="#a0a1e3"/><stop offset="1" stop-color="#eceaf4"/></linearGradient></defs><title>Asset 2</title><g id="Layer_2" data-name="Layer 2"><g id="Layer_1-2" data-name="Layer 1"><path class="cls-1" d="M132,589.54c170,116.2,210.6-148.6,350.2-163.2S843.8,469,860.4,315,613.5-17.86,389,1.44-38,473.34,132,589.54Z"/><path class="cls-2" d="M482.2,385.74C342.5,400.24,301.9,665,132,548.94c-39.4-27-58.8-72-62.5-125.6-4.6,71.1,13.5,132.6,62.5,166.1,170,116.2,210.6-148.6,350.2-163.2S843.8,469,860.4,315a137.36,137.36,0,0,0-.8-34.5C837.8,426.94,620,371.44,482.2,385.74Z"/><path class="cls-3" d="M165.5,88.54H682.6a26.76,26.76,0,0,1,26.7,26.7v364.2a26.76,26.76,0,0,1-26.7,26.7H165.5a26.76,26.76,0,0,1-26.7-26.7V115.24A26.69,26.69,0,0,1,165.5,88.54Z"/><path class="cls-4" d="M682.6,509.14H165.5a29.87,29.87,0,0,1-29.8-29.8V115.24a29.87,29.87,0,0,1,29.8-29.8H682.6a29.81,29.81,0,0,1,29.8,29.8v364.2A29.73,29.73,0,0,1,682.6,509.14ZM165.5,91.54a23.64,23.64,0,0,0-23.6,23.6v364.2a23.64,23.64,0,0,0,23.6,23.6H682.6a23.64,23.64,0,0,0,23.6-23.6V115.24a23.64,23.64,0,0,0-23.6-23.6H165.5Z"/><path class="cls-5" d="M683.8,88.54H164.3c-14,0-25.5,12.6-25.5,28v35.4H709.3v-35.4C709.3,101.14,697.9,88.54,683.8,88.54Z"/><path class="cls-4" d="M710.2,152.74H138v-36.2c0-15.9,11.8-28.8,26.3-28.8H683.8c14.5,0,26.3,12.9,26.3,28.8v36.2ZM139.7,151H708.5v-34.5c0-15-11.1-27.1-24.7-27.1H164.3c-13.6,0-24.6,12.2-24.6,27.1V151Z"/><circle class="cls-4" cx="174.4" cy="120.44" r="10.3"/><circle class="cls-4" cx="208" cy="120.44" r="10.3"/><circle class="cls-4" cx="241.7" cy="120.44" r="10.3"/><path class="cls-6" d="M692.5,151.84v310.7a26.76,26.76,0,0,1-26.7,26.7H148.7a27,27,0,0,1-8.5-1.4A26.67,26.67,0,0,0,165.5,506H682.6a26.76,26.76,0,0,0,26.7-26.7V151.84Z"/><path class="cls-7" d="M692.5,151.84h16.8v-36.6a26.8,26.8,0,0,0-18.2-25.3,27,27,0,0,1,1.4,8.5Z"/><rect class="cls-4" x="138.8" y="148.84" width="570.5" height="6.1"/><path class="cls-4" d="M682.6,509.14H165.5a29.87,29.87,0,0,1-29.8-29.8V115.24a29.87,29.87,0,0,1,29.8-29.8H682.6a29.81,29.81,0,0,1,29.8,29.8v364.2A29.73,29.73,0,0,1,682.6,509.14ZM165.5,91.54a23.64,23.64,0,0,0-23.6,23.6v364.2a23.64,23.64,0,0,0,23.6,23.6H682.6a23.64,23.64,0,0,0,23.6-23.6V115.24a23.64,23.64,0,0,0-23.6-23.6H165.5Z"/><path class="cls-8" d="M363.8,264.94a10.12,10.12,0,0,1,6,5.1,9.89,9.89,0,0,1,.6,7.9,9.72,9.72,0,0,1-5.1,6.1l-68.9,35.5L365.3,355a10.42,10.42,0,0,1,4.5,14,10.12,10.12,0,0,1-6,5.1,9.78,9.78,0,0,1-8-.7l-86.6-44.7a10.27,10.27,0,0,1-5.2-12.4,10.12,10.12,0,0,1,5.1-6l86.7-44.8A10.16,10.16,0,0,1,363.8,264.94Z"/><path class="cls-4" d="M360.5,377.34a12,12,0,0,1-5.9-1.5L268,331.14a12.87,12.87,0,0,1-6.5-15.6,12.55,12.55,0,0,1,6.4-7.5l86.7-44.8a12.9,12.9,0,0,1,10-.8h0a13.12,13.12,0,0,1,8.5,16.3,13.39,13.39,0,0,1-6.5,7.7l-64.3,33.1,64.3,33.2a13.06,13.06,0,0,1,5.8,17.5,12.76,12.76,0,0,1-7.7,6.5A15.23,15.23,0,0,1,360.5,377.34Zm0-110.3a7.3,7.3,0,0,0-3.5.9l-86.7,44.8a7.41,7.41,0,0,0-3.8,4.5,7.62,7.62,0,0,0,3.9,9.2l86.7,44.7a7.59,7.59,0,0,0,5.9.5,7.84,7.84,0,0,0,4.9-9.8,7.51,7.51,0,0,0-3.8-4.4l-68.9-35.5a2.78,2.78,0,0,1-1.2-3.6,3.45,3.45,0,0,1,1.2-1.2l68.9-35.5a7.67,7.67,0,0,0-1.1-14.1,5.34,5.34,0,0,0-2.5-.5Z"/><path class="cls-8" d="M450.8,231.74a9.7,9.7,0,0,1,8,.1,10.44,10.44,0,0,1,5.5,5.8,9.48,9.48,0,0,1-.1,7.9l-59.6,134.8a10.21,10.21,0,0,1-13.4,5.4c-.1,0-.1-.1-.2-.1a10.77,10.77,0,0,1-5.6-5.7,10.11,10.11,0,0,1,.2-8l59.6-134.8A9.92,9.92,0,0,1,450.8,231.74Z"/><path class="cls-4" d="M395,389.24a13.57,13.57,0,0,1-12.2-8.2,13.11,13.11,0,0,1,.2-10.1l59.6-134.8a12.66,12.66,0,0,1,7.1-6.9,12.43,12.43,0,0,1,10,.1,12.71,12.71,0,0,1,6.9,7.3,11.81,11.81,0,0,1-.2,9.9l-59.6,134.8A12.73,12.73,0,0,1,395,389.24Zm59.6-155.6a7.17,7.17,0,0,0-2.9.6h0a7.19,7.19,0,0,0-4.2,4L388,373a7.56,7.56,0,0,0-.2,5.9,8,8,0,0,0,4.1,4.2,7.58,7.58,0,0,0,10-3.8c0-.1,0-.1.1-.2l59.6-134.7a6.69,6.69,0,0,0,.1-5.7,7.71,7.71,0,0,0-4.1-4.4,7.35,7.35,0,0,0-3-.7Z"/><path class="cls-8" d="M493.7,265.54l86.7,44.8a10.31,10.31,0,0,1,4.5,13.9v.1a10.3,10.3,0,0,1-4.5,4.5l-86.7,44.7a10.31,10.31,0,0,1-14-4.4,10.42,10.42,0,0,1,4.5-14l69-35.5-69-35.5a9.72,9.72,0,0,1-5.1-6.1,9.94,9.94,0,0,1,.7-7.9,9.8,9.8,0,0,1,6-5.1A9.48,9.48,0,0,1,493.7,265.54Z"/><path class="cls-4" d="M489,377.34a11.41,11.41,0,0,1-4.1-.7,13.08,13.08,0,0,1-8.4-16.5,12.89,12.89,0,0,1,6.4-7.5l64.4-33.1-64.4-33.1a13,13,0,0,1,11.9-23.1h0l86.7,44.8a13,13,0,0,1,5.6,17.5h0a12.64,12.64,0,0,1-5.6,5.6l-86.8,44.7A11.73,11.73,0,0,1,489,377.34ZM489,267a7.27,7.27,0,0,0-2.5.4,7.51,7.51,0,0,0-4.4,3.8,7.35,7.35,0,0,0-.5,5.8,7.11,7.11,0,0,0,3.8,4.5l69,35.5a2.78,2.78,0,0,1,1.2,3.6,3.45,3.45,0,0,1-1.2,1.2l-69,35.5a7.67,7.67,0,0,0,1.1,14.1,7.15,7.15,0,0,0,5.9-.5l86.7-44.7a7.61,7.61,0,0,0,0-13.6l-86.7-44.8a7.73,7.73,0,0,0-3.4-.8Z"/><path class="cls-8" d="M835.4,272.14v-31.4H810.5a69.41,69.41,0,0,0-7.6-18.5l17.6-17.6-22.2-22.2L780.7,200a64.47,64.47,0,0,0-18.4-7.6v-24.9H730.9v24.9a68.09,68.09,0,0,0-18.5,7.6l-17.6-17.6-22.2,22.2,17.6,17.6a63.9,63.9,0,0,0-7.6,18.5H657.7v31.4h24.9a67.46,67.46,0,0,0,7.6,18.4l-17.6,17.6,22.2,22.2,17.6-17.6a63.9,63.9,0,0,0,18.5,7.6v24.9h31.3v-24.9a67.46,67.46,0,0,0,18.4-7.6l17.6,17.6,22.2-22.2-17.6-17.6a64.47,64.47,0,0,0,7.6-18.4Zm-88.8,18.5a34.1,34.1,0,1,1,34.1-34.1h0a34.14,34.14,0,0,1-34.1,34.1Z"/><path class="cls-4" d="M762.2,348.44H730.8a3.1,3.1,0,0,1-3.1-3h0v-22.6a71.79,71.79,0,0,1-14.9-6.1l-16,16a3.1,3.1,0,0,1-2.2.9h0a3.1,3.1,0,0,1-2.2-.9l-22.2-22.2a3,3,0,0,1,0-4.3l15.9-16a72.11,72.11,0,0,1-6.2-14.9H657.4a3.12,3.12,0,0,1-3.1-3.1v-31.3a3.12,3.12,0,0,1,3.1-3.1H680a71.79,71.79,0,0,1,6.1-14.9l-15.9-16a3,3,0,0,1,0-4.3h0l22.2-22.2a3,3,0,0,1,4.3,0l16,16a72.11,72.11,0,0,1,14.9-6.2v-22.6a3.12,3.12,0,0,1,3.1-3.1H762a3.12,3.12,0,0,1,3.1,3.1v22.6a67,67,0,0,1,14.9,6.2l16-16a3,3,0,0,1,4.3,0l22.2,22.2a3,3,0,0,1,0,4.3h0l-15.9,16a72.11,72.11,0,0,1,6.2,14.9h22.6a3.12,3.12,0,0,1,3.1,3.1h0v31.4a3.12,3.12,0,0,1-3.1,3.1H812.8a67,67,0,0,1-6.2,14.9l15.9,15.9a3,3,0,0,1,0,4.3l-22.2,22.2a3,3,0,0,1-4.3,0l-16-16a66.71,66.71,0,0,1-14.9,6.1v22.6A2.86,2.86,0,0,1,762.2,348.44Zm-28.2-6.2h25.2v-21.9a3.12,3.12,0,0,1,2.3-3,63,63,0,0,0,17.6-7.3,3,3,0,0,1,3.8.5l15.4,15.4,17.8-17.8-15.5-15.5a3.18,3.18,0,0,1-.5-3.8,63,63,0,0,0,7.3-17.6,2.91,2.91,0,0,1,3-2.3h22v-25.2H810.5a3,3,0,0,1-3-2.3,63,63,0,0,0-7.3-17.6,3,3,0,0,1,.5-3.8l15.5-15.4-17.8-17.8-15.5,15.5a3.18,3.18,0,0,1-3.8.5,63,63,0,0,0-17.6-7.3,3,3,0,0,1-2.3-3v-21.8H734v21.9a3.12,3.12,0,0,1-2.3,3,63,63,0,0,0-17.6,7.3,3.18,3.18,0,0,1-3.8-.5l-15.5-15.5L677,204.74l15.4,15.4a3.18,3.18,0,0,1,.5,3.8,63,63,0,0,0-7.3,17.6,3,3,0,0,1-3,2.3H660.8V269h21.8a3.12,3.12,0,0,1,3,2.3,63,63,0,0,0,7.3,17.6,3.18,3.18,0,0,1-.5,3.8L677,308.14l17.8,17.8,15.5-15.5a3.18,3.18,0,0,1,3.8-.5,63,63,0,0,0,17.6,7.3,2.91,2.91,0,0,1,2.3,3v22Zm12.6-48.6a37.2,37.2,0,1,1,37.2-37.2,37.26,37.26,0,0,1-37.2,37.2Zm0-68.2a31.05,31.05,0,1,0,31.1,31h0a31.18,31.18,0,0,0-31.1-31Z"/><g class="cls-9"><path class="cls-10" d="M752.1,187.54a60,60,0,0,1,10.1,3.4v-23.2H752.1Z"/><path class="cls-10" d="M702.4,195.14c1.1-.6,2.2-1.2,3.2-1.8l-10.8-10.8-2.5,2.5Z"/><path class="cls-10" d="M810.4,199.74l-17.6,17.6a64.47,64.47,0,0,1,7.6,18.4H809a60.37,60.37,0,0,0-6.2-13.4l17.6-17.6-22.2-22.2-2.5,2.5Z"/><path class="cls-10" d="M726.6,284.14a34.06,34.06,0,0,1,29.9-60.2,34.08,34.08,0,0,0-40,55.2A32.9,32.9,0,0,0,726.6,284.14Z"/><path class="cls-10" d="M672.6,267.14H657.8v5h16.3A41.27,41.27,0,0,1,672.6,267.14Z"/><path class="cls-10" d="M835.4,272.14v-31.4H825.3V267H800.4a67.46,67.46,0,0,1-7.6,18.4L810.4,303l-19.7,19.6,7.6,7.6L820.5,308l-17.6-17.6a64.47,64.47,0,0,0,7.6-18.4Z"/><path class="cls-10" d="M770.6,307.74a63.9,63.9,0,0,1-18.5,7.6v24.9H730.9v5h31.3v-24.9a68.14,68.14,0,0,0,15.2-5.8Z"/><path class="cls-10" d="M720.8,315.34a67.46,67.46,0,0,1-18.4-7.6l-15.1,15.1,7.6,7.6,17.5-17.6a93.3,93.3,0,0,0,8.3,4.3Z"/></g><path class="cls-5" d="M679.1,451.24l20-11.1-8.8-15.9a45.71,45.71,0,0,0,9.1-11.4l17.5,5,6.3-22-17.5-5a50.45,50.45,0,0,0-1.6-14.5l15.9-8.8-11.1-20-15.9,8.8a45.71,45.71,0,0,0-11.4-9.1l5-17.5-22-6.3-5,17.5a50.45,50.45,0,0,0-14.5,1.6l-8.8-16-20,11.1,8.8,15.9a47.58,47.58,0,0,0-9.1,11.4l-17.5-5-6.3,22,17.5,5a46.6,46.6,0,0,0,1.7,14.4l-16,8.8,11.1,20,15.9-8.8a45.71,45.71,0,0,0,11.4,9.1l-5,17.5,22,6.3,5-17.5a50.45,50.45,0,0,0,14.5-1.6Zm-43.2-50.3a24.88,24.88,0,1,1,33.8,9.8,24.86,24.86,0,0,1-33.8-9.8Z"/><path class="cls-4" d="M650.7,457.44a2,2,0,0,1-.8-.1l-22-6.3a3.1,3.1,0,0,1-2.1-3.8h0l4.4-15.2a53.7,53.7,0,0,1-8.4-6.7L607.9,433a3.12,3.12,0,0,1-2.3.3,2.69,2.69,0,0,1-1.8-1.5l-11.1-20a3.12,3.12,0,0,1,1.2-4.2l13.9-7.7a47.87,47.87,0,0,1-1.2-10.6l-15.2-4.5a2.49,2.49,0,0,1-1.8-1.5,3.12,3.12,0,0,1-.3-2.3l6.3-22a3,3,0,0,1,3.8-2l15.2,4.4a53.7,53.7,0,0,1,6.7-8.4l-7.7-13.9a3.12,3.12,0,0,1,1.2-4.2h0l20-11.1A3.12,3.12,0,0,1,639,325l7.7,13.9a47.87,47.87,0,0,1,10.6-1.2l4.4-15.2a3.1,3.1,0,0,1,3.8-2.1l22,6.4a3.05,3.05,0,0,1,2.1,3.8h0l-4.4,15.2a53.7,53.7,0,0,1,8.4,6.7l13.9-7.7a3.12,3.12,0,0,1,4.2,1.2l11.1,20a3.12,3.12,0,0,1-1.2,4.2l-13.9,7.7a47.87,47.87,0,0,1,1.2,10.6l15.2,4.4a3.1,3.1,0,0,1,2.1,3.8h0l-6.3,22a3.1,3.1,0,0,1-3.8,2.1l-15.2-4.4a53.7,53.7,0,0,1-6.7,8.4l7.7,13.9a3.12,3.12,0,0,1,.3,2.3,3,3,0,0,1-1.5,1.8l-20,11.1a3.12,3.12,0,0,1-4.2-1.2h0l-7.7-13.9a47.87,47.87,0,0,1-10.6,1.2l-4.4,15.2a3,3,0,0,1-1.5,1.8A2.93,2.93,0,0,1,650.7,457.44Zm-18.1-11.5,16.1,4.6,4.2-14.6a3,3,0,0,1,3.1-2.2,43.77,43.77,0,0,0,13.5-1.5,3,3,0,0,1,3.5,1.5l7.3,13.3,14.7-8.1-7.3-13.2a3,3,0,0,1,.6-3.7,44.07,44.07,0,0,0,8.5-10.7,3.09,3.09,0,0,1,3.5-1.4l14.5,4.2,4.6-16-14.5-4.2a3,3,0,0,1-2.2-3.1,43.77,43.77,0,0,0-1.5-13.5,3,3,0,0,1,1.5-3.5l13.2-7.3-8.1-14.7-13.2,7.3a3,3,0,0,1-3.7-.6,44.07,44.07,0,0,0-10.7-8.5,3.09,3.09,0,0,1-1.4-3.5L683,332l-16.1-4.6-4.2,14.5a3,3,0,0,1-3.1,2.2,43.77,43.77,0,0,0-13.5,1.5,3,3,0,0,1-3.5-1.5l-7.3-13.2L620.6,339l7.3,13.2a3,3,0,0,1-.6,3.7,44.07,44.07,0,0,0-8.5,10.7,3.09,3.09,0,0,1-3.5,1.4l-14.5-4.2-4.6,16.1,14.5,4.2a3,3,0,0,1,2.2,3.1,43.77,43.77,0,0,0,1.5,13.5,3,3,0,0,1-1.5,3.5l-13.2,7.3,8.1,14.7,13.2-7.3a2.91,2.91,0,0,1,3.7.6,44.07,44.07,0,0,0,10.7,8.5,3.09,3.09,0,0,1,1.4,3.5Zm25.2-29a29.38,29.38,0,0,1-7.8-1.1,27.77,27.77,0,1,1,7.8,1.1Zm-.1-49.9a21.64,21.64,0,1,0,6.1.8A25.54,25.54,0,0,0,657.7,367Z"/><g class="cls-9"><path class="cls-10" d="M601.3,378.54l-7.5-2.2-1.6,5.5,9.2,2.7A59,59,0,0,1,601.3,378.54Z"/><path class="cls-10" d="M711.6,359.14l-15.9,8.8a47.17,47.17,0,0,1,1.6,14.5l8.2,2.4a38.9,38.9,0,0,0-1.5-8.4l15.9-8.8-11.1-20-2.9,1.6Z"/><path class="cls-10" d="M673.2,338.84a47.74,47.74,0,0,1,8.9,6.6l4.5-15.7-10-2.9Z"/><path class="cls-10" d="M635.9,400.94a24.84,24.84,0,0,1,34.6-33.3,24.9,24.9,0,1,0-34.1,34.3A3.13,3.13,0,0,0,635.9,400.94Z"/><path class="cls-10" d="M713.2,393l-4.8,16.4-17.5-5a47.58,47.58,0,0,1-9.1,11.4l8.8,15.9-17.1,9.5,5.5,10,20-11.1-8.8-15.9a50.6,50.6,0,0,0,9.2-11.4l17.5,5,6.3-22Z"/><path class="cls-10" d="M661.9,426.84a47.17,47.17,0,0,1-14.5,1.6l-5,17.5-12-3.5-1.6,5.5,22,6.3,5-17.5a45.84,45.84,0,0,0,11.1-.9Z"/><path class="cls-10" d="M636.8,334.14c1.1-.3,2.2-.5,3.3-.8l-3.7-6.8-2.9,1.6Z"/><path class="cls-10" d="M624.9,423.94l.5-1.8A47.58,47.58,0,0,1,614,413l-13,7.2,5.5,10,15.9-8.8A29.49,29.49,0,0,0,624.9,423.94Z"/></g><path class="cls-11" d="M271.5,397.24a37.45,37.45,0,0,0-29.5-44,36.11,36.11,0,0,0-7.3-.7,37.55,37.55,0,0,0-17.9,4.6,64.19,64.19,0,0,0-116.1,37.8v.5a67.62,67.62,0,0,0-59.9,67.2h0a67.49,67.49,0,0,0,67.6,67.5H253.5a67.64,67.64,0,0,0,67.6-67.6h0A67.6,67.6,0,0,0,271.5,397.24Z"/><path class="cls-4" d="M253.5,532.84H108.4a70.55,70.55,0,0,1-10.6-140.3,67,67,0,0,1,119.8-39.3,40.43,40.43,0,0,1,57.1,41.9,70.5,70.5,0,0,1-21.2,137.7Zm-88.6-199.4a61.37,61.37,0,0,0-61.3,61.3v.5a2.85,2.85,0,0,1-2.6,2.9,64.69,64.69,0,0,0,7.4,129H253.5a64.64,64.64,0,0,0,17.3-127,2.92,2.92,0,0,1-2.1-3.4,34.54,34.54,0,0,0-27.4-40.6,35,35,0,0,0-23.1,3.5,3.07,3.07,0,0,1-3.8-.8A60.9,60.9,0,0,0,164.9,333.44Z"/><g class="cls-9"><path class="cls-10" d="M255.4,373.24a35.14,35.14,0,0,1-.7,7.2,69.8,69.8,0,0,1,17.5,7.6,37.42,37.42,0,0,0-20.7-31.6A37.35,37.35,0,0,1,255.4,373.24Z"/><path class="cls-10" d="M292.2,406.94a67.6,67.6,0,0,1-55.5,106.2H91.5A67.38,67.38,0,0,1,52.9,501a67.38,67.38,0,0,0,55.5,29H253.6a67.56,67.56,0,0,0,38.6-123.1Z"/></g><path class="cls-8" d="M157.8,388.24a5.55,5.55,0,0,1,0,7.9h0a5.61,5.61,0,0,1-4,1.7,20.4,20.4,0,0,0-4.9.5c-.9.2-1.5,1-1.9,2.4a25.56,25.56,0,0,0-.5,6.2v15.5c0,7.9-1.2,13.7-3.7,17.6-.1.1-.2.3-.3.4a16.13,16.13,0,0,1-2.4,2.8,20.79,20.79,0,0,1,2.7,3.2,22.31,22.31,0,0,1,3,7.9,47.26,47.26,0,0,1,.8,9.9v15.5c.1,4.7.5,7.4,1.1,8s2.8,1.1,6.3,1.1h2.5a5.44,5.44,0,0,1,4,1.7,5,5,0,0,1,1.6,4,5.59,5.59,0,0,1-5.6,5.6H154a27,27,0,0,1-8-.9,13.68,13.68,0,0,1-6.5-3.7,15.3,15.3,0,0,1-3.4-7,36.63,36.63,0,0,1-.8-8.7V464a51.23,51.23,0,0,0-.6-7.8,10.73,10.73,0,0,0-1.3-3.8,8,8,0,0,0-2.1-2,20.88,20.88,0,0,0-4.1-1.7,5.11,5.11,0,0,1-4.4-4,5.61,5.61,0,0,1,.5-4.2,5.45,5.45,0,0,1,3.4-2.7,21.43,21.43,0,0,0,4.7-2,8.83,8.83,0,0,0,2.2-2.1c1.3-1.9,1.9-5.7,1.9-11.4v-15.5a42.7,42.7,0,0,1,.8-8.7,14.37,14.37,0,0,1,3.4-7,13.68,13.68,0,0,1,6.5-3.7,34.8,34.8,0,0,1,7.9-.9A5.12,5.12,0,0,1,157.8,388.24Z"/><path class="cls-4" d="M156.5,502.44H154a36.89,36.89,0,0,1-8.7-1,16.23,16.23,0,0,1-7.8-4.5,18,18,0,0,1-4-8.2,48.84,48.84,0,0,1-.9-9.3V464a44.93,44.93,0,0,0-.6-7.3,6.6,6.6,0,0,0-.9-2.8,3.74,3.74,0,0,0-1.3-1.2,12,12,0,0,0-3.3-1.3,7.8,7.8,0,0,1-6.4-5.9,9.13,9.13,0,0,1,.6-6.1.1.1,0,0,1,.1-.1,8.48,8.48,0,0,1,5-3.9,15.54,15.54,0,0,0,4-1.7,5.84,5.84,0,0,0,1.4-1.3c.6-.9,1.4-3.3,1.4-9.9V407a47,47,0,0,1,.8-9.2,17.54,17.54,0,0,1,4-8.2,16.75,16.75,0,0,1,7.7-4.5,35.48,35.48,0,0,1,8.6-1,8.67,8.67,0,0,1,5.9,2.4h0a8.33,8.33,0,0,1,0,11.7,8.67,8.67,0,0,1-5.9,2.4,25.61,25.61,0,0,0-3.9.3c-.1.2-.2.3-.2.5a25.48,25.48,0,0,0-.4,5.5v15.5c0,8.5-1.4,14.7-4.1,19-.1.2-.3.4-.4.6l-.9,1.2a10.38,10.38,0,0,1,1.2,1.7,23.53,23.53,0,0,1,3.3,8.8,60,60,0,0,1,.9,10.4v15.5a40.47,40.47,0,0,0,.5,6,15.33,15.33,0,0,0,4.3.3h2.5a8.67,8.67,0,0,1,5.9,2.4,7.49,7.49,0,0,1,2.4,5.8,8.55,8.55,0,0,1-8.3,8.3Zm-31-60.7a2.87,2.87,0,0,0-.2,2.4,2.55,2.55,0,0,0,2.3,2h.2a18.74,18.74,0,0,1,4.9,2,9.22,9.22,0,0,1,3,2.9,13.29,13.29,0,0,1,1.7,4.7,45.74,45.74,0,0,1,.7,8.3v15.5a37.1,37.1,0,0,0,.8,8.1,12.07,12.07,0,0,0,2.7,5.7,10.82,10.82,0,0,0,5.3,3,29.71,29.71,0,0,0,7.3.8h2.5a2.9,2.9,0,0,0,2.9-2.9,2.79,2.79,0,0,0-.8-2,2.72,2.72,0,0,0-2.1-.9h-2.5c-4.4,0-6.8-.5-8.2-1.8-1.1-1.1-1.8-3-2-9.8V464a49.73,49.73,0,0,0-.8-9.4,19.3,19.3,0,0,0-2.6-6.9,14.93,14.93,0,0,0-2.3-2.7,2.79,2.79,0,0,1-.8-2,2.52,2.52,0,0,1,.9-2,13.73,13.73,0,0,0,2-2.2.78.78,0,0,1,.4-.4c2.1-3.3,3.2-8.7,3.2-16v-15.5a25.73,25.73,0,0,1,.6-6.8V400a5.6,5.6,0,0,1,3.8-4.2,26,26,0,0,1,5.6-.6,3.08,3.08,0,0,0,3-3,3.08,3.08,0,0,0-3-3,29.45,29.45,0,0,0-7.2.8,11.33,11.33,0,0,0-5.2,3,12.07,12.07,0,0,0-2.7,5.7,44.32,44.32,0,0,0-.7,8.1v15.5c0,6.3-.7,10.4-2.3,12.9a.1.1,0,0,1-.1.1,15,15,0,0,1-2.9,2.7,21.43,21.43,0,0,1-5.4,2.3,2.58,2.58,0,0,0-2,1.4Z"/><path class="cls-8" d="M208,386.54a35.46,35.46,0,0,1,7.9.9,13.68,13.68,0,0,1,6.5,3.7,15.3,15.3,0,0,1,3.4,7,36.63,36.63,0,0,1,.8,8.7v15.5c0,5.7.6,9.5,1.9,11.4a11,11,0,0,0,2.2,2.1,19.57,19.57,0,0,0,4.7,2,6,6,0,0,1,3.4,2.7,6.12,6.12,0,0,1,.5,4.2,5.35,5.35,0,0,1-4.4,4,16.18,16.18,0,0,0-4.1,1.7,5.78,5.78,0,0,0-2.1,2,12.38,12.38,0,0,0-1.4,3.8,51.23,51.23,0,0,0-.6,7.8v15.5a42.7,42.7,0,0,1-.8,8.7,14.37,14.37,0,0,1-3.4,7,13.68,13.68,0,0,1-6.5,3.7,35.68,35.68,0,0,1-8,.9h-2.6a5.59,5.59,0,0,1-5.6-5.6,5.76,5.76,0,0,1,1.6-4,5.44,5.44,0,0,1,4-1.7h2.5c3.5,0,5.6-.4,6.3-1.1s1-3.3,1.1-8V464a55.1,55.1,0,0,1,.8-9.9,20.39,20.39,0,0,1,2.9-7.9,20.79,20.79,0,0,1,2.7-3.2,16.68,16.68,0,0,1-2.5-2.8.52.52,0,0,1-.2-.4c-2.5-3.8-3.7-9.7-3.7-17.6v-15.5a31.78,31.78,0,0,0-.5-6.2,3.24,3.24,0,0,0-1.9-2.4,20.4,20.4,0,0,0-4.9-.5,5.68,5.68,0,0,1-5.4-5.9,5.79,5.79,0,0,1,5.4-5.2Z"/><path class="cls-4" d="M207.9,502.44h-2.5a8.3,8.3,0,1,1,0-16.6h2.5a20.75,20.75,0,0,0,4.3-.3,41.82,41.82,0,0,0,.5-6.1V464a60,60,0,0,1,.9-10.4,23.53,23.53,0,0,1,3.3-8.8,10.92,10.92,0,0,1,1.3-1.7,6.42,6.42,0,0,1-1-1.3l-.3-.4c-2.8-4.3-4.2-10.5-4.2-19v-15.6a33.13,33.13,0,0,0-.4-5.5c-.1-.2-.1-.4-.2-.5a13.52,13.52,0,0,0-4-.3,8.31,8.31,0,0,1,0-16.6,34.11,34.11,0,0,1,8.5,1,17.07,17.07,0,0,1,7.8,4.5,18,18,0,0,1,4,8.2,48.84,48.84,0,0,1,.9,9.3v15.5c0,6.5.9,9,1.4,9.9a6.73,6.73,0,0,0,1.5,1.4,15.22,15.22,0,0,0,4,1.6,8,8,0,0,1,4.9,3.9l.1.2a8.94,8.94,0,0,1,.7,6,7.91,7.91,0,0,1-6.5,6,12,12,0,0,0-3.3,1.3,4.89,4.89,0,0,0-1.3,1.2,7.71,7.71,0,0,0-1,2.9,35.39,35.39,0,0,0-.5,7.3v15.5a48.84,48.84,0,0,1-.9,9.3,15.56,15.56,0,0,1-11.7,12.7A52.36,52.36,0,0,1,207.9,502.44Zm-2.5-11.2a2.88,2.88,0,0,0-2.1.9,2.72,2.72,0,0,0-.9,2.1,2.88,2.88,0,0,0,.9,2.1,2.72,2.72,0,0,0,2.1.9h2.5a29.71,29.71,0,0,0,7.3-.8,10.52,10.52,0,0,0,5.2-3,12.07,12.07,0,0,0,2.7-5.7,37.1,37.1,0,0,0,.8-8.1V464a56.91,56.91,0,0,1,.6-8.3,14,14,0,0,1,1.8-4.8,11,11,0,0,1,2.9-2.8,17.44,17.44,0,0,1,4.9-2h.2a2.55,2.55,0,0,0,2.3-2.1,3.06,3.06,0,0,0-.3-2.3,2.83,2.83,0,0,0-1.8-1.4,24.69,24.69,0,0,1-5.3-2.2,10,10,0,0,1-3-2.8l-.1-.1c-1.6-2.4-2.3-6.5-2.3-12.9v-15.5a37.1,37.1,0,0,0-.8-8.1,12.07,12.07,0,0,0-2.7-5.7,11.28,11.28,0,0,0-5.3-3,28.13,28.13,0,0,0-7.1-.8,3.07,3.07,0,0,0-3,3,2.88,2.88,0,0,0,.9,2.1,2.72,2.72,0,0,0,2.1.9,20.92,20.92,0,0,1,5.6.6c1.3.3,2.9,1.3,3.8,4.2v.1a25.73,25.73,0,0,1,.6,6.8v15.5c0,7.3,1.1,12.8,3.3,16.1l.2.3a14.34,14.34,0,0,0,2,2.3,2.52,2.52,0,0,1,.9,2,2.79,2.79,0,0,1-.8,2,16.13,16.13,0,0,0-2.4,2.8,18.63,18.63,0,0,0-2.5,6.8,49,49,0,0,0-.8,9.4v15.5c-.2,7-.8,8.9-2,9.9-1.3,1.3-3.7,1.8-8.2,1.8Z"/><path class="cls-4" d="M458,586.34a3.55,3.55,0,0,1-1-.2,2.6,2.6,0,0,1-1.6-2.4V556a2.61,2.61,0,0,1,2.7-2.6,2.34,2.34,0,0,1,1.8.8l13.9,13.9a2.66,2.66,0,0,1,0,3.8l-13.9,13.9A5.3,5.3,0,0,1,458,586.34Zm2.7-24v15l7.5-7.5Z"/><polygon class="cls-8" points="16.5 347.54 31.2 345.04 33.6 330.34 36.1 345.04 50.8 347.54 36.1 350.04 33.6 364.74 31.2 350.04 16.5 347.54"/><polygon class="cls-8" points="360.8 549.54 375.5 547.14 378 532.44 380.5 547.14 395.2 549.54 380.5 552.04 378 566.74 375.5 552.04 360.8 549.54"/><path class="cls-4" d="M98.5,285.14H87a3,3,0,0,1-2.6-1.5l-5.7-9.9a3.19,3.19,0,0,1,0-3l5.7-10a3.11,3.11,0,0,1,2.6-1.5H98.5a3,3,0,0,1,2.6,1.5l5.7,9.9a3.19,3.19,0,0,1,0,3l-5.7,9.9A2.88,2.88,0,0,1,98.5,285.14ZM88.8,279h7.9l4-6.9-4-6.9H88.8l-4,6.9Z"/><path class="cls-4" d="M2.6,430.34a3.55,3.55,0,0,1-1-.2,2.6,2.6,0,0,1-1.6-2.4V400a2.58,2.58,0,0,1,2.6-2.6,2.73,2.73,0,0,1,1.9.8l13.9,13.9a2.66,2.66,0,0,1,0,3.8L4.5,429.84A5.3,5.3,0,0,1,2.6,430.34Zm2.6-24v15l7.5-7.5Z"/></g></g></svg>